<svg id="Layer_1" data-name="Layer 1" xmlns="http://www.w3.org/2000/svg" viewBox="0 0 478.36 639.8">
  <title>02-orange</title>
  <g>
    <path d="M479.32,256.08c-33.8-30-78.65-40.15-119.17-24.84,41.39,33,42.1,89.83,87.64,137.52,21.27,22.29,56.43,37,139.93,15.4C528.2,362.3,530.08,301.2,479.32,256.08Z" transform="translate(-338.55 -224.17)" fill="#6bb246"/>
    <path d="M514.24,352.42c-.46-10.65-1.55-20.67-6.47-31.16,2.61,8.42,2.4,17.32,1.46,26.15-7.58-7.8-15-16.36-22.48-25.19,0-1.12,0-2.24,0-3.35a260.92,260.92,0,0,0-2.26-32.68,268.89,268.89,0,0,1-2.88,30c-5.49-6.49-12.54-15.77-18.29-22.25.7-14.1-3-25.56-8.25-38.85a91.56,91.56,0,0,1,1.55,31.78L457,288a278.9,278.9,0,0,0-21.44-20.81,177.46,177.46,0,0,0-15.21-33.94q3.84,12.48,7.19,25.12l2.51,4.24c-19.41-15.59-41.9-27.49-69.87-31.34,41.39,33,42.1,89.83,87.64,137.52,21.27,22.29,56.43,37,139.93,15.4C557.83,386.54,535.15,372.69,514.24,352.42Z" transform="translate(-338.55 -224.17)" fill="#549934"/>
    <path d="M640.37,365c-21.62,12.37-40.73,14.88-57.6,16.22-97.66.51-96.08-136.13-222.62-149.95,26,5.13,46.26,14.76,63.08,26.79a131.93,131.93,0,0,1-22.15,2.6,78.18,78.18,0,0,0,26.34.5,228.22,228.22,0,0,1,28.4,26.29c-6.27,3.44-26.59,1-34.47.62,9,4,27.89,6.9,37.78,3.7,6.48,7.54,12.51,15.27,18.4,22.9-9.49,6.3-35,6.83-43.33,4.42,7.71,4.6,36,6.27,47.1.47,7.5,9.72,14.86,19.17,22.72,27.75-10,6.88-35.65,6.82-43.81,5,8.83,5.93,38.54,7.83,48.92.37C527.42,371.1,549,384.47,581,385.84c23.81-.39,35.21-3.17,56.83-13C640.84,369.67,641,367.32,640.37,365Z" transform="translate(-338.55 -224.17)" fill="#498c26"/>
    <path d="M599.62,406.58C706.8,417.86,813.9,495.45,816.79,612.43c2.82,114.21-45,163.29-89.64,194.57-54.27,38.07-81.4,33.84-103.11,38.07s-38,25.38-67.83,16.92-39.38-11.91-66.48-25.38c-31.2-15.51-167.83-63.44-149.5-239.69C353.59,468.45,483.38,394.35,599.62,406.58Z" transform="translate(-338.55 -224.17)" fill="#ff9c0d"/>
    <path d="M620.29,436.88c-6.27-3-17.36-6.43-23.71-3.37-5.87-6.58-34.81-2.94-43.47-1.18,3.76,12.69,14.33,14.81,20.21,16.69-1.88,6.11-2.79,11.7-5.6,18.1a48.42,48.42,0,0,0,15-.16c5.51-1.06,10.29-3.31,15.32-5.73,6.64-3.19,12.55-4.9,20-4.18,11.53,1.11,28.88,4.32,39.65-2.55A59.13,59.13,0,0,1,641.17,448C634.24,444,627.46,440.31,620.29,436.88Z" transform="translate(-338.55 -224.17)" fill="#ff9100"/>
    <path d="M776.15,686c-35.4,30.92-83.42,42.76-129.65,41.39-47.85-1.42-96-16-132.46-47.89-34.55-30.23-60-72.76-66.57-118.52a125.58,125.58,0,0,1,4.25-55.8,204.13,204.13,0,0,1,25.16-52.56c9.54-14.27,21.8-28.91,36.28-39.83-86.67,21.38-162.86,87.31-172.93,184.12C321.9,773.16,458.53,821.1,489.73,836.61c27.1,13.47,36.63,16.92,66.48,25.38S602.33,849.3,624,845.07s48.84,0,103.11-38.07c43.52-30.53,90.16-78,89.75-186.48C809.53,645.52,796.26,668.44,776.15,686Z" transform="translate(-338.55 -224.17)" fill="#ff9100"/>
    <path d="M649.77,829.48c-39.08,5.29-106.54,16.42-166.69-20.68-37.6-23.18-65.12-56.08-80.21-76.45-14.39-19.4-24.44-48.88-29.69-74-10.84-51.92-7-108.48,16.14-155.63a236.94,236.94,0,0,1,26.28-42c-40.5,32.81-69.43,79.14-75.37,136.22C321.9,773.16,458.53,821.1,489.73,836.61c27.1,13.47,36.63,16.92,66.48,25.38S602.33,849.3,624,845.07s48.84,0,103.11-38.07c5.65-4,11.37-8.23,17-12.86C709.31,815.7,677.85,825.69,649.77,829.48Z" transform="translate(-338.55 -224.17)" fill="#f98800"/>
    <path d="M560.63,433.74c9.16-.94,25.85-9.4,34.62-.94,14.42-2.5,30.08,4.39,37.29,13.63-10.81,2.35-20.37,4.55-31.65.79-2.82,6.11-10.65,8.61-20,11.43.47-7,2.35-12.22,1.88-14.1C571.91,444.55,566.74,441.26,560.63,433.74Z" transform="translate(-338.55 -224.17)" fill="#6bb246"/>
    <path d="M582.72,436.86a82,82,0,0,1,12.54-.45,47,47,0,0,1,10.49,1.68c3.67.94,18.8,4,26.79,8.34-7.21-9.24-22.87-16.13-37.29-13.63-8.77-8.46-25.46,0-34.62.94l.33.4C567.54,437.77,575.4,437.77,582.72,436.86Z" transform="translate(-338.55 -224.17)" fill="#549934"/>
    <path d="M587.73,438.44c5.64-47.62,58.91-62,60.16-97.76,5.64-5,11.91-3.76,16.3-.62,0,50.13-63.3,59.53-60.16,97.76C599.64,441,592.12,441.58,587.73,438.44Z" transform="translate(-338.55 -224.17)" fill="#6bb246"/>
    <path d="M660,337.93c-1.09,5.63-.42,11.48-2.19,17a53,53,0,0,1-7.31,15.47c-6.79,9.24-15.72,16.18-24.16,23.81-7.94,7.18-17.42,16.87-20.77,27.46-1.92,6-2.93,11.12-1.52,16.14-3.14-38.23,60.16-47.63,60.16-97.76A15.31,15.31,0,0,0,660,337.93Z" transform="translate(-338.55 -224.17)" fill="#549934"/>
    <path d="M684.71,470.25c19.26-21.61,63.41,27.42,48,43S669.81,487,684.71,470.25Z" transform="translate(-338.55 -224.17)" fill="#fff"/>
    <path d="M738.2,522.26c15.49-3.26,21,23,5.52,26.21S719.14,526.27,738.2,522.26Z" transform="translate(-338.55 -224.17)" fill="#fff"/>
    <path d="M402.06,590.19c-.1-4.14-3-9.07-7.6-9a4.62,4.62,0,0,0-3.41,1.61,3.11,3.11,0,0,0-3.13,3.07c-.23,4.87-1,11.05,4.41,13.46,2.89,1.29,5.9.86,7.88-1.7C401.78,595.6,402.12,592.69,402.06,590.19Z" transform="translate(-338.55 -224.17)" fill="#ff9c0d"/>
    <path d="M421.76,527.86a2.2,2.2,0,0,0-2.17,2.09,2.28,2.28,0,0,0-1,1.4,8.88,8.88,0,0,0,3.65,9.68,2.58,2.58,0,0,0,3.09-.4C429.89,537,428.49,527.64,421.76,527.86Z" transform="translate(-338.55 -224.17)" fill="#ff9c0d"/>
    <path d="M429.65,563.34a4.18,4.18,0,0,0,0-.61,6.27,6.27,0,0,0-1.52-2.7c-.95-1.17-2.5-.41-3,.72a2.52,2.52,0,0,0-1,2.35,4.06,4.06,0,0,0-.23,1.21c-.09,1.76,1.53,3,2.86,3.82a2.22,2.22,0,0,0,3.3-1.9A9.08,9.08,0,0,0,429.65,563.34Z" transform="translate(-338.55 -224.17)" fill="#ff9c0d"/>
    <path d="M431.16,632.45c-1.27-3.31-4.43-6.23-8.18-5.83a2.5,2.5,0,0,0-2.4,2.4,21,21,0,0,0-.12,2.27c0,.05,0,.09-.07.14a12,12,0,0,0,.45,8.49,4.91,4.91,0,0,0,7.68,1.92A7.72,7.72,0,0,0,431.16,632.45Z" transform="translate(-338.55 -224.17)" fill="#ff9c0d"/>
    <path d="M441.51,602.87a1.85,1.85,0,0,0-1.77-1.35c-1.51-.12-3.12-.11-4.19,1.15a4.3,4.3,0,0,0-.22,4.83,1.82,1.82,0,0,0,.76.77,9.83,9.83,0,0,0,.52,1.43,1.66,1.66,0,0,0,1.9.77C441.88,609.32,442.32,605.94,441.51,602.87Z" transform="translate(-338.55 -224.17)" fill="#ff9c0d"/>
    <path d="M438.85,709.16c-4-2.95-7.66,2.13-8.71,5.46-1.33,4.23.52,9.41,5.71,8.88a2.89,2.89,0,0,0,1.36-.46,4.43,4.43,0,0,0,2.14,0C445.12,721.5,442.24,711.66,438.85,709.16Z" transform="translate(-338.55 -224.17)" fill="#ff9c0d"/>
    <path d="M463.6,664.62c-.27-2.59-2.11-4.84-4.92-4.21a4.54,4.54,0,0,0-2.69,2.13c-.68,1.1-1.07,3-.27,4.15,0,.1.08.21.13.32a1.54,1.54,0,0,0,1.85.76,6.45,6.45,0,0,0,1.22,1.18,2.84,2.84,0,0,0,3.64-.13C463.67,667.89,463.73,665.93,463.6,664.62Z" transform="translate(-338.55 -224.17)" fill="#ff9c0d"/>
    <path d="M522.65,716.81a2.09,2.09,0,0,0-1.48-1.49,8.79,8.79,0,0,0-3.5-.1,2,2,0,0,0-.31-.13,1.69,1.69,0,0,0-2,1.15,5.25,5.25,0,0,0,.19,5c1.27,1.85,3.43,2.07,5.48,1.71a2.09,2.09,0,0,0,1.46-1.46A8.71,8.71,0,0,0,522.65,716.81Z" transform="translate(-338.55 -224.17)" fill="#ff9c0d"/>
    <path d="M494.18,681.61c-1.6-.83-4.45-1.23-5.86.18a6.31,6.31,0,0,0-1.29,3.77,6.81,6.81,0,0,0,.82,3.42,2.24,2.24,0,0,0,1.6,1.13c2,2.28,6.32,1.94,7.74-.81S496.82,683,494.18,681.61Z" transform="translate(-338.55 -224.17)" fill="#ff9c0d"/>
    <path d="M503.72,758c-1.84-2.87-6.17-4.94-9.4-3.27a9.47,9.47,0,0,0-3.08.27,2.54,2.54,0,0,0-1.8,1.8,10.39,10.39,0,0,0,1.08,6.69,7.3,7.3,0,0,0,2.29,3.26c.18.13.35.25.53.36,2.42,2,5.61,2.75,8.7.49A6.9,6.9,0,0,0,503.72,758Z" transform="translate(-338.55 -224.17)" fill="#ff9c0d"/>
    <path d="M576.53,735.6a3.56,3.56,0,0,0-2.9-.56,9.47,9.47,0,0,0-1.77-.82,1.86,1.86,0,0,0-2.25,1.28c-1.57,4.83,3.78,7.45,7.81,6.28a1.6,1.6,0,0,0,1.15-1.52A5.48,5.48,0,0,0,576.53,735.6Z" transform="translate(-338.55 -224.17)" fill="#ff9c0d"/>
    <path d="M585,792.45a5.69,5.69,0,0,0-3.59-.92c-3.88-.61-8.1,1.17-8.27,5.64-.12,3.33,3.16,6.17,6.2,6.67a8.06,8.06,0,0,0,7.95-2.94C589.39,798.13,587.48,794.18,585,792.45Zm-4.45,4a3.33,3.33,0,0,1,1.62.91,1.4,1.4,0,0,1-.87-.25A3.94,3.94,0,0,1,580.55,796.43Z" transform="translate(-338.55 -224.17)" fill="#ff9c0d"/>
    <path d="M578.39,778.28a9.87,9.87,0,0,0-.6-2.27,4.11,4.11,0,0,0-1.45-1.59,7.06,7.06,0,0,0-1-.54,1.9,1.9,0,0,0-.87-.22,8.13,8.13,0,0,0-.85-.26,1.52,1.52,0,0,0-1.84,1,4.27,4.27,0,0,0,.75,4.4,5.11,5.11,0,0,0,4.45,1.25A1.47,1.47,0,0,0,578.39,778.28Z" transform="translate(-338.55 -224.17)" fill="#ff9c0d"/>
    <path d="M636.64,738.78a6.43,6.43,0,0,0-2.62-1.64,6.63,6.63,0,0,0-4.47-1.26c-3.33.22-7,2.22-7.41,5.85-.46,4.74,7.18,6.19,10.46,5.85,2.34-.24,4.49-1.28,5.4-3.57A5,5,0,0,0,636.64,738.78Z" transform="translate(-338.55 -224.17)" fill="#ff9c0d"/>
    <path d="M621.39,762a3.81,3.81,0,0,0-2.59-.78l-.23,0a2.05,2.05,0,0,0-2.45,1,1.66,1.66,0,0,0-.63,1.82,1.62,1.62,0,0,0,.36.67,1.91,1.91,0,0,0,1.87,1.5,6.23,6.23,0,0,0,1.93-.23c.61-.21,1.15-.56,1.74-.82a1.84,1.84,0,0,0,.93-1.62A2,2,0,0,0,621.39,762Z" transform="translate(-338.55 -224.17)" fill="#ff9c0d"/>
    <path d="M675.55,774.91a6.56,6.56,0,0,0-5.39-2.12c-1.38.11-3.12.35-3.89,1.66a4.69,4.69,0,0,0,.05,4.31,2.73,2.73,0,0,0,3,1.25c.43-.08.84-.18,1.24-.29,1.75.87,3.43.31,4.94-.88C676.77,777.87,676.49,775.92,675.55,774.91Z" transform="translate(-338.55 -224.17)" fill="#ff9c0d"/>
    <path d="M727.28,728.69a2.49,2.49,0,0,0-2.4-2.41c-3-.37-6.62,1.29-6.35,4.82a1.45,1.45,0,0,0,.08.36,1.93,1.93,0,0,0,0,.24,2.82,2.82,0,0,0,0,1.16c.49,2.66,3.9,3.86,6.13,2.79a4.58,4.58,0,0,0,2.23-3.95A6.56,6.56,0,0,0,727.28,728.69Z" transform="translate(-338.55 -224.17)" fill="#ff9c0d"/>
    <path d="M564.76,677a3.87,3.87,0,0,0-4.12-.35,3.4,3.4,0,0,0-1.38,1.34,3.36,3.36,0,0,0-2.29,1.91c-1.24,2.76-.09,5.56,2.23,7.26a8.83,8.83,0,0,0,7.16,1,2.43,2.43,0,0,0,1.71-2.25C568.44,682.74,567.37,679,564.76,677Z" transform="translate(-338.55 -224.17)" fill="#ffa729"/>
    <path d="M589,701.7a5.46,5.46,0,0,0-2.16.88,8.9,8.9,0,0,0-2.1.22,2.1,2.1,0,0,0-1.56,2c.3,2.59,1.85,4.9,4.65,5.11,2.58.2,4.56-1.85,5.14-4.22C593.62,703.07,591.53,701.3,589,701.7Z" transform="translate(-338.55 -224.17)" fill="#ffa729"/>
    <path d="M599.38,685.41a6,6,0,0,0-1.13-2.08,4.79,4.79,0,0,0-.47-.43l-.6-.47s-.44-.33-.25-.18a1.59,1.59,0,0,0-2.19,0,2.49,2.49,0,0,0-.67,1c0,.2,0,.31-.05.36h0a.88.88,0,0,1,0-.14l0,.15a1.83,1.83,0,0,0-.51.84,1.87,1.87,0,0,0,.87,2.14,23.91,23.91,0,0,0,2.85,1A1.78,1.78,0,0,0,599.38,685.41Z" transform="translate(-338.55 -224.17)" fill="#ffa729"/>
    <path d="M642.09,708.83a8.32,8.32,0,0,0-4,.83,13.08,13.08,0,0,0-2.7.36,2.47,2.47,0,0,0-1.81,2.37c.14,7.61,13,10.45,14,1.81C648,711,644.94,709,642.09,708.83Z" transform="translate(-338.55 -224.17)" fill="#ffa729"/>
    <path d="M674.56,678.24a8.94,8.94,0,0,0-1-.12,1.6,1.6,0,0,0-1.11-1.6,3.23,3.23,0,0,0-3.86,1.42c-.9,1.36-.56,3.29.13,4.66a2.17,2.17,0,0,0,2.44,1c.25-.07.51-.13.76-.18l.32-.07c-.47.1-.06,0,0,0a4.43,4.43,0,0,0,1.68-.42,4.27,4.27,0,0,0,1.76-2.71A1.61,1.61,0,0,0,674.56,678.24Z" transform="translate(-338.55 -224.17)" fill="#ffa729"/>
    <path d="M697.58,707.11a1.78,1.78,0,0,0-1.53-.87A6.48,6.48,0,0,0,692,707a2.79,2.79,0,0,0-.5.39,5.31,5.31,0,0,0-3.64,5.35,2.16,2.16,0,0,0,1.56,2.06c2.17.65,4.77.69,6.67-.7C698.36,712.37,698.65,709.6,697.58,707.11Z" transform="translate(-338.55 -224.17)" fill="#ffa729"/>
    <path d="M745.63,667.31c-2.25-2.43-5.43-1.47-7.19.87a7.28,7.28,0,0,0-2.57,1.79c-2,2.18-2,5.49.74,7.06C742.31,680.34,750.69,672.74,745.63,667.31Z" transform="translate(-338.55 -224.17)" fill="#ffa729"/>
    <path d="M732.7,692.13a3.22,3.22,0,0,0-2.54-2.39,1.92,1.92,0,0,0-1.95,1.32,4.3,4.3,0,0,0-2.58,4.09,2,2,0,0,0,1.92,1.91c1.49.14,3.47.09,4.53-1.15A3.92,3.92,0,0,0,732.7,692.13Z" transform="translate(-338.55 -224.17)" fill="#ffa729"/>
    <path d="M764.67,678.66a1.14,1.14,0,0,0-1.37-.17l0,0a1.45,1.45,0,0,0-2.56,1.22s0,.06,0,.08v0a3.23,3.23,0,0,0,.13.69,1.91,1.91,0,0,0,2,1.3,2.63,2.63,0,0,0,1.07-.26,1.34,1.34,0,0,0,.6-.78c-.15.4,0,.12,0,0l.18-.43a.63.63,0,0,0,.11-.12A1.35,1.35,0,0,0,764.67,678.66Z" transform="translate(-338.55 -224.17)" fill="#ffa729"/>
    <path d="M786.34,628.21c-.09-.36-.18-.71-.29-1a2.42,2.42,0,0,0-2.27-1.73,6.47,6.47,0,0,0-3.21.57,7.66,7.66,0,0,0-2.07,1,4.36,4.36,0,0,0-2.1,4.72,4.61,4.61,0,0,0,2.43,3,3.52,3.52,0,0,0,1.23,1,5.25,5.25,0,0,0,3.28.52,4.7,4.7,0,0,0,3.43-3.16A5.67,5.67,0,0,0,786.34,628.21Z" transform="translate(-338.55 -224.17)" fill="#ffa729"/>
    <path d="M704,643a2.34,2.34,0,0,0-1.66-2.18,8.15,8.15,0,0,0-5,0,21.72,21.72,0,0,0-3.43.32,2.31,2.31,0,0,0-1.7,1.7,6,6,0,0,0,1.33,5.26,4.15,4.15,0,0,0,.49.44c1.09,1.79,3.87,2,5.71,1.49a5.24,5.24,0,0,0,3.53-3.45,1.13,1.13,0,0,0,0-.18A5.39,5.39,0,0,0,704,643Z" transform="translate(-338.55 -224.17)" fill="#ffa729"/>
    <path d="M525.13,664.64a7.4,7.4,0,0,0-1.26-2.6,3.38,3.38,0,0,0-1.74-.81l-.4-.49c-1.18-1.51-4-.28-3.82,1.58a7.16,7.16,0,0,0,.92,3.59,4.36,4.36,0,0,0,.93,1.54,2.2,2.2,0,0,0,2.14.57,2,2,0,0,0,1.12-.76C524.32,667.23,525.68,666.08,525.13,664.64Z" transform="translate(-338.55 -224.17)" fill="#ffa729"/>
    <path d="M530,619a6.51,6.51,0,0,0-5.45-1.89A1.94,1.94,0,0,0,523,618c-2.33.71-2.81,3.55-2.36,5.64a7.29,7.29,0,0,0,3.15,4.84,4,4,0,0,0,3.81.1,3.26,3.26,0,0,0,2.79-1.82,4.4,4.4,0,0,0,.59-2.33,1.27,1.27,0,0,0,.06-.18A5.7,5.7,0,0,0,530,619Z" transform="translate(-338.55 -224.17)" fill="#ffa729"/>
    <path d="M493.51,627.42a5.06,5.06,0,0,0-3.63-2.63,5.67,5.67,0,0,0-3-.88,4.08,4.08,0,0,0-3.91,4.4,9.87,9.87,0,0,0,2.3,5.92,4.58,4.58,0,0,0,4.48,1.44,5.58,5.58,0,0,0,3.31-2.54A5.86,5.86,0,0,0,493.51,627.42Z" transform="translate(-338.55 -224.17)" fill="#ffa729"/>
    <path d="M485.61,594.19a8.36,8.36,0,0,0-8.06-2.41,2.27,2.27,0,0,0-1.66,2.17v.21a1.89,1.89,0,0,0-.21.51,8.84,8.84,0,0,0,1.73,7.81c2.18,2.6,5.47,2.33,7.84.19A5.88,5.88,0,0,0,485.61,594.19Z" transform="translate(-338.55 -224.17)" fill="#ffa729"/>
    <path d="M509.55,599.88a7.39,7.39,0,0,0-1-3.4,1.92,1.92,0,0,0-2.18-.88A1.94,1.94,0,0,0,505,598a.45.45,0,0,1,0,.08v.12a6.56,6.56,0,0,0,.1,1.07,3.47,3.47,0,0,0,.13.46,1.78,1.78,0,0,0,0,1,2,2,0,0,0,1.85,1.41,1.72,1.72,0,0,0,1.57-.69A1.31,1.31,0,0,0,509.55,599.88Z" transform="translate(-338.55 -224.17)" fill="#ffa729"/>
    <path d="M465.87,564.13a3.8,3.8,0,0,0-4.12-.55,3.44,3.44,0,0,0-1,.73,2.17,2.17,0,0,0-1.26,1.5,7.47,7.47,0,0,0-.19,1.42,17.6,17.6,0,0,0-.39,2.22,5.49,5.49,0,0,0,.65,3.73c1.43,2.05,3.87,2,5.82.87a3.72,3.72,0,0,0,1.17-.79l0,0,.38-.32a.86.86,0,0,0,.14-.13,7.44,7.44,0,0,0,2.63-4.8C469.93,565.53,467.94,564.42,465.87,564.13Z" transform="translate(-338.55 -224.17)" fill="#ffa729"/>
    <path d="M505.25,567.78a8.39,8.39,0,0,0-2-2.69c-.08-.07-.17-.11-.25-.17a1.64,1.64,0,0,0-.81-.68l.11,0a2.47,2.47,0,0,0-3.42,1.08,3.36,3.36,0,0,0,0,3,4.05,4.05,0,0,0,1.78,1.72,4.24,4.24,0,0,0,1.71.47,3,3,0,0,0,.6,0c.13,0,1.2-.08.69-.06A1.84,1.84,0,0,0,505.25,567.78Z" transform="translate(-338.55 -224.17)" fill="#ffa729"/>
    <path d="M564.56,642.65c-3,.12-4.22,2.83-4,5.44a5.53,5.53,0,0,0,.08,2.14,4.08,4.08,0,0,0,3.22,2.92h.06a6.23,6.23,0,0,0,.79.33c1.39.45,3.85.3,4.93-.79a3.28,3.28,0,0,0,.83-2.07,5,5,0,0,0,.66-1.17C572.54,645.83,567.71,642.53,564.56,642.65Z" transform="translate(-338.55 -224.17)" fill="#ffa729"/>
    <path d="M633.66,646.81a6,6,0,0,0-1-1.26c-2.24-3.06-7.17-4.76-10.48-3.42a5.14,5.14,0,0,0-2.42,7.76,9.38,9.38,0,0,0,3.34,3c3,2.19,7.51,2.45,9.67-.67A4.51,4.51,0,0,0,633.66,646.81Z" transform="translate(-338.55 -224.17)" fill="#ffa729"/>
    <path d="M640.1,673.56a4.85,4.85,0,0,0-.94-.81,4.71,4.71,0,0,0-.48-.29s-.45-.31-.21-.11a1.75,1.75,0,0,0-2.56.28,2.51,2.51,0,0,0-.55,0,2.15,2.15,0,0,0-2,1.54,2.1,2.1,0,0,0,1,2.36,6.75,6.75,0,0,0,2.93.69,4.55,4.55,0,0,0,2.87-1.29A1.68,1.68,0,0,0,640.1,673.56Z" transform="translate(-338.55 -224.17)" fill="#ffa729"/>
    <path d="M471.64,501.31a2.54,2.54,0,0,0-3,.39,5.94,5.94,0,0,0-1.45,1.66,5.33,5.33,0,0,0-.63.23c-2.24,1-3,3.55-3,5.81a5.34,5.34,0,0,0,3.54,5.19,4.8,4.8,0,0,0,2.81.06,2.66,2.66,0,0,0,1.35-.31,10,10,0,0,0,1.8-1.26l.05,0a7.2,7.2,0,0,0,2.75-5.28C476,504.94,473.81,502.71,471.64,501.31Z" transform="translate(-338.55 -224.17)" fill="#ffa729"/>
    <path d="M573.53,591.05a4.08,4.08,0,0,0,.09-.61,4.29,4.29,0,0,0-4-4.38,2.88,2.88,0,0,0-1.89.52,7.19,7.19,0,0,0-1.52.15,2.23,2.23,0,0,0-1.56,1.57,4.78,4.78,0,0,0,3.36,6.05,4.49,4.49,0,0,0,2.33,0,4.61,4.61,0,0,0,1,0,2.31,2.31,0,0,0,2.26-2.27A5.5,5.5,0,0,0,573.53,591.05Z" transform="translate(-338.55 -224.17)" fill="#ffa729"/>
    <path d="M591.56,615.05a4,4,0,0,0-3.55-3.51,2.78,2.78,0,0,0-1.38.28,1.35,1.35,0,0,0-1.64.48,2,2,0,0,0-.87,1.63,3.75,3.75,0,0,0,2,3.38,5.64,5.64,0,0,0,4.14.09A2,2,0,0,0,591.56,615.05Z" transform="translate(-338.55 -224.17)" fill="#ffa729"/>
    <path d="M625.59,596.62c-.63-2.5-3.46-3.5-5.77-3.17a3.91,3.91,0,0,0-1,.29,6.82,6.82,0,0,0-1.54.11,2.67,2.67,0,0,0-2,2.56c0,3.17,2.54,5.07,5.43,5.45A4.36,4.36,0,0,0,625.59,596.62Z" transform="translate(-338.55 -224.17)" fill="#ffa729"/>
    <path d="M631.38,613.52a1.41,1.41,0,0,0-.63-.58,1.45,1.45,0,0,0-1-.76,1.77,1.77,0,0,0-1.71.46,3.6,3.6,0,0,0-.45.58,2,2,0,0,0,0,2,2.41,2.41,0,0,0,2.08,1.12,1.6,1.6,0,0,0,1.4-.81A1.92,1.92,0,0,0,631.38,613.52Z" transform="translate(-338.55 -224.17)" fill="#ffa729"/>
    <path d="M686.39,565.43c-1-1.22-2.74-1.25-4.14-1a8.59,8.59,0,0,0-3.63,1.52,4.65,4.65,0,0,0-2.23,3.78c0,3,3.26,4.72,5.94,4.61a4.76,4.76,0,0,0,4.92-4.84,1,1,0,0,0,0-.16A4.32,4.32,0,0,0,686.39,565.43Z" transform="translate(-338.55 -224.17)" fill="#ffa729"/>
    <path d="M788.73,569.26A5.32,5.32,0,0,0,789.9,566a4,4,0,0,0-5.06-4,5,5,0,0,0-1.78,1c-3.13.76-5.89,3.58-4.32,6.8,1.15,2.38,4.52,2.75,6.7,1.88a10.4,10.4,0,0,0,1.24-.64,4.38,4.38,0,0,0,1.44-1A4.85,4.85,0,0,0,788.73,569.26Z" transform="translate(-338.55 -224.17)" fill="#ffa729"/>
    <g>
      <path d="M775.52,580a1.67,1.67,0,0,0-2-1.14,3.13,3.13,0,0,0-1.41.76,2.22,2.22,0,0,0-.43-.06,2.13,2.13,0,0,0-2,1.51,3.75,3.75,0,0,0,.89,3.72,2.65,2.65,0,0,0,3.41.41,3.87,3.87,0,0,0,.55-.45c.12-.14.23-.3.34-.45a4.25,4.25,0,0,0,.71-1.31A5,5,0,0,0,775.52,580Z" transform="translate(-338.55 -224.17)" fill="#ffa729"/>
      <path d="M774.72,584.5Z" transform="translate(-338.55 -224.17)" fill="#ffa729"/>
      <path d="M774.77,584.44a1,1,0,0,1,.08-.11l-.13.17Z" transform="translate(-338.55 -224.17)" fill="#ffa729"/>
      <path d="M774.89,584.27l0,0s0,0,0,0Z" transform="translate(-338.55 -224.17)" fill="#ffa729"/>
    </g>
    <path d="M771.82,638.58a4,4,0,0,0-2.27-1.47,4.11,4.11,0,0,0-1.29-.49,6.89,6.89,0,0,0-2.92.31,2.23,2.23,0,0,0-1.55,2.73,4.57,4.57,0,0,0,8,1.91A2.16,2.16,0,0,0,771.82,638.58Z" transform="translate(-338.55 -224.17)" fill="#ffa729"/>
    <path d="M555,508.51a4.33,4.33,0,0,0-2.33,6.1,6.72,6.72,0,0,0,4.64,3.69,4.25,4.25,0,0,0,4.62-2.21C565.28,512,559.12,507,555,508.51Z" transform="translate(-338.55 -224.17)" fill="#ffa729"/>
    <path d="M564.37,525.91a5.16,5.16,0,0,0-1.5-1.58,2.18,2.18,0,0,0-.77-.65,2.88,2.88,0,0,0-.49-.18,1.18,1.18,0,0,0-.94-.07l-.23.1a1.87,1.87,0,0,0-.74.46,2,2,0,0,0-.31,2.4c-.32-.7,0,.17.16.37l.21.3a4,4,0,0,0,.71.92,2.65,2.65,0,0,0,3.9-.4A1.66,1.66,0,0,0,564.37,525.91Z" transform="translate(-338.55 -224.17)" fill="#ffa729"/>
    <path d="M515.94,472.44c-.71-3.42-4.36-5.14-7.54-4.64a2.2,2.2,0,0,0-1.58,1.58v0a4.77,4.77,0,0,0-1,4.28,6.3,6.3,0,0,0,4.05,4.23,5.3,5.3,0,0,0,4.94-1.1C516.07,475.79,516.24,473.92,515.94,472.44Z" transform="translate(-338.55 -224.17)" fill="#ffa729"/>
    <path d="M500.57,548.74a4.71,4.71,0,0,0-4.22-1.55,5.27,5.27,0,0,0-.81.13,4.58,4.58,0,0,0-2.46.93,2.68,2.68,0,0,0-.93,1.56,5.36,5.36,0,0,0-.53,1.83,5.46,5.46,0,0,0,2.86,4.9c2,1.12,4.1.67,6-.21a4.33,4.33,0,0,0,2.51-2.87C503.45,551.3,502.21,549.77,500.57,548.74Z" transform="translate(-338.55 -224.17)" fill="#ffa729"/>
    <path d="M518.64,519.47a4.77,4.77,0,0,0-2.13-1.73,1.87,1.87,0,0,0-2.71,1.1,2.84,2.84,0,0,0,.08,2,3.67,3.67,0,0,0,.2.88,3.23,3.23,0,0,0,2.41,2,1.75,1.75,0,0,0,2.14-1.22A4.65,4.65,0,0,0,518.64,519.47Z" transform="translate(-338.55 -224.17)" fill="#ffa729"/>
    <path d="M640.75,476.53a4.13,4.13,0,0,0-3.36.63,7,7,0,0,0-.91.44,2.54,2.54,0,0,0-1.16,2.84,5.64,5.64,0,0,0,4.34,4.32c2,.34,4.67-.42,5.09-2.77A5,5,0,0,0,640.75,476.53Z" transform="translate(-338.55 -224.17)" fill="#ffa729"/>
    <g>
      <path d="M671.75,444.11a1.1,1.1,0,0,0-.06.5v0A1.57,1.57,0,0,1,671.75,444.11Z" transform="translate(-338.55 -224.17)" fill="#ffa729"/>
      <path d="M674.87,448.48h0Z" transform="translate(-338.55 -224.17)" fill="#ffa729"/>
      <path d="M676.55,445a4.5,4.5,0,0,0-.75-1.44,2.25,2.25,0,0,0-2.49-1,2.33,2.33,0,0,0-1.56,1.54s0,0,0,.1a2.51,2.51,0,0,1,0,.27v.11s0,.07,0,.1v-.08c0,.17-.05.35-.08.52a9.71,9.71,0,0,0-.17,1.17c0,.27-.06,1,.08,0a2.13,2.13,0,0,0,.53,2,2,2,0,0,0,2,.53,5.73,5.73,0,0,0,.64-.26l.05,0h.12c.19,0,.57,0,0,0l-.08,0,.06,0-.08,0h.1c.09,0,.11,0,0,0a1.71,1.71,0,0,0,2-1.64A4.15,4.15,0,0,0,676.55,445Z" transform="translate(-338.55 -224.17)" fill="#ffa729"/>
    </g>
  </g>
</svg>
