<svg id="_ÎÓÈ_1" data-name="—ÎÓÈ_1" xmlns="http://www.w3.org/2000/svg" viewBox="0 0 897.14 958.55">
  <title>03-banana</title>
  <g>
    <path d="M833.55,110c-32.64,2.19-62.63,12.82-89,35.08,29.65,47.66,50.73,98.7,62.21,153.52-39.32,78.89,43,203.93-191.1,412-155.6,131.21-239.36,101.7-367.23,154.65-33.35,12.59-73.82,39.25-113.84,51.37-6.58,23-7.68,47.79-4.31,74.1,47,34.4,93.66,70.68,158.39,74.46,342.7,37.14,643.37-239.87,718.54-496.85,42.22-158,6.22-272-114.07-337.88C857.4,199.84,838.74,159,833.55,110Z" transform="translate(-127.05 -109.98)" fill="#f7cd1e"/>
    <path d="M833.55,110c-11.1,1.58-20.81,5.31-29.06,11.31,18.15,48.2,66.24,82.3,77.72,137.12C881.72,284,1114,470,796.69,785.27c-237.36,227.54-348.13,199-485.89,236-62.16,8.71-118.46-49.64-182-45.59l1.44,15.07c47,34.4,93.66,70.68,158.39,74.46,342.7,37.14,643.37-239.87,718.54-496.85,42.22-158,6.22-272-114.07-337.88C857.4,199.84,838.74,159,833.55,110Z" transform="translate(-127.05 -109.98)" fill="#fcd842"/>
    <path d="M770.2,131.86s-11.11-.13-25.64,13.2c29.65,47.66,50.73,98.7,62.21,153.52-39.32,78.89,43,203.93-191.1,412-155.6,131.21-239.36,101.7-367.23,154.65-33.35,12.59-73.82,39.25-113.84,51.37l-2.26,8.92c47,34.41,126.43-42,191.16-38.19C616.69,872.85,787,622.4,816.21,512.2c25.86-104.72,37.49-162.66,19.51-227C800,254.6,770.2,131.86,770.2,131.86Z" transform="translate(-127.05 -109.98)" fill="#e5c025"/>
    <path d="M744.56,145.06c26.66-23,56.94-32.38,89-35.08C803.57,124,772,130.22,744.56,145.06Z" transform="translate(-127.05 -109.98)" fill="#ae6228"/>
    <path d="M134.6,916.6c-8.53,23.39-9.63,48.15-4.31,74.1l2.64-15.25A152.84,152.84,0,0,0,136,927.94Z" transform="translate(-127.05 -109.98)" fill="#ae6228"/>
  </g>
</svg>
