<svg id="Layer_2" data-name="Layer 2" xmlns="http://www.w3.org/2000/svg" xmlns:xlink="http://www.w3.org/1999/xlink" viewBox="0 0 283.4 313.5">
  <defs>
    <clipPath id="clip-path" transform="translate(-98.03 -130.73)">
      <rect x="98.03" y="130.73" width="283.4" height="313.5" fill="none"/>
    </clipPath>
  </defs>
  <title>06-pear</title>
  <g clip-path="url(#clip-path)">
    <path d="M180.42,164.24c-28.06,4.29-41.23,24.81-45.89,38-3.56,10.09-3.37,24.36-7.39,31.25-3.54,6.07-18.5,22.12-24.24,36-7.63,18.48-7.16,59.79,7.65,80.7,10.82,15.27,36.07,31.3,51.85,35.17,14.74,3.62,43.42,7.05,57.24,1.74,31.76-12.2,56.2-40.33,61.11-58.84,4.22-15.92,6-48-9.68-66.95C259.19,246.9,246,241,241.44,231.24s-14.8-41.89-21.76-49.36c-9.68-10.4-23.14-20.11-39.26-17.64" transform="translate(-98.03 -130.73)" fill="#ffe038"/>
    <path d="M154.46,367.34c13.2,1.71,55.62-3.63,74.12-27.55,8.68-11.22,12.84-45.54,11.39-54.39-1.07-6.53-17.94-30.23-18.79-37.23-.9-7.48-.4-15-1.29-22.54a215,215,0,0,0-3.79-22.11c-1.55-6.9-2.61-23.77-17.59-37.1,8.25,3.27,15.39,9.24,21.17,15.46,7,7.47,17.24,39.58,21.76,49.36s17.75,15.66,29.63,30.07c15.66,19,13.9,51,9.68,66.95-4.91,18.52-29.35,46.64-61.11,58.84-13.82,5.31-42.5,1.89-57.24-1.74-15.78-3.87-41-19.9-51.85-35.17-.54-.77-1.06-1.57-1.57-2.39,13.3,10.27,29.23,17.43,45.48,19.54" transform="translate(-98.03 -130.73)" fill="#ffd917"/>
    <path d="M226.69,373.85c19.2-10.35,35.39-27.07,41.75-48.31a81,81,0,0,0,2.47-35.62c-1.83-11.63-7.47-21.38-14.34-30.74-7.24-9.85-14-19.68-18-31.34a98.56,98.56,0,0,1-3.43-12.71c2.55,6.74,4.79,12.74,6.34,16.11,4.53,9.79,17.74,15.66,29.63,30.07,15.66,19,13.9,51,9.68,66.95-4.91,18.51-29.35,46.64-61.11,58.84-12.35,4.75-36.55,2.51-52.09-.6,20.37,1.1,41.15-2.94,59.14-12.65" transform="translate(-98.03 -130.73)" fill="#ffd124"/>
    <path d="M182.27,172c5.77.81,9.89-1.83,18,2.75A21.57,21.57,0,0,0,196,176c-3.38,1.34-6.73,3.29-10.38,3.77-7.71,1-15.05-2.58-22.6-3.7,7.11-6.77,12.36-5,19.29-4" transform="translate(-98.03 -130.73)" fill="#ffd124"/>
    <path d="M185.89,179.61c-1.33-6.45-2.26-19.28-6.34-22.76-3.7-3.16-23.67-23.86-25.61-25.9-2.51,0-7.22,2-7.05,5.57,6.84,7.78,29,21.74,30.29,26.07,2.06,6,3,15.27,3.06,17.16,1.52.52,4.85,1,5.65-.14" transform="translate(-98.03 -130.73)" fill="#703d0a"/>
    <path d="M149.06,132.66l.58.49c5.78,5,10.85,10.75,16.64,15.73C171.43,153.3,178,157,179.86,164c1.46,5.35,1.37,11,3.17,16.28a11.67,11.67,0,0,1-2.79-.52c-.07-1.88-1-11.12-3.06-17.16-1.27-4.33-23.45-18.29-30.29-26.07a4.55,4.55,0,0,1,2.17-3.86" transform="translate(-98.03 -130.73)" fill="#4f2b0d"/>
    <path d="M153.94,131c-2.4-1.23-7.92,3-7.05,5.57,3.8,3.14,9-3.53,7.05-5.57" transform="translate(-98.03 -130.73)" fill="#9c5729"/>
    <path d="M183.06,188.09c28.54,14.17,12.67,61.51,23.56,85.84,16.61,37.12-20.27,66.74-55.47,61.72-42.12-6-53.55-49.41-24.43-85.21,9.64-11.85,7.19-32.21,18.39-50.31,9-14.57,22.29-19.82,37.95-12" transform="translate(-98.03 -130.73)" fill="#fce882"/>
    <path d="M140,253.94c-13.19-6.73-25.14,24.83-14.88,29.42s25.09-24.22,14.88-29.42" transform="translate(-98.03 -130.73)" fill="#fff"/>
    <path d="M124.1,288.65c-8,1.32-5.75,14.84,2.24,13.52s7.59-15.14-2.24-13.52" transform="translate(-98.03 -130.73)" fill="#fff"/>
    <path d="M186.78,386c-6.48,7.85-10.5,19-1.62,32,11.41,16.64,22.63,26.14,40.65,26.26,21.48.15,36.89-12.27,55.25-11.16,17.89,1.08,24.73,7.35,52.38-1.33,34.21-10.74,57.67-48.86,44.06-83.48C344.45,344,193.41,387.43,186.78,386" transform="translate(-98.03 -130.73)" fill="#ffd917"/>
    <path d="M353.87,420.58c-10.82,5.8-23.24,8.34-35.41,9.11a105.48,105.48,0,0,1-21.53-1,143.36,143.36,0,0,0-22.07-1.9,83.05,83.05,0,0,0-21.52,3.41c-6.52,1.83-13.12,3.87-19.94,3.84a27.2,27.2,0,0,1-16.08-5.3c-4.45-3.34-7.82-7.81-10.93-12.38-1.78-2.62-3.48-5.29-5.48-7.76a76.22,76.22,0,0,0-7.22-7.7A122.18,122.18,0,0,0,182.78,392c-3.65,7.13-4.43,16,2.38,25.93,11.41,16.64,22.62,26.14,40.66,26.27,21.47.15,36.88-12.28,55.24-11.17,17.89,1.08,24.73,7.35,52.38-1.33a68.78,68.78,0,0,0,23.37-12.83q-1.46.89-2.94,1.68" transform="translate(-98.03 -130.73)" fill="#ffd124"/>
    <path d="M186.37,417.09c3.41,4.32,8.19,8.48,13.85,9.25a15.83,15.83,0,0,0,11.27-3.13,78.4,78.4,0,0,1-5.1-6.81c-1.78-2.62-3.48-5.29-5.48-7.76a76.22,76.22,0,0,0-7.22-7.7A122.18,122.18,0,0,0,182.78,392a23.2,23.2,0,0,0-2.53,14,40,40,0,0,0,6.12,11.06" transform="translate(-98.03 -130.73)" fill="#fac21a"/>
    <path d="M190.18,413.1a68,68,0,0,1-12.44,7.21c-3.53,1.58-24.91-5.12-33.76-5.25-2.4,1.85-1.1,6,.28,7.68,2.4.12,27,1.64,31.06,2.3s12.31-5,17.36-8a5.85,5.85,0,0,0-2.5-4" transform="translate(-98.03 -130.73)" fill="#703d0a"/>
    <path d="M190.18,413.1a68,68,0,0,1-12.44,7.21c-3.53,1.58-24.91-5.12-33.76-5.25a3.88,3.88,0,0,0-1.31,3.55l.64.1c6.46,1,13,1.1,19.46,2.11,5.73.9,11.78,3.09,17.37.46,4-1.9,7.51-4.87,11.58-6.65a5.34,5.34,0,0,0-1.54-1.53" transform="translate(-98.03 -130.73)" fill="#4f2b0d"/>
    <path d="M144.26,422.74c-2.13-.88-2.45-6.82-.29-7.68,4.15.73,2.69,7.8.29,7.68" transform="translate(-98.03 -130.73)" fill="#9c5729"/>
    <path d="M378.53,354.74c.42-19.61-24.19-28.81-33.69-30.65-4.51-9.42-12-18.29-32.72-23.68-30.86-8-52.11,2.84-63.71,12.41s-30,38.54-35.1,46.6-33.77,26-33.21,39.28c.3,7.3,10.93,10.58,13.6,14.13,2.87,3.82,4.9,15.16,20.36,18,22.81,4.22,34.82-2.89,54.28-12.8,18.3-9.33,34.4-1.47,57.14-7s52.46-28.1,53-56.3" transform="translate(-98.03 -130.73)" fill="#ffe038"/>
    <path d="M375.67,355.12c.4-19-23.49-28-32.71-29.75-4.38-9.14-11.67-17.76-31.76-23-30-7.79-50.58,2.75-61.85,12s-28.15,38.13-33,46S182.5,384.94,183,397.8c.3,7.09,10.61,10.26,13.2,13.71C199,415.23,201,426.23,216,429c22.14,4.1,33.74-4.19,52.63-13.82,17.77-9.05,34.34-1.74,56.41-7.13s50-25.55,50.62-52.93" transform="translate(-98.03 -130.73)" fill="#fffacc"/>
    <path d="M239.69,426.5c-4.71.57-9.45.91-14.12,0a49.47,49.47,0,0,1-11-3.51c-3.1-1.43-6.5-3.3-8.45-6.21a7.08,7.08,0,0,1-.13-7.85c-5.43-1.69-11.47-2.33-15.7-6.5-2.11-2.08-3.84-5-3.66-8.09.15-2.61,1.4-5.15,1.59-7.76-3.2,3.87-5.29,7.7-5.14,11.24.3,7.09,10.61,10.26,13.2,13.71C199,415.22,201,426.23,216,429c14.08,2.61,23.9.2,34-4.37-3.43.73-6.86,1.44-10.36,1.87" transform="translate(-98.03 -130.73)" fill="#fff5b5"/>
    <path d="M375.67,355.12c.31-14.63-13.73-23.28-24.43-27.32a56.53,56.53,0,0,1,11,10,26.87,26.87,0,0,1,5.61,12.36,44.15,44.15,0,0,1-1,17,56.37,56.37,0,0,1-16.29,27.77,72.77,72.77,0,0,1-6.13,5.22c16.32-9.43,30.83-25.36,31.25-45" transform="translate(-98.03 -130.73)" fill="#fff5b5"/>
    <path d="M334.79,333.07c6.22-21.51-61-25.92-74,3.19-11.4,25.48-59.69,50-45.25,65,9.25,9.64,41,1.28,51.22-1.17,20.5-4.94,44.12,2.16,63.66-7.21,22.25-10.66,44.07-48.36,4.41-59.85" transform="translate(-98.03 -130.73)" fill="#fffce0"/>
    <path d="M270.21,341.88c-11,14.36-21.95,30.26-32.55,45.34a250.72,250.72,0,0,0,60.08-.91c34.23-4.75,22.79-25.85,32.84-50.82-3.4,1.53-45.8-12.67-60.37,6.39" transform="translate(-98.03 -130.73)" fill="#fffacc"/>
    <path d="M288.28,344.58C269.07,343,270.9,357.51,261.15,373c12.13,3,22.2.84,34.68,3.06,15.86,2.83,16.71-23.72,19-30.55-7.36-1.11-21.08-.49-26.53-.93" transform="translate(-98.03 -130.73)" fill="#ffe09e"/>
    <path d="M342.11,323.17a114.09,114.09,0,0,1-19.52,15.64A343.78,343.78,0,0,1,288.45,357c-13.24,6.25-48.47,26.44-65.28,39.5-8,6.22-18.41,10.57-28.17,14a6.83,6.83,0,0,1,1.87,2c21.48-8.32,31.48-17.37,46.86-27.78,5.35-3.62,55-30.46,66.57-34.95,5.56-2.15,24.91-15.15,36-23.82a12.88,12.88,0,0,1-4.15-2.76" transform="translate(-98.03 -130.73)" fill="#ebc48c"/>
    <path d="M281.63,368.43c5-3.19,22-13.77,22.58-5.57.55,7.56-12.06,9.34-22.58,5.57" transform="translate(-98.03 -130.73)" fill="#823624"/>
    <path d="M276.17,359.36c-.09-6.19,7-14,11.52-10.07,4.92,4.28-9.15,9.43-11.52,10.07" transform="translate(-98.03 -130.73)" fill="#823624"/>
    <path d="M283.24,367.91c5.21-1.2,9.47-5.76,15-5.55a6.88,6.88,0,0,1,5.61,2.88,5.6,5.6,0,0,0,.32-2.38c-.58-7.92-16.43,1.68-22,5.22a9.56,9.56,0,0,0,1.05-.17" transform="translate(-98.03 -130.73)" fill="#662117"/>
    <path d="M287.69,349.29a4.36,4.36,0,0,0-1.16-.72,10.23,10.23,0,0,1-1.12,1.95,39.34,39.34,0,0,1-9.23,8.64c0,.07,0,.13,0,.2,2.37-.64,16.44-5.79,11.52-10.07" transform="translate(-98.03 -130.73)" fill="#662117"/>
  </g>
</svg>
