<svg xmlns="http://www.w3.org/2000/svg" xmlns:xlink="http://www.w3.org/1999/xlink" viewBox="0 0 124.04 124.34">
  <defs>
    <radialGradient id="radial-gradient" cx="261.47" cy="4057.43" r="23.21" gradientTransform="matrix(0, 1.42, -1.07, 0, 4638.51, 58.3)" gradientUnits="userSpaceOnUse">
      <stop offset="0" stop-color="#f58768"/>
      <stop offset="0.32" stop-color="#ee6851"/>
      <stop offset="0.77" stop-color="#e64034"/>
      <stop offset="1" stop-color="#e33129"/>
    </radialGradient>
    <radialGradient id="radial-gradient-2" cx="275.54" cy="371.36" r="13.73" gradientUnits="userSpaceOnUse">
      <stop offset="0" stop-color="#729a3f"/>
      <stop offset="0.53" stop-color="#628439"/>
      <stop offset="1" stop-color="#577535"/>
    </radialGradient>
    <radialGradient id="radial-gradient-3" cx="296.67" cy="373.68" r="10.03" xlink:href="#radial-gradient-2"/>
  </defs>
  <title>07-tomato</title>
  <g style="isolation: isolate">
    <g id="Layer_2" data-name="Layer 2">
      <g>
        <path d="M359.62,424.19c0,29.48-23.69,58.74-61.73,58.74s-62.32-29.26-62.32-58.74,24.28-48.61,62.32-48.61S359.62,394.71,359.62,424.19Z" transform="translate(-235.57 -358.59)" fill="#e33129"/>
        <g style="mix-blend-mode: multiply">
          <path d="M346.69,392.07c6.07,7.65,9.35,17.18,9.35,28.14,0,29.48-23.68,58.74-61.73,58.74-19,0-34.56-7.3-45.39-18.28,10.83,13.16,27.76,22.26,49,22.26,38,0,61.73-29.26,61.73-58.74C359.62,411.23,355,400.28,346.69,392.07Z" transform="translate(-235.57 -358.59)" fill="#e33129"/>
        </g>
        <g opacity="0.61" style="mix-blend-mode: screen">
          <path d="M235.62,426.32c0,.4,0,.79.06,1.19l0,.51.12,1.43c0,.07,0,.14,0,.21.06.54.12,1.08.19,1.63,0,.15,0,.3.07.45,0,.4.11.8.18,1.21,0,.16.05.33.08.5l.24,1.32.06.31c.11.54.23,1.07.35,1.61l.1.4c.1.41.2.82.31,1.22,0,.17.09.33.13.5.11.41.23.83.36,1.24,0,.12.07.24.1.36.16.53.33,1.06.51,1.58,0,.11.07.21.11.32q.21.63.45,1.26c.06.16.12.32.17.47.16.4.31.8.47,1.19.05.13.1.26.16.38.21.52.43,1,.66,1.55a1.54,1.54,0,0,1,.08.19c.21.45.41.89.63,1.33l.21.43c.18.38.38.77.57,1.15l.21.38c.52,1,1.08,2,1.66,2.95l.24.39.69,1.1.25.38c.62,1,1.28,1.89,2,2.81l.24.33c.27.36.54.71.82,1.06l.28.36c.33.41.66.81,1,1.21l.09.12,1.16,1.32.24.26c.31.35.63.69,1,1l.31.32,1,1.06.18.18c.43.42.86.82,1.3,1.23l.21.18,1.11,1,.34.29c.37.32.75.63,1.13.94l.25.2c.47.38.95.75,1.43,1.11a.71.71,0,0,0,.14.1c.43.32.86.64,1.3.95l.37.26,1.19.81.32.21,1.56,1h0c-11.59-11.12-25.28-26-23.69-49.48.64-9.36,3.89-16.89,9.26-22.81.76-.84,1.57-1.65,2.42-2.43a21.69,21.69,0,0,1,2.45-2.09,23.3,23.3,0,0,1,2.67-1.67c2.29-.62,4.67-1.82,7.65-1.22,3.58.54,7,2.52,10.79,3.41,15.16,3.6,28.28,1.21,30.36-1,2.39-5.37-17.29-6.56-10.73-10.74,8.94-6,22.66-2.38,34.61.17q1.64.39,3.21.84a62.24,62.24,0,0,1,14.24,5.93h0a47.45,47.45,0,0,0-7.84-6.42l-.07,0c-.39-.26-.79-.51-1.19-.76l-.07,0a57.8,57.8,0,0,0-6.78-3.54l-.16-.07-1.26-.53-.25-.1c-.4-.17-.8-.32-1.21-.48l-.28-.11c-.41-.15-.83-.31-1.26-.45l-.22-.09c-1.13-.39-2.28-.76-3.46-1.1l-.16-.05c-2-.45-3.85-1-5.74-1.42q-3.12-.65-6.42-1.07l-1.55-.19-.59-.06-1.5-.15-.49,0c-.67-.06-1.33-.11-2-.15l-.32,0-1.71-.09-.64,0-1.5-.05-.62,0-2.09,0q-1.08,0-2.16,0h-.62l-1.62.05-.57,0-2.08.11-.33,0-1.75.13c-13.19,1.15-24.38,4.8-33,10.52a.51.51,0,0,1-.12.15c-1.1.69-2.14,1.43-3.13,2.19s-2,1.62-2.92,2.48a43,43,0,0,0-8.19,10.21c-.18.31-.36.63-.53,1s-.34.63-.5.95a43,43,0,0,0-1.84,4.16c-.15.39-.29.78-.43,1.18a45.36,45.36,0,0,0-2.05,8.71,50.69,50.69,0,0,0-.44,6.72c0,.54,0,1.09,0,1.64C235.61,426,235.61,426.15,235.62,426.32Z" transform="translate(-235.57 -358.59)" fill="#e33129"/>
        </g>
        <g opacity="0.46" style="mix-blend-mode: multiply">
          <path d="M297.89,375.58A99.28,99.28,0,0,0,280.81,377c1.89-.15-15.91,17.68,12.31,19.75,32.5,2.39,22.34-14.07,27.68-10.83,13.1,7.94,21.52,20.33,21.52,34.26,0,24-25,43.4-55.76,43.4-20.34,0-38.14-8.48-47.88-21.15,7.68,22.22,29.15,40.5,59.21,40.5,38,0,61.73-29.26,61.73-58.74S335.93,375.58,297.89,375.58Z" transform="translate(-235.57 -358.59)" fill="#e33129"/>
        </g>
        <path d="M297,385.42s-.3-9.54-4.77-12.52-10.14-3.88-11.33-6.26a12.76,12.76,0,0,1-1.2-5.07s-1.23,5.08-.29,7.16c3.27,7.27,7.85,6.65,7.45,12.52-.36,5.35-.6,9.24-.6,9.24Z" transform="translate(-235.57 -358.59)" fill="#465b29"/>
        <path d="M295.51,385.42s9.24-15.8,20-18.48,9.24-1.5,9.24-1.5-4.47-.59-9,3.88-6.85,15.51-6.85,15.51L301.47,389Z" transform="translate(-235.57 -358.59)" fill="#465b29"/>
        <ellipse cx="280.73" cy="429.88" rx="29.35" ry="38.04" transform="translate(-410.13 308.61) rotate(-84.38)" fill="url(#radial-gradient)"/>
        <path d="M303.16,361.07l4.37,4s-10.73,14.11-.79,22.43-16.3,5.06-16.3,5.06S284.87,381,303.16,361.07Z" transform="translate(-235.57 -358.59)" fill="#4d6c32"/>
        <path d="M304,360.92c-.55-.33-1.05.12-.9.75.29,1.23,1.29,3.49,3.51,3.53C309.57,365.25,305.87,362.07,304,360.92Z" transform="translate(-235.57 -358.59)" fill="#4b5443"/>
        <path d="M298.19,392.88a40.71,40.71,0,0,0,15.21-.9c8.05-2.08,25.94-11.33,27.43-13.12s2.49-2.78,2.39-7.75c0-1.89,3-5.67,3-5.67s-5.74,2-4.47,5.67c2.08,6.06-4.43,8.43-7.61,9.52Z" transform="translate(-235.57 -358.59)" fill="#596d3a"/>
        <path d="M298.91,392.63l35.21-12c3.18-1.09,9.69-3.46,7.61-9.52,0,0,2,8.25-21.08,10.83-5.25.59-18.28,1.4-15.6,4.68C307.28,389.34,301.07,391.86,298.91,392.63Z" transform="translate(-235.57 -358.59)" fill="#98a66b"/>
        <path d="M298.19,392.88s-5.07-10.44-15.21-10.74-11-4.77-11-4.77-1.79,3.28,0,5.67,9.84,4.77,12.82,7.15S289,393.47,298.19,392.88Z" transform="translate(-235.57 -358.59)" fill="#465b29"/>
        <path d="M294,389.6s-20.88-13.12-26.84-21.47-6.26-9.54-6.26-9.54,9.84,18.78,17.29,24.75a121.86,121.86,0,0,0,14.32,9.84Z" transform="translate(-235.57 -358.59)" fill="#465b29"/>
        <path d="M279.2,381.78a26.25,26.25,0,0,0,3.78.36,15.05,15.05,0,0,1,7,2c.06-.34.12-.68.2-1a67.43,67.43,0,0,1-13.75-8.4c-7.45-6.26-15.5-16.1-15.5-16.1l8.65,13.12,6.56,7.75Z" transform="translate(-235.57 -358.59)" fill="url(#radial-gradient-2)"/>
        <g opacity="0.16" style="mix-blend-mode: screen">
          <path d="M303.37,362.49a6.3,6.3,0,0,1-.26-.82.79.79,0,0,1,.07-.58l0,0c-9.07,9.87-12.27,17.69-13.19,23.06a22.59,22.59,0,0,1,8.22,8.75c-.91.06-1.74.1-2.51.13,1.19.07,2.49.13,3.79.15a28.69,28.69,0,0,1-2.77-12.51C296.7,373.26,299.32,366.69,303.37,362.49Z" transform="translate(-235.57 -358.59)" fill="#576735"/>
        </g>
        <path d="M301.59,362.82l-1.28,1.51a1.46,1.46,0,0,1-.16.19c-.39.49-.78,1-1.15,1.44l-.17.22c-.36.46-.71.92-1,1.37-.05.08-.11.15-.16.22-.33.46-.65.9-.95,1.34-.05.07-.1.14-.14.21-.31.44-.6.88-.88,1.32a.86.86,0,0,0-.1.16c-.29.44-.57.89-.83,1.32a.41.41,0,0,1-.05.09c-.54.9-1,1.78-1.46,2.63l-.05.09c-.21.41-.4.81-.58,1.2l-.07.14c-.18.38-.34.76-.5,1.13l-.07.15c-.15.37-.3.72-.43,1.07l-.06.16c-.13.35-.26.69-.37,1l0,.14-.32,1,0,.11c-.1.33-.19.67-.28,1v.05c-.08.34-.16.67-.23,1h0s.64,1.06,1.32,2c.53.38,1,.78,1.5,1.19a4.7,4.7,0,0,0-.17-.78c-1-3.58.2-6.76,1.2-9.94s9.09-13.91,9.09-13.91a.79.79,0,0,1,.07-.58l0,0c-.5.55-1,1.09-1.45,1.62Z" transform="translate(-235.57 -358.59)" fill="url(#radial-gradient-3)" style="mix-blend-mode: screen"/>
      </g>
    </g>
  </g>
</svg>
