<svg id="peppers" xmlns="http://www.w3.org/2000/svg" xmlns:xlink="http://www.w3.org/1999/xlink" viewBox="0 0 343.35 342.37">
  <defs>
    <clipPath id="clip-path" transform="translate(-79.54 -90.12)">
      <rect x="79.54" y="90.12" width="343.35" height="342.37" fill="none"/>
    </clipPath>
  </defs>
  <title>08-peppers</title>
  <g clip-path="url(#clip-path)">
    <path d="M255,299.68c15.7,20.74,47.33,39.53,74,27.13,33.2-10.45,79.31-165.16,37.4-204.59-15.47-13.82-59-3-69,5.39-29-3-41.06,10.82-51.52,19.81-70.78,12.87-14.09,124,9.19,152.26" transform="translate(-79.54 -90.12)" fill="#1c6024"/>
    <path d="M255,299.68c15.7,20.74,47.33,39.53,74,27.13,33.2-10.45,79.31-165.16,37.4-204.59-15.47-13.82-59-3-69,5.39-29-3-41.06,10.82-51.52,19.81C175,160.29,231.73,271.37,255,299.68Z" transform="translate(-79.54 -90.12)" fill="none" stroke="#055f26" stroke-miterlimit="22.93" stroke-width="2.27"/>
    <path d="M246.36,148.86c-33.21,9.48-34.78,28.46-32.21,53.8,7.87-8.06,20.54,1.21,35.57,19.77,3.32,4.1-2.09-31.94-4.43-31.18-10.07,3.27-16.4,1.4-20.68-2.29-11.85-25.12,5.25-28,21.75-40.1" transform="translate(-79.54 -90.12)" fill="#034d1a"/>
    <path d="M257,300c11.16,13.93,29.28,26.5,48.21,29.22,4.44-3.65-19.52-24-28.6-36-22.75-30.17-33-93.44-62-83.26,6.28,24.36,18.56,60.64,42.39,90.09" transform="translate(-79.54 -90.12)" fill="#456d58"/>
    <path d="M368.91,124.9c-.81-.94-2.43-1.19-3.32-2-5.87-5.24-10.1-6.88-20.68-6.52,9.28,3.86,7.83,8.29,10.44,12.64-.22.77,10.89-2,13.56-4.09" transform="translate(-79.54 -90.12)" fill="#034d1a"/>
    <path d="M248.88,185.31c1.88,32.89,19.55,84.25,48.95,119.89,14.22,17.23,52.06,38.83,78.71,26.42,19-6,50.3-51.14,44.51-124-.28-3.55-4.75-35.53-5.37-38.22-10.05-43.78-26.86-54.07-43.43-49.35-14.41,4.55-23.2,15.76-30.61,22.78-30.87,30.34-62.6,15.63-74,17.95-10.73,1.95-19.46,12.76-18.79,24.5" transform="translate(-79.54 -90.12)" fill="#034d1a"/>
    <path d="M248.88,185.31c1.88,32.89,19.55,84.25,48.95,119.89,14.22,17.23,52.06,38.83,78.71,26.42,19-6,50.3-51.14,44.51-124-.28-3.55-4.75-35.53-5.37-38.22-10.05-43.78-26.86-54.07-43.43-49.35-14.41,4.55-23.2,15.76-30.61,22.78-30.87,30.34-62.6,15.63-74,17.95C256.94,162.76,248.21,173.57,248.88,185.31Z" transform="translate(-79.54 -90.12)" fill="none" stroke="#055f26" stroke-miterlimit="22.93" stroke-width="2.27"/>
    <path d="M268.75,146.75c20.85-9.67,18.21-17.7,8-14.88-15.63,4.32-33.41,18.23-8,14.88" transform="translate(-79.54 -90.12)" fill="#608e6a"/>
    <path d="M339.59,138.2c-4.2-2.16-24.63,4.88-38.42,8.4-13.48,3.44-30.18,4.94-35,9.72,1.67.93,6.07,1.62,14.53.63,7.29.41,16.38,2.13,26.27.15,15.34-3.07,29.27-11.45,32.62-18.9" transform="translate(-79.54 -90.12)" fill="#77a83a"/>
    <path d="M339.59,138.2c-4.2-2.16-24.63,4.88-38.42,8.4-13.48,3.44-30.18,4.94-35,9.72,1.67.93,6.07,1.62,14.53.63,7.29.41,16.38,2.13,26.27.15C322.31,154,336.24,145.65,339.59,138.2Z" transform="translate(-79.54 -90.12)" fill="none" stroke="#5f7720" stroke-miterlimit="22.93" stroke-width="2.27"/>
    <path d="M325.78,149.59C323.58,156.07,285.37,160,278,157c11.88-23.32-8.14-43.68-26.37-47.16-8.66-.73-14.46,1.43-19.27,5.33-8.45-5.83-8.45-14.78-6-16,24-13.31,56.46-12.16,79.47,21.64,6.79,8.24,12,16.46,20,28.78" transform="translate(-79.54 -90.12)" fill="#2d4817"/>
    <path d="M325.78,149.59C323.58,156.07,285.37,160,278,157c11.88-23.32-8.14-43.68-26.37-47.16-8.66-.73-14.46,1.43-19.27,5.33-8.45-5.83-8.45-14.78-6-16,24-13.31,56.46-12.16,79.47,21.64C312.61,129.05,317.81,137.27,325.78,149.59Z" transform="translate(-79.54 -90.12)" fill="none" stroke="#5f7720" stroke-miterlimit="22.93" stroke-width="2.27"/>
    <path d="M324,149.28c-.55,1.91-12.23,5.29-16.83,5.52-7.27-13.08-3.12-38.43-33.62-52.69-18.83-8.81-35.22-3.29-46.42,4-1.5-1.56-.54-5.28-.13-5.7,15.41-8.49,33.47-11,50.4-3,9.92,4.12,19.09,12.18,26.93,24,6.8,8.24,11.7,15.57,19.67,27.88" transform="translate(-79.54 -90.12)" fill="#66774f"/>
    <path d="M259.38,169.71c-10.14,10.71-7.08,29,2.49,33.64,8.27,4.05,16.66,5.39,36.55-5.67s34.94-14,54.52-12.16,51.87-19.65,51.55-31.61S389.18,124.43,381.08,124s-20,.32-47.48,34c-3.72,4.55-13.19,7.8-24,8.77-7.27.65-17.16-.17-25.66-1-8.83-.9-17.47-3.49-24.53,4" transform="translate(-79.54 -90.12)" fill="#3e782d"/>
    <path d="M286.81,192.52c35.47-11,51.08-23.76,10.91-22.6-11,1.32-25.67-3.85-30.19-1.67-11.95,5.24-13.31,19.1-10.84,23.14.85,5.55,15.33,12.53,30.12,1.13" transform="translate(-79.54 -90.12)" fill="#58a840"/>
    <path d="M265.3,244.94c10.35,29.16,32.28,64.79,54.41,75.78-19.58-42.71-12.16-87.15-44.59-96.86-16.2-4.86-12.79,12.72-9.82,21.08" transform="translate(-79.54 -90.12)" fill="#456d58"/>
    <path d="M390.87,146.05c8.08-25-52-8.94-53.74,22.25,3.6,21.78,50.62-12.61,53.74-22.25" transform="translate(-79.54 -90.12)" fill="#58a840"/>
    <path d="M327.27,129.82c22.8-2.92,22.71-11.37,12.15-11.76-16.22-.61-37.37,7.28-12.15,11.76" transform="translate(-79.54 -90.12)" fill="#608e6a"/>
    <path d="M225.62,173.93c-1.43,8.33,7.57,13,12.19,12.26s10.78-21.12,17.85-24.69c13.67-6.9-26.06-10.67-30,12.43" transform="translate(-79.54 -90.12)" fill="#58a840"/>
    <path d="M289.44,178.74c7.52-2.29,9.23-6-.57-6.79-3-.28-16.25-2.16-20.53-.38-7.19,3.16-10.16,9.7-8.67,12.14.27,1.78,2.57,3.81,6,4.27,5.33.72,18.11-7.51,23.76-9.24" transform="translate(-79.54 -90.12)" fill="#bedfbe"/>
    <path d="M335.51,192.7s-22.14,13.9-19.5,35.81,4.76,53.56,17,75.22,27.57,30.72,32.73,20.1,2.11-42.86,1.44-58.75-12.91-58.39-18.56-66.9-13.08-5.48-13.08-5.48" transform="translate(-79.54 -90.12)" fill="#001a00"/>
    <path d="M379.31,319.6s16.41-47.64,18.62-69.3,2-37.23,4-49.64,1.17-27.06,4.82-31,4.26-2.83,5.61,2.12,6.67,57.18,4,70.51S407,289,399.17,300.13,391.83,314,387.41,318s-8.49,1.64-8.1,1.57" transform="translate(-79.54 -90.12)" fill="#001a00"/>
    <path d="M363.34,141.16c-5.63,2.63-11,8.23-6.51,10.66,6.26,3.34,24.66-7.94,24.71-10,0-1.41-1.91-3.61-5.73-3.66-1.94,0-10.59,2.11-12.47,3" transform="translate(-79.54 -90.12)" fill="#bedfbe"/>
    <path d="M218.74,373.45c28.57-13.64,23.73-26.9,38.93-56.63a51.88,51.88,0,0,1,11-14.55c4.49-2.26,11.77,2,14.94,7.87,17.65,47.48-4.11,87.91-61.34,104.6-4.46-5.51-11.15-11.41-13.37-14.16s9.44-26.74,9.83-27.13" transform="translate(-79.54 -90.12)" fill="#b1241a"/>
    <path d="M218.74,373.45c28.57-13.64,23.73-26.9,38.93-56.63a51.88,51.88,0,0,1,11-14.55c4.49-2.26,11.77,2,14.94,7.87,17.65,47.48-4.11,87.91-61.34,104.6-4.46-5.51-11.15-11.41-13.37-14.16S218.35,373.84,218.74,373.45Z" transform="translate(-79.54 -90.12)" fill="none" stroke="#bf281e" stroke-miterlimit="22.93" stroke-width="2.27"/>
    <path d="M117.48,259.61c2.36-4.32,14.49-15.1,16.71-16.91,37.64-30.54,142.8-33.16,145.49,37.75,1.91,50-69.32,46.07-88.86,33-16.59-11.07-70.27-52.34-73.34-53.88" transform="translate(-79.54 -90.12)" fill="#eb3a23"/>
    <path d="M117.48,259.61c2.36-4.32,14.49-15.1,16.71-16.91,37.64-30.54,142.8-33.16,145.49,37.75,1.91,50-69.32,46.07-88.86,33C174.23,302.42,120.55,261.15,117.48,259.61Z" transform="translate(-79.54 -90.12)" fill="none" stroke="#bf281e" stroke-miterlimit="22.93" stroke-width="2.27"/>
    <path d="M289.57,339.6c.7,34.3-22.36,62-67.29,75.14,6.5-6.48,4.53-19.41,8.32-21.26,16.66,0,22.21-9.26,33.42-22.61,5.83-8.6,6.17-13.61,7.28-19.07,6.55-4.06,11.72-8.13,18.27-12.2" transform="translate(-79.54 -90.12)" fill="#d92a29"/>
    <path d="M289.57,339.6c.7,34.3-22.36,62-67.29,75.14,6.5-6.48,4.53-19.41,8.32-21.26,16.66,0,22.21-9.26,33.42-22.61,5.83-8.6,6.17-13.61,7.28-19.07C277.85,347.74,283,343.67,289.57,339.6Z" transform="translate(-79.54 -90.12)" fill="none" stroke="#d12f21" stroke-miterlimit="22.93" stroke-width="0.17"/>
    <path d="M141.16,250c-8.08-.43-4.91-3.78,14.35-5.87,13.79-.57,22.54,3.12,32.89,7.35,9.45,3.87,19.12,16,27.47,22.93,17.51,14.56,21.47,21.36,17.9,23.79s-12.78,12.39-23.21-.78-30.67-35.79-37.75-36.58c-6.57-4.63-22.11-8.51-27.52-10-2.58-.72-.13-.61-4.13-.83" transform="translate(-79.54 -90.12)" fill="#b1241a"/>
    <path d="M119.15,259.81c1.3-2.39,5.48-6.64,9.42-10.36,46.08,10.38,64.26,25.74,75.38,45.82,0,0-30.67-9.43-44.83-15.72-3.77-1.68-14.05-5.15-27.09-9.34-7.92-5.92-11.94-9.93-12.88-10.4" transform="translate(-79.54 -90.12)" fill="#d5353f"/>
    <path d="M199.47,362.83c8.07,5.13,13.38,8,17.35,11.26,5.34,4.36,9.62,6.43,12.14,21.38-3.84,37.71-42.2,44.53-71.57,25.95-27.06-19.53-51.33-42.12-58.2-77.46-3.39-19.65,94.6,16,100.28,18.87" transform="translate(-79.54 -90.12)" fill="#d4252c"/>
    <path d="M199.47,362.83c8.07,5.13,13.38,8,17.35,11.26,5.34,4.36,9.62,6.43,12.14,21.38-3.84,37.71-42.2,44.53-71.57,25.95-27.06-19.53-51.33-42.12-58.2-77.46C95.8,324.31,193.79,359.93,199.47,362.83Z" transform="translate(-79.54 -90.12)" fill="none" stroke="#bf281e" stroke-miterlimit="22.93" stroke-width="2.27"/>
    <path d="M181.63,407.83c62.05,12.41,39.92-39.26,21.36-39.69-26.61-.61-41,15.27-41,15.27-.52,11.19,9,20.65,19.63,24.42" transform="translate(-79.54 -90.12)" fill="#c82d1f"/>
    <path d="M206.54,339.83c8.67-10,11.62-21.06,2.48-36.09-28.39-35.12-95.43-69.5-124-24.07-9.88,19.44-1.7,40.15,11.79,59.92,16.35,25.89,35,42.71,61.16,43.5,64.54-5.86,43.75-32.92,48.56-43.26" transform="translate(-79.54 -90.12)" fill="#e33522"/>
    <path d="M206.54,339.83c8.67-10,11.62-21.06,2.48-36.09-28.39-35.12-95.43-69.5-124-24.07-9.88,19.44-1.7,40.15,11.79,59.92,16.35,25.89,35,42.71,61.16,43.5C222.52,377.23,201.73,350.17,206.54,339.83Z" transform="translate(-79.54 -90.12)" fill="none" stroke="#bf281e" stroke-miterlimit="22.93" stroke-width="2.27"/>
    <path d="M101.37,265.31c-12,7.94-16.37,15.9-18.78,26.23C79.88,307.31,87.14,322.9,98,338.8c16.35,25.89,33.24,42.12,59.39,42.91,48.28-4.38,49.59-20.63,43.11-31.88-18.24,10.14-36.82,24.46-71.62-.8C105.93,332.38,87,298.17,87,289.69c-.92-5.64,1.44-13.53,14.38-24.38" transform="translate(-79.54 -90.12)" fill="#d5353f"/>
    <path d="M206.54,339.83c3.09-9.18,6.55-15.76,7.94-21.36a4.42,4.42,0,0,1-2-.49c-4.19,5.51-5.44,12-9.63,17.5-4.25,5-10,6.25-10.43,8.37-.66,3.08,7.9,9,5.71,18.37,1.49,3.2,2.4,2.28,3.89,5.48.13-4.06-.85-19.83,4.49-27.87" transform="translate(-79.54 -90.12)" fill="#210000"/>
    <path d="M214,312.69c10.33-6.33,20-14.64,27.72-22,7.55,10.86,13.87,22.71,23,31.46q-4.92,20.64-9.83,41.29c-11.89,3.52-23.25,11.76-34.61,20.05-5-7.09-12.4-13.61-21.63-19.66,3.53-8,3.36-15.69,3.74-21.62,5.69-7.19,11.68-25,11.6-29.5" transform="translate(-79.54 -90.12)" fill="#2e5619"/>
    <path d="M214,312.69c10.33-6.33,20-14.64,27.72-22,7.55,10.86,13.87,22.71,23,31.46q-4.92,20.64-9.83,41.29c-11.89,3.52-23.25,11.76-34.61,20.05-5-7.09-12.4-13.61-21.63-19.66,3.53-8,3.36-15.69,3.74-21.62C208.11,335,214.1,317.2,214,312.69Z" transform="translate(-79.54 -90.12)" fill="none" stroke="#5e862c" stroke-miterlimit="22.93" stroke-width="2.27"/>
    <path d="M236.4,320c-2-1.18-2.65-4.33-4.62-5.5-12.82,8-18,13.76-19.17,31.45-.25,20.38,11.21,20.76,15.53,16.52,0-3.54,8.65-42.08,8.26-42.47" transform="translate(-79.54 -90.12)" fill="#094f1b"/>
    <path d="M242.33,328.42c-3.8-3.41-7-10.94-11.4-10.22-17.09,12.12-15.66,35.09-11.8,41.29,3.61,2.49,8.59-.92,14.75-2,37.49,2.69,56.18-14.46,77.66-39.71,1.63-1.92,7.32-7.48,7.47-9.44,1.73-10.07-4.28-23-15.05-24.64-9-1.05-13.71,7.23-13.26,22.28-4,13.59-31.7,29-48.37,22.41" transform="translate(-79.54 -90.12)" fill="#639037"/>
    <path d="M242.33,328.42c-3.8-3.41-7-10.94-11.4-10.22-17.09,12.12-15.66,35.09-11.8,41.29,3.61,2.49,8.59-.92,14.75-2,37.49,2.69,56.18-14.46,77.66-39.71,1.63-1.92,7.32-7.48,7.47-9.44,1.73-10.07-4.28-23-15.05-24.64-9-1.05-13.71,7.23-13.26,22.28C286.66,319.6,259,335,242.33,328.42Z" transform="translate(-79.54 -90.12)" fill="none" stroke="#5e862c" stroke-miterlimit="22.93" stroke-width="2.27"/>
    <path d="M196,299.33c3.16,8.55,2.49,29-8.1,32.42-18.53,6.07-41.27-2.38-42.34-18-4.78-20.61,30.59-48.95,50.44-14.41" transform="translate(-79.54 -90.12)" fill="#f06458"/>
    <path d="M184.67,303.51c1.7,4.62,1.34,15.65-4.38,17.53-10,3.28-22.32-1.29-22.89-9.74-2.59-11.14,16.54-26.47,27.27-7.79" transform="translate(-79.54 -90.12)" fill="#f0d0bd"/>
    <path d="M202.65,375.46c5.66,3.48,14.52,10.05,13.06,15.34-2.55,9.25-14.35,12.22-23.2,4.33-7.91-2.07-7.06-19.56,10.14-19.67" transform="translate(-79.54 -90.12)" fill="#eb6761"/>
    <path d="M141.33,239.47c42-26,135-25,137.57,42.16.16,4.16-1.58,8.92-2.36,12.36,2.51-14-.79-15.72-7.26-9.49-11.68,11.24-30.31-4.13-39.91-13.08-11.69-10.91-3.64-19.63-25.42-28.33-30.59-12.22-64.21-6.92-62.62-3.62" transform="translate(-79.54 -90.12)" fill="#ee3e23"/>
    <path d="M244.6,275.8c-6.63-4.51-19.17-18.34-17.12-24.64,3.59-11,18-14,28.22-4,14.85,11.92,18.52,44.11-11.1,28.6" transform="translate(-79.54 -90.12)" fill="#f06458"/>
    <path d="M255.71,274.41c-2.89-.85-16.62-14.61-17.06-20.27-.5-6.43,7.82-6.16,12.19-3.37,6.42,2.78,18,25.15,4.87,23.64" transform="translate(-79.54 -90.12)" fill="#f0d0bd"/>
    <path d="M220.26,333.34c-3.69,10.44-3.59,22.19-1.13,26.15,3.61,2.49,8.59-.92,14.75-2,37.49,2.69,56.18-14.46,77.66-39.72,1.63-1.91,7.32-7.47,7.47-9.43.82-4.74-1.76-10.22-4.07-14.75-14.51,31.45-30.74,53.63-75.2,50.51a27.54,27.54,0,0,1-17.15-14.65,35.24,35.24,0,0,0-2.33,3.86" transform="translate(-79.54 -90.12)" fill="#4a7225"/>
    <path d="M86.5,289.83s-1.57,30.67,37.75,58.59,48.37,16.12,56.23,14.55,12.59-4.72,12.59-9-2-9.05-10.23-9.44-17.3,3.54-30.67-2.36-43.85-37.65-49-47.19-4.86-14.74-10-15.14c-4.71-.36-6.68,6.14-6.68,10" transform="translate(-79.54 -90.12)" fill="#b1241a"/>
    <path d="M101.74,349.7s4,32.36,46.38,64c16.83,12.56,22.26,14.3,44.94,16,34.07-4.62,33.39-32.11,25.17-21.63-5.63,4-1.69,3-13.85,6.39-12.88,3.64-30.09-1.57-30.09-1.57-16.38-4-28.71-14.84-40.11-27.72L125.53,374c-7.8-5.64-14.88-12.07-23.79-24.28" transform="translate(-79.54 -90.12)" fill="#f16c66"/>
  </g>
</svg>
