<svg id="lettuce" xmlns="http://www.w3.org/2000/svg" xmlns:xlink="http://www.w3.org/1999/xlink" viewBox="0 0 373.33 328.99">
  <defs>
    <clipPath id="clip-path" transform="translate(-66.86 -110.22)">
      <rect x="66.86" y="110.22" width="373.33" height="328.99" fill="none"/>
    </clipPath>
  </defs>
  <title>09-lettuce</title>
  <g clip-path="url(#clip-path)">
    <path d="M316.09,381.3c7.07-1.68,15.42-4.55,19.45-4.5s3.75,3,5,6.27a17,17,0,0,0,7.37,8.6A16,16,0,0,0,358,393.15c2.52-.51,3.43-1.7,5.1-1.44s4.1,2,8.44,2.79a35.59,35.59,0,0,0,14.73-.52c4.12-1.24,6.1-3.63,7.83-3.62s3.22,2.43,6.25,3.21,7.58-.06,9.37-4,.8-11,.69-16.26.62-8.76,3.35-11,7.45-3.27,12-6a40.51,40.51,0,0,0,11.69-11c2.62-3.81,3.39-7,2.22-9.56s-4.28-4.61-4.87-7.22,1.33-5.82,2.65-11.73,2-14.5-.35-20.42-7.9-9.15-10.08-14.42-1-12.56-1-17.34-1.15-7-4.68-6.81-9.45,2.94-13.18,3.83-5.28,0-6.85-2.36-3.14-6.05-4.95-8.28-3.83-3-6.26-2.3-5.25,2.77-7.75,3.61-4.67.44-8.78-1.7-10.15-6-14.13-8.3-5.89-3-7.7-2.42-3.51,2.43-1.43,6.06,8,9,11.36,19.44,4.32,25.8,1.26,39.82-10.1,26.67-17.59,37.6-15.4,20.16-23.45,26.74-16.22,10.5-17.41,12.23,4.59,1.25,11.66-.42" transform="translate(-66.86 -110.22)" fill="#5ca11f"/>
    <path d="M301.69,138.25c-.08-3.5-.48-8.1-2.68-11.88s-6.2-6.75-12.07-7.46-13.59.85-19.46.09-9.88-3.79-12.87-5.86-5-3.13-6.92-2.88-3.91,1.8-7,2.26-7.36-.2-9.76-.35-2.95.21-3.86,1.4a21.49,21.49,0,0,1-4,4.57,19.39,19.39,0,0,1-6.09,2.6c-1.94.57-3.47,1.05-3.9,2.05s.26,2.54.86,3.47,1.12,1.23.72,1.49-1.7.48-5.38.92-9.74,1.1-12.64,2.66-2.65,4-2,5.93,1.63,3.27,1.59,4.47-1.13,2.23-2.56,3-3.22,1.12-3.86,2-.13,2.27-.7,3.61-2.21,2.65-3.93,4.61-3.51,4.59-2.68,7.61,4.28,6.41,5.17,9.67-.8,6.38-1.64,9.63a13.09,13.09,0,0,0,1,10c1.85,3.37,5.55,6.73,9.26,9.71s7.44,5.58,11,5.33,6.86-3.35,13.59-6.22a101.21,101.21,0,0,1,25.94-6.54c9.08-1,17.13-.45,24.44-1a67.42,67.42,0,0,0,17.95-3.85c4.05-1.56,5.57-3,6.21-6.1s.39-8,1-12.84,2.09-9.69,3.05-13.64a82.9,82.9,0,0,0,1.76-9.76,53.47,53.47,0,0,0,.51-8.63" transform="translate(-66.86 -110.22)" fill="#599921"/>
    <path d="M286.33,183.38c-2.62-4.81-2.07-11.09-3.68-16.46s-5.39-9.84-7.24-13.88-1.76-7.67.15-8.57,5.68.92,9,.45,6.3-3.22,7.66-6.16,1.14-6.06,2.82-6.87,5.25.69,8.85.3,7.24-2.69,9.85-4.2,4.22-2.23,5.66-.56,2.71,5.74,5.18,8,6.13,2.8,10.09,1.57,8.2-4.21,11.39-4.59,5.32,1.85,7.17,4.57,3.38,6,5.51,6.86,4.83-.52,8.36-1.9,7.89-2.72,9.87-1.64,1.55,4.55,1.28,7.77-.39,6.2-2.16,9.24-5.19,6.14-6.8,9-1.43,5.5-.5,5.87,2.62-1.51,4.83-2.92a60.4,60.4,0,0,1,7.11-3.34,13,13,0,0,0,5.33-4.09c1.59-2,3.19-5.07,3.66-4.26s-.2,5.44.76,9.77,3.55,8.34,5.11,11.74,2.08,6.17.05,9.06-6.6,5.87-7.39,8.79,2.21,5.76,5,5.56,5.37-3.43,7.42-3.52,3.59,3,4.17,5.44.22,4.27.24,8.06.41,9.54-1.28,14.89a36.91,36.91,0,0,1-7.69,12.67c-2.23,2.4-2.9,2.26-2.61,3.65s1.54,4.3,1.12,5.38-2.51.31-5.4,3.06-6.58,9-12,10.74-12.69-1.15-20.13-6.12a65.89,65.89,0,0,1-20.93-22.29c-5.83-10.24-9.86-23.65-15.49-30.78s-12.87-8-19.38-10.1-12.32-5.42-14.95-10.23" transform="translate(-66.86 -110.22)" fill="#73b03d"/>
    <path d="M204.83,167.88a9.29,9.29,0,0,0-2.14-8.42c-2.74-3.08-8.46-6.12-15.07-6.12s-14.12,3.06-21,3.47-13-1.82-17.12-1.82-6.06,2.19-9.9,5.14a54.2,54.2,0,0,1-15.51,8.57c-6,1.93-12.28,2.09-14.81,4.06s-1.28,5.73-1.4,9.81-1.58,8.48-3.76,12.88-5.08,8.76-5.81,12.82.67,7.82.17,10.85-2.91,5.35-5.65,8-5.81,5.73-7.27,9-1.3,6.84-1.25,9.5A24.29,24.29,0,0,0,86,254.92c1.62,4.81,4.92,12.65,5.8,17s-.67,5.08-1.65,6.37-1.38,3.07,1.08,4.65,7.8,3,14.27,3,14.1-1.12,20.52-1.55,11.65-.06,11.5-5.09-5.67-15.45-4.73-25.22,8.36-18.86,18.64-25.76,23.4-11.62,33-16.89,15.72-11.09,18.54-17.12,2.35-12.24,1.87-15.86-.95-4.64-.93-5.82.56-2.52.94-4.75" transform="translate(-66.86 -110.22)" fill="#73b03d"/>
    <path d="M109.08,270.52c-5.54,1.63-14.91,5-19,9.43s-2.83,10-3.9,15.66S81.77,307,77,313.12s-10.85,12.63-10.1,19.69S75.28,347.47,79,352.26s3.57,6.77,5,9.68a32.83,32.83,0,0,0,6.54,8.63c2.15,1.89,3.47,1.84,4.67,3.52s2.29,5.1,5.4,7.11,8.24,2.63,11.88,1.83,5.8-3,6.45-2-.21,5.37,2.43,6.74,8.78-.19,12.66,1.05,5.53,5.3,9.46,6.78,10.15.41,16.11-1.6a131.59,131.59,0,0,0,15.59-6.88c3.91-1.92,6-2.8,7.75-5.47s3.09-7.12-2-12.65-16.61-12.15-26.68-21.71a121.88,121.88,0,0,1-24.09-33c-5.41-11-7.59-20.38-7.65-27.13s2-10.81,1.62-13.38-3.22-3.64-5.5-4.22-4-.65-9.55,1" transform="translate(-66.86 -110.22)" fill="#599921"/>
    <path d="M184.6,205.35c2.7-2.66,2.7-2.66,5.16-4.1a76.06,76.06,0,0,0,10.89-7.38c3.5-3.05,5.59-6.26,8.57-9.12s6.84-5.37,13.21-8.74,15.22-7.61,22.91-9.11,14.22-.29,22.87,2,19.45,5.63,29.72,8.67,20,5.78,26.83,12.09,10.61,16.21,15.46,26.64,10.73,21.4,16.26,30.9,10.7,17.52,13.84,27,4.21,20.26,4.08,30.23-1.47,19.1-5.47,27.65-10.63,16.54-15.67,22.28-8.49,9.26-14.47,8-14.47-7.18-22.69-20.95-16.16-35.37-25.35-53.7-19.65-33.39-33.08-41.41a50.54,50.54,0,0,0-43.62-3.71c-13.79,5.29-25,16.86-31.76,17.71s-9.18-9-10.31-17.72-1-16.31,1.76-22.77,8.17-11.78,10.86-14.44" transform="translate(-66.86 -110.22)" fill="#a1d43d"/>
    <path d="M127.79,311.35c-2.31-4.51-6.31-13.55-7.73-21.9A46.24,46.24,0,0,1,122,266.86a78.53,78.53,0,0,1,8.64-17.25c3.19-5.08,6.34-9.66,9.3-14.47s5.75-9.88,9.24-13.07,7.69-4.52,12-6a91.45,91.45,0,0,0,13.39-5.57c4.53-2.41,9.09-5.57,11.31-7s2.07-1.07,1.08.13a21.24,21.24,0,0,0-4.21,7.09,37.77,37.77,0,0,0-2,13.68c.29,4.19,1.8,6.93,3.12,9.94s2.45,6.32,4,9.55,3.5,6.4,2.13,10.89-6.09,10.27-12.11,16.21-13.35,12-18.42,17.47a51,51,0,0,0-9.77,14.82c-1.92,4.45-3,8.44-5.38,10.52s-6.19,2.23-8.58,2.25a40.81,40.81,0,0,1-4.21-.17c-.81-.05-1.43,0-3.74-4.54" transform="translate(-66.86 -110.22)" fill="#70ba33"/>
    <path d="M273.42,407.17c2.18-3.1,6.32-7.57,16.81-13.12s27.36-12.16,39.65-19.26,20-14.66,24.44-22.25,5.54-15.22,3.87-19.11-6.14-4-9.85-2.81-6.66,3.81-7.47.47.52-12.63,2.36-20.62,4.18-14.67,3.38-19-4.73-6.32-8.32-6.92-6.83.2-8.3-2-1.17-7.29-1.45-12.47-1.13-10.42-2.55-12.91-3.37-2.25-4.65-1.71-1.88,1.4-3.26-.61a56.72,56.72,0,0,1-5-11.16c-1.45-4.31-2.21-8.07-4.8-8.62s-7,2.09-10.53,1.66-6.05-4-7-8-.26-8.48-2.41-9.79-7.14.54-10.87.2-6.23-2.88-8.58-4.68-4.57-2.86-6.71-1.54-4.18,5-6.51,7.19-4.92,2.75-8.9,1.35-9.32-4.81-11.86-4.54-2.27,4.21-4.66,5.29-7.48-.68-12.57-2.78-10.22-4.52-14.72-4-8.38,4-10.13,8.49-1.36,10.1-2.46,14.43-3.69,7.41-8.49,8.42-11.8,0-14.75,1.35-1.88,5.1-1.1,8,1.26,5.05-.64,6.12-6.19,1.08-11.82,2.05-12.58,2.9-16.36,5.53-4.37,5.94-3.47,8.3,3.32,3.73,3.66,5.12-1.37,2.77-2.63,3.73-2,1.49-1.71,2.71,1.79,3.14,1.53,5.29-2.25,4.54-5,6.8-6.21,4.37-7.71,7.64-1,7.71.32,11.69,3.57,7.52,4,11-1,6.8-.39,11.06a19.35,19.35,0,0,0,8.4,12.84c5.11,3.42,12.64,5.09,15.73,6.77s1.72,3.39.73,5.66a9.42,9.42,0,0,0-.37,7.84c1.27,2.75,4.42,5.42,9,7.71s10.68,4.18,15.08,5.73,7.12,2.76,8.79,4.25,2.29,3.29,3.52,4.31,3.06,1.27,5.68,2.16a29.84,29.84,0,0,1,9.24,5c3.21,2.61,6.24,6.31,9.32,9.44a37.53,37.53,0,0,0,10.17,7.63A38.19,38.19,0,0,0,236,426.33,94,94,0,0,0,255,425.16c5.71-.9,9.82-2.05,12.18-4s2.94-4.71,3.36-6.94a14.44,14.44,0,0,1,2.84-7.05" transform="translate(-66.86 -110.22)" fill="#b0e354"/>
    <path d="M311.69,206.91c1.06-2.24,2,.44,2.79,3.66a33,33,0,0,1,1.2,10.21c-.27,3.22-1.48,5.91-1.7,8.14s.57,4,1.8,6.93,2.92,7,4.45,8.22,2.91-.28,4.29-2.43,2.75-4.94,4.56-4.39,4.06,4.4,5.08,11.41.83,17.14,1.66,22.59,2.7,6.19,4.52,5.7,3.6-2.2,4.74-1.8,1.65,2.94,2.45,4.35,1.89,1.7,3-.33,2.32-6.35,3.46-7.14,2.24,2,2.73,5.41.36,7.56-1.6,13.82-5.74,14.66-7.1,20.6-.29,9.45.87,10.76,2.42.44,3.94-.9,3.29-3.14,4.47-2.74,1.78,3,3.06,4.87,3.25,2.91,4.95,1.23,3.13-6.1,3.71-12.51a91,91,0,0,0-.67-20.86c-1-6-2.74-9.77-4.85-15.78S359,261.61,355.84,256s-6.86-8.49-9.37-11.89-3.77-7.31-4.81-11-1.86-7.22-3.53-9.87-4.19-4.44-5.64-7-1.86-5.88-3.4-9.07-4.23-6.25-6.82-9.73-5.09-7.37-8.1-9.15-6.54-1.42-10.8-1.95a55,55,0,0,1-14-3.92c-4.74-2-9.2-4.56-11.91-5.55s-3.66-.36-4.48.29a3.51,3.51,0,0,1-3.14,1.1c-1.63-.24-4.18-1.42-7.36-3.58s-7-5.3-10.67-6.14-7.26.63-10,2.17-4.71,3.14-7.8,4-7.32,1.08-9.81,2.34-3.24,3.58-4.58,5.15-3.26,2.39-5.17,3.34a20.28,20.28,0,0,0-5.56,3.72c-1.74,1.72-3.3,4.09-4.88,6a31.08,31.08,0,0,1-4.87,4.5c-1.68,1.31-3.45,2.58-5.7,4.31a29.49,29.49,0,0,0-6.7,6.6,13.3,13.3,0,0,0-2,8.78c.36,3,1.77,6.09,2.74,6.67s1.49-1.3,2.08-4.17,1.22-6.72,2.42-9.31,3-3.89,4.37-4.15,2.46.52,3.9.54a7.83,7.83,0,0,0,4.73-1.9c1.45-1.19,2.49-2.84,3.24-2.61s1.24,2.37,3.29,4.2a17.62,17.62,0,0,0,8,3.69c2.29.32,3.26-.59,3-3.24a52.15,52.15,0,0,0-2.25-9c-.61-1.91-.4-1.34,1.23-.6a11.56,11.56,0,0,0,8.17.53c3.45-1.11,7.27-4.23,8.37-7.14s-.53-5.6-.14-7.92,2.82-4.28,5.72-5.26,6.28-1,6.93,0-1.43,3.15-2.75,5.51-1.88,5-2.77,7.3a14.14,14.14,0,0,1-4.33,6.2c-2.23,1.84-5.45,3.49-6.58,5.74s-.14,5.1,2.66,6.69,7.39,2,11.34.69a20.94,20.94,0,0,0,9.6-7,58,58,0,0,0,4.21-6.5c.51-.66.17,1,.35,2.38a3.43,3.43,0,0,0,2.53,3.11,6.75,6.75,0,0,0,6.26-1.59c2-1.86,3.53-5.34,5.37-5.58s4,2.76,3.58,5.89-3.51,6.38-2.53,8.59,6,3.36,10.13,3.33,7.34-1.22,9.37-4,2.88-7.21,3.13-10.41-.09-5.21.56-5.34,2.3,1.62,3.18,4.32a21.75,21.75,0,0,1,.39,10,48.77,48.77,0,0,1-3.09,9.87,26.19,26.19,0,0,0-2,5.91c-.26,1.82-.07,4,1,5a3.42,3.42,0,0,0,4.58-.13c1.52-1.26,2.58-3.81,3.71-8.68s2.32-12,3.38-14.29" transform="translate(-66.86 -110.22)" fill="#b0e354"/>
    <path d="M174.84,213.32a42.16,42.16,0,0,1-7.66,5.09C163.92,220,160,221,156,222.78s-8.06,4.51-10.62,8.53-3.64,9.38-5.85,13.84-5.54,8-8.08,12.09a41.15,41.15,0,0,0-5.07,12.23,19.51,19.51,0,0,0-.19,8.32c.43,2.24,1.1,4.23,2.42,5.33s3.26,1.31,3.53.66-1.16-2.15-1.79-4.35a16.65,16.65,0,0,1,.26-8.09,24.68,24.68,0,0,1,3.55-8.26c1.56-2.16,3.42-3.39,5.14-3.48s3.33.95,4.72.83,2.59-1.4,3.3-2.73a5.11,5.11,0,0,0,.31-4.46c-.64-1.77-2.16-3.93-1.85-6.31s2.44-5,3.59-6.51,1.33-2,1-.8-1.17,4-1.76,5.86-.95,2.67-.13,4.33,2.8,4.13,4,5.95,1.55,3,3.17,3.46,4.49.16,5.41-1.17-.12-3.72-.5-6.55a15.16,15.16,0,0,1,.94-8.18c1.05-2.08,2.88-3,4.15-2.78s2,1.48,3.28,2,3.17.28,5.23.17,4.28-.07,5.46-1.58,1.29-4.56.77-6-1.66-1.34-1.86-2.71.55-4.24.55-7.31-.78-6.34-.93-8.8.32-4.13,0-4.62-1.43.23-3.27,1.64" transform="translate(-66.86 -110.22)" fill="#8ad14a"/>
    <path d="M185,252.39a17.67,17.67,0,0,1-9.58.78c-2.67-.47-4.31-1.29-4.69.54s.52,6.33-.73,9.8-4.62,5.92-9.25,6.85-10.54.35-14.12,1.07-4.84,2.75-2.64,6.18,7.87,8.25,11.26,12.6,4.53,8.23,3.95,9.81-2.85.84-6-2-7.1-7.91-9.23-8.85-2.41,2.2-1.7,4.72,2.42,4.44,2.72,5.29-.78.65-2.06,1.2a8.71,8.71,0,0,0-3.93,4c-1.17,2.15-2,5.15-3.8,7.07s-4.42,2.78-5.75,4.48-1.31,4.26,5.34,6.71,19.92,4.79,25.18,6.88,2.5,3.93-3.25,4.21-14.51-1-17.86,1.76-1.32,9.61,4,14,13.85,6.35,19.64,9,8.82,5.86,8.87,6.56-2.88-1.16-6.83-1-8.9,2.35-10.21,4.88,1,5.39,6.73,6.72,14.76,1.12,18.62,2.08,2.52,3.07,3.7,5.82,4.88,6.15,9.54,9,10.27,5.31,14,7.63,5.51,4.55,6.64,4.71,1.57-1.75,2.46-5,2.22-7.72,3.61-8.55,2.82,2,4.55,4.92,3.76,6,5.11,5.84,2-3.46,2.3-7.83a64.71,64.71,0,0,0-.61-14.07c-.75-4.25-2.12-7.33-1.33-10.2s3.74-5.55,4.87-8.81.46-7.11.33-11.3a49.78,49.78,0,0,1,1-11.87c.74-3.12,1.77-4.81,2.25-3.84s.4,4.6.29,7.65a31,31,0,0,0,.39,8.55c.66,3,2.15,6.59,1.87,10.35s-2.31,7.72-3.39,11.72a27,27,0,0,0-.48,12.05A39,39,0,0,0,240.44,395c1.33,2.5,2.4,3.52,3.49,2s2.21-5.49,3.4-8.59,2.44-5.29,5.78-7.07,8.77-3.16,13.12-5.89a26.33,26.33,0,0,0,9.65-11.19c2.05-4.37,2.88-9,3.69-9.83s1.6,2.2,1.31,6.37-1.65,9.5-4.53,13.08-7.3,5.41-10.6,7.23-5.47,3.64-7,6.26a27,27,0,0,0-2.79,9c-.46,2.95-.53,5.42.76,5s3.95-3.62,6.54-6.16,5.1-4.37,7.52-5.13,4.76-.44,8.55-1.58a57.83,57.83,0,0,0,13.4-6.6c4.34-2.86,7.76-6,9.4-6.65s1.52,1-.75,2.91-6.66,3.86-9.76,6.13-4.9,4.81-8,6.63-7.47,2.9-10.3,4.33a10,10,0,0,0-4.83,4.73c-.72,1.51-.88,2.76,1.71,1.45s7.93-5.14,13.57-9A182.46,182.46,0,0,1,302,381.43c6.69-3.48,14.14-6.67,19.94-9.3s9.94-4.69,13.5-7.43a41.49,41.49,0,0,0,9.19-10.14,51.31,51.31,0,0,0,6-11.65c1-3.13.61-4.85-2.24-4.32s-8.18,3.3-12.62,5.33-8,3.34-10.29,2.73-3.39-3.12-4.91-3-3.48,2.69-5.95,5.76a73.21,73.21,0,0,1-7.66,8.47c-2.22,1.9-3.68,2.21-2.82.36s4-5.85,6-9.79,2.64-7.83,4.54-10.71a15.57,15.57,0,0,1,7.43-5.64c2.43-.89,4.17-.8,6.16-2.32s4.26-4.67,6.19-10.1a99.31,99.31,0,0,0,4.2-18.42c.67-5.26.39-8-.95-9.52s-3.74-1.62-6.12-1.48a42.12,42.12,0,0,0-6.17.87c-1.42.3-1.9.49-3.17,3.05s-3.31,7.51-5.48,12.46-4.47,9.91-7.43,13.08-6.57,4.55-8.72,5.67-2.83,2-1.16.5a35.55,35.55,0,0,0,8.05-10c2.35-4.71,3-10.34,3.51-15.35s.75-9.38,2.76-13.17,5.74-7,7.85-9.88a10.64,10.64,0,0,0,2.18-8.37c-.41-2.91-1.71-6.15-3.45-6.94s-3.94.86-6.65,2.25-5.93,2.51-8.38,4.09a16,16,0,0,0-5.75,6.87c-1.63,3.23-3.22,7.67-4,8s-.81-3.35-.25-6.63a20.38,20.38,0,0,1,3.59-8.79c1.92-2.68,4.63-5.18,6.3-7.26a10.73,10.73,0,0,0,2.56-6,26.34,26.34,0,0,0-.31-7.4c-.47-2.5-1.28-4.77-3-5.48s-4.41.14-6.57.43-3.84,0-5.65.69a11.13,11.13,0,0,0-5.25,4.49,43.77,43.77,0,0,0-3.26,7.06c-.75,1.76-1.21,2.27-1.19.83a48.84,48.84,0,0,1,1.23-7.84A69.5,69.5,0,0,1,286,240a13.57,13.57,0,0,0,1.19-5,18.64,18.64,0,0,0-1.25-6.08c-.76-2-1.79-3.8-3.68-4.3s-4.65.27-6.6.68-3.1.45-4.57,2.37A24.55,24.55,0,0,0,267,238c-.78,4.54-.53,9.84-1.15,13.37s-2.11,5.28-2.48,4.41.37-4.36.18-7.78-1.34-6.74-1.46-10.15a33.78,33.78,0,0,1,1.8-10.34c1-3.41,2.09-6.75,1.43-7.43s-3.09,1.32-6.74,2.87a28.24,28.24,0,0,1-12.41,2.32c-3.9-.33-6.83-2.11-8.26-1.31s-1.36,4.18-2.22,6.11-2.63,2.41-8.25-.25-15-8.49-20.85-9.36-7.94,3.19-8.79,7.68a25.34,25.34,0,0,0,1.7,14.61c2.13,5.18,6,10.63,7.21,16.47s-.16,12.08-.21,18.43,1.22,12.8,1.78,16.69.4,5.22-.81,2.63a78.8,78.8,0,0,1-4.62-14.89c-1.15-5.8-1.17-10.91-1.79-15.91a57.91,57.91,0,0,0-3.16-13.34c-1.36-3.45-2.86-5.45-5-5s-4.79,3.25-8,4.61" transform="translate(-66.86 -110.22)" fill="#c2ed73"/>
    <path d="M292.64,127.06a31.76,31.76,0,0,0-7.14-3.93,15.3,15.3,0,0,0-8.19-1c-2.53.47-4.74,1.84-7.76,2.58a17.56,17.56,0,0,1-9.63-.19c-2.77-1-4.49-3.23-6.44-5.19s-4.14-3.68-6.19-3.87-4,1.17-5.8,2.07a10,10,0,0,1-5.4,1.19c-1.89-.15-4-.89-6-.42s-4,2.17-5.65,3.29-3.14,1.67-4.37,2.4-2.24,1.63-2.07,2.8,1.5,2.6,2.47,4.08,1.57,3,.95,3.55-2.48,0-5.82-.51-8.15-1.07-11.25-.55-4.47,2.1-4,3.46,2.77,2.5,4.36,3.64,2.44,2.24,1.87,2.6-2.58-.06-3.44.61-.57,2.43-1,3.44-1.63,1.26-2.84,1.23-2.48-.35-3.42.1a1.83,1.83,0,0,0-1,2.53c.6.86,2.41,1.36,4.1,2.32a19.45,19.45,0,0,1,4.65,3.89,35.33,35.33,0,0,1,3.49,4.66,21.42,21.42,0,0,1,2.39,4.62c.54,1.59.78,3.27,1.11,4.08s.73.75,1.93-.31a17,17,0,0,0,4-5,6.61,6.61,0,0,0,0-4.92c-.45-1.38-1-2.47-.6-3.54s1.67-2.1,2.31-2,.65,1.27.34,2.17-.93,1.5-.6,2.6a8.46,8.46,0,0,0,2.83,3.61,3.15,3.15,0,0,0,3.72.43c1.27-.73,2.59-2.43,3.93-3.09s2.68-.25,3.71-.36a1.91,1.91,0,0,0,1.85-1.76c.14-1.05-.3-2.56,0-3.81a5.14,5.14,0,0,1,2.38-2.94c1.08-.7,2.25-1.12,3.42-1.85a5.21,5.21,0,0,0,2.6-3.15c.28-1.39-.34-3.14-.25-4.28a2.72,2.72,0,0,1,1.48-2.08,2.4,2.4,0,0,0,1.24-1.45c.2-.73.16-1.88.36-2.86s.64-1.77,1.21-1.59,1.27,1.35,1.7,2.42a3.42,3.42,0,0,1,.11,2.92c-.45.87-1.51,1.61-2,2.45s-.31,1.79-.7,2.65-1.33,1.64-1.71,2.7-.2,2.42-1,3.57-2.6,2.08-3.28,3.32-.24,2.8,2.29,2.92,7.14-1.18,10.06-1.52A8,8,0,0,1,258,157c1.76,1,4,2.45,5.94,3.69a40.88,40.88,0,0,0,5.17,3.09,27.79,27.79,0,0,0,5.19,1.66c1.47.33,2.42.45,2.53-.7s-.64-3.6-2.13-5.91-3.69-4.49-4.88-6.7a11,11,0,0,1-1.06-6.76c.27-2.27,1-4.57,2.32-5.18s3.31.46,5.6.54,4.91-.87,6.71-1.1,2.78.21,3.59-.23a4,4,0,0,0,1.54-3.2c.06-1.4-.45-2.86.42-4s3.11-2.1,4.19-2.81,1-1.19-.45-2.31" transform="translate(-66.86 -110.22)" fill="#70b536"/>
    <path d="M314.08,134.28c-1,.54-2.7.86-3.9,1.44s-1.88,1.44-3.26,1.16-3.47-1.69-4.47-.93-.92,3.7-1.75,4.81-2.56.4-3.92,1.26-2.35,3.28-3.93,4.91a10.35,10.35,0,0,1-5.66,2.79c-1.92.32-3.58.14-3.86,1.43s.81,4,2,7,2.36,6.12,4.75,8.42,5.95,3.71,10.49,5a127.53,127.53,0,0,0,14,2.94c3.95.57,6.35.64,8.4,1.63s3.75,2.89,5.53,4.88a27.89,27.89,0,0,0,7.54,6.29c3.86,2.23,9.72,4.63,12.69,3.93s3-4.49,2.74-8-.93-6.8,1-9.23,6.56-4,8.73-5.54,1.89-3,2.58-4.93,2.34-4.3,3.62-6.7A26.44,26.44,0,0,0,370,150c.39-2,.28-3.56-1.84-3.8s-6.25.83-9.06,1.27-4.32.26-6.48,1.17a59.15,59.15,0,0,0-8.14,5.07c-3.15,2.15-6.63,4.44-7.92,4.24s-.4-2.87,1.09-4.45,3.61-2.09,5.42-2.78a22.05,22.05,0,0,0,5.16-2.89c1.85-1.31,4-3.05,4.47-4.5s-.88-2.65-2.43-3.53a8.14,8.14,0,0,0-5-1.24c-1.72.24-3.38,1.29-5.46,2.2s-4.59,1.67-8.15,3.22-8.18,3.88-10.6,7.1-2.62,7.36-3,9.48-.84,2.22-1.36.59a29.62,29.62,0,0,1-1.1-7.45,8.23,8.23,0,0,1,1.68-5.51,24.76,24.76,0,0,1,3.88-3.58c1-.82,1.32-1.16,1.39-2a6.62,6.62,0,0,0-.63-3.15,13.91,13.91,0,0,0-2.55-3.35,13,13,0,0,0-3.25-2.84c-.8-.29-1.08.46-2.07,1" transform="translate(-66.86 -110.22)" fill="#8cc25c"/>
    <path d="M362.29,174.43c-1-1.76-3.32-2.64-4.55-.82s-1.42,6.35-1.68,9.81a28.87,28.87,0,0,1-1.28,7.75,8.9,8.9,0,0,1-3,4.2,10.88,10.88,0,0,1-5.19,1.86c-2.37.34-5.58.47-6.14,1.86s1.51,4,3,6.55a33.63,33.63,0,0,1,2.92,7.05,27.83,27.83,0,0,0,2.27,5.92c1.18,2.13,3.09,4.69,4.29,7.16a43.36,43.36,0,0,1,2.34,6.87,12.63,12.63,0,0,0,2.84,5.24,28.66,28.66,0,0,0,5.39,4,43.91,43.91,0,0,0,5.75,3.23,38.2,38.2,0,0,0,7.05,2.26,14.16,14.16,0,0,0,6.93.13c2.31-.63,4.68-2.13,5-3.46s-1.53-2.49-3.72-3.64-4.73-2.27-5.83-3.87-.75-3.68.11-3.68,2.25,2.09,4.36,3.29a16.13,16.13,0,0,0,6.66,1.58c1.74.09,2.4,0,3.86-2.14a67.79,67.79,0,0,0,5.26-9.77,30.84,30.84,0,0,0,2.61-9.34,21.94,21.94,0,0,0-.45-7.64c-.55-1.87-1.43-2.74-3.67-1.66s-5.82,4.11-8.49,5.37a5.81,5.81,0,0,1-5.77,0c-1.33-.73-2.23-1.68-3.54-1s-3,3.09-4.8,5.06-3.55,3.52-4.48,3.77-1-.83-.82-1.7a5.54,5.54,0,0,1,1.32-2.4,31.41,31.41,0,0,0,2.6-3.49c1-1.6,2.09-3.79,4.31-5a13.54,13.54,0,0,1,7.55-1.25c1.95.29,2.51,1.17,3,.83a2.63,2.63,0,0,0,.08-3.06c-.78-1.12-2.73-1.78-4.06-3.21a5.66,5.66,0,0,1-1.52-5.25c.54-1.63,2.37-2.7,3.94-4.41a31.23,31.23,0,0,0,3.77-5.63c.88-1.56,1.33-2.32.8-3.94s-2-4.13-3.05-6.55-1.62-4.8-2.28-6.64-1.41-3.14-2.69-2.43-3.05,3.44-5.12,4.56-4.39.64-6.32,1.38-3.45,2.7-4.84,4.77-2.64,4.27-3.28,5-.7.11-.61-1.54.33-4.3-.7-6.06" transform="translate(-66.86 -110.22)" fill="#8cc25c"/>
    <path d="M391.61,259.17c-1.68.81-3.75,1.88-4.63,3.4s-.59,3.48-2.62,4.55-6.38,1.25-7.45,3.77,1.18,7.37,2.72,11.75A66.34,66.34,0,0,1,382.74,296c.73,5,1.32,11.19,2.19,14.2s2,2.89,4.32,3.49a27,27,0,0,1,9.19,4.53c3.39,2.58,6.71,6.4,8,9.24s.49,4.67-.31,5-1.62-.75-3-2.84-3.2-5.15-5.88-6.81a14.91,14.91,0,0,0-8.61-1.75c-2.47.19-3.91.82-5.33,2.82s-2.85,5.34-4.59,9.37-3.81,8.73-5.68,12-3.56,5.18-3.27,7,2.57,3.64,4.66,6.56a43.57,43.57,0,0,1,5.12,10.05c1.08,3.09,1.31,5.22.49,4.68s-2.7-3.76-4.42-6.53-3.28-5.1-5.33-6.67a8.22,8.22,0,0,0-7.24-1.64c-2.68.73-5.49,3-7.75,4.89a53.78,53.78,0,0,1-5.94,4.69c-2,1.24-4.23,2.15-4.32,3.1s1.94,1.94,2.65,3.85.09,4.74.67,7.18,2.37,4.52,4.84,4.38,5.6-2.49,8-3.3,4.12,0,6,1.37,3.92,3.47,6.48,4.1,5.64-.15,8.72-1.47,6.17-3.18,8.49-3.6,3.88.59,5.62,1.79,3.64,2.61,5.3,2.13,3.06-2.84,3.61-6.16a41.48,41.48,0,0,0-.32-11.77c-.58-4.18-1.44-8.26-.91-10.75s2.44-3.4,5.2-4.05,6.36-1,10.2-2.81a30.07,30.07,0,0,0,10.29-7.91c2.39-3,3.1-5.94,2.07-8.9s-3.8-6-5-8.2-.79-3.64.35-5.7a33.57,33.57,0,0,0,4-8.57,24.39,24.39,0,0,0-.22-12.68,15.92,15.92,0,0,0-7.49-9.25c-3.61-2-8.21-2.92-10.54-3.82s-2.39-1.79-2.12-2.05.87.13,2.14.49,3.18.69,4.32-.18,1.48-2.94,1.38-5-.64-4-.47-6.82,1.07-6.59,1.16-8.74-.59-2.69-2.7-2.07a73.44,73.44,0,0,0-8.16,3.63c-2.55,1.21-4.16,1.86-5.68,1.38s-2.94-2.06-4.11-4-2.08-4.33-3.17-5.23-2.38-.36-4.05.46" transform="translate(-66.86 -110.22)" fill="#70b536"/>
    <path d="M200.18,185.17a34.6,34.6,0,0,0,.65-7.15,15.27,15.27,0,0,0-2.43-7.65c-1.49-2.05-3.69-3.07-5.24-5.1s-2.45-5.05-3.31-6.43-1.69-1.09-2.91-.81a10.41,10.41,0,0,1-4,.31c-1.14-.23-1.8-1-3.91-.09s-5.63,3.4-9.32,4.38a21.6,21.6,0,0,1-10-.12c-2.43-.55-3.45-1.1-4-.31a3.25,3.25,0,0,0,.71,4.08c1.45,1.18,4.51,1.42,5.57,2.32s.12,2.47,0,4.08.47,3.26.71,4.91a10.25,10.25,0,0,1-.24,4.28c-.31,1-.78,1.29-1.29.63a11.4,11.4,0,0,1-1.34-3.62c-.27-1.29-.27-2.24-.47-3.26a4.34,4.34,0,0,0-2-3.06c-1.41-.94-3.85-1.72-5.26-3.22s-1.81-3.69-2.67-4.67-2.2-.75-4,.43-4,3.3-7.59,4.06-8.67.15-12.48,1.21-6.38,3.78-8.17,5.15-2.82,1.36-2.58,2.46,1.73,3.3,2,5.42-.78,4.16.4,6.16,4.55,4,6.55,5.89,2.63,3.81,1.89,3.85-2.87-1.77-4.91-3-4-1.85-5.46-2.71-2.39-2-3.41.12-2.12,7.34-3.85,10.87-4.08,5.34-4.75,7.54.35,4.79,2.71,6.67,6.05,3.07,7.07,3.93-.63,1.41-2.44,1.18-3.77-1.26-5.3-.83-2.63,2.32-3.92,4.32a39.55,39.55,0,0,1-4.76,6.17c-2,2-4.39,4-4.71,8s1.49,10.17,2.48,14.17a70.83,70.83,0,0,1,1.45,7.93c.31,2,.78,4.24,3.37,3.93s7.31-3.14,10.14-3.93,3.76.47,5.45,1.46,4.12,1.71,4.9.18-.07-5.32,0-8.82,1.22-6.72,3.61-8.7,6.1-2.72,8.62-7.47,3.84-13.51,5.25-17.22,2.9-2.38,3.72-1.72,1,.67,1.22-.58a38.41,38.41,0,0,0,.55-6.28c0-2.52-.32-5,.08-5s1.49,2.63,3.41,4.24a12.33,12.33,0,0,0,6.91,2.39c2.24.16,4-.15,7.07-1.73s7.58-4.39,11.35-5.8,6.83-1.38,9-4.72,3.42-10,4-14.44.63-6.52,1.26-6.25,1.89,2.95,2,5.54-.9,5.1-1.5,7-.78,3,.79,2.34,4.89-3.32,7.27-4.35,3.83-.48,4.65-1.73,1-4.32,1.37-6.87" transform="translate(-66.86 -110.22)" fill="#8cc25c"/>
    <path d="M115.42,274.35c-2.3,0-6.42,1.23-9.26,2.55s-4.41,2.72-6.63,3.71-5.12,1.56-6.39,2.92-.94,3.5-.45,5.72,1.16,4.53,2.52,5.52,3.42.65,5.23.86,3.37.95,3.21,1.36-2.06.49-3.83.57a20.6,20.6,0,0,0-5.19.71,8.65,8.65,0,0,0-5.18,4c-1.53,2.47-2.68,6.42-4.16,9.42a29.56,29.56,0,0,1-5.23,7.17,48.83,48.83,0,0,0-5.39,6.46c-1.4,2.22-2.14,4.53-1.81,6.42s1.73,3.38,3,5a61.64,61.64,0,0,1,3.62,5.11c1.08,1.64,2,3.13,3.5,3.66s3.67.13,6.22-.49,5.52-1.44,8.36-1.86a24,24,0,0,1,7-.12c1.49.29,1.73.87,1,1.11a30.16,30.16,0,0,1-4.44.29A14.28,14.28,0,0,0,95,346a16.33,16.33,0,0,0-4.69,4.37,4.4,4.4,0,0,0-1,3.74,16.53,16.53,0,0,0,2.1,5.93,12,12,0,0,0,4.86,4.69,8,8,0,0,0,5.56.17,48.72,48.72,0,0,1,5.51-1.48c1.52-.17,2.51.33,2.14.9s-2.1,1.24-3.58,1.81-2.72,1.07-3.38,2.19-.74,2.84.91,4.65a13.74,13.74,0,0,0,7.82,3.95c2.8.25,5-1.15,7.41-3.05s4.94-4.28,6.59-4.44a2,2,0,0,1,1.93,2.67c-.45.78-2.1.29-3,.13s-1.2,0-1.53,1.23a12.1,12.1,0,0,0-.2,5.72c.53,2.18,2,4.24,3.66,4.33s3.46-1.82,4.57-2.52,1.52-.2,2.59.33a26.59,26.59,0,0,1,3.79,1.86c1,.74,1.23,1.64,2.84,3.12a34,34,0,0,0,6.83,4.66c2.27,1.11,3.83,1.27,6.66.32s6.94-3,7.06-4-3.73-.9-6.36-1.72a8.8,8.8,0,0,1-5.18-4.61c-1.15-2.06-2.05-4.44-3-6.26s-1.93-3-2.06-4.19.62-2.23-.53-3.34-4.2-2.26-7.33-3.82a39.41,39.41,0,0,1-8.77-5.77,70.11,70.11,0,0,1-5.8-6.67c-1.73-2-3.54-3.45-4-5.43s.32-4.45.73-6.63a9.66,9.66,0,0,0-.2-5.52,5.39,5.39,0,0,0-3.34-2.92,12.63,12.63,0,0,0-5.39-.24c-2.18.24-4.81.74-7,1.07a13.63,13.63,0,0,1-5.76,0,29.55,29.55,0,0,1-5.84-2.47c-1.57-.83-2.39-1.32-1.69-1.48a10.94,10.94,0,0,1,4.24.45c1.32.45,1.73,1.19,3.66,1s5.39-1.36,8.48-2.06a39.51,39.51,0,0,1,7.82-1c2,0,3.34.12,3.92-.29s.41-1.4-.33-3S114.6,318.72,115,316s2.43-6,4-8.35,2.51-3.75,2.18-5.52-2-3.91-2.84-6.13a16.75,16.75,0,0,1-.78-7.24c.16-2.72.57-5.85.82-7.91a13.41,13.41,0,0,0,.13-4.16c-.21-1.11-.7-2.34-3-2.34" transform="translate(-66.86 -110.22)" fill="#70b536"/>
    <path d="M207.63,413.67A54.25,54.25,0,0,1,212.37,424c1.14,3.83,1.43,7.86,2.68,10.28s3.49,3.23,10.14,4,17.72,1.47,25.71.44,12.88-3.77,15.43-6.14,2.74-4.35,2.93-7a58.51,58.51,0,0,1,1.09-8.9c.7-3.07,1.91-6,2.26-7.63s-.18-1.93-1.86-.33a84.85,84.85,0,0,0-6.06,7c-1.54,1.91-1.77,2.25-2.13.66s-.86-5.12-1.33-7.29-.92-3-1.47-2.55-1.22,2.12-1.8,4.21-1.07,4.58-1.47,4.8-.71-1.82-1.86-4.42a22.69,22.69,0,0,0-5.07-7.39c-2-1.66-3.91-1.86-4.46-.89s.27,3.11.25,5.8-.87,5.94-1.79,7.09-1.91.2-2.6-1.95a54.09,54.09,0,0,1-1.36-7.17c-.25-1.65-.36-1.6-1.39-.72a21.93,21.93,0,0,0-4.39,4.84c-1.41,2.26-2.29,5.07-2.72,5.59s-.42-1.24-1.9-3.78a29.06,29.06,0,0,0-5.95-7c-1.53-1.12-1.62-.05-1.75,2.18s-.32,5.62-.6,7.65-.64,2.7-2.12,1.73-4.1-3.58-6.79-5.61-5.46-3.49-6.27-3.17.33,2.42,1.91,5.28" transform="translate(-66.86 -110.22)" fill="#703b00"/>
    <path d="M210.89,414.7a47.71,47.71,0,0,1,2.47,4.58,32,32,0,0,1,1.87,6.16,55.43,55.43,0,0,0,1.51,6.57c.7,2,1.78,3.67,7.53,4.73a93.69,93.69,0,0,0,23.65.62c7.45-.89,11.92-3.12,14.58-5.14a10.22,10.22,0,0,0,4.17-6.54c.68-2.73,1.22-6.38.6-7.09s-2.37,1.49-3.81,2.7-2.55,1.43-3-.23-.18-5.16-.5-5.91-1.23,1.27-2.12,2.52-1.78,1.74-2.38.92-.92-2.95-2-5.15a19.34,19.34,0,0,0-4.42-5.77c-1.53-1.3-2.75-1.61-2.71-1.09s1.33,1.85,1.3,4.27a14.85,14.85,0,0,1-2.87,7.81c-1.5,1.86-3.17,2.08-4.17,1.5s-1.34-2-1.77-3.75-1-4.05-1.85-4.68-2.1.38-2.74,1.86a18.46,18.46,0,0,0-.9,5.13c-.17,1.65-.45,3-1,3.11s-1.32-1-2.18-2.53-1.8-3.64-2.84-5.28-2.16-2.88-2.72-2.8-.54,1.49-.94,3.52a26.1,26.1,0,0,1-2,6.22c-.81,1.52-1.62,1.88-3,.62s-3.34-4.15-5-6.09-3-2.9-3.42-2.93-.06.91.63,2.14" transform="translate(-66.86 -110.22)" fill="#94520a"/>
    <path d="M248.2,418.9a23.42,23.42,0,0,1-3.41,5.64c-1.1,1.2-1.93,1.23-3.17.35s-2.85-2.66-3.92-2.69-1.57,1.7-2.08,3-1,2.13-2,1.91-2.39-1.5-3.27-2.3-1.22-1.11-2-.64a7.87,7.87,0,0,0-2.79,3.14,2.81,2.81,0,0,0,1.38,4c1.91,1,5.64,1.61,9.86,1.83a55.69,55.69,0,0,0,12.84-.66,21.83,21.83,0,0,0,9-3.57c1.82-1.42,2.26-2.88,2.12-3.92s-.85-1.68-1.94-1.27-2.55,1.84-3.36,1.26-1-3.2-1.77-5.48-2.2-4.25-3.13-4.34-1.39,1.7-2.31,3.78" transform="translate(-66.86 -110.22)" fill="#b26b1f"/>
    <path d="M148.08,171.36c-.45.31-1.23,2-3.1,2.7s-4.84.24-7.35.27a22.36,22.36,0,0,0-6.24,1,20.17,20.17,0,0,1-4.36,1.12c-1.42.08-3-.29-4,.63s-1.46,3.15-1.48,4.49.4,1.79,1.34,1.5,2.43-1.31,3.36-1.4,1.29.79,2,2,1.73,2.9,3.5,3.21,4.28-.72,5.95-.49,2.49,1.71,4.36,3.23a33.67,33.67,0,0,0,8,4.4,27.8,27.8,0,0,0,9.53,2.41c2.82,0,5-1,4.49-2.37s-3.57-3-4.76-4.85-.49-3.75-.76-5.64a12.35,12.35,0,0,0-2.37-5c-.86-1.24-1.35-1.86-1.42-2.76s.31-2.1-.61-2.57-3.16-.23-4.33-.66-1.29-1.55-1.75-1.24" transform="translate(-66.86 -110.22)" fill="#b0de82"/>
    <path d="M180.92,164c-1.43,0-3.69.58-5.67.85s-3.66.27-4.86.86-1.89,1.79-2.67,2.27-1.65.22-1.87.84a3.78,3.78,0,0,0,.9,2.92c.72.83,1.75,1,3.42.45s4-1.76,5.1-1.48,1.09,2.1,1.3,3.48a28.84,28.84,0,0,1,.7,3.79,25.73,25.73,0,0,0,.16,5.76c.5,2.33,1.86,5,2.33,7s.06,3.19.47,2.24a41.42,41.42,0,0,0,2.18-6.56,15.43,15.43,0,0,0,.15-5.85c-.23-1.5-.52-2.65.18-3.81s2.39-2.3,3.25-3.38.87-2.07,1.57-2.11,2.08.87,3,.73,1.43-1.33,1.59-2.21a1.68,1.68,0,0,0-.68-1.94,13.7,13.7,0,0,1-2.59-1.6,7.52,7.52,0,0,1-1.3-2.95c-.33-1-.74-1.93-1.34-1.85s-1.38,1.15-1.86,1.89-.68,1.15-1.07,1.13a7.52,7.52,0,0,0-2.41-.43" transform="translate(-66.86 -110.22)" fill="#b0de82"/>
    <path d="M123.84,229.24c-1.69-1-5.85-1.92-8.6-2.22s-4.12,0-5.19.78-1.85,1.95-2.92,2-2.43-1.08-3.69-.46-2.41,3-4.18,5.58-4.15,5.5-3.85,7.33,3.32,2.61,4.72,3.54,1.19,2,1.54,3.08,1.26,2.21,1.44,3.13-.35,1.67-1.23,3.11-2.12,3.58-1.59,4.39,2.84.26,4.84-.62,3.68-2.12,5.14-2.25,2.7.87,3.65.6,1.6-1.79,1.67-3.83a20.31,20.31,0,0,0-1.4-7.12c-.93-2.53-2.25-5-2.8-6.59s-.35-2.12.86-2.59,3.44-.84,4.63-1.64,1.36-2,2.37-2.66,2.86-.62,4.18-1.11,2.1-1.48.41-2.45" transform="translate(-66.86 -110.22)" fill="#b0de82"/>
    <path d="M285.59,128.37c-.84.53-3.07,1-3.68,1.83s.37,2.08-.41,2.78-3.34.86-5.4.74-3.62-.54-5.7,0-4.67,2.08-6.29,2.57-2.29,0-2.93.89-1.25,3.31-3.27,5.31-5.44,3.6-6.26,3,.95-3.33,1.59-5.62a5,5,0,0,0-1.55-5.57c-1.69-1.49-4.56-2.64-5.78-4.33s-.76-3.91-.35-5.64.78-3,1.57-2.75,2,1.85,3.39,3.08,3.07,2.06,4.34,3S257,129.89,259,130s5.09-.72,7.6-1.4,4.44-1.17,6-1.64a21.29,21.29,0,0,0,3.54-1.38,4.1,4.1,0,0,1,2.24-.86,16.22,16.22,0,0,1,3.27,1,28.6,28.6,0,0,1,3.33,1.07c.89.44,1.43,1,.58,1.59" transform="translate(-66.86 -110.22)" fill="#8fd154"/>
    <path d="M315.21,140.19a3.52,3.52,0,0,0-.44,1.72c.05.66.42,1.44,0,2.25s-1.7,1.66-2.14,2.59-.08,1.93-.47,3-1.54,2.33-1.82,3.51.32,2.34-.27,3.5-2.35,2.34-3.54,3.48-1.78,2.26-3.14,3.17A9.21,9.21,0,0,1,298,165a7.31,7.31,0,0,1-4.67-2.5A20.26,20.26,0,0,1,290,157.7c-.83-1.61-1.28-3-.65-3.83s2.33-.91,3.58-1.52a7.68,7.68,0,0,0,2.92-3.19c.9-1.46,1.91-3.28,3.13-4s2.66-.31,3.54-.58,1.18-1.2,1.38-2.29.28-2.34.83-2.54,1.59.67,2.9,1a5.75,5.75,0,0,0,3.76-.39c.84-.49.9-1.23,1.19-1.79a2.34,2.34,0,0,1,1.41-1.16,2.14,2.14,0,0,1,1.66.05c.32.23.24.71.1,1.2a10.41,10.41,0,0,1-.54,1.53" transform="translate(-66.86 -110.22)" fill="#b0de82"/>
    <path d="M339.53,146.37c-2.65.46-6.89,1.31-8.72,2.56s-1.26,2.92-1.91,4-2.56,1.58-3.48,2.95-.89,3.61-.66,5.33.64,2.91.32,4.12-1.37,2.45-.86,2.87,2.6,0,3.83.68,1.63,2.34,1.88,3.57.35,2,1.89,2.62a31.25,31.25,0,0,0,7.1,1.23c2.57.23,4.73.27,5.41-.46s-.12-2.23.37-3.48,2.29-2.23,3.8-2.62,2.75-.19,3.87-.9,2.13-2.33,3-3,1.53-.38,2.31-.5a2.41,2.41,0,0,0,2-1.62c.3-1,0-2.48.58-4.05a18.08,18.08,0,0,1,3-4.54c1-1.32,1.79-2.33,1.87-3.25s-.5-1.74-2.24-1.68a28.37,28.37,0,0,0-7.59,2.08c-2.91,1.09-5.81,2.37-7.91,3.32a23.32,23.32,0,0,0-4.62,2.47c-1.23.9-2.38,2.1-3.87,2.63a6,6,0,0,1-4.25-.07c-.93-.48-.95-1.33-1.05-2.66a27.52,27.52,0,0,1-.16-4.44,3.71,3.71,0,0,1,1.37-2.74,10.18,10.18,0,0,1,2.92-1.43c1-.35,2-.6,2.86-.93a10,10,0,0,0,2.33-1.24c.62-.46,1-1,.71-1.16s-1.37-.13-4,.34" transform="translate(-66.86 -110.22)" fill="#b0de82"/>
    <path d="M383.54,173.24c-.29,1.38-.7,3-1.79,3.62s-2.86.14-4.28-.1-2.49-.29-3.34.88-1.46,3.56-2.49,5.15a10.82,10.82,0,0,1-3.93,3.25,12.72,12.72,0,0,0-3.78,3.05,7,7,0,0,0-1.14,3.74c-.08,1.21,0,2.29-.12,3s-.29,1.15-.84-.06-1.46-4.06-2-4.27-.82,2.23-1,4.55-.24,4.55-2,5.62-5.16,1-6.44,1.46-.41,1.5-.18,2.64-.19,2.36,0,4.57a18.38,18.38,0,0,0,2.38,7.9c1.55,2.53,3.93,4.42,5.13,4.12s1.19-2.82,1.46-4.45.8-2.37,1.81-2.51,2.49.31,3.79-.49a8.23,8.23,0,0,0,2.84-4.6c.43-1.72.18-3.12,1.44-4s4-1.19,6.4-1.79,4.41-1.46,5-2.18-.29-1.3-1.15-2.16-1.73-2-1.32-3.29,2.1-2.68,2.94-3.87.85-2.18,1.36-3a15.53,15.53,0,0,1,2.41-2.22,4.22,4.22,0,0,0,1.57-3.11,10,10,0,0,0-1.16-3.87c-.45-.9-.66-1.07-.41-2a17,17,0,0,0,.95-4.4c0-1.67-.7-3.23-1.13-3.46s-.6.89-.89,2.27" transform="translate(-66.86 -110.22)" fill="#b0de82"/>
    <path d="M411.2,270c-1.52,1-2.8,2.16-3.87,3a9.12,9.12,0,0,1-2.92,1.52,3,3,0,0,1-3-.31c-.95-.82-1.73-2.67-2.87-4.51s-2.61-3.64-4-4a2.9,2.9,0,0,0-3.23,1.77,6,6,0,0,0-.13,3.25c.11.89,0,1.42-.69,1.57s-2.08-.11-2.78.31-.74,1.48-1.34,2.28-1.75,1.34-1.87,2.24.78,2.19,1.4,3.46a12.2,12.2,0,0,1,1.11,4.14c.16,1.58.16,3.48.49,5.14a21,21,0,0,0,1.4,4.1,4.25,4.25,0,0,1,.45,2.55,9.35,9.35,0,0,0-.14,3.79c.39,1.23,1.59,2.18,1.83,3.23s-.45,2.2-.14,3,1.62,1.19,3.35.84a8.26,8.26,0,0,0,4.63-2.6c.77-1.13.15-2.28,1.07-3.45s3.4-2.37,5.66-2.78,4.33,0,6.77-.54a16.17,16.17,0,0,0,6.47-2.9c1.17-1.05.68-1.79-.6-2.18s-3.33-.43-5.14-1a10.92,10.92,0,0,1-4.78-3,24,24,0,0,1-3.4-4.65c-.76-1.36-1.05-2.23-.55-2.68a4.17,4.17,0,0,1,2.82-.35,17.9,17.9,0,0,1,2.8.74,3.27,3.27,0,0,0,2.9-.16,4.81,4.81,0,0,0,1.87-3.4c.07-1.28-.68-2.35-.7-3.62a11.35,11.35,0,0,1,1.18-4c.49-1.24.78-2.23,0-2.35s-2.51.62-4,1.58" transform="translate(-66.86 -110.22)" fill="#8fd154"/>
    <path d="M418.64,329.53c-1.54-.58-3.4-.54-3.54,1.29s1.42,5.46-.27,8.13-6.62,4.41-10.74,3.09-7.41-5.68-10-8.21-4.6-3.23-5.43-.55-.49,8.72.37,12.9,2.27,6.48.72,7-6-.76-7.84.1-.95,3.87,1,7.08,5.06,6.63,6.32,9.84.68,6.21,2.61,8.42,6.38,3.6,7.6,2.12-.8-5.85-1.88-10.81-1.19-10.52.44-14.41a11.68,11.68,0,0,1,8.85-6.89c3.85-.78,8.17-.13,11.81-1a14.43,14.43,0,0,0,8.11-5.48c1.5-2.16,1.54-4.05.62-5.61s-2.82-2.8-4.39-4a18,18,0,0,0-4.34-3" transform="translate(-66.86 -110.22)" fill="#8fd154"/>
    <path d="M103.41,282.78c-1.42.79-3.35,1.63-3.39,3.11s1.81,3.61,3.88,5.28,4.39,2.92,5.17,4.19,0,2.6,0,4.28.62,3.75-1.24,4.45-6.21,0-8.68,1.48-3.05,5-3.91,7.61a10.58,10.58,0,0,1-3.83,5.69c-1.81,1.31-4.28,2.22-3.75,2.88s4.08,1.07,7.21,1.6,5.84,1.2,8.64.83,5.68-1.77,6-4.37-2-6.38-2.35-8.77,1.32-3.37,3.13-4.44,3.79-2.22,4.41-4.32-.13-5.15-1.15-7.54-2.35-4.11-2.52-6.38.83-5.06.29-6.46-2.59-1.4-4.08-1a14.73,14.73,0,0,0-3.8,1.91" transform="translate(-66.86 -110.22)" fill="#8fd154"/>
    <path d="M98.74,334.39c-2.76.2-6.88.57-9.7,1.79s-4.34,3.27-2,3.66,8.44-.88,12.09-1.11,4.79.59,6.64.94,4.41.23,5.27,1.4,0,3.65-1.21,4.88-3,1.24-5.44,1.71a24.85,24.85,0,0,0-7.65,2.62c-1.88,1.19-2.33,2.63-1.22,3.25s3.79.41,6.16.32,4.42,0,4.3.68-2.43,2.13-2.12,2.87,3.23.82,5.45,1.17,3.75,1,4.43,2.2.51,3.09,0,4.84-1.44,3.4-1,4,2.2.27,4.55-.66a31.63,31.63,0,0,0,6.83-3.62c1.57-1.21,1.77-2.16.17-4.16s-5-5-7.25-7.59-3.25-4.61-3.29-6.55.9-3.74,1.25-5.45a11.46,11.46,0,0,0-.18-4.71c-.29-1.4-.62-2.6-1.4-3.19s-2-.6-3.6-.44-3.52.5-5.19.68-3.07.23-5.82.44" transform="translate(-66.86 -110.22)" fill="#8fd154"/>
    <path d="M255.06,177.53c-.15,1.95.3,4.42-1,8.46s-4.28,9.63-5.6,13.34-1,5.51,1.59,3.56,7.22-7.68,10.39-11.63,4.82-6.14,5.88-6,1.57,2.67,3.26,3.31,4.57-.59,6.15-1.32,1.88-.92,2.91.11a19,19,0,0,1,3.86,6.05c1.07,2.76,1.44,6,2.93,8.19s4.07,3.3,6,2.24,3.14-4.25,3.32-7.42a10.62,10.62,0,0,0-3-8.47c-2.31-2.2-6-3.5-8.71-4.93s-4.27-3-6.25-3.24-4.32.83-6.38.93-3.83-.76-5.84-2a67.85,67.85,0,0,1-5.64-4c-1.36-1.07-1.81-1.56-2.41-1.09a5.88,5.88,0,0,0-1.48,3.87" transform="translate(-66.86 -110.22)" fill="#c2ed73"/>
    <path d="M322.87,216.24c-.28,3.09-2.3,6.88-2.71,9.78s.78,4.92,3.27,4.36,6.28-3.68,7.9-3.6,1.09,3.38,1.5,5.58,1.78,3.32,2.82,5.31a29.85,29.85,0,0,1,2.37,8c.58,3.08,1,6.38,1.38,10.53s.76,9.18,1.79,11.53,2.72,2,4.49.68a20.37,20.37,0,0,0,5.06-6.34c1.44-2.66,2.48-5.63,1.14-7.81s-5.05-3.58-7.48-6.56-3.58-7.55-4.4-11.23-1.32-6.49-2.49-8.65A14.51,14.51,0,0,0,332.9,223c-1.59-1.08-2.91-1.74-3.56-2.84s-.66-2.61-1.2-4.1a11.06,11.06,0,0,0-3-4.22c-1.4-1.28-3.12-2.37-3.26-1.73s1.3,3,1,6.12" transform="translate(-66.86 -110.22)" fill="#c2ed73"/>
    <path d="M230.2,129.05c1.56,1.64,4.23,4.21,5.06,6.26a3.29,3.29,0,0,1-1.28,4.21c-1.07.63-2.18.39-2.61,1s-.19,2.07-.68,2.86-1.73.92-3.39.83-3.74-.4-5,.37-1.6,2.62-3.3,4a12.43,12.43,0,0,1-7.36,2.28c-2.6,0-4.77-1.05-4.31-2.14s3.52-2.27,4.47-3.75-.19-3.27-1.88-4.79-3.91-2.74-3.33-3.15,4,0,7.73.05,8-.26,9.49-1.46.31-3.31-.53-4.88-1.34-2.63-.87-3.49a4.61,4.61,0,0,1,3-1.72,2.44,2.44,0,0,1,2.25.67c.55.52,1,1.21,2.53,2.85" transform="translate(-66.86 -110.22)" fill="#8fd154"/>
    <path d="M190.06,264.37c-1-.42-1.2,3.54-4,3.91s-8.23-2.84-9.75-1.36.86,7.66-1.44,11.15-9.31,4.33-11.74,7.45-.28,8.57,3.34,13.38,8.73,9,8.93,11.53-4.48,3.33-9.55,3.62-10.49,0-9.63,1.94,8,5.92,13.42,9.42,9,6.46,7.53,9.76-8.06,6.91-8.06,10.25,6.58,6.38,13.33,8.89,13.67,4.49,17.91,8.27,5.8,9.39,7.7,12.72,4.11,4.41,5.39,3.58,1.6-3.54,1.15-7-1.69-7.66-1.52-12.64,1.73-10.74-.13-17-7.12-12.89-9.88-19.76-3-13.95-4.11-20.33-3.09-12.07-3.91-16.59-.5-7.91-1.28-12-2.67-8.85-3.7-9.26" transform="translate(-66.86 -110.22)" fill="#d1f296"/>
    <path d="M214.66,247c3.21,7.74,7,19.89,6.12,29s-6.53,15.15-7.11,23.22,3.9,18.15,6.13,25.5,2.24,12,2.82,16.73,1.72,9.72,3,9.14,2.8-6.66,2.72-13.09-1.73-13.17-.74-18.52,4.61-9.3,8.64-14.57,8.48-11.86,10.54-11.69,1.73,7.08.19,12.66-4.3,9.83-4.63,13.29a8.27,8.27,0,0,0,3.72,7.46c2,1.33,3.77,1.33,3.85,3.47s-1.57,6.42-1.48,10.87,1.89,9.05,2.63,13.25a26.94,26.94,0,0,1-.33,11c-.74,3-1.89,5.36.58,5.19s8.56-2.8,13.42-7.16a31.55,31.55,0,0,0,9.79-17c1.32-6.59.33-13.67.91-16.88s2.72-2.55,5-2.55a8.47,8.47,0,0,0,7.08-3.54c2.31-2.88,4.45-8,6.51-12.35A68.83,68.83,0,0,1,299.84,300c1.73-2.39,3.21-3.55,4-6.18s1-6.75-.85-7.08-5.68,3.14-8.31,6.44-4.07,6.41-5.77,6.16-3.68-3.87-4-9.22a46.9,46.9,0,0,1,2.88-17.46c1.89-5,4.36-8,5.52-11.69s1-8.15-1.9-6.59-8.48,9.14-12.35,14.82-6,9.47-7.08,5.52-1.07-15.64-2.38-17.54-3.95,6-5.85,13.26-3,13.83-4.86,16.05-4.28.08-5.27-4.77-.49-12.43-.22-19.14.33-12.56-.5-17.58-2.52-9.22-4.77-8.77-5,5.56-6.77,8.44-2.39,3.54-4.45,1.81-5.51-5.84-6.91-4.44-.74,8.31-1.84,8.95-3.93-5-6.4-8.69-4.57-5.48-7.1-6.79-5.49-2.12-5.67-.87,2.42,4.58,5.64,12.32" transform="translate(-66.86 -110.22)" fill="#d1f296"/>
    <path d="M323.43,313.23c-1.77,3.25-5.15,8.6-9.39,11.69s-9.34,3.91-13,6.67-5.88,7.45-7.9,8-3.83-3-5.8-3.25S283.21,339,282.1,342s-1.19,6,0,6.63,3.79-1.32,5.19.08,1.64,6.09,1.6,10.66-.37,9-3,12.77-7.45,6.79-7.86,8.1,3.62.91,6.75-.16,5.35-2.8,9.42-5.56,10-6.54,12.64-7.41,2,1.2,3.17,1.73,4.24-.45,5.89-.62,1.89.5,3.32.24a18.93,18.93,0,0,0,6.64-3.36,32.27,32.27,0,0,0,7.36-7.88c2.19-3.28,4-7.17,2.65-7.81s-5.86,2-9.32,3.28-5.86,1.35-7.14.95-1.46-1.22-3.27,0-5.26,4.53-8.89,7-7.41,4.12-8,1.28,2-10.17,4.11-16,3.54-10.08,6-12.55,5.93-3.13,8.9-4.28a19.33,19.33,0,0,0,7.28-4.82,15.09,15.09,0,0,0,3.7-7.33,35.19,35.19,0,0,0,.42-9.26c-.21-2.88-.62-5.18-1.36-5.1S326.6,305.2,326,307a28.26,28.26,0,0,1-2.55,6.22" transform="translate(-66.86 -110.22)" fill="#d1f296"/>
  </g>
</svg>
