<svg id="_ÎÓÈ_3" data-name="—ÎÓÈ_3" xmlns="http://www.w3.org/2000/svg" viewBox="0 0 244.23 259.22">
  <title>10-onion</title>
  <g>
    <path d="M265.7,98.86c-4.63,20.38,0,29.13,16.9,39.19,50.52,24.82,86.46,63.64,89.27,103.14,4.24,59.41-47.88,96.69-98.52,107.39V354h-46.7v-5.4c-50.64-10.7-102.76-48-98.52-107.39,2.81-39.5,38.74-78.32,89.27-103.14,16.94-10.06,12-20,23.43-40.79,6.3-3.2,16.71-4,24.87,1.6Z" transform="translate(-127.89 -94.76)" fill="#a2023e" fill-rule="evenodd"/>
    <path d="M260.5,336c51.33-21.89,22.32-188.24-7.2-192.72-12.59-1.35-32.2,4-53.39,16.9C151.69,188.94,134,224.06,140.4,265.5c9.41,40.26,67.24,73.76,120.1,70.47Z" transform="translate(-127.89 -94.76)" fill="#bb4772" fill-rule="evenodd"/>
    <path d="M231.9,133c-103,68.55-112.38,160.59-3.23,212.5C113.5,302.58,126.52,191.43,231.9,133Z" transform="translate(-127.89 -94.76)" fill="#ce7998" fill-rule="evenodd"/>
    <path d="M237.29,134.18q-125.44,124.2-2.88,208.9-129.76-82.93,2.88-208.9Z" transform="translate(-127.89 -94.76)" fill="#ce7998" fill-rule="evenodd"/>
    <path d="M243,134.18Q160.39,252.7,241.6,342.36c-59-58.74-58.83-128.3,1.44-208.18Z" transform="translate(-127.89 -94.76)" fill="#ce7998" fill-rule="evenodd"/>
    <path d="M246,137.51c-16.33,75-16.81,141.34,0,199.56-23.18-53.76-22.52-119.69,0-199.56Z" transform="translate(-127.89 -94.76)" fill="#ce7998" fill-rule="evenodd"/>
    <path d="M268.1,133c103,68.55,112.38,160.59,3.23,212.5C386.5,302.58,373.48,191.43,268.1,133Z" transform="translate(-127.89 -94.76)" fill="#bb4772" fill-rule="evenodd"/>
    <path d="M262.71,134.18q125.46,124.2,2.88,208.9,129.77-82.93-2.88-208.9Z" transform="translate(-127.89 -94.76)" fill="#bb4772" fill-rule="evenodd"/>
    <path d="M257,134.18q82.65,118.51,1.44,208.18c59-58.74,58.83-128.3-1.44-208.18Z" transform="translate(-127.89 -94.76)" fill="#bb4772" fill-rule="evenodd"/>
    <path d="M254,137.51c16.33,75,16.81,141.34,0,199.56,23.18-53.76,22.52-119.69,0-199.56Z" transform="translate(-127.89 -94.76)" fill="#ce7998" fill-rule="evenodd"/>
    <path d="M184.73,200.53c-7.5,18.54-25,12.95-20.85,1.52q11-23.52,36.28-37,9.24-4.58,5.25,2.89-15.76,22-20.68,32.55Z" transform="translate(-127.89 -94.76)" fill="#fff" fill-rule="evenodd"/>
  </g>
</svg>
