<svg xmlns="http://www.w3.org/2000/svg" viewBox="0 0 228.07 135.36">
  <title>11-cauliflower</title>
  <g style="isolation: isolate">
    <g id="Layer_2" data-name="Layer 2">
      <g>
        <path d="M189.41,363.63A61.66,61.66,0,0,0,183.5,382l-.06.39c-.37.23-.37,1.23-.18,1.63,0,.14,0,.27,0,.41a32.34,32.34,0,0,0,.85,11.19c4,14.67,9.7,38.83,27.52,44.75s39.15,21.25,39.15,21.25-18-.67-30.67-4c-2.28-.6-4.65-1.16-7.06-1.76l-.55-.14a8.05,8.05,0,0,1-8.43-2.41,3.25,3.25,0,0,0-.53-.21,53.18,53.18,0,0,1-5.49-2.3l-.33-.11c-1.61.93-3.61-.07-4.32-2.56l-.26-.18a34.47,34.47,0,0,1-4.34-3.5l-.24-.22c-1.45-1.61-3.45.39-4.45-.61s1-3,.65-3.66a1.11,1.11,0,0,0-.17-.3c-.56-.76-1.09-1.55-1.61-2.39-.08-.1-.15-.21-.23-.32-1.64-.33-3.64-2.33-2.81-4.57-.08-.17-.18-.34-.28-.51l-.82-1.37-.28-.47c-.45-2.41-5.45-1.41-2.48-4.73-.07-.17-.14-.33-.22-.49-.37-.83-.72-1.66-1-2.52l-.2-.56c-1.51-1.11-3.51-2.11-1.39-5,0-.1,0-.21-.05-.31a36.42,36.42,0,0,1-.6-7.44c0-.12,0-.24,0-.37-.48-2-3.48-4,.46-5l.06-.51a28,28,0,0,1,.85-4.46,3,3,0,0,0,.08-.32c.25-1,.52-2.06.83-3.13,0-.16.09-.33.14-.51-.9-2,1.1-4,1.95-5.78.07-.16.13-.33.2-.5.52-1.37,1.09-2.79,1.72-4.25.07-.17.14-.34.21-.53,1-3,1-6,3.89-8.26a4.68,4.68,0,0,0,.3-.54C185,371.31,187.07,367.6,189.41,363.63Z" transform="translate(-171.01 -341.43)" fill="#abd037"/>
        <path d="M215.41,424.3s-16-4-20.67-9.34c-4.37-5-10.51-24.64-6.31-46.86.09-.49.19-1,.29-1.5.09-1,.28-2.05.49-3.14.1-.54.21-1.1.28-1.65.58-3.18-1.42-7.18-5.42-6.18,3,1,5,3,3.78,6.36-.16.5-.33,1-.49,1.47a14,14,0,0,0-.69,2.81c-.18.5-.37,1-.56,1.52-3.13,8.62-6.7,19.17-6.7,19.17l.68,16.15a45.62,45.62,0,0,0,10.28,26.95h0a45.62,45.62,0,0,0,20.92,14.41l33.28,11Z" transform="translate(-171.01 -341.43)" fill="#94b958"/>
        <path d="M369.69,404.65c-7-18.78-19.76-36-40.4-39.09-1.81-6.25-5.56-13.13-12.37-12.75-2.86-4.32-14.58-5.39-18-6.22-3.67-.89-8.1-2.06-11.46.35a7.44,7.44,0,0,0-2,2.19c-3.75-3.57-8.1-6.91-13.25-7.37a18.18,18.18,0,0,0-3.54.12c-2.69.25-4.76-.21-7.34-.42s-4.54.88-6.84,2.11c-2.89,1.55-6.21,2.15-9,3.84s-5,4.34-7,6.87C235,358.74,232,364,233,369.65c-8.1,2.49-16.14,6-21,13.28-4.73,7.16-4.93,15.7-4.51,24a4.5,4.5,0,0,0,.29,3.74,1,1,0,0,0,.13.23c4.36,7.9,12.81,10.85,21.21,12.48,4.06.78,11,1,13.82,4.48,1.23,1.55,1.54,4.3,2.58,6.08a19.8,19.8,0,0,0,4,4.81c6.41,5.59,15.39,7.36,23.52,8.77,9.67,1.68,19.92,3,29.73,2,7.79-.74,15.47-3.08,20.71-9.21,2.46-2.88,3.46-3.08,7-1.41a33.27,33.27,0,0,0,5.84,2.3,31.44,31.44,0,0,0,12.21.75C366.39,439.45,375.75,420.9,369.69,404.65Z" transform="translate(-171.01 -341.43)" fill="#e2d598"/>
        <path d="M369.69,404.65c-7-18.78-19.76-36-40.4-39.09-1.81-6.25-5.56-13.13-12.37-12.75-2.86-4.32-14.58-5.39-18-6.22-3.67-.89-8.1-2.06-11.46.35a7.44,7.44,0,0,0-2,2.19c-3.75-3.57-8.1-6.91-13.25-7.37a18.18,18.18,0,0,0-3.54.12c-2.69.25-4.76-.21-7.34-.42s-4.54.88-6.84,2.11c-2.89,1.55-6.21,2.15-9,3.84s-5,4.34-7,6.87C235,358.74,232,364,233,369.65c-8.1,2.49-16.14,6-21,13.28-4.73,7.16-4.93,15.7-4.51,24a4.5,4.5,0,0,0,.29,3.74,1,1,0,0,0,.13.23c4.36,7.9,12.81,10.85,21.21,12.48,4.06.78,11,1,13.82,4.48,1.23,1.55,1.54,4.3,2.58,6.08a19.8,19.8,0,0,0,4,4.81c6.41,5.59,15.39,7.36,23.52,8.77,9.67,1.68,19.92,3,29.73,2,7.79-.74,15.47-3.08,20.71-9.21,2.46-2.88,3.46-3.08,7-1.41a33.27,33.27,0,0,0,5.84,2.3,31.44,31.44,0,0,0,12.21.75C366.39,439.45,375.75,420.9,369.69,404.65Z" transform="translate(-171.01 -341.43)" fill="#dce8a5"/>
        <path d="M300.8,360.16c-2.05-2.54-5.75-2.66-9.05-2.73a8,8,0,0,0-3.23-5.95,8.72,8.72,0,0,0-4.79-1.55c-2.89-.15-3.65.59-6.65-1.31-.67-.42-1.19-1.11-1.87-1.56a6.39,6.39,0,0,0-4-1.08c-1.49,0-1.4.56-2.8-.17-.56-.29-1-1.16-1.55-1.51-2.94-1.77-5.84-.24-8.09,1.77-2.05-1.09-4.54-.26-6.72.91a17.81,17.81,0,0,1-4.83,1.8c-1.31.32-1.75.06-3,.68a5.39,5.39,0,0,0-2.65,2.79c-.8,1.75-.22,3.88-1,5.56-.92,2.08-3.58,2.49-4.5,4.66-1.88,4.46,2.5,7.5,4.65,10.65a1.87,1.87,0,0,0,1.46.86c1.47,2.94,5,5.14,7,7.69,3,3.82,5.4,5.58,10.15,6.41,4.36.77,8.06,3.46,12.71,3.89a23,23,0,0,0,13.05-2.81c4.21-2.31,6.39-6.78,10.33-9.25,3.41-2.13,7.31-.5,8.38-5.33C304.75,370.54,303.41,363.38,300.8,360.16Z" transform="translate(-171.01 -341.43)" fill="#f6f7d5"/>
        <g>
          <path d="M295.84,383.77c-4.26-6.73-11.54-6.29-17.92-3.71-2.27-3.92-6.76-6.63-11.13-7.7a10.52,10.52,0,0,0-4-.21c-2.87-4.59-7.44-7.81-13.37-7.1-6.65.79-11.06,5.54-14,11.06-9.09-2.95-18.95,4.69-18,14.14-5.46,1-10.8,3.37-13.22,8.64a13.64,13.64,0,0,0-.57,10.05,9.05,9.05,0,0,0-3.79,7.31,9.39,9.39,0,0,0,4.18,7.83,2.65,2.65,0,0,0,2.21,3.43,13,13,0,0,0,1.64,0,10.3,10.3,0,0,0,2.16,3.69,11.18,11.18,0,0,0,5.64,3.2c2.36.55,4.59-.73,6.72-.37s3.6,3.53,5.55,4.61a10.34,10.34,0,0,0,6.36,1.2,9.44,9.44,0,0,0,6.43-4c5.58,4.52,15.74,1.4,19.78-5.13a14.75,14.75,0,0,0,16.61-10c10.51-1.24,16.19-10.8,14.25-20.69C297,396.93,299.67,389.83,295.84,383.77Z" transform="translate(-171.01 -341.43)" fill="#fbfade"/>
          <path d="M295.84,383.77c-4.26-6.73-11.54-6.29-17.92-3.71-2.27-3.92-6.76-6.63-11.13-7.7a10.52,10.52,0,0,0-4-.21c-2.87-4.59-7.44-7.81-13.37-7.1-6.65.79-11.06,5.54-14,11.06-9.09-2.95-18.95,4.69-18,14.14-5.46,1-10.8,3.37-13.22,8.64a13.64,13.64,0,0,0-.57,10.05,9.05,9.05,0,0,0-3.79,7.31,9.39,9.39,0,0,0,4.18,7.83,2.65,2.65,0,0,0,2.21,3.43,13,13,0,0,0,1.64,0,10.3,10.3,0,0,0,2.16,3.69,11.18,11.18,0,0,0,5.64,3.2c2.36.55,4.59-.73,6.72-.37s3.6,3.53,5.55,4.61a10.34,10.34,0,0,0,6.36,1.2,9.44,9.44,0,0,0,6.43-4c5.58,4.52,15.74,1.4,19.78-5.13a14.75,14.75,0,0,0,16.61-10c10.51-1.24,16.19-10.8,14.25-20.69C297,396.93,299.67,389.83,295.84,383.77Z" transform="translate(-171.01 -341.43)" fill="#fbfade"/>
          <path d="M243.12,427.53a1.58,1.58,0,0,0-2.51-1q-4.22,2.63-5.85-1.79a1.58,1.58,0,0,0-2.41-.65c-2.12,1.09-3.48.4-4-2.1a1.58,1.58,0,0,0-2.79-1.17c-3.49,4.19-9.28,1.62-9.24-3.43,0-2.17,1-4.11.84-6.32-.28-4.36-3.41-9-1.09-13.18a1.46,1.46,0,0,0-.19-1.45,16.44,16.44,0,0,1-2.11-5.23c-4.06,1.31-7.66,3.67-9.53,7.73a13.64,13.64,0,0,0-.57,10.05,9.05,9.05,0,0,0-3.79,7.31,9.39,9.39,0,0,0,4.18,7.83,2.65,2.65,0,0,0,2.21,3.43,13,13,0,0,0,1.64,0,10.3,10.3,0,0,0,2.16,3.69,11.18,11.18,0,0,0,5.64,3.2c2.36.55,4.59-.73,6.72-.37s3.6,3.53,5.55,4.61a10.34,10.34,0,0,0,6.36,1.2,9.44,9.44,0,0,0,6.43-4A10.48,10.48,0,0,0,248,438C245.19,435.4,243.93,431.26,243.12,427.53Z" transform="translate(-171.01 -341.43)" fill="#e9f0c4"/>
          <path d="M273.4,389.59c-3.43.52-2.86.3-4.71-2.42a11.18,11.18,0,0,0-4.34-4.1,6.21,6.21,0,0,0-8.25,2.69c-.51.88.32,1.76,1.17,1.88a.73.73,0,0,0,.56,0,1.07,1.07,0,0,0,.5-.35c1.6-.72,3.95,3.28,2.59,4.54-.92.86-.77,2.83.77,2.91q3.45-.29,2.52,3.05c1,2.69-.1,3.62-3.28,2.78-1.43-.55-3.29.93-2.51,2.49,1.91,3.81-.26,7.7-2.94,10.55a10.15,10.15,0,0,1-4.25,3.11c-2.06.58-6.2-.35-4.91-3.53.93-2.31-1.31-4-3.4-3.44a29,29,0,0,1-4.21,1.09,2.87,2.87,0,0,1-2.71-.24c-2.06.13-2.72-.89-2-3.06a2.33,2.33,0,0,0,1.12-4.1c-2.47-1.62-3.12-3.75-2-6.38a1.87,1.87,0,0,0,1.66.22l.33-.12a2,2,0,0,0,1.2-2l-.08-.52A2.2,2.2,0,0,0,235,392.8c-2.67-1-5.35.86-6.42,3.37-1.28,3-.24,5.86,1.52,8.27-2.17,2.11-2,6,.05,8.78a8.17,8.17,0,0,0,2.86,2.55,19.21,19.21,0,0,1,1.43,5.56,1.72,1.72,0,0,0,1.88,1.48,13.13,13.13,0,0,1,5.62.37,3.44,3.44,0,0,0,1.68,1.69c1.38.74,3.45,0,4.64.73a2,2,0,0,0,2.45-.09A18.34,18.34,0,0,0,262,423.28a12.05,12.05,0,0,0,4.62-4.11c.67-1.08.67-3.69,1.25-4.38s2.89-1,3.85-1.94a9.78,9.78,0,0,0,2.51-5.37,21.33,21.33,0,0,1,3.36-8.84,7.66,7.66,0,0,0,1.6-4.65C279,390.64,276.51,389.11,273.4,389.59Z" transform="translate(-171.01 -341.43)" fill="#fff"/>
          <path d="M296,383.87a9.8,9.8,0,0,0-.85-1.15l-.38-.49c-.39-1.86-2.62-2-4.3-3.5,1.49,1,1.31,1.89.86,2.69-.09.17-.19.33-.29.5-.53,2.19.22,4-1.08,5.62,0,.16,0,.34.07.52a5.18,5.18,0,0,1,0,2.74c-.92.38-2.6-1.1-3.05.49l-.42.38c-.14.13-.29.25-.44.37a12.26,12.26,0,0,1-1.78,1.19,20.22,20.22,0,0,1,.92,4c0,.11,0,.21,0,.32-.78.88,3.51,3.45-.28,5a3.17,3.17,0,0,0-.2.51,12.36,12.36,0,0,1-1.92,3.84c-.11.15-.21.29-.32.47-.77,3-3.92,3.19-5.85,4.46l-.32.15-.33.15c-1.13-.05-1.13-.05-1.83.62l-.51.09a20.57,20.57,0,0,0-3.41,1.12,10.33,10.33,0,0,1-3.56,7.36l-.43.35a5.86,5.86,0,0,1-6.3,2.45l-.58.08a20.22,20.22,0,0,1-5.49-.19l-.49-.09c-2.39,1.13-2.73,5.59-6.31,5.58l-.54.24c-4.39,2-9.51,2.07-12.92-.69a9.52,9.52,0,0,1-6.44,4,10.4,10.4,0,0,1-6.35-1.2c-2-1.08-3.38-4.25-5.56-4.61s-4.35.92-6.72.37A11.57,11.57,0,0,1,204,425.4a2.45,2.45,0,0,0,2.24,2.11,13,13,0,0,0,1.64,0,10.3,10.3,0,0,0,2.16,3.69,11.18,11.18,0,0,0,5.64,3.2c2.36.55,4.59-.73,6.72-.37s3.6,3.53,5.55,4.61a10.34,10.34,0,0,0,6.36,1.2,9.44,9.44,0,0,0,6.43-4c5.58,4.52,15.74,1.4,19.78-5.13a14.26,14.26,0,0,0,4.27.13,14.52,14.52,0,0,0,2.07-.39c4.06-1.66,9.06-2.63,9.47-7.73.62-.29,1.25-.59,1.88-.91,6-3.08,11.77-7.57,13.3-14.09l.12-.59a13.33,13.33,0,0,0,.08-5.37c0-.11,0-.23-.05-.34-.07-.46-.17-.92-.28-1.4A12.25,12.25,0,0,0,293,399a11.54,11.54,0,0,0,4.47-11.32c0-.19-.08-.37-.13-.56a7.45,7.45,0,0,1-1.16-3A2.9,2.9,0,0,0,296,383.87Z" transform="translate(-171.01 -341.43)" fill="#bad181" opacity="0.63" style="mix-blend-mode: multiply"/>
        </g>
        <g>
          <path d="M295.84,383.77c-4.26-6.73-11.54-6.29-17.92-3.71-2.27-3.92-6.76-6.63-11.13-7.7a10.52,10.52,0,0,0-4-.21c-2.87-4.59-7.44-7.81-13.37-7.1-6.65.79-11.06,5.54-14,11.06-9.09-2.95-18.95,4.69-18,14.14-5.46,1-10.8,3.37-13.22,8.64a13.64,13.64,0,0,0-.57,10.05,9.05,9.05,0,0,0-3.79,7.31,9.39,9.39,0,0,0,4.18,7.83,2.65,2.65,0,0,0,2.21,3.43,13,13,0,0,0,1.64,0,10.3,10.3,0,0,0,2.16,3.69,11.18,11.18,0,0,0,5.64,3.2c2.36.55,4.59-.73,6.72-.37s3.6,3.53,5.55,4.61a10.34,10.34,0,0,0,6.36,1.2,9.44,9.44,0,0,0,6.43-4c5.58,4.52,15.74,1.4,19.78-5.13a14.75,14.75,0,0,0,16.61-10c10.51-1.24,16.19-10.8,14.25-20.69C297,396.93,299.67,389.83,295.84,383.77Z" transform="translate(-171.01 -341.43)" fill="#fbfade"/>
          <path d="M295.84,383.77c-4.26-6.73-11.54-6.29-17.92-3.71-2.27-3.92-6.76-6.63-11.13-7.7a10.52,10.52,0,0,0-4-.21c-2.87-4.59-7.44-7.81-13.37-7.1-6.65.79-11.06,5.54-14,11.06-9.09-2.95-18.95,4.69-18,14.14-5.46,1-10.8,3.37-13.22,8.64a13.64,13.64,0,0,0-.57,10.05,9.05,9.05,0,0,0-3.79,7.31,9.39,9.39,0,0,0,4.18,7.83,2.65,2.65,0,0,0,2.21,3.43,13,13,0,0,0,1.64,0,10.3,10.3,0,0,0,2.16,3.69,11.18,11.18,0,0,0,5.64,3.2c2.36.55,4.59-.73,6.72-.37s3.6,3.53,5.55,4.61a10.34,10.34,0,0,0,6.36,1.2,9.44,9.44,0,0,0,6.43-4c5.58,4.52,15.74,1.4,19.78-5.13a14.75,14.75,0,0,0,16.61-10c10.51-1.24,16.19-10.8,14.25-20.69C297,396.93,299.67,389.83,295.84,383.77Z" transform="translate(-171.01 -341.43)" fill="#fbfade"/>
          <path d="M243.12,427.53a1.58,1.58,0,0,0-2.51-1q-4.22,2.63-5.85-1.79a1.58,1.58,0,0,0-2.41-.65c-2.12,1.09-3.48.4-4-2.1a1.58,1.58,0,0,0-2.79-1.17c-3.49,4.19-9.28,1.62-9.24-3.43,0-2.17,1-4.11.84-6.32-.28-4.36-3.41-9-1.09-13.18a1.46,1.46,0,0,0-.19-1.45,16.44,16.44,0,0,1-2.11-5.23c-4.06,1.31-7.66,3.67-9.53,7.73a13.64,13.64,0,0,0-.57,10.05c-2.23,1.64-4.65,4.21-4.69,7.35,0,3.3,2.58,6.07,5.08,7.79a2.65,2.65,0,0,0,2.21,3.43,13,13,0,0,0,1.64,0,10.3,10.3,0,0,0,2.16,3.69,11.18,11.18,0,0,0,5.64,3.2c2.36.55,4.59-.73,6.72-.37s3.6,3.53,5.55,4.61a10.34,10.34,0,0,0,6.36,1.2,9.44,9.44,0,0,0,6.43-4A10.48,10.48,0,0,0,248,438C245.19,435.4,243.93,431.26,243.12,427.53Z" transform="translate(-171.01 -341.43)" fill="#e9f0c4"/>
          <path d="M273.4,389.59c-3.43.52-2.86.3-4.71-2.42a11.18,11.18,0,0,0-4.34-4.1,6.21,6.21,0,0,0-8.25,2.69c-.51.88.32,1.76,1.17,1.88a.73.73,0,0,0,.56,0,1.07,1.07,0,0,0,.5-.35c1.6-.72,3.95,3.28,2.59,4.54-.92.86-.77,2.83.77,2.91q3.45-.29,2.52,3.05c1,2.69-.1,3.62-3.28,2.78-1.43-.55-3.29.93-2.51,2.49,1.91,3.81-.26,7.7-2.94,10.55a10.15,10.15,0,0,1-4.25,3.11c-2.06.58-6.2-.35-4.91-3.53.93-2.31-1.31-4-3.4-3.44a29,29,0,0,1-4.21,1.09,2.87,2.87,0,0,1-2.71-.24c-2.06.13-2.72-.89-2-3.06a2.33,2.33,0,0,0,1.12-4.1c-2.47-1.62-3.12-3.75-2-6.38a1.87,1.87,0,0,0,1.66.22l.33-.12a2,2,0,0,0,1.2-2l-.08-.52A2.2,2.2,0,0,0,235,392.8c-2.67-1-5.35.86-6.42,3.37-1.28,3-.24,5.86,1.52,8.27-2.17,2.11-2,6,.05,8.78a8.17,8.17,0,0,0,2.86,2.55,19.21,19.21,0,0,1,1.43,5.56,1.72,1.72,0,0,0,1.88,1.48,13.13,13.13,0,0,1,5.62.37,3.44,3.44,0,0,0,1.68,1.69c1.38.74,3.45,0,4.64.73a2,2,0,0,0,2.45-.09A18.34,18.34,0,0,0,262,423.28a12.05,12.05,0,0,0,4.62-4.11c.67-1.08.67-3.69,1.25-4.38s2.89-1,3.85-1.94a9.78,9.78,0,0,0,2.51-5.37,21.33,21.33,0,0,1,3.36-8.84,7.66,7.66,0,0,0,1.6-4.65C279,390.64,276.51,389.11,273.4,389.59Z" transform="translate(-171.01 -341.43)" fill="#fff"/>
          <path d="M296,383.87a9.8,9.8,0,0,0-.85-1.15l-.38-.49c-.39-1.86-2.62-2-4.3-3.5,1.49,1,1.31,1.89.86,2.69-.09.17-.19.33-.29.5-.53,2.19.22,4-1.08,5.62,0,.16,0,.34.07.52a5.18,5.18,0,0,1,0,2.74c-.92.38-2.6-1.1-3.05.49l-.42.38c-.14.13-.29.25-.44.37a12.26,12.26,0,0,1-1.78,1.19,20.22,20.22,0,0,1,.92,4c0,.11,0,.21,0,.32-.78.88,3.51,3.45-.28,5a3.17,3.17,0,0,0-.2.51,12.36,12.36,0,0,1-1.92,3.84c-.11.15-.21.29-.32.47-.77,3-3.92,3.19-5.85,4.46l-.32.15-.33.15c-1.13-.05-1.13-.05-1.83.62l-.51.09a20.57,20.57,0,0,0-3.41,1.12,10.33,10.33,0,0,1-3.56,7.36l-.43.35a5.86,5.86,0,0,1-6.3,2.45l-.58.08a20.22,20.22,0,0,1-5.49-.19l-.49-.09c-2.39,1.13-2.73,5.59-6.31,5.58l-.54.24c-4.39,2-9.51,2.07-12.92-.69a9.52,9.52,0,0,1-6.44,4,10.4,10.4,0,0,1-6.35-1.2c-2-1.08-3.38-4.25-5.56-4.61s-4.35.92-6.72.37A11.57,11.57,0,0,1,204,425.4a2.45,2.45,0,0,0,2.24,2.11,13,13,0,0,0,1.64,0,10.3,10.3,0,0,0,2.16,3.69,11.18,11.18,0,0,0,5.64,3.2c2.36.55,4.59-.73,6.72-.37s3.6,3.53,5.55,4.61a10.34,10.34,0,0,0,6.36,1.2,9.44,9.44,0,0,0,6.43-4c5.58,4.52,15.74,1.4,19.78-5.13a14.26,14.26,0,0,0,4.27.13,14.52,14.52,0,0,0,2.07-.39c4.06-1.66,9.06-2.63,9.47-7.73.62-.29,1.25-.59,1.88-.91,6-3.08,11.77-7.57,13.3-14.09l.12-.59a13.33,13.33,0,0,0,.08-5.37c0-.11,0-.23-.05-.34-.07-.46-.17-.92-.28-1.4A12.25,12.25,0,0,0,293,399a11.54,11.54,0,0,0,4.47-11.32c0-.19-.08-.37-.13-.56a7.45,7.45,0,0,1-1.16-3A2.9,2.9,0,0,0,296,383.87Z" transform="translate(-171.01 -341.43)" fill="#bad181" opacity="0.63" style="mix-blend-mode: multiply"/>
        </g>
        <g>
          <path d="M369.19,433c1.69-7.75-2.88-12-8.25-14.06a18.5,18.5,0,0,0-1.76-12.8,8.42,8.42,0,0,0-2.22-2.66c1.18-5.25.49-10.55-3.45-13.74-4.42-3.59-10-2.78-15.19-.49-3.51-7.94-14.1-8.37-19.45-.66-3.82-2.7-8.47-4.25-13.19-1.8a14.86,14.86,0,0,0-6.61,7.21,8.11,8.11,0,0,0-6.8,3.12,11,11,0,0,0-2.43,8.53c-1.15.91-1.8,2.71-.83,4a8.23,8.23,0,0,0,.95,1.05,12.18,12.18,0,0,0-1,4.14,11.07,11.07,0,0,0,1.32,6c1.06,1.91,3.17,2.34,4.2,3.95s-.08,4.92.4,7a8.64,8.64,0,0,0,3,4.9,6.88,6.88,0,0,0,6.29,1c.47,6.91,8.41,10.95,14.87,8.56,3.42,5.49,10.39,6.81,16,2.9,7,5.68,16.3,2.05,21.33-6.62C361.66,443.67,367.66,440,369.19,433Z" transform="translate(-171.01 -341.43)" fill="#fbfade"/>
          <path d="M369.19,433c1.69-7.75-2.88-12-8.25-14.06a18.5,18.5,0,0,0-1.76-12.8,8.42,8.42,0,0,0-2.22-2.66c1.18-5.25.49-10.55-3.45-13.74-4.42-3.59-10-2.78-15.19-.49-3.51-7.94-14.1-8.37-19.45-.66-3.82-2.7-8.47-4.25-13.19-1.8a14.86,14.86,0,0,0-6.61,7.21,8.11,8.11,0,0,0-6.8,3.12,11,11,0,0,0-2.43,8.53c-1.15.91-1.8,2.71-.83,4a8.23,8.23,0,0,0,.95,1.05,12.18,12.18,0,0,0-1,4.14,11.07,11.07,0,0,0,1.32,6c1.06,1.91,3.17,2.34,4.2,3.95s-.08,4.92.4,7a8.64,8.64,0,0,0,3,4.9,6.88,6.88,0,0,0,6.29,1c.47,6.91,8.41,10.95,14.87,8.56,3.42,5.49,10.39,6.81,16,2.9,7,5.68,16.3,2.05,21.33-6.62C361.66,443.67,367.66,440,369.19,433Z" transform="translate(-171.01 -341.43)" fill="#fbfade"/>
          <path d="M310.76,432.85c.54-1,.29-2.39-.82-2.36-2.75-.46-3.53-2.13-2.33-5a1.4,1.4,0,0,0-1-2q-2.91-.76-1.08-4.13c1-1.11.49-2.92-.91-2.63-4.68,1-6.49-4.62-3.31-8.4,1.36-1.61,3.14-2.47,4.44-4.23,2.56-3.46,3.61-8.91,7.59-10.61a1.64,1.64,0,0,0,.79-1.21,19.47,19.47,0,0,1,2-5.26,11.18,11.18,0,0,0-10.45-.17,14.86,14.86,0,0,0-6.61,7.21,8.11,8.11,0,0,0-6.8,3.12,11,11,0,0,0-2.43,8.53c-1.15.91-1.8,2.71-.83,4a8.23,8.23,0,0,0,.95,1.05,12.18,12.18,0,0,0-1,4.14,11.07,11.07,0,0,0,1.32,6c1.06,1.91,3.17,2.34,4.2,3.95s-.08,4.92.4,7a8.64,8.64,0,0,0,3,4.9,6.88,6.88,0,0,0,6.29,1,9.24,9.24,0,0,0,3,6.15C307.07,440.09,308.92,436.17,310.76,432.85Z" transform="translate(-171.01 -341.43)" fill="#e9f0c4"/>
          <path d="M352.32,423.3c-2.35-1.75-1.88-1.56-1.27-4.78a12.14,12.14,0,0,0,0-5.81c-1-3.15-3.68-4.34-6.55-3.16a1.49,1.49,0,0,0-.48,2.16.58.58,0,0,0,.35.32.86.86,0,0,0,.51.06c1.4.46.29,4.94-1.31,5-1.07.07-2.22,1.65-1.36,2.67,1.48,1.31,1.34,2.6-.41,3.89q-1.65,4-3.67,0a1.6,1.6,0,0,0-3,.29c-1.26,4.08-5,5.64-8.32,6.1-1.45.2-3.16.38-4.45-.32-1.58-.87-3.45-4.16-.69-5.75a2.76,2.76,0,0,0,.14-4.73,19.45,19.45,0,0,1-3.17-1.82,2.33,2.33,0,0,1-1.45-1.88q-1.95-1.8.76-3.54c1.44,1.07,3.22-.46,3.22-2.38a5.32,5.32,0,0,1,2.82-6.05,1.52,1.52,0,0,0,.85,1.21l.26.12a1.73,1.73,0,0,0,2-.78c.1-.15.19-.3.28-.45a2.49,2.49,0,0,0,.32-2.17c-.93-2.47-3.7-2.71-5.89-1.5-2.62,1.45-3.81,4.26-4.27,7.19-2.59.22-4.92,3.22-5.45,6.64a8.88,8.88,0,0,0,.09,3.72,23.09,23.09,0,0,1-2.63,5.08,1.78,1.78,0,0,0,.19,2.3,10.39,10.39,0,0,1,3.08,3.81,3.91,3.91,0,0,0-.07,2.33c.36,1.43,2,2.17,2.28,3.47.2,1,.83,1.47,1.5,1.47a13.33,13.33,0,0,0,8.06,5.41,9,9,0,0,0,5.29-.19c1.07-.4,2.7-2.36,3.48-2.51s2.33,1,3.48.95a8.86,8.86,0,0,0,4.83-2.47,20.39,20.39,0,0,1,7.51-4.54,7.31,7.31,0,0,0,3.84-2.5C355,427.6,354.45,424.9,352.32,423.3Z" transform="translate(-171.01 -341.43)" fill="#fff"/>
          <path d="M369.2,433.17c.15-.85.15-.85.21-1.4,0-.21,0-.41.08-.6.93-1.65-.28-3.18-.35-5.35.25,1.7-.41,2.25-1.17,2.57l-.49.19c-1.68,1.32-2.39,3.19-4.14,3.56-.09.13-.19.28-.28.44a5.93,5.93,0,0,1-1.74,2c-.78-.3-.85-2.47-2.11-1.56l-.48,0c-.17,0-.33,0-.49,0a9,9,0,0,1-1.79-.22,25.18,25.18,0,0,1-2,3.6l-.18.26c-1,.18-.09,4.81-3.27,3.58a2.47,2.47,0,0,0-.44.27,11.42,11.42,0,0,1-3.53,1.68,3.72,3.72,0,0,0-.48.15c-2.32,1.77-4.31-.06-6.24-.32l-.28-.09c-.1,0-.19-.06-.29-.09-.63-.75-.63-.75-1.47-.69-.11-.08-.23-.17-.35-.24a13.41,13.41,0,0,0-2.72-1.3,9.31,9.31,0,0,1-6.69,3.3h-.47a4.27,4.27,0,0,1-5.25-2.1l-.39-.32a15.88,15.88,0,0,1-3.12-3.58c-.08-.13-.16-.25-.23-.38-2.12-.65-5.11,2.5-7.21.24l-.47-.16c-3.83-1.27-6.91-4.42-7.19-8.64a6.91,6.91,0,0,1-6.3-1,8.71,8.71,0,0,1-3-4.9c-.48-2,.65-5.33-.4-7s-3.14-2-4.2-3.94a11.11,11.11,0,0,1-1.31-4.54,2.65,2.65,0,0,0,0,3,8.23,8.23,0,0,0,.95,1.05,12.18,12.18,0,0,0-1,4.14,11.07,11.07,0,0,0,1.32,6c1.06,1.91,3.17,2.34,4.2,3.95s-.08,4.92.4,7a8.64,8.64,0,0,0,3,4.9,6.88,6.88,0,0,0,6.29,1c.47,6.91,8.41,10.95,14.87,8.56a10.92,10.92,0,0,0,3.9,3.79c3.44,1.3,7,3.72,10.42.13.54.18,1.11.34,1.68.5,5.48,1.47,11.67,1.69,16.64-2.26l.44-.36a14.93,14.93,0,0,0,3.4-4l.18-.29c.25-.39.48-.8.71-1.23a9.62,9.62,0,0,0,1.6.22,10.87,10.87,0,0,0,9.7-5.72c.1-.17.19-.34.28-.51a8.71,8.71,0,0,1,1.16-2.95C369.15,433.4,369.17,433.28,369.2,433.17Z" transform="translate(-171.01 -341.43)" fill="#bad181" opacity="0.63" style="mix-blend-mode: multiply"/>
        </g>
        <path d="M332.62,444.78h0a9.82,9.82,0,0,1-1-1.12l-.16-.21a6,6,0,0,1-.36-.52l-.24-.39c-.09-.16-.18-.31-.26-.47s-.27-.58-.39-.89c0-.11-.07-.22-.11-.34s-.15-.5-.21-.75-.05-.23-.08-.34a10.07,10.07,0,0,1-.15-1.12,6.88,6.88,0,0,1-6.29-1,8.64,8.64,0,0,1-3-4.9c-.48-2,.65-5.32-.4-7s-3.14-2-4.2-3.95a11.07,11.07,0,0,1-1.32-6,12.18,12.18,0,0,1,1-4.14,8.23,8.23,0,0,1-.95-1.05,2.21,2.21,0,0,1-.26-.44l-.06-.14a3.57,3.57,0,0,1-.1-.35l0-.14a3.17,3.17,0,0,1,0-.44l0-.23,0-.22a2.86,2.86,0,0,1,.07-.28l0-.09a3.39,3.39,0,0,1,.31-.67h0a3.53,3.53,0,0,1,.83-1,11,11,0,0,1,2.43-8.53,8.11,8.11,0,0,1,6.8-3.12,14.86,14.86,0,0,1,6.61-7.21,11.68,11.68,0,0,1,1.22-.54l.28-.1a10.86,10.86,0,0,1,1.2-.35H334a9.24,9.24,0,0,1,1.14-.17l.23,0a9.61,9.61,0,0,1,1.2,0h.12c-4.47-5.25-13.12-4.73-17.79,2a17.24,17.24,0,0,0-5.19-2.57l0,0a12.2,12.2,0,0,0-1.23-.27l-.11,0a11,11,0,0,0-1.17-.12H311a9.61,9.61,0,0,0-1.2,0l-.23,0a9.24,9.24,0,0,0-1.14.17h-.09a10.86,10.86,0,0,0-1.2.35l-.28.1a11.68,11.68,0,0,0-1.22.54,14.86,14.86,0,0,0-6.61,7.21,8.11,8.11,0,0,0-6.8,3.12,11,11,0,0,0-2.43,8.53,3.53,3.53,0,0,0-.83,1h0a3.39,3.39,0,0,0-.31.67l0,.09a2.86,2.86,0,0,0-.07.28l0,.22,0,.23a3.17,3.17,0,0,0,0,.44l0,.14a3.57,3.57,0,0,0,.1.35l.06.14a2.21,2.21,0,0,0,.26.44,8.23,8.23,0,0,0,.95,1.05,12.18,12.18,0,0,0-1,4.14,11.07,11.07,0,0,0,1.32,6c1.06,1.91,3.17,2.34,4.2,3.95s-.08,4.92.4,7a8.64,8.64,0,0,0,3,4.9,6.88,6.88,0,0,0,6.29,1,10.07,10.07,0,0,0,.15,1.12c0,.11,0,.23.08.34s.13.5.21.75.07.23.11.34c.12.31.25.6.39.89s.17.31.26.47l.24.39a6,6,0,0,0,.36.52l.16.21a9.82,9.82,0,0,0,1,1.12h0A11.77,11.77,0,0,0,319,446.19a9.55,9.55,0,0,0,.62.9l.21.26c.16.19.32.38.49.56l.25.27.53.5.24.21.1.09a11.09,11.09,0,0,0,1.46,1l0,0a10.75,10.75,0,0,0,2.28.94c2.7,1.12,5.43,1.95,8.09-.83.54.18,1.11.34,1.68.5a29.05,29.05,0,0,0,4.84.88,12.22,12.22,0,0,0,7.95-.89C347.51,450.4,335.62,447.6,332.62,444.78Z" transform="translate(-171.01 -341.43)" fill="#c7b670" opacity="0.63" style="mix-blend-mode: multiply"/>
        <path d="M341.13,386.24a5.06,5.06,0,0,0-4.57-4.92,11.13,11.13,0,0,0-9.41-9.67,9.6,9.6,0,0,0-3.06-7.2,11.86,11.86,0,0,0-6.44-2.86c-2-.29-5,.68-6.38-.51s-1.47-2.75-3.31-3.61c-2.16-1-4.56-.82-6.86-.48-4.32.63-9.46,2-12.5,5.33-6.56-1.28-9.49,6.55-5,10.39A4.74,4.74,0,0,0,284,381a6.47,6.47,0,0,0,.6,7.66,11.36,11.36,0,0,0-2.17,6,1.64,1.64,0,0,0,1.18,1.56,17.56,17.56,0,0,0,4.11,1c-1.16,1.83-4,3.62-4.47,5.67a6.64,6.64,0,0,0,1.35,5.22c3.49,4.64,9,3.46,13.66,1.49,2.82,3.89,8,4.54,11.42,1.19,4.84,3.42,11.48.22,13.82-5.25,1-2.36,1-3,3.48-3.88a10.78,10.78,0,0,0,3.76-1.83,8.36,8.36,0,0,0,2.88-6.33C337.55,393,341.4,390.84,341.13,386.24Z" transform="translate(-171.01 -341.43)" fill="#fbfade"/>
        <g>
          <path d="M332.19,439.35c-1.4-7.84-8.31-10.19-15.19-10.21-.62-4.49-3.75-8.69-7.4-11.34a10.69,10.69,0,0,0-3.6-1.69c-.92-5.34-3.94-10-9.7-11.63-6.46-1.78-12.33.95-17.17,4.94-7.3-6.17-19.31-2.81-22,6.3-5.42-1.17-11.27-1-15.5,3a13.58,13.58,0,0,0-4.32,9.09,9,9,0,0,0-6.27,5.33,9.4,9.4,0,0,0,.9,8.84,2.66,2.66,0,0,0,.75,4,12.07,12.07,0,0,0,1.52.64,10.11,10.11,0,0,0,.6,4.24,11.16,11.16,0,0,0,4,5.09c2,1.4,4.53,1.06,6.36,2.19s2,4.63,3.4,6.37A10.35,10.35,0,0,0,254,468a9.44,9.44,0,0,0,7.47-1.27c3.46,6.3,14,7.25,20.25,2.73a14.77,14.77,0,0,0,19.16-3c10.2,2.82,19.07-3.88,21-13.77C328.3,452,333.45,446.41,332.19,439.35Z" transform="translate(-171.01 -341.43)" fill="#fbfade"/>
          <path d="M332.19,439.35c-1.4-7.84-8.31-10.19-15.19-10.21-.62-4.49-3.75-8.69-7.4-11.34a10.69,10.69,0,0,0-3.6-1.69c-.92-5.34-3.94-10-9.7-11.63-6.46-1.78-12.33.95-17.17,4.94-7.3-6.17-19.31-2.81-22,6.3-5.42-1.17-11.27-1-15.5,3a13.58,13.58,0,0,0-4.32,9.09,9,9,0,0,0-6.27,5.33,9.4,9.4,0,0,0,.9,8.84,2.66,2.66,0,0,0,.75,4,12.07,12.07,0,0,0,1.52.64,10.11,10.11,0,0,0,.6,4.24,11.16,11.16,0,0,0,4,5.09c2,1.4,4.53,1.06,6.36,2.19s2,4.63,3.4,6.37A10.35,10.35,0,0,0,254,468a9.44,9.44,0,0,0,7.47-1.27c3.46,6.3,14,7.25,20.25,2.73a14.77,14.77,0,0,0,19.16-3c10.2,2.82,19.07-3.88,21-13.77C328.3,452,333.45,446.41,332.19,439.35Z" transform="translate(-171.01 -341.43)" fill="#fbfade"/>
          <path d="M266.84,460c.19-1.09-.69-2.34-1.92-1.93q-4.91.84-4.75-3.87a1.56,1.56,0,0,0-2-1.5q-3.58.32-3-3.48a1.58,1.58,0,0,0-2.14-2.14c-4.81,2.56-9.2-2-7.25-6.67.83-2,2.46-3.43,3.16-5.53,1.39-4.14.24-9.62,4-12.62a1.46,1.46,0,0,0,.37-1.41,16.11,16.11,0,0,1,0-5.63c-4.26-.32-8.49.49-11.75,3.55a13.58,13.58,0,0,0-4.32,9.09,9,9,0,0,0-6.27,5.33,9.4,9.4,0,0,0,.9,8.84,2.66,2.66,0,0,0,.75,4,12.07,12.07,0,0,0,1.52.64,10.11,10.11,0,0,0,.6,4.24,11.16,11.16,0,0,0,4,5.09c2,1.4,4.53,1.06,6.36,2.19s2,4.63,3.4,6.37A10.35,10.35,0,0,0,254,468a9.44,9.44,0,0,0,7.47-1.27,10.5,10.5,0,0,0,5.95,4.7C265.79,468,266.19,463.7,266.84,460Z" transform="translate(-171.01 -341.43)" fill="#e9f0c4"/>
          <path d="M309.21,436.26c-3.37-.81-2.76-.8-3.44-4a11.15,11.15,0,0,0-2.47-5.44,6.21,6.21,0,0,0-8.66-.62,1.34,1.34,0,0,0,.37,2.18.74.74,0,0,0,.54.18,1.06,1.06,0,0,0,.59-.13c1.76-.06,2.42,4.52.68,5.18-1.17.45-1.78,2.33-.39,3q3.31,1.05,1.19,3.78c-.1,2.87-1.46,3.31-4.09,1.34-1.12-1.06-3.4-.39-3.27,1.35.33,4.26-3.14,7-6.7,8.66a10.2,10.2,0,0,1-5.11,1.27c-2.13-.24-5.61-2.66-3.22-5.13,1.74-1.78.3-4.17-1.85-4.46a28.1,28.1,0,0,1-4.31-.58,2.88,2.88,0,0,1-2.41-1.24c-2-.66-2.18-1.86-.66-3.58a2.33,2.33,0,0,0,2.59-3.37q-2.5-3.66.58-6.66a1.83,1.83,0,0,0,1.46.83l.34,0a2,2,0,0,0,1.89-1.43l.12-.52a2.22,2.22,0,0,0-.57-2.15c-2.08-2-5.28-1.22-7.22.7-2.31,2.28-2.44,5.33-1.72,8.23-2.8,1.13-4.11,4.77-3.26,8.15a8.09,8.09,0,0,0,1.68,3.44,19.35,19.35,0,0,1-.78,5.69A1.72,1.72,0,0,0,262.3,453a13,13,0,0,1,5.06,2.47,3.46,3.46,0,0,0,.91,2.2c1,1.21,3.2,1.3,4,2.43a2,2,0,0,0,2.3.84,18.4,18.4,0,0,0,11.3,2.2,12,12,0,0,0,5.83-2.06c1-.75,2-3.16,2.82-3.58s3.06.15,4.3-.35a9.7,9.7,0,0,0,4.34-4,21.48,21.48,0,0,1,6.46-6.92,7.57,7.57,0,0,0,3.23-3.7C314,439.34,312.27,437,309.21,436.26Z" transform="translate(-171.01 -341.43)" fill="#fff"/>
          <path d="M332.25,439.48a9.54,9.54,0,0,0-.35-1.38c0-.21-.11-.4-.16-.6.33-1.87-1.67-2.87-2.67-4.87,1,1.5.5,2.25-.22,2.82-.14.12-.3.23-.46.35-1.32,1.83-1.32,3.83-3.11,4.8,0,.16-.09.33-.13.51a5.32,5.32,0,0,1-1.08,2.52c-1,0-2-2-3-.7l-.53.2-.55.17a12.11,12.11,0,0,1-2.09.43,20.59,20.59,0,0,1-.67,4.07l-.09.3c-1.06.53,1.94,4.53-2.14,4.51a2.41,2.41,0,0,0-.37.41,12.64,12.64,0,0,1-3.24,2.82c-.15.1-.3.19-.46.31-1.85,2.48-4.85,1.48-7.11,1.92l-.35,0-.36,0c-1-.48-1-.48-1.94-.13l-.5-.1a20.2,20.2,0,0,0-3.59-.25A10.26,10.26,0,0,1,291,463.1l-.53.16a5.86,5.86,0,0,1-6.75-.11l-.57-.15a20.3,20.3,0,0,1-5-2.25l-.42-.26c-2.65.14-4.65,4.14-8,2.78l-.59,0c-4.81.17-9.59-1.68-11.7-5.53A9.44,9.44,0,0,1,250,459a10.35,10.35,0,0,1-5.43-3.51c-1.4-1.74-1.53-5.21-3.4-6.37s-4.38-.79-6.36-2.19a11.53,11.53,0,0,1-3.4-3.78,2.47,2.47,0,0,0,1.27,2.81,12.07,12.07,0,0,0,1.52.64,10.11,10.11,0,0,0,.6,4.24,11.16,11.16,0,0,0,4,5.09c2,1.4,4.53,1.06,6.36,2.19s2,4.63,3.4,6.37A10.35,10.35,0,0,0,254,468a9.44,9.44,0,0,0,7.47-1.27c3.46,6.3,14,7.25,20.25,2.73a14.72,14.72,0,0,0,3.9,1.73,13.3,13.3,0,0,0,2.07.41c4.38,0,9.38,1,11.69-3.57.68,0,1.38-.07,2.09-.13,6.75-.57,13.75-2.57,17.63-8,.11-.16.23-.32.34-.49a13.72,13.72,0,0,0,2.1-4.94c0-.12.06-.23.08-.34.11-.45.19-.92.27-1.4a13,13,0,0,0,1.88-.37,11.51,11.51,0,0,0,8.41-8.79,5.62,5.62,0,0,0,.09-.57,7.31,7.31,0,0,1,.05-3.18C332.3,439.71,332.28,439.59,332.25,439.48Z" transform="translate(-171.01 -341.43)" fill="#bad181" opacity="0.63" style="mix-blend-mode: multiply"/>
          <path d="M336.54,381.59c-3.36-.81-2.76-.8-3.44-4a11.16,11.16,0,0,0-2.47-5.43,6.21,6.21,0,0,0-8.66-.63,1.34,1.34,0,0,0,.38,2.18.69.69,0,0,0,.53.18,1,1,0,0,0,.6-.13c1.75-.06,2.41,4.52.68,5.18-1.17.45-1.79,2.33-.39,3,2.2.69,2.6,1.95,1.18,3.78-.09,2.86-1.45,3.31-4.08,1.33-1.13-1-3.41-.39-3.27,1.35.32,4.26-3.15,7-6.71,8.66a10.2,10.2,0,0,1-5.1,1.28c-2.14-.25-5.62-2.67-3.22-5.13,1.73-1.79.29-4.18-1.85-4.47a27.77,27.77,0,0,1-4.31-.58,2.87,2.87,0,0,1-2.42-1.24q-2.94-1-.66-3.58a2.33,2.33,0,0,0,2.59-3.37q-2.51-3.65.59-6.66a1.8,1.8,0,0,0,1.45.83l.34,0a2,2,0,0,0,1.89-1.43c0-.17.08-.34.13-.51a2.24,2.24,0,0,0-.57-2.15c-2.08-2-5.29-1.22-7.23.69-2.31,2.28-2.43,5.34-1.71,8.24-2.8,1.13-4.12,4.76-3.27,8.14a8.2,8.2,0,0,0,1.69,3.45,19.92,19.92,0,0,1-.78,5.68,1.7,1.7,0,0,0,1.18,2.08,13.14,13.14,0,0,1,5.06,2.47,3.48,3.48,0,0,0,.91,2.2c1,1.21,3.2,1.31,4,2.43a2,2,0,0,0,2.3.84,18.36,18.36,0,0,0,11.31,2.2,12.05,12.05,0,0,0,5.83-2.06c1-.75,2-3.16,2.81-3.58s3.06.16,4.3-.35a9.72,9.72,0,0,0,4.35-4,21.32,21.32,0,0,1,6.45-6.91,7.7,7.7,0,0,0,3.24-3.71C341.31,384.67,339.6,382.32,336.54,381.59Z" transform="translate(-171.01 -341.43)" fill="#fff"/>
        </g>
        <g style="mix-blend-mode: multiply">
          <path d="M298.05,346.38l-.76-.18-.08,0-.8-.18h0a18.61,18.61,0,0,0-4.38-.48h0a15.37,15.37,0,0,1,2.07,3.11c6-1,10,3,13.82,7.39a10.15,10.15,0,0,1,.83,1.88,13.48,13.48,0,0,1,.52,2.34c.57.42,1.16.79,1.75,1.17a47.42,47.42,0,0,1,10.12,8.82c.51.57,1,1.16,1.49,1.76,7.48,1.58,9.76,5.1,10.68,9.85.11.59.21,1.21.29,1.84s-.08,1.38-.07,2.05a21.86,21.86,0,0,1,.72,4.1c.08.73.16,1.46.26,2.19a17.11,17.11,0,0,1,.92,1.45,7.57,7.57,0,0,0,1.22,1.71,10.86,10.86,0,0,0,1.58,1.37c3.87,2.08,4.87,15.08,1.9,18.59a12.27,12.27,0,0,0-1.13,1.5c3.1,9-.9,18-10.72,19.3-.42.37-.86.72-1.3,1.07a15.26,15.26,0,0,1-8.3,5.93,17.75,17.75,0,0,1-2.1.44l-1.26.17a2.41,2.41,0,0,0-1.32.07,7,7,0,0,0-1.52.7c-.22.41-.45.8-.68,1.17-.7,12.14-6.7,11.14-16.94,11.13a13.76,13.76,0,0,0-1.54,1.32,12.63,12.63,0,0,0-1.35,1.61c-.45.68-.92,1.34-1.42,2-3.53,4.51-9,7.88-14,10.3a14.66,14.66,0,0,0,5.25-2.34c.35.22.71.42,1.07.61l.35.17c.26.13.52.24.78.35l.4.16.8.28.36.11.14.05c.34.09.69.17,1,.24h0c.35.07.69.13,1,.17h.06a15.32,15.32,0,0,0,2.95.07c3.48.09,6.89-.11,8.68-3.65.68,0,1.38-.07,2.09-.13a40.38,40.38,0,0,0,5.78-.9,15.8,15.8,0,0,0,9.3-4.36,14.65,14.65,0,0,0,2.55-2.77c.11-.16.23-.32.34-.49a13.72,13.72,0,0,0,2.1-4.94c0-.12.06-.23.08-.34.11-.45.19-.92.27-1.4.36,0,.72-.11,1.08-.18l.34-.08.46-.11.3-.09.27-.09a8.87,8.87,0,0,0,1-.36l.05,0c.3-.13.6-.28.89-.43l0,0c2.35.86,4.72,1.18,7-1.24.54.18,1.11.34,1.68.5a29.05,29.05,0,0,0,4.84.88,12.5,12.5,0,0,0,8.82-1.31,14.16,14.16,0,0,0,3-1.83l.44-.36a14.93,14.93,0,0,0,3.4-4l.18-.29c.25-.39.48-.8.71-1.23a9.1,9.1,0,0,0,.91.16l.29,0,.4,0h.15a9.41,9.41,0,0,0,1.19,0h.06a8.82,8.82,0,0,0,1.23-.22c.12,0,.23-.06.35-.09.31-.09.62-.19.93-.31l.31-.11a12.29,12.29,0,0,0,1.15-.57l.2-.12c.31-.19.62-.4.92-.62l.31-.24c.29-.23.57-.48.84-.74l.18-.17a13.18,13.18,0,0,0,.91-1.05c.08-.09.14-.19.22-.29.21-.3.42-.61.61-.93l.14-.21.18-.32s0-.07.05-.1l0-.09v0a13.53,13.53,0,0,0,1-2.74c0-.06.07-.13.11-.18s.05-.23.08-.34c.15-.85.15-.85.21-1.4,0-.21,0-.41.08-.6.87-1.55-.13-3-.31-5a28.85,28.85,0,0,0,1-20.16c-.16-.48-.32-.95-.48-1.4-7-18.78-19.76-36-40.4-39.09-1.81-6.25-5.56-13.13-12.37-12.75-2.86-4.32-14.58-5.39-18-6.22l-.78-.19Zm71.13,79.83a3.52,3.52,0,0,1,0,.75c0-.14-.08-.28-.12-.42Z" transform="translate(-171.01 -341.43)" fill="#e7f0c3"/>
        </g>
        <path d="M397.71,394.16c.36-.53,1.36-.53,1.36-1.53-4,0-9,0-13.16,1.88l-1.68.63a28.92,28.92,0,0,1-5.24,1.51c-.82.08-1.55.14-2.13.15a3.18,3.18,0,0,1-1.29-.17c-2-1-8,0-8,0l-.9.84c1.1,2.35,2.11,4.75,3,7.18.16.45.32.92.48,1.4a28.85,28.85,0,0,1-1,20.16c.18,2,1.18,3.41.31,5,0,.19-.05.39-.08.6-.06.55-.06.55-.21,1.4,0,.11-.05.23-.08.34s-.07.12-.11.18a13.53,13.53,0,0,1-1,2.74v0l0,.09s0,.07-.05.1l-.18.32-.14.21c-.19.32-.4.63-.61.93-.08.1-.14.2-.22.29a13.18,13.18,0,0,1-.91,1.05l-.18.17c-.27.26-.55.51-.84.74l-.31.24c-.3.22-.61.43-.92.62l-.2.12a12.29,12.29,0,0,1-1.15.57l-.31.11c-.31.12-.62.22-.93.31-.12,0-.23.07-.35.09a8.82,8.82,0,0,1-1.23.22h-.06a9.41,9.41,0,0,1-1.19,0H358l-.4,0-.29,0a9.1,9.1,0,0,1-.91-.16c-.23.43-.46.84-.71,1.23l-.18.29a14.93,14.93,0,0,1-3.4,4l-.44.36a14.16,14.16,0,0,1-3,1.83,12.5,12.5,0,0,1-8.82,1.31,29.05,29.05,0,0,1-4.84-.88c-.57-.16-1.14-.32-1.68-.5-2.32,2.42-4.69,2.1-7,1.24l0,0c-.29.15-.59.3-.89.43l-.05,0a8.87,8.87,0,0,1-1,.36l-.27.09-.3.09-.46.11-.34.08c-.36.07-.72.14-1.08.18-.08.48-.16.95-.27,1.4,0,.11-.05.22-.08.34a13.72,13.72,0,0,1-2.1,4.94c-.11.17-.23.33-.34.49-.29.41-.6.77-.92,1.14,5.34.78,18.05,2.35,29.89,1.59,15.5-1,32-11,39.5-24,7-12.07,2.72-19.83,2.48-27.68,0-.61,0-1.21,0-1.82a20.37,20.37,0,0,1,2.21-8.75c.29-.58.6-1.17.94-1.74-.15-2,.85-3,2.9-3.38C396.58,394.91,397.12,394.54,397.71,394.16Z" transform="translate(-171.01 -341.43)" fill="#88b640"/>
        <path d="M369.18,426.21l-.15.33c0,.14.09.28.12.42A3.52,3.52,0,0,0,369.18,426.21Z" transform="translate(-171.01 -341.43)" fill="#509241"/>
        <path d="M220.61,373.59c10.46,10,2.46,23,.15,33.58,0,.5,0,1,0,1.52,0,1,0,2,.12,3.05,1,12.26,4.54,21.62,8.26,24.66s12.95,13.16,12.95,13.16l10.14,9.65L226.73,456s-1.45-1.17-3.67-3.14l-.26-.22c-1.58.17-2.46-2.7-3.4-3.15l-.32-.3c-1.15-1.11-2.38-2.32-3.62-3.61l-.29-.29c-1.66-.58-4.16-1.91-3.71-4a4.15,4.15,0,0,0-.24-.34c-1.31-1.51-2.59-3.08-3.78-4.68a2.6,2.6,0,0,0-.26-.32,3.23,3.23,0,0,1-2.67-3.95,3.65,3.65,0,0,0-.18-.34,36.23,36.23,0,0,1-2.25-4.3c-.06-.11-.12-.22-.17-.33-.58-1.61-4-2.64-1.52-5.48l0-.32a10.58,10.58,0,0,1,1.23-6.35,14.27,14.27,0,0,1,.94-1.39l.26-.4c.47-1.86,1.13-3.1,2.93-3.66l.22-.26c1.06-1.29,2.24-2.7,3.49-4.16.44-.5.89-1,1.37-1.51,1.27-1.84,1.27-4.84,2.27-4.84,10-5,12-15,7.63-24.17A4.8,4.8,0,0,1,220.61,373.59Z" transform="translate(-171.01 -341.43)" fill="#a9d26a"/>
        <path d="M220.61,373.59c8.46,11,2.46,25-6.29,34.29-.2.47-.39.94-.59,1.42a79.46,79.46,0,0,0-4.3,12.92c-.11.51-.19,1-.25,1.47-1.11,7.94,1.89,13.94,7.77,19,.5.53,1,1,1.56,1.54,1.08,1,2.21,1.93,3.37,2.8.48.47,1,1,1.43,1.52s.84,1,1.27,1.47a14.82,14.82,0,0,0,1.07,1.15,11.47,11.47,0,0,0,1.15,1c3.27,3.54,8.27,2.54,12.29,3.61l1.95.56c3.23,1,6.42,2.07,9.8,2.78l1.36.17-.94-.89a77.5,77.5,0,0,1-5.81-5.45l-1.14-1.2c-3.24-6-7.24-12-13.91-14.17l-1.29-1.1c-3.72-3-7.29-12.4-8.26-24.66-.08-1-.12-2-.12-3.05,0-.51,0-1,0-1.52,2.31-9.54,11.31-24.54.31-33C220.75,373.81,220.61,373.59,220.61,373.59Z" transform="translate(-171.01 -341.43)" fill="#94b958"/>
        <path d="M302.11,420.39c-1,.24-1,1.24-1.21,2.51a7.37,7.37,0,0,0-.08,1.34c0,1.36.32,2.82.39,4.26,0,.59.09,1.19.14,1.78s.13,1.17.21,1.73c0,0,.35.92.83,2.15l2.39,6.14a8.07,8.07,0,0,1,.44,1.6,68.05,68.05,0,0,1,.85,7.06v10.45a7.87,7.87,0,0,1-3.51,6.55l-2.26,1.49a7.6,7.6,0,0,0-1.64,1.46l-2.39,2.8a7.84,7.84,0,0,1-5.58,2.76l-9.29.46a7.24,7.24,0,0,0-1.31.18l-5.35,1.19s-10,2-18-2c-5.52-2.76-9.45-13.78-11.36-20.34a7.81,7.81,0,0,1,2.52-8.18l8.17-6.82s2-3,3.34,0c2.7,6.09,10-8,10-8,1.56-2.16,2.66-1.33,6-1.33s.66,4.67,3.33,0a25,25,0,0,0,1.47-3,7.93,7.93,0,0,1,5-4.65,8.31,8.31,0,0,1,1.4-.3c3-.36,5.27-2.06,7.31-4,.31-.32.62-.63.93-1,4.25-5,9.25-10,16.25-10-1,5-7,7-8.05,11.62C302.68,419,302.37,419.73,302.11,420.39Z" transform="translate(-171.01 -341.43)" fill="#abd037"/>
        <path d="M302.11,420.39c-1,.24-1,1.24-1.21,2.51a7.37,7.37,0,0,0-.08,1.34c0,1.36.32,2.82.39,4.26,0,.59.09,1.19.14,1.78s.13,1.17.21,1.73c0,0,.35.92.83,2.15l2.39,6.14a8.07,8.07,0,0,1,.44,1.6,68.05,68.05,0,0,1,.85,7.06v10.45a7.87,7.87,0,0,1-3.51,6.55l-2.26,1.49a7.6,7.6,0,0,0-1.64,1.46l-2.39,2.8a7.84,7.84,0,0,1-5.58,2.76l-9.29.46a7.24,7.24,0,0,0-1.31.18l-5.35,1.19s-10,2-18-2c-5.52-2.76-9.45-13.78-11.36-20.34a7.81,7.81,0,0,1,2.52-8.18l8.17-6.82s2-3,3.34,0c2.7,6.09,10-8,10-8,1.56-2.16,2.66-1.33,6-1.33s.66,4.67,3.33,0a25,25,0,0,0,1.47-3,7.93,7.93,0,0,1,5-4.65,8.31,8.31,0,0,1,1.4-.3c3-.36,5.27-2.06,7.31-4,.31-.32.62-.63.93-1,4.25-5,9.25-10,16.25-10-1,5-7,7-8.05,11.62C302.68,419,302.37,419.73,302.11,420.39Z" transform="translate(-171.01 -341.43)" fill="#abd037"/>
        <path d="M287.28,447.62c-.48.36-1,.71-1.5,1.08,2.46-6.76,5.8-13.11,8.9-19.61,0,0,0-.1-.08-.06-7.37,8.51-13.72,17.52-17.85,28.06-.59,1.51-1.19,3.2-1.92,4.83a19.76,19.76,0,0,0,0-2.59c-.67-7.7,1.88-16.61-1.79-23.75-.16-.31-.69-.09-.57.24,2.36,6.61-1.55,11.87-2.33,18.3-.3,2.58.15,5.12.1,7.7a8.57,8.57,0,0,1-2,5.49c-.26-1.54.19-3.44.06-4.75a27.27,27.27,0,0,0-1.67-6.08c-1.3-3.83-2.31-7.86-4.94-11a.27.27,0,0,0-.46.2,32.22,32.22,0,0,0,1.84,8.1,7.93,7.93,0,0,1-2.29-1.08c-.7-.52-.83-1.32-1.36-2a4.72,4.72,0,0,0-3.81-1.72.05.05,0,1,0,0,.1,4.64,4.64,0,0,1,3.42,1.34c.61.61.68,1.45,1.17,2.05a7,7,0,0,0,2.92,1.42c.62,1.87,1.29,3.72,1.83,5.58.62,2.1.16,4.33,0,6.48,0,0,0,0,0,.06a6.45,6.45,0,0,1-3.06,3.95c-.34,0-.66,0-.95-.06-2.59-.28-4.58-1.71-7.27-1.51a2,2,0,0,0-1.62,1.07,13.57,13.57,0,0,0,4.81,4.8,26.78,26.78,0,0,0,11.17,2.49l.92-.19a15.9,15.9,0,0,0,9.29-6.22c3.81-1.71,6.59-4.86,10.87-6s7.45-2.48,9.8-6.62c.49-.88-3.55,4.51-11.22,4.36-2.31,0-3.29-.69-5.36.33l-.4.2c.85-2.7,1.46-5.5,2.18-8.25,1.46-1.46,2.85-3.05,4.35-4.36,3.7-3.23,6.86-6.76,11.84-7.9.06,0,0-.11,0-.1A29.48,29.48,0,0,0,287.28,447.62Z" transform="translate(-171.01 -341.43)" fill="#dfeaa6"/>
        <g opacity="0.39" style="mix-blend-mode: multiply">
          <path d="M304.78,440.3l-2.39-6.14c-.06-.15-.12-.3-.17-.44-.39-1-.66-1.71-.66-1.71h0a18.57,18.57,0,0,1-.35-1.9c-.09-.64-.14-1.27-.18-1.9a7.92,7.92,0,0,1-.31-2c0-.09.09-.18.24-.29-.06-.58-.12-1.16-.14-1.72a7.37,7.37,0,0,1,.08-1.34c.17-1.27.17-2.27,1.21-2.51.26-.66.57-1.37.91-2.14,1.05-4.62,7.05-6.62,8.05-11.62-5,5-10,9-13.42,16.13-.32.6-.63,1.2-.93,1.81a54.73,54.73,0,0,0-2.46,5.5q-.54,1-1.14,1.95c-.39.65-.79,1.28-1.21,1.91s-.88,1.33-1.31,1.94c-3,4.2-5.63,6.51-7,11.76-2,7.5-4,10-7,17-2.74,6.41-16.42,9.67-18.72,10.17h0c6.81,2.9,14.63,1.87,16.48,1.57h0l.41-.07,5.35-1.19a7.24,7.24,0,0,1,1.31-.18l9.29-.46a7.84,7.84,0,0,0,5.58-2.76l2.39-2.8a7.6,7.6,0,0,1,1.64-1.46l2.26-1.49a7.87,7.87,0,0,0,3.51-6.55V449a68.05,68.05,0,0,0-.85-7.06A8.07,8.07,0,0,0,304.78,440.3Z" transform="translate(-171.01 -341.43)" fill="#4e823c"/>
        </g>
        <g>
          <path d="M223.06,452.82l-.26-.22c-1.58.17-2.46-2.7-3.4-3.15l-.32-.3c-1.15-1.11-2.38-2.32-3.62-3.61l-.29-.29c-1.66-.58-4.16-1.91-3.71-4a4.15,4.15,0,0,0-.24-.34c-1.31-1.51-2.59-3.08-3.78-4.68a2.6,2.6,0,0,0-.26-.32,3.23,3.23,0,0,1-2.67-3.95,3.65,3.65,0,0,0-.18-.34,36.23,36.23,0,0,1-2.25-4.3c-.06-.11-.12-.22-.17-.33-.58-1.61-4-2.64-1.52-5.48,0-.11,0-.21,0-.32a13.29,13.29,0,0,1-.05-1.41c-.48-1.16-.95-2.32-1.38-3.5L194.74,415s3.83,4.17,2.33,7.67-1,8,1.5,10,7,3,7.5,7.5,7,15,12,15.5a56.08,56.08,0,0,0,7.94-.27C225.37,454.83,224.36,454,223.06,452.82Z" transform="translate(-171.01 -341.43)" fill="#6fb043"/>
          <path d="M245.42,458.35l-13.94-1.79.09.07c3,2.5,15,4.5,15,4.5l-.11-1.41A4,4,0,0,0,245.42,458.35Z" transform="translate(-171.01 -341.43)" fill="#6fb043"/>
        </g>
        <path d="M348.07,462.63c15.5-1,32-11,39.5-24s2-21,2.5-29.5a12.7,12.7,0,0,1-1,3.42l-.22.52c-.78,2.56-.78,5.56-4.21,7.5-.07.09-.13.19-.2.29.56,2.42-.14,3.49-2.27,4.21l-.32.11c-1.78,1.45-.78,4.45-3.88,3.9a2.5,2.5,0,0,0-.39.34,24,24,0,0,1-2.51,2.21,34.93,34.93,0,0,0-4.37,4.16,5.46,5.46,0,0,0-.38.44,17.5,17.5,0,0,0-.25,3.4c-1,0-2,0-2.84,0a2.5,2.5,0,0,0-.22.24c-1.31,1.46-2.7,3-4.2,4.52a2.39,2.39,0,0,0-.22.23c-1.52,2-.52,4-3.58,3.39l-.25.22a46.94,46.94,0,0,1-9.19,6.36l-.72.37-.37.18c-1.41,3.45-3.41,1.45-5,1.93l-.39.13c-11.43,3.52-24,2.66-24,2.66-.29.41-.6.77-.92,1.14C323.52,461.82,336.23,463.39,348.07,462.63Z" transform="translate(-171.01 -341.43)" fill="#abd037"/>
        <path d="M300.8,360.16c-2.05-2.54-5.75-2.66-9.05-2.73a8.57,8.57,0,0,0-.85-3.12,15,15,0,0,1-6.83,3.82c-9,2.5-.5,4.5-7.5,8s-12.5-1-14.5-2-8.77-3.16-12.63.92c5.93-.71,10.5,2.51,13.37,7.1a10.52,10.52,0,0,1,4,.21c4.37,1.07,8.86,3.78,11.13,7.7,4.46-1.8,9.36-2.55,13.36-.54a3.37,3.37,0,0,0-.86-.79c1.2,1,2.67,1.45,3.57,2.26a14.37,14.37,0,0,1,1.48-1.08c3.41-2.13,7.31-.5,8.38-5.33C304.75,370.54,303.41,363.38,300.8,360.16Z" transform="translate(-171.01 -341.43)" fill="#f6f7d5" style="mix-blend-mode: multiply"/>
        <path d="M385.91,394.51l-1.68.63a28.92,28.92,0,0,1-5.24,1.51c-.82.08-1.55.14-2.13.15a3.18,3.18,0,0,1-1.29-.17c-2-1-8,0-8,0l-.9.84c1.1,2.35,2.11,4.75,3,7.18.16.45.32.92.48,1.4a28.85,28.85,0,0,1-1,20.16c.18,2,1.18,3.41.31,5,0,.19-.05.39-.08.6-.06.55-.06.55-.21,1.4,0,.11-.05.23-.08.34s-.07.12-.11.18a13.53,13.53,0,0,1-1,2.74v0l0,.09s0,.07-.05.1l-.18.32-.14.21c-.19.32-.4.63-.61.93-.08.1-.14.2-.22.29a13.18,13.18,0,0,1-.91,1.05l-.18.17c-.27.26-.55.51-.84.74l-.31.24c-.3.22-.61.43-.92.62l-.2.12a12.29,12.29,0,0,1-1.15.57l-.31.11c-.31.12-.62.22-.93.31-.12,0-.23.07-.35.09a8.82,8.82,0,0,1-1.23.22h-.06a9.41,9.41,0,0,1-1.19,0H358l-.4,0-.29,0a9.1,9.1,0,0,1-.91-.16c-.23.43-.46.84-.71,1.23l-.18.29a14.93,14.93,0,0,1-3.4,4c15-4,20.32-17,24.65-25s1.33-17.33,5.33-23.33,17-7,17-7C395.07,392.63,390.07,392.63,385.91,394.51Z" transform="translate(-171.01 -341.43)" fill="#88b640" opacity="0.71" style="mix-blend-mode: multiply"/>
      </g>
    </g>
  </g>
</svg>
