<svg id="Lager_1" data-name="Lager 1" xmlns="http://www.w3.org/2000/svg" viewBox="0 0 1000 1000">
  <title>12-carrot</title>
  <g>
    <rect width="1000" height="1000" fill="none"/>
    <g>
      <g>
        <path d="M252.85,76.31s49,74.3,53.27,168.43c24.47-8.38,26.51-8.26,26.51-8.26s-12.8-79.87-70.26-158.71C256.66,74.21,252.85,76.31,252.85,76.31Z" transform="translate(0 0)" fill="#49890b"/>
        <g>
          <path d="M112.63,111.51S216.15,224.89,281.18,271.14C263.09,285.7,253,292.35,253,292.35S156.11,199.81,106.56,126A40.73,40.73,0,0,1,112.63,111.51Z" transform="translate(0 0)" fill="#49890b"/>
          <path d="M147.85,148.82A128,128,0,0,0,146.39,163s41.82,52.32,55.21,77.34l52.16,54.21s9.33-8.83,27.42-23.39C239.63,241.58,183.32,186.93,147.85,148.82Z" transform="translate(0 0)" fill="#437a08"/>
          <path d="M141.21,81.3S246.83,197,272,272c30.46-24.28,33.49-26.8,33.49-26.8s-77.4-125-149.78-185.65C143.68,66,141.21,81.3,141.21,81.3Z" transform="translate(0 0)" fill="#49890b"/>
          <path d="M205.29,109.17s34.6,50.47,52.19,117.92L275,269.47l30.46-24.29S258.08,169.3,205.29,109.17Z" transform="translate(0 0)" fill="#437a08"/>
          <g>
            <path d="M257.83,277s-80.94-26.43-148.6-58.71c-3.94,6.33-.46,13.83-.46,13.83s82.6,47.8,148.85,70.27C261,294.93,257.83,277,257.83,277Z" transform="translate(0 0)" fill="#69a500"/>
            <g>
              <path d="M286.67,250.38S259.18,138.91,189.28,75.7c8.46-6.51,18.68-3.8,18.68-3.8s69.79,65.21,116.14,162.57C309.84,241.6,286.67,250.38,286.67,250.38Z" transform="translate(0 0)" fill="#75aa00"/>
              <path d="M150.66,159.84s-.94-15.62,6-25.08c0,0,72.64,45.68,131.89,117.92-9.32,20.12-28.81,27-28.81,27S210,208.93,150.66,159.84Z" transform="translate(0 0)" fill="#75aa00"/>
            </g>
          </g>
        </g>
      </g>
      <g>
        <path d="M272.41,262.26c-54.48,50.13-64.08,105.52-35.07,146.17s61.71,69.48,87.74,93.95c31.63,29.74,56.93,48.84,79.67,71.37s52.87,58,99.63,99.7S610.68,749.71,626,762.62s36.57,38.14,80.44,72.13c78.08,60.5,93.24,63.67,108.89,76.1,19.34,15.38,54.45,37,70,27.16s6.2-45-8.41-71.69c-14.15-25.82-35.39-84.75-83.14-152.11C777,690.46,745.18,633.06,713.74,587c-44.12-64.69-101-121-119.55-145.54-13-17.14-27-42.32-49.55-71.41-39.71-51.2-71.34-88.75-100.18-114.25C406.52,222.23,339,201,272.41,262.26Z" transform="translate(0 0)" fill="#ea6400"/>
        <path d="M292.77,274.52c-29.08,33.91-36.94,76.05-7.93,116.69s51.78,63.3,77.81,87.77c31.63,29.74,61,54.33,83.77,76.85s33.25,43.37,73.25,80.62c49.37,46,97,68.09,133,96.25,15.8,12.38,36.33,44.29,79.09,79.67,60.95,50.43,82.15,56.64,98.64,67.94C844.26,889.84,861,900.48,870,903c20.35,5.57,21.56-10,7-36.63-14.15-25.82-35.39-84.75-83.14-152.11C777,690.46,745.18,633.06,713.74,587c-44.12-64.69-101-121-119.55-145.54-13-17.14-27-42.32-49.55-71.41-39.71-51.2-71.34-88.75-100.18-114.25C406.52,222.23,344.74,213.92,292.77,274.52Z" transform="translate(0 0)" fill="#ff7900"/>
        <path d="M417.1,265.48c-21.14-5.33-44.25,10.87-10.4,53.14,20.2,25.22,65.37,75.09,77.63,89.61,17.54,20.76,45.83,71.43,113.81,143.36,51.38,54.36,82.62,70.42,107,100.12s56,74.54,74.55,97.07c17.35,21.12,31.2,34.7,39.84,44.35,10.6,11.83,17.2,9,11.35-2.89-9.54-19.31-31.94-50.56-49.14-75.66-20.34-29.68-33.65-55.5-50.72-80.25-24.27-35.18-70.56-95.16-91.54-116S589.34,462,581,449.48,534.65,378,514,355.67,460.22,276.33,417.1,265.48Z" transform="translate(0 0)" fill="#ff9f50"/>
        <g>
          <path d="M516.92,645.87s28-45.44,60.17-65.46C553.43,586.8,525.49,609.46,516.92,645.87Z" transform="translate(0 0)" fill="#db5800"/>
          <path d="M582.69,602.66s35.26-40,70.38-54.31C628.67,550.63,597.3,568.23,582.69,602.66Z" transform="translate(0 0)" fill="#db5800"/>
          <path d="M615.26,466.28a90.68,90.68,0,0,0-37.63,39.62,290.19,290.19,0,0,1,42.21-34.47Z" transform="translate(0 0)" fill="#db5800"/>
          <path d="M674.69,745.07s30.28-43.94,63.47-62.26C714.2,688,685.13,709.15,674.69,745.07Z" transform="translate(0 0)" fill="#db5800"/>
          <path d="M567.22,722.34S595.8,671.91,630,648.91C604.52,656.78,575.09,682.48,567.22,722.34Z" transform="translate(0 0)" fill="#db5800"/>
          <path d="M388.94,546.34S420.13,493,457,469C429.65,477.05,397.81,504.06,388.94,546.34Z" transform="translate(0 0)" fill="#db5800"/>
          <path d="M362.44,430.44s36.38-42.75,73.2-58.46C409.88,374.89,377.09,394,362.44,430.44Z" transform="translate(0 0)" fill="#db5800"/>
          <path d="M285.29,358.2s34.62-44.18,70.78-61.36C330.45,300.78,298.46,321.21,285.29,358.2Z" transform="translate(0 0)" fill="#db5800"/>
          <path d="M464.8,510.45s31.84-39.88,64.86-55.2C506.33,458.62,477.08,476.93,464.8,510.45Z" transform="translate(0 0)" fill="#db5800"/>
          <path d="M310.93,461.57s24.65-44.69,54.61-65.35C343.11,403.48,317.37,426.45,310.93,461.57Z" transform="translate(0 0)" fill="#db5800"/>
          <path d="M474.35,285.26a85,85,0,0,0-42.93,34.37s21.23-17.67,47.14-29.79Z" transform="translate(0 0)" fill="#db5800"/>
          <path d="M444.89,615.72l4.77,5s16.44-27.78,37.27-43.5C486.93,577.18,464.05,585.9,444.89,615.72Z" transform="translate(0 0)" fill="#db5800"/>
          <path d="M681.54,800.31S706.79,756,737,735.7C714.5,742.66,688.46,765.28,681.54,800.31Z" transform="translate(0 0)" fill="#db5800"/>
          <path d="M803.38,728a83.9,83.9,0,0,0-31.87,33.39,263,263,0,0,1,35.73-27.54Z" transform="translate(0 0)" fill="#db5800"/>
          <path d="M726,849.69l5.42,4.07c19.1-28.89,33-39.11,33-39.11S748.42,819.09,726,849.69Z" transform="translate(0 0)" fill="#db5800"/>
          <path d="M807.59,905.42l3.39,2.11s17.73-28.8,35.38-40.73C832.21,870.88,818.27,884.76,807.59,905.42Z" transform="translate(0 0)" fill="#db5800"/>
        </g>
      </g>
    </g>
  </g>
</svg>
