<svg xmlns="http://www.w3.org/2000/svg" viewBox="0 0 524.08 456.08">
  <title>13-broccoli</title>
  <g style="isolation: isolate">
    <g id="Layer_2" data-name="Layer 2">
      <g>
        <path d="M480.22,454.24c-8.35-1.68-31.46-6.13-24.67-20,2.29-4.68-.34-12.46-6.71-11.7-11,1.29-19.66-4.62-21.88-15.53-.8-3.93-5.85-6.84-9.64-5.47-21.9,7.88-26.91-11.59-40.14-23.29-5.81-5.15-12.61-7.8-19.53-7.33-6.36-25.87-36.32-40.77-56.95-24.59a7.78,7.78,0,0,0-6.48-3.69l-3.87,0a14.24,14.24,0,0,0-3.64-6.07c-4.36-4.38-23.54-3.28-24-5.09-1.31-5.66-8.64-7.1-12.57-3.32-6.69,6.44-8.3,13-6.79,22a5.52,5.52,0,0,0,1.39,2.74c.15,12.21,2.47,26.12,12.89,33.12,7,4.68,16.17,6.3,23.37,10.43,5.83,3.34,10.44,5.32,15.9,5.61a23.83,23.83,0,0,0,13.89,23.67c-7.43,16.9,1.14,35.39,18.89,41-2.08,15.91-.12,32,15.68,40.75,6,3.32,3.71,1.33,6.56,6.29,1.61,2.79,1.41,6,4.07,8.66,3.8,3.78,8.81,4.68,13.87,4.55,4.95,10.78,10.72,26.35,19.39,31.7,6.39,3.95,14.65,5.76,21.42,9.2,5.26,2.67,36.84,5.4,30.53.07-2.2-1.86-4.51-3.6-6.84-5.3-1.06-2.38-2.11-4.77-3.16-7.15a20.52,20.52,0,0,1,9.83-7.48c.6-.4,3.72-1.21,4.6-2.19,3.46-3.85,3.33-11.23,4.51-16.08,1.76-7.26,8.66-59.24,21.84-52.14a6.8,6.8,0,0,0,9.86-4q1.59-5.38,3.19-10.76C486.07,459.36,483.84,455,480.22,454.24Z" transform="translate(-133.44 -166.72)" fill="#0a4902"/>
        <path d="M657.1,443.49c-3.51-21.2-20.24-39.3-38-50.67v-.06c2.35-13.3-3.93-29.64-9.89-41.25,6.61-10.83,8.21-24.17,3.16-36.15-2.88-6.84-8.44-11.86-11.51-18.53-2.47-5.38-3.18-10.71-8.6-14-1.47-.91-3-.9-4.39-1.56a18.36,18.36,0,0,1-13.4-4.84l-2-2.93c-4.3-4-6.81-8.23-13-9.84-5-1.31-11-1.12-17.16-.11A43.72,43.72,0,0,0,529.85,245a76.49,76.49,0,0,0-17.56-11.32c-9.62-4.7-12.4-4.11-13.28-15.61a3.33,3.33,0,0,0-4.15-3.17l-11.08,2.7c-1.64-13.85-23.24-11.34-33.86-11.89-16-.82-33.43-2.25-46.37,7.42a55.11,55.11,0,0,0-6.72-20.77,4.26,4.26,0,0,0-3.74-2.15l-8.23.77q-.21-3.56-.43-7.11c-.22-3.55-3.51-5.17-6.61-3.79l-8.22,3.65a21.94,21.94,0,0,0-4.23-6.83,4.15,4.15,0,0,0-4.15-1.1c-2.87,1.09-5.75,2.14-8.62,3.21-.59-5.75-2.88-10.47-9.59-11.83s-13.23.4-18.77,3.9a11.2,11.2,0,0,0-5-2.09,13.73,13.73,0,0,0-10.42,2.51c-2.09,1.4-3.44,5.05-5.53,6.06a6.19,6.19,0,0,0-1.59,1c-.06-.22-.45-.63-2-1.14-8.59-2.89-12.91-9.11-23-3.61A18.16,18.16,0,0,0,268,184.5c-6.64-.7-14.5,2.73-19.2,7.72-13.83,14.71-14.51,37-7.7,55a23,23,0,0,0-5.9,18.42,27.09,27.09,0,0,0-7.65,1.71,4.82,4.82,0,0,0-3.35,4.4,53.09,53.09,0,0,0,.54,16.19,21.36,21.36,0,0,0-13,2.38c-1.76.86-2.32,3-2,4.8a34.36,34.36,0,0,0,13.93,21.78,35.86,35.86,0,0,0,4.53,2.7c-2.11,10.8-6,23.62-6.56,35.69a56.15,56.15,0,0,0,0,6c.45,11.1,5.31,17.6,12.55,21.65a36.78,36.78,0,0,0,4.61,2.16C255.38,397,270.38,385,288.38,382c0,9,9,6,11.38,11.9a34.27,34.27,0,0,0,4.08,2.61,35.5,35.5,0,0,0,22.77,3.74,23,23,0,0,0,17.85,13.34,37.26,37.26,0,0,0,2.66,13.19c1.6,4.16,4.86,5.87,9.23,5.24a271.06,271.06,0,0,0,40.72-9.17,28.09,28.09,0,0,0,18.79,16.42L413.12,444c-1.28,2.23-1.59,5.65,0,7.84a51.56,51.56,0,0,0,7.8,8.58,28.75,28.75,0,0,0-.77,17.08c-18.46,9.41-22.34,32.77-18.19,52.66.94,4.48,1.88,9.78,3.78,14.29a23.3,23.3,0,0,0,2.25,4.19c12.39,16.33,27.39,34.33,47.26,34.8,1.6.63,3.18,1.23,4.79,1.77,14.21,4.79,29.53,5.45,44.4,5.38,3,0,6.13,0,9.27,0,1.57,0,3.16-.06,4.78-.11a93.58,93.58,0,0,0,13.29,0c2.22-.17,4.44-.41,6.65-.74,26,2.28,59-12.72,50.44-44.32.25-1.49.5-3,.7-4.6q1.65-2.14,3.25-4.32,3.2-4.37,6.22-8.86c12.85-2.87,21.94-13.88,21.17-27,9.06-5.57,14.66-14.47,15.11-24.88C650.31,475.17,659.65,458.86,657.1,443.49Z" transform="translate(-133.44 -166.72)" fill="#2f7d06"/>
        <path d="M139.9,536s71.47-50.75,85.56-79.06,36.88-94.26,38.26-112.64S281.2,311.5,281.2,311.5l19.54,9.29s8.59,59.39-8.63,80.07,55.63-48.47,63.53-63.76,31.09-8.54,31.09-8.54l13.88,12.14,12.19,14.4L361.7,407s54.8-40.26,59.62-34.89,19,19.48,19,19.48-59.59,49-68.63,56.41-22.27,41.61-41.75,60.6-125.43,82.82-125.43,82.82-27.74-10.14-41.33-20.29S139.9,536,139.9,536Z" transform="translate(-133.44 -166.72)" fill="#78a719"/>
        <path d="M139.9,536s71.47-50.75,85.56-79.06,36.88-94.26,38.26-112.64S281.2,311.5,281.2,311.5l19.54,9.29s8.59,59.39-8.63,80.07,55.63-48.47,63.53-63.76,31.09-8.54,31.09-8.54l13.88,12.14,12.19,14.4L361.7,407s54.8-40.26,59.62-34.89,19,19.48,19,19.48-59.59,49-68.63,56.41-22.27,41.61-41.75,60.6-125.43,82.82-125.43,82.82-27.74-10.14-41.33-20.29S139.9,536,139.9,536Z" transform="translate(-133.44 -166.72)" fill="#78a719"/>
        <path d="M518,364.63c3.79-14.83-4.85-30.64-19-35.75,4.74-12.08.32-26.62-11.27-34.37-16.35-10.95-35.35-7-53.3-2.16q2.09-6.44,4.18-12.86c1.91-5.9-4.28-12-10.13-10.13l-.68.22a105.36,105.36,0,0,0,.82-23.47c-.26-3.58-2.44-7.42-6.26-8.22a112.43,112.43,0,0,1-12.49-3.42c-1-8.35-8-16-16-18.24A22.37,22.37,0,0,0,377,218.6l-3.54-2.12c-5.18-3.16-10.83-6.06-17.09-6.08-4,0-7.72,2-11.54,2.26-5.58.33-10.53-2.26-15.58-3.86-9.69-3.08-20.67-6.57-28.52,2.48a16.81,16.81,0,0,0-4.15,12c-6.1,2.12-12,4.79-17,8.9-7.41,6.13-7.67,14.14-13.08,20.95-5.17,6.5-14.57,2.21-20.31,8.92-4.25,5-6.78,12.42-8.81,19.77-5.26,1.73-9.24,8.84-10.07,13.79-1.13,6.68,2.12,19,8.67,23.45a18.29,18.29,0,0,0,6.87,11c5.65,4.32,11.9,4.63,17.47,1.66a17,17,0,0,0,23.77.56c3.84,8.55,12.4,14,22.75,10.74a35,35,0,0,0,6.28-3.19c5.25-2.89,6.18-3.87,13.1-4.71a128.49,128.49,0,0,0,17.29-2.84c4.58-1.2,7.95-4.18,11.83-6.24l4.74,15.19a4.68,4.68,0,0,0,4.44,3.38l9.78-.66c.63,9.75,9.72,17.14,19.36,16.28,0,1.5,0,3,0,4.48A5,5,0,0,0,396,370.3a33.39,33.39,0,0,0,11.42,4.38c.73,7.33,1.48,11.45,8.43,17.11a34.66,34.66,0,0,0,15.09,6.89,28.94,28.94,0,0,0,1.81,6.51,5.84,5.84,0,0,0,5.39,4.11l3.37.18c-1.34,24.06,53.68,13.18,65.33,3.75,9.39-7.61,18.11-21.86,17.88-34.27C524.59,372.8,522.27,367.27,518,364.63ZM234.72,301.31a6.89,6.89,0,0,0,1.9,1.66c-.15.67-.28,1.35-.41,2a14,14,0,0,1-1.47-3.56S234.73,301.36,234.72,301.31Z" transform="translate(-133.44 -166.72)" fill="#92cf36"/>
        <path d="M624.89,486.82c5.18,1,1.4-20,.13-22.21a20.58,20.58,0,0,0-11.67-9.49c2.66-5.34,3.43-10.72,2.56-17.36-.37-2.82-2.39-4.69-5.35-4.07l-13.86,2.88c-1.67-17.83-19.55-24.18-36.13-26.29a37.19,37.19,0,0,1,14.54-8.34c2.2-.71,3-2.6,2.71-4.77-1.11-8.19-5.36-14.32-12-17.91a79.85,79.85,0,0,0,21.25-25.9,3.72,3.72,0,0,0-2.18-5.38A48.92,48.92,0,0,0,564,344.85c3.51-7.29,7.47-15,3-22.74-2.58-4.44-6.44-6.82-10.86-6.9,1.1-9.68-6.61-17.88-16.39-18.21a33.15,33.15,0,0,0-2.19-9.75,3.07,3.07,0,0,0-2.87-2.19,56.8,56.8,0,0,0-17.89,3.35q-.76-7.05-1.54-14.09a1.65,1.65,0,0,0-1.15-1.51c-5-1.77-7.64.18-12.2-.41-4.38-.57-4.75-2.57-8.59-4.55a19,19,0,0,0-12.46-1.51c-2.1.45-7.26,4.59-8.65,4.63-2.48.08-3.92-2.7-6.22-4a21.25,21.25,0,0,0-12.22-2.4,19.24,19.24,0,0,0-14.14,8.06c-6.34,4.67-8.19,15.25-7.25,23A31.61,31.61,0,0,0,446,318.55a24.38,24.38,0,0,0-3.34,14.92c.18,2.37,1.67,5.12,4.26,5.59,1.22.22,2.43.47,3.65.7-4.19,3.08-7.37,6.83-7.52,12.7-.24,9.2,12.37,24.8,7.29,31.27-1.82,2.31-6.34,3.24-8.5,5.9a19.51,19.51,0,0,0-4.21,10.89c-.75,7.45,2,15,5.64,21.69a13.73,13.73,0,0,0-3.69,5.14A19.41,19.41,0,0,0,438.54,439c.35,1.8,1.4,3.25,1.76,5a9.08,9.08,0,0,1,.77,7.26q1.77,5.42-2.81,8.29c-5.81,13.88,2,21.85,13.39,24.3-2.18,9,3.45,20.16,8.52,28,4.85,7.51,2.84,19,9.34,25.15,2.45,2.3,8.55,1.95,12.7,1.72-2.78,13.16,10.31,24,23.79,26,13,2,26.81.88,39.94,1,10.63.08,21.8.79,32.08-2.56,6.8-2.22,13.41-6.21,16.52-12.94a26.28,26.28,0,0,0,2-9.62q0-3.64-.11-7.29,4-6.64,10.8-5.86c5.35-2.28,8.33-3.37,10.84-9.21,2.85-6.61.74-18.91,7.86-23.06C629.15,493.28,628.85,487.57,624.89,486.82Z" transform="translate(-133.44 -166.72)" fill="#0a4902" opacity="0.59" style="mix-blend-mode: screen"/>
        <path d="M454.51,554.71q-7.63-7.35-3.74-16.14a4.07,4.07,0,0,0-2.79-4.9q-.84-3.39-1.69-6.78c.19-.34.4-.65.58-1,1.95-3.84-3.09-8.38-6.26-4.83a15,15,0,0,0-2.28,3.35c-12.62,17.39-39.14,7.12-57.11,6.06a118.77,118.77,0,0,0-22.48.86,14.94,14.94,0,0,0,3.43-2c5.55-4.87,6.39-12.43,10.76-18,8.41-10.73,22.28-7.64,34.13-9.27,12.53-1.72,24.45-6.15,36.78-8.83,3.68-.8,3.5-5.43,1-7.29-6.89-5.05-16.79-12.54-14.08-23.2a4.72,4.72,0,0,0-1.22-4.62C419,449.25,414.66,438,416.42,424.35c.63-5-7.44-7-9.48-2.57-11.17,24.35-33.77,44.07-60.57,48.61-13.5,2.29-27,1.39-39.94,6.43-9.26,3.6-17.3,9.48-24.48,16.26-16.11,15.21-26.9,35.25-43.68,49.81-11.63,10.08-29.57,15.48-39.13,27.59a8.46,8.46,0,0,0-4.29,7.42,29.23,29.23,0,0,0-1.74,6,7.34,7.34,0,0,0,4.94,8.71c6.37,2.49,9.48,6.27,12.21,12.09,1.34,2.88,4.23,3.84,7,3.45a1.08,1.08,0,0,0,1.11,1.06,1.16,1.16,0,0,0,1.05-1.62,8.36,8.36,0,0,0,1.36-.71c.82,2.68,4.08,4.47,6.59,1.8,29.5-31.45,76.61-23.21,115.22-28.34,35.15-4.67,72.91-31,109-20.48A3.07,3.07,0,0,0,454.51,554.71Z" transform="translate(-133.44 -166.72)" fill="#66960e"/>
        <path d="M219.8,590.6c-7-11.08-15.46-24.82-25.63-33.42-5.11-4.32-11.25-6.53-17.21-9.35-7-3.32-11.67-8.05-17.77-12.47-6.85-5-15.31-7.08-21.83-1.34-1.25-.59-2.89-.29-3.15,1.41-4.16,27,9,48.23,29.33,64.54,9.53,7.66,17.16,18.93,29.66,21.93,8.63,2.07,22.37.85,28.75-6.29C228.58,608.2,224.31,597.72,219.8,590.6Z" transform="translate(-133.44 -166.72)" fill="#cdd777"/>
        <path d="M255.73,351.11c-.36-1.76.2-3.94,2-4.8,4.5-2.22,11.83-12.82,12.46-18.57a4.8,4.8,0,0,1,3.35-4.4,27.09,27.09,0,0,1,7.65-1.71,23,23,0,0,1,5.9-18.42c-6.81-17.95-6.13-40.28,7.7-55,4.7-5,12.56-8.42,19.2-7.72a18.16,18.16,0,0,1,8.77-10.7c10-5.5,14.37.72,23,3.61,1.54.51,1.93.92,2,1.14a6.19,6.19,0,0,1,1.59-1c2.09-1,3.44-4.66,5.53-6.06A13.73,13.73,0,0,1,365.21,225a11.2,11.2,0,0,1,5,2.09c5.54-3.5,11.93-5.28,18.77-3.9s9,6.08,9.59,11.83c2.87-1.07,5.75-2.12,8.62-3.21a4.15,4.15,0,0,1,4.15,1.1,21.94,21.94,0,0,1,4.23,6.83l8.22-3.65c3.1-1.38,6.39.24,6.61,3.79q.22,3.56.43,7.11l8.23-.77a4.26,4.26,0,0,1,3.74,2.15,55.11,55.11,0,0,1,6.72,20.77c12.94-9.67,30.36-8.24,46.37-7.42,10.62.55,32.22-2,33.86,11.89l11.08-2.7a3.33,3.33,0,0,1,4.15,3.17c.88,11.5,3.65,10.91,13.28,15.61A76.49,76.49,0,0,1,575.85,301a43.72,43.72,0,0,1,12.55,18.5c6.18-1,12.13-1.2,17.16.11,4.37,1.14,6.9,3.63,9.54,6.39a37.81,37.81,0,0,0-2.69-10.65c-2.88-6.84-8.44-11.86-11.51-18.53-2.47-5.38-3.18-10.71-8.6-14-1.47-.91-3-.9-4.39-1.56a18.36,18.36,0,0,1-13.4-4.84l-2-2.93c-4.3-4-6.81-8.23-13-9.84-5-1.31-11-1.12-17.16-.11A43.72,43.72,0,0,0,529.85,245a76.49,76.49,0,0,0-17.56-11.32c-9.62-4.7-12.4-4.11-13.28-15.61a3.33,3.33,0,0,0-4.15-3.17l-11.08,2.7c-1.64-13.85-23.24-11.34-33.86-11.89-16-.82-33.43-2.25-46.37,7.42a55.11,55.11,0,0,0-6.72-20.77,4.26,4.26,0,0,0-3.74-2.15l-8.23.77q-.21-3.56-.43-7.11c-.22-3.55-3.51-5.17-6.61-3.79l-8.22,3.65a21.94,21.94,0,0,0-4.23-6.83,4.15,4.15,0,0,0-4.15-1.1c-2.87,1.09-5.75,2.14-8.62,3.21-.59-5.75-2.88-10.47-9.59-11.83s-13.23.4-18.77,3.9a11.2,11.2,0,0,0-5-2.09,13.73,13.73,0,0,0-10.42,2.51c-2.09,1.4-3.44,5.05-5.53,6.06a6.19,6.19,0,0,0-1.59,1c-.06-.22-.45-.63-2-1.14-8.59-2.89-12.91-9.11-23-3.61A18.16,18.16,0,0,0,268,184.5c-6.64-.7-14.5,2.73-19.2,7.72-13.83,14.71-14.51,37-7.7,55a23,23,0,0,0-5.9,18.42,27.09,27.09,0,0,0-7.65,1.71,4.82,4.82,0,0,0-3.35,4.4,53.09,53.09,0,0,0,.54,16.19,21.36,21.36,0,0,0-13,2.38c-1.76.86-2.32,3-2,4.8a34.36,34.36,0,0,0,13.93,21.78,35.17,35.17,0,0,0,4.53,2.7c-2.11,10.8-6,23.62-6.56,35.69a56.15,56.15,0,0,0,0,6c.45,11.1,5.31,17.6,12.55,21.65a36.78,36.78,0,0,0,4.61,2.16C247.21,391.09,257.65,360.43,255.73,351.11Z" transform="translate(-133.44 -166.72)" fill="#cdd777" opacity="0.43" style="mix-blend-mode: screen"/>
        <path d="M355.37,326.06c-.36.18-.69.41-1,.61-2.24,2.46-4.17,5.34-6.81,8-6.4,6.55-14,11.63-21.51,16.78-15.58,10.68-29,22.61-40.63,37.61-12.56,16.25-21.62,34.36-33.39,51-7.09,10-14.58,19.82-22.16,29.48-8,10.18-14.12,21.45-22.45,31.3-.39.46.23,1.11.66.67,8.92-9.25,19-16.49,27.63-26.12q10.85-12.15,21.25-24.68c14.26-17.14,28.49-33.47,41.82-51.38C311.45,382.34,327.91,371,343.52,357c4.45-4,11.5-10,16.29-16.7Z" transform="translate(-133.44 -166.72)" fill="#d3eaa2"/>
        <path d="M387.79,353c-5.84,4.17-10,10-15.47,14.69-6,5.08-12.63,9.31-18.62,14.38C340,393.73,335.87,408.63,326,423c-11.85,17.25-28.09,33-42.21,48.46-15.65,17.07-30.95,34.43-46.65,51.46a.47.47,0,0,0,.66.66c16.82-15.9,34-31.41,50.84-47.27,15.78-14.83,34.45-28.12,47.84-45.22,5.53-7.07,8.39-14.9,12.73-22.61,4.81-8.53,11.44-14.77,18.62-21.24,9.34-8.42,23.33-18.12,24.34-31.67C392.35,353.43,389.55,351.76,387.79,353Z" transform="translate(-133.44 -166.72)" fill="#83b51e"/>
        <path d="M362.17,529.34c5.55-4.87,6.39-12.43,10.76-18,8.41-10.73,22.28-7.64,34.13-9.27,12.53-1.72,24.45-6.15,36.78-8.83,3.68-.8,3.5-5.43,1-7.29-6.89-5.05-16.79-12.54-14.08-23.2a5.51,5.51,0,0,0,.12-.92c-12.09,6.24-25.61,6.75-38.22,12.36-7.09,3.15-12.64,8.3-19.37,12-9,4.94-19.86,6.7-29.34,10.72-25.23,10.69-49.69,25.16-72.51,41.12-11.1,4.85-21.45,11.13-27.22,20.18-.76,1.2.69,2.24,1.77,1.77,24-10.58,48.41-23,74.48-27.68,13.65-2.43,27.53-1.34,41.28-2.62A4.27,4.27,0,0,0,362.17,529.34Z" transform="translate(-133.44 -166.72)" fill="#83b51e"/>
      </g>
    </g>
  </g>
</svg>
