<svg id="steak" xmlns="http://www.w3.org/2000/svg" xmlns:xlink="http://www.w3.org/1999/xlink" viewBox="0 0 297.61 251.24">
  <defs>
    <clipPath id="clip-path" transform="translate(-114.75 -157.49)">
      <rect x="114.75" y="157.49" width="297.61" height="251.24" fill="none"/>
    </clipPath>
  </defs>
  <title>15-steak</title>
  <g clip-path="url(#clip-path)">
    <path d="M320.15,222.36,308.93,226c8.42,1.17,10.58.44,11.22-3.59m-99.52-23.58c3.6-4.36,7.92-7.49,13.7-8.3a12.38,12.38,0,0,0,3.4-1.33c.41-.19.94-.65,1-1a1.42,1.42,0,0,0-.85-1.07c-3.15-.67-6.34-1.53-9.27.77-2.66,2.08-5.37,4.09-8,6.2-2.27,1.8-2.24,2.38.07,4.74m17.66-20.47c0,.33,0,.67.07,1,1.6.77,3.17,1.64,4.82,2.27,2.12.81,4.34,1.14,5.95-.94a44.6,44.6,0,0,0,3.36-5.22c1.21-2.17,2.37-4.37,3.38-6.63a47.86,47.86,0,0,0,1.61-4.87l-1-.64c-5.33,5.93-10.74,11.74-18.21,15m-24.94,43.36a12.36,12.36,0,0,0,8.36-7.6c1.63-4,2.07-7.94-1.13-11.5-1.6-1.78-3.71-1.85-4.46.15a45.49,45.49,0,0,0-2.77,18.95m-62.68,32.7-.41-.28a5,5,0,0,0-.85.47c-7.13,6.13-14.34,12.19-21.33,18.48-1.75,1.57-2.92,3.84-4.18,5.91-1,1.7-.51,3.16,1.52,3.52a9.75,9.75,0,0,0,4.56,0c4.39-1.45,7.89-4.19,9.56-8.63a57.9,57.9,0,0,1,8.84-15.24,27.94,27.94,0,0,0,2.29-4.21M267,190.54c1.31-.65,2.2-.84,2.7-1.38,2.28-2.53,5.26-3.6,8.39-4.5a16.49,16.49,0,0,0,3.81-1.64c3.05-1.81,6-3.73,9-5.63,3.15-2,6.38-3.1,10.13-1.59a19.85,19.85,0,0,0,4.05.74c.11-.27.23-.55.35-.82-.49-.35-1-.72-1.47-1-5.65-3.52-11.23-7.19-17-10.46-2-1.15-4.62-1.34-7.5-2.12.58,1.42.9,2,1.08,2.69,1.55,5.52,1.54,10.34-2.14,13.68-2.31,2.09-4.91,3.87-7.39,5.77a10.39,10.39,0,0,0-4,6.29M298.84,291l.57-.67c-.74-.64-1.46-1.29-2.21-1.9-3-2.41-6.24-4.54-8.88-7.28-8.39-8.73-19.07-14.32-28.72-21.31-5.81-4.21-12.27-7.54-18.56-11.06-4.86-2.71-9.82-5.28-14.89-7.58-4.82-2.18-9.8-4-14.77-5.83a24.76,24.76,0,0,0-6.56-1.64c-6.16-.48-12.34-.62-18.51-1-8.45-.5-13.92,5.21-20.13,9.48,10-4.65,20.61-7,32.31-7.62L194,239.92c2.85-.58,5-1.3,7.09-1.39,9.13-.39,18.15.32,26.59,4.13,2.88,1.29,5.37,3.42,8.09,5.07,6.56,4,13.22,7.8,19.69,11.92a42.47,42.47,0,0,1,6.26,5.46c2.94,2.8,5.45,6.22,10.1,6.34a5.44,5.44,0,0,1,1.7.61c5.56,2.22,9.66,6.48,14.19,10.14,3.67,3,7.45,5.84,11.18,8.75m111.28,70.33c-2.79,4.57-5.16,8.63-7.74,12.56a8.18,8.18,0,0,1-3.15,2.57,84.65,84.65,0,0,1-8.84,3.89c-3.7,1.33-5.76,3.78-6,7.68-.19,2.95-.38,5.91-.3,8.86,0,1.13.51,2.76,1.32,3.21a4.45,4.45,0,0,0,3.55-.34c3.78-2,7.39-4.28,11.17-6.25,5-2.6,8-6.2,7.79-12.17-.22-5.74-.38-11.52,1.78-17a14.8,14.8,0,0,0,.42-3M251.42,189.71a2.83,2.83,0,0,1-.28-.2,5.21,5.21,0,0,0-.84.78c-3.1,4.54-6.59,8.88-9.14,13.71s-5.23,9.83-5.78,15c-1.23,11.59,4.73,20.48,14,26.61,7.28,4.81,14.81,9.22,21.71,14.62,3.49,2.73,7.71,4.61,10.88,7.63,4.92,4.68,9.2,10,13.78,15.05,1.75,1.92,3.61,3.75,5.41,5.61l.63-.6c-1.27-1.41-2.68-2.72-3.8-4.24-8.37-11.29-19-20.38-29.21-29.87-5.74-5.34-12.23-9.86-18.35-14.79a18.3,18.3,0,0,1-4-3.75C243,230,242.11,224,242.76,218a92.33,92.33,0,0,1,3.63-16.6c1.2-4,3.32-7.77,5-11.64m59.51,198.23c5.8,1.39,18.21,1,26.24-.81,2.53-.57,5.23-.76,7.56-1.78,10.89-4.78,22.4-6.18,34-5.66,6.77.3,12.58-1.08,17.95-4.95,5-3.62,9.35-7.89,11.48-13.91.95-2.68.25-5-2.13-6a118.39,118.39,0,0,0-11.66-4.5c-4-1.3-7.8-2.6-10.38-6.43-3.5-5.19-9.36-7.29-15-10.83,1.61,3,2.89,5.3,4.05,7.64,1.08,2.17,1.64,4.42.46,6.78-3,6.06-5.52,12.45-9.19,18.07-3.2,4.9-7.59,9.05-11.71,13.27-1.25,1.28-3.29,1.94-5.1,2.49-3.49,1.06-7.06,1.87-10.61,2.75a60.75,60.75,0,0,1-6.36,1.42c-6.55.9-13.11,1.67-19.64,2.49M291.73,282l.55-.58c-1.36-1.45-2.69-2.92-4.09-4.33-3.62-3.64-6.9-7.76-11-10.76-5.72-4.18-12.18-7.35-18.12-11.25-5.52-3.62-10.94-7.42-16.1-11.52-6.1-4.86-9.83-11.11-10.07-19.24-.18-6.29,2.28-11.93,3.95-17.74a21.38,21.38,0,0,1,4.31-8.26,161.91,161.91,0,0,0,18.56-26.09A12.91,12.91,0,0,0,260.84,162c-3.16,6.48-6.09,13-9,19.6-2.28,5.14-7.88,5.9-11.52,1.61a48.77,48.77,0,0,0-3.79-3.62c-.89.78-1.57,1.36-2.4,2.07,2.27,1.72,4.35,3.15,6.26,4.78,2.14,1.82,1.63,4.06-1,4.93-1,.33-2.08.37-3.06.73-2.83,1-5.86,1.81-8.38,3.38-3.81,2.37-4.58,6.37-2.89,10.54a12.1,12.1,0,0,1,.87,4.32c.06,5.09-1.9,10.84-6.24,12.56a40.24,40.24,0,0,1-21.55,2.74c-3.09-.49-6.09-1.5-9.15-2.1-2.63-.52-7.33,2.57-7.14,4.88.27,3.26,3.31,2.71,5.31,2.72,6.25,0,12.51-.26,18.76-.46a9.8,9.8,0,0,1,6.94,2.38,21.1,21.1,0,0,0,7.24,4c8.91,2.58,17.75,5.16,24.85,11.57a14,14,0,0,0,2,1.22c6.23,3.81,12.47,7.59,18.66,11.45,4.33,2.71,7.92,6.48,13,8.17,2,.67,3.62,2.6,5.2,4.18,2.74,2.72,5.31,5.62,8,8.44M150.26,301.91c-5.46,0-11.18,0-16.9,0a6.44,6.44,0,0,1-5.86-3.22c-.9-1.38-1.84-2.74-2.85-4-1.28-1.67-3.3-2.38-4.81-1.14a8.21,8.21,0,0,0-2.43,4.79c-.35,2.11.14,4.35.21,6.53.2,6,.59,12,3.68,17.48,2.63,4.6,4.85,9.4,9.6,12.49,7.4,4.82,15.93,4.85,24.14,5.93,10.54,1.38,21.23,1.64,31.77,3,8.81,1.13,17.5,3.16,26.25,4.7,3.17.57,6.4.79,9.56,1.37,7,1.29,11.54,7,17.51,10.13,6.15,3.26,11.67,7.77,17.95,10.69,11.47,5.35,23.31,9.93,35,14.84l.28-.6c-2.55-1.45-5.12-2.87-7.64-4.37A27.19,27.19,0,0,0,275.4,377c-1.63-.23-3.21-1.52-4.6-2.59-2-1.54-3.52-3.79-5.67-4.92-6.94-3.63-14.07-6.91-21.15-10.29-8.61-4.1-11.41-11.07-7.31-18.48a2,2,0,0,0-.72-.17c-6,.81-11.89,1.9-17.86,2.39a148.69,148.69,0,0,1-15.08.17c-8.72-.16-17.44-.11-26-2.4-5.38-1.44-11.09-1.8-16.35-3.57s-9.91-4.52-14.76-7c-2.28-1.17-4.29-2.86-6.54-4.09a7.21,7.21,0,0,1-4-5.44,10.53,10.53,0,0,0-1.15-3.43c-1.3-2.31-1.23-4.66.7-6.22a76.44,76.44,0,0,1,9.4-6.27,55.83,55.83,0,0,1,6-2.72m192.2,105.93c0-.12,0-.23.05-.35a45.54,45.54,0,0,0,5-.3q10.71-1.8,21.39-3.76c3.58-.65,7.15-1.39,10.7-2.19,2-.46,2.46-1.92,2.24-3.83-.28-2.52-.52-5.05-.58-7.58-.12-4.36-2.1-7.26-6.43-7.83a30.41,30.41,0,0,0-9.8.3c-8.88,1.82-17.66,4.07-26.5,6.11-4.41,1-8.8,2.19-13.27,2.81a38.34,38.34,0,0,1-8.55-.26c-3.46-.32-6.92-.76-10.34-1.36-6.43-1.13-13-1.83-19.2-3.79-6.94-2.21-13.5-5.64-20.24-8.5-2.32-1-4.87-1.58-7-2.86-7.12-4.23-14.39-8.29-21.06-13.16a55.76,55.76,0,0,0-20.6-9.79c-9.69-2.22-19.4-4.4-29.19-6.11a106.71,106.71,0,0,0-20.27-2c-8.23.16-16.38.59-24.47-1.36-9.66-2.34-18.14-6.33-23-15.65a13.42,13.42,0,0,0-1.62-2.65,2.36,2.36,0,0,0-1.77-.65c-.27,0-.75,1-.67,1.44.45,2.55,1,5.07,1.59,7.59.19.83.79,1.58.9,2.42,1.22,9.4,8.28,15.31,17.23,17.31,5.94,1.32,11.91,2.58,17.73,4.32a231.83,231.83,0,0,0,34.54,7.29c6.49.9,12.94,1.88,19,4.71,7.42,3.48,14.94,6.74,22.37,10.19,5.19,2.4,10.61,4.14,15.6,7.19,4.66,2.84,10.29,4.12,15.52,6,9.4,3.44,18.75,7.09,28.27,10.17,6.78,2.19,13.72,4,21,3.79,5.48-.13,11,.14,16.46.55,5,.37,10,1.18,15,1.8m-80-212.38c.46-1.86.84-3,1-4.18.65-4.42,3.14-7.45,7-9.57,2.13-1.19,4.27-2.39,6.28-3.76,3.12-2.13,4.46-6.25,2.69-9.5-3.18-5.86-6.17-8.65-12.69-8.16-1.87.13-2.7.82-3.17,2.7-1.16,4.72-2.49,9.41-4,14-.91,2.8-2.33,5.43-3.39,8.19-2.63,6.92-5.26,13.75-9,20.24a23.86,23.86,0,0,0-2.79,17.23c1.85,8,6.59,14.33,12.92,19.52,6.75,5.51,13.59,10.91,20.08,16.73,5.18,4.64,9.84,9.87,14.83,14.74,2.55,2.49,5.75,4.41,7.89,7.18,3.06,4,5.41,8.52,8.1,12.79a23.17,23.17,0,0,0,3.25,4.71c3.86,3.65,7.78,7.27,12,10.54,7.68,6,15.89,11.19,25.67,13A33.68,33.68,0,0,1,363.6,328c3.33,2.49,7.33,4.07,11,6.06l.38-.68c-1.9-2.43-3.84-4.82-5.69-7.29-4.65-6.21-9.17-12.53-13.94-18.65a23.93,23.93,0,0,0-5.63-5c-2.14-1.43-4.8-2.08-6.91-3.54a63.18,63.18,0,0,1-8.68-7.13,17.47,17.47,0,0,1-3.67-5.95c-2.31-6-4.13-12.23-6.52-18.22-2.84-7.13-3.46-14.54-3.36-22.06.07-4.81.57-9.66-1.82-14.09a5.29,5.29,0,0,0-2.67-2.45c-7.61-2.44-14.34-.45-20.39,4.46-.52.42-1.12.74-1.68,1.11a20.56,20.56,0,0,1,11.63-9.28,51.86,51.86,0,0,0,8.85-3.71c3.12-1.81,6-5.41,3.35-10.17a10.74,10.74,0,0,1-1.24-3.69c-.78-5.77-1.31-11.57-2.15-17.33-1-6.74-5-10.13-11.59-11.29-4.28-.74-8.16-1-12.09,1.29-8.4,4.8-16.89,9.41-25.37,14.07a20.55,20.55,0,0,1-2.93,1m-69.35,42.72-.39-1.5c-3.81.54-7.76.62-11.4,1.71a146.87,146.87,0,0,0-17.14,6.37c-3.95,1.75-8.08,3.66-10.48,7.56a71.57,71.57,0,0,0-4.7,9.34,57.6,57.6,0,0,1-14.27,20.7A13.47,13.47,0,0,1,123,286.09c-3.15-.49-4.34.56-4.74,3.93,3.06-.37,5.36,1.13,7.48,3,1.41,1.26,2.58,3.11,4.22,3.74,3.8,1.45,7.77,3,11.77,3.29,12.87,1.05,22.79-5,31.17-14.13a12.35,12.35,0,0,1,2.1-2.22c4.77-3.05,9.55-6.07,14.42-9a20.07,20.07,0,0,1,4.84-1.8q5.8-1.59,11.67-3c2.84-.66,5.72-1.14,9.26-1.83-.67.82-.75,1-.88,1.06a123.88,123.88,0,0,0-26.32,9.3c-7.55,3.79-14.75,8-19.58,15.28a9.63,9.63,0,0,1-3.59,2.92c-7.84,4.14-15.74,8.16-23.61,12.23-5.69,2.94-6.33,8.79-2,13.36,3.8,4,8.54,6.33,13.25,8.73,6.14,3.13,12.42,6,19.55,6.2a66.94,66.94,0,0,1,8.82.92c6.86,1.09,13.67,3,20.56,3.34,8,.43,16.23.54,24-2.4a6.42,6.42,0,0,1,3.09-.17c7,1.08,13.27,0,17.82-6a15.21,15.21,0,0,1,7.56-5.22c3.54-1.25,6.8-3.38,10.1-5.28,2.46-1.43,4.77-3.11,7.15-4.67l.43.56c-.22.48-.44,1-.64,1.42l6.31-1.06c-.09.51-.26.7-.45.74-8,1.62-14,7.23-21.23,10.52-4.73,2.16-8.71,5.93-13.24,8.62-3.24,1.93-5.24,4.6-5.32,8.14-.08,4,2.12,6.86,6,8.41a43.43,43.43,0,0,1,5.26,2.79c3.09,1.79,6.13,3.67,9.23,5.44,5.65,3.21,11.34,6.36,17,9.55,1.44.81,2.82,1.74,4.28,2.49,4.56,2.35,9.51,4.14,13.62,7.09a20.27,20.27,0,0,0,15.88,3.9c7.83-1.25,15.69-2.33,23.53-3.56,7.12-1.11,14.18-2.63,19.94-7.28a58.5,58.5,0,0,0,9.14-8.93c5-6.29,9.82-12.92,9.56-21.51-.24-7.9-2.27-12.11-9.81-15.83-9.18-4.51-18.87-7.6-28.67-10.49-6.93-2.05-13.55-4.93-17.38-11.69a26.14,26.14,0,0,0-11-10.89c-8.11-4-14.15-10.63-21.59-15.4-4.1-2.63-8.37-5-12.51-7.56-1.91-1.18-3.73-2.5-5.53-3.85-4.23-3.16-8.31-6.54-12.67-9.51-3.14-2.14-7-3.27-9.87-5.71a52.08,52.08,0,0,0-22.08-11.43,73.6,73.6,0,0,0-31.92-.36c-4.37.86-8.82,1.34-13.45,2,5.78-4,12.67-4.53,19.12-6.24m129.25-.31c-1.59,11.15,1.63,19.67,4,28.33,1.13,4.13,2,8.33,3.32,12.39,1.55,4.74,3.52,9.47,7.49,12.68a133.21,133.21,0,0,0,13.3,9.26,45.62,45.62,0,0,1,14.75,15.33c6.47,10.53,13.39,20.79,23.4,28.3,3.69,2.77,8.35,4.25,12.58,6.32,2.66,1.3,5.43,2.42,7.94,3.95a5.6,5.6,0,0,1,2.56,3.33c.47,3,.94,6.27.37,9.23-1.19,6.1-2.43,12.14-2.09,18.41a16.51,16.51,0,0,1-.49,5.2,3.56,3.56,0,0,1-2.15,2.14c-6.19,1.62-11.2,5.41-16.62,8.49-3.29,1.87-7.25,3.52-10.93,3.55-9,.07-17.67,2-26.5,3-7.69.83-15.48.7-23.23.95-2.18.07-4.37-.11-6.56-.08a102.57,102.57,0,0,1-37.19-6.38c-9.33-3.41-19.06-5.75-28.43-9.07-6.48-2.29-12.64-5.52-19-8.19-12.71-5.36-25.28-11.08-38.23-15.76-8.57-3.09-17.65-4.88-26.59-6.81-12.64-2.72-25.42-4.72-38-7.64a23.1,23.1,0,0,1-14.74-10.44c-2.55-4.1-5.2-8.23-5.69-13.1-.6-6.06-.86-12.17-.9-18.26a161.71,161.71,0,0,1,.71-16.17,119.3,119.3,0,0,1,2.14-13.13,8.19,8.19,0,0,1,2.12-3.85c6-6.05,11.87-12.32,18.32-17.87,9.58-8.25,19.71-15.85,29.41-24,4.94-4.12,9.41-8.8,14.19-13.12a43.34,43.34,0,0,1,6.06-4.57,3,3,0,0,1,2.79.09c3,3.1,6.68,3.61,10.62,3.46,2.43-.09,4.86-.4,7.29-.63,1.77-.16,2.51-1.14,2.67-2.93.64-7,1.33-14.09,2.17-21.11a6.22,6.22,0,0,1,1.7-3.69c3.29-2.94,6.89-5.53,10.23-8.42,5.2-4.49,10.11-9.33,15.46-13.62,5.78-4.63,11.8-9,18-13.12,4.79-3.21,10.16-3.58,15.7-1.76,2,.65,4.09.84,6.11,1.38a57,57,0,0,1,23.2,12.15,13.3,13.3,0,0,0,1.8,1.49c7.73,4.64,11.12,11.63,12,20.45.59,6,2.7,11.79,3.32,17.76,1,9.27,1.23,18.61,1.68,26.06" transform="translate(-114.75 -157.49)" fill="#231f20"/>
    <path d="M193.15,238.18c-6.45,1.71-13.34,2.24-19.12,6.24,4.63-.69,9.08-1.17,13.45-2a73.6,73.6,0,0,1,31.92.36,52,52,0,0,1,22.08,11.43c2.82,2.44,6.73,3.57,9.87,5.71,4.36,3,8.44,6.35,12.67,9.51,1.8,1.35,3.62,2.67,5.53,3.85,4.14,2.57,8.41,4.93,12.51,7.56,7.44,4.77,13.48,11.43,21.59,15.4a26.14,26.14,0,0,1,11,10.89c3.83,6.76,10.45,9.64,17.38,11.69,9.8,2.89,19.49,6,28.67,10.5,7.54,3.71,9.57,7.92,9.81,15.82.26,8.59-4.55,15.21-9.56,21.51a58.5,58.5,0,0,1-9.14,8.93c-5.76,4.65-12.82,6.17-19.94,7.29-7.84,1.22-15.7,2.3-23.53,3.55a20.31,20.31,0,0,1-15.88-3.9c-4.11-3-9.06-4.74-13.62-7.09-1.46-.75-2.84-1.68-4.28-2.49-5.67-3.19-11.36-6.34-17-9.55-3.1-1.77-6.14-3.65-9.22-5.44a43.56,43.56,0,0,0-5.27-2.79c-3.84-1.55-6-4.43-6-8.41.08-3.54,2.08-6.21,5.32-8.14,4.53-2.69,8.51-6.46,13.24-8.62,7.2-3.29,13.24-8.9,21.23-10.52.19,0,.36-.23.45-.74L271,319.76l.64-1.42-.43-.56c-2.38,1.56-4.69,3.25-7.15,4.67-3.3,1.91-6.56,4-10.1,5.28a15.21,15.21,0,0,0-7.56,5.22c-4.55,6-10.82,7.1-17.82,6a6.42,6.42,0,0,0-3.09.17c-7.81,2.94-16,2.83-24,2.4-6.89-.37-13.7-2.25-20.56-3.34a66.94,66.94,0,0,0-8.82-.92c-7.13-.2-13.41-3.07-19.55-6.2-4.71-2.4-9.45-4.74-13.25-8.72-4.36-4.58-3.72-10.43,2-13.37,7.87-4.07,15.77-8.09,23.61-12.23a9.63,9.63,0,0,0,3.59-2.92c4.83-7.31,12-11.49,19.58-15.27a123.36,123.36,0,0,1,26.32-9.31c.13,0,.21-.24.88-1.06-3.54.69-6.42,1.17-9.26,1.83q-5.86,1.37-11.67,3a20.07,20.07,0,0,0-4.84,1.8c-4.87,2.88-9.65,5.9-14.42,9a12.7,12.7,0,0,0-2.1,2.22c-8.38,9.15-18.3,15.18-31.17,14.13-4-.32-8-1.84-11.77-3.29-1.64-.62-2.81-2.48-4.22-3.74-2.12-1.89-4.42-3.4-7.48-3,.4-3.37,1.59-4.42,4.74-3.93a13.47,13.47,0,0,0,11.73-3.73A57.6,57.6,0,0,0,149,261.66a71.57,71.57,0,0,1,4.7-9.34c2.4-3.9,6.53-5.81,10.48-7.56a145,145,0,0,1,17.14-6.36c3.64-1.1,7.59-1.18,11.4-1.72l.39,1.5" transform="translate(-114.75 -157.49)" fill="#b12424"/>
    <path d="M262.5,195.46a20.55,20.55,0,0,0,2.93-1c8.47-4.65,17-9.27,25.37-14.07,3.93-2.25,7.81-2,12.1-1.29,6.62,1.16,10.61,4.55,11.58,11.29.84,5.76,1.38,11.56,2.15,17.33a10.74,10.74,0,0,0,1.24,3.69c2.65,4.76-.23,8.36-3.35,10.17a51.86,51.86,0,0,1-8.85,3.71A20.56,20.56,0,0,0,294,234.54a19.52,19.52,0,0,0,1.68-1.11c6-4.91,12.78-6.9,20.39-4.47a5.35,5.35,0,0,1,2.67,2.46c2.39,4.43,1.89,9.28,1.83,14.09-.11,7.52.51,14.92,3.35,22.06,2.39,6,4.21,12.2,6.52,18.22a17.24,17.24,0,0,0,3.67,5.94,62.53,62.53,0,0,0,8.68,7.14c2.11,1.46,4.78,2.11,6.91,3.53a24.19,24.19,0,0,1,5.63,5c4.77,6.12,9.29,12.44,13.94,18.65,1.85,2.47,3.79,4.86,5.69,7.29l-.38.69c-3.7-2-7.69-3.58-11-6.07a33.68,33.68,0,0,0-14.53-6.08c-9.78-1.83-18-7-25.67-13-4.18-3.27-8.1-6.89-12-10.54a23.37,23.37,0,0,1-3.25-4.7c-2.69-4.28-5-8.81-8.1-12.8-2.14-2.77-5.34-4.7-7.89-7.18-5-4.87-9.65-10.1-14.83-14.75-6.49-5.8-13.33-11.21-20.08-16.73-6.33-5.18-11.07-11.51-12.92-19.51a23.86,23.86,0,0,1,2.79-17.23c3.79-6.49,6.42-13.33,9-20.24,1.06-2.76,2.48-5.39,3.39-8.19,1.5-4.62,2.84-9.31,4-14a3,3,0,0,1,3.17-2.71c6.52-.48,9.51,2.31,12.69,8.17,1.77,3.25.42,7.37-2.69,9.5-2,1.37-4.15,2.58-6.28,3.76-3.82,2.12-6.31,5.15-7,9.57-.18,1.18-.56,2.32-1,4.18" transform="translate(-114.75 -157.49)" fill="#981f26"/>
    <path d="M342.46,407.84c-5-.62-10-1.43-15-1.8-5.47-.41-11-.68-16.47-.55-7.3.18-14.24-1.6-21-3.79-9.53-3.08-18.86-6.73-28.27-10.17-5.23-1.91-10.86-3.19-15.52-6-5-3.05-10.41-4.79-15.6-7.19-7.43-3.45-14.95-6.71-22.38-10.19-6-2.82-12.48-3.81-19-4.71a231.83,231.83,0,0,1-34.54-7.29c-5.82-1.74-11.79-3-17.73-4.33-8.95-2-16-7.9-17.23-17.31-.1-.83-.71-1.58-.9-2.41-.59-2.52-1.15-5-1.59-7.59-.08-.45.4-1.42.67-1.44a2.36,2.36,0,0,1,1.77.65,13.42,13.42,0,0,1,1.62,2.65c4.9,9.33,13.37,13.31,23,15.65,8.1,1.95,16.24,1.52,24.47,1.36a106.71,106.71,0,0,1,20.27,2c9.79,1.71,19.5,3.89,29.19,6.11a55.69,55.69,0,0,1,20.6,9.79c6.67,4.87,13.94,8.94,21.06,13.16,2.14,1.28,4.69,1.87,7,2.86,6.74,2.86,13.3,6.29,20.24,8.5,6.18,2,12.77,2.66,19.2,3.79,3.42.6,6.88,1,10.34,1.36a38.35,38.35,0,0,0,8.55.26c4.47-.63,8.86-1.79,13.27-2.81,8.83-2,17.62-4.29,26.5-6.11a30.12,30.12,0,0,1,9.8-.29c4.33.56,6.32,3.46,6.43,7.82.06,2.53.3,5.06.58,7.58.22,1.91-.24,3.37-2.24,3.83q-5.32,1.2-10.7,2.19-10.68,1.95-21.39,3.76a45.54,45.54,0,0,1-5,.3c0,.12,0,.23-.05.35" transform="translate(-114.75 -157.49)" fill="#e7af9b"/>
    <path d="M150.26,301.91a54.84,54.84,0,0,0-5.95,2.72,75.81,75.81,0,0,0-9.41,6.27c-1.93,1.56-2,3.91-.7,6.22a10.61,10.61,0,0,1,1.15,3.43,7.21,7.21,0,0,0,4,5.44c2.25,1.23,4.27,2.92,6.54,4.09,4.85,2.5,9.63,5.3,14.76,7s11,2.13,16.35,3.57c8.56,2.28,17.28,2.24,26,2.4a148.69,148.69,0,0,0,15.08-.17c6-.49,11.9-1.58,17.86-2.39a2,2,0,0,1,.72.17c-4.1,7.41-1.3,14.38,7.31,18.48,7.08,3.38,14.2,6.66,21.15,10.29,2.15,1.13,3.69,3.38,5.67,4.92,1.39,1.07,3,2.36,4.59,2.59a27.18,27.18,0,0,1,10.32,3.53c2.52,1.5,5.09,2.92,7.64,4.37l-.28.6c-11.68-4.9-23.52-9.49-35-14.84-6.28-2.92-11.8-7.43-17.95-10.69-6-3.17-10.5-8.84-17.51-10.13-3.16-.58-6.39-.8-9.56-1.37-8.75-1.55-17.44-3.57-26.25-4.7-10.54-1.34-21.23-1.6-31.77-3-8.21-1.08-16.74-1.11-24.14-5.93-4.75-3.09-7-7.89-9.59-12.49-3.1-5.43-3.49-11.43-3.69-17.48-.07-2.19-.56-4.42-.21-6.53a8.29,8.29,0,0,1,2.42-4.79c1.52-1.24,3.54-.53,4.82,1.13,1,1.31,1.95,2.67,2.85,4a6.44,6.44,0,0,0,5.86,3.22c5.72-.06,11.44,0,16.9,0" transform="translate(-114.75 -157.49)" fill="#fbdfdd"/>
    <path d="M291.73,282c-2.64-2.82-5.21-5.72-8-8.44-1.58-1.58-3.22-3.51-5.2-4.17-5.06-1.7-8.65-5.47-13-8.18-6.19-3.86-12.43-7.64-18.66-11.45a13.44,13.44,0,0,1-2-1.22c-7.1-6.42-15.94-9-24.85-11.57a21.1,21.1,0,0,1-7.24-4,9.82,9.82,0,0,0-6.94-2.38c-6.25.2-12.51.51-18.76.46-2,0-5,.54-5.31-2.72-.19-2.31,4.51-5.4,7.14-4.88,3.06.6,6.06,1.61,9.15,2.1a40.29,40.29,0,0,0,21.54-2.74c4.36-1.72,6.31-7.47,6.25-12.56A12.1,12.1,0,0,0,225,206c-1.69-4.17-.92-8.17,2.89-10.54,2.52-1.57,5.55-2.34,8.38-3.38,1-.36,2.07-.4,3.06-.73,2.66-.87,3.16-3.11,1-4.93-1.91-1.63-4-3.06-6.26-4.78.82-.71,1.51-1.29,2.4-2.07a47,47,0,0,1,3.79,3.62c3.63,4.29,9.24,3.53,11.52-1.62,2.9-6.55,5.83-13.11,9-19.59a12.91,12.91,0,0,1-1.12,10.28,161.29,161.29,0,0,1-18.56,26.09,21.38,21.38,0,0,0-4.31,8.26c-1.67,5.81-4.13,11.45-3.95,17.74.24,8.13,4,14.38,10.07,19.24,5.16,4.1,10.58,7.9,16.09,11.52,5.95,3.9,12.4,7.07,18.13,11.25,4.1,3,7.38,7.12,11,10.76,1.4,1.41,2.73,2.88,4.09,4.33l-.55.58" transform="translate(-114.75 -157.49)" fill="#c88675"/>
    <path d="M374.79,374.57a20.1,20.1,0,0,0,3.85-.63,109.32,109.32,0,0,0,11.17-4.48,69.25,69.25,0,0,0,9.76-6c3.84-2.8,3.7-6.1-.37-8.44-2.22-1.26-4.88-1.75-7.3-2.69a19.47,19.47,0,0,1-5.1-2.35c-3.41-2.66-5.63-2.52-8.87.51-5.05,4.71-7.17,10.84-8.75,17.23-1,4,1.36,6.73,5.61,6.85m-63.86,13.37c6.53-.82,13.09-1.59,19.65-2.49a61.14,61.14,0,0,0,6.35-1.42c3.55-.88,7.12-1.69,10.61-2.75,1.81-.55,3.85-1.21,5.1-2.49,4.12-4.22,8.51-8.37,11.71-13.27,3.67-5.62,6.17-12,9.19-18.07,1.18-2.36.62-4.61-.46-6.78-1.17-2.34-2.44-4.62-4.05-7.64,5.63,3.54,11.49,5.64,15,10.83,2.58,3.83,6.35,5.13,10.38,6.43a118.39,118.39,0,0,1,11.66,4.5c2.38,1.06,3.08,3.36,2.13,6-2.13,6-6.43,10.28-11.48,13.91-5.37,3.87-11.18,5.25-17.95,4.95-11.63-.52-23.14.88-34,5.66-2.33,1-5,1.21-7.56,1.79-8,1.83-20.44,2.19-26.24.8" transform="translate(-114.75 -157.49)" fill="#ffece2"/>
    <path d="M251.42,189.71c-1.71,3.87-3.83,7.62-5,11.64a93.22,93.22,0,0,0-3.64,16.6c-.64,6,.26,12.06,3.69,17.3a18.3,18.3,0,0,0,4,3.75c6.12,4.93,12.61,9.45,18.35,14.79,10.19,9.49,20.84,18.58,29.21,29.87,1.13,1.52,2.53,2.83,3.8,4.24l-.63.61c-1.8-1.87-3.66-3.7-5.41-5.62-4.58-5-8.86-10.37-13.78-15.05-3.17-3-7.39-4.9-10.88-7.63-6.9-5.4-14.43-9.81-21.71-14.62-9.27-6.13-15.23-15-14-26.61.55-5.15,3.28-10.26,5.78-15s6-9.17,9.14-13.71a5.21,5.21,0,0,1,.84-.78l.28.2" transform="translate(-114.75 -157.49)" fill="#e2cbb7"/>
    <path d="M410.12,361.28a14.69,14.69,0,0,1-.42,3c-2.16,5.52-2,11.3-1.78,17,.23,6-2.81,9.57-7.79,12.17-3.78,2-7.39,4.28-11.17,6.25a4.43,4.43,0,0,1-3.56.34c-.8-.45-1.28-2.08-1.31-3.21-.08-2.95.11-5.91.3-8.86.24-3.9,2.3-6.35,6-7.68a82.6,82.6,0,0,0,8.84-3.89,8.18,8.18,0,0,0,3.15-2.57c2.58-3.93,4.95-8,7.74-12.56" transform="translate(-114.75 -157.49)" fill="#d59581"/>
    <path d="M298.84,291c-3.73-2.91-7.51-5.77-11.18-8.75-4.53-3.66-8.63-7.91-14.19-10.14a5.41,5.41,0,0,0-1.71-.61c-4.64-.12-7.15-3.54-10.09-6.34a42.47,42.47,0,0,0-6.26-5.46c-6.47-4.12-13.13-7.94-19.69-11.92-2.72-1.65-5.21-3.78-8.09-5.07-8.44-3.81-17.46-4.52-26.59-4.13-2.13.09-4.24.81-7.09,1.39l4.54-5.36c-11.7.66-22.26,3-32.31,7.62,6.21-4.26,11.68-10,20.13-9.48,6.17.36,12.35.5,18.51,1a24.76,24.76,0,0,1,6.56,1.64c5,1.82,10,3.65,14.77,5.83,5.07,2.3,10,4.87,14.89,7.58,6.29,3.52,12.75,6.85,18.56,11.06,9.65,7,20.33,12.58,28.72,21.31,2.64,2.74,5.91,4.87,8.88,7.28.75.62,1.47,1.26,2.21,1.9l-.57.67" transform="translate(-114.75 -157.49)" fill="#ecbcb1"/>
    <path d="M267,190.54a10.43,10.43,0,0,1,4-6.29c2.48-1.9,5.08-3.68,7.39-5.77,3.68-3.34,3.69-8.16,2.14-13.68-.18-.65-.5-1.27-1.08-2.69,2.88.78,5.46,1,7.5,2.12,5.79,3.27,11.37,6.94,17,10.46.51.31,1,.68,1.47,1-.12.27-.24.55-.35.82a19.85,19.85,0,0,1-4.05-.74c-3.75-1.51-7-.4-10.13,1.59-3,1.9-6,3.82-9,5.63a16.07,16.07,0,0,1-3.81,1.64c-3.13.9-6.11,2-8.39,4.5-.5.54-1.39.73-2.7,1.38" transform="translate(-114.75 -157.49)" fill="#ffece2"/>
    <path d="M150.67,254.37a27.84,27.84,0,0,1-2.29,4.2,58.12,58.12,0,0,0-8.84,15.25c-1.67,4.44-5.17,7.18-9.56,8.63a9.75,9.75,0,0,1-4.56,0c-2-.36-2.55-1.82-1.51-3.52,1.25-2.07,2.42-4.34,4.17-5.91,7-6.29,14.2-12.35,21.33-18.48a5,5,0,0,1,.85-.47l.41.28" transform="translate(-114.75 -157.49)" fill="#f4e2df"/>
    <path d="M213.35,221.67a45.49,45.49,0,0,1,2.77-18.95c.75-2,2.86-1.93,4.46-.15,3.2,3.56,2.76,7.49,1.13,11.5a12.38,12.38,0,0,1-8.36,7.6" transform="translate(-114.75 -157.49)" fill="#b71f14"/>
    <path d="M238.29,178.31c7.47-3.29,12.88-9.1,18.21-15l1,.64a47.91,47.91,0,0,1-1.62,4.87c-1,2.26-2.16,4.46-3.37,6.63a44.6,44.6,0,0,1-3.36,5.22c-1.61,2.08-3.83,1.76-5.95.94-1.65-.63-3.22-1.5-4.82-2.27,0-.33-.05-.67-.07-1" transform="translate(-114.75 -157.49)" fill="#d57a70"/>
    <path d="M220.63,198.78c-2.31-2.36-2.34-2.94-.07-4.74,2.64-2.11,5.34-4.12,8-6.2,2.93-2.3,6.12-1.44,9.27-.77a1.42,1.42,0,0,1,.85,1.07c0,.36-.54.82-1,1a12.38,12.38,0,0,1-3.4,1.33c-5.78.81-10.11,3.94-13.7,8.3" transform="translate(-114.75 -157.49)" fill="#dd6959"/>
    <path d="M320.15,222.36c-.64,4-2.8,4.76-11.22,3.59l11.22-3.59" transform="translate(-114.75 -157.49)" fill="#fbdfdd"/>
    <path d="M378.63,371.79a12.44,12.44,0,0,0,2.78-.85c2.42-1.33,4.69-2.92,7.11-4.24,2.26-1.23,4.75-2.06,6.94-3.4,1.51-.93,3.34-2.19,3.84-3.7.67-2-1.31-3.31-3.11-3.83a25.37,25.37,0,0,0-6.39-1.08,6.53,6.53,0,0,1-5.62-2.67c-2.1-2.83-3.73-2.8-5.53.39-2.35,4.13-4.46,8.41-6.55,12.68-1.84,3.76-.71,5.7,3.46,6.25.87.11,1.73.25,3.07.45m-3.84,2.78c-4.25-.12-6.61-2.81-5.61-6.85,1.59-6.39,3.7-12.52,8.74-17.23,3.25-3,5.48-3.17,8.88-.51a19.62,19.62,0,0,0,5.1,2.35c2.42.94,5.08,1.42,7.3,2.69,4.07,2.34,4.21,5.64.37,8.43a68.4,68.4,0,0,1-9.76,6,109.32,109.32,0,0,1-11.17,4.48,19.35,19.35,0,0,1-3.85.63" transform="translate(-114.75 -157.49)" fill="#231f20"/>
    <path d="M378.63,371.79c-1.34-.2-2.2-.34-3.07-.45-4.17-.55-5.3-2.49-3.46-6.25,2.09-4.27,4.2-8.55,6.55-12.68,1.8-3.19,3.43-3.22,5.53-.39a6.53,6.53,0,0,0,5.62,2.67,25.37,25.37,0,0,1,6.39,1.08c1.81.52,3.78,1.83,3.11,3.83-.5,1.51-2.33,2.77-3.84,3.7-2.19,1.34-4.68,2.17-6.95,3.4-2.42,1.32-4.68,2.91-7.1,4.24a12.44,12.44,0,0,1-2.78.85" transform="translate(-114.75 -157.49)" fill="#ce594f"/>
  </g>
</svg>
