<svg id="Layer_1" data-name="Layer 1" xmlns="http://www.w3.org/2000/svg" viewBox="0 0 153.9 95.46">
  <title>Sausage</title>
  <g>
    <path d="M75.46,127.68C52,113.37,25.86,92.87,22.73,77,19.4,60,34.59,47.93,47.34,52.43c15,5.29,15.4,21.24,51.88,40.73,26.85,14.35,52.53,11.14,60.25,11.76,23.13,1.84,22.49,38.37-3.54,41.41-26.43,3.09-59.49-5.88-80.47-18.65" transform="translate(-22.26 -51.48)" fill="#ba4b18"/>
    <path d="M73.14,114C45.66,95.43,32.05,78.88,31,66.9c-.68-8.05,4-12.11,9.4-13.63a16.61,16.61,0,0,1,12.29,1.84c8.12,5,19.63,24.1,47.81,38.17,22.64,11.31,39.32,11,56.79,11.55,16.08.52,14.06,28.64-10.45,30.23-14.75.95-41.2.89-73.74-21.08" transform="translate(-22.26 -51.48)" fill="#d75e23"/>
    <path d="M57.87,63.44C92.38,98.71,115.8,105.57,147,107.53c8.68.54,9.76,8.61-.63,8.62-17.79,0-38.7-4.29-60.3-18.68C68.14,85.55,54.75,69.29,47.81,62.39c-5.26-5.24-10.82-3-10.82-3s2.27-4.22,9.83-3.25c3.94.51,7.07,3.23,11,7.3" transform="translate(-22.26 -51.48)" fill="#e8835b"/>
    <path d="M168.35,127.46s3.14-3.4,1.15-10.07c3.24,5.27,1.13,8.48,1.13,8.48s1.72-1,2.57-5.46c.61,5.17-2,6.71-2,6.71s.81.6,3.07.35a5.38,5.38,0,0,1-3.67,1.2s1.25,3.5-.61,6.34c.95-2.64-.7-5.65-.7-5.65s-.53,4.54-8.54,5.3c7.13-1.8,7.62-7.2,7.62-7.2" transform="translate(-22.26 -51.48)" fill="#9a3316"/>
    <path d="M72.23,73.71s-9.35,2.92-14.54,14.48c1.66-2.37,10.54-9.46,18.48-11-1.9-1.6-3.94-3.47-3.94-3.47" transform="translate(-22.26 -51.48)" fill="#a63d17"/>
    <path d="M71.9,75.66a21.84,21.84,0,0,0-10.28,8.26,29.56,29.56,0,0,1,12.06-6.74L71.9,75.66" transform="translate(-22.26 -51.48)" fill="#ba4518"/>
    <path d="M88.86,86.61s-8.66,3-12.3,16.13c1.33-2.53,9.06-11.14,16.36-13.61-2.14-1.26-4.06-2.52-4.06-2.52" transform="translate(-22.26 -51.48)" fill="#a63d17"/>
    <path d="M108.15,96.76s-7.48,5.6-7.61,19.82c0,0,4.23-12.62,12-18.1-1.62-.58-4.43-1.72-4.43-1.72" transform="translate(-22.26 -51.48)" fill="#a63d17"/>
    <path d="M88.7,88.22a21,21,0,0,0-9.16,9.89,34.42,34.42,0,0,1,11.12-8.68l-2-1.21" transform="translate(-22.26 -51.48)" fill="#ba4518"/>
    <path d="M108.64,98.31a26.23,26.23,0,0,0-6.42,12.41s3.41-7.47,8.49-11.6l-2.07-.81" transform="translate(-22.26 -51.48)" fill="#ba4518"/>
    <path d="M129.47,102.88s-5.7,7.84-2.78,21.28c0,0,2.69-15.17,7.46-20.6-2-.22-4.68-.68-4.68-.68" transform="translate(-22.26 -51.48)" fill="#a63d17"/>
    <path d="M130,104.59a27.75,27.75,0,0,0-2.7,13.62s1.25-7.88,5-13.25l-2.29-.37" transform="translate(-22.26 -51.48)" fill="#ba4518"/>
  </g>
</svg>
