<svg id="Layer_1" data-name="Layer 1" xmlns="http://www.w3.org/2000/svg" viewBox="0 0 187.18 177.22">
  <title>17-Fish</title>
  <g>
    <path d="M170.71,70.33s-1,9-2.78,12.65a41.91,41.91,0,0,1-4,6.36s-.62-4.11-1.49-5.06-3-3.71-3-3.71l11.25-10.24" transform="translate(-5.62 -10.61)" fill="#9394a8"/>
    <path d="M118.72,107.18s-4.49,14-11,22.19-8.42,9.9-8.42,9.9,6.24-11.52,6.64-15.78-1.48-5.26-1.48-5.26l1-5.9,13.21-5.15" transform="translate(-5.62 -10.61)" fill="#9394a8"/>
    <path d="M59.86,134A45,45,0,0,0,42,123c-7.06-2.28-20.14,3.49-28.55,8-4.72,2.51-7.87,4.61-7.87,4.61s13-4.71,16.46-2.58,16,6.53,21.19,7.53a25.4,25.4,0,0,0,9.36.09L59.86,134" transform="translate(-5.62 -10.61)" fill="#535a9a"/>
    <path d="M15,131.64c5.9-2,14.36-4.48,19.25-4.19,4.19.25,9.63,2.86,13.44,5A83.8,83.8,0,0,1,55,137.08l-.16.23c-.13-.09-12.7-9.1-20.64-9.57-5.44-.33-15.58,2.79-21.38,4.84,5.31-1.63,15.42-3.52,21.12-2.17,6.51,1.53,19.88,8,20,8.11l-.12.26c-.14-.07-13.48-6.57-20-8.09-5.88-1.39-16.73.72-21.8,2.33,1.1-.28,2.79-.78,4.13-1,5.74-1.08,10-.92,12.71.47a86.53,86.53,0,0,0,13,4.65c5,1.48,9.38,2.5,10.31,2.43l0,.29c-1,.07-5.27-.94-10.42-2.44a88.34,88.34,0,0,1-13-4.67c-3.43-1.77-9.09-1.16-13.56-.23a62,62,0,0,0-6.75,1.82,53.71,53.71,0,0,1,6.5-2.66" transform="translate(-5.62 -10.61)" fill="#444b83"/>
    <path d="M57.53,136.09s-8.66-7.48-17.81-10.31c-13.41-4.13-34.1,9.74-34.1,9.74s22.07-15,33.79-13S59.86,134,59.86,134l-2.33,2.12" transform="translate(-5.62 -10.61)" fill="#212240"/>
    <path d="M59.86,134a44.89,44.89,0,0,1,9.3,18.76c2.53,11.31-15.88,35.09-15.88,35.09s5.89-12.46,4.09-16.15-5.28-16.31-5.8-21.57a23.91,23.91,0,0,1,1.06-9.54L59.86,134" transform="translate(-5.62 -10.61)" fill="#4a5080"/>
    <path d="M57.53,136.09s6.64,9.31,8.6,18.69c2.88,13.73-12.85,33-12.85,33s16.94-20.58,16.12-32.43S59.86,134,59.86,134l-2.33,2.12" transform="translate(-5.62 -10.61)" fill="#191b33"/>
    <path d="M100,67.73s-12.3,1.87-20.6,8.13-9.15,9.89-9.15,9.89,7-7.45,12.42-7.72a30.67,30.67,0,0,1,9.88,1.16L87.43,81l2.37,2.54-4.07,1.86,1.7,2.89-4,1.75,2.13,2.34L81.39,94l1.94,2.12-3.39,1.4,2.52,2.77-4.37,1.12L79.84,104l-3.68.65,1.25,3.24-3.73.69,1.32,3.2-3.52.57,1,3.09-3.57.81.92,2.49-3.14.74L67.6,122l-3,.13.21,2.62-2.71.17.1,2.6-2.37-.15.87,3.51S69,124,78.54,110,100,67.73,100,67.73" transform="translate(-5.62 -10.61)" fill="#212240"/>
    <path d="M184.71,11.13s-.4-.3-13.19,3.85S140.7,21,115.79,46,83,98.38,73.72,112a189.22,189.22,0,0,1-18.21,22.75s-3,6.81,1.33,2.88L182.6,23.08s4.67-7.28,5.49-8.82-1.18-4.27-3.38-3.13" transform="translate(-5.62 -10.61)" fill="#8087b7"/>
    <path d="M58.64,177.52c2.54-5.69,5.79-13.89,6-18.77.14-4.21-2-9.86-3.73-13.86-1.92-4.32-3.9-7.7-3.92-7.74l-.25.15c.08.13,7.88,13.49,7.62,21.44-.19,5.45-4.24,15.25-6.82,20.84,2.12-5.14,4.94-15,4.13-20.83-.92-6.63-6.16-20.54-6.21-20.68l-.27.1c0,.14,5.28,14,6.2,20.62.83,6-2.27,16.59-4.36,21.49.39-1.07,1.05-2.71,1.42-4,1.62-5.62,1.86-9.89.72-12.71a86.85,86.85,0,0,1-3.42-13.33c-1-5.15-1.62-9.57-1.47-10.5l-.28,0c-.17,1,.44,5.34,1.46,10.6a87.22,87.22,0,0,0,3.44,13.39c1.45,3.57.31,9.16-1,13.53a58.78,58.78,0,0,1-2.44,6.54,52.71,52.71,0,0,0,3.26-6.22" transform="translate(-5.62 -10.61)" fill="#212240"/>
    <path d="M192.2,20.84s2.27,2-3.06,14.38-8.83,30.13-36.09,52.6-55.16,27.77-69.57,35.77a178.22,178.22,0,0,0-24,15.85s-7.4,2.5-3.09-1.42L181.84,23.73s6.12-5.22,7.73-5.89,4.47-1.08,2.63,3" transform="translate(-5.62 -10.61)" fill="#848699"/>
    <path d="M86.73,118.94A161.23,161.23,0,0,1,104.11,111a8.85,8.85,0,0,0,.52,3l-1.76,3.51-1.94-2.13-1.71,3.25-2.52-2.76-1.52,4.24-2.38-2-1,3.61-3.11-1.55-1,3.65-3.06-1.62-.89,3.46-3-1.33-1.14,3.48-2.4-1.15-1,3.06-2.46-1.1-.41,3-2.59-.45-.42,2.68-2.58-.34L67.64,136l-3.41-1.19s7.68-7.61,22.5-15.82" transform="translate(-5.62 -10.61)" fill="#6b6f84"/>
    <path d="M56.39,138l7.2-6.56c5.25-3.66,11.36-7.69,17.14-10.89,14.41-8,42.31-13.31,69.57-35.77s30.77-40.27,36.09-52.61c4.84-11.22,3.41-13.92,3.11-14.32l.07,0c1.61-.68,4.47-1.08,2.63,3,0,0,2.27,2-3.06,14.38s-8.83,30.13-36.09,52.6-55.16,27.77-69.57,35.77a178.22,178.22,0,0,0-24,15.85s-7.4,2.5-3.09-1.42" transform="translate(-5.62 -10.61)" fill="#727689"/>
    <path d="M134.25,34.44s-13.18-2.51-17.8-2.46-5.49.81-5.49.81,2.07.83,1.64,1.8-2,1.49-2,1.49,2.12,1.14,1.37,1.82a4.44,4.44,0,0,1-2.17.82s2.11.6,1.55,1.7-2.52,1.51-2.52,1.51,1.77,1.11.92,2.08a2.83,2.83,0,0,1-2.07.92,1.63,1.63,0,0,1,.85,2c-.3,1-2,1-2,1a1.82,1.82,0,0,1,.57,1.87c-.36,1.17-1.88,1.21-1.88,1.21s.85,1.09.19,1.89a2.75,2.75,0,0,1-1.67.9s1.75,1.14.84,2.27a2.52,2.52,0,0,1-1.89,1.1s1.11,1.47.29,2.6-1.2,4.33-1.2,4.33l32.5-29.61" transform="translate(-5.62 -10.61)" fill="#2e304d"/>
    <path d="M115.23,33.54c-1.19,0-2.12.07-2.86.15a4.64,4.64,0,0,0-1.41-.9s.87-.75,5.49-.81,17.8,2.46,17.8,2.46l-1.62,1.48c-2.24-.42-13.26-2.44-17.4-2.38" transform="translate(-5.62 -10.61)" fill="#212240"/>
    <path d="M188.29,13.9c0,.25-5.42,8.75-5.69,9.18a32.41,32.41,0,0,1-7.66,4.55c-8.42,2.82-11.53,1.33-17.62,2.88-8.1,2.05-12.34,1.19-34.92,23.91-24.9,25-35.7,48-45,61.6-2,2.9-4.21,5.88-6.48,8.76L56.84,137.61c-4.32,3.93-1.33-2.88-1.33-2.88A189.22,189.22,0,0,0,73.72,112C83,98.38,90.89,71.09,115.79,46s43-26.9,55.73-31,14.09-4.08,14.09-4.08c3.19-1,3.16.86,2.68,3" transform="translate(-5.62 -10.61)" fill="#535a9a"/>
    <path d="M170.62,34s-15.53-3.46-39.44,20.27S80.5,116.05,80.5,116.05L170.62,34" transform="translate(-5.62 -10.61)" fill="#c6c9db"/>
    <path d="M170.62,34s2.2,16-23.65,37.61S80.5,116.05,80.5,116.05L170.62,34" transform="translate(-5.62 -10.61)" fill="#adb1c0"/>
    <path d="M170.63,24.45a4.09,4.09,0,1,0,.32-5.72,4,4,0,0,0-.32,5.72" transform="translate(-5.62 -10.61)" fill="#41477b"/>
    <path d="M171.45,23.8a3.2,3.2,0,1,0,.21-4.53,3.21,3.21,0,0,0-.21,4.53" transform="translate(-5.62 -10.61)" fill="#18162e"/>
    <path d="M172,23.32a1.6,1.6,0,1,0,.1-2.26,1.61,1.61,0,0,0-.1,2.26" transform="translate(-5.62 -10.61)" fill="#4a4d6c"/>
    <path d="M182.6,23.08s6.08-7.79,6.32-9.22-.16-2.79-1-3.13c-1.86-.71-1.1,3.44-1.1,3.44l-4.17,8.91" transform="translate(-5.62 -10.61)" fill="#41477b"/>
    <path d="M192.73,19.29a3,3,0,0,0-3.57,0c-1.25.8-6.55,3.8-6.55,3.8a45.54,45.54,0,0,1,7-5.22c3.08-1.67,3.44.5,3.16,1.45" transform="translate(-5.62 -10.61)" fill="#646576"/>
    <path d="M153.18,27.76s3.51,7.35,5.13,9.51a38.72,38.72,0,0,0,3.93,4.31L165,39s-8.67-7.14-11.84-11.19" transform="translate(-5.62 -10.61)" fill="#b7bace"/>
    <path d="M165,39a32.71,32.71,0,0,0,5.79,4.87,20.34,20.34,0,0,0,7,2.47s-4.6,2.14-9.06.08a23.84,23.84,0,0,1-6.8-4.52L165,39" transform="translate(-5.62 -10.61)" fill="#9394a8"/>
    <path d="M152.53,26.6s3.49,10.58,10,16.72c7.9,7.4,15.56,2.84,15.56,2.84s-6.75,3.05-14.77-3.56c-3.61-3-6.48-8.22-10.83-16" transform="translate(-5.62 -10.61)" fill="#3d3f51"/>
    <path d="M159.56,43.52s-2.6,12.41-8.49,21a45.08,45.08,0,0,1-14.27,13s8.16-8.55,7.92-12.24.56-7.93,1.64-9.3,13.2-12.42,13.2-12.42" transform="translate(-5.62 -10.61)" fill="#212240"/>
    <path d="M55.7,134.54s-.91,2.55.24,3.81,3.7,1,3.7,1-5.72,3.11-7.19,1.39,3.25-6.18,3.25-6.18" transform="translate(-5.62 -10.61)" fill="#212240"/>
    <path d="M155.47,47.25s-3.36,10.44-7.14,16.39a54.84,54.84,0,0,1-8.15,10s3.52-5.75,3.5-8.29-1.11-4.37-.36-5.9a14.66,14.66,0,0,1,1.57-2.52l10.58-9.64" transform="translate(-5.62 -10.61)" fill="#8087b7"/>
    <path d="M168.43,72.74a17.05,17.05,0,0,1-.61,7.64,64.35,64.35,0,0,1-3.88,9A30.07,30.07,0,0,0,170,78.55c2.23-7.94,1.07-8.7,1.07-8.7l-2.67,2.89" transform="translate(-5.62 -10.61)" fill="#727689"/>
    <path d="M115.38,110.26a100.18,100.18,0,0,1-6.8,15.13,80.66,80.66,0,0,1-9.27,13.88,84.37,84.37,0,0,0,13.74-18.43c6-11,5.88-12.45,5.88-12.45l-3.55,1.87" transform="translate(-5.62 -10.61)" fill="#83879c"/>
    <path d="M119.7,101.39a1.46,1.46,0,1,0,.09-2.07,1.47,1.47,0,0,0-.09,2.07" transform="translate(-5.62 -10.61)" fill="#adb1c0"/>
    <path d="M113.69,100.73a1.5,1.5,0,1,0,.1-2.12,1.49,1.49,0,0,0-.1,2.12" transform="translate(-5.62 -10.61)" fill="#adb1c0"/>
    <path d="M115.15,104.24a1,1,0,1,0,.07-1.48,1,1,0,0,0-.07,1.48" transform="translate(-5.62 -10.61)" fill="#adb1c0"/>
    <path d="M107.22,103.77a1.27,1.27,0,1,0,.08-1.8,1.28,1.28,0,0,0-.08,1.8" transform="translate(-5.62 -10.61)" fill="#adb1c0"/>
    <path d="M111.21,106.26a1.45,1.45,0,1,0,.1-2.06,1.46,1.46,0,0,0-.1,2.06" transform="translate(-5.62 -10.61)" fill="#adb1c0"/>
    <path d="M103.05,106.76a1.14,1.14,0,1,0,1.68-1.53,1.13,1.13,0,0,0-1.6-.08,1.14,1.14,0,0,0-.08,1.61" transform="translate(-5.62 -10.61)" fill="#adb1c0"/>
    <path d="M106.48,107.38a.9.9,0,1,0,1.33-1.21.91.91,0,0,0-1.28-.06.9.9,0,0,0,0,1.27" transform="translate(-5.62 -10.61)" fill="#adb1c0"/>
    <path d="M99.35,110.13a1.14,1.14,0,1,0,.08-1.61,1.14,1.14,0,0,0-.08,1.61" transform="translate(-5.62 -10.61)" fill="#adb1c0"/>
    <path d="M95.13,110.5a.84.84,0,0,0,1.2.06.85.85,0,0,0,.06-1.2.85.85,0,0,0-1.26,1.14" transform="translate(-5.62 -10.61)" fill="#adb1c0"/>
    <path d="M97.18,111.34a.57.57,0,0,0,.85-.77.57.57,0,0,0-.85.77" transform="translate(-5.62 -10.61)" fill="#adb1c0"/>
    <path d="M92,112.92a.54.54,0,1,0,0-.77.54.54,0,0,0,0,.77" transform="translate(-5.62 -10.61)" fill="#adb1c0"/>
    <path d="M118.52,96.85a1.23,1.23,0,1,0,.08-1.74,1.23,1.23,0,0,0-.08,1.74" transform="translate(-5.62 -10.61)" fill="#adb1c0"/>
    <path d="M122.08,94.53a.68.68,0,1,0,1-.91.69.69,0,0,0-1-.05.68.68,0,0,0,0,1" transform="translate(-5.62 -10.61)" fill="#adb1c0"/>
    <path d="M157.65,20.94s-15.86,1.95-35.58,20.64S93,78,93,78s18.35-23.44,34.25-37.19,30.41-19.89,30.41-19.89" transform="translate(-5.62 -10.61)" fill="#8087b7"/>
    <path d="M172.12,22.84a1,1,0,1,0,.06-1.35.95.95,0,0,0-.06,1.35" transform="translate(-5.62 -10.61)" fill="#fff"/>
    <path d="M151.75,50.64A43,43,0,0,1,148,61.34,77.1,77.1,0,0,1,140.81,73s3.72-5.34,4.53-9.23,0-5.09.61-6.75l.58-1.66,5.22-4.75" transform="translate(-5.62 -10.61)" fill="#6a729a"/>
    <path d="M166.27,75.44a15.94,15.94,0,0,1-.6,7.39,38.47,38.47,0,0,0-1.73,6.51s.28-5.81-.05-7-1.14-3.28-1.14-3.28l3.52-3.64" transform="translate(-5.62 -10.61)" fill="#898ca0"/>
  </g>
</svg>
