<svg id="Layer_1" data-name="Layer 1" xmlns="http://www.w3.org/2000/svg" viewBox="0 0 161.6 162.16">
  <title>19-egg</title>
  <g>
    <path d="M129.66,19c-32,9.29-58.27,79-30.75,111.79,13.78,16.43,38.2,18.64,57,10C185.36,127.21,181.45,93,176.8,67.33,173.48,48.93,159.43,26,144.6,20A22.28,22.28,0,0,0,129.66,19" transform="translate(-18.41 -18.14)" fill="#f5b161"/>
    <path d="M173.87,124.57h0m0,0v0m-40.7,21.15a48.31,48.31,0,0,1-19.91-4.14,48.31,48.31,0,0,0,19.91,4.14,55,55,0,0,0,22.79-5,38.12,38.12,0,0,0,17.91-16.16,38.12,38.12,0,0,1-17.91,16.16,55,55,0,0,1-22.79,5" transform="translate(-18.41 -18.14)" fill="#fde7d0"/>
    <path d="M133.15,145.75a48.31,48.31,0,0,1-19.91-4.14c.16-1.69.26-3.38.31-5.06a45.35,45.35,0,0,0,14.64,2.34c1.21,0,2.44,0,3.69-.13,22.35-1.57,36.16-14.92,42.09-32.55,3.4-10.1,4.46-21.15,4-32.19,2.68,16.86,4,36.1-4.07,50.54h0v0h0a38.12,38.12,0,0,1-17.91,16.16,55,55,0,0,1-22.79,5" transform="translate(-18.41 -18.14)" fill="#f3a050"/>
    <path d="M123.93,30.91c-9.82,0-18.46,23-21,30.68-2.63,8-3.59,22.81,6.74,26.92a26.2,26.2,0,0,0,7.94,1.91c.42,0,.83,0,1.24,0,22.15,0,23.23-40.18,12.51-54.75-2.5-3.39-5-4.8-7.43-4.8m-.16,98.9a36.45,36.45,0,0,1-4.33-.27,37.58,37.58,0,0,1-6-1.24c-.1-1.55-.25-3.09-.42-4.63a13.19,13.19,0,0,0,.09-4.17,12.31,12.31,0,0,0-3.91-7.67,31.44,31.44,0,0,1-3.76-4.14A23.52,23.52,0,0,0,99.6,102a15.89,15.89,0,0,0-6.07-1.78l-.23,0c-1.24-13.13,1.84-28,5.09-38.92,4.42-14.79,19.73-37.46,33.31-37.46,6.26,0,12.16,4.83,16.44,17.51,7.86,23.33,13,88.48-24.37,88.48" transform="translate(-18.41 -18.14)" fill="#f7bc6c"/>
    <path d="M117.76,41.31a2.72,2.72,0,0,0-1.22.31,3.23,3.23,0,0,0-1.55,2c-.63,2.05,0,4.76,2.33,4.78h0c2.2,0,3.11-1.78,3.07-3.57s-1-3.56-2.65-3.56m7.71,6.33h-.1a1.83,1.83,0,0,0-1.4.84c-.83,1.2-.74,3.28.79,3.68a2.75,2.75,0,0,0,.67.09c1.28,0,1.86-1.15,1.84-2.31s-.66-2.3-1.8-2.3m-8.66,7a1.41,1.41,0,0,0-.45.07,1.53,1.53,0,0,0-.93.74c-.74,1.24-.23,3.52,1.48,3.58H117a1.73,1.73,0,0,0,1.9-2.19,2.48,2.48,0,0,0-2.13-2.2m2,35.86c-.41,0-.82,0-1.24,0a26.2,26.2,0,0,1-7.94-1.91c-10.33-4.11-9.37-18.91-6.74-26.92,2.54-7.73,11.18-30.68,21-30.68,2.43,0,4.93,1.41,7.43,4.8,10.72,14.57,9.64,54.75-12.51,54.75" transform="translate(-18.41 -18.14)" fill="#f9c97d"/>
    <path d="M125.43,52.25a2.75,2.75,0,0,1-.67-.09c-1.53-.4-1.62-2.48-.79-3.68a1.83,1.83,0,0,1,1.4-.84h.1c1.14,0,1.77,1.15,1.8,2.3s-.56,2.31-1.84,2.31" transform="translate(-18.41 -18.14)" fill="#fff4c7"/>
    <path d="M117,59h-.13c-1.71-.06-2.22-2.34-1.48-3.58a1.53,1.53,0,0,1,.93-.74,1.41,1.41,0,0,1,.45-.07,2.48,2.48,0,0,1,2.13,2.2A1.73,1.73,0,0,1,117,59" transform="translate(-18.41 -18.14)" fill="#fff4c7"/>
    <path d="M117.34,48.44h0c-2.33,0-3-2.73-2.33-4.78a3.23,3.23,0,0,1,1.55-2,2.72,2.72,0,0,1,1.22-.31c1.63,0,2.62,1.78,2.65,3.56s-.87,3.57-3.07,3.57" transform="translate(-18.41 -18.14)" fill="#fff4c7"/>
    <path d="M20.23,120c-7.64,24.81,10.35,49.69,26,56.1,16.21,6.65,35.67,5.69,50.07-4.88,6.28-4.62,11.93-10.51,14.53-18,2.48-7.09,3-15,2.72-22.45a108.23,108.23,0,0,0-1.07-11.2c-.63-4.36-92.22.41-92.22.41" transform="translate(-18.41 -18.14)" fill="#f5ad5a"/>
    <path d="M60.3,176.39a35.31,35.31,0,0,1-3.92-.23c-9.51-1.11-16.76-5.11-22.35-13.07-5-7.07-7.43-13.63-8-21.54a13.5,13.5,0,0,0,1.29,1.11,16.8,16.8,0,0,0,4.91,2.42c.89,7.85,3,15.52,9.59,20.59a16.13,16.13,0,0,0,9.82,3.55,14.32,14.32,0,0,0,11.2-5.57,30.85,30.85,0,0,0,6.17-14l1.49-.08,2-.14c.82-.07,1.6-.14,2.34-.14H75a6.11,6.11,0,0,1,4.56,1.83c1.59,1.54,2.78,2.43,4.18,2.45h0a3.88,3.88,0,0,0,1.23-.21,45,45,0,0,1-1.52,6c-3.7,11.25-12.17,17-23.16,17" transform="translate(-18.41 -18.14)" fill="#f8b966"/>
    <path d="M51.67,169.22a16.13,16.13,0,0,1-9.82-3.55c-6.6-5.07-8.7-12.74-9.59-20.59.58.19,1.2.36,1.86.53A21.69,21.69,0,0,0,37,146a12.28,12.28,0,0,1,4.25.85,3.68,3.68,0,0,1,1.32,1.42A6.12,6.12,0,0,0,44.08,150a9.1,9.1,0,0,0,3.58,1.32c.54.12,1.08.24,1.56.39a12.48,12.48,0,0,1,6,4.69,10.68,10.68,0,0,1,1.09,2.63,9.85,9.85,0,0,0,2.41,4.07l.27.26c.35-1.73,1.58-3.65,2.32-5.23a43.85,43.85,0,0,0,1.85-4.23c.79-3.42,2.52-4,5.85-4.28a30.85,30.85,0,0,1-6.17,14,14.32,14.32,0,0,1-11.2,5.57" transform="translate(-18.41 -18.14)" fill="#f9c675"/>
    <path d="M21.3,113.51A19.52,19.52,0,0,0,20.23,120c-.26,6.83,1.58,17.79,7.49,22.17A18,18,0,0,0,34.27,145c2,.51,5.47.31,7.28,1.31,1.42.8,1.51,2.18,2.9,3.21s3.4,1.12,5,1.62a13.1,13.1,0,0,1,6.34,4.91c1.15,1.58,1.56,5.54,3.08,6.38-.24-.13,3.54-7.74,3.75-8.65,1-4.35,3.62-4.65,7.92-4.84,3.78-.18,6.56-1.08,9.46,1.73s4,3,7.54.57c1.53-1.06,4.89-1.2,5.46-2.93.87-2.6.05-3.93,2.47-6,1.95-1.66,4.19-2.09,6.51-3.06,6.52-2.69,8.76-8.75,10.32-15.22a12.47,12.47,0,0,0,.19-4.45,11.73,11.73,0,0,0-3.7-7.28c-3.45-3-5.45-7.28-9.48-9.76-2.92-1.8-6.79-1.45-10-2.6-3.73-1.32-5-2.33-9.21-1.48-3.65.73-4.69,0-8.07-1.16-2.76-.92-6.32.11-8.46-2.38-1.63-1.91-1.28-3.63-3.76-.51-1.5,1.9-2.07,1.84-3.61,1.78a15.34,15.34,0,0,0-1.54,0c-3.1.12-2.36,1.9-4.68,3.24-4.19,2.39-9.59.23-12.93,4.77-1.81,2.46-2.28,5.29-5.6,5.59a15.63,15.63,0,0,1-2.75-.08c-2-.19-3.93-.37-5.77,1.42a7.32,7.32,0,0,0-1.56,2.39" transform="translate(-18.41 -18.14)" fill="#f8e7d3"/>
    <path d="M103.59,119.64c-14.26-12.11-33.65-15.32-51.71-11.42a35.55,35.55,0,0,0-20.34,12.44c-5.29,6.69-5.58,13.79-4,21.38l.14.12A18,18,0,0,0,34.27,145c2,.51,5.47.31,7.28,1.31,1.42.8,1.51,2.18,2.9,3.21s3.4,1.12,5,1.62a13.1,13.1,0,0,1,6.34,4.91c1.15,1.58,1.56,5.54,3.08,6.38-.24-.13,3.54-7.74,3.75-8.65,1-4.35,3.62-4.65,7.92-4.84,3.78-.18,6.56-1.08,9.46,1.73s4,3,7.54.57c1.53-1.06,4.89-1.2,5.46-2.93.87-2.6.05-3.93,2.47-6,1.95-1.66,4.19-2.09,6.51-3.06a14.92,14.92,0,0,0,8-8.11c-.31-4.12-1.88-7.69-6.36-11.5" transform="translate(-18.41 -18.14)" fill="#ffe08a"/>
    <path d="M84.44,116.09c-12.07-4.25-25.18-5.09-36.82.88-5.43,2.78-13.13,9.6-14.78,15.63a25.47,25.47,0,0,0-.68,11.78c.69.23,1.39.45,2.11.62,2,.51,5.47.31,7.28,1.31,1.42.8,1.51,2.18,2.9,3.21s3.4,1.12,5,1.62a13.1,13.1,0,0,1,6.34,4.91c1.15,1.58,1.56,5.54,3.08,6.38-.24-.13,3.54-7.74,3.75-8.65,1-4.35,3.62-4.65,7.92-4.84,3.78-.18,6.56-1.08,9.46,1.73s4,3,7.54.57c1.53-1.06,4.89-1.2,5.46-2.93.87-2.6.05-3.93,2.47-6,1.95-1.66,4.19-2.09,6.51-3.06a14.35,14.35,0,0,0,1.84-.92C105,127.22,95,119.8,84.44,116.09" transform="translate(-18.41 -18.14)" fill="#fab617"/>
    <path d="M58.56,161.26a14.2,14.2,0,0,1-1-2.6,11.36,11.36,0,0,0-1.26-3,13.78,13.78,0,0,0-6.66-5.13,15.27,15.27,0,0,0-1.68-.42,8.4,8.4,0,0,1-3.1-1.11,5.11,5.11,0,0,1-1.22-1.43,4.79,4.79,0,0,0-1.75-1.82,12.69,12.69,0,0,0-4.74-1,19.56,19.56,0,0,1-2.69-.36,23.59,23.59,0,0,1-2.39-.71,22.48,22.48,0,0,1-.16-5.74c6.93,6.38,17.8,7.74,26.79,7.92q1.31,0,2.73,0c9.29,0,21.82-1.13,27.6-8.43,7.26-9.19.47-18.35-8.28-22.41l-.1-.18c1.29.36,2.56.76,3.83,1.21,9.93,3.5,19.44,10.29,19.45,20.36,0,.37,0,.75,0,1.13a14.83,14.83,0,0,1-2.14,1.1c-.63.26-1.24.48-1.85.69A14.12,14.12,0,0,0,95,141.84a5.73,5.73,0,0,0-2.2,4.19,11.48,11.48,0,0,1-.46,2.08c-.26.78-1.55,1.2-2.8,1.6a9.76,9.76,0,0,0-2.43,1c-1.64,1.14-2.6,1.59-3.39,1.59h0c-.86,0-1.73-.56-3.33-2.1A7.3,7.3,0,0,0,75,148h-.16c-.78,0-1.59.07-2.43.14-.61,0-1.25.1-1.92.13-3.94.19-7.35.34-8.49,5.33-.08.36-1,2.37-1.77,4s-1.34,2.89-1.65,3.64" transform="translate(-18.41 -18.14)" fill="#f6a013"/>
    <path d="M63.78,117.49a2.67,2.67,0,0,0-.9.16,2.17,2.17,0,0,0,.72,4.19,3,3,0,0,0,1-.18,2.14,2.14,0,0,0-.78-4.17m6.67,2.34a1.42,1.42,0,0,0-.5.11c-1.19.51-1,2.29.12,2.29a1.36,1.36,0,0,0,.55-.13l.22-.13c.94-.67.61-2.14-.39-2.14m-3.5,4a1.07,1.07,0,0,0-.44.1c-.92.43-.59,2.1.35,2.1a1.11,1.11,0,0,0,.58-.18c.79-.5.43-2-.49-2M46.46,138.57c-4.86,0-5.13-4.24-4.18-7.22,3.26-10.26,13.64-15.76,24-15.76a26.24,26.24,0,0,1,14,3.86c8.48,5.34-5.47,7.36-16.47,11.67-7.93,3.1-13.23,6.89-15.43,7.27a10.78,10.78,0,0,1-1.86.18" transform="translate(-18.41 -18.14)" fill="#fdd11b"/>
    <path d="M66.86,126.06c-.94,0-1.27-1.67-.35-2.1a1.07,1.07,0,0,1,.44-.1c.92,0,1.28,1.52.49,2a1.11,1.11,0,0,1-.58.18" transform="translate(-18.41 -18.14)" fill="#fef5ab"/>
    <path d="M70.07,122.23c-1.09,0-1.31-1.78-.12-2.29a1.42,1.42,0,0,1,.5-.11c1,0,1.33,1.47.39,2.14l-.22.13a1.36,1.36,0,0,1-.55.13" transform="translate(-18.41 -18.14)" fill="#fef5ab"/>
    <path d="M63.6,121.84a2.17,2.17,0,0,1-.72-4.19,2.67,2.67,0,0,1,.9-.16,2.14,2.14,0,0,1,.78,4.17,3,3,0,0,1-1,.18" transform="translate(-18.41 -18.14)" fill="#fef5ab"/>
    <path d="M58.75,163.12a9.85,9.85,0,0,1-2.41-4.07,10.68,10.68,0,0,0-1.09-2.63,12.48,12.48,0,0,0-6-4.69c-.48-.15-1-.27-1.56-.39A9.1,9.1,0,0,1,44.08,150a6.12,6.12,0,0,1-1.52-1.75,3.68,3.68,0,0,0-1.32-1.42A12.28,12.28,0,0,0,37,146a21.69,21.69,0,0,1-2.87-.39,18.6,18.6,0,0,1-6.77-3c-6.62-4.9-8-17-7.74-22.7a19.72,19.72,0,0,1,1.12-6.68,7.62,7.62,0,0,1,1.7-2.6,5.93,5.93,0,0,1,4.5-1.72c.56,0,1.13.06,1.72.11a14.72,14.72,0,0,0,2.67.09c2.12-.19,2.9-1.56,3.89-3.3a19.94,19.94,0,0,1,1.27-2c2.15-2.92,5.07-3.27,7.9-3.61a13.37,13.37,0,0,0,5.22-1.33,4.68,4.68,0,0,0,1.57-1.52,3.68,3.68,0,0,1,3.4-1.8c.66,0,1.2,0,1.65,0,2.19.09,3.6-2,5-3.52,3.43,4.28,14.08,5.32,18.74,5.8,3.52.36,5.29-.11,7.79.85.52.2,1.1.42,1.75.65a21.75,21.75,0,0,0,4.08.88A15.89,15.89,0,0,1,99.6,102a23.52,23.52,0,0,1,5.79,5.68,31.44,31.44,0,0,0,3.76,4.14,12.31,12.31,0,0,1,3.91,7.67,12.79,12.79,0,0,1-.2,4.68c-1.46,6-3.6,12.72-10.68,15.65-.64.26-1.27.49-1.9.71a13.36,13.36,0,0,0-4.45,2.25,4.47,4.47,0,0,0-1.77,3.42,12.84,12.84,0,0,1-.51,2.3c-.46,1.37-2,1.89-3.6,2.38a9.51,9.51,0,0,0-2.1.86c-1.63,1.13-2.88,1.82-4.14,1.81s-2.59-.91-4.18-2.45A6.11,6.11,0,0,0,75,149.28a24.41,24.41,0,0,0-2.48.14l-2,.14c-4.33.2-6.45.46-7.34,4.36a43.85,43.85,0,0,1-1.85,4.23c-.74,1.58-2,3.5-2.32,5.23l-.27-.26M26.92,110.21a4.61,4.61,0,0,0-3.62,1.36,6.44,6.44,0,0,0-1.42,2.18,18.44,18.44,0,0,0-1,6.26c-.24,6.37,1.49,17.39,7.24,21.65a17.19,17.19,0,0,0,6.33,2.74,19.56,19.56,0,0,0,2.69.36,12.69,12.69,0,0,1,4.74,1,4.79,4.79,0,0,1,1.75,1.82A5.11,5.11,0,0,0,44.82,149a8.4,8.4,0,0,0,3.1,1.11,15.27,15.27,0,0,1,1.68.42,13.78,13.78,0,0,1,6.66,5.13,11.36,11.36,0,0,1,1.26,3,14.2,14.2,0,0,0,1,2.6c.31-.75.84-1.89,1.65-3.64s1.69-3.62,1.77-4c1.14-5,4.55-5.14,8.49-5.33.67,0,1.31-.08,1.92-.13.9-.08,1.76-.15,2.59-.14a7.3,7.3,0,0,1,5.41,2.18c1.6,1.54,2.47,2.08,3.33,2.1s1.76-.44,3.42-1.59a9.76,9.76,0,0,1,2.43-1c1.25-.4,2.54-.82,2.8-1.6a11.48,11.48,0,0,0,.46-2.08,5.73,5.73,0,0,1,2.2-4.19,14.12,14.12,0,0,1,4.83-2.47c.61-.21,1.22-.43,1.85-.69,5.88-2.43,8.22-7.67,9.94-14.79a11.61,11.61,0,0,0,.18-4.22,11.06,11.06,0,0,0-3.49-6.89,31.8,31.8,0,0,1-3.92-4.31,22.09,22.09,0,0,0-5.47-5.4,14.84,14.84,0,0,0-5.61-1.61,23.66,23.66,0,0,1-4.31-.93l-1.78-.67a11.61,11.61,0,0,0-4.37-1.09,13.15,13.15,0,0,0-2.72.3,10.84,10.84,0,0,1-6.88-.66c-.45-.16-1-.34-1.51-.52a12.74,12.74,0,0,0-3-.46c-2.06-.15-4.19-.3-5.74-2.11a10,10,0,0,1-1-1.37,3.33,3.33,0,0,0-.47-.65,8.62,8.62,0,0,0-1.37,1.5c-1.6,2-2.32,2.08-4,2-.43,0-.94,0-1.58,0a2.47,2.47,0,0,0-2.43,1.29,5.94,5.94,0,0,1-2,1.87,14.44,14.44,0,0,1-5.68,1.49c-2.68.32-5.22.62-7.05,3.1a21,21,0,0,0-1.19,1.93c-1,1.8-2.1,3.67-4.86,3.91a15.48,15.48,0,0,1-2.9-.08c-.55,0-1.08-.1-1.61-.1" transform="translate(-18.41 -18.14)" fill="#fffef7"/>
    <path d="M39,115.27A51.67,51.67,0,0,1,52.62,109a37.86,37.86,0,0,1,10.44-1.32,46.79,46.79,0,0,1,5.68.32s-10.06.86-15.52,2.25a73.65,73.65,0,0,0-14.26,5" transform="translate(-18.41 -18.14)" fill="#fffad6"/>
    <path d="M73.13,108.72a3.76,3.76,0,0,1-1.76-.33c-.36-.29-.37-.38.11-.64a1.73,1.73,0,0,1,.8-.14,3.86,3.86,0,0,1,2.43.81,3.51,3.51,0,0,1-1.58.3" transform="translate(-18.41 -18.14)" fill="#fffad6"/>
    <path d="M36.37,117.85c-.12-.45.45-1.1.94-1.55a1.11,1.11,0,0,1,.75-.26h0l.07.09c.33.39-1.33,1.64-1.79,1.72" transform="translate(-18.41 -18.14)" fill="#fffad6"/>
  </g>
</svg>
