<svg id="Layer_8" data-name="Layer 8" xmlns="http://www.w3.org/2000/svg" xmlns:xlink="http://www.w3.org/1999/xlink" viewBox="0 0 326.64 453.67">
  <defs>
    <clipPath id="clip-path" transform="translate(-104.32 -32)">
      <rect x="104.32" y="32" width="326.64" height="453.67" fill="none"/>
    </clipPath>
  </defs>
  <title>20-bakedbeans</title>
  <g clip-path="url(#clip-path)">
    <path d="M108.35,91.83c-3.33-1.63-4-7.29-4-10.69V73.65c0-17.94,34.36-29.7,80.85-36.12a617.16,617.16,0,0,1,164.94,0C396.59,44,431,55.71,431,73.65v7.49c0,3.4-.7,9.06-4,10.69v342.6a8.43,8.43,0,0,1,3.4,6.87v3.3a11.22,11.22,0,0,1-1.31,6c-12.08,21.82-89.77,34.59-161.38,35h0c-71.62-.45-149.3-13.22-161.38-35a11.22,11.22,0,0,1-1.31-6v-3.3a8.43,8.43,0,0,1,3.4-6.87Z" transform="translate(-104.32 -32)" fill="#404041"/>
    <path d="M112.6,439.4V94.71c15.56,13.87,64.93,21.65,104,25.15,37.91,3.39,64.13,3.39,102,0,39.1-3.5,88.47-11.28,104-25.15V439.4c-34.15,36.75-275.93,36.75-310.08,0" transform="translate(-104.32 -32)" fill="#e66a1f"/>
    <path d="M120.14,99.74V445.16a33,33,0,0,1-7.54-5.76V94.71a38.1,38.1,0,0,0,7.54,5" transform="translate(-104.32 -32)" fill="#da521f"/>
    <path d="M400.08,451.75V105.81c9.86-3.17,17.82-6.85,22.6-11.1V439.4c-4.39,4.72-12.23,8.83-22.6,12.35" transform="translate(-104.32 -32)" fill="#da521f"/>
    <path d="M108.22,440.05c7.52,9.7,28.76,17.39,58.28,22.57,57.16,10,145.12,10,202.28,0,29.52-5.18,50.75-12.87,58.28-22.57v5.3c0,10.28-23.07,20.53-58.66,27.51-60.23,11.82-141.3,11.82-201.52,0-35.6-7-58.66-17.23-58.66-27.51Z" transform="translate(-104.32 -32)" fill="#bbbdbf"/>
    <path d="M112.6,327.75V316c25.72,16.14,85.45,29.33,155,29.33S397,332.13,422.68,316v11.76C397,343.89,337.24,356,267.64,356s-129.33-12.12-155-28.26" transform="translate(-104.32 -32)" fill="#c33f26"/>
    <path d="M422.67,313.85c-25.71,16.14-85.44,28.26-155,28.26s-129.33-12.4-155-28.54v-7.15c25.71,16.14,85.45,27.72,155,27.72s129.32-11.58,155-27.72Z" transform="translate(-104.32 -32)" fill="#c33f26"/>
    <path d="M422.67,303.09c-25.71,16.13-85.44,26.64-155,26.64s-129.33-10.51-155-26.64v-5.83c25.71,16.14,85.45,26.65,155,26.65s129.32-10.51,155-26.65Z" transform="translate(-104.32 -32)" fill="#c33f26"/>
    <path d="M422.67,293.93c-25.71,16.14-85.44,26.65-155,26.65s-129.33-10.51-155-26.65v-4.75c25.71,16.13,85.45,26.64,155,26.64s129.32-10.51,155-26.64Z" transform="translate(-104.32 -32)" fill="#c33f26"/>
    <path d="M422.67,284.77c-25.71,16.14-85.44,26.65-155,26.65s-129.33-10.51-155-26.65v-3.68c25.71,16.14,85.45,26.64,155,26.64s129.32-10.5,155-26.64Z" transform="translate(-104.32 -32)" fill="#c33f26"/>
    <path d="M422.67,275.61c-25.71,16.14-85.44,26.65-155,26.65s-129.33-10.51-155-26.65v-3.15c25.71,16.14,85.45,26.65,155,26.65s129.32-10.51,155-26.65Z" transform="translate(-104.32 -32)" fill="#c33f26"/>
    <path d="M422.67,266.12c-25.71,16.14-85.44,26.65-155,26.65s-129.33-10.51-155-26.65v-2.63c25.71,16.14,85.45,26.93,155,26.93s129.32-10.51,155-26.65Z" transform="translate(-104.32 -32)" fill="#c33f26"/>
    <path d="M422.67,257.76c-25.71,16.14-85.44,26.65-155,26.65s-129.33-10.51-155-26.65v-2.63c25.71,16.14,85.45,26.93,155,26.93s129.32-10.51,155-26.64Z" transform="translate(-104.32 -32)" fill="#c33f26"/>
    <path d="M422.67,249.4c-25.71,16.14-85.44,26.65-155,26.65s-129.33-10.51-155-26.65v-2.63c25.71,16.14,85.45,26.93,155,26.93s129.32-10.51,155-26.64Z" transform="translate(-104.32 -32)" fill="#c33f26"/>
    <path d="M422.67,241c-25.71,16.14-85.44,26.65-155,26.65S138.31,257.18,112.6,241v-2.63c25.71,16.14,85.45,26.94,155,26.94s129.32-10.51,155-26.65Z" transform="translate(-104.32 -32)" fill="#c33f26"/>
    <path d="M257.21,210.62,249.11,122l2.57.09,10.51,88.57c-1.66,0-3.33,0-5-.07" transform="translate(-104.32 -32)" fill="#ea8b1c"/>
    <path d="M249,210.42,231.28,121l2.54.18,20.26,89.35c-1.69,0-3.38-.08-5.05-.14" transform="translate(-104.32 -32)" fill="#ea8b1c"/>
    <path d="M240.37,210.09l-28.1-90.64,2.47.24,30.8,90.62-5.17-.22" transform="translate(-104.32 -32)" fill="#ea8b1c"/>
    <path d="M231,209.57l-39.69-92.48,2.33.3,42.68,92.49c-1.78-.09-3.56-.2-5.32-.31" transform="translate(-104.32 -32)" fill="#ea8b1c"/>
    <path d="M220.32,208.8l-53.39-95.44,2.09.38,56.86,95.49-5.56-.43" transform="translate(-104.32 -32)" fill="#ea8b1c"/>
    <path d="M207.87,207.61,136.2,106.12l1.6.49,75.92,101.6q-3-.28-5.85-.6" transform="translate(-104.32 -32)" fill="#ea8b1c"/>
    <path d="M192.46,205.71,112.6,114.57v-1.11l86.12,93.08q-3.16-.39-6.26-.83" transform="translate(-104.32 -32)" fill="#ea8b1c"/>
    <path d="M171.78,202.28,112.6,147.53v-1.85l66,57.86c-2.32-.4-4.59-.82-6.84-1.26" transform="translate(-104.32 -32)" fill="#ea8b1c"/>
    <path d="M138.1,193.76l-25.5-19.07v-2.26l33.8,23.87q-4.32-1.23-8.3-2.54" transform="translate(-104.32 -32)" fill="#ea8b1c"/>
    <path d="M388.88,196.3l33.8-23.87v2.26l-25.52,19.06c-2.64.88-5.41,1.73-8.28,2.55" transform="translate(-104.32 -32)" fill="#ea8b1c"/>
    <path d="M356.65,203.54l66-57.86v1.85l-59.19,54.75c-2.24.44-4.53.85-6.84,1.26" transform="translate(-104.32 -32)" fill="#ea8b1c"/>
    <path d="M336.55,206.55l86.13-93.1v1.12l-79.87,91.14q-3.09.43-6.26.84" transform="translate(-104.32 -32)" fill="#ea8b1c"/>
    <path d="M321.55,208.21l75.92-101.6,1.6-.49L327.4,207.61q-2.89.31-5.85.6" transform="translate(-104.32 -32)" fill="#ea8b1c"/>
    <path d="M309.39,209.23l56.87-95.49,2.08-.37L315,208.8l-5.56.43" transform="translate(-104.32 -32)" fill="#ea8b1c"/>
    <path d="M299,209.88l42.68-92.49,2.33-.29-39.68,92.47c-1.77.11-3.54.22-5.33.31" transform="translate(-104.32 -32)" fill="#ea8b1c"/>
    <path d="M289.73,210.31l30.81-90.63,2.46-.23-28.1,90.64-5.17.22" transform="translate(-104.32 -32)" fill="#ea8b1c"/>
    <path d="M281.19,210.56l20.26-89.35L304,121l-17.75,89.39-5.05.13" transform="translate(-104.32 -32)" fill="#ea8b1c"/>
    <path d="M273.08,210.69l10.52-88.57,2.57-.09-8.11,88.6-5,.06" transform="translate(-104.32 -32)" fill="#ea8b1c"/>
  </g>
  <polygon points="318.36 163.44 318.36 164.87 318.36 165.94 318.36 165.94 318.36 163.44 318.36 163.44" fill="#ea8b1c"/>
  <g clip-path="url(#clip-path)">
    <path d="M413.45,349.63l9.23,4.26v2.65l-12.63-5.42c1.17-.49,2.3-1,3.4-1.49" transform="translate(-104.32 -32)" fill="#ea8b1c"/>
    <path d="M125.23,351.12l-12.63,5.42v-2.65l9.22-4.26c1.1.5,2.23,1,3.41,1.49" transform="translate(-104.32 -32)" fill="#ea8b1c"/>
    <path d="M146.22,358.14,112.6,377v-2.51L142,357c1.38.4,2.8.8,4.24,1.19" transform="translate(-104.32 -32)" fill="#ea8b1c"/>
    <path d="M165.5,362.6,112.6,400v-2.26l48.23-36.05c1.53.33,3.09.64,4.67,1" transform="translate(-104.32 -32)" fill="#ea8b1c"/>
    <path d="M182.42,365.52,112.6,426.7v-1.84l65-60.1,4.86.76" transform="translate(-104.32 -32)" fill="#ea8b1c"/>
    <path d="M197.19,367.49,123.61,447l-1.08-.55,69.75-79.59c1.62.21,3.26.41,4.91.6" transform="translate(-104.32 -32)" fill="#ea8b1c"/>
    <path d="M210.23,368.85,145.9,454.93l-1.42-.39,60.84-86.16,4.91.47" transform="translate(-104.32 -32)" fill="#ea8b1c"/>
    <path d="M221.92,369.8,168.4,459.68l-1.68-.28,50.34-90c1.61.13,3.23.24,4.86.36" transform="translate(-104.32 -32)" fill="#ea8b1c"/>
    <path d="M232.6,370.46,190,462.76l-1.87-.22,39.64-92.35c1.6.09,3.2.19,4.82.27" transform="translate(-104.32 -32)" fill="#ea8b1c"/>
    <path d="M242.54,370.91l-31.91,93.88-2-.17,29.12-93.9,4.77.19" transform="translate(-104.32 -32)" fill="#ea8b1c"/>
    <path d="M252,371.2l-21.51,94.85-2.06-.1,18.83-94.88,4.74.13" transform="translate(-104.32 -32)" fill="#ea8b1c"/>
    <path d="M261.05,371.35l-11.33,95.4-2.11-.05,8.73-95.42,4.71.07" transform="translate(-104.32 -32)" fill="#ea8b1c"/>
    <path d="M270,371.37,268.7,467h-2.12l-1.29-95.59H270" transform="translate(-104.32 -32)" fill="#ea8b1c"/>
    <path d="M278.94,371.28l8.72,95.42-2.11.05-11.32-95.4,4.71-.07" transform="translate(-104.32 -32)" fill="#ea8b1c"/>
    <path d="M288.05,371.07,306.88,466l-2.06.1-21.5-94.85,4.73-.13" transform="translate(-104.32 -32)" fill="#ea8b1c"/>
    <path d="M297.51,370.72l29.12,93.9-2,.17-31.91-93.88,4.77-.19" transform="translate(-104.32 -32)" fill="#ea8b1c"/>
    <path d="M307.49,370.19l39.64,92.35-1.86.22-42.6-92.3c1.62-.08,3.22-.18,4.82-.27" transform="translate(-104.32 -32)" fill="#ea8b1c"/>
    <path d="M318.22,369.44l50.34,90-1.68.29L313.35,369.8c1.64-.11,3.26-.24,4.87-.36" transform="translate(-104.32 -32)" fill="#ea8b1c"/>
    <path d="M330,368.38l60.85,86.16-1.43.39L325,368.85l4.91-.47" transform="translate(-104.32 -32)" fill="#ea8b1c"/>
    <path d="M343,366.89l69.75,79.59-1.08.55-73.58-79.54c1.65-.19,3.29-.39,4.91-.6" transform="translate(-104.32 -32)" fill="#ea8b1c"/>
    <path d="M357.71,364.76l65,60.1v1.84l-69.82-61.18,4.85-.76" transform="translate(-104.32 -32)" fill="#ea8b1c"/>
    <path d="M374.44,361.64l48.24,36.05V400l-52.9-37.36c1.57-.31,3.13-.63,4.66-1" transform="translate(-104.32 -32)" fill="#ea8b1c"/>
    <path d="M393.3,357l29.38,17.49V377l-33.62-18.81c1.44-.39,2.85-.79,4.24-1.19" transform="translate(-104.32 -32)" fill="#ea8b1c"/>
  </g>
  <polygon points="318.36 303.19 318.36 304.55 318.36 305.93 318.36 305.93 318.36 303.19 318.36 303.19" fill="#ea8b1c"/>
  <g clip-path="url(#clip-path)">
    <path d="M268.93,122.4l1.19,88.31h-5l1.19-88.31h2.59" transform="translate(-104.32 -32)" fill="#ea8b1c"/>
    <path d="M422.67,344.73c-25.71,16.14-85.44,26.65-155,26.65s-129.33-10.51-155-26.65v-17C138.3,343.89,198,356,267.64,356s129.33-12.12,155-28.26Z" transform="translate(-104.32 -32)" fill="#790000"/>
    <path d="M422.67,331.53C397,347.67,337.23,359,267.64,359s-129.33-11.31-155-27.45v-1.42c25.7,16.14,85.43,27.46,155,27.46s129.33-11.32,155-27.46Z" transform="translate(-104.32 -32)" fill="#f48120"/>
    <path d="M422.67,342.16c-25.71,16.14-85.44,27.45-155,27.45s-129.33-11.31-155-27.45v-1.5c25.7,16.15,85.43,27.46,155,27.46s129.33-11.31,155-27.46Z" transform="translate(-104.32 -32)" fill="#f48120"/>
    <path d="M113.54,335.39a2.94,2.94,0,1,1-.64,4.1,2.62,2.62,0,0,1-.3-.51v-2.43a2.92,2.92,0,0,1,.94-1.16" transform="translate(-104.32 -32)" fill="#f3ddad"/>
    <path d="M120.06,338.58a2.94,2.94,0,1,1-.65,4.1,2.93,2.93,0,0,1,.65-4.1" transform="translate(-104.32 -32)" fill="#f3ddad"/>
    <path d="M126.65,341.48a2.94,2.94,0,1,1-.65,4.11,2.92,2.92,0,0,1,.65-4.11" transform="translate(-104.32 -32)" fill="#f3ddad"/>
    <path d="M133.45,344a2.94,2.94,0,1,1-.65,4.11,2.93,2.93,0,0,1,.65-4.11" transform="translate(-104.32 -32)" fill="#f3ddad"/>
    <path d="M140.25,346.23a2.94,2.94,0,1,1-.65,4.1,2.93,2.93,0,0,1,.65-4.1" transform="translate(-104.32 -32)" fill="#f3ddad"/>
    <path d="M147.19,348.14a2.94,2.94,0,1,1-.65,4.1,2.92,2.92,0,0,1,.65-4.1" transform="translate(-104.32 -32)" fill="#f3ddad"/>
    <path d="M154.27,349.91a2.94,2.94,0,1,1-.64,4.11,2.92,2.92,0,0,1,.64-4.11" transform="translate(-104.32 -32)" fill="#f3ddad"/>
    <path d="M161.35,351.26a2.93,2.93,0,1,1-.64,4.1,2.94,2.94,0,0,1,.64-4.1" transform="translate(-104.32 -32)" fill="#f3ddad"/>
    <path d="M421.73,335.39a2.94,2.94,0,1,0,.65,4.1,2.82,2.82,0,0,0,.29-.5v-2.45a3,3,0,0,0-.94-1.15" transform="translate(-104.32 -32)" fill="#f3ddad"/>
    <path d="M415.22,338.58a2.94,2.94,0,1,0,.64,4.1,2.94,2.94,0,0,0-.64-4.1" transform="translate(-104.32 -32)" fill="#f3ddad"/>
    <path d="M408.63,341.48a2.94,2.94,0,1,0,.64,4.11,2.92,2.92,0,0,0-.64-4.11" transform="translate(-104.32 -32)" fill="#f3ddad"/>
    <path d="M401.83,344a2.94,2.94,0,1,0,.64,4.11,2.94,2.94,0,0,0-.64-4.11" transform="translate(-104.32 -32)" fill="#f3ddad"/>
    <path d="M395,346.23a2.94,2.94,0,1,0,.65,4.1,2.93,2.93,0,0,0-.65-4.1" transform="translate(-104.32 -32)" fill="#f3ddad"/>
    <path d="M388.09,348.14a2.94,2.94,0,1,0,.64,4.1,2.92,2.92,0,0,0-.64-4.1" transform="translate(-104.32 -32)" fill="#f3ddad"/>
    <path d="M381,349.91a2.94,2.94,0,1,0,.64,4.11,2.93,2.93,0,0,0-.64-4.11" transform="translate(-104.32 -32)" fill="#f3ddad"/>
    <path d="M373.92,351.26a2.93,2.93,0,1,0,.65,4.1,2.93,2.93,0,0,0-.65-4.1" transform="translate(-104.32 -32)" fill="#f3ddad"/>
    <path d="M422.67,199.44c-25.71,16.14-85.44,26.65-155,26.65s-129.33-10.51-155-26.65v-17c25.7,16.14,85.43,28.26,155,28.26s129.33-12.12,155-28.26Z" transform="translate(-104.32 -32)" fill="#790000"/>
    <path d="M422.67,186.24c-25.71,16.14-85.44,27.45-155,27.45s-129.33-11.31-155-27.45v-1.43c25.7,16.15,85.43,27.47,155,27.47S397,201,422.67,184.81Z" transform="translate(-104.32 -32)" fill="#f48120"/>
    <path d="M422.67,196.87c-25.71,16.14-85.44,27.45-155,27.45S138.31,213,112.6,196.87v-1.5c25.7,16.14,85.43,27.46,155,27.46s129.33-11.32,155-27.46Z" transform="translate(-104.32 -32)" fill="#f48120"/>
    <path d="M113.54,190.1a2.94,2.94,0,1,1-.64,4.1,2.62,2.62,0,0,1-.3-.51v-2.43a2.92,2.92,0,0,1,.94-1.16" transform="translate(-104.32 -32)" fill="#f3ddad"/>
    <path d="M120.06,193.29a2.94,2.94,0,1,1-.65,4.1,2.93,2.93,0,0,1,.65-4.1" transform="translate(-104.32 -32)" fill="#f3ddad"/>
    <path d="M126.65,196.19a2.94,2.94,0,1,1-.65,4.1,2.93,2.93,0,0,1,.65-4.1" transform="translate(-104.32 -32)" fill="#f3ddad"/>
    <path d="M133.45,198.74a2.94,2.94,0,1,1-.65,4.1,2.92,2.92,0,0,1,.65-4.1" transform="translate(-104.32 -32)" fill="#f3ddad"/>
    <path d="M140.25,200.94a2.94,2.94,0,1,1-.65,4.1,2.93,2.93,0,0,1,.65-4.1" transform="translate(-104.32 -32)" fill="#f3ddad"/>
    <path d="M147.19,202.85a2.94,2.94,0,1,1-.65,4.1,2.93,2.93,0,0,1,.65-4.1" transform="translate(-104.32 -32)" fill="#f3ddad"/>
    <path d="M154.27,204.62a2.94,2.94,0,1,1-.64,4.1,2.93,2.93,0,0,1,.64-4.1" transform="translate(-104.32 -32)" fill="#f3ddad"/>
    <path d="M161.35,206a2.93,2.93,0,1,1-.64,4.1,2.94,2.94,0,0,1,.64-4.1" transform="translate(-104.32 -32)" fill="#f3ddad"/>
    <path d="M421.73,190.1a2.94,2.94,0,1,0,.65,4.1,2.58,2.58,0,0,0,.29-.51v-2.44a3,3,0,0,0-.94-1.15" transform="translate(-104.32 -32)" fill="#f3ddad"/>
    <path d="M415.22,193.29a2.94,2.94,0,1,0,.64,4.1,2.94,2.94,0,0,0-.64-4.1" transform="translate(-104.32 -32)" fill="#f3ddad"/>
    <path d="M408.63,196.19a2.94,2.94,0,1,0,.64,4.1,2.93,2.93,0,0,0-.64-4.1" transform="translate(-104.32 -32)" fill="#f3ddad"/>
    <path d="M401.83,198.74a2.94,2.94,0,1,0,.64,4.1,2.93,2.93,0,0,0-.64-4.1" transform="translate(-104.32 -32)" fill="#f3ddad"/>
    <path d="M395,200.94a2.94,2.94,0,1,0,.65,4.1,2.93,2.93,0,0,0-.65-4.1" transform="translate(-104.32 -32)" fill="#f3ddad"/>
    <path d="M388.09,202.85a2.94,2.94,0,1,0,.64,4.1,2.93,2.93,0,0,0-.64-4.1" transform="translate(-104.32 -32)" fill="#f3ddad"/>
    <path d="M381,204.62a2.94,2.94,0,1,0,.64,4.1,2.94,2.94,0,0,0-.64-4.1" transform="translate(-104.32 -32)" fill="#f3ddad"/>
    <path d="M373.92,206a2.93,2.93,0,1,0,.65,4.1,2.93,2.93,0,0,0-.65-4.1" transform="translate(-104.32 -32)" fill="#f3ddad"/>
    <path d="M168.72,207.38a2.94,2.94,0,1,1-.64,4.11,2.94,2.94,0,0,1,.64-4.11" transform="translate(-104.32 -32)" fill="#f3ddad"/>
    <path d="M176.08,208.8a2.94,2.94,0,1,1-.64,4.1,2.94,2.94,0,0,1,.64-4.1" transform="translate(-104.32 -32)" fill="#f3ddad"/>
    <path d="M366.56,207.38a2.94,2.94,0,1,0,.64,4.11,3,3,0,0,0-.64-4.11" transform="translate(-104.32 -32)" fill="#f3ddad"/>
    <path d="M359.19,208.8a2.94,2.94,0,1,0,.64,4.1,2.94,2.94,0,0,0-.64-4.1" transform="translate(-104.32 -32)" fill="#f3ddad"/>
    <path d="M110.44,444.75c40.34,31.79,180,34.65,237.72,25-20.58,13.31-198.33,14.76-237.72-20Z" transform="translate(-104.32 -32)" fill="#fff"/>
    <path d="M349.55,473.88c32.93-8.53,61.62-15.26,77.51-32.26v3.73a9.22,9.22,0,0,1-2.39,5.79c-14.77,11.31-47.9,20.68-75.12,22.74" transform="translate(-104.32 -32)" fill="#929497"/>
    <path d="M267.64,155.19A137.84,137.84,0,1,1,129.81,293,137.83,137.83,0,0,1,267.64,155.19" transform="translate(-104.32 -32)" fill="#790000"/>
    <path d="M267.64,157.86A135.16,135.16,0,1,1,132.48,293,135.16,135.16,0,0,1,267.64,157.86" transform="translate(-104.32 -32)" fill="#f48120"/>
    <path d="M267.64,159.18A133.84,133.84,0,1,1,133.8,293,133.84,133.84,0,0,1,267.64,159.18" transform="translate(-104.32 -32)" fill="#790000"/>
    <path d="M267.64,168.71A124.31,124.31,0,1,1,143.33,293,124.3,124.3,0,0,1,267.64,168.71" transform="translate(-104.32 -32)" fill="#f48120"/>
    <path d="M267.64,170.05a123,123,0,1,1-123,123,123,123,0,0,1,123-123" transform="translate(-104.32 -32)" fill="#790000"/>
    <path d="M267.64,161.18a2.94,2.94,0,1,1-2.94,2.94,2.94,2.94,0,0,1,2.94-2.94" transform="translate(-104.32 -32)" fill="#f3ddad"/>
    <path d="M275.16,161.4a2.93,2.93,0,1,1-3.1,2.76,2.94,2.94,0,0,1,3.1-2.76" transform="translate(-104.32 -32)" fill="#f3ddad"/>
    <path d="M282.66,162a2.94,2.94,0,1,1-3.25,2.58,2.92,2.92,0,0,1,3.25-2.58" transform="translate(-104.32 -32)" fill="#f3ddad"/>
    <path d="M290.11,163.11a2.94,2.94,0,1,1-3.39,2.39,3,3,0,0,1,3.39-2.39" transform="translate(-104.32 -32)" fill="#f3ddad"/>
    <path d="M297.49,164.61A2.94,2.94,0,1,1,294,166.8a2.94,2.94,0,0,1,3.53-2.19" transform="translate(-104.32 -32)" fill="#f3ddad"/>
    <path d="M304.77,166.52a2.94,2.94,0,1,1-3.65,2,2.94,2.94,0,0,1,3.65-2" transform="translate(-104.32 -32)" fill="#f3ddad"/>
    <path d="M311.93,168.85a2.94,2.94,0,1,1-3.76,1.78,2.93,2.93,0,0,1,3.76-1.78" transform="translate(-104.32 -32)" fill="#f3ddad"/>
    <path d="M318.94,171.58a2.94,2.94,0,1,1-3.84,1.56,2.93,2.93,0,0,1,3.84-1.56" transform="translate(-104.32 -32)" fill="#f3ddad"/>
    <path d="M325.79,174.7a2.94,2.94,0,1,1-3.93,1.35,2.94,2.94,0,0,1,3.93-1.35" transform="translate(-104.32 -32)" fill="#f3ddad"/>
    <path d="M332.45,178.22a2.94,2.94,0,1,1-4,1.11,2.93,2.93,0,0,1,4-1.11" transform="translate(-104.32 -32)" fill="#f3ddad"/>
    <path d="M338.89,182.1a2.94,2.94,0,1,1-4.05.89,2.94,2.94,0,0,1,4.05-.89" transform="translate(-104.32 -32)" fill="#f3ddad"/>
    <path d="M345.11,186.35A2.94,2.94,0,1,1,341,187a3,3,0,0,1,4.11-.65" transform="translate(-104.32 -32)" fill="#f3ddad"/>
    <path d="M351.07,191a2.94,2.94,0,1,1-4.13.41,2.94,2.94,0,0,1,4.13-.41" transform="translate(-104.32 -32)" fill="#f3ddad"/>
    <path d="M356.76,195.87a2.94,2.94,0,1,1-4,4.33,2.94,2.94,0,0,1,4-4.33" transform="translate(-104.32 -32)" fill="#f3ddad"/>
    <path d="M362.16,201.12a2.93,2.93,0,1,1-4.16-.06,2.94,2.94,0,0,1,4.16.06" transform="translate(-104.32 -32)" fill="#f3ddad"/>
    <path d="M367.25,206.67a2.94,2.94,0,1,1-4.15-.3,2.93,2.93,0,0,1,4.15.3" transform="translate(-104.32 -32)" fill="#f3ddad"/>
    <path d="M372,212.49a2.94,2.94,0,1,1-4.11-.53,2.92,2.92,0,0,1,4.11.53" transform="translate(-104.32 -32)" fill="#f3ddad"/>
    <path d="M376.44,218.58a2.94,2.94,0,1,1-4.08-.77,2.94,2.94,0,0,1,4.08.77" transform="translate(-104.32 -32)" fill="#f3ddad"/>
    <path d="M380.51,224.91a2.94,2.94,0,1,1-4-1,2.93,2.93,0,0,1,4,1" transform="translate(-104.32 -32)" fill="#f3ddad"/>
    <path d="M384.21,231.47a2.93,2.93,0,1,1-4-1.23,2.94,2.94,0,0,1,4,1.23" transform="translate(-104.32 -32)" fill="#f3ddad"/>
    <path d="M387.53,238.22a2.94,2.94,0,1,1-3.89-1.45,2.92,2.92,0,0,1,3.89,1.45" transform="translate(-104.32 -32)" fill="#f3ddad"/>
    <path d="M380.56,361a2.94,2.94,0,1,1-1-4,2.94,2.94,0,0,1,1,4" transform="translate(-104.32 -32)" fill="#f3ddad"/>
    <path d="M376.49,367.37a2.94,2.94,0,1,1-.77-4.08,2.93,2.93,0,0,1,.77,4.08" transform="translate(-104.32 -32)" fill="#f3ddad"/>
    <path d="M372.07,373.46a2.94,2.94,0,1,1-.54-4.11,2.94,2.94,0,0,1,.54,4.11" transform="translate(-104.32 -32)" fill="#f3ddad"/>
    <path d="M367.3,379.29a2.94,2.94,0,1,1-.29-4.14,2.93,2.93,0,0,1,.29,4.14" transform="translate(-104.32 -32)" fill="#f3ddad"/>
    <path d="M362.22,384.84a2.94,2.94,0,1,1-.06-4.15,3,3,0,0,1,.06,4.15" transform="translate(-104.32 -32)" fill="#f3ddad"/>
    <path d="M356.82,390.09a2.94,2.94,0,1,1,.18-4.15,2.94,2.94,0,0,1-.18,4.15" transform="translate(-104.32 -32)" fill="#f3ddad"/>
    <path d="M351.14,395a2.94,2.94,0,1,1,.41-4.13,2.94,2.94,0,0,1-.41,4.13" transform="translate(-104.32 -32)" fill="#f3ddad"/>
    <path d="M345.18,399.62a2.94,2.94,0,1,1,.65-4.1,2.93,2.93,0,0,1-.65,4.1" transform="translate(-104.32 -32)" fill="#f3ddad"/>
    <path d="M339,403.87a2.94,2.94,0,1,1,.88-4.05,2.93,2.93,0,0,1-.88,4.05" transform="translate(-104.32 -32)" fill="#f3ddad"/>
    <path d="M332.52,407.77a2.94,2.94,0,1,1,1.11-4,2.94,2.94,0,0,1-1.11,4" transform="translate(-104.32 -32)" fill="#f3ddad"/>
    <path d="M325.87,411.28a2.94,2.94,0,1,1,1.33-3.93,2.94,2.94,0,0,1-1.33,3.93" transform="translate(-104.32 -32)" fill="#f3ddad"/>
    <path d="M319,414.41a2.94,2.94,0,1,1,1.56-3.85,2.93,2.93,0,0,1-1.56,3.85" transform="translate(-104.32 -32)" fill="#f3ddad"/>
    <path d="M312,417.15a2.94,2.94,0,1,1,1.78-3.75,2.93,2.93,0,0,1-1.78,3.75" transform="translate(-104.32 -32)" fill="#f3ddad"/>
    <path d="M304.85,419.48a2.94,2.94,0,0,1-1.66-5.64,2.94,2.94,0,1,1,1.66,5.64" transform="translate(-104.32 -32)" fill="#f3ddad"/>
    <path d="M297.58,421.4a2.94,2.94,0,1,1,2.19-3.53,2.93,2.93,0,0,1-2.19,3.53" transform="translate(-104.32 -32)" fill="#f3ddad"/>
    <path d="M290.2,422.9a2.94,2.94,0,1,1,2.39-3.4,2.94,2.94,0,0,1-2.39,3.4" transform="translate(-104.32 -32)" fill="#f3ddad"/>
    <path d="M282.75,424a2.93,2.93,0,1,1,2.58-3.25,2.93,2.93,0,0,1-2.58,3.25" transform="translate(-104.32 -32)" fill="#f3ddad"/>
    <path d="M275.25,424.62a2.93,2.93,0,1,1,2.76-3.1,2.93,2.93,0,0,1-2.76,3.1" transform="translate(-104.32 -32)" fill="#f3ddad"/>
    <path d="M267.72,424.84a2.94,2.94,0,1,1,2.94-2.94,2.94,2.94,0,0,1-2.94,2.94" transform="translate(-104.32 -32)" fill="#f3ddad"/>
    <path d="M260.2,424.63a2.93,2.93,0,1,1,3.1-2.76,2.94,2.94,0,0,1-3.1,2.76" transform="translate(-104.32 -32)" fill="#f3ddad"/>
    <path d="M252.7,424a2.94,2.94,0,1,1,3.25-2.59A2.95,2.95,0,0,1,252.7,424" transform="translate(-104.32 -32)" fill="#f3ddad"/>
    <path d="M245.25,422.93a2.94,2.94,0,1,1,3.39-2.4,2.95,2.95,0,0,1-3.39,2.4" transform="translate(-104.32 -32)" fill="#f3ddad"/>
    <path d="M237.87,421.44a2.94,2.94,0,1,1,3.52-2.2,2.94,2.94,0,0,1-3.52,2.2" transform="translate(-104.32 -32)" fill="#f3ddad"/>
    <path d="M230.59,419.53a2.93,2.93,0,1,1,3.64-2,2.94,2.94,0,0,1-3.64,2" transform="translate(-104.32 -32)" fill="#f3ddad"/>
    <path d="M223.43,417.21a2.94,2.94,0,1,1,3.75-1.78,2.94,2.94,0,0,1-3.75,1.78" transform="translate(-104.32 -32)" fill="#f3ddad"/>
    <path d="M216.41,414.49a2.94,2.94,0,1,1,3.85-1.57,2.93,2.93,0,0,1-3.85,1.57" transform="translate(-104.32 -32)" fill="#f3ddad"/>
    <path d="M209.56,411.36a2.94,2.94,0,1,1,3.93-1.34,2.93,2.93,0,0,1-3.93,1.34" transform="translate(-104.32 -32)" fill="#f3ddad"/>
    <path d="M202.9,407.86a2.94,2.94,0,1,1,4-1.12,3,3,0,0,1-4,1.12" transform="translate(-104.32 -32)" fill="#f3ddad"/>
    <path d="M196.45,404a2.94,2.94,0,1,1,4.06-.89,2.94,2.94,0,0,1-4.06.89" transform="translate(-104.32 -32)" fill="#f3ddad"/>
    <path d="M190.23,399.73a2.94,2.94,0,1,1,4.1-.65,2.94,2.94,0,0,1-4.1.65" transform="translate(-104.32 -32)" fill="#f3ddad"/>
    <path d="M184.27,395.14a2.94,2.94,0,1,1,4.13-.42,2.94,2.94,0,0,1-4.13.42" transform="translate(-104.32 -32)" fill="#f3ddad"/>
    <path d="M178.58,390.22a2.94,2.94,0,1,1,4.14-.18,2.93,2.93,0,0,1-4.14.18" transform="translate(-104.32 -32)" fill="#f3ddad"/>
    <path d="M173.17,385a2.94,2.94,0,1,1,4.16,0,2.95,2.95,0,0,1-4.16,0" transform="translate(-104.32 -32)" fill="#f3ddad"/>
    <path d="M168.08,379.44a2.94,2.94,0,1,1,4.14.29,2.94,2.94,0,0,1-4.14-.29" transform="translate(-104.32 -32)" fill="#f3ddad"/>
    <path d="M163.31,373.61a2.94,2.94,0,1,1,4.12.53,2.92,2.92,0,0,1-4.12-.53" transform="translate(-104.32 -32)" fill="#f3ddad"/>
    <path d="M158.88,367.53a2.94,2.94,0,1,1,4.08.76,2.94,2.94,0,0,1-4.08-.76" transform="translate(-104.32 -32)" fill="#f3ddad"/>
    <path d="M154.8,361.2a2.94,2.94,0,1,1,4,1,2.93,2.93,0,0,1-4-1" transform="translate(-104.32 -32)" fill="#f3ddad"/>
    <path d="M151.09,354.65a2.94,2.94,0,1,1,4,1.22,2.94,2.94,0,0,1-4-1.22" transform="translate(-104.32 -32)" fill="#f3ddad"/>
    <path d="M147.77,347.9a2.94,2.94,0,1,1,3.89,1.44,2.94,2.94,0,0,1-3.89-1.44" transform="translate(-104.32 -32)" fill="#f3ddad"/>
    <path d="M144.83,341a2.94,2.94,0,1,1,3.8,1.66,2.95,2.95,0,0,1-3.8-1.66" transform="translate(-104.32 -32)" fill="#f3ddad"/>
    <path d="M142.29,333.88a2.94,2.94,0,1,1,3.71,1.88,2.93,2.93,0,0,1-3.71-1.88" transform="translate(-104.32 -32)" fill="#f3ddad"/>
    <path d="M140.17,326.66a2.93,2.93,0,1,1,3.59,2.09,2.93,2.93,0,0,1-3.59-2.09" transform="translate(-104.32 -32)" fill="#f3ddad"/>
    <path d="M138.45,319.33a2.94,2.94,0,1,1,3.47,2.29,2.95,2.95,0,0,1-3.47-2.29" transform="translate(-104.32 -32)" fill="#f3ddad"/>
    <path d="M137.16,311.91a2.94,2.94,0,1,1,3.33,2.49,2.95,2.95,0,0,1-3.33-2.49" transform="translate(-104.32 -32)" fill="#f3ddad"/>
    <path d="M136.29,304.44a2.94,2.94,0,1,1,3.19,2.67,3,3,0,0,1-3.19-2.67" transform="translate(-104.32 -32)" fill="#f3ddad"/>
    <path d="M135.86,296.92a2.94,2.94,0,1,1,3,2.85,2.93,2.93,0,0,1-3-2.85" transform="translate(-104.32 -32)" fill="#f3ddad"/>
    <path d="M135.85,289.39a2.94,2.94,0,1,1,2.85,3,2.92,2.92,0,0,1-2.85-3" transform="translate(-104.32 -32)" fill="#f3ddad"/>
    <path d="M136.27,281.88a2.94,2.94,0,1,1,2.68,3.17,2.93,2.93,0,0,1-2.68-3.17" transform="translate(-104.32 -32)" fill="#f3ddad"/>
    <path d="M137.12,274.4a2.94,2.94,0,1,1,2.49,3.32,2.93,2.93,0,0,1-2.49-3.32" transform="translate(-104.32 -32)" fill="#f3ddad"/>
    <path d="M138.39,267a2.94,2.94,0,1,1,2.3,3.46,2.94,2.94,0,0,1-2.3-3.46" transform="translate(-104.32 -32)" fill="#f3ddad"/>
    <path d="M140.09,259.65a2.93,2.93,0,1,1,2.1,3.58,2.94,2.94,0,0,1-2.1-3.58" transform="translate(-104.32 -32)" fill="#f3ddad"/>
    <path d="M142.2,252.42a2.94,2.94,0,1,1,1.89,3.7,2.94,2.94,0,0,1-1.89-3.7" transform="translate(-104.32 -32)" fill="#f3ddad"/>
    <path d="M144.73,245.33a2.93,2.93,0,1,1,1.67,3.8,2.93,2.93,0,0,1-1.67-3.8" transform="translate(-104.32 -32)" fill="#f3ddad"/>
    <path d="M147.65,238.39a2.94,2.94,0,1,1,1.45,3.89,2.94,2.94,0,0,1-1.45-3.89" transform="translate(-104.32 -32)" fill="#f3ddad"/>
    <path d="M151,231.63a2.94,2.94,0,1,1,1.23,4,2.94,2.94,0,0,1-1.23-4" transform="translate(-104.32 -32)" fill="#f3ddad"/>
    <path d="M154.65,225.07a2.94,2.94,0,1,1,1,4,2.93,2.93,0,0,1-1-4" transform="translate(-104.32 -32)" fill="#f3ddad"/>
    <path d="M158.71,218.74a2.94,2.94,0,1,1,.77,4.08,2.94,2.94,0,0,1-.77-4.08" transform="translate(-104.32 -32)" fill="#f3ddad"/>
    <path d="M163.13,212.64a2.94,2.94,0,1,1,.54,4.12,2.94,2.94,0,0,1-.54-4.12" transform="translate(-104.32 -32)" fill="#f3ddad"/>
    <path d="M167.89,206.81a2.94,2.94,0,1,1,.3,4.14,2.92,2.92,0,0,1-.3-4.14" transform="translate(-104.32 -32)" fill="#f3ddad"/>
    <path d="M173,201.25a2.94,2.94,0,1,1,.06,4.16,2.94,2.94,0,0,1-.06-4.16" transform="translate(-104.32 -32)" fill="#f3ddad"/>
    <path d="M178.36,196a2.94,2.94,0,1,1-.17,4.15,2.93,2.93,0,0,1,.17-4.15" transform="translate(-104.32 -32)" fill="#f3ddad"/>
    <path d="M184.05,191.07a2.93,2.93,0,1,1-.41,4.13,2.93,2.93,0,0,1,.41-4.13" transform="translate(-104.32 -32)" fill="#f3ddad"/>
    <path d="M190,186.46a2.94,2.94,0,1,1-.64,4.11,2.94,2.94,0,0,1,.64-4.11" transform="translate(-104.32 -32)" fill="#f3ddad"/>
    <path d="M196.21,182.2a2.94,2.94,0,1,1-.88,4.07,2.94,2.94,0,0,1,.88-4.07" transform="translate(-104.32 -32)" fill="#f3ddad"/>
    <path d="M202.65,178.31a2.94,2.94,0,1,1-1.11,4,2.93,2.93,0,0,1,1.11-4" transform="translate(-104.32 -32)" fill="#f3ddad"/>
    <path d="M209.3,174.79a2.93,2.93,0,1,1-1.33,3.93,2.95,2.95,0,0,1,1.33-3.93" transform="translate(-104.32 -32)" fill="#f3ddad"/>
    <path d="M216.14,171.65a2.94,2.94,0,1,1-1.55,3.85,2.93,2.93,0,0,1,1.55-3.85" transform="translate(-104.32 -32)" fill="#f3ddad"/>
    <path d="M223.16,168.91a2.94,2.94,0,1,1-1.78,3.76,2.94,2.94,0,0,1,1.78-3.76" transform="translate(-104.32 -32)" fill="#f3ddad"/>
    <path d="M230.31,166.57a2.94,2.94,0,1,1-2,3.65,2.94,2.94,0,0,1,2-3.65" transform="translate(-104.32 -32)" fill="#f3ddad"/>
    <path d="M237.59,164.65a2.94,2.94,0,1,1-2.19,3.53,2.94,2.94,0,0,1,2.19-3.53" transform="translate(-104.32 -32)" fill="#f3ddad"/>
    <path d="M245,163.15a2.93,2.93,0,1,1-2.39,3.4,2.92,2.92,0,0,1,2.39-3.4" transform="translate(-104.32 -32)" fill="#f3ddad"/>
    <path d="M252.41,162.06a2.94,2.94,0,1,1-2.58,3.26,2.94,2.94,0,0,1,2.58-3.26" transform="translate(-104.32 -32)" fill="#f3ddad"/>
    <path d="M259.91,161.41a2.93,2.93,0,1,1-2.76,3.1,2.94,2.94,0,0,1,2.76-3.1" transform="translate(-104.32 -32)" fill="#f3ddad"/>
    <path d="M390.47,245.15a2.94,2.94,0,1,1-3.81-1.67,2.95,2.95,0,0,1,3.81,1.67" transform="translate(-104.32 -32)" fill="#f3ddad"/>
    <path d="M393,252.24a2.94,2.94,0,1,1-3.7-1.88,2.94,2.94,0,0,1,3.7,1.88" transform="translate(-104.32 -32)" fill="#f3ddad"/>
    <path d="M395.12,259.46a2.94,2.94,0,1,1-3.59-2.09,2.93,2.93,0,0,1,3.59,2.09" transform="translate(-104.32 -32)" fill="#f3ddad"/>
    <path d="M396.83,266.8a2.94,2.94,0,1,1-3.46-2.3,2.94,2.94,0,0,1,3.46,2.3" transform="translate(-104.32 -32)" fill="#f3ddad"/>
    <path d="M398.12,274.21a2.94,2.94,0,1,1-3.33-2.49,2.94,2.94,0,0,1,3.33,2.49" transform="translate(-104.32 -32)" fill="#f3ddad"/>
    <path d="M399,281.69A2.94,2.94,0,1,1,395.8,279a2.93,2.93,0,0,1,3.17,2.67" transform="translate(-104.32 -32)" fill="#f3ddad"/>
    <path d="M399.41,289.21a2.94,2.94,0,1,1-3-2.86,2.94,2.94,0,0,1,3,2.86" transform="translate(-104.32 -32)" fill="#f3ddad"/>
    <path d="M399.41,296.73a2.94,2.94,0,1,1-2.86-3,2.95,2.95,0,0,1,2.86,3" transform="translate(-104.32 -32)" fill="#f3ddad"/>
    <path d="M399,304.25a2.94,2.94,0,1,1-2.67-3.18,2.95,2.95,0,0,1,2.67,3.18" transform="translate(-104.32 -32)" fill="#f3ddad"/>
    <path d="M398.13,311.73a2.94,2.94,0,1,1-2.49-3.33,2.94,2.94,0,0,1,2.49,3.33" transform="translate(-104.32 -32)" fill="#f3ddad"/>
    <path d="M396.85,319.14a2.94,2.94,0,1,1-2.3-3.46,3,3,0,0,1,2.3,3.46" transform="translate(-104.32 -32)" fill="#f3ddad"/>
    <path d="M395.14,326.48a2.94,2.94,0,1,1-2.09-3.59,2.93,2.93,0,0,1,2.09,3.59" transform="translate(-104.32 -32)" fill="#f3ddad"/>
    <path d="M393,333.7a2.94,2.94,0,1,1-1.89-3.7,3,3,0,0,1,1.89,3.7" transform="translate(-104.32 -32)" fill="#f3ddad"/>
    <path d="M390.5,340.79a2.94,2.94,0,1,1-1.67-3.8,2.95,2.95,0,0,1,1.67,3.8" transform="translate(-104.32 -32)" fill="#f3ddad"/>
    <path d="M387.57,347.73a2.94,2.94,0,1,1-1.45-3.9,2.94,2.94,0,0,1,1.45,3.9" transform="translate(-104.32 -32)" fill="#f3ddad"/>
    <path d="M384.25,354.48a2.93,2.93,0,1,1-1.22-4,2.93,2.93,0,0,1,1.22,4" transform="translate(-104.32 -32)" fill="#f3ddad"/>
    <path d="M267.64,172.75A120.27,120.27,0,1,1,147.37,293,120.27,120.27,0,0,1,267.64,172.75" transform="translate(-104.32 -32)" fill="#e66a1f"/>
    <path d="M267.64,173.31l1.84,114.12,13.75-113.3-10.1,113.69,25.48-111h0L276.73,288.58l36.62-106.82h0l-33.16,108,47-101.18.08,0L283.59,291.21,340,197l.11.09-53.38,96,64.77-86.19.14.14-61.94,88.21L361.6,218l.18.22-69.3,79.5L370.1,230l.19.31L294.94,300.4l82-57.59.2.42-80,60.15,85-47.28.17.53-83.35,49.93,86.68-36.93.13.65-85.31,39.64,87.07-26.74c0,.25,0,.5.06.76l-86,29.48,86.28-16.89,0,.87L302.33,317l84.45-7.5c0,.32-.09.64-.14,1l-83.92,10.19L384.39,322c-.09.35-.17.7-.26,1.05l-81.41,1.31,78.08,9.48c-.13.37-.27.74-.41,1.11L302.33,328l73.82,16.93-.57,1.16-74-14.49,69,23.65c-.24.39-.48.78-.73,1.17L300.43,335.1l63.77,29.63c-.29.39-.59.78-.89,1.16l-64.37-27.43,58.21,34.87-1,1.14-59-32.83,52.46,39.43-1.17,1.08-53.45-37.53,46.57,43.31-1.32,1-47.71-41.59,40.6,46.58-1.44.93-41.9-45.05,34.61,49.29-1.55.82-36-47.94,28.62,51.45-1.66.7-30.14-50.32L306.23,407c-.58.2-1.16.38-1.74.57l-24.26-52.22,16.7,54.38-1.8.44-18.4-53.69,10.81,55.2c-.62.1-1.23.21-1.85.3l-12.56-54.73,4.94,55.62c-.62.06-1.25.11-1.87.15l-6.72-55.39-.9,55.69H266.7l-.9-55.69L259.08,413c-.63,0-1.25-.09-1.88-.15l4.94-55.62-12.56,54.73-1.84-.3,10.8-55.2-18.4,53.69-1.8-.44,16.71-54.38-24.27,52.22c-.58-.19-1.16-.37-1.73-.57l22.64-53.15-30.15,50.32-1.65-.7L248.5,352l-36,47.94-1.56-.82,34.61-49.29-41.89,45.05c-.49-.31-1-.61-1.45-.93l40.61-46.58-47.72,41.59-1.31-1,46.57-43.31-53.45,37.53-1.17-1.08,52.46-39.43-59,32.83-1-1.14,58.22-34.87L172,365.89l-.88-1.16,63.76-29.63-69.41,21.32c-.24-.39-.49-.77-.72-1.16l69-23.66-74,14.5c-.19-.39-.38-.77-.56-1.16L232.94,328l-78.06,6.93-.4-1.11,78.08-9.48L151.15,323c-.09-.35-.17-.7-.26-1.05l81.67-1.32-83.93-10.19c0-.32-.09-.64-.13-1l84.44,7.5L147.46,297.4c0-.29,0-.58,0-.87l86.29,16.89-86-29.48.06-.76,87.07,26.74-85.31-39.64.12-.65,86.69,36.93L153,256.63l.17-.53,85,47.28-80.05-60.15.2-.42,82,57.59L165,230.33l.19-.31,77.62,67.65-69.3-79.5.18-.22,71.85,77.26L183.59,207l.15-.14,64.76,86.19-53.37-96,.11-.09,56.45,94.23L208,188.58l.08,0,47,101.18-33.16-108h0l36.63,106.82L236.66,176.79h0l25.47,111L252,174.13l13.76,113.3Z" transform="translate(-104.32 -32)" fill="#ea8b1c"/>
  </g>
  <polygon points="66.65 204.81 67.75 213.87 60.95 219.95 69.91 221.71 73.59 230.06 78.03 222.08 87.11 221.16 80.89 214.47 82.82 205.55 74.54 209.4 66.65 204.81" fill="#790000"/>
  <polygon points="68.63 207.63 69.45 214.44 64.34 219.01 71.07 220.33 73.84 226.6 77.17 220.61 83.99 219.91 79.32 214.89 80.77 208.19 74.55 211.08 68.63 207.63" fill="#ffd54f"/>
  <polygon points="52.29 230.62 55.09 237.84 50.77 244.27 58.5 243.84 63.27 249.94 65.25 242.44 72.53 239.79 66.02 235.59 65.74 227.86 59.74 232.75 52.29 230.62" fill="#790000"/>
  <polygon points="54.51 232.53 56.61 237.96 53.36 242.78 59.17 242.46 62.75 247.04 64.24 241.42 69.71 239.43 64.82 236.27 64.61 230.46 60.1 234.13 54.51 232.53" fill="#ffc132"/>
  <polygon points="46.08 258.88 49.85 264.26 47.59 270.43 53.87 268.51 59.04 272.57 59.15 266 64.61 262.34 58.4 260.2 56.6 253.88 52.65 259.13 46.08 258.88" fill="#790000"/>
  <polygon points="48.29 260 51.13 264.05 49.42 268.68 54.14 267.24 58.03 270.29 58.11 265.36 62.21 262.61 57.54 261 56.2 256.25 53.22 260.19 48.29 260" fill="#fbae17"/>
  <polygon points="259.99 204.81 258.89 213.87 265.69 219.95 256.73 221.71 253.05 230.06 248.61 222.08 239.53 221.16 245.75 214.47 243.82 205.55 252.1 209.4 259.99 204.81" fill="#790000"/>
  <polygon points="258.01 207.63 257.18 214.44 262.3 219.01 255.57 220.33 252.8 226.6 249.47 220.61 242.65 219.91 247.32 214.89 245.87 208.19 252.09 211.08 258.01 207.63" fill="#ffd54f"/>
  <polygon points="274.35 230.62 271.55 237.84 275.88 244.27 268.14 243.84 263.37 249.94 261.39 242.44 254.11 239.79 260.62 235.59 260.9 227.86 266.9 232.75 274.35 230.62" fill="#790000"/>
  <polygon points="272.13 232.53 270.03 237.96 273.28 242.78 267.47 242.46 263.89 247.04 262.4 241.42 256.93 239.43 261.82 236.27 262.03 230.46 266.54 234.13 272.13 232.53" fill="#ffc132"/>
  <polygon points="280.56 258.88 276.79 264.26 279.06 270.43 272.77 268.51 267.61 272.57 267.49 266 262.03 262.34 268.24 260.2 270.04 253.88 274 259.13 280.56 258.88" fill="#790000"/>
  <polygon points="278.35 260 275.52 264.05 277.22 268.68 272.5 267.24 268.62 270.29 268.53 265.36 264.43 262.61 269.1 261 270.44 256.25 273.42 260.19 278.35 260" fill="#fbae17"/>
  <g clip-path="url(#clip-path)">
    <path d="M284.41,300.06c-8.88-5.86-9-11.55-18.44-16.43-9.91-5.12-18.86-1.34-24.91,5.6-15.61,17.88,1,42.12,16.8,52,12.64,7.89,26.45,12,39.34,11,15.37-1.18,28.37-23.83,17.49-36.24-7-7.93-21.51-10.13-30.28-15.92" transform="translate(-104.32 -32)" fill="#790000"/>
    <path d="M280.79,307.72c-3.49-2.3-6.37-6-5.78-9.27.35-1.95.68-2.11-.68-3.8-2.32-2.91-4.18-5.61-7.45-7.3-8.85-4.56-17.89-2.47-23.31,3.73-13.95,16,2.11,38.72,16.24,47.54,11.3,7.06,24.64,11.13,36.17,10.24,13.73-1.06,25.17-20.15,15.44-31.25-3.4-3.86-13.92-8.88-18.82-8.6-3.1.17-7.5,1.32-11.81-1.29" transform="translate(-104.32 -32)" fill="#ca4d2e"/>
    <path d="M279.77,309.88c-3.43-2.26-7.88-7.33-7.3-10.56.66-3.64-3.49-9-6.62-10.58-8.71-4.49-16.44-3.36-21.77,2.75-13.73,15.73,2.08,38.12,16,46.8,11.13,6.95,24.25,10.95,35.61,10.08,10.13-.79,18.11-10.86,17.43-20.46-.76-10.72-16.65-15.26-25.26-15.92a17.46,17.46,0,0,1-8.08-2.11" transform="translate(-104.32 -32)" fill="#d95a2b"/>
    <path d="M277.85,301.27c2.22,4.11,4.94,5.76,9.89,6.35,1.78.21,3,.08.8-1-3.5-1.78-6.9-3.57-9.39-6.54-1.36-1.63-2.63-1.26-1.3,1.22" transform="translate(-104.32 -32)" fill="#f7dbb5"/>
    <path d="M261.13,296.06c-4.07-8.7-10.41-9.23-16.55-2.2-12.68,14.53,1.91,35.2,14.76,43.22,10.28,6.42,22.41,10.12,32.89,9.31,5.46-.42,10.42-2.49,13.52-5.53,11.16-10.92-9.34-18.08-17.43-17.64s-12.37-3.6-16.07-8c-4.76-5.61-8-12.51-11.12-19.21" transform="translate(-104.32 -32)" fill="#ed8034"/>
    <path d="M253,289c13.09,10.8,14.5,36.88,36.39,34.18C269.64,316.41,265,288.44,253,289" transform="translate(-104.32 -32)" fill="#e56d2c"/>
    <path d="M252.65,293.4c-5.33-4.54-11.52,2.94-12.15,11.66-.58,8.08,4.15,23,24.5,34.08,3,1.7,15.88,7.47,26.06,6.87,9.65-.56,13.57-8.65,1.77-12.35-4.62-1.45-12.19-2.54-17.73-4.13-27.37-7.85-9.56-25.13-22.45-36.13" transform="translate(-104.32 -32)" fill="#ee8b42"/>
    <path d="M248.3,296.37c-6.27-3.39-9,6.17-7.4,14.91,1.17,6.38,7,17.66,20.34,25.44,17.5,10.17,7.1-6-.26-11.67-8.06-6.22-3.17-23.53-12.68-28.68" transform="translate(-104.32 -32)" fill="#f1964b"/>
    <path d="M245.18,296.76c-3,.88-7.37,16.5,3.73,28-4.65-9.57-5.09-23.78-3.73-28" transform="translate(-104.32 -32)" fill="#f4b177"/>
    <path d="M203.71,342.84c-10.86.82-14.5-3.72-25.22-1.75-11.22,2.07-16.09,10.74-16.65,20.15C160.41,385.48,189,394.7,208,392.78c15.19-1.53,28.93-6.86,38.75-15.74,11.69-10.59,8-37.07-8.57-40.29-10.6-2.06-23.75,5.28-34.48,6.09" transform="translate(-104.32 -32)" fill="#790000"/>
    <path d="M205.59,351.3c-4.27.33-8.92-.85-10.5-3.88-.93-1.79-.76-2.13-2.92-2.65-3.7-.9-6.9-1.92-10.61-1.23-10,1.85-16,9.21-16.52,17.62-1.28,21.67,26,30,42.93,28.3,13.57-1.37,26.91-6.43,35.69-14.38,10.44-9.46,7.74-32.08-7.09-35-5.17-1-16.82,1.53-20.62,4.83-2.4,2.08-5.24,5.76-10.36,6.35" transform="translate(-104.32 -32)" fill="#ca4d2e"/>
    <path d="M206.12,353.69c-4.2.32-11-1-12.53-4-1.75-3.36-8.45-5.07-12-4.42-9.86,1.83-15.41,7.59-15.89,15.87C164.45,382.5,191.27,390.72,208,389c13.36-1.35,26.5-6.34,35.13-14.16,7.72-7,7.86-20.14,1.3-27.48-7.33-8.2-23-1.91-30.43,2.95a17.9,17.9,0,0,1-7.85,3.35" transform="translate(-104.32 -32)" fill="#d95a2b"/>
    <path d="M199.16,347.92c4.38,1.95,7.62,1.57,12-1.06,1.57-.94,2.46-1.79,0-1.32-4,.75-7.82,1.43-11.69.59-2.13-.47-2.93.62-.3,1.79" transform="translate(-104.32 -32)" fill="#f7dbb5"/>
    <path d="M182.37,354.19c-8.75-4.49-14.22-.95-14.78,8.58-1.16,19.71,23.61,27.3,39,25.74,12.34-1.25,24.47-5.85,32.45-13.08,4.15-3.76,6.87-8.54,7.48-12.95,2.18-15.83-18.89-8.78-25.17-3.35s-12.26,4.84-18,3.63c-7.37-1.56-14.31-5.11-21-8.57" transform="translate(-104.32 -32)" fill="#ed8034"/>
    <path d="M171.38,353.58c17.36.54,34.85,20.77,50.86,4.87-20.24,6.88-41.52-12.85-50.86-4.87" transform="translate(-104.32 -32)" fill="#e56d2c"/>
    <path d="M173.84,357.35c-7.16-.34-7.48,9.6-2.53,17,4.59,6.9,17.8,16,41.19,12.23,3.52-.53,17.53-3.91,25.4-10.77,7.45-6.51,5.56-15.51-6.32-11.1-4.64,1.72-11.45,5.58-16.93,7.76-27.07,10.8-23.49-14.35-40.81-15.17" transform="translate(-104.32 -32)" fill="#ee8b42"/>
    <path d="M172.18,362.48c-7.2,1.18-3.41,10.62,3.35,16.7,4.95,4.43,16.71,9.93,32.41,7.84,20.53-2.73,2-9.3-7.53-9.28-10.42,0-17.31-17.05-28.23-15.26" transform="translate(-104.32 -32)" fill="#f1964b"/>
    <path d="M169.89,364.75c-1.84,2.56,4.38,18,20.55,20.3-9.75-4.84-19-16.06-20.55-20.3" transform="translate(-104.32 -32)" fill="#f4b177"/>
    <path d="M280.23,369.3c-9.16-3.4-10.43-8.46-19.9-10.85-9.92-2.52-17.14,2.72-21.11,10.18-10.24,19.23,9.64,37.45,25.82,43,13,4.44,26.15,5.24,37.48,1.67,13.49-4.26,20.41-27.21,8.1-36.05-7.87-5.64-21.33-4.58-30.39-7.94" transform="translate(-104.32 -32)" fill="#790000"/>
    <path d="M278.59,376.91c-3.6-1.34-6.95-4-7.1-7.09-.09-1.82.17-2-1.39-3.26-2.68-2.12-4.9-4.14-8.18-5-8.86-2.24-16.51,1.51-20.07,8.18C232.7,387,251.78,404,266.25,408.9c11.58,4,24.35,4.83,34.47,1.63,12.06-3.79,18.32-23.25,7.31-31.14-3.83-2.75-14.28-5.05-18.61-3.79-2.74.8-6.43,2.74-10.83,1.31" transform="translate(-104.32 -32)" fill="#ca4d2e"/>
    <path d="M278.13,379.05c-3.54-1.31-8.57-4.92-8.72-7.93-.17-3.39-5-7.29-8.12-8.08-8.73-2.21-15.39.41-18.89,7-9,16.92,9.77,33.65,24,38.53,11.4,3.9,24,4.75,33.94,1.61,8.9-2.81,13.95-13.48,11.34-21.92-2.91-9.42-18.06-10.18-25.9-9a16,16,0,0,1-7.66-.21" transform="translate(-104.32 -32)" fill="#d95a2b"/>
    <path d="M274.62,371.74c2.84,3.22,5.62,4.13,10.16,3.63,1.64-.18,2.68-.54.5-1.08-3.49-.87-6.9-1.76-9.74-3.9-1.57-1.17-2.63-.59-.92,1.35" transform="translate(-104.32 -32)" fill="#f7dbb5"/>
    <path d="M258.59,370.57c-5.46-6.94-11.23-6.09-15.26,1.46-8.32,15.63,9,31.09,22.19,35.59,10.52,3.6,22.13,4.39,31.34,1.49,4.8-1.52,8.8-4.39,10.94-7.76,7.71-12.08-12.11-14.23-19.25-12.15s-11.81-.64-16-3.77c-5.42-4-9.75-9.53-13.94-14.86" transform="translate(-104.32 -32)" fill="#ed8034"/>
    <path d="M249.86,366c13.95,6.93,20.63,30,39.63,23-19.06-2-29-26-39.63-23" transform="translate(-104.32 -32)" fill="#e56d2c"/>
    <path d="M250.45,370c-5.71-2.95-9.69,5-8.44,13,1.16,7.34,8.5,19.73,29,25.38,3.07.88,15.76,3.37,24.74.72,8.51-2.51,10.33-10.56-1-11.41-4.43-.34-11.42.26-16.71,0-26.11-1.33-13.78-20.49-27.59-27.64" transform="translate(-104.32 -32)" fill="#ee8b42"/>
    <path d="M247.18,373.51c-6.31-1.73-6.76,7.39-3.52,14.87,2.37,5.46,9.9,14.35,23.48,18.52,17.76,5.46,5.1-6.84-2.66-10.38-8.5-3.89-7.73-20.38-17.3-23" transform="translate(-104.32 -32)" fill="#f1964b"/>
    <path d="M244.47,374.5c-2.46,1.4-3.16,16.29,9.15,24.24-6.14-7.59-9.5-20.21-9.15-24.24" transform="translate(-104.32 -32)" fill="#f4b177"/>
    <path d="M325.28,361.37c-8.44,4.91-13.16,2.67-21,8.45-8.25,6.05-8.8,14.95-5.57,22.77,8.32,20.13,35,16.39,49.6,7.43,11.66-7.17,20.68-16.84,25.13-27.85,5.3-13.12-8-33.06-22.66-29.18-9.36,2.47-17.11,13.53-25.46,18.38" transform="translate(-104.32 -32)" fill="#790000"/>
    <path d="M330.11,367.48c-3.32,1.92-7.54,2.79-10,1-1.46-1.08-1.45-1.42-3.4-1-3.34.71-6.32,1.14-9,3.14-7.37,5.41-9.35,13.7-6.46,20.69,7.44,18,32.69,14.09,45.72,6.07,10.42-6.41,19.21-15.71,23.19-25.55,4.74-11.72-6.28-28.92-19.38-25.46-4.56,1.21-13,7.81-14.76,12-1.13,2.61-2,6.7-5.88,9.18" transform="translate(-104.32 -32)" fill="#ca4d2e"/>
    <path d="M331.47,369.2c-3.27,1.9-9.26,3.48-11.67,1.69-2.72-2-8.79-.8-11.4,1.12-7.25,5.32-9.48,12.13-6.64,19,7.33,17.72,32.18,13.87,45,6,10.26-6.31,18.91-15.46,22.83-25.15,3.5-8.66-1.52-19.33-9.69-22.7-9.12-3.75-19.35,7.46-23.41,14.27a16.15,16.15,0,0,1-5,5.78" transform="translate(-104.32 -32)" fill="#d95a2b"/>
    <path d="M323.6,367.25c4.29-.13,6.76-1.7,9.26-5.53.9-1.38,1.29-2.41-.52-1.07-2.89,2.15-5.75,4.21-9.21,5-1.9.46-2.12,1.65.47,1.56" transform="translate(-104.32 -32)" fill="#f7dbb5"/>
    <path d="M312.49,378.88c-8.82-.21-11.85,4.79-8.58,12.7,6.76,16.36,29.72,12.81,41.57,5.53,9.48-5.83,17.47-14.29,21.09-23.24,1.89-4.66,2.21-9.58,1-13.37-4.42-13.64-18.68.29-21.62,7.12s-8,8.7-13.11,10c-6.55,1.62-13.54,1.46-20.33,1.3" transform="translate(-104.32 -32)" fill="#ed8034"/>
    <path d="M303.38,382.68c14.23-6.35,36.24,3.15,43-15.94-13.66,13.45-38.55,5.85-43,15.94" transform="translate(-104.32 -32)" fill="#e56d2c"/>
    <path d="M306.83,384.76c-5.9,2.52-2.28,10.67,4.63,14.76,6.4,3.77,20.63,6,38-6.22,2.64-1.81,12.62-10,16.29-18.62,3.48-8.17-1.56-14.69-9.43-6.5-3.08,3.2-7.06,9-10.64,12.89-17.64,19.29-24.57-2.41-38.88,3.69" transform="translate(-104.32 -32)" fill="#ee8b42"/>
    <path d="M307.5,389.55c-5.35,3.77,1.4,9.91,9.23,12.17,5.73,1.65,17.37,1.5,29.23-6.33,15.51-10.22-2-8.28-9.7-4.55-8.41,4.09-20.64-7-28.76-1.29" transform="translate(-104.32 -32)" fill="#f1964b"/>
    <path d="M306.54,392.27c-.48,2.79,10.56,12.81,24.53,8.36-9.77-.09-21.64-5.52-24.53-8.36" transform="translate(-104.32 -32)" fill="#f4b177"/>
    <path d="M250.78,374.62c-4.81-7.78-2.84-12.24-8.45-19.47-5.87-7.56-14.21-7.84-21.44-4.62-18.62,8.31-14.43,33.2-5.67,46.6,7,10.72,16.29,18.9,26.71,22.79,12.4,4.61,30.72-8.35,26.71-22-2.56-8.69-13.11-15.65-17.86-23.34" transform="translate(-104.32 -32)" fill="#790000"/>
    <path d="M245.19,379.29c-1.88-3.05-2.8-7-1.16-9.32,1-1.39,1.29-1.39.85-3.2-.77-3.11-1.24-5.88-3.18-8.38-5.25-6.76-13.06-8.39-19.52-5.51-16.64,7.42-12.34,30.95-4.5,42.93,6.26,9.59,15.19,17.57,24.51,21,11.08,4.13,26.9-6.63,23.31-18.79-1.25-4.24-7.64-11.95-11.56-13.5-2.48-1-6.33-1.68-8.75-5.27" transform="translate(-104.32 -32)" fill="#ca4d2e"/>
    <path d="M243.62,380.61c-1.86-3-3.5-8.57-1.88-10.87,1.82-2.6.51-8.25-1.35-10.64-5.17-6.65-11.6-8.55-18-5.71-16.38,7.3-12.14,30.46-4.43,42.26,6.17,9.43,15,17.29,24.13,20.71,8.18,3.05,18.05-1.93,21-9.65,3.28-8.64-7.48-17.92-14-21.54a15.12,15.12,0,0,1-5.53-4.56" transform="translate(-104.32 -32)" fill="#d95a2b"/>
    <path d="M245.23,373.2c.24,4,1.78,6.28,5.42,8.52,1.31.81,2.29,1.14,1-.51-2.08-2.65-4.09-5.27-5-8.49-.47-1.76-1.59-1.94-1.45.48" transform="translate(-104.32 -32)" fill="#f7dbb5"/>
    <path d="M234.07,363.1c0-8.26-4.79-11-12.1-7.69-15.14,6.75-11.22,28.14-4.1,39,5.7,8.72,13.82,16,22.29,19.13a18.83,18.83,0,0,0,12.53.57c12.65-4.49-.75-17.47-7.22-20.05s-8.35-7.26-9.66-12c-1.68-6.08-1.71-12.63-1.74-19" transform="translate(-104.32 -32)" fill="#ed8034"/>
    <path d="M230.28,354.68c6.31,13.14-2,34,16,39.79-12.95-12.43-6.47-35.91-16-39.79" transform="translate(-104.32 -32)" fill="#e56d2c"/>
    <path d="M228.42,358c-2.52-5.47-10-1.87-13.69,4.71-3.37,6.08-5.07,19.45,6.81,35.41,1.76,2.42,9.69,11.56,17.84,14.77,7.73,3,13.71-1.85,5.83-9-3.07-2.79-8.58-6.38-12.33-9.62-18.5-16,1.62-23.05-4.46-36.27" transform="translate(-104.32 -32)" fill="#ee8b42"/>
    <path d="M224,358.71c-3.66-4.9-9.23,1.57-11.14,9-1.4,5.39-.95,16.28,6.68,27.18,10,14.24,7.69-2.12,4-9.2-4-7.76,6-19.49.46-26.94" transform="translate(-104.32 -32)" fill="#f1964b"/>
    <path d="M221.38,357.89c-2.62-.39-11.7,10.2-7.18,23.16-.17-9.14,4.61-20.39,7.18-23.16" transform="translate(-104.32 -32)" fill="#f4b177"/>
    <path d="M208.16,219.52l1.69,10.37c7.06-.25,8.54-4,8.48-6.09-.19-5.63-6.3-4.91-10.17-4.28m-1.79-11,1.4,8.59c3.49-.48,7.77-1.93,6.47-6.28-.49-1.63-2-3.89-7.87-2.31m-5.8,26.16c0-.14-.24-1.47-.26-1.61,2-.66,2.8-1.52,2.63-3.58-.4-4.95-1.56-13.49-3.06-18.41-.54-1.75-1.75-2.08-3.52-2.08,0-.14-.3-1.85-.32-2,1.64-.08,5.27-.57,6.92-.82,3.52-.54,8.17-2,11.67-1.15a6.18,6.18,0,0,1,5.07,5.42c.12,2-.92,4.25-3.46,6,4.87.62,7.59,3.13,8.33,5.88,1.75,6.55-5.1,9.07-10.06,10.07-4.73,1-10.53,1.57-13.94,2.3" transform="translate(-104.32 -32)" fill="#790000"/>
    <path d="M234.77,218a66.91,66.91,0,0,0-2,7.86c-.3,1.87,2.2,2.09,2.67,2.16l.16,2.31a31.87,31.87,0,0,0-9.53.65l-.16-2.31a4,4,0,0,0,2.5-1.67c2.19-3.76,6.11-16.93,8-23.35,1.13.1,4.94-1.2,6-1.94a222.32,222.32,0,0,0,11.63,22.89,6.69,6.69,0,0,0,3,1.92l.16,2.31a53.27,53.27,0,0,0-11.83.82l-.16-2.31c.82-.36,2.19-.79,2.1-2.19,0-1-2.47-5.08-3.68-7.77Zm7.71-3.12c-1.44-3.17-2.2-4.37-4-8-.81,2.34-1.86,5.42-2.85,8.53Z" transform="translate(-104.32 -32)" fill="#790000"/>
    <path d="M309.41,230.76c-6.35-.49-16.59-2-22.8-1.58l.13-1.82c2.77-.6,3.31-1.07,3.58-3.61.39-3.49.64-7.89.92-10.9a43.66,43.66,0,0,0,.13-6.86,3.93,3.93,0,0,0-2.46-2.83l.13-1.82c6,1.52,15,1.21,21.24,1.34-.08,1.16-.19,3.23-.25,4.49l-1.85-.13c-.77-2.61-9.58-2.42-10.86-.22-1.09,1.84-.84,2-1.06,4.34l6.29.44c1.91.13,3.57,0,4.27-2l2,.14a23,23,0,0,0-.53,8.7l-2-.14a4.36,4.36,0,0,0-4-3.47l-6.27-.43-.33,8.93c-.1,3,2.72,3.62,5.73,3.64,3.74,0,5.9.55,6.5-3.08l2,.14c-.14,1.72-.44,5.05-.55,6.69" transform="translate(-104.32 -32)" fill="#790000"/>
    <path d="M321.69,208.6a67.85,67.85,0,0,0-1.17,8.65c-.27,3.66-.56,5.59-.62,9.26,0,3.35,2,3.31,4.76,2.85,8.78-1.26,10.87-17.28,3.56-21.58-2.07-1.46-5.76-2.43-6.53.82m-10.92,22.45.18-1.81c1.57-.39,2.85-.26,3.07-1.49.64-3.61.9-7.35,1.34-11,.2-2.83.61-5.79.66-8.67,0-1.54-.82-2.45-2.74-3.11l.18-1.82c5.51,1.55,11.92.31,16.88,2.11s9.17,6.5,8.46,14c-.63,6.43-5.38,12.29-11.95,13-5,.64-10.9-1.84-16.08-1.22" transform="translate(-104.32 -32)" fill="#790000"/>
    <path d="M257.79,228.45c0-.14,0-1.75,0-1.89,2.12-.29,3-1,3.23-3.06.36-3.67.3-6,.45-9.68a71,71,0,0,0-.19-8.88,2.65,2.65,0,0,0-.43-1.38,4.48,4.48,0,0,0-2.66-1.3c0-.15,0-1.74,0-1.88a60.88,60.88,0,0,0,12.37.21c0,.14,0,1.74,0,1.88a4.51,4.51,0,0,0-2.71,1.22,2.66,2.66,0,0,0-.47,1.35,64,64,0,0,0-.48,8.48c3.14-2.83,9.21-7.9,8.8-9.19s-1.78-1.34-2.85-1.85c0-.13,0-1.72,0-1.85a41.87,41.87,0,0,0,11.24.2c0,.13,0,1.72,0,1.85a10.29,10.29,0,0,0-4.23,2.11c-2.8,2.44-8,7.17-8.91,8.33,2.5,2.56,7.6,9.78,11.58,12.77a8.76,8.76,0,0,0,2.6,1.15c0,.14,0,1.75,0,1.89-3.64-.25-9.21-.34-12.86-.23,0-.14,0-1.74,0-1.88,1.26-.17,3.31-.74,2.23-2.43l-7.61-8.79c0,2.79-.08,4.91.11,8,.13,2.06,1,2.81,3.12,3.17,0,.14,0,1.74,0,1.88-3.65-.24-8.66-.33-12.31-.21" transform="translate(-104.32 -32)" fill="#790000"/>
    <path d="M214.61,259.19v12.45c8.3,1.05,10.75-3.08,11.07-5.51.86-6.61-6.42-6.93-11.07-6.94m0-13.18v10.31c4.17.11,9.46-.77,8.76-6.11-.26-2-1.65-4.93-8.76-4.2M202.84,275.5v-1.93c2.51-.38,3.56-1.25,3.76-3.69.48-5.86.75-16.07-.07-22.11-.29-2.14-1.65-2.76-3.72-3.1v-2.4c1.95.23,6.28.35,8.25.37,4.23,0,9.93-.74,13.87.87a7.31,7.31,0,0,1,4.89,7.31c-.24,2.37-1.87,4.79-5.17,6.33,5.57,1.65,8.28,5.1,8.61,8.46.8,8-7.69,9.63-13.68,9.86-5.71.21-12.6-.18-16.74,0" transform="translate(-104.32 -32)" fill="#790000"/>
    <path d="M261.3,275.53c-7.55,0-19.77-1-27.08,0v-2.16c3.23-.93,3.83-1.54,3.95-4.56.17-4.16.1-9.38.18-12.95-.1-4,.14-4.16-.4-8.12-.25-1.53-1.84-2.69-3.14-3.15v-2.16c7.29,1.3,17.88.2,25.22-.16,0,1.38,0,3.84.06,5.33h-2.18c-1.13-3-11.53-2.08-12.86.63-1.14,2.27-.83,2.38-.89,5.22h7.46c2.27,0,4.23-.31,4.89-2.66h2.36c-.55,2.39-.67,7.77.09,10.33h-2.38a5.15,5.15,0,0,0-5-3.78h-7.44l.34,10.59c.12,3.54,3.51,4,7.06,3.83,4.42-.26,7,.17,7.44-4.18h2.38c0,2-.1,6-.1,7.95" transform="translate(-104.32 -32)" fill="#790000"/>
    <path d="M274.76,260.89a79.28,79.28,0,0,0-2.95,9.13c-.51,2.19,2.42,2.66,3,2.78v2.73a38,38,0,0,0-11.32,0v-2.74a4.73,4.73,0,0,0,3.09-1.77c2.9-4.26,8.6-19.5,11.37-26.94,1.34.21,5.94-1,7.29-1.81a260.94,260.94,0,0,0,11.88,28,7.89,7.89,0,0,0,3.36,2.51v2.74a63.29,63.29,0,0,0-14,0v-2.74c1-.35,2.65-.75,2.65-2.42,0-1.18-2.5-6.19-3.71-9.48Zm9.35-3.05c-1.44-3.86-2.23-5.34-4.11-9.85-1.16,2.71-2.66,6.25-4.07,9.85Z" transform="translate(-104.32 -32)" fill="#790000"/>
    <path d="M332.35,258.91c0,3.29.08,6.59.23,9.88.13,3,.78,3.65,4.32,4.58v2.16a47.59,47.59,0,0,0-12.84,0v-2.16c4-.15,2.36-2.35.85-4.37l-13.3-17.66c0,7-.05,10.49.26,17.45.13,3,.79,3.65,4.32,4.58v2.16a47.59,47.59,0,0,0-12.84,0v-2.16c3.54-.93,4.2-1.55,4.33-4.58.31-7.05.21-12.34.26-19.39,0-1.45,0-2.58-1.11-3.69a5.47,5.47,0,0,0-2-1.27v-2.16c2.46.45,6.87.77,9.32.17l14.36,20.71c.05-2,.08-2.26.09-4.25,0-3.3-.08-6.59-.22-9.88-.14-3-.79-3.66-4.33-4.59v-2.17a46.79,46.79,0,0,0,12.84,0v2.17c-3.54.93-4.19,1.55-4.32,4.59-.15,3.28-.21,6.58-.23,9.88" transform="translate(-104.32 -32)" fill="#790000"/>
    <path d="M212.39,257.52V270c8.3,1,10.76-3.08,11.07-5.51.86-6.61-6.42-6.93-11.07-7m0-13.17v10.31c4.17.11,9.46-.77,8.76-6.11-.26-2-1.65-4.93-8.76-4.2m-11.76,29.49v-1.93c2.5-.39,3.56-1.25,3.75-3.69.48-5.87.75-16.07-.07-22.11-.29-2.14-1.64-2.77-3.71-3.11v-2.39c1.94.23,6.28.35,8.24.37,4.23,0,9.93-.74,13.87.87a7.31,7.31,0,0,1,4.89,7.31c-.24,2.37-1.87,4.79-5.17,6.32,5.58,1.65,8.28,5.1,8.62,8.46.79,8-7.7,9.64-13.68,9.86-5.72.22-12.61-.17-16.74,0" transform="translate(-104.32 -32)" fill="#ffe6c1"/>
    <path d="M259.08,273.87c-7.55-.06-19.76-1-27.07,0v-2.16c3.23-.93,3.82-1.54,3.94-4.57.17-4.15.11-9.37.19-12.94-.11-4,.13-4.16-.41-8.12-.25-1.54-1.84-2.69-3.13-3.15v-2.16c7.28,1.3,17.87.2,25.21-.16,0,1.37,0,3.84.07,5.33h-2.19c-1.13-3-11.53-2.08-12.86.63-1.13,2.27-.83,2.38-.89,5.21h7.46c2.27,0,4.23-.3,4.9-2.66h2.35c-.55,2.39-.67,7.77.09,10.33h-2.38a5.14,5.14,0,0,0-5-3.77H242l.34,10.59c.12,3.53,3.51,4,7.07,3.83,4.42-.27,7,.16,7.43-4.19h2.38c0,2-.1,6-.1,8" transform="translate(-104.32 -32)" fill="#ffe6c1"/>
    <path d="M272.54,259.23a78.66,78.66,0,0,0-3,9.13c-.5,2.18,2.42,2.66,3,2.77v2.74a38,38,0,0,0-11.31,0v-2.74a4.78,4.78,0,0,0,3.08-1.77c2.9-4.27,8.6-19.51,11.38-26.94,1.33.2,5.94-1,7.29-1.81a259.52,259.52,0,0,0,11.87,28,7.8,7.8,0,0,0,3.37,2.52v2.74a62.78,62.78,0,0,0-14,0v-2.74c1-.35,2.65-.75,2.65-2.42,0-1.19-2.5-6.19-3.71-9.48Zm9.35-3.05c-1.44-3.87-2.23-5.34-4.11-9.85-1.16,2.7-2.65,6.25-4.07,9.85Z" transform="translate(-104.32 -32)" fill="#ffe6c1"/>
    <path d="M330.13,257.24c0,3.3.08,6.6.23,9.88.13,3,.79,3.65,4.32,4.59v2.16a47.59,47.59,0,0,0-12.84,0v-2.16c4-.16,2.36-2.36.85-4.37l-13.3-17.67c0,7-.05,10.5.26,17.45.13,3,.78,3.65,4.32,4.59v2.16a47.52,47.52,0,0,0-12.83,0v-2.16c3.53-.94,4.19-1.56,4.32-4.59.31-7.05.21-12.34.26-19.39,0-1.44,0-2.57-1.1-3.68a5.59,5.59,0,0,0-2-1.27c0-.73,0-1.45,0-2.17,2.46.46,6.87.78,9.32.17q7.19,10.36,14.36,20.72c.05-2,.08-2.26.09-4.26,0-3.29-.08-6.58-.22-9.88-.13-3-.79-3.65-4.33-4.58v-2.17a47.59,47.59,0,0,0,12.84,0v2.17c-3.53.93-4.19,1.55-4.32,4.58-.15,3.29-.2,6.58-.23,9.88" transform="translate(-104.32 -32)" fill="#ffe6c1"/>
    <path d="M206.63,217.57,208.32,228c7.06-.25,8.55-4,8.48-6.09-.18-5.63-6.29-4.91-10.17-4.29m-1.78-11,1.39,8.59c3.49-.48,7.78-1.93,6.48-6.29-.49-1.62-2.05-3.87-7.87-2.3m-5.8,26.16c0-.14-.24-1.46-.26-1.61,2-.66,2.79-1.52,2.62-3.58-.4-4.95-1.55-13.49-3.06-18.41-.53-1.74-1.74-2.08-3.51-2.08,0-.14-.3-1.86-.33-2,1.65-.07,5.28-.56,6.92-.81,3.53-.54,8.17-2,11.67-1.15a6.16,6.16,0,0,1,5.07,5.42c.13,2-.91,4.25-3.45,6,4.87.62,7.59,3.13,8.33,5.88,1.74,6.54-5.1,9.07-10.06,10.07-4.73,1-10.53,1.57-13.94,2.3" transform="translate(-104.32 -32)" fill="#ffe6c1"/>
    <path d="M232.14,216.06a68.4,68.4,0,0,0-1.95,7.86c-.3,1.87,2.19,2.1,2.67,2.17l.16,2.3a32.18,32.18,0,0,0-9.53.66l-.16-2.31a4,4,0,0,0,2.5-1.66c2.19-3.77,6.11-16.94,8-23.36,1.13.1,4.94-1.2,6-1.94a220.34,220.34,0,0,0,11.63,22.89,6.66,6.66,0,0,0,3,1.92l.16,2.31a52.63,52.63,0,0,0-11.82.82l-.16-2.31c.81-.35,2.19-.79,2.1-2.2,0-1-2.48-5.07-3.68-7.76Zm7.7-3.11c-1.44-3.17-2.19-4.37-4-8-.82,2.34-1.87,5.41-2.85,8.53Z" transform="translate(-104.32 -32)" fill="#ffe6c1"/>
    <path d="M307.89,228.82c-6.36-.49-16.59-2-22.8-1.58l.12-1.82c2.78-.6,3.31-1.07,3.59-3.61.39-3.49.64-7.89.91-10.89a42.64,42.64,0,0,0,.14-6.87,4,4,0,0,0-2.46-2.83l.12-1.83c6.06,1.53,15.05,1.22,21.25,1.35-.08,1.16-.19,3.23-.26,4.49l-1.84-.13c-.77-2.61-9.58-2.42-10.87-.22-1.08,1.84-.83,2-1.05,4.34l6.28.44c1.92.13,3.58,0,4.28-2l2,.14a23,23,0,0,0-.53,8.7l-2-.14a4.35,4.35,0,0,0-3.95-3.47l-6.27-.43-.33,8.93c-.1,3,2.72,3.62,5.73,3.64,3.73,0,5.89.55,6.5-3.08l2,.14c-.14,1.72-.43,5.05-.54,6.69" transform="translate(-104.32 -32)" fill="#ffe6c1"/>
    <path d="M320.17,206.66a69.45,69.45,0,0,0-1.18,8.65c-.27,3.66-.55,5.59-.61,9.25-.05,3.36,2,3.32,4.76,2.86,8.78-1.26,10.86-17.28,3.55-21.59-2.06-1.45-5.76-2.42-6.52.83m-10.92,22.45.17-1.81c1.57-.39,2.85-.26,3.07-1.49.65-3.61.91-7.35,1.34-11,.2-2.84.62-5.8.66-8.68,0-1.54-.82-2.45-2.73-3.12l.17-1.81c5.51,1.54,11.93.31,16.89,2.11s9.17,6.5,8.45,14c-.62,6.44-5.38,12.3-11.94,13-5,.65-10.9-1.83-16.08-1.21" transform="translate(-104.32 -32)" fill="#ffe6c1"/>
    <path d="M256.26,226.51c0-.14,0-1.75,0-1.89,2.13-.29,3-1,3.23-3.06.37-3.67.31-6,.45-9.68a69.37,69.37,0,0,0-.18-8.89,2.74,2.74,0,0,0-.43-1.37,4.48,4.48,0,0,0-2.67-1.3c0-.15,0-1.74,0-1.88a61.51,61.51,0,0,0,12.36.21c0,.14,0,1.74,0,1.88a4.46,4.46,0,0,0-2.71,1.22,2.66,2.66,0,0,0-.47,1.35,64,64,0,0,0-.49,8.48c3.15-2.83,9.21-7.9,8.8-9.19s-1.78-1.34-2.85-1.85c0-.13,0-1.72,0-1.84a42.28,42.28,0,0,0,11.24.19c0,.13,0,1.72,0,1.85a10.42,10.42,0,0,0-4.23,2.11c-2.79,2.44-8,7.17-8.91,8.33,2.5,2.56,7.61,9.78,11.59,12.77a8.82,8.82,0,0,0,2.59,1.15c0,.14,0,1.75,0,1.89-3.65-.25-9.21-.35-12.87-.23,0-.14,0-1.74,0-1.88,1.27-.17,3.31-.74,2.23-2.43l-7.6-8.79c0,2.79-.09,4.92.11,8,.13,2.06,1,2.81,3.12,3.17,0,.14,0,1.74,0,1.88-3.64-.24-8.65-.33-12.31-.21" transform="translate(-104.32 -32)" fill="#ffe6c1"/>
    <path d="M375.21,60.26C348,54.49,310.23,51,268.94,51c-81.2,0-147,13.72-147,30.65a5.32,5.32,0,0,0,0,.69,123.9,123.9,0,0,0,20.95,8c-6-2.86-9.25-6-9.25-9.26,0-13.77,58-24.94,129.62-24.93S392.87,67.25,392.87,81c0,4.59-6.47,8.89-17.75,12.59,13.68-3.35,26.91-6,35.36-11.21,16.35-10.09-28.86-20.79-35.27-22.15" transform="translate(-104.32 -32)" fill="#a6a8ab"/>
    <path d="M219.08,104.75C189,102.66,121,93.68,108.22,73.66V81.1c0,19.72,61.7,30.39,108.58,34.6,37.77,3.4,63.9,3.4,101.68,0,46.87-4.21,108.58-14.88,108.58-34.6V73.66c-12.82,20-80.74,29-110.86,31.09a705.79,705.79,0,0,1-97.12,0" transform="translate(-104.32 -32)" fill="#bbbdbf"/>
    <path d="M275.57,47.66c34.66,0,69.22,3.33,95.87,8.63,25.8,5.11,50,13.28,45.46,22,7.76-3.89,11.52-9.54.84-16.56C396.38,47.73,336.14,36,267.1,36,196.31,36,134.78,48.2,114.93,62.64c-9.11,6.64-2,14.11,3.52,17.5C118.63,67,157,57.07,186,53c32-4.52,68-5.3,89.58-5.3" transform="translate(-104.32 -32)" fill="#929497"/>
    <path d="M337.76,98.86c31.58-3.94,52.12-10.35,52.12-17.59,0-12-56.44-21.72-126-21.72S137.77,69.27,137.77,81.27c0,6.31,15.63,12,40.58,16-11-3-17.51-6.63-17.51-10.54,0-10.32,45-18.7,100.58-18.7S362,76.36,362,86.69c0,4.65-9.14,8.9-24.24,12.17" transform="translate(-104.32 -32)" fill="#bbbdbf"/>
    <path d="M335.74,96.26c15-2.66,24.14-6.16,24.14-10,0-8.35-43.27-15.11-96.62-15.11s-96.63,6.76-96.63,15.11c0,3.11,6,6,16.36,8.41-2.24-1.08-3.45-2.24-3.45-3.43,0-6.58,36.67-11.93,81.88-11.92s81.88,5.33,81.88,11.92c0,1.79-2.71,3.49-7.56,5" transform="translate(-104.32 -32)" fill="#d0d2d3"/>
    <path d="M262.57,101.2c42.79,0,77.48-4.19,77.48-9.35s-34.69-9.36-77.48-9.36-77.49,4.19-77.49,9.36,34.7,9.35,77.49,9.35" transform="translate(-104.32 -32)" fill="#e6e7e8"/>
    <path d="M110.44,79.9c40.34,31.8,180,34.66,237.72,25-20.58,13.31-198.33,14.75-237.72-20Z" transform="translate(-104.32 -32)" fill="#fff"/>
    <path d="M344,94.31c7.28-2.13,11.44-4.58,11.44-7.19,0-8.14-40.39-14.74-90.2-14.74-46.4,0-84.63,5.73-89.64,13.09,11.6-5.72,44.87-9.86,84.09-9.86,48.86,0,88.49,6.42,88.49,14.34,0,1.52-1.47,3-4.18,4.36" transform="translate(-104.32 -32)" fill="#fff"/>
    <path d="M364.88,91C374.53,88.2,380,85,380,81.49,380,70.7,326.51,62,260.49,62,199,62,148.32,69.55,141.68,79.31c15.37-7.6,59.46-13.08,111.45-13.07,64.77,0,117.29,8.5,117.28,19,0,2-1.94,4-5.53,5.78" transform="translate(-104.32 -32)" fill="#fff"/>
    <path d="M393.93,82.79c6.3-2.14,8.25-6,7.85-8.57-1.89-12.4-63.72-20.41-124.65-21.65C220,51.42,165.66,58.5,150.36,66.94c16.18-5.27,61.08-12.26,113.07-12.26,12.67,0,149,3.29,130.5,28.11" transform="translate(-104.32 -32)" fill="#e6e7e8"/>
    <path d="M323.91,96.31c5.41-1.26,8.51-2.71,8.51-4.27,0-4.83-30.06-8.74-67.12-8.74-34.54,0-63,3.4-66.72,7.77,8.64-3.4,33.39-5.86,62.58-5.86C297.53,85.21,327,89,327,93.72c0,.9-1.09,1.77-3.1,2.59" transform="translate(-104.32 -32)" fill="#fff"/>
    <path d="M117,79.17c5.65-31.92,149.14-35.38,188.4-32.95-27.13-9.51-147.95-10-192.9,18.64-4.62,5.43-.06,11,4.5,14.31" transform="translate(-104.32 -32)" fill="#6d6e70"/>
    <path d="M348.54,110.86c33.64-8.72,62.85-15.55,78.52-33.37V81.1a10.39,10.39,0,0,1-1.87,5.78c-13.88,11.86-48.45,21.83-76.65,24" transform="translate(-104.32 -32)" fill="#929497"/>
    <path d="M306.63,42.55c6.92,2.38,89,12.25,108.58,26.77,2.48,1.83,4.35,4.92,4.2,7.58,2.83-1.81,4.73-3.92,4.91-6.31-1.38-2.32-4.07-4.48-7.33-6.33-26.13-14.82-94.16-21.64-110.36-21.71" transform="translate(-104.32 -32)" fill="#d0d2d3"/>
  </g>
</svg>
