<svg id="Layer_1" data-name="Layer 1" xmlns="http://www.w3.org/2000/svg" viewBox="0 0 172.65 139.47">
  <title>22-whitebread</title>
  <g>
    <path d="M147.9,34.15C106.38,20.77,42.41,39.89,33.35,44.74c-17.76,9.6-22.11,39.94-20,46.77,3.74,11.82,8.65,12,10.53,19.52s7.87,37.85,9.37,46.21,2.24,6.46,8.4,7.62,35.91,4.22,45.62,4.08a19.86,19.86,0,0,0,5.13-.62l.17,0c11.36-.44,76.9-29.54,85.21-34.47s6.64-8.22,7.17-14.31-1.84-31.35.14-40.65-2.21-33.47-37.24-44.76" transform="translate(-12.89 -29.48)" fill="#f3b866"/>
    <path d="M147.9,34.15C106.38,20.77,42.41,39.89,33.35,44.74c-17.76,9.6-22.11,39.94-20,46.77,3.74,11.82,8.65,12,10.53,19.52s7.87,37.85,9.37,46.21,2.24,6.46,8.4,7.62,35.91,4.22,45.62,4.08a19.86,19.86,0,0,0,5.13-.62l.17,0c11.36-.44,76.9-29.54,85.21-34.47s6.64-8.22,7.17-14.31-1.84-31.35.14-40.65-2.21-33.47-37.24-44.76" transform="translate(-12.89 -29.48)" fill="#eba54e"/>
    <path d="M150,62.37c-6.72.88-13.22,1.2-19.83,3C88.81,76.41,91.32,80.89,80.9,90.71c-5.23,4.92-9.27,11.57-14.23,16.9-15.62,16.78-2.43,24.31,2.16,19.93,3.41-3.25,20.4-19.78,23.8-22.45,5.47-4.28,62.73-29.16,73-20.76,7.23,5.9,8.21,11.24,7.71,21.63-.71,15-13.46,23.31-24.25,29-12.17,6.38-51.49,18.55-57.53,21.47S78.15,161.12,73.84,167a9.3,9.3,0,0,0-.75,1.24c5.85.45,11.09.74,14.23.69a19.86,19.86,0,0,0,5.13-.62l.17,0c11.11-.43,73.93-28.22,84.53-34.09-.6-.95-1.14-1.68-1-2.7a1.56,1.56,0,0,0,.15-.5c3.46-6,5.13-13,4.72-21.76-.36-7.8.46-21.78,3.37-23.42a43.15,43.15,0,0,1,.72-7,25,25,0,0,0,0-9.09c-10-7.28-24-8.9-35.07-7.45" transform="translate(-12.89 -29.48)" fill="#de893d"/>
    <path d="M147.9,34.15C106.38,20.77,42.41,39.89,33.35,44.74c-17.76,9.6-22.11,39.94-20,46.77,3,9.48,6.75,11.51,9.09,15.79,6.52.72,12.89-.43,19.33-1.59,5.89-1.06,11.84-2.12,18-1.74a8.12,8.12,0,0,0,5.1-1.33,1.34,1.34,0,0,0,1.56-.16c17-13.81,41-18.1,61.09-23.76,17.55-4.94,39.35-9.83,57.92-5.26-.51-11.2-8.14-29.81-37.61-39.31" transform="translate(-12.89 -29.48)" fill="#c45f2e"/>
    <path d="M71,82.22C111.75,72.63,143.6,53,150.34,35c-.8-.28-1.61-.56-2.44-.83C106.38,20.77,42.41,39.89,33.35,44.74,18.26,52.9,12.85,76,12.89,87c16.37,1.71,36.68.29,58.11-4.76" transform="translate(-12.89 -29.48)" fill="#db864a"/>
    <path d="M13.4,91.51c-2.53-8,3.82-48,30-49.66S89,66.87,93.54,83s.15,15.91-.91,22.06,4.21,44.6,4.51,52.32S97,168.8,87.32,168.94,47.86,166,41.7,164.86s-6.9.73-8.4-7.62S25.81,118.49,23.93,111s-6.79-7.7-10.53-19.52" transform="translate(-12.89 -29.48)" fill="#b56131"/>
    <path d="M92,166.67a22.6,22.6,0,0,1-4,.37c-9.79.17-39.79-2.76-46.07-3.91-1.26-.23-2.32-.34-3.17-.43-3-.33-3-.33-4-5.75-1.48-8.29-7.5-38.79-9.41-46.34a19.86,19.86,0,0,0-4.49-8.22A31,31,0,0,1,14.65,91c-1.29-4.05.22-18.78,6.57-30.69C24.62,54,30.76,45.94,40.69,44a26.09,26.09,0,0,1,3.21-.43c26.34-1.69,45,25.08,49.15,39.78,3.1,11,1.85,13.77.51,16.67A18.16,18.16,0,0,0,92,104.54c-.69,3.9.75,17.75,2.71,35.45.86,7.82,1.61,14.57,1.71,17.29.24,6.75-.26,8.56-4.46,9.39" transform="translate(-12.89 -29.48)" fill="#fbdda6"/>
    <path d="M25.26,88.31a1.94,1.94,0,0,1-1.68-1.94A1.91,1.91,0,0,1,25,84.14h.11a1.94,1.94,0,0,1,1.68,1.94,1.89,1.89,0,0,1-1.41,2.22h-.11" transform="translate(-12.89 -29.48)" fill="#ebaf67"/>
    <path d="M35.11,75.86a2.28,2.28,0,0,1-2-2.29A2.23,2.23,0,0,1,34.8,71h.13a2.29,2.29,0,0,1,2,2.28,2.25,2.25,0,0,1-1.67,2.63h-.13" transform="translate(-12.89 -29.48)" fill="#ebaf67"/>
    <path d="M40.81,90.37a2.48,2.48,0,0,1-2.15-2.5c-.14-1.48.68-2.76,1.81-2.86h.15a2.48,2.48,0,0,1,2.15,2.5c.14,1.48-.68,2.76-1.81,2.86h-.15" transform="translate(-12.89 -29.48)" fill="#ebaf67"/>
    <path d="M26.84,105.71a1.61,1.61,0,0,1-1.38-1.61,1.56,1.56,0,0,1,1.17-1.84h.09a1.61,1.61,0,0,1,1.39,1.61,1.59,1.59,0,0,1-1.17,1.85h-.1" transform="translate(-12.89 -29.48)" fill="#ebaf67"/>
    <path d="M37.19,98.88a2.21,2.21,0,0,1-1.91-2.22,2.16,2.16,0,0,1,1.61-2.54H37a2.21,2.21,0,0,1,1.91,2.22,2.16,2.16,0,0,1-1.61,2.54h-.13" transform="translate(-12.89 -29.48)" fill="#ebaf67"/>
    <path d="M43.69,121.77a1.71,1.71,0,0,1-1.48-1.71,1.66,1.66,0,0,1,1.25-2h.1A1.71,1.71,0,0,1,45,119.81a1.68,1.68,0,0,1-1.24,2h-.1" transform="translate(-12.89 -29.48)" fill="#ebaf67"/>
    <path d="M34.68,119.33a1.52,1.52,0,0,1-.19-2.9h.08a1.35,1.35,0,0,1,1.17,1.35,1.32,1.32,0,0,1-1,1.55h-.08" transform="translate(-12.89 -29.48)" fill="#ebaf67"/>
    <path d="M56.78,99.07a1.38,1.38,0,0,1-1.2-1.38,1.36,1.36,0,0,1,1-1.58h.08a1.37,1.37,0,0,1,1.19,1.38,1.34,1.34,0,0,1-1,1.58h-.08" transform="translate(-12.89 -29.48)" fill="#ebaf67"/>
    <path d="M46.76,107a1.8,1.8,0,0,1-1.57-1.81,1.76,1.76,0,0,1,1.32-2.08h.11a1.81,1.81,0,0,1,1.56,1.82A1.77,1.77,0,0,1,46.86,107h-.1" transform="translate(-12.89 -29.48)" fill="#ebaf67"/>
    <path d="M53.32,85.13a1.34,1.34,0,0,1-1.16-1.34,1.32,1.32,0,0,1,1-1.54h.08a1.34,1.34,0,0,1,1.15,1.34,1.32,1.32,0,0,1-1,1.54h-.08" transform="translate(-12.89 -29.48)" fill="#ebaf67"/>
    <path d="M67.67,78.14a1.8,1.8,0,0,1-1.56-1.81,1.76,1.76,0,0,1,1.32-2.07h.1a1.8,1.8,0,0,1,1.56,1.8,1.76,1.76,0,0,1-1.32,2.07h-.1" transform="translate(-12.89 -29.48)" fill="#ebaf67"/>
    <path d="M86.62,90.68a1.4,1.4,0,0,1-1.2-1.4,1.37,1.37,0,0,1,1-1.61h.08a1.39,1.39,0,0,1,1.2,1.4,1.35,1.35,0,0,1-1,1.6h-.09" transform="translate(-12.89 -29.48)" fill="#ebaf67"/>
    <path d="M89.4,134.43a1.4,1.4,0,0,1-1.2-1.4,1.37,1.37,0,0,1,1-1.61h.09a1.39,1.39,0,0,1,1.2,1.4,1.36,1.36,0,0,1-1,1.6H89.4" transform="translate(-12.89 -29.48)" fill="#ebaf67"/>
    <path d="M73.36,92.43a1.92,1.92,0,0,1-1.66-1.92,1.87,1.87,0,0,1,1.4-2.2h.11a1.92,1.92,0,0,1,1.66,1.92,1.89,1.89,0,0,1-1.4,2.2h-.11" transform="translate(-12.89 -29.48)" fill="#ebaf67"/>
    <path d="M88,106.57a2.21,2.21,0,0,1-1.91-2.21,2.15,2.15,0,0,1,1.61-2.52h.13a2.21,2.21,0,0,1,1.9,2.21,2.16,2.16,0,0,1-1.6,2.53H88" transform="translate(-12.89 -29.48)" fill="#ebaf67"/>
    <path d="M68.18,108.83a2.65,2.65,0,0,1-2.28-2.64c-.14-1.57.72-2.93,1.93-3H68a2.63,2.63,0,0,1,2.28,2.64c.14,1.57-.72,2.92-1.92,3h-.16" transform="translate(-12.89 -29.48)" fill="#ebaf67"/>
    <path d="M79.64,76a2.65,2.65,0,0,1-2.28-2.65c-.14-1.56.72-2.92,1.93-3h.15A2.64,2.64,0,0,1,81.72,73c.14,1.57-.72,2.92-1.92,3h-.16" transform="translate(-12.89 -29.48)" fill="#ebaf67"/>
    <path d="M78.45,124.37A1.71,1.71,0,0,1,77,122.66a1.67,1.67,0,0,1,1.25-2h.1a1.72,1.72,0,0,1,1.48,1.71,1.68,1.68,0,0,1-1.25,2h-.1" transform="translate(-12.89 -29.48)" fill="#ebaf67"/>
    <path d="M60.86,120a1.53,1.53,0,0,1-1.31-1.52,1.49,1.49,0,0,1,1.11-1.74h.08a1.52,1.52,0,0,1,1.31,1.52A1.47,1.47,0,0,1,61,120h-.09" transform="translate(-12.89 -29.48)" fill="#ebaf67"/>
    <path d="M15,92.11a1.87,1.87,0,0,1-.55-1.19,2.33,2.33,0,0,1,0-.53,6.15,6.15,0,0,0,.16.62c.12.38.24.74.37,1.1" transform="translate(-12.89 -29.48)" fill="#aa4d1e"/>
    <path d="M15.78,92.43a1.11,1.11,0,0,1-.76-.32c-.13-.36-.25-.72-.37-1.1a6.15,6.15,0,0,1-.16-.62,1.35,1.35,0,0,1,1.08-1.21h.09A1.51,1.51,0,0,1,17,90.69a1.48,1.48,0,0,1-1.1,1.74h-.09" transform="translate(-12.89 -29.48)" fill="#ebaf67"/>
    <path d="M80.21,144a2,2,0,0,1-1.68-1.95A1.9,1.9,0,0,1,80,139.85h.11a1.94,1.94,0,0,1,1.68,1.94A1.9,1.9,0,0,1,80.32,144h-.11" transform="translate(-12.89 -29.48)" fill="#ebaf67"/>
    <path d="M68.53,137a2.47,2.47,0,0,1-2.13-2.46,2.41,2.41,0,0,1,1.8-2.82h.14a2.46,2.46,0,0,1,2.12,2.46A2.42,2.42,0,0,1,68.67,137h-.14" transform="translate(-12.89 -29.48)" fill="#ebaf67"/>
    <path d="M56.07,140.66a2.19,2.19,0,0,1-1.89-2.19,2.15,2.15,0,0,1,1.6-2.52h.12a2.2,2.2,0,0,1,1.9,2.2,2.15,2.15,0,0,1-1.6,2.52h-.13" transform="translate(-12.89 -29.48)" fill="#ebaf67"/>
    <path d="M57.08,55.29a2.2,2.2,0,0,1-1.9-2.19,2.15,2.15,0,0,1,1.6-2.52h.13a2.2,2.2,0,0,1,1.89,2.2,2.15,2.15,0,0,1-1.6,2.52h-.12" transform="translate(-12.89 -29.48)" fill="#ebaf67"/>
    <path d="M76.83,106.67a2.2,2.2,0,0,1-1.9-2.2,2.15,2.15,0,0,1,1.6-2.52h.13a2.19,2.19,0,0,1,1.89,2.19,2.14,2.14,0,0,1-1.6,2.52h-.12" transform="translate(-12.89 -29.48)" fill="#ebaf67"/>
    <path d="M38.35,135.74a1.47,1.47,0,0,1-1.26-1.46,1.43,1.43,0,0,1,1.07-1.68h.08a1.45,1.45,0,0,1,1.26,1.46,1.43,1.43,0,0,1-1.06,1.67h-.09" transform="translate(-12.89 -29.48)" fill="#ebaf67"/>
    <path d="M46,147.06a1.9,1.9,0,0,1-1.64-1.9A1.85,1.85,0,0,1,45.7,143h.11a1.9,1.9,0,0,1,1.64,1.89,1.85,1.85,0,0,1-1.38,2.17H46" transform="translate(-12.89 -29.48)" fill="#ebaf67"/>
    <path d="M39.47,153.31a2.13,2.13,0,0,1-1.84-2.13,2.09,2.09,0,0,1,1.55-2.46h.13a2.13,2.13,0,0,1,1.84,2.14,2.08,2.08,0,0,1-1.55,2.45h-.13" transform="translate(-12.89 -29.48)" fill="#ebaf67"/>
    <path d="M83.86,159.77a1.46,1.46,0,0,1-1.26-1.46,1.41,1.41,0,0,1,1.06-1.66h.09A1.46,1.46,0,0,1,85,158.1a1.43,1.43,0,0,1-1.06,1.67h-.08" transform="translate(-12.89 -29.48)" fill="#ebaf67"/>
    <path d="M75.39,163.88a1.9,1.9,0,0,1-1.65-1.9,1.86,1.86,0,0,1,1.39-2.18h.11a1.91,1.91,0,0,1,1.64,1.9,1.87,1.87,0,0,1-1.38,2.19h-.11" transform="translate(-12.89 -29.48)" fill="#ebaf67"/>
    <path d="M67.82,153.39a2.29,2.29,0,0,1-2-2.29,2.24,2.24,0,0,1,1.67-2.62h.13a2.29,2.29,0,0,1,2,2.28A2.25,2.25,0,0,1,68,153.39h-.13" transform="translate(-12.89 -29.48)" fill="#ebaf67"/>
    <path d="M55.65,160.67a2.6,2.6,0,0,1-2.24-2.59c-.13-1.53.71-2.86,1.89-3h.15a2.59,2.59,0,0,1,2.24,2.59c.14,1.53-.71,2.86-1.89,3h-.15" transform="translate(-12.89 -29.48)" fill="#ebaf67"/>
    <path d="M55.54,68.2a1.45,1.45,0,0,1-1.26-1.45,1.43,1.43,0,0,1,1.06-1.67h.08a1.46,1.46,0,0,1,1.26,1.46,1.43,1.43,0,0,1-1.06,1.67h-.08" transform="translate(-12.89 -29.48)" fill="#ebaf67"/>
    <path d="M47.06,72.31a1.9,1.9,0,0,1-1.64-1.9,1.86,1.86,0,0,1,1.38-2.18h.12a1.91,1.91,0,0,1,1.64,1.91,1.86,1.86,0,0,1-1.39,2.18h-.11" transform="translate(-12.89 -29.48)" fill="#ebaf67"/>
    <path d="M39.49,61.82a2.27,2.27,0,0,1-2-2.28,2.24,2.24,0,0,1,1.66-2.63h.14a2.28,2.28,0,0,1,2,2.29,2.24,2.24,0,0,1-1.66,2.62h-.14" transform="translate(-12.89 -29.48)" fill="#ebaf67"/>
    <path d="M27.33,69.11a2.6,2.6,0,0,1-2.24-2.6c-.14-1.53.71-2.86,1.89-3h.15a2.6,2.6,0,0,1,2.24,2.59c.14,1.54-.71,2.86-1.89,3h-.15" transform="translate(-12.89 -29.48)" fill="#ebaf67"/>
  </g>
</svg>
