<svg id="Layer_1" data-name="Layer 1" xmlns="http://www.w3.org/2000/svg" viewBox="0 0 182.44 137.45">
  <title>24-ricebowl</title>
  <g>
    <path d="M99.25,157c17.53,0,31.73-5.37,31.73-10.41v10.93c0,5-14.2,10.41-31.73,10.41s-31.73-5.37-31.73-10.41V146.6c0,5,14.21,10.41,31.73,10.41" transform="translate(-8 -30.49)" fill="#8e6d41"/>
    <path d="M67.68,150.36c0,7.74,14.14,12.32,31.57,12.32s31.58-4.58,31.58-12.32-14.14-14-31.58-14-31.57,6.28-31.57,14" transform="translate(-8 -30.49)" fill="#7f603b"/>
    <path d="M187.87,87.55c-1.77.71-5.46,4.07-10.39,20.11-7.29,24.11-27,49.77-78.22,50.36C48,157.43,28.32,131.77,21,107.66c-4.93-16-8.62-19.4-10.39-20.11a399.19,399.19,0,0,0,177.23,0" transform="translate(-8 -30.49)" fill="#8e6d41"/>
    <path d="M99.21,64.55c48.51,0,87.83,6.07,87.83,17s-39.32,19.06-87.83,19.06S11.39,93,11.39,82.05s39.32-17.5,87.82-17.5" transform="translate(-8 -30.49)" fill="#8e6d41"/>
    <path d="M98.27,100.72c-43.11,0-78.65-6.8-83.54-17.67,4.89-10.87,40.43-19.31,83.54-19.31s78.64,8.44,83.53,19.31c-4.89,10.87-40.42,17.67-83.53,17.67" transform="translate(-8 -30.49)" fill="#f6da6d"/>
    <path d="M157.69,87.4s2.46-.32,2.59-1.54-12.13-3.66-12.83-3-1.26,1.9.32,3,8.67,1.48,9.92,1.53" transform="translate(-8 -30.49)" fill="#f8e6a5"/>
    <path d="M110.26,83.92c1.31-.3,8.74-2,10.55-1.22s1.43,2.34.8,3.27-13.75,1.85-13.8.44,2.45-2.49,2.45-2.49" transform="translate(-8 -30.49)" fill="#fbeec0"/>
    <path d="M39.54,90.74s2.5-1,1.71-2.16c-.92-1.34-11.72-1.75-11.88-.92s-.46,2.3,1.25,3.22,7.84,0,8.92-.14" transform="translate(-8 -30.49)" fill="#fbeec0"/>
    <path d="M72.75,94.27S70.2,94.81,70,96s12.29,2.59,13.06,1.89,1.41-2-.16-3-8.85-.72-10.14-.67" transform="translate(-8 -30.49)" fill="#fdf6da"/>
    <path d="M166.22,83.55s-2.43-.89-3.71-.1,7,8,8.21,7.9,2.91-.74,2.61-2.24-6.08-5-7.11-5.56" transform="translate(-8 -30.49)" fill="#fdf6da"/>
    <path d="M92.23,90.25s-1.18,1.82,0,2.81,11-5.1,10.75-6a2.73,2.73,0,0,0-3.17-2c-2.07.18-6.72,4.49-7.53,5.26" transform="translate(-8 -30.49)" fill="#fbeec0"/>
    <path d="M150.36,95s2.56.93,3.9.1-7.34-8.45-8.63-8.31-3.06.78-2.75,2.36,6.39,5.21,7.48,5.85" transform="translate(-8 -30.49)" fill="#fdf6da"/>
    <path d="M71.33,92.06s.46,2.22,1.92,2.59,4-9.87,3.21-10.63a2.59,2.59,0,0,0-3.59-.34c-1.29,1.16-1.51,7.29-1.54,8.38" transform="translate(-8 -30.49)" fill="#fdf6da"/>
    <path d="M135.33,92.56s2.06-1.41,1.55-2.6-12.86,2-13.17,3-.16,2.34,1.84,2.67,8.61-2.52,9.78-3" transform="translate(-8 -30.49)" fill="#fdf6da"/>
    <path d="M170.94,87.42s-1.95,1.51-1.26,2.74,13.09-2.38,13.28-3.35-.14-2.44-2.27-2.74-8.61,2.79-9.75,3.35" transform="translate(-8 -30.49)" fill="#fbeec0"/>
    <path d="M116.13,99.28s2.72.82,3.87-.11-9.07-8.31-10.32-8.1-2.85,1-2.2,2.58,7.44,5,8.65,5.63" transform="translate(-8 -30.49)" fill="#fdf6da"/>
    <path d="M165.62,92.82s1.47-1.64.6-2.72-11.34,3.74-11.32,4.67a2.35,2.35,0,0,0,2.59,2.31c2,0,7.21-3.61,8.13-4.26" transform="translate(-8 -30.49)" fill="#f8e6a5"/>
    <path d="M120.05,55.29s2.28-1,2.55-2.23-10.55-.56-11.28.28-1.39,2.25-.09,3,7.69-.75,8.82-1" transform="translate(-8 -30.49)" fill="#f8e6a5"/>
    <path d="M143.62,90.23s2.76.74,4.11-.12-8.4-7.55-9.75-7.35-3.15.91-2.7,2.38,7.15,4.55,8.34,5.09" transform="translate(-8 -30.49)" fill="#f8e6a5"/>
    <path d="M45.08,89.92s-2.73-.28-3.3.79,11.53,6.05,12.51,5.63,2-1.41.75-2.77-8.66-3.31-10-3.65" transform="translate(-8 -30.49)" fill="#fbeec0"/>
    <path d="M86.07,79.35c1.38.55,1.63,3,1.63,3-.12,1.16-.84,7.71-2.18,8.81s-2.73.13-3.44-.76,2.61-11.59,4-11" transform="translate(-8 -30.49)" fill="#f8e6a5"/>
    <path d="M145.44,92.13s2.12.33,2.22,1.76-10.53,4.47-11.13,3.72a2.5,2.5,0,0,1,.3-3.54c1.38-1.33,7.52-1.86,8.61-1.94" transform="translate(-8 -30.49)" fill="#fbeec0"/>
    <path d="M89.27,83.09s2.63.68,2.9,1.92S79.72,86.9,78.91,86.15s-1.53-2.08,0-3,9-.22,10.34-.09" transform="translate(-8 -30.49)" fill="#fbeec0"/>
    <path d="M115.22,57.45s1.86,1.72,3.56,1.41-2.19-10.2-3.46-10.51-3.26-.3-3.83,1.24,3.08,6.92,3.73,7.86" transform="translate(-8 -30.49)" fill="#fdf6da"/>
    <path d="M85.88,92.86S83,92.54,82,93.68s10.75,6.6,11.95,6.16,2.62-1.49,1.65-3-8.44-3.63-9.76-4" transform="translate(-8 -30.49)" fill="#fdf6da"/>
    <path d="M144.27,91.44s1.26-2,0-3-11.67,5.43-11.44,6.42A2.92,2.92,0,0,0,136.25,97c2.2-.2,7.16-4.79,8-5.6" transform="translate(-8 -30.49)" fill="#fbeec0"/>
    <path d="M97.64,93.9s2.09,1.6,3.32.66-5.4-12.32-6.52-12.3a2.46,2.46,0,0,0-2.58,2.79c.11,2.15,4.92,7.85,5.78,8.85" transform="translate(-8 -30.49)" fill="#fdf6da"/>
    <path d="M70.55,85.76s-2.87-.71-3.66.44,11.32,8.72,12.44,8.37,2.38-1.35,1.25-3.13-8.69-5.1-10-5.68" transform="translate(-8 -30.49)" fill="#fbeec0"/>
    <path d="M53.09,88.93s-2.54,1.63-2.54,3.19,13.12-1.59,13.79-2.74,1.12-3-.66-3.54-9.27,2.53-10.59,3.09" transform="translate(-8 -30.49)" fill="#fdf6da"/>
    <path d="M18.7,83s-2.95-.35-3.92.88S25.78,91,27,90.54s2.68-1.62,1.68-3.22-8.63-4-10-4.36" transform="translate(-8 -30.49)" fill="#fdf6da"/>
    <path d="M136.12,88.05s.8-2.56-.18-3.44-8.32,9.31-8.08,10.4,1,2.39,2.68,1.58,5-7.38,5.58-8.54" transform="translate(-8 -30.49)" fill="#f8e6a5"/>
    <path d="M106.61,94.08s1.57-2.43,1-3.94-10.67,5.94-10.81,7.28.16,3.24,1.91,3.21,7-5.56,7.93-6.55" transform="translate(-8 -30.49)" fill="#f8e6a5"/>
    <path d="M42.83,90.64s-1.12,2,.11,3,11.05-6,10.77-7a2.84,2.84,0,0,0-3.39-2c-2.13.31-6.69,5.13-7.49,6" transform="translate(-8 -30.49)" fill="#f8e6a5"/>
    <path d="M156.9,86.06s-.77-2.14.69-3,10.27,7.36,9.8,8.32A3.21,3.21,0,0,1,163.5,93c-2.14-.56-5.94-6-6.6-6.92" transform="translate(-8 -30.49)" fill="#fbeec0"/>
    <path d="M35.86,83s3,.38,3.45,1.73-13.1,3.92-14.1,3.19-2-2.11-.48-3.33S34.42,83,35.86,83" transform="translate(-8 -30.49)" fill="#fdf6da"/>
    <path d="M62.32,89s2.27-1.44,3.91-.8-4.6,10.21-6,10.29-3.35-.29-3.56-2,4.72-6.63,5.6-7.49" transform="translate(-8 -30.49)" fill="#fdf6da"/>
    <path d="M120.76,85.77s1-2.43,2.79-2.5,2.61,12.22,1.52,12.89a3.15,3.15,0,0,1-4.28-.45c-1.27-1.63-.23-8.69,0-9.94" transform="translate(-8 -30.49)" fill="#fbeec0"/>
    <path d="M86.42,93.81h0c-.32-.39.65-1.74,2.18-3s3-2,3.36-1.62l0,0h0L88.49,85c-.34-.4-1.85.32-3.38,1.6s-2.5,2.65-2.16,3.05l3.47,4.14h0" transform="translate(-8 -30.49)" fill="#427f31"/>
    <path d="M89.76,92.18c1.53-1.29,2.51-2.64,2.18-3s-1.82.34-3.36,1.62-2.5,2.64-2.18,3,1.83-.34,3.36-1.62" transform="translate(-8 -30.49)" fill="#3a5f28"/>
    <path d="M82.33,92.33s-2.78,1-2.8,2.38,14.24,1.07,15,.16,1.25-2.44-.67-3.3-10.07.51-11.51.76" transform="translate(-8 -30.49)" fill="#fbeec0"/>
    <path d="M67.43,93.55s-.66,2.15-2,2.6-2.24-9.1-1.47-9.87,2.14-1.59,3.11-.58.41,6.82.31,7.85" transform="translate(-8 -30.49)" fill="#f8e6a5"/>
    <path d="M116.24,94.72s-2,.75-1.74,2.11,11.67,2.06,12.07,1.23a2.42,2.42,0,0,0-1.26-3.26c-1.73-1-8-.22-9.07-.08" transform="translate(-8 -30.49)" fill="#f8e6a5"/>
    <path d="M73.82,88.73s-.33,2.13,1,2.63,7.5-8.76,7-9.55a2.51,2.51,0,0,0-3.48-.72c-1.71.93-4.09,6.63-4.5,7.64" transform="translate(-8 -30.49)" fill="#f8e6a5"/>
    <path d="M104.88,99.35s-.29,2.48.89,3.06,6.63-10.22,6.16-11.14a1.93,1.93,0,0,0-3.07-.83c-1.51,1.09-3.62,7.74-4,8.91" transform="translate(-8 -30.49)" fill="#fbeec0"/>
    <path d="M138.29,94.73h0c.35-.37,1.8.46,3.24,1.85s2.31,2.81,2,3.17v0h0l4.08-4.23c.36-.38-.51-1.81-2-3.19s-2.89-2.21-3.25-1.84l-4.09,4.23h0" transform="translate(-8 -30.49)" fill="#9fc534"/>
    <path d="M146.64,95.48l.82-.85,0,.07,0,.07-.66.68-.23,0" transform="translate(-8 -30.49)" fill="#7ab934"/>
    <path d="M145.07,95.68l1.84-1.91.05.06,0,.06-1.71,1.77-.22,0" transform="translate(-8 -30.49)" fill="#7ab934"/>
    <path d="M143.5,95.88,146.28,93l0,0,.05.06-2.64,2.74-.23,0" transform="translate(-8 -30.49)" fill="#7ab934"/>
    <path d="M141.94,96.06l3.64-3.77,0,0,.06,0L142.17,96l-.23,0" transform="translate(-8 -30.49)" fill="#7ab934"/>
    <path d="M140.86,96l-.05,0-.06,0h0l.11.09h0" transform="translate(-8 -30.49)" fill="#cfd67b"/>
    <polyline points="136.85 61.14 136.84 61.13 136.85 61.14" fill="#cbc649"/>
    <path d="M140.86,96l-.11-.09,4.09-4.24h0l0,0,.06,0L140.86,96" transform="translate(-8 -30.49)" fill="#7ab934"/>
    <path d="M140.07,95.34l-.06,0-.06,0h0l.12.09h0" transform="translate(-8 -30.49)" fill="#cfd67b"/>
    <path d="M140.07,95.34l-.12-.09L144,91l.07,0,.06,0-4.09,4.23" transform="translate(-8 -30.49)" fill="#7ab934"/>
    <path d="M139.19,94.81l-.07,0,0,0-.05,0h0l.14.06" transform="translate(-8 -30.49)" fill="#cfd67b"/>
    <path d="M139.19,94.81l-.14-.06,4.08-4.22.07,0,.07,0-4.08,4.22" transform="translate(-8 -30.49)" fill="#7ab934"/>
    <path d="M140.27,97.89c1.44,1.39,2.89,2.22,3.24,1.85s-.53-1.78-2-3.17-2.89-2.22-3.24-1.85.53,1.78,2,3.17" transform="translate(-8 -30.49)" fill="#599b32"/>
    <path d="M41.69,95.6h0c-.47-.19-.25-1.84.5-3.7s1.74-3.2,2.21-3h0l-5-2c-.48-.2-1.48,1.15-2.23,3s-1,3.51-.48,3.71l5,2h0" transform="translate(-8 -30.49)" fill="#427f31"/>
    <path d="M43.87,92.58c.75-1.85,1-3.51.51-3.7s-1.46,1.16-2.21,3-1,3.51-.5,3.7,1.45-1.16,2.2-3" transform="translate(-8 -30.49)" fill="#3a5f28"/>
    <path d="M116,94.39c.75-1.7,1.47-3.42,2.15-5.14,2.33.84,5.6,1.91,8,2.54.07,1.93-.77,3.53-.7,5.46A84.15,84.15,0,0,1,116,94.39" transform="translate(-8 -30.49)" fill="#e84439"/>
    <path d="M116,94.39q.32,3,.68,5.91c2.15.43,4.32.77,6.51,1,.78-1.35,1.55-2.72,2.28-4.09A84.15,84.15,0,0,1,116,94.39" transform="translate(-8 -30.49)" fill="#ed6e64"/>
    <path d="M67.21,89.44q2.31,1.65,4.65,3.17-.81,3.9-1.41,8c-1.47-.49-3-1-4.42-1.56.29-3.24.69-6.44,1.18-9.56" transform="translate(-8 -30.49)" fill="#e84439"/>
    <path d="M67.21,89.44c-1.83.24-3.68.47-5.53.66q-.32,3.78-.43,7.65,2.4.68,4.78,1.25c.29-3.24.69-6.44,1.18-9.56" transform="translate(-8 -30.49)" fill="#ed6e64"/>
    <path d="M190.43,83.48c0,12-40.84,20-91.22,20S8,96,8,84,48.84,61.33,99.21,61.33s91.22,10.12,91.22,22.15M14.23,81.32c0,9.21,38.1,17,85.1,17s85.09-7.46,85.09-16.66-38.1-18.27-85.09-18.27-85.1,8.76-85.1,18" transform="translate(-8 -30.49)" fill="#a78d69"/>
    <path d="M86.54,36.34a.54.54,0,0,1-.16-.19.56.56,0,0,1,.16.19" transform="translate(-8 -30.49)" fill="#f6da6d"/>
    <path d="M20.79,80c-5.22-1.13,12.39-15.4,15.93-19.43C30,57.17,53,51.12,53,51.12c-5-4.87,14.28-8.68,15.81-9.29-4.81-5.68,18.85-1.11,18.93-1s16.49-6.42,22.82-5.23c9.14-.16,12.93,6.39,12.93,6.39-3.46-4.66,15.87-3.17,12.83,2.68.56.23,22.37,5,15.42,8.41.57.06,10.45,6.65,10.13,6.54.23-5,7.2,4,8.3,7.48.5,1.6,1.41,3.49,2.38,2.27,1.74-2.2,3.74,6.86,3.61,9.27,2.47-1,4,1.65,5,4.5L17,82.75c1.27-1,2.95-1.58,3.84-2.8" transform="translate(-8 -30.49)" fill="#f6da6d"/>
    <path d="M98.75,53.94s-2.78,1-2.81,2.38,14.24,1.07,15,.16,1.25-2.44-.67-3.3-10.07.51-11.51.76" transform="translate(-8 -30.49)" fill="#fbeec0"/>
    <path d="M174.19,74.73s-.28-2.12-1.8-2.63-5.19,8.72-4.41,9.51a3.07,3.07,0,0,0,3.8.74c1.48-.93,2.28-6.62,2.41-7.62" transform="translate(-8 -30.49)" fill="#f8e6a5"/>
    <path d="M69.28,71.35s-2.81.28-3.45,1.63S77.5,77.4,78.54,76.7s2.16-2.06.9-3.35-8.82-1.9-10.16-2" transform="translate(-8 -30.49)" fill="#fdf6da"/>
    <path d="M35.35,87S35,89,36.45,89.75s7.92-7.62,7.35-8.5A3.07,3.07,0,0,0,40.09,80c-1.8.67-4.3,6-4.74,7" transform="translate(-8 -30.49)" fill="#fbeec0"/>
    <path d="M72.74,78.17s-.4-2.31-1.7-2.69S67.5,85.75,68.21,86.54s2,1.56,3.18.36,1.33-7.6,1.35-8.73" transform="translate(-8 -30.49)" fill="#fbeec0"/>
    <path d="M133.34,49.26s2.06-1.23,1.6-2.57-12.67.55-13,1.5a2.28,2.28,0,0,0,1.72,3.07c2,.61,8.52-1.6,9.68-2" transform="translate(-8 -30.49)" fill="#fdf6da"/>
    <path d="M165.49,63s-2.44-1.15-3.83-.16,6.51,10.22,7.79,10.06,3.07-.91,2.89-2.81-5.84-6.31-6.85-7.09" transform="translate(-8 -30.49)" fill="#fbeec0"/>
    <path d="M158.61,77.48s.35-2.19-1.15-2.94-8.34,8-7.74,8.94a3.23,3.23,0,0,0,3.9,1.33c1.9-.71,4.53-6.33,5-7.33" transform="translate(-8 -30.49)" fill="#fbeec0"/>
    <path d="M101.87,83.51s2.46-1,2.32-2.42-13.34-.78-13.92.13a2.07,2.07,0,0,0,1,3.27c1.89.82,9.28-.71,10.59-1" transform="translate(-8 -30.49)" fill="#fdf6da"/>
    <path d="M98.5,76.32s-1,2.43-.1,3.38,9.54-8.47,9.38-9.55-.91-2.42-2.69-1.75-5.87,6.82-6.59,7.92" transform="translate(-8 -30.49)" fill="#fbeec0"/>
    <path d="M120.81,51.68s2-2.11,1.53-3.57-11.86,4.49-12.18,5.72-.26,3,1.57,3.16,8-4.49,9.08-5.31" transform="translate(-8 -30.49)" fill="#fdf6da"/>
    <path d="M147.38,55.81s1.66,1.93,2.87,1.54-3.34-11.58-4.34-11.91-2.46-.28-2.63,1.48,3.45,7.83,4.1,8.89" transform="translate(-8 -30.49)" fill="#f8e6a5"/>
    <path d="M53.85,57.51s2.28-.2,2.5-1.63-10.82-5.14-11.52-4.43A2.43,2.43,0,0,0,44.89,55c1.35,1.43,7.82,2.34,9,2.49" transform="translate(-8 -30.49)" fill="#f8e6a5"/>
    <path d="M114.12,43.1c1.28-.51,8.54-3.36,10.48-2.93s1.77,2,1.26,2.95S112.24,47.18,112,45.86s2.13-2.76,2.13-2.76" transform="translate(-8 -30.49)" fill="#f8e6a5"/>
    <path d="M131.54,56s-2.63.24-3,1.39,11.75,3.76,12.63,3.16,1.73-1.76.34-2.86-8.66-1.61-9.94-1.69" transform="translate(-8 -30.49)" fill="#f8e6a5"/>
    <path d="M128.89,55c1.52.43,2,2.91,2,2.91,0,1.2-.13,8-1.45,9.26s-2.87.4-3.71-.45,1.62-12.16,3.13-11.72" transform="translate(-8 -30.49)" fill="#f8e6a5"/>
    <path d="M45.09,69.51S43,70,43,71.47s11.19,4,11.72,3.16A2.64,2.64,0,0,0,54,71c-1.54-1.29-7.84-1.47-8.95-1.49" transform="translate(-8 -30.49)" fill="#f8e6a5"/>
    <path d="M40.59,62.88s-2,.88-1.65,2.32,11.75,1.72,12.11.83a2.65,2.65,0,0,0-1.39-3.43c-1.77-1-8,.09-9.07.28" transform="translate(-8 -30.49)" fill="#fbeec0"/>
    <path d="M35.57,71.53s-1.09-2.59-2.49-2.5-.46,13.78.48,14.42,2.49,1,3.27-.92-.94-9.64-1.26-11" transform="translate(-8 -30.49)" fill="#fbeec0"/>
    <path d="M108.27,38.6s2.87-.38,3.29-1.77-12.93-4.14-13.88-3.4-1.86,2.18-.32,3.45,9.51,1.66,10.91,1.72" transform="translate(-8 -30.49)" fill="#fbeec0"/>
    <path d="M155,57.81s-.68-2,.62-2.85,9.17,7,8.75,7.93a2.81,2.81,0,0,1-3.48,1.52c-1.9-.54-5.3-5.68-5.89-6.6" transform="translate(-8 -30.49)" fill="#fdf6da"/>
    <path d="M123.81,51.28s.13-2.39-1-3.08-5.77,9.31-5.27,10.26,1.61,2,3,1.13,3-7.19,3.31-8.31" transform="translate(-8 -30.49)" fill="#fdf6da"/>
    <path d="M98.06,45.11s-.2-2.28-1.62-2.49S91.27,53.44,92,54.14a2.44,2.44,0,0,0,3.57,0c1.42-1.36,2.35-7.83,2.5-9" transform="translate(-8 -30.49)" fill="#f8e6a5"/>
    <path d="M47.86,61s2.45-1.05,3.49-.17S43.24,70.08,42.11,70s-2.56-.8-2-2.5,6.66-5.71,7.74-6.42" transform="translate(-8 -30.49)" fill="#fdf6da"/>
    <path d="M70.49,45.25s-2.22-1-2.46-2.58,10.44-1.55,11.13-.55,1.32,2.69,0,3.7-7.58-.32-8.69-.57" transform="translate(-8 -30.49)" fill="#fdf6da"/>
    <path d="M54.56,65.28s-2.12-1.37-1.7-2.67S65.66,64,66,65a2.07,2.07,0,0,1-1.64,2.94c-1.95.47-8.64-2.17-9.82-2.64" transform="translate(-8 -30.49)" fill="#f8e6a5"/>
    <path d="M134.19,69.39s.82-2.4,2.29-2.47,2.14,12.07,1.25,12.74a2.29,2.29,0,0,1-3.52-.45c-1-1.61-.19-8.59,0-9.82" transform="translate(-8 -30.49)" fill="#fbeec0"/>
    <path d="M52.83,72.66s-.24-2.43.94-3,6.33,10,5.85,11a1.94,1.94,0,0,1-3,.82c-1.45-1.07-3.4-7.61-3.74-8.77" transform="translate(-8 -30.49)" fill="#fbeec0"/>
    <path d="M57.38,50.22s-2.44.2-3-1,10.16-6.15,11.06-5.65a1.93,1.93,0,0,1,.76,3.06c-1.1,1.44-7.67,3.27-8.83,3.58" transform="translate(-8 -30.49)" fill="#fbeec0"/>
    <path d="M70.71,63.1s2.46-1,2.32-2.42-13.34-.78-13.92.13a2.07,2.07,0,0,0,1,3.27c1.88.82,9.28-.7,10.59-1" transform="translate(-8 -30.49)" fill="#fdf6da"/>
    <path d="M56.76,71.86s2.55,1,3.9.11S53.32,63,52,63.1s-3.05.84-2.74,2.51,6.39,5.57,7.48,6.25" transform="translate(-8 -30.49)" fill="#fdf6da"/>
    <path d="M92.37,55.17s.12,2.27-1.33,2.73-7-9.69-6.32-10.49a2.66,2.66,0,0,1,3.71-.57c1.69,1.08,3.61,7.24,3.94,8.33" transform="translate(-8 -30.49)" fill="#fdf6da"/>
    <path d="M28.79,68.89s-.31,2.41,1,3.24,7.4-8.79,6.86-9.8a2.66,2.66,0,0,0-3.48-1.48c-1.68.77-4,6.95-4.41,8" transform="translate(-8 -30.49)" fill="#fbeec0"/>
    <path d="M120.85,41.14s-2.86.64-3.09,2.11,13.76,3.1,14.62,2.25,1.58-2.39-.17-3.56-9.92-.87-11.36-.8" transform="translate(-8 -30.49)" fill="#fdf6da"/>
    <path d="M174.43,74.8s-2.73-1.06-4.16-.12,7.82,9.61,9.19,9.45,3.26-.89,2.93-2.68-6.81-5.92-8-6.65" transform="translate(-8 -30.49)" fill="#fdf6da"/>
    <path d="M44.89,79.73s-1.65-1.63-3-1.12,2.84,10.67,3.88,10.86a2.25,2.25,0,0,0,2.87-1.75c.28-1.71-3.17-7-3.79-8" transform="translate(-8 -30.49)" fill="#fbeec0"/>
    <path d="M34.51,64.64s-.47,2.53.8,3.46,7.9-9,7.44-10.08-1.62-2.44-3.34-1.7S35,63.5,34.51,64.64" transform="translate(-8 -30.49)" fill="#f8e6a5"/>
    <path d="M50.66,80.83s-2.83.27-3.26,1.62,12.74,4.47,13.68,3.77,1.86-2.07.35-3.36-9.38-1.93-10.77-2" transform="translate(-8 -30.49)" fill="#f8e6a5"/>
    <path d="M27.91,77.85s1.63-2,.67-3.28S16,79.11,16,80.22A2.71,2.71,0,0,0,18.84,83c2.21,0,8-4.37,9.07-5.15" transform="translate(-8 -30.49)" fill="#f8e6a5"/>
    <path d="M109.22,82.39c1.15-1,7.65-6.88,9.85-7.18s2.63,1.37,2.48,2.6-12.71,9.59-13.48,8.31,1.15-3.73,1.15-3.73" transform="translate(-8 -30.49)" fill="#f8e6a5"/>
    <path d="M92.94,80.63s2.36,1.7,3.87,1.38-5.57-10.13-6.89-10.43-3.09-.28-3.23,1.24c-.18,2.16,5.13,7.49,6.25,7.81" transform="translate(-8 -30.49)" fill="#f8e6a5"/>
    <path d="M83.94,42.11s2.83-.36,3.25-1.7-12.82-3.95-13.75-3.24-1.85,2.08-.32,3.3,9.42,1.58,10.82,1.64" transform="translate(-8 -30.49)" fill="#fbeec0"/>
    <path d="M123.81,76.94s.16-2.68-1.15-3.45S116.2,83.92,116.76,85s1.81,2.28,3.35,1.26,3.38-8,3.7-9.3" transform="translate(-8 -30.49)" fill="#fdf6da"/>
    <path d="M95.35,54.21s-.23-2.55-1.83-2.8-5.78,12.12-5,12.9a2.71,2.71,0,0,0,4,0c1.6-1.52,2.63-8.77,2.81-10.05" transform="translate(-8 -30.49)" fill="#f8e6a5"/>
    <path d="M95.06,60s-1.21-2.73-.24-3.91,10.43,9,10.3,10.22-.86,2.89-2.77,2.28S95.86,61.24,95.06,60" transform="translate(-8 -30.49)" fill="#fdf6da"/>
    <path d="M112.6,41.68s2.1-1.63,3.53-1S111.52,52,110.3,52.14s-3-.25-3.07-2.12,4.54-7.37,5.37-8.34" transform="translate(-8 -30.49)" fill="#fdf6da"/>
    <path d="M120.51,59.83s.13-2.39,1.9-2.91,7,10,6.13,10.89a3.59,3.59,0,0,1-4.45.71c-1.85-1.09-3.33-7.55-3.58-8.69" transform="translate(-8 -30.49)" fill="#fbeec0"/>
    <path d="M156.55,74.15c.65-.92,2-1.9,3.4-.75s2.55,7.94,2.74,9.14c0,0-.11,2.51-1.46,3.06s-5.33-10.54-4.68-11.45" transform="translate(-8 -30.49)" fill="#fdf6da"/>
    <path d="M121.37,68.91s3.1-.63,4.38.62S115.36,78.21,114,77.79s-3.2-1.51-2.45-3.33,8.49-5,9.86-5.55" transform="translate(-8 -30.49)" fill="#fdf6da"/>
    <path d="M42.6,75.24s2.87,1.13,4.38.13-8.23-10.1-9.67-9.93-3.42.93-3.08,2.81,7.16,6.23,8.37,7" transform="translate(-8 -30.49)" fill="#fdf6da"/>
    <path d="M80.37,85.49s.22,2.26-1.16,2.66-7.09-10-6.52-10.73A2.42,2.42,0,0,1,76.24,77c1.66,1.15,3.76,7.38,4.13,8.48" transform="translate(-8 -30.49)" fill="#fdf6da"/>
    <path d="M77.61,58.61c-.48-1.2-10.09-6.62-10.1-5.17s1.83,3.45,1.83,3.45c1,.78,6.42,5.09,7.74,4.89s1-2,.53-3.17" transform="translate(-8 -30.49)" fill="#f8e6a5"/>
    <path d="M60.42,81.12s-1.31-2-.83-3.28,8.82,4.64,8.94,5.76-.12,2.73-1.56,2.76-5.79-4.44-6.55-5.24" transform="translate(-8 -30.49)" fill="#f8e6a5"/>
    <polyline points="50.08 39.91 52.38 34.68 60.76 37.01 60.76 42.8 50.08 39.91" fill="#ee8700"/>
    <polyline points="50.08 39.91 51.09 45.78 58.14 46.79 60.76 42.8 50.08 39.91" fill="#ec7503"/>
    <path d="M32.4,85.33c.73-1-.27-3.17-.27-3.17-.66-.9-4.39-6-5.9-6.32s-2.87.24-2.94,1.28,8.38,9.26,9.11,8.21" transform="translate(-8 -30.49)" fill="#f8e6a5"/>
    <path d="M81.42,69.77s-2,1.43-3,.72S83.68,60,84.7,60s2.43.41,2.27,2.19-4.74,6.75-5.55,7.62" transform="translate(-8 -30.49)" fill="#fdf6da"/>
    <path d="M84.48,66.69s.88-2.5,2.34-2.69,1.83,12.09.92,12.83-2.48,1.36-3.48-.19,0-8.69.22-10" transform="translate(-8 -30.49)" fill="#fdf6da"/>
    <path d="M161.24,67.71s1.41-1.61.29-2.87-12.1,2.83-12,3.83a3.4,3.4,0,0,0,3.2,2.78c2.22.26,7.54-3.13,8.47-3.74" transform="translate(-8 -30.49)" fill="#f8e6a5"/>
    <path d="M124.66,72.37s-2.43-1-2.52-2.51,12.17-1,12.85-.07,1.19,2.57-.42,3.46-8.66-.61-9.91-.88" transform="translate(-8 -30.49)" fill="#fdf6da"/>
    <path d="M120.37,73.15s-.66,2.29-2,2.77-2.24-9.71-1.47-10.53,2.14-1.7,3.11-.62.41,7.28.31,8.38" transform="translate(-8 -30.49)" fill="#f8e6a5"/>
    <path d="M44.61,51.23a6.1,6.1,0,1,0,6.1-6.1,6.1,6.1,0,0,0-6.1,6.1" transform="translate(-8 -30.49)" fill="#66a730"/>
    <path d="M48.88,50a3,3,0,1,0,3-3,3.06,3.06,0,0,0-3,3" transform="translate(-8 -30.49)" fill="#adcc6f"/>
    <path d="M45.91,80.55l-3.36.65a4.4,4.4,0,1,1-1.68-8.64l3.37-.65a4.4,4.4,0,0,1,1.67,8.64" transform="translate(-8 -30.49)" fill="#ffca00"/>
    <path d="M130.64,46.22a6.1,6.1,0,1,0,6.1-6.1,6.1,6.1,0,0,0-6.1,6.1" transform="translate(-8 -30.49)" fill="#66a730"/>
    <path d="M134.91,45A3,3,0,1,0,138,42a3,3,0,0,0-3.05,3" transform="translate(-8 -30.49)" fill="#adcc6f"/>
    <path d="M75.9,66.68s1.58,2.14,1,3.55-10.52-5-10.68-6.17.11-3,1.82-3S75,65.82,75.9,66.68" transform="translate(-8 -30.49)" fill="#f8e6a5"/>
    <path d="M51.71,81.93s2.47-1,2.32-2.42-13.34-.78-13.92.13a2.07,2.07,0,0,0,1,3.27c1.88.82,9.28-.71,10.58-1" transform="translate(-8 -30.49)" fill="#fdf6da"/>
    <path d="M146.27,73a6.84,6.84,0,0,1-1.09,2.83c-.93,1.31-7.23-8.11-7-9.39s1.11-1.42,2.67-1.07,4.85,6.53,5.43,7.63" transform="translate(-8 -30.49)" fill="#fdf6da"/>
    <path d="M75,71.35s-2.24,1.17-3.65.34,5.45-9.65,6.69-9.57,3,.68,3,2.41-5.11,6.06-6,6.82" transform="translate(-8 -30.49)" fill="#fbeec0"/>
    <path d="M119.77,55.76s-1.82,1.38-1.25,2.71,11.9-1.35,12.12-2.33a2.43,2.43,0,0,0-1.93-3c-1.91-.5-7.88,2.15-8.94,2.62" transform="translate(-8 -30.49)" fill="#f8e6a5"/>
    <path d="M158.78,72.66s.47,2.78,1.86,3,3.6-13.31,2.83-14.14-2.2-1.55-3.39.14-1.29,9.6-1.3,11" transform="translate(-8 -30.49)" fill="#fbeec0"/>
    <path d="M52.57,56.27S50,56,49.3,57.31,59.65,64,60.64,63.49s2.12-1.73,1.07-3.29-7.92-3.58-9.14-3.93" transform="translate(-8 -30.49)" fill="#fbeec0"/>
    <path d="M64.65,59.4s.49,2.62-.59,3.45-7.24-9.93-6.87-11,1.34-2.33,2.87-1.4,4.13,7.74,4.59,8.95" transform="translate(-8 -30.49)" fill="#fdf6da"/>
    <path d="M126.2,78.31s-2.63.46-3.44-.63,10-7.12,11.08-6.73,2.31,1.36,1.37,2.89-7.8,4-9,4.47" transform="translate(-8 -30.49)" fill="#f8e6a5"/>
    <path d="M98.4,64.11s1.93,1.5,1.8,3.08-10.51-.89-11-2-.66-2.92.83-3.61,7.3,2,8.33,2.55" transform="translate(-8 -30.49)" fill="#fdf6da"/>
    <path d="M106.1,65.44s-.33,2.42-1.6,2.71-3.86-11.23-3.19-12a1.93,1.93,0,0,1,3.15-.1c1.18,1.38,1.58,8.19,1.64,9.39" transform="translate(-8 -30.49)" fill="#fbeec0"/>
    <path d="M80.26,50.48s.4-2.24,1.91-2.35,4.57,11,3.76,11.66a2.67,2.67,0,0,1-3.75-.3c-1.39-1.43-1.85-7.87-1.92-9" transform="translate(-8 -30.49)" fill="#fdf6da"/>
    <path d="M52.72,58s2.88-.52,3.17-2S42.26,52.4,41.37,53.21s-1.67,2.33,0,3.57S51.28,58,52.72,58" transform="translate(-8 -30.49)" fill="#fdf6da"/>
    <path d="M156.08,61.24s.12-2.57-1.26-3.32-6.61,10-6,11,1.93,2.2,3.53,1.23,3.42-7.71,3.73-8.91" transform="translate(-8 -30.49)" fill="#fdf6da"/>
    <path d="M86.87,65.18s-2.84-.3-3.56.9S94.89,72.87,96,72.39s2.27-1.6,1.07-3.14-8.81-3.7-10.16-4.07" transform="translate(-8 -30.49)" fill="#fbeec0"/>
    <path d="M136,61.09s.55,2.93-.66,3.86-8.11-11.12-7.69-12.31,1.5-2.62,3.22-1.58,4.62,8.67,5.13,10" transform="translate(-8 -30.49)" fill="#fdf6da"/>
    <path d="M70.28,57.61s-2.41,1.1-3.65.13S73.71,47.8,74.91,48s2.84.92,2.51,2.77-6.11,6.13-7.14,6.88" transform="translate(-8 -30.49)" fill="#fdf6da"/>
    <path d="M77.27,58.35C78.45,58.87,89.1,56,88.1,55s-3.73-1.18-3.73-1.18c-1.23.12-8.15.85-8.94,1.91s.66,2.12,1.84,2.64" transform="translate(-8 -30.49)" fill="#f8e6a5"/>
    <path d="M149.73,65s.74,2.26-.06,3.38-7.3-6.77-7.13-7.88.83-2.61,2.23-2.26,4.43,5.79,5,6.76" transform="translate(-8 -30.49)" fill="#f8e6a5"/>
    <path d="M92.61,34.33s2.45-.63,3.63.5-7.51,8.15-8.7,7.79-2.77-1.35-2.35-3,6.36-4.73,7.42-5.26" transform="translate(-8 -30.49)" fill="#fdf6da"/>
    <path d="M95.11,77s-1.7,1.52-3.11.69S97.45,68,98.69,68.1s2.48.61,2.46,2.34S96,76.23,95.11,77" transform="translate(-8 -30.49)" fill="#fdf6da"/>
    <polyline points="106.65 25.19 111.42 28.77 106.88 36.03 102.05 34.89 106.65 25.19" fill="#f4a536"/>
    <polyline points="106.65 25.19 98.94 25.37 97.58 32.63 102.05 34.89 106.65 25.19" fill="#ee8700"/>
    <path d="M111.8,65s1.73-1.94,1.24-3.09S101.93,67,101.71,68s0,2.49,1.71,2.38,7.38-4.61,8.38-5.41" transform="translate(-8 -30.49)" fill="#fdf6da"/>
    <path d="M137.52,50.45s-2.25.33-2.33,1.78,11.22,4.58,11.85,3.82a2.47,2.47,0,0,0-.38-3.59c-1.49-1.36-8-1.92-9.14-2" transform="translate(-8 -30.49)" fill="#fdf6da"/>
    <path d="M116.77,41.46s2.36.56,3.08-.56-9.09-7.73-10-7.35a2,2,0,0,0-1.19,3c.87,1.62,7,4.44,8.15,4.93" transform="translate(-8 -30.49)" fill="#f8e6a5"/>
    <path d="M44.61,56.52c1.36.17,9.35,7.72,7.86,8.06s-4-.91-4-.91c-1-.71-6.86-4.73-7-6s1.79-1.35,3.14-1.18" transform="translate(-8 -30.49)" fill="#f8e6a5"/>
    <path d="M82.55,41.13a2.29,2.29,0,0,1,3.33-1.22c1,.47,1.93,12.78.5,13s-2.55-2-2.55-2c-.32-1.2-2.07-8-1.28-9.83" transform="translate(-8 -30.49)" fill="#f8e6a5"/>
    <path d="M132.82,61.8l0,0c.23.45-1,1.57-2.77,2.51s-3.38,1.34-3.62.9v0h0L129,70c.25.46,1.87.07,3.64-.87s3-2.07,2.75-2.53l-2.54-4.77h0" transform="translate(-8 -30.49)" fill="#427f31"/>
    <path d="M129.21,62.72c-1.76.94-3,2.06-2.76,2.51s1.86,0,3.62-.9,3-2.06,2.77-2.51-1.87,0-3.63.9" transform="translate(-8 -30.49)" fill="#3a5f28"/>
    <path d="M135.57,69.66s-2.36,1.12-3.86.39,5.66-8.93,7-8.89,3.18.55,3.18,2.13-5.34,5.65-6.29,6.37" transform="translate(-8 -30.49)" fill="#fdf6da"/>
    <path d="M24.36,68.55h0c.48-.15,1.37,1.26,2,3.16s.73,3.57.25,3.72h0l5.59-1.82c.5-.16.4-1.83-.22-3.73s-1.52-3.31-2-3.15l-5.59,1.82h0" transform="translate(-8 -30.49)" fill="#9fc534"/>
    <path d="M26.9,74.74v-.16a.81.81,0,0,1,0,.16h0" transform="translate(-8 -30.49)" fill="#cdd06b"/>
    <path d="M26.9,74.74a.81.81,0,0,0,0-.16l5.59-1.81v.15L26.9,74.74" transform="translate(-8 -30.49)" fill="#7ab934"/>
    <path d="M26.85,73.71v-.07l0-.07h0l0,.14h0" transform="translate(-8 -30.49)" fill="#cbc649"/>
    <path d="M26.85,73.71l0-.14,5.6-1.82v.14l-5.59,1.82" transform="translate(-8 -30.49)" fill="#7ab934"/>
    <path d="M32.25,70.91h0m-5.59,1.82,0-.14s0,.09,0,.14" transform="translate(-8 -30.49)" fill="#cbc649"/>
    <path d="M26.66,72.73s0-.1,0-.14l5.6-1.82,0,.07v.06h0l-5.59,1.82" transform="translate(-8 -30.49)" fill="#7ab934"/>
    <path d="M26.39,71.77l0-.07,0-.07h0l0,.07,0,.07h0" transform="translate(-8 -30.49)" fill="#cbc649"/>
    <path d="M26.39,71.77l0-.07,0-.07,5.6-1.82,0,.07L32,70l-5.59,1.82" transform="translate(-8 -30.49)" fill="#7ab934"/>
    <path d="M26,70.77h0l0-.06,0,.07h0" transform="translate(-8 -30.49)" fill="#89824c"/>
    <path d="M26.05,70.83l0-.06h0l0,.06" transform="translate(-8 -30.49)" fill="#cbc649"/>
    <polyline points="23.6 38.39 23.6 38.39 23.6 38.39" fill="#cfd67b"/>
    <path d="M26.05,70.83l0-.06,0-.07,5.59-1.82h0l0,.07,0,.06-5.6,1.82" transform="translate(-8 -30.49)" fill="#7ab934"/>
    <path d="M25.64,69.92l0-.07,0-.06h0a.83.83,0,0,1,.07.13h0" transform="translate(-8 -30.49)" fill="#d3e2a6"/>
    <path d="M25.64,69.92a.83.83,0,0,0-.07-.13L31.17,68l0,.07,0,.06-5.59,1.82" transform="translate(-8 -30.49)" fill="#7ab934"/>
    <path d="M25.11,69.05,25.06,69l0,0,0-.07h0l.09.13h0" transform="translate(-8 -30.49)" fill="#d3e2a6"/>
    <path d="M25.11,69.05,25,68.92l5.58-1.81,0,.06.05.06-5.59,1.82" transform="translate(-8 -30.49)" fill="#7ab934"/>
    <path d="M24.62,72.27c.62,1.9,1.51,3.31,2,3.15s.37-1.82-.25-3.72-1.5-3.31-2-3.16-.38,1.83.24,3.73" transform="translate(-8 -30.49)" fill="#599b32"/>
    <path d="M135.16,81.54s.93,3.94-.73,4.4-7.61-10.66-6.81-11.43a3.53,3.53,0,0,1,4.17-.62c1.74,1,3.13,6.64,3.37,7.65" transform="translate(-8 -30.49)" fill="#fdf6da"/>
    <path d="M59.67,76.77c.09-1,13-3.7,13.89-2.29s-1,2.84-1,2.84c-1.16.49-7.76,3.2-10.09,2.66s-2.87-2.18-2.78-3.21" transform="translate(-8 -30.49)" fill="#fbeec0"/>
    <path d="M101.21,36.72s-3.07-.32-4.08.81,11.43,6.55,12.71,6.11,2.79-1.48,1.75-3-9-3.6-10.38-4" transform="translate(-8 -30.49)" fill="#fdf6da"/>
    <path d="M112.76,63.32c1.54.61,1.83,3.34,1.83,3.34-.14,1.3-1,8.64-2.45,9.87s-3,.14-3.84-.86,2.92-13,4.46-12.35" transform="translate(-8 -30.49)" fill="#f8e6a5"/>
    <path d="M140.34,58s-2.45,1.17-2.35,2.51,13.12-.17,13.71-1.1.93-2.45-.91-3.11-9.16,1.34-10.45,1.7" transform="translate(-8 -30.49)" fill="#fbeec0"/>
    <path d="M122.4,40.47s2.18-1.73,3.74-1.33-4.47,10.69-5.76,11-3.2.18-3.39-1.48,4.56-7.17,5.41-8.14" transform="translate(-8 -30.49)" fill="#fbeec0"/>
    <path d="M166,76.2s-1.48,2.27-2.94,1.85,1.23-13.47,2.29-13.87a2.34,2.34,0,0,1,3.33,1.64c.58,2-2.19,9.13-2.68,10.38" transform="translate(-8 -30.49)" fill="#fdf6da"/>
    <path d="M77.26,41s-1.18,1.82-.05,2.82,11-5.1,10.75-6a2.75,2.75,0,0,0-3.18-2c-2.42.22-8,5.66-7.52,5.26" transform="translate(-8 -30.49)" fill="#fbeec0"/>
    <path d="M60.39,44.85s-2.26-1.46-3.78-.94,5.08,9.81,6.38,10,3.16-.11,3.25-1.71-4.95-6.44-5.85-7.3" transform="translate(-8 -30.49)" fill="#f8e6a5"/>
    <path d="M52.08,75.85a5.68,5.68,0,0,0-.82,2.72c0,1.52,11.13-1.4,11.73-2.47s-.06-1.72-1.61-2.42-8.14,1.73-9.3,2.17" transform="translate(-8 -30.49)" fill="#fdf6da"/>
    <path d="M102.22,77a6.1,6.1,0,1,0,6.1-6.1,6.11,6.11,0,0,0-6.1,6.1" transform="translate(-8 -30.49)" fill="#66a730"/>
    <path d="M106.49,75.74a3,3,0,1,0,3.05-3,3,3,0,0,0-3.05,3" transform="translate(-8 -30.49)" fill="#adcc6f"/>
    <path d="M166.92,78.56a6.1,6.1,0,1,0,6.1-6.1,6.1,6.1,0,0,0-6.1,6.1" transform="translate(-8 -30.49)" fill="#66a730"/>
    <path d="M171.19,77.34a3.05,3.05,0,1,0,3.05-3,3,3,0,0,0-3.05,3" transform="translate(-8 -30.49)" fill="#adcc6f"/>
    <path d="M170,85.7s2.75.83,4.08-.12-8.38-8.44-9.72-8.22-3.13,1-2.67,2.63,7.12,5.1,8.31,5.71" transform="translate(-8 -30.49)" fill="#f8e6a5"/>
    <path d="M157.68,77.13s-2.49-1.36-2.66-3,12.08.11,12.82,1.2,1.33,2.89-.22,3.69-8.68-1.51-9.94-1.93" transform="translate(-8 -30.49)" fill="#fdf6da"/>
    <path d="M133.09,50.44s-.28-2.37,1-3.17S140.86,56,140.36,57s-1.65,2.2-3.2,1.42-3.7-6.87-4.07-8" transform="translate(-8 -30.49)" fill="#fbeec0"/>
    <path d="M103,46.61s-2.66-.07-3.54-1.34,9.87-5.14,11-4.54,2.43,1.85,1.54,3.2-7.77,2.49-9,2.68" transform="translate(-8 -30.49)" fill="#f8e6a5"/>
    <path d="M116.91,87.71s.07-1.62-1.28-1.82-6.18,7.46-5.57,8a2.89,2.89,0,0,0,3.43.09c1.52-.91,3.15-5.45,3.42-6.25" transform="translate(-8 -30.49)" fill="#f8e6a5"/>
    <path d="M99.82,90.51s-2.26-.77-2.56-2,10.38-1.26,11.11-.49,1.41,2.07.15,2.86-7.58-.2-8.7-.39" transform="translate(-8 -30.49)" fill="#fbeec0"/>
    <polyline points="59 8.79 65.08 9.95 64.64 19.41 61.01 20.32 59 8.79" fill="#ee8700"/>
    <polyline points="59 8.79 53.69 12.38 55.88 20.3 61.01 20.32 59 8.79" fill="#f4a536"/>
    <polyline points="133.18 38.19 138.27 35.08 144.43 40.46 140.86 43.92 133.18 38.19" fill="#ee8700"/>
    <polyline points="133.18 38.19 131.3 44.02 137.54 47.97 140.86 43.92 133.18 38.19" fill="#ec7503"/>
    <path d="M139.75,79.45s-2.45-1.59-2.35-3.1,13,1.61,13.63,2.73.93,2.86-.89,3.41-9.1-2.5-10.39-3" transform="translate(-8 -30.49)" fill="#fdf6da"/>
    <path d="M154.75,72s2.73.08,3.12,1.33-12.4,5-13.3,4.39-1.75-1.83-.26-3.15,9.1-2.39,10.44-2.57" transform="translate(-8 -30.49)" fill="#fbeec0"/>
    <path d="M124.21,69.37s2.86-.18,3.57-1.53S116.08,62.92,115,63.6s-2.26,2-1,3.37,8.89,2.25,10.24,2.4" transform="translate(-8 -30.49)" fill="#fdf6da"/>
    <path d="M69.16,49.07s-.32-2.63-1.61-3-4,12.14-3.28,13,2,1.63,3.2.15,1.62-8.86,1.69-10.17" transform="translate(-8 -30.49)" fill="#fbeec0"/>
    <path d="M79.14,53s2.25.22,2.65-1.29-9.89-7.69-10.66-7a2.83,2.83,0,0,0-.42,3.89C71.85,50.31,78,52.56,79.14,53" transform="translate(-8 -30.49)" fill="#fbeec0"/>
    <path d="M160.1,54.63v0c-.24.44-1.86,0-3.63-.89s-3-2.06-2.76-2.51v0h0L151.17,56c-.24.46,1,1.59,2.76,2.53s3.39,1.32,3.63.86l2.54-4.76h0" transform="translate(-8 -30.49)" fill="#427f31"/>
    <path d="M157.32,52.14c-1.76-.94-3.38-1.34-3.62-.89s1,1.57,2.76,2.51,3.39,1.33,3.63.89-1-1.57-2.77-2.51" transform="translate(-8 -30.49)" fill="#3a5f28"/>
    <path d="M85.37,57.07l0,0c-.42.28-1.67-.83-2.78-2.49s-1.69-3.23-1.27-3.51h0l-4.87,3.29c-.44.29.12,1.87,1.24,3.52s2.37,2.77,2.8,2.47l4.88-3.28h0" transform="translate(-8 -30.49)" fill="#9fc534"/>
    <path d="M81.25,52a.83.83,0,0,1,0-.15h0l0,.07,0,.08h0" transform="translate(-8 -30.49)" fill="#cfd67b"/>
    <path d="M76.38,55.26l0-.07,0-.08,4.87-3.28a.83.83,0,0,0,0,.15l-4.87,3.28" transform="translate(-8 -30.49)" fill="#7ab934"/>
    <path d="M81.61,52.93l-.06-.13,0,.07,0,.06h0" transform="translate(-8 -30.49)" fill="#d0db8d"/>
    <path d="M76.73,56.22l0-.06,0-.07,4.88-3.29.06.13-4.88,3.29" transform="translate(-8 -30.49)" fill="#7ab934"/>
    <path d="M82.08,53.82,82,53.69h0l0,.07,0,.06" transform="translate(-8 -30.49)" fill="#d0db8d"/>
    <path d="M77.2,57.11l0-.06,0-.07L82,53.69l.08.13L77.2,57.11" transform="translate(-8 -30.49)" fill="#7ab934"/>
    <path d="M82.57,54.6l0-.06,0,.06m0,.06,0-.06,0,.06" transform="translate(-8 -30.49)" fill="#cdd06b"/>
    <path d="M77.73,58l0-.06,0-.06,4.88-3.29,0,.06,0,.06L77.73,58" transform="translate(-8 -30.49)" fill="#7ab934"/>
    <polyline points="70.32 28.26 70.32 28.26 70.32 28.26 70.32 28.26" fill="#cbc649"/>
    <path d="M83.2,55.46l-.09-.11,0,.06,0,.05" transform="translate(-8 -30.49)" fill="#cdd06b"/>
    <path d="M78.32,58.75h0l0,0,0-.06,4.88-3.29.09.11h0l-4.88,3.29" transform="translate(-8 -30.49)" fill="#7ab934"/>
    <path d="M83.86,56.22l-.1-.11h0l0,.06,0,0h0" transform="translate(-8 -30.49)" fill="#cdd06b"/>
    <path d="M79,59.51l0-.06-.05-.05,4.88-3.29.1.11L79,59.51" transform="translate(-8 -30.49)" fill="#7ab934"/>
    <path d="M84.63,56.9l-.13-.09h0l.07,0,0,0,0,.06h0" transform="translate(-8 -30.49)" fill="#cdd06b"/>
    <path d="M79.76,60.18l-.06,0-.07,0,4.87-3.28.13.09-4.87,3.28" transform="translate(-8 -30.49)" fill="#7ab934"/>
    <path d="M84.09,53.58c-1.12-1.66-2.37-2.77-2.79-2.49s.15,1.85,1.27,3.51,2.36,2.77,2.78,2.49-.15-1.86-1.26-3.51" transform="translate(-8 -30.49)" fill="#599b32"/>
    <path d="M91,32c-.22-1.65-3.33-2.18-2,.1-2.29-.44,1.34,2.31.82,2.64s-1.78-.81-2.2-3.21c-.15-.81-1.58-1.5-1.43.07a1.67,1.67,0,0,0-2.21.06,1.56,1.56,0,0,0,.38,2.13c-1.63.15-.63,1.41.25,1.38,2.54-.09,4,.83,3.84,1.31s-4-2.16-2.91-.12c-2.71-.8-1.36,2.09.44,1.9-1.12.94.56,1.95,1.31.77-.26,1.23,1,1.34,3,.09,1.1-.7,3.13-.12,5.09,1.07,1.1.67,2.21,1.32,3.33,1.94.15-.2.29-.41.43-.61-1.12-.62-2.23-1.27-3.32-1.93-2-1.19-3.2-2.81-2.83-4,.64-2.13.21-3.23-.94-2.64,1-1-.43-2.21-1.09-1" transform="translate(-8 -30.49)" fill="#478933"/>
    <path d="M99.31,33.36c.13-.7-.47-1.14-1-1.37s-1.42,0-1.5.69c-.91-.95-1.33,0-.89.51,1.3,1.52,1.28,2.64.84,2.66s-.25-2.94-1.28-1.81c-.69-1.83-2.17-.33-1.2.71-1.22-.47-1.22.78,0,1-1,.11-.47,1.5,1.34,2.48.81.43,1.46.76,1.31,2.21l.65.39a3.16,3.16,0,0,1,2.17-2c1.91-.26,2.09-.88,1.13-1.47,1.22.38,1.57-.77.29-.9,1.21-.51.22-2.6-.95-1.22-.65-1.53-1.2,1.35-1.71,1.08s-.11-1.27,1.54-2.08c.57-.28.43-1.34-.7-.88" transform="translate(-8 -30.49)" fill="#478933"/>
    <path d="M90.42,45.54a1.68,1.68,0,0,1-1.89-.49c-.57-.52-.6-1.3.12-1.59-1.35-.54-.53-1.22.18-1,2.09.7,3.25.25,3.09-.13s-3.15.76-2.36-.54c-2.17-.06-1.12-1.87.3-1.31-.91-1,.36-1.34,1-.3-.25-1,1.35-.89,3,.31a2.16,2.16,0,0,0,2.75.24l.66.39a2.76,2.76,0,0,0-1.06,2.61c.61,1.69.09,2.11-1,1.56,1,.85,0,1.64-.79.61,0,1.24-2.6,1.23-1.7-.32-1.89,0,.86-1.56.36-1.89s-1.37.37-1.48,2.11c0,.6-1.22.87-1.23-.29" transform="translate(-8 -30.49)" fill="#478933"/>
    <path d="M124.74,39.41c3.07-.26,3.86-4-.08-2.34.8-2.61-4,1.42-4.55.64-.38-.59,1.52-1.75,5.5-2.27,1.4-.21,2.34-1.95-.23-1.68a1.59,1.59,0,0,0-.4-2.56,3,3,0,0,0-3.24.36c-.4-1.88-2.14-.91-2.07.08.24,2.93-1.48,4.39-2.21,4s3.59-3.94.43-3.26c1.16-2.82-2.91-2.1-2.82-.1-1.2-1.59-2.85-.21-1.32,1.13-1.72-.82-2.16.51-.82,3.25.79,1.5-.74,3.52-3.7,4.76a48.28,48.28,0,0,1-5.12,1.8l.73.9A49.44,49.44,0,0,0,110,42.29c3-1.26,6-2,8-1.19,3.59,1.4,5.83.92,4.91-.49,1.7,1.28,4.1-.38,1.84-1.2" transform="translate(-8 -30.49)" fill="#478933"/>
    <path d="M119.76,49a3.51,3.51,0,0,0,3.24-.9c.82-.75.57-1.68-.8-1.91,2.17-.91.47-1.55-.66-1.14-3.38,1.18-5.52.6-5.34.13s5.63.69,3.86-.84c3.69-.4,1.23-2.41-.92-1.57,1.19-1.26-1-1.59-1.75-.3.1-1.21-2.4-1-4.9.38-1.09.61-2.06,1.12-4.42,0l-1,.37c1.28.86,2.41,2.59,2.08,3.52-.8,2.06.18,2.69,2,2.09-1.58,1,.37,2.09,1.51.82.17,1.61,5,1.55,3-.38,3.34,0-1.94-1.91-1.11-2.36.61-.32,2.45.45,3.16,2.59.23.75,2.49,1,2.13-.48" transform="translate(-8 -30.49)" fill="#478933"/>
    <path d="M103.78,32.71c-.14-.94.67-1.32,1.41-1.47a1.69,1.69,0,0,1,2,1.24c1.15-1,1.79.22,1.24.82-1.66,1.69-1.62,3.12-1,3.23s.12-3.69,1.66-2.07c.75-2.21,3-.14,1.82,1.07,1.68-.47,1.93,1.09.13,1.23,1.56.23,1,2-1.67,3-1.18.44-2.17.72-1.78,2.62l-1,.36a6.76,6.76,0,0,0-3.47-3.07c-2.89-.92-3.07-1.82-1.65-2.25-1.81.08-2.21-1.54-.37-1.25-1.66-1.1-.13-3.41,1.39-1.27.93-1.77,1.66,2.09,2.42,1.87.59-.19.07-1.57-2.15-3.1-.75-.54-.5-1.84,1-.93" transform="translate(-8 -30.49)" fill="#478933"/>
    <path d="M89,41.71s-2.52.4-2.61,2.13S99,49.3,99.7,48.4a3.09,3.09,0,0,0-.43-4.29c-1.66-1.63-8.94-2.3-10.23-2.4" transform="translate(-8 -30.49)" fill="#fbeec0"/>
    <path d="M102.89,44.87s-1.08-2.44-.22-3.49,9.32,8,9.21,9.13-.77,2.58-2.48,2-5.79-6.6-6.51-7.67" transform="translate(-8 -30.49)" fill="#fdf6da"/>
    <path d="M139.1,79.94s2.77-.53,3.92.52-9.28,7.26-10.54,6.92-2.86-1.27-2.18-2.79,7.58-4.18,8.8-4.65" transform="translate(-8 -30.49)" fill="#fdf6da"/>
    <path d="M156.38,87.08,153.6,89.3a4.56,4.56,0,0,1-5.7-7.13L150.68,80a4.56,4.56,0,0,1,5.7,7.13" transform="translate(-8 -30.49)" fill="#ffca00"/>
    <path d="M88.37,70.68c-.28-1.77-2.22-2.78-4.21-2.17a23.23,23.23,0,0,0-5.61,2.59c-1.75,1.12-2.24,3.25-1.08,4.61,1.34,1.56,2.89,3.31,4.26,4.9a2.45,2.45,0,0,0,2.9.46l3.17-1.46a2.48,2.48,0,0,0,1.54-2.51c-.32-2.07-.65-4.39-1-6.42" transform="translate(-8 -30.49)" fill="#ffca00"/>
    <path d="M87,75.4c-1-2.09-2.81-3.12-4.19-2.49S81,75.63,82,77.71a12.48,12.48,0,0,0,1.51,2.72,1.63,1.63,0,0,0,1.94.31L87.05,80a1.65,1.65,0,0,0,1-1.65A12.18,12.18,0,0,0,87,75.4" transform="translate(-8 -30.49)" fill="#ffe743"/>
    <path d="M111.65,79.7s2.32-.45,2.87,1-9.54,8.39-10.4,7.86a2.59,2.59,0,0,1-.81-3.69c1-1.85,7.24-4.65,8.34-5.13" transform="translate(-8 -30.49)" fill="#f8e6a5"/>
    <path d="M148.76,79s-.29-2.48-1.53-2.79S143.32,87.7,144,88.5s1.91,1.52,3.08.12,1.64-8.38,1.71-9.61" transform="translate(-8 -30.49)" fill="#fbeec0"/>
    <path d="M128.83,87.34s2.09,1.54,3.57,1.07S126.82,78.22,125.58,78s-1.69.21-2,1.79c-.38,2.26,4.18,7.29,5.22,7.52" transform="translate(-8 -30.49)" fill="#f8e6a5"/>
    <path d="M133.39,88.1s2.29,1.35,2.22,2.63-12.13-1.4-12.69-2.35-.91-2.43.78-2.9,8.49,2.15,9.69,2.62" transform="translate(-8 -30.49)" fill="#fdf6da"/>
    <path d="M86,58.35s2.74.76,3.27,2.27S77.46,63.29,76.5,62.39s-2-2.5-.64-3.64,8.8-.52,10.12-.4" transform="translate(-8 -30.49)" fill="#fdf6da"/>
    <path d="M95.52,44.51c.31,2.89.67,5.78,1.09,8.64,1.32-.29,2.64-.59,3.94-.86q.45-3.36.85-6.6a32.42,32.42,0,0,0-5.88-1.18" transform="translate(-8 -30.49)" fill="#e84439"/>
    <path d="M95.52,44.51c-1.86,1-3.76,2.15-5.67,3.29.37,1.78.8,3.62,1.27,5.53q2.75,0,5.49-.18c-.42-2.86-.78-5.75-1.09-8.64" transform="translate(-8 -30.49)" fill="#ed6a44"/>
    <path d="M104,52.66s2.1-1.69,1.37-3.1-14,2.59-14.18,3.69a2.57,2.57,0,0,0,2.39,3.14c2.27.37,9.2-3.11,10.42-3.73" transform="translate(-8 -30.49)" fill="#fdf6da"/>
    <path d="M35.64,76.64s2.76-1.15,2.6-2.71-14.94-.87-15.59.15a2.31,2.31,0,0,0,1.13,3.66c2.12.91,10.4-.79,11.86-1.1" transform="translate(-8 -30.49)" fill="#fdf6da"/>
    <path d="M149.21,88.54s-2.29.68-2.14,2,12.45,2.22,13,1.43.79-2.19-1-3.17-8.66-.37-9.88-.26" transform="translate(-8 -30.49)" fill="#fdf6da"/>
    <path d="M79.75,78.47s-2.57.65-2.74,2,12.54,2.39,13.29,1.61,1.37-2.19-.25-3.2-9-.49-10.3-.39" transform="translate(-8 -30.49)" fill="#fbeec0"/>
    <path d="M98.26,75.85S95.6,75.67,95.11,77s11.62,6.6,12.54,6a2.06,2.06,0,0,0,.54-3.38c-1.33-1.57-8.64-3.47-9.93-3.8" transform="translate(-8 -30.49)" fill="#fdf6da"/>
    <path d="M154.45,62s2,.84,2.83-.37-6.65-9.55-7.56-9.21a2.62,2.62,0,0,0-1.61,3.29c.48,1.91,5.45,5.64,6.34,6.29" transform="translate(-8 -30.49)" fill="#fbeec0"/>
  </g>
</svg>
