<svg id="Layer_1" data-name="Layer 1" xmlns="http://www.w3.org/2000/svg" viewBox="0 0 135.76 136.48">
  <title>25-Potato</title>
  <g>
    <path d="M133.13,56.8c-2.07-1.82-4.18-3.59-6.31-5.3l.93.24a4.9,4.9,0,0,0,.44.26.5.5,0,0,1,0-.12,13.53,13.53,0,0,1,2.87,1.32l.3.16c.1.24.21.47.32.71a25.68,25.68,0,0,0,1.43,2.73" transform="translate(-34.88 -30.98)" fill="#e69d4f"/>
    <g>
      <path d="M128.19,52a4.9,4.9,0,0,1-.44-.26l.46.14a.5.5,0,0,0,0,.12" transform="translate(-34.88 -30.98)" fill="#f6dcbc"/>
      <path d="M153.85,154.85a44.28,44.28,0,0,1-20.21,9.88c-27.43,5.87-59.94-7.52-78.47-30.46S27.54,73.69,47.48,49.4a48,48,0,0,1,3.88-4.18h0c14.73-14.11,38.16-18.45,61.42-3.75,25.43,16.07,51.15,44,55.4,65.35,3.39,17.06-.88,36.26-14.33,48" transform="translate(-34.88 -30.98)" fill="#f3b766"/>
    </g>
    <path d="M152.47,87.81c-10.76-18-22.83-36.13-40.82-46.81S68.14,29.46,53.57,44.48C43.7,54.65,40.72,70.34,44.16,84.09S56.79,109.67,68,118.34A87.42,87.42,0,0,0,136.24,135c9.18-1.68,19-5.59,23.08-14,5.21-10.6-.78-23.07-6.85-33.21" transform="translate(-34.88 -30.98)" fill="#fdce7a"/>
    <path d="M71.08,39.23c3.77-2.83,28.2-8.07,49,14.06S155.48,99.07,142,106.63s-41.23-4.86-55.36-18.85S57.37,49.49,71.08,39.23" transform="translate(-34.88 -30.98)" fill="#fed791"/>
    <path d="M112,141.23a5.74,5.74,0,0,1-.71,0c-3.29-.31-5.74-2.74-5.48-5.42a3.57,3.57,0,0,1,.16-.79,87.41,87.41,0,0,0,11.75,1.28,4.85,4.85,0,0,1,0,.66c-.24,2.48-2.73,4.31-5.71,4.31" transform="translate(-34.88 -30.98)" fill="#fef2c8"/>
    <path d="M117.68,136.26A87.41,87.41,0,0,1,105.93,135c.63-2.07,2.89-3.52,5.55-3.52.23,0,.47,0,.7,0,3,.29,5.33,2.35,5.5,4.76" transform="translate(-34.88 -30.98)" fill="#fff6cd"/>
    <path d="M125.51,143.71a3.39,3.39,0,0,1-3.63-2.79c-.12-1.69,1.46-3.17,3.52-3.32h.34c1.92,0,3.51,1.2,3.62,2.79s-1.45,3.17-3.52,3.32h-.33" transform="translate(-34.88 -30.98)" fill="#fef2c8"/>
    <path d="M51,123.26c16.23,15.08,35.9,25.15,57.94,27.37s45.94-6.68,57.73-25.44c-2.75,14.66-14.17,26.95-28,32.38s-29.67,4-43.66-1.18c-19.84-7.31-31.19-19-44-33.13" transform="translate(-34.88 -30.98)" fill="#d68c46"/>
    <path d="M122.25,52.52c-1.14-.19-2.27-.31-3.25-.39-.36-.37-.72-.73-1.09-1.08a9.4,9.4,0,0,1,2.31-.51l2,2m4.7,1.36c-.15-.08-.32-.15-.48-.22-1.54-1.06-3.1-2.09-4.68-3.07A7.84,7.84,0,0,1,127,53.88" transform="translate(-34.88 -30.98)" fill="#da8c5a"/>
    <path d="M119,52.13c-1.77-.15-3.06-.15-3.06-.15a13.77,13.77,0,0,1,2-.93c.37.35.73.71,1.09,1.08" transform="translate(-34.88 -30.98)" fill="#da946d"/>
    <path d="M163.79,102.87a21.23,21.23,0,0,0-4.27-.59c-.2-.58-.4-1.15-.62-1.73a12,12,0,0,1,4.89,2.32" transform="translate(-34.88 -30.98)" fill="#cf7c4d"/>
    <path d="M154.86,102.3a3.71,3.71,0,0,1,3.26-1.81,6.83,6.83,0,0,1,.78.06c.22.58.42,1.15.62,1.73-.76,0-1.48-.06-2.12-.06-1.49,0-2.54.08-2.54.08" transform="translate(-34.88 -30.98)" fill="#da8c5a"/>
    <path d="M88,102.53A13.89,13.89,0,0,1,95.26,95c.7.51,1.42,1,2.15,1.49A67.87,67.87,0,0,1,88,102.53" transform="translate(-34.88 -30.98)" fill="#da8c5a"/>
    <path d="M97.41,96.44c-.73-.49-1.45-1-2.15-1.49a18.3,18.3,0,0,1,5.37-1.62,21.35,21.35,0,0,1-3.22,3.11" transform="translate(-34.88 -30.98)" fill="#da946d"/>
    <path d="M119.86,122c3.11-8.19,12.67-9.2,12.67-9.2-3.47,4.38-12.67,9.2-12.67,9.2" transform="translate(-34.88 -30.98)" fill="#da8c5a"/>
    <path d="M122.35,150.63c1.14-1.48,2.68-3.14,4.22-3.71a12.91,12.91,0,0,1-2.15,3.47q-1,.13-2.07.24" transform="translate(-34.88 -30.98)" fill="#cf7c4d"/>
    <path d="M120.5,153.37a27.85,27.85,0,0,1,1.85-2.74q1-.1,2.07-.24a10.69,10.69,0,0,1-3.92,3" transform="translate(-34.88 -30.98)" fill="#b76035"/>
    <path d="M74.23,140l-1-.51a10.63,10.63,0,0,1,8.49-7.36A57.66,57.66,0,0,1,74.23,140" transform="translate(-34.88 -30.98)" fill="#cf7c4d"/>
    <path d="M72.84,141a10.67,10.67,0,0,1,.44-1.56l1,.51c-.46.38-.93.74-1.39,1.05" transform="translate(-34.88 -30.98)" fill="#b76035"/>
    <path d="M50.06,95.65c2.28-8.73,10.63-10.82,10.63-10.82-4,5.89-10.63,10.82-10.63,10.82" transform="translate(-34.88 -30.98)" fill="#da8c5a"/>
    <path d="M52.72,65.65a10.09,10.09,0,0,1,8.35-8.54c-4,2.66-8.35,8.54-8.35,8.54" transform="translate(-34.88 -30.98)" fill="#da8c5a"/>
    <path d="M154.25,120.24a1,1,0,1,1,.8-.95.89.89,0,0,1-.8.95" transform="translate(-34.88 -30.98)" fill="#da8c5a"/>
    <path d="M153.49,138.65a.77.77,0,0,1-.61-.24c-.36-.41-.13-1.21.51-1.78a2,2,0,0,1,1.23-.53.77.77,0,0,1,.61.24c.36.41.13,1.21-.51,1.78a2,2,0,0,1-1.23.53" transform="translate(-34.88 -30.98)" fill="#cf7c4d"/>
    <path d="M137.52,141.31c-.57,0-1-.18-1.1-.51s.53-1.08,1.49-1.35a3.18,3.18,0,0,1,.88-.13c.57,0,1,.18,1.1.51s-.53,1.09-1.49,1.36a3.57,3.57,0,0,1-.88.12" transform="translate(-34.88 -30.98)" fill="#cf7c4d"/>
    <path d="M135.38,158.05a.64.64,0,0,1-.66-.35c-.08-.3.23-.66.71-.79a1.31,1.31,0,0,1,.38-.06.63.63,0,0,1,.65.35c.08.31-.23.66-.71.8a1.26,1.26,0,0,1-.37.05" transform="translate(-34.88 -30.98)" fill="#b76035"/>
    <path d="M115.56,159.83c-1.21,0-2.18-.56-2.18-1.24s1-1.23,2.18-1.23,2.18.55,2.18,1.23-1,1.24-2.18,1.24" transform="translate(-34.88 -30.98)" fill="#b76035"/>
    <path d="M110,146.63a1.05,1.05,0,1,1,1.18-1,1.12,1.12,0,0,1-1.18,1" transform="translate(-34.88 -30.98)" fill="#cf7c4d"/>
    <path d="M123.72,131.16a1,1,0,0,1-1.13-.86c0-.47.51-.85,1.13-.85s1.14.38,1.14.85-.51.86-1.14.86" transform="translate(-34.88 -30.98)" fill="#da8c5a"/>
    <path d="M81.58,62c-.63,0-1.14-.39-1.14-.86s.51-.85,1.14-.85,1.13.38,1.13.85a1,1,0,0,1-1.13.86" transform="translate(-34.88 -30.98)" fill="#da946d"/>
    <path d="M97.38,118.9a1.71,1.71,0,0,1-.7-.17c-.61-.29-1-.87-.75-1.3a.84.84,0,0,1,.79-.4,1.69,1.69,0,0,1,.7.16c.61.29,1,.87.74,1.3a.8.8,0,0,1-.78.41" transform="translate(-34.88 -30.98)" fill="#da8c5a"/>
    <path d="M89.64,140.08a.85.85,0,0,1-.35-.08c-.58-.31-.64-1.34-.13-2.32a2.17,2.17,0,0,1,1.62-1.3.86.86,0,0,1,.36.08c.58.31.64,1.34.13,2.32a2.17,2.17,0,0,1-1.63,1.3" transform="translate(-34.88 -30.98)" fill="#cf7c4d"/>
    <path d="M86.13,149.76c-.57,0-1-.32-1-.71s.47-.71,1-.71,1.05.32,1.05.71-.47.71-1.05.71" transform="translate(-34.88 -30.98)" fill="#b76035"/>
    <path d="M67.09,133.37a.72.72,0,0,1-.5-.17c-.44-.38-.28-1.27.34-2a2,2,0,0,1,1.41-.77.76.76,0,0,1,.5.17c.44.38.28,1.27-.34,2a2,2,0,0,1-1.41.76" transform="translate(-34.88 -30.98)" fill="#cf7c4d"/>
    <path d="M73.51,108.47a1.24,1.24,0,1,1,1.14-1.24,1.19,1.19,0,0,1-1.14,1.24" transform="translate(-34.88 -30.98)" fill="#da8c5a"/>
    <path d="M118.54,67.71a1.24,1.24,0,1,1,1.13-1.23,1.19,1.19,0,0,1-1.13,1.23" transform="translate(-34.88 -30.98)" fill="#da946d"/>
    <path d="M91,42.29c-.43,0-.78-.22-.82-.53s.32-.7.82-.77h.17c.43,0,.78.22.82.54s-.32.69-.82.76H91" transform="translate(-34.88 -30.98)" fill="#da946d"/>
    <path d="M127.5,93.31a1.23,1.23,0,0,1-1.15-.67,1.35,1.35,0,0,1,.79-1.72,1.54,1.54,0,0,1,.66-.14,1.2,1.2,0,0,1,1.14.67,1.34,1.34,0,0,1-.78,1.72,1.57,1.57,0,0,1-.66.14" transform="translate(-34.88 -30.98)" fill="#da946d"/>
    <path d="M51.43,113c-.55,0-1-.9-1-2s.44-2,1-2,1,.89,1,2-.44,2-1,2" transform="translate(-34.88 -30.98)" fill="#cf7c4d"/>
    <path d="M46.43,88.56l-.15,0c-.72-.14-1.11-1.26-.86-2.49s.92-2,1.59-2h.16c.72.15,1.1,1.26.86,2.5s-.92,2-1.6,2" transform="translate(-34.88 -30.98)" fill="#da8c5a"/>
    <path d="M47.19,64.16h-.1c-.35-.1-.5-.69-.33-1.32s.52-1,.85-1l.1,0c.36.09.5.68.33,1.32s-.52,1-.85,1" transform="translate(-34.88 -30.98)" fill="#da8c5a"/>
    <path d="M72.72,83.86a.65.65,0,0,1-.57-.25c-.22-.36.07-1,.67-1.32a1.76,1.76,0,0,1,.9-.29.65.65,0,0,1,.57.25c.23.36-.07,1-.66,1.32a1.7,1.7,0,0,1-.91.29" transform="translate(-34.88 -30.98)" fill="#da8c5a"/>
    <path d="M92.46,66.73c1.37-4.1,4.19-4.92,6.23-4.92a7.8,7.8,0,0,1,2.38.36c-.62.26-1.34.6-2.1,1a1,1,0,0,0,0-.1,18.74,18.74,0,0,0-2.91,1.61c-2,1.1-3.64,2.07-3.64,2.07" transform="translate(-34.88 -30.98)" fill="#da946d"/>
    <path d="M144.86,152.74a8.41,8.41,0,0,1,8.35-7.13,8.26,8.26,0,0,1,1,.06,12,12,0,0,1-9.35,7.07" transform="translate(-34.88 -30.98)" fill="#b76035"/>
    <path d="M48.35,114.6a60.52,60.52,0,0,1-4.81-51c0,.47,0,.94-.07,1.41a46.48,46.48,0,0,0,0,15.61,171.93,171.93,0,0,0,4.92,34" transform="translate(-34.88 -30.98)" fill="#fce6c6"/>
    <path d="M43.43,80.6a46.48,46.48,0,0,1,0-15.61q-.37,7.8,0,15.61" transform="translate(-34.88 -30.98)" fill="#ffeecd"/>
    <path d="M88.06,102.66a48.74,48.74,0,0,0,9.47-6.14l.94.61a14,14,0,0,1-10.41,5.53" transform="translate(-34.88 -30.98)" fill="#ffebb5"/>
    <path d="M98.47,97.13l-.94-.61c.94-.78,1.85-1.59,2.73-2.44a14.11,14.11,0,0,1-1.79,3" transform="translate(-34.88 -30.98)" fill="#ffefc2"/>
    <path d="M50.44,95.56A37,37,0,0,0,60.71,85c-.12,2-1.45,3.82-2.75,5.3-2.05,2.32-4.51,4.54-7.52,5.24" transform="translate(-34.88 -30.98)" fill="#ffebb5"/>
    <path d="M120.47,121.83a44.26,44.26,0,0,0,12-8.77,6.79,6.79,0,0,1-2.63,4.2,20.2,20.2,0,0,1-9.33,4.57" transform="translate(-34.88 -30.98)" fill="#ffebb5"/>
    <path d="M95.78,65.13h-.31l.63-.46c.93-.5,1.92-1,2.87-1.51a3.62,3.62,0,0,1-3.19,2" transform="translate(-34.88 -30.98)" fill="#ffefc2"/>
    <path d="M96.1,64.66A18.74,18.74,0,0,1,99,63.05a1,1,0,0,1,0,.1c-1,.48-1.94,1-2.87,1.51" transform="translate(-34.88 -30.98)" fill="#f2d3af"/>
    <path d="M74.74,140.25l-.42-.22a43.87,43.87,0,0,0,7.4-7.51,13.39,13.39,0,0,1-7,7.73" transform="translate(-34.88 -30.98)" fill="#fbe1ab"/>
    <path d="M73.15,141l1.17-1,.42.22c-.49.26-1,.5-1.59.74" transform="translate(-34.88 -30.98)" fill="#f1cf9a"/>
    <path d="M167,101l-.78-.93c-.39-1-.83-2.12-1.3-3.19.72,1.36,1.41,2.74,2.08,4.12" transform="translate(-34.88 -30.98)" fill="#f2efe8"/>
    <path d="M166.24,100.1Q156.07,88,145.32,76.31a152.42,152.42,0,0,0-15.23-20.05,122.65,122.65,0,0,1,34.85,40.65c.47,1.07.91,2.14,1.3,3.19" transform="translate(-34.88 -30.98)" fill="#fce6c6"/>
    <path d="M121.79,50.59a6.24,6.24,0,0,0-1-.07l-.58,0-2.4-2.33q2,1.15,4,2.38m23.53,25.72q-11.23-12.18-23.07-23.79a19,19,0,0,1,4.22,1.14q1.83,1.26,3.62,2.6a152.42,152.42,0,0,1,15.23,20.05" transform="translate(-34.88 -30.98)" fill="#ffeecd"/>
    <g>
      <path d="M126.47,53.66a19,19,0,0,0-4.22-1.14l-2-2,.58,0a6.24,6.24,0,0,1,1,.07c1.58,1,3.14,2,4.68,3.07" transform="translate(-34.88 -30.98)" fill="#f2d7c0"/>
      <path d="M120.27,167.45C96,167.45,70,154.76,54.12,135.12c-18.94-23.44-28.07-61.74-7.68-86.57A50.77,50.77,0,0,1,50,44.65v-.78h.81A47.28,47.28,0,0,1,83.3,31c10.22,0,20.39,3.14,30.2,9.34a168,168,0,0,1,35.94,30.94c7.71,8.86,17.46,22.19,20.06,35.29a58.13,58.13,0,0,1-.87,26.62,46.34,46.34,0,0,1-13.89,22.69A45.59,45.59,0,0,1,133.93,166a65.12,65.12,0,0,1-13.66,1.41M52.33,46.15l0,0a48.31,48.31,0,0,0-3.77,4.07C29,74,37.94,110.82,56.21,133.43c15.39,19,40.53,31.33,64.06,31.33a62.36,62.36,0,0,0,13.09-1.35,42.91,42.91,0,0,0,19.6-9.57c12.19-10.67,17.51-28.6,13.9-46.77-4.41-22.17-31.52-49.76-54.79-64.47C102.69,36.67,93,33.67,83.3,33.67A44.63,44.63,0,0,0,52.33,46.15Z" transform="translate(-34.88 -30.98)" fill="#a86815"/>
    </g>
  </g>
</svg>
