<svg id="Layer_12" data-name="Layer 12" xmlns="http://www.w3.org/2000/svg" xmlns:xlink="http://www.w3.org/1999/xlink" viewBox="0 0 404 353.16">
  <defs>
    <clipPath id="clip-path" transform="translate(-59 -96.89)">
      <rect x="59" y="96.89" width="404" height="353.16" fill="none"/>
    </clipPath>
  </defs>
  <title>27-weetabix</title>
  <g clip-path="url(#clip-path)">
    <path d="M331.88,407.19l-56.66-.64c-8.47-.77-17.55-1.18-27-1.18-6.91,0-13.62.22-20,.64l-64.33-.73.27,22.91c1,12.12,38.24,21.87,84.1,21.87,46.47,0,84.13-10,84.13-22.35,0-.8-.48-20.52-.48-20.52" transform="translate(-59 -96.89)" fill="#80cfdb"/>
    <path d="M222.77,283.87,59,253.49s.35,2.06,1.13,5.7L208,286.61Z" transform="translate(-59 -96.89)" fill="#80cfdb"/>
    <path d="M405.6,259.18c.78-3.63,1.13-5.69,1.13-5.69l-20.79,3.85c-.31,1.51-.72,3.43-1.24,5.72Z" transform="translate(-59 -96.89)" fill="#8ac24d"/>
    <path d="M197.94,288.47l10-1.86L60.12,259.19c.25,1.14.53,2.43.86,3.87Z" transform="translate(-59 -96.89)" fill="#80cfdb"/>
    <path d="M385.94,257.34c.51-2.48.75-3.85.75-3.85L222.77,283.87l10,1.86Z" transform="translate(-59 -96.89)" fill="#8ac24d"/>
  </g>
  <polygon points="158.99 191.57 173.79 188.83 163.78 186.97 148.97 189.72 158.99 191.57" fill="#8ac24d"/>
  <g clip-path="url(#clip-path)">
    <path d="M247.59,288.47,384.7,263.06c.52-2.29.93-4.21,1.24-5.72L232.79,285.72Z" transform="translate(-59 -96.89)" fill="#8ac24d"/>
    <path d="M331.87,398.8H164v19.9a53.2,53.2,0,0,0,9.8,2.94,227,227,0,0,0,49.13,8.11c3.35.21,6.63.35,10,.44,5,.14,9.9.15,14.76.06,24.1.46,50-1.61,74.3-8.68,3.64-1.08,6.94-2.19,9.67-3.16l-.15-6.48L318,411.42c4.86-2.65,10.07-5.69,13.89-9Z" transform="translate(-59 -96.89)" fill="#59a6b8"/>
    <path d="M405.6,259.18c-5.17,24.27-29.19,119.38-93.14,149.3a152.25,152.25,0,0,1-20.15,7.36c-19.36,5.64-39.8,8.09-59.52,8.62q7.49.21,14.8.06c24.1.46,50-1.61,74.32-8.68a153,153,0,0,0,20.15-7.36c73.52-34.41,94.27-155,94.27-155Z" transform="translate(-59 -96.89)" fill="#5eb0c9"/>
    <path d="M312.46,408.48c64-29.93,88-125,93.15-149.3l-20.91,3.88C378,292.25,353.35,380,292.41,408.48a153.14,153.14,0,0,1-20.14,7.37,227.9,227.9,0,0,1-49.5,8.17c3.36.21,6.7.35,10,.45,19.72-.54,40.16-3,59.52-8.62a153,153,0,0,0,20.15-7.37" transform="translate(-59 -96.89)" fill="#6ebfd1"/>
    <path d="M232.79,285.73,218,288.47l-10-1.86-10,1.86L61,263.06C67.62,292.25,92.2,379.85,153,408.43a87,87,0,0,0,20.49,7.48A227.39,227.39,0,0,0,222.77,424a227.9,227.9,0,0,0,49.5-8.17,153.71,153.71,0,0,0,20.15-7.37C353.35,380,378,292.25,384.7,263.06L247.59,288.47Z" transform="translate(-59 -96.89)" fill="#80cfdb"/>
    <path d="M436.21,254.28c0,28.56-84.42,51.71-188.55,51.71S59.12,282.84,59.12,254.28s84.42-51.71,188.54-51.71,188.55,23.16,188.55,51.71" transform="translate(-59 -96.89)" fill="#a3e5ed"/>
    <path d="M432.27,251.82c0,23.59-82.65,42.72-184.61,42.72s-184.6-19.13-184.6-42.72c0-19,82.65-45.11,184.6-45.11s184.61,25.77,184.61,45.11" transform="translate(-59 -96.89)" fill="#5eb0c9"/>
    <path d="M424.24,260.21c0-17.59-78.61-36.36-176.13-36.36-80,0-148,14.1-169.69,27.25,32.39-6.91,80.79-11.3,134.88-11.3,97.52,0,168.14,12.65,168.14,30.25,0,3.64-10.27,9.45-1.17,12.28,27.36-6.18,44-14.05,44-22.12" transform="translate(-59 -96.89)" fill="#f2f2f2"/>
    <path d="M384.7,265.66c0-17.6-73.88-25.85-171.4-25.85-54.09,0-102.49,4.38-134.88,11.3-4.76,2.88-7.33,5.94-7.33,9.1,0,17.6,79.06,34.33,176.57,34.33,52.84,0,100.25-4.91,132.6-12.21,4.44-11.52,4.44-13,4.44-16.67" transform="translate(-59 -96.89)" fill="#fff"/>
    <path d="M308.42,234.47,213.1,179.9s-10-2.81-18.13,0-49.13,23.33-49.13,23.33-3.47,2-4.27,5.24c-.84,3.46,1.25,8.4,13.33,14.13,23.62,11.18,64.87,32.54,64.87,32.54Z" transform="translate(-59 -96.89)" fill="#ebc412"/>
    <path d="M141.41,239.56l.16-31.09,78.2,46.67-68.6-9.53s-9.79-1.67-9.76-6.05" transform="translate(-59 -96.89)" fill="#d6ab0a"/>
    <path d="M176.37,200.37a40.25,40.25,0,0,0-4.77.95m29.09,18.36h-10m18.6-17.88a6.44,6.44,0,0,1-4.77,1.9" transform="translate(-59 -96.89)" fill="none" stroke="#d6ab0a" stroke-miterlimit="10" stroke-width="0.48"/>
    <path d="M236.42,226c.8,0,2.42-1.6,1.06-1.6-.81,0-2.43,1.6-1.06,1.6" transform="translate(-59 -96.89)" fill="#d6ab0a"/>
    <path d="M246,218.47c1.49,0,1.47-1.86,0-1.86s-1.47,1.86,0,1.86" transform="translate(-59 -96.89)" fill="#d6ab0a"/>
    <path d="M206.56,214.26c-.12,0-.63-2-1.24-2,.13,0,.63,2,1.24,2" transform="translate(-59 -96.89)" fill="#d6ab0a"/>
    <path d="M176.11,211.78c.1,0-.83-1.84-1.39-1.84-.1,0,.83,1.84,1.39,1.84" transform="translate(-59 -96.89)" fill="#d6ab0a"/>
    <path d="M196.68,199.19c-1.55.48-3.2.58-4.77.95-.78.19-2.07,1.76-.55,1.4s3.21-.46,4.77-.95a2.07,2.07,0,0,0,1.29-1c.19-.5-.44-.48-.74-.38" transform="translate(-59 -96.89)" fill="#d6ab0a"/>
    <path d="M215,226.21c.41,0-.43-2.08-1-2.08s.42,2.08,1,2.08" transform="translate(-59 -96.89)" fill="#d6ab0a"/>
    <path d="M218.69,211.36c1.26,0,1.82-2,.26-2-1.26,0-1.82,2-.26,2" transform="translate(-59 -96.89)" fill="#d6ab0a"/>
    <path d="M214.88,200.44c1.21,0,.14-2.06-.7-2.06-1.21,0-.15,2.06.7,2.06" transform="translate(-59 -96.89)" fill="#d6ab0a"/>
    <path d="M194.87,184.22c1.33,0,1.75-2.06.2-2.06-1.33,0-1.75,2.06-.2,2.06" transform="translate(-59 -96.89)" fill="#d6ab0a"/>
    <path d="M181.27,200.49a2.59,2.59,0,0,0-.58,1.88,1.64,1.64,0,0,0,1,1.38.61.61,0,0,0,.89-.62v-.31c0,.21,0-.11,0-.16s0-.1,0,0a.8.8,0,0,1,.08-.16,2,2,0,0,1,.25-.32c.16-.16.11-.53.07-.71a1.89,1.89,0,0,0-.46-.8c-.36-.36-.86-.56-1.25-.15" transform="translate(-59 -96.89)" fill="#d6ab0a"/>
    <path d="M194.37,211.75c1.55,0,.45-1.78-.71-1.78-1.55,0-.45,1.78.71,1.78" transform="translate(-59 -96.89)" fill="#d6ab0a"/>
    <path d="M207.59,214.78c1.55,0,.94-2.12-.44-2.12-1.55,0-.93,2.12.44,2.12" transform="translate(-59 -96.89)" fill="#d6ab0a"/>
    <path d="M222.92,220.21v1.91c0,.49.91.79,1.27.85s1,.05,1-.47v-1.91c0-.5-.91-.79-1.27-.85s-1-.05-1,.47" transform="translate(-59 -96.89)" fill="#d6ab0a"/>
    <path d="M222.94,229.94a.89.89,0,0,0-.51.08c-.13.1-.1.36-.1.5a1.11,1.11,0,0,0,.2.55,4.83,4.83,0,0,0,.54.74s.82.78.82.41a2.26,2.26,0,0,1,0-.26.2.2,0,0,1,0-.07c0-.08,0,.05,0,0s.18,0,.33,0c.38,0-.15-.81-.22-.9a4.38,4.38,0,0,0-.59-.7c-.11-.09-.33-.31-.49-.31" transform="translate(-59 -96.89)" fill="#d6ab0a"/>
    <path d="M242.87,231l.21-.22c.06,0,.06,0,0,0a.18.18,0,0,1,.07,0q.1-.08-.09,0a1.69,1.69,0,0,1-.39.08h0a2.63,2.63,0,0,0,.84-.12c.13,0,.35-.14.35-.31s-.22-.27-.35-.31a2.38,2.38,0,0,0-.84-.13,3.73,3.73,0,0,0-1.29.17,2.37,2.37,0,0,0-.81.63c-.33.33.72.52.83.54a2,2,0,0,0,1.47-.31" transform="translate(-59 -96.89)" fill="#d6ab0a"/>
    <path d="M253.63,223.38c.81,0,2.52-1.2,1-1.2-.8,0-2.52,1.2-1,1.2" transform="translate(-59 -96.89)" fill="#d6ab0a"/>
    <path d="M236.77,212.69c1.07,0-1.13-.8-1.55-.8-1.07,0,1.12.8,1.55.8" transform="translate(-59 -96.89)" fill="#d6ab0a"/>
    <path d="M222.67,208c.53,0,2.36-1,1.83-1s-2.35,1-1.83,1" transform="translate(-59 -96.89)" fill="#d6ab0a"/>
    <path d="M214.18,243.77c4.24,0,2.31-6.68-1.22-6.68-4.23,0-2.3,6.68,1.22,6.68" transform="translate(-59 -96.89)" fill="#d6ab0a"/>
    <path d="M203.41,235.62a8.24,8.24,0,0,0,4.59-1.75c.46-.34,2.1-2,.47-2a8.24,8.24,0,0,0-4.59,1.75c-.46.34-2.1,2-.47,2" transform="translate(-59 -96.89)" fill="#d6ab0a"/>
    <path d="M176.07,224.85c4.64,0,3.93-6-.36-6-4.65,0-3.93,6,.36,6" transform="translate(-59 -96.89)" fill="#d6ab0a"/>
    <path d="M191.39,214.92c1.75,0,2.1-1.92,1.59-3.23a4.54,4.54,0,0,0-4-3c-1.75,0-2.09,1.92-1.59,3.22a4.53,4.53,0,0,0,4,3" transform="translate(-59 -96.89)" fill="#d6ab0a"/>
    <path d="M207.37,201.35c.5,0-1.67-1.66-1.84-1.78-.93-.63-2.67-2.1-3.87-2.1-.51,0,1.66,1.66,1.83,1.78.93.63,2.67,2.1,3.88,2.1" transform="translate(-59 -96.89)" fill="#d6ab0a"/>
    <path d="M235.8,224.86c1.62,0,.58-2.72.24-3.33-.74-1.31-2-2.73-3.67-2.73s-.59,2.72-.24,3.33c.74,1.31,2.05,2.73,3.67,2.73" transform="translate(-59 -96.89)" fill="#d6ab0a"/>
    <path d="M253.21,224.09c1.2,0,3.4.08,4.37-.81.73-.68-2.4-.85-2.56-.85-1.19,0-3.39-.07-4.36.82-.73.67,2.4.84,2.55.84" transform="translate(-59 -96.89)" fill="#d6ab0a"/>
    <path d="M272.11,231.82a5.89,5.89,0,0,0,4.39-2.51c.84-1.27.16-2.21-1.26-2.21a5.9,5.9,0,0,0-4.39,2.51c-.85,1.27-.17,2.21,1.26,2.21" transform="translate(-59 -96.89)" fill="#d6ab0a"/>
    <path d="M253.83,237.79c1.62,0,.71-2.67.36-3.33-.69-1.31-2-2.83-3.6-2.83s-.71,2.67-.36,3.33c.69,1.31,2,2.83,3.6,2.83" transform="translate(-59 -96.89)" fill="#d6ab0a"/>
    <path d="M229,244.06c4.56,0,4.13-6.3-.38-6.3s-4.14,6.3.38,6.3" transform="translate(-59 -96.89)" fill="#d6ab0a"/>
    <path d="M257.37,220.17c1.62,0,1.07-1.69.47-2.54-.84-1.22-2.52-2.72-4.11-2.72s-1.07,1.68-.47,2.54c.84,1.22,2.52,2.72,4.11,2.72" transform="translate(-59 -96.89)" fill="#d6ab0a"/>
    <path d="M240.45,208.07c4.3,0,3.36-6.83-.33-6.83-4.29,0-3.36,6.83.33,6.83" transform="translate(-59 -96.89)" fill="#d6ab0a"/>
    <path d="M225.56,192.7l-.48-.47a2.78,2.78,0,0,0-2.07-.67,5.14,5.14,0,0,0-2.63.86c-1.11.74-2.37,2.46-1.14,3.68l.47.48a2.86,2.86,0,0,0,2.08.67,5.2,5.2,0,0,0,2.63-.86c1.11-.74,2.37-2.46,1.14-3.69" transform="translate(-59 -96.89)" fill="#d6ab0a"/>
    <path d="M208.81,187.27a13.29,13.29,0,0,0,4.72-1.33c.3-.13,2.41-1.1,1-1.1a13,13,0,0,0-4.71,1.34c-.31.12-2.43,1.09-1,1.09" transform="translate(-59 -96.89)" fill="#d6ab0a"/>
    <path d="M194.85,192c.35,0,3.36-.07,2.63-1.13s-3.12-1.26-4.29-1.26c-.36,0-3.37.07-2.64,1.14s3.12,1.25,4.3,1.25" transform="translate(-59 -96.89)" fill="#d6ab0a"/>
    <path d="M176.82,201.87c4.66,0,2.89-5.87-.9-5.87-4.67,0-2.9,5.87.9,5.87" transform="translate(-59 -96.89)" fill="#d6ab0a"/>
    <path d="M169.15,206.21c1.38,0,1.86-.89.9-2a6.82,6.82,0,0,0-4.6-2.11c-1.37,0-1.86.89-.89,1.95a6.82,6.82,0,0,0,4.59,2.11" transform="translate(-59 -96.89)" fill="#d6ab0a"/>
    <path d="M159,210.2c1.61,0,3.71-.54,4.14-2.38.4-1.66-1.36-3-2.87-3s-3.71.55-4.15,2.38c-.39,1.66,1.36,3,2.88,3" transform="translate(-59 -96.89)" fill="#d6ab0a"/>
    <path d="M185.17,216.66c1.41,0,3.49-1.13,3.35-2.78-.16-1.81-2.38-2.14-3.78-2.14s-3.5,1.13-3.35,2.77c.16,1.82,2.37,2.15,3.78,2.15" transform="translate(-59 -96.89)" fill="#d6ab0a"/>
    <path d="M149.67,231.9c1.83,0,2.19-2.51,1.82-3.8a3.87,3.87,0,0,0-3.76-3c-1.83,0-2.19,2.51-1.82,3.79a3.9,3.9,0,0,0,3.76,3" transform="translate(-59 -96.89)" fill="#d6ab0a"/>
    <path d="M171.51,237.13c3.74,0,5.81-5.79,1.12-5.79-3.74,0-5.8,5.79-1.12,5.79" transform="translate(-59 -96.89)" fill="#d6ab0a"/>
    <path d="M187.61,231.2c1.41,0,2-.94,1.09-2.11a6.25,6.25,0,0,0-4.49-2.32c-1.41,0-2,.94-1.09,2.11a6.24,6.24,0,0,0,4.49,2.32" transform="translate(-59 -96.89)" fill="#d6ab0a"/>
    <path d="M229.89,224.52h-.48a4,4,0,0,0-2.56.81,2.88,2.88,0,0,0-1.11,2.11c-.06,1.83,1.77,3.15,3.48,3.15h.48a4,4,0,0,0,2.55-.81,2.86,2.86,0,0,0,1.12-2.11c0-1.83-1.78-3.15-3.48-3.15" transform="translate(-59 -96.89)" fill="#d6ab0a"/>
    <path d="M210.64,208c-1.29,0-2.53.45-3.82.47-1.57,0-.09,1.54.42,1.94a8,8,0,0,0,4.5,2c1.29,0,2.54-.44,3.82-.48,1.56,0,.1-1.53-.42-1.93-1.16-.92-3-2-4.5-2" transform="translate(-59 -96.89)" fill="#d6ab0a"/>
    <path d="M202.5,192.36c1.15,0,3.59-.2,3.67-1.83s-2.32-2.2-3.47-2.2-3.59.21-3.67,1.84,2.32,2.19,3.47,2.19" transform="translate(-59 -96.89)" fill="#d6ab0a"/>
    <path d="M246.5,223.64c1.55,0,3.6-.46,4.62-1.75s-.8-1.87-1.79-1.87c-1.54,0-3.6.46-4.61,1.75s.79,1.87,1.78,1.87" transform="translate(-59 -96.89)" fill="#d6ab0a"/>
    <path d="M267.13,227.94h-.48a2.72,2.72,0,0,0-2.18.95,3.22,3.22,0,0,0-.67,2.36,4,4,0,0,0,3.54,3.56h.48a2.76,2.76,0,0,0,2.18-.95,3.22,3.22,0,0,0,.67-2.37,3.92,3.92,0,0,0-3.54-3.55" transform="translate(-59 -96.89)" fill="#d6ab0a"/>
    <path d="M292.36,227h-1.43a3,3,0,0,0-2.9,3.5,3.85,3.85,0,0,0,3.68,3.42h1.44a3,3,0,0,0,2.9-3.5,3.85,3.85,0,0,0-3.69-3.42" transform="translate(-59 -96.89)" fill="#d6ab0a"/>
    <path d="M270.9,219.75a3.11,3.11,0,0,0-.44-1.68,4.7,4.7,0,0,0-2.14-1.85,5.94,5.94,0,0,0-2.53-.51,2.94,2.94,0,0,0-2.14.75,2,2,0,0,0-.48,2,4.34,4.34,0,0,0,4.09,2.84,3.31,3.31,0,0,1,.44,0l-.89-.11.21,0-.9-.3.09,0-.83-.48.08.05-.68-.58a.13.13,0,0,1,.06.07l-.49-.67,0,0c-.1-.23-.2-.47-.29-.7a.66.66,0,0,1,0,.15c0-.24-.05-.47-.08-.71v.06c0,.24,0,.47.08.71a3.3,3.3,0,0,0,.79,1.38,4.81,4.81,0,0,0,2.41,1.36,3.66,3.66,0,0,0,2.44-.22,2,2,0,0,0,1.14-1.67" transform="translate(-59 -96.89)" fill="#d6ab0a"/>
    <path d="M256.09,238.76A11.23,11.23,0,0,0,261,237.6c1.12-.58,1-1.21-.29-1.21a11.18,11.18,0,0,0-4.92,1.15c-1.13.58-1,1.22.28,1.22" transform="translate(-59 -96.89)" fill="#d6ab0a"/>
    <path d="M242.29,242.67a10.38,10.38,0,0,0,4.91-1.25c1.11-.63,1-1.31-.34-1.31a10.37,10.37,0,0,0-4.9,1.25c-1.12.62-1,1.31.33,1.31" transform="translate(-59 -96.89)" fill="#d6ab0a"/>
    <path d="M249.19,212.77c1.62,0,3.66-.73,4.4-2.31s-.84-2.46-2.18-2.46c-1.62,0-3.66.73-4.39,2.3s.83,2.47,2.17,2.47" transform="translate(-59 -96.89)" fill="#d6ab0a"/>
    <path d="M233.26,200.57a2.17,2.17,0,0,0,2.24-2.86c-.72-1.71-2.72-2.31-4.4-2.31a2.17,2.17,0,0,0-2.25,2.85c.72,1.71,2.72,2.32,4.41,2.32" transform="translate(-59 -96.89)" fill="#d6ab0a"/>
    <path d="M228.31,209.49a6.83,6.83,0,0,0,4.73-1.81c1-1,.64-2.13-.82-2.13a6.8,6.8,0,0,0-4.72,1.82c-.95.95-.64,2.12.81,2.12" transform="translate(-59 -96.89)" fill="#d6ab0a"/>
    <path d="M202.83,226.43c4.52,0,2.3-6.34-1.41-6.34-4.52,0-2.3,6.34,1.41,6.34" transform="translate(-59 -96.89)" fill="#d6ab0a"/>
    <path d="M220.31,219.44c4.18,0,2.35-6.67-1.07-6.67-4.18,0-2.36,6.67,1.07,6.67" transform="translate(-59 -96.89)" fill="#d6ab0a"/>
    <path d="M386.32,248.64,396,272.91s-1.39,5.88-6.94,7.27-99.6,13.26-99.6,13.26-11.52.42-12.48-2.92-5.24-28.73-5.24-28.73-1.91-3.28,3.81-4.45,100.54-10.71,101.79-10.95,8.59-2.59,8.95,2.25" transform="translate(-59 -96.89)" fill="#d6ab0a"/>
  </g>
  <polygon points="214.68 160.34 182.72 182.18 204.25 196.56 227.32 196.52 214.68 160.34" fill="#c49433"/>
  <g clip-path="url(#clip-path)">
    <path d="M286.39,273.66c1.28,0,1.91-1.59.33-1.59-1.28,0-1.91,1.59-.33,1.59" transform="translate(-59 -96.89)" fill="#c49433"/>
    <path d="M329.15,269.16c1.51,0,.93-2.13-.29-2.13-1.5,0-.93,2.13.29,2.13" transform="translate(-59 -96.89)" fill="#c49433"/>
    <path d="M347.11,264.78c.67,0,2.54-1,1-1-.67,0-2.54,1-1,1" transform="translate(-59 -96.89)" fill="#c49433"/>
    <path d="M375.75,263.9a1,1,0,1,0,0-2.09,1,1,0,1,0,0,2.09" transform="translate(-59 -96.89)" fill="#c49433"/>
    <path d="M322,268.7c.43,0-1.21-1.09-1.3-1.14a6.7,6.7,0,0,0-2.77-1c-.43,0,1.21,1.1,1.3,1.15a6.68,6.68,0,0,0,2.77,1" transform="translate(-59 -96.89)" fill="#c49433"/>
    <path d="M312.65,279a6,6,0,0,0,2.92-.43c.37-.24-1.59-.36-1.69-.36a6,6,0,0,0-2.92.43c-.37.24,1.6.36,1.69.36" transform="translate(-59 -96.89)" fill="#c49433"/>
    <path d="M300.25,271.32c2.89,0,1.84-4.53-.68-4.53-2.89,0-1.84,4.53.68,4.53" transform="translate(-59 -96.89)" fill="#c49433"/>
    <path d="M357,278.17c.95,0-1.15-3.92-2.46-3.92-.95,0,1.15,3.92,2.46,3.92" transform="translate(-59 -96.89)" fill="#c49433"/>
    <path d="M366.17,256.69c3.12,0,1.66-3.9-.87-3.9-3.12,0-1.66,3.9.87,3.9" transform="translate(-59 -96.89)" fill="#c49433"/>
    <path d="M337.17,258.33c.68,0,2.37-.33,2.33-1.31s-1.75-1.09-2.44-1.09-2.37.33-2.33,1.31,1.76,1.09,2.44,1.09" transform="translate(-59 -96.89)" fill="#c49433"/>
    <path d="M312.13,265.27c.76,0-1.27-3.88-2.5-3.88-.76,0,1.27,3.88,2.5,3.88" transform="translate(-59 -96.89)" fill="#c49433"/>
    <path d="M292.7,262.87a4.83,4.83,0,0,0,3.11-1c.78-.75-.62-.92-1.09-.92a4.83,4.83,0,0,0-3.11,1c-.78.75.62.92,1.09.92" transform="translate(-59 -96.89)" fill="#c49433"/>
    <path d="M279.91,265.85c1,0,2.46-.31,2.78-1.45s-1-1.69-1.9-1.69-2.45.32-2.77,1.45,1,1.69,1.89,1.69" transform="translate(-59 -96.89)" fill="#c49433"/>
    <path d="M295.94,284.81c.89,0-1.25-3.85-2.55-3.85-.89,0,1.24,3.85,2.55,3.85" transform="translate(-59 -96.89)" fill="#c49433"/>
    <path d="M287.71,287.83a3.22,3.22,0,0,0,2.94-1.52c.47-1-.53-1.68-1.44-1.68a3.21,3.21,0,0,0-2.94,1.51c-.47,1,.53,1.69,1.44,1.69" transform="translate(-59 -96.89)" fill="#c49433"/>
    <path d="M283.28,281.73c1.05,0,2.46-.38,2.75-1.56s-1-1.85-1.93-1.85-2.46.37-2.75,1.56,1,1.85,1.93,1.85" transform="translate(-59 -96.89)" fill="#c49433"/>
    <path d="M333.63,283.58c2.12,0,4.38-3.29,1.25-3.29-2.12,0-4.39,3.29-1.25,3.29" transform="translate(-59 -96.89)" fill="#c49433"/>
    <path d="M369.9,280.26c3,0,3.3-4.28.25-4.28s-3.29,4.28-.25,4.28" transform="translate(-59 -96.89)" fill="#c49433"/>
    <path d="M389.8,275.12c3.06,0,2.32-4.5-.43-4.5-3.05,0-2.32,4.5.43,4.5" transform="translate(-59 -96.89)" fill="#c49433"/>
    <path d="M389.51,269.76c1.34,0-.43-4.27-1.76-4.27s.43,4.27,1.76,4.27" transform="translate(-59 -96.89)" fill="#c49433"/>
    <path d="M366.47,263.68a5.17,5.17,0,0,0,3-1.2c.32-.25,1.36-1.4.25-1.4a5.16,5.16,0,0,0-3,1.19c-.32.25-1.35,1.41-.25,1.41" transform="translate(-59 -96.89)" fill="#c49433"/>
    <path d="M345.52,262.71a3,3,0,0,0,2.88-1.64,1.47,1.47,0,0,0-1.56-1.89,3,3,0,0,0-2.89,1.64,1.48,1.48,0,0,0,1.57,1.89" transform="translate(-59 -96.89)" fill="#c49433"/>
    <path d="M355.21,256.13c2,0,4.28-1.82,1-1.82-2,0-4.28,1.82-1,1.82" transform="translate(-59 -96.89)" fill="#c49433"/>
    <path d="M329.1,263.48c.74,0-1-4.11-2.09-4.11-.74,0,1,4.11,2.09,4.11" transform="translate(-59 -96.89)" fill="#c49433"/>
    <path d="M300.32,282.18c1.94,0,0-4.31-1.77-4.31s0,4.31,1.77,4.31" transform="translate(-59 -96.89)" fill="#c49433"/>
    <path d="M305.8,262.8c1.13,0,.19-1.24-.15-1.54a4.75,4.75,0,0,0-3-1.22c-1.12,0-.19,1.25.16,1.55a4.79,4.79,0,0,0,3,1.21" transform="translate(-59 -96.89)" fill="#c49433"/>
    <path d="M314.24,274.82c3.25,0,1.06-2-1-2-3.24,0-1.05,2,1,2" transform="translate(-59 -96.89)" fill="#c49433"/>
    <path d="M333.49,278.13c3.12,0,2.41-3.84-.38-3.84-3.12,0-2.41,3.84.38,3.84" transform="translate(-59 -96.89)" fill="#c49433"/>
    <path d="M317.59,285.34c1,0,2.45-.31,2.78-1.4s-1.08-1.6-1.89-1.6c-1,0-2.45.31-2.77,1.41s1.07,1.59,1.88,1.59" transform="translate(-59 -96.89)" fill="#c49433"/>
    <path d="M363.53,247.59A542.46,542.46,0,0,1,397.06,195c38.5-54.09,74.39-92,64.18-95.92-9.63-3.92-54.11,28-85,83.49-13.88,24.39-26,48.5-32.33,68Z" transform="translate(-59 -96.89)" fill="#abbaba"/>
    <path d="M357.87,247.59c9-16.48,21.73-33.4,36.39-54.23,37.66-54.26,72.71-92.2,62.5-96.14-9.63-3.92-53.27,28-83.36,83.71-13.84,25.06-27.77,49.85-33.9,69.69Z" transform="translate(-59 -96.89)" fill="#d4dbdb"/>
    <path d="M350.41,248.55c6.81-18.76,14.62-40.24,28.71-64.21,31-54.13,75.37-85,74.34-85.92s-46.85,28.94-77.35,84.13c-13.95,24.67-25.93,48.9-32.25,68.07Z" transform="translate(-59 -96.89)" fill="#fff"/>
  </g>
</svg>
