<svg id="Layer_1" data-name="Layer 1" xmlns="http://www.w3.org/2000/svg" xmlns:xlink="http://www.w3.org/1999/xlink" viewBox="0 0 84.91 142.62">
  <defs>
    <clipPath id="clip-path" transform="translate(-56.76 -27.9)">
      <path d="M132.23,37.92c-5.13-2.28-16.87-4.56-33.22-4.56S70.92,35.64,65.8,37.92C70.92,40.2,82.67,42.49,99,42.49s28.09-2.29,33.22-4.57" fill="none"/>
    </clipPath>
  </defs>
  <title>30-fizzypop</title>
  <g>
    <path d="M99.15,145.85c-34.89,0-42.39,6.29-42.39,6.29s4,8.06,4.11,8.19c1.63,1.87,17.11,10.2,38.23,10.2,20.74,0,36.6-7.49,38.21-10.06l4.23-8.75s-11.49-5.87-42.39-5.87" transform="translate(-56.76 -27.9)" fill="#878787"/>
    <path d="M62.75,36.33s-6,9-6,13.37V152s9.67,12.62,42.39,12.62,42.39-12.83,42.39-12.83V49.42c0-4.53-6.41-13.92-6.41-13.92l-72.38.83" transform="translate(-56.76 -27.9)" fill="#e30613"/>
    <path d="M99.15,57.43c33.5,0,41.7-8.15,42.3-9-.61-3.77-4.17-9.58-5.66-11.9l-.24-.17H62.75s-5,7.46-5.86,12.11c.65,1.17,7.52,9,42.26,9" transform="translate(-56.76 -27.9)" fill="#be1622"/>
    <path d="M137,36.24c0,4.6-16.94,8.33-37.83,8.33s-37.82-3.73-37.82-8.33S78.26,27.9,99.15,27.9,137,31.64,137,36.24" transform="translate(-56.76 -27.9)" fill="#ededed"/>
    <path d="M132.23,37.92a7.63,7.63,0,0,0,2.48-1.56c-2.39-2.65-15.55-6.13-35.7-6.13s-33.31,3.48-35.7,6.13a7.69,7.69,0,0,0,2.49,1.56c5.12-2.28,16.87-4.56,33.21-4.56s28.09,2.28,33.22,4.56" transform="translate(-56.76 -27.9)" fill="#878787"/>
    <path d="M132.23,37.92c-5.13-2.28-16.87-4.56-33.22-4.56S70.92,35.64,65.8,37.92C70.92,40.2,82.67,42.49,99,42.49s28.09-2.29,33.22-4.57" transform="translate(-56.76 -27.9)" fill="#b3b3b3"/>
    <path d="M62.66,136.58c0,2.45-.8,4.43-1.79,4.43s-1.8-2-1.8-4.43.8-4.43,1.8-4.43,1.79,2,1.79,4.43" transform="translate(-56.76 -27.9)" fill="#e96141"/>
    <path d="M109.25,96.79c-5,12.2-17.25,7.26-26.29,3.8-10-4.09-19.57-5.13-26.2,4.17v14.12c8.52-8.61,18.95-3.67,26.81-2.15,21.75,4.21,25.68-19.94,25.68-19.94" transform="translate(-56.76 -27.9)" fill="#fff"/>
    <path d="M141.54,79.18c-5,3.73-12.57,2.41-18.6,3.65-5.64,1.1-10.85,6.26-12.81,12.18,3.31-4.12,7.6-5.48,12.3-5.5,4.94,0,14.19,1.79,19.24-2.64,0-3.15-.13-3.86-.13-7.69" transform="translate(-56.76 -27.9)" fill="#fff"/>
    <path d="M104.67,92.74a6.86,6.86,0,1,1-6-7.6,6.85,6.85,0,0,1,6,7.6" transform="translate(-56.76 -27.9)" fill="#fff"/>
    <path d="M89.17,130.51a6.85,6.85,0,1,1-6-7.59,6.84,6.84,0,0,1,6,7.59" transform="translate(-56.76 -27.9)" fill="#fff"/>
    <path d="M87.08,86.17a4.75,4.75,0,1,1-4.17-5.26,4.74,4.74,0,0,1,4.17,5.26" transform="translate(-56.76 -27.9)" fill="#fff"/>
    <path d="M103.87,134.49a4.75,4.75,0,1,1-4.17-5.26,4.75,4.75,0,0,1,4.17,5.26" transform="translate(-56.76 -27.9)" fill="#fff"/>
    <path d="M72.63,89a2.64,2.64,0,1,1-2.31-2.92A2.63,2.63,0,0,1,72.63,89" transform="translate(-56.76 -27.9)" fill="#fff"/>
    <path d="M114.51,129.5a2.64,2.64,0,1,1-2.32-2.92,2.63,2.63,0,0,1,2.32,2.92" transform="translate(-56.76 -27.9)" fill="#fff"/>
    <path d="M141.67,91c-2.6,7.16-15.16-1.52-24.51,6.11C112.49,101,111,108.07,107.67,113c-7.17,10.53-15.61,10.11-15.82,10.11,4.12,2.22,11.39.85,14.55-.63,5.91-2.74,8.32-8.31,12.66-12.65,10.2-10.2,15.32.78,22.61-2V91" transform="translate(-56.76 -27.9)" fill="#fff"/>
    <g clip-path="url(#clip-path)">
      <path d="M113.67,45.77c-6.39,0-17.89-2.17-17.89-4.85s11.5-4.85,17.89-4.85,11.55,2.17,11.55,4.85S120.05,45.77,113.67,45.77Z" transform="translate(-56.76 -27.9)" fill="none" stroke="#878787" stroke-miterlimit="10"/>
      <path d="M85.75,36.58c5.76,0,16.16,2,16.16,4.38s-10.4,4.38-16.16,4.38S75.3,43.38,75.3,41,80,36.58,85.75,36.58" transform="translate(-56.76 -27.9)" fill="#878787"/>
      <path d="M85.13,38.15c3.71,0,6.74,1.37,7.06,3.12a1.65,1.65,0,0,0,0-.31c0-1.89-3.18-3.42-7.1-3.42S78,39.07,78,41a1.63,1.63,0,0,0,0,.31c.32-1.75,3.36-3.12,7.06-3.12" transform="translate(-56.76 -27.9)" fill="gray"/>
      <path d="M85.13,44.38c3.71,0,6.74-1.37,7.06-3.11-.32-1.75-3.35-3.12-7.06-3.12s-6.74,1.37-7.06,3.12c.32,1.74,3.36,3.11,7.06,3.11" transform="translate(-56.76 -27.9)" fill="#b3b3b3"/>
      <path d="M116.26,37.54c2.8,0,5.07,1.53,5.07,3.42s-2.27,3.42-5.07,3.42-5.08-1.53-5.08-3.42S113.45,37.54,116.26,37.54Z" transform="translate(-56.76 -27.9)" fill="none" stroke="#878787" stroke-miterlimit="10"/>
      <path d="M98.58,40.35c.81,0,1.46.27,1.46.61s-.65.61-1.46.61-1.46-.27-1.46-.61.65-.61,1.46-.61" transform="translate(-56.76 -27.9)" fill="#c6c6c6"/>
    </g>
    <path d="M129.59,74.1a3.82,3.82,0,0,1-5.35.67c-3-2.39.13-9.64.13-9.64s-5.92,9.73-.36,12.47a4.07,4.07,0,0,0,6.07-3.07,6.88,6.88,0,0,0,0-1.67,3.62,3.62,0,0,1-.51,1.24" transform="translate(-56.76 -27.9)" fill="#be1622"/>
    <path d="M127.35,69.94a5.68,5.68,0,0,1,.73.24c-.35-.39-.64-.7-.5-1,.31-.58,2,.83,2.22,2.27,0,.13,0,.26,0,.39a4.36,4.36,0,0,1,.26,1c.28-1.4-.16-3.34-2.79-5a10,10,0,0,1-2.94-2.77,3.69,3.69,0,0,0,3,4.81" transform="translate(-56.76 -27.9)" fill="#ed694b"/>
    <path d="M124.24,74.77a3.82,3.82,0,0,0,5.35-.67,3.62,3.62,0,0,0,.51-1.24,4.36,4.36,0,0,0-.26-1c0,1.59-1.17,2.72-1.74,2.23s.9-1,.85-2.26a2.83,2.83,0,0,0-.87-1.68,5.68,5.68,0,0,0-.73-.24,3.69,3.69,0,0,1-3-4.81s-3.09,7.25-.13,9.64" transform="translate(-56.76 -27.9)" fill="#e8412c"/>
    <path d="M129.8,71.5c-.21-1.44-1.91-2.85-2.22-2.27-.14.25.15.56.5,1a3.2,3.2,0,0,1,1.76,1.71c0-.13,0-.26,0-.39" transform="translate(-56.76 -27.9)" fill="#f3997b"/>
    <path d="M128.08,70.18a2.83,2.83,0,0,1,.87,1.68c.05,1.29-1.47,1.73-.85,2.26s1.77-.64,1.74-2.23a3.2,3.2,0,0,0-1.76-1.71" transform="translate(-56.76 -27.9)" fill="#ed694b"/>
    <path d="M127.83,74.29c.11.24-.07.56-.4.72s-.71.09-.82-.15.07-.56.41-.72a.59.59,0,0,1,.81.15" transform="translate(-56.76 -27.9)" fill="#ed694b"/>
    <path d="M123.38,146.61a3.51,3.51,0,0,1-4.68,1.63c-3.13-1.58-1.73-8.69-1.73-8.69s-3.47,9.88,2.06,11.28a3.74,3.74,0,0,0,4.87-3.92,6.5,6.5,0,0,0-.31-1.51,3.09,3.09,0,0,1-.21,1.21" transform="translate(-56.76 -27.9)" fill="#be1622"/>
    <path d="M120.57,143.31a3.13,3.13,0,0,1,.7.08c-.39-.29-.71-.52-.64-.77.17-.58,2,.37,2.44,1.62a1.46,1.46,0,0,1,.1.34,3.54,3.54,0,0,1,.42.82c0-1.31-.77-3-3.45-3.93a9.06,9.06,0,0,1-3.17-1.92,3.4,3.4,0,0,0,3.6,3.76" transform="translate(-56.76 -27.9)" fill="#ed694b"/>
    <path d="M118.7,148.24a3.51,3.51,0,0,0,4.68-1.63,3.09,3.09,0,0,0,.21-1.21,3.54,3.54,0,0,0-.42-.82c.34,1.42-.53,2.67-1.13,2.34s.62-1,.34-2.2a2.57,2.57,0,0,0-1.11-1.33,3.13,3.13,0,0,0-.7-.08,3.4,3.4,0,0,1-3.6-3.76s-1.4,7.11,1.73,8.69" transform="translate(-56.76 -27.9)" fill="#e8412c"/>
    <path d="M123.07,144.24c-.46-1.25-2.27-2.2-2.44-1.62-.07.25.25.48.64.77a2.86,2.86,0,0,1,1.9,1.19,1.46,1.46,0,0,0-.1-.34" transform="translate(-56.76 -27.9)" fill="#f3997b"/>
    <path d="M121.27,143.39a2.57,2.57,0,0,1,1.11,1.33c.28,1.15-1,1.84-.34,2.2s1.47-.92,1.13-2.34a2.86,2.86,0,0,0-1.9-1.19" transform="translate(-56.76 -27.9)" fill="#ed694b"/>
    <path d="M121.83,147.12c.15.19,0,.52-.23.72a.54.54,0,0,1-.76,0c-.14-.19,0-.51.23-.72s.62-.21.76,0" transform="translate(-56.76 -27.9)" fill="#ed694b"/>
    <path d="M75.59,109.92a3.75,3.75,0,0,1-5.18-1,3.54,3.54,0,0,1-.4-1.25,3.8,3.8,0,0,1,.75-2.77,3.92,3.92,0,0,0-2.54,3.51,4.38,4.38,0,0,0,5,4.43c2.29-.22,3.21-2.26,3.51-4.35a3.18,3.18,0,0,1-1.1,1.45" transform="translate(-56.76 -27.9)" fill="#b2b2b2"/>
    <path d="M76.12,100.5a9.74,9.74,0,0,1-3.06,2.5,6.47,6.47,0,0,0-2.3,1.88,2.85,2.85,0,0,1,.44-.09h.14c.58-.56,1.22-.83,1.37-.5.06.14,0,.28-.12.44A3.58,3.58,0,0,0,76,101a20.86,20.86,0,0,1,.71,7.52c1.18-2.92-.57-8-.57-8" transform="translate(-56.76 -27.9)" fill="#ededed"/>
    <path d="M76,101a3.58,3.58,0,0,1-3.39,3.77,4.29,4.29,0,0,1-.43.46,2.78,2.78,0,0,0-1,1.57c-.13,1.26,1.32,1.79.68,2.27s-1.68-.75-1.54-2.29c0-.13,0-.25,0-.38a3.25,3.25,0,0,1,1-1.57H71.2a2.85,2.85,0,0,0-.44.09,3.8,3.8,0,0,0-.75,2.77,3.54,3.54,0,0,0,.4,1.25,3.75,3.75,0,0,0,5.18,1,3.18,3.18,0,0,0,1.1-1.45A20.86,20.86,0,0,0,76,101" transform="translate(-56.76 -27.9)" fill="#c6c6c6"/>
    <path d="M72.59,104.72c.12-.16.18-.3.12-.44-.15-.33-.79-.06-1.37.5a3.91,3.91,0,0,1,.61,0,4.42,4.42,0,0,0,.64,0" transform="translate(-56.76 -27.9)" fill="#fffef7"/>
    <path d="M70.38,106.35c0,.13,0,.25,0,.38-.14,1.54,1,2.73,1.54,2.29s-.81-1-.68-2.27a2.78,2.78,0,0,1,1-1.57,4.29,4.29,0,0,0,.43-.46,4.42,4.42,0,0,1-.64,0,3.91,3.91,0,0,0-.61,0,3.25,3.25,0,0,0-1,1.57" transform="translate(-56.76 -27.9)" fill="#ededed"/>
    <path d="M73.25,109.76a.54.54,0,0,1-.74.2c-.32-.12-.51-.41-.42-.65a.57.57,0,0,1,.75-.2c.32.12.51.41.41.65" transform="translate(-56.76 -27.9)" fill="#ed694b"/>
    <path d="M72.12,109.22c-.12.23,0,.55.35.73s.68.13.8-.09,0-.55-.35-.73a.58.58,0,0,0-.8.09" transform="translate(-56.76 -27.9)" fill="#ededed"/>
    <path d="M123.82,59.35a10.63,10.63,0,0,1,.34-2.93c-.43.11-.78,1.7-.78,3.64s.37,3.65.82,3.65c.19,0,.35-.27.49-.72h0c-.45,0-.82-1.64-.82-3.65" transform="translate(-56.76 -27.9)" fill="#be1622"/>
    <path d="M125.46,59.35c0-2-.36-3.65-.82-3.65-.18,0-.35.27-.48.72h0c.45,0,.82,1.63.82,3.65a11.09,11.09,0,0,1-.33,2.93c.43-.11.77-1.7.77-3.64" transform="translate(-56.76 -27.9)" fill="#ed694b"/>
    <path d="M124.2,56.41h0a10.63,10.63,0,0,0-.34,2.93c0,2,.37,3.65.82,3.65h0a11.09,11.09,0,0,0,.33-2.93c0-2-.37-3.65-.82-3.65" transform="translate(-56.76 -27.9)" fill="#e8412c"/>
    <path d="M125,56.49c.1.31.09.59,0,.63s-.26-.21-.36-.52-.09-.6,0-.63.26.2.35.52" transform="translate(-56.76 -27.9)" fill="#f3997b"/>
    <path d="M116.57,132.36a21.13,21.13,0,0,1,.31-4c-.4.15-.71,2.3-.71,4.94s.34,5,.75,5c.17,0,.32-.37.45-1l-.05,0c-.41,0-.75-2.22-.75-5" transform="translate(-56.76 -27.9)" fill="#be1622"/>
    <path d="M118.08,132.36c0-2.73-.34-5-.76-5-.16,0-.32.36-.44,1l0,0c.42,0,.75,2.22.75,5a22.17,22.17,0,0,1-.3,4c.39-.14.71-2.3.71-4.94" transform="translate(-56.76 -27.9)" fill="#ed694b"/>
    <path d="M116.92,128.37l0,0a21.13,21.13,0,0,0-.31,4c0,2.74.34,5,.75,5l.05,0a22.17,22.17,0,0,0,.3-4c0-2.74-.33-5-.75-5" transform="translate(-56.76 -27.9)" fill="#e8412c"/>
    <path d="M117.65,128.48c.08.43.08.81,0,.85s-.24-.27-.33-.7-.09-.81,0-.85.24.27.33.7" transform="translate(-56.76 -27.9)" fill="#f3997b"/>
    <path d="M59.28,101.87a15.41,15.41,0,0,1,4-2.79c0-16.46-.31-34.55.33-46.3a24.71,24.71,0,0,1-4-1.94c0,12.69-.2,33.12-.37,51" transform="translate(-56.76 -27.9)" fill="#e96141"/>
    <path d="M59.08,121c-.06,4.91,0,8.22,2.25,8.22,2.48,0,1.62-3.33,1.77-8.22.07-2,.11-4,.14-6.19a15.3,15.3,0,0,0-4.12,2.1c0,1.41,0,2.78,0,4.09" transform="translate(-56.76 -27.9)" fill="#e96141"/>
    <path d="M133.79,106.87c-.43,11.32.27,27.44.27,32.55,0,11.88-10.22,14.13-22.88,15.82s-30.36-1.13-30.36,1.36,15.74,4.54,30.36,3.41,27.28-7.89,27.2-13.5c0-1.31,1.14-23.46.49-38.25a15.8,15.8,0,0,1-5.08-1.39" transform="translate(-56.76 -27.9)" fill="#be1622"/>
    <path d="M59.12,116.89a15.3,15.3,0,0,1,4.12-2.1c.07-4.85.08-10.18.06-15.71a15.41,15.41,0,0,0-4,2.79c-.05,5.32-.11,10.42-.16,15" transform="translate(-56.76 -27.9)" fill="#fcd9ca"/>
    <path d="M136.11,95.11c-1.42,0-2.07,5-2.32,11.76a15.8,15.8,0,0,0,5.08,1.39c-.32-7.53-1.11-13.15-2.76-13.15" transform="translate(-56.76 -27.9)" fill="#c6c6c6"/>
    <path d="M65.79,43.37c-2-1.47-6.13,4.93-6.14,7.32v.15a24.71,24.71,0,0,0,4,1.94h0c.13-2.41,3.95-8.1,2.16-9.41" transform="translate(-56.76 -27.9)" fill="#e30613"/>
  </g>
</svg>
