<svg id="Layer_1" data-name="Layer 1" xmlns="http://www.w3.org/2000/svg" viewBox="0 0 175.6 175.11">
  <title>crisps</title>
  <g>
    <path d="M77.62,186.36c.38.28,1.12.33,1.34-.21.44-1.1,1.58-.56,2.89,0s3,1.18,4.11-.29,1.47-5.15,3.68-3.78c1.3.8,2,.63,3.52,0,2.21-.95,2-4.42,5.09-3.42.85.27,3.44,1.49,4.47.87,1.28-.76,2.29-4.87,4-4.15l.49.2a3.34,3.34,0,0,0,3.62,1.33c1.47-.58,1.86-1.31,2.92-2.54,1.5-1.74,2.08-.08,3.29.5,2.23,1.08,3.11-.76,4.86-2,4.61-3.41,4.31.68,7.75.75,2,0,3.23-1.19,4.22-2.82,1.38-2.27,3.28-1.67,5.17-1.07,1.41.44,2.81.88,4,.16,2.64-1.58,1.22-5.82,6.41-4.73,1.64.35,3,.3,3.67-1.5.36-1-.23-4.6,2.11-4a14.11,14.11,0,0,0,3,.68c1.49.06,2.82-.45,3.11-2.13s-.17-4.29,1.61-5.13,3.62-.25,5.39-.82c1.61-.52,2.75-1.15,2.56-3.08-.28-2.84,1.67-4.63,4.36-5.19.64-.14,1.76-.28,2.22-.87,1.73-2.23.85-9.24,4-9.6a2.87,2.87,0,0,0,2.8-3.17,7.17,7.17,0,0,0-.47-2.47c-.79-2.23,1.81-2.28,2.91-3a.64.64,0,0,0,.29-.66c-.23-2.06-3-3.8-5.39-4.82-1.34-1.27-2.89-2.17-4.25-3.46-1.79-1.71-3.47-3.56-5.32-5.19-4-3.55-8.63-6.16-13.05-9.17-2.34-1.6-5-3.59-5.22-6.65-.08-1.38,0-3-1-4.12a30,30,0,0,0-5.17-4.15c-3.14-2.25-3.86-4.52-4.33-8.14-1.49-11.41-2.55-23-4.9-34.29a78.23,78.23,0,0,0-4.49-15.46l-1.2-2.74h0c0-2.24-1.21-3.37-2.44-5l-.08-.17c-.13-.23-.27-.46-.41-.68l-.18-.42a.21.21,0,0,0,.12-.24,13.61,13.61,0,0,0-1.36-4.57,1.14,1.14,0,0,0-.51-.42c-.88-.63-3.83-.28-4-.25-2.37.39-5.18,1.31-7.21-.3A14,14,0,0,0,113.86,12c-1.83-.8-2.74.11-4.31,1-.64.34-3.9,2.62-4.6,2a4.69,4.69,0,0,0-1.78-1.32c-2.08-.5-2.45,1-3.71,2.46-1.55,1.84-2.26,2.79-4.7,1.27a7.19,7.19,0,0,0-2.91-1.12C90,15.82,89.18,19,88.32,19.8c-.6.58-1.84-.24-3.12-1.06-1.12-.72-2.28-1.43-3.07-1.21C80.42,18,79.81,20.6,79,21.94c-.66,1.11-2,.66-3.46.22-1.86-.58-3.78-1.16-4.23,1.71s-2,2-3.65,1.24a5.44,5.44,0,0,0-2.45-.68c-1.88.13-1.79.95-2.76,2.48-1.73,2.71-2.6,1.95-3.65,1.19a2.49,2.49,0,0,0-2.28-.62c-1.65.47-1.81,2.43-1.9,3.89a4,4,0,0,1-2.26-.32,4,4,0,0,0-3.57.07c-1.09.66-1.38,2.5-2.28,3.45s-2.53.35-4-.3a7.41,7.41,0,0,0-2.64-.82,3,3,0,0,0-2.12,1.44c-1.47,2.36-2.39,2.66-4.81,1.48-1.46-.71-4.3-1.85-5,.58-.75,2.79-2.07,4.93-5.49,4.66-.81-.06-2.47-.35-3,.53s-.14,1.57.3,2.49c1,2-3.79,1.29-4.86,1.64-2.59.84-1,3-3,4.63-1.81,1.42,1.5,3.74,2.19,4.47l.16.12c1.46,1.48,4.42,4.22,5.29,6.11l-.26-.08c.17.41.33.81.49,1.22-.25,1.35.25,2,1.12,3.05h0c1.3,3.79,2.39,7.69,3.71,11.43,2.16,6.14,4.76,12.1,7.18,18.15,2.27,5.68,5.05,11.23,7.61,16.79A44.41,44.41,0,0,0,48,125c1.83,1.81,4.74,3.43,5.87,5.77A61.46,61.46,0,0,1,56.81,139a66.48,66.48,0,0,0,7,15.27C67,159.4,68.26,165,70.68,170.43a56.75,56.75,0,0,1,3.49,8.82,4.32,4.32,0,0,0,1.27,2.09c.23,2,.69,3.93,2.18,5" transform="translate(-11.42 -11.66)" fill="#010101"/>
    <path d="M125.85,15.09a19.92,19.92,0,0,0-2.17,2.58c-1.08,1.3-2.56,1.06-4,.82a8.16,8.16,0,0,0-2.29-.14c-1.35.19-1.76,1.36-2.13,2.47-.71,2.14-2.67,3.43-4.75,2.47a3.06,3.06,0,0,0-1.68-.47.49.49,0,0,0-.57.25c-.7,1.65-.8,4.9-4.11,4a5.53,5.53,0,0,0-2.38-.25.48.48,0,0,0-.48.54c.21,2.81-2.63,3.1-4.79,2.35l-.94-.32a2.18,2.18,0,0,0-1.36.36c-1,.59-1.43,2.08-2.15,2.91-1.59,1.84-5.1.31-7,.09a5.13,5.13,0,0,0-4.89,1.87c-.22.27-1,3.18-2.14,2.31a1.7,1.7,0,0,0-1-.45c-2.44.2-2.42,4.78-5.37,3.38-1.21-.57-3.26-1.38-4.57-.59s-1.79,5.77-3.49,4.41a5.43,5.43,0,0,0-4.77-1.23c-1,.3-1,1.93-1.37,2.7-.22.48-2.1-.73-2.43-.87-1.37-.61-2.41.33-3.18,1.41S49.94,47.93,49,49a.39.39,0,0,0-.07.35l-.53-.45c-.77-.63-2.63-2.09-3.83-1.61-2.63,1.07-1.83,6-5.22,2.83-.56-.52-2.3-2.19-3.31-1.82-.82.31-.75.23-1.27,1-1.07,1.57-2.5-1.34-2.9-1.87A4.39,4.39,0,0,0,28,45.66a.72.72,0,0,0-.71.59c-.24,1.2.47,5.41-3.29,3.11a9.23,9.23,0,0,0-1.67-.74,4,4,0,0,0-2.75-.22,2,2,0,0,0-1.23,2.29c.16,2.13-.38.89-1.89.83a4.29,4.29,0,0,0-2.28.62.84.84,0,0,1,.4-.72c1.05-.8,1.05-.68,1-2,0-2,1.37-2,3-2a6.69,6.69,0,0,0,2.75-.36c2.19-1-2.22-4.38,2.4-3.52,2.64.5,4.58-.06,5.72-2.59a13,13,0,0,0,.4-2.24c.53-2.18,2.29-.68,3.17-.32s1.92,1.1,2.83,1a2.27,2.27,0,0,0,2.11-1,6.55,6.55,0,0,0,.88-2,4.65,4.65,0,0,1,5.28-.62c2.13.82,3.18-.05,4.64-1.59s2.66-1.26,4-1a5.64,5.64,0,0,0,2.73.09.6.6,0,0,0,.43-.5v0a.76.76,0,0,0,.47-.4c.77-1.63.6-3.17,3.05-2.27.27.1.89.44,1.26.29,1.94-.78,2.5-1.93,3.41-3.83.68-1.42,2.18-.6,3.79.22,1.81.92,3.76,1.84,4.84-.43.6-1.27.64-3.45,2.65-2.91a15.66,15.66,0,0,0,1.53.64c1.09.19,2.19.46,3-.47s1.78-5.47,4.07-4.15c1.56.9,2.74,1.92,4.54,2,.41,0,.91-.57,1.08-.79,1.49-1.83,1.47-4.41,5.58-1.74.91.59,1.61,1.11,2.74.8s4-5.52,5.22-4.37A3.75,3.75,0,0,0,106,16.81c1.41.09,3.57-2,4.6-2.69,3.32-2.32,4.54,1.25,7,2.34,1.78.78,3.73-.08,5.48-.5.21-.05,1.64-.62,2.78-.87" transform="translate(-11.42 -11.66)" fill="#fff"/>
    <path d="M177,124.56a36.28,36.28,0,0,1-5.27,7.61c-4.22,4.46-8.15,9.37-12.9,13.3-5.84,4.84-11.66,9.42-18.85,12.06-5.55,2.05-10.83,5.4-16.7,6.47-11.42,2.1-24,1.29-33.89,8.1a81.34,81.34,0,0,1-8.86,5.64c-1.14.58-2.26,1.82-2.83.08A20.2,20.2,0,0,0,76.48,175c-2.53-5.32-4-11.08-6.37-16.48C67.31,152.13,63,147,60.77,140.3c-1.51-4.46-2.63-9.05-5.51-12.85-1.7-2.23-4.59-3.65-6.41-5.9a48.53,48.53,0,0,1-6-8.72c-2.74-5.5-5.74-11-8-16.74-2.63-6.51-5.39-13-7.82-19.54C25.27,71.9,24,67,22.22,62.38l-.09,0a3.48,3.48,0,0,0-1.73-2.79,28.29,28.29,0,0,1-4.52-4.13.66.66,0,0,0,0-.83,2.22,2.22,0,0,0-.19-.27c.2-1.51.9-1.75,2.11-.69a2.25,2.25,0,0,0,.94.36,1.12,1.12,0,0,0,1.2-.18,2.8,2.8,0,0,0,.65-2.51c-.11-1.5,5.27,1.28,6,1.37a1.12,1.12,0,0,0,1.05-.3,6.14,6.14,0,0,0,1.2-3.62c-.48-3.33,2.83,2.17,3.93,2.84a1.76,1.76,0,0,0,2-.23c1-1,1.46-2.7,3.37-.53.69.78,1.35,1.57,2.06,2.33a1.35,1.35,0,0,0,1.3.41c2-.52,2.85-6.32,5.19-4.28.62.53,1.46,2,2.56,2s1.94-1.27,2.61-2.12c.51-.63,1.8-4.34,3-3.26a9.54,9.54,0,0,0,2,1.66,1.32,1.32,0,0,0,1.67,0c2.43-2.09.33-4.37,4.66-2.23,1.25.61,1.88.55,2.81-.46a6.43,6.43,0,0,0,.83-2.18c.66-2.64,3.21-2.14,5.1-1.41A2.46,2.46,0,0,0,74.36,41c.91-1,1.26-2.14,2.1-3.13,0,0,2,.52,2.46.59,1,.17,1.31-1.38,1.62-2C82.36,33,84.62,33.76,87,34.52a7.28,7.28,0,0,0,4.17.49c1.33-.38,4-4.87,4.92-4.37,1.22.65,3,1.71,4.43.86,1.86-1.11.84-3.82,3.48-3,1.89.56,3.27.71,4.46-1.05a5.32,5.32,0,0,0,.48-2.33c.2-1.95,2.65-.18,3.26.07,1.53.64,2.64-.56,3.38-1.69s.56-4.95,3.46-3.66a10.85,10.85,0,0,0,2,.79,3.55,3.55,0,0,0,4.31-1.66s2.23-2.43,2-3c.1.23.22.45.33.68.06,1.24,0,3.08.09,3.45.58,1.87,2.18,3,3.3,4.56A87.25,87.25,0,0,1,134.26,35c2,8.29,2.42,16.8,4.08,25.11.92,4.62,1.19,9.26,1.87,13.91.46,3.21.25,7.42,2,10.28,1.58,2.56,3.89,3.41,6.16,5.24S151,93.36,151.6,96a4.69,4.69,0,0,0,.88,2.26c3.73,4,8,5.51,12.42,8.5a43.64,43.64,0,0,1,8.37,6.83,32.32,32.32,0,0,0,4.93,5c1.67,1.16-.35,4.31-1.25,6" transform="translate(-11.42 -11.66)" fill="#ffcd0f"/>
    <path d="M139.2,98.74c0,18-15.4,32.65-34.41,32.65S70.38,116.77,70.38,98.74s15.41-32.65,34.41-32.65S139.2,80.71,139.2,98.74" transform="translate(-11.42 -11.66)" fill="#fff"/>
    <path d="M124.19,88.83a8.68,8.68,0,0,1-1.48-6c.1-1-1.06-1.9-1.75-2.42-1.65-1.23-1.24-3.82-3.26-4.65-1.29-.52-3.22-.72-3.64-2.42a2.07,2.07,0,0,0-.67-1c-.87-.71-2.28-.39-3.24-.17a12.64,12.64,0,0,1-3,.07c-2.55-.11-5.55-.22-6.5,2-.67,1.54-3.55,1.67-4.94,2.52-1,.65-1.21,1.58-1.47,2.65-.51,2.11-2.76,1.52-4.11,2.58s-.78,2.88-2,4.2c-1.56,1.69-2.12,4.25-3.69,6.07-.38.12-.73.65-.46,1,1.06,1.29,1.5,4.22.43,5.37a2.12,2.12,0,0,0-.43,2.12c.49,1.74-.46,3-.13,4.66.17.85,1.72,1.27,2.34,1.52,1.27.51.86,3.08,1.52,4.12.48.74.45,2.33,1,2.85,1.26,1.08,2.25,1.28,2.81,3.25a3.72,3.72,0,0,0,.85,1.88,3.94,3.94,0,0,0,3.34.72c1.13-.13,2.2-.26,3.2.93s2.38.81,3.73.44a6.81,6.81,0,0,1,2.1-.36c1.06.07,5.72-.33,6.58-1.39s1.65-1.32,3.06-1.89a3.53,3.53,0,0,0,.93-.67h0a.47.47,0,0,0,.31-.3c.71-.67,1.45-1.49,1.75-1.79,1.44-1.48,1.19-4.08,2.49-5.29a5.93,5.93,0,0,0,1.68-3.46c.88-4.39,2.56-7.89,2.57-12.34,0-1.6.86-3.23,0-4.78" transform="translate(-11.42 -11.66)" fill="#010101"/>
    <path d="M120.51,100.75c-.76,2.69.26,5.48-2.17,7.69-1.92,1.74-.47,3.69-3.17,5.71-.9.67-2.31,1.18-3.38,1.9a51.7,51.7,0,0,1-10.45-2.18c-3.35-1-8.31-1.48-11.07-3.76-.09-.07-.21.09-.13.16,2.62,2.5,7.45,3.28,10.79,4.42a39.79,39.79,0,0,0,9.76,2.44,1.7,1.7,0,0,0-.15.22c-.69,1.4-4.86,2-6.08,1.56a3.18,3.18,0,0,0-2,.3c-2.64.9-2.49-.45-3.57-1.32a1.52,1.52,0,0,0-1.36-.18c-2.88,1.16-4.29-.72-5.44-3.12-.67-1.39-2.26-1-2.39-3s-1.67.43-1.07-3.89c.38-2.64-3.45-1.28-3-5,.08-.64.2-1.29.31-2,5.21,1.3,10.49,2.31,15.67,3.77,5.53,1.57,11.3,3.12,17.06,3.41.28,0,.43-.43.11-.5-6.14-1.25-12.23-2.45-18.3-4-4.82-1.26-9.66-1.89-14.5-2.87a18,18,0,0,0,.4-4.47c5.16,1.14,10.3,2.33,15.46,3.48,4.28,1,8.55,2.52,12.9,3.4l1.29,0a28,28,0,0,0,3-.12l0,0c-5.67-1.21-11.19-3.11-16.88-4.21-5.29-1-10.53-1.9-15.84-2.71a5.85,5.85,0,0,0-1-2.8,11.42,11.42,0,0,1,1.93-2,3.47,3.47,0,0,0,.82-1.4c4.18.11,8.73,1.64,12.81,2.38a59.76,59.76,0,0,1,11.51,3.45c1.21.32,2.43.65,3.65.94a49.7,49.7,0,0,0-13.53-4.78C98,90.7,92.9,89.1,88.21,89.34a6.81,6.81,0,0,1,1.32-3.19,4,4,0,0,0,.9-1.69l0,0c5.37.32,10.56,1.69,15.79,2.84,2.72.6,5.36,1.52,8,2.26,1.44.05,2.89.09,4.33.16-9.27-2.21-18.54-5.21-28.13-5.35l0,0a1.59,1.59,0,0,0,0-.37c-.16-1.32,2.51-2,3.89-2.74,6.51.52,12.84,2.22,19.25,3.44a12.75,12.75,0,0,0-1.37-.64c-1.18-.42-2.35-.84-3.52-1.28a70.34,70.34,0,0,0-14.06-1.69A2.6,2.6,0,0,0,95,81c1.23-1.2-.57-2.15,1.84-3.62,1.24-.76,2.65-.44,3.86-1.16,1.82-1.09-.79-1.57,3.28-2.7a7.81,7.81,0,0,1,3,0,8,8,0,0,0,3.22-.08c3.25-.95,2.32,1.93,4,2.54a7.25,7.25,0,0,1,4.35,3.81c1,1.62,3.31,2.63,2.57,5-.47,1.53-.12,2.1.71,3.43,2.27,3.65-.27,8.85-1.33,12.57" transform="translate(-11.42 -11.66)" fill="#ffde79"/>
    <path d="M100.68,76.15h0m0,0h0m0,0h0m0,0h0m0,0h0m0,0h0m-6,5h0m0,0h0m.22,0h0m.09,0h0m9.12.84A63.63,63.63,0,0,0,95,81.17a63.34,63.34,0,0,1,9.1.83h0" transform="translate(-11.42 -11.66)" fill="#010101"/>
    <path d="M114.48,80.18c-.92-.26-1.85-.5-2.78-.73l.74-.71c.81.32,1.61.67,2.41,1l-.37.4M104.12,82a63.34,63.34,0,0,0-9.1-.83h-.37A2.6,2.6,0,0,0,95,81a1.51,1.51,0,0,0,.49-1.19c0-.16,0-.32,0-.49,0-.58.13-1.2,1.36-1.94s2.65-.44,3.86-1.16h0c1.55-1-.24-1.43,2.06-2.3a.92.92,0,0,0,.17,1.31c1.35,1.45,3.86,1.78,5.8,2.29l-1,1.17a44,44,0,0,0-7.6-.7c-.92,0-1.84,0-2.76.11v.12h.18a40.37,40.37,0,0,1,4.82.3,13.19,13.19,0,0,0-2.47.33.44.44,0,0,0-.19.73A16.67,16.67,0,0,0,104.12,82" transform="translate(-11.42 -11.66)" fill="#d18225"/>
    <path d="M116.23,106.84c-2.25-.46-4.5-.92-6.73-1.4l.33-.67c2,.88,4.28,1.33,6.4,2.07" transform="translate(-11.42 -11.66)" fill="#d18225"/>
    <path d="M111.37,102.06h0l-.11,0h0l.11,0" transform="translate(-11.42 -11.66)" fill="#010101"/>
    <path d="M111.37,102.06h-.13l0,0,.11,0" transform="translate(-11.42 -11.66)" fill="#d18225"/>
    <path d="M89.79,101.18c-1.25-.23-2.5-.46-3.75-.71a21.43,21.43,0,0,0,.43-3.71c0-.26,0-.51,0-.76l6.75,1.52q-1.65,1.86-3.4,3.66m3.33.59-1.53-.28Q93.45,99.8,95.22,98l1.8.41a1.14,1.14,0,0,1-.11.11c-1.23,1.12-2.51,2.21-3.79,3.28" transform="translate(-11.42 -11.66)" fill="#d18225"/>
    <path d="M117.81,102.38c-2-.46-4-1-5.91-1.52l.65-1.16a39.43,39.43,0,0,1,5.26,2.68" transform="translate(-11.42 -11.66)" fill="#d18225"/>
    <path d="M101.85,93.72c-.8-.14-1.6-.27-2.41-.39l1.25-1.45.27.05c.74.13,1.47.29,2.19.45l-1.3,1.34M93.7,96.93c-2.42-.41-4.84-.8-7.28-1.17a5.85,5.85,0,0,0-1-2.8,11.42,11.42,0,0,1,1.93-2,3.47,3.47,0,0,0,.82-1.4c3.25.08,6.73,1,10,1.8-.41.55-.82,1.09-1.24,1.63l-1.61-.19h-.06c-.47,0-.45.69,0,.85l.91.36c-.8,1-1.61,2-2.44,2.93m4.12.72-2-.35c.79-.83,1.57-1.68,2.33-2.55l2,.67c-.77.75-1.54,1.5-2.33,2.23" transform="translate(-11.42 -11.66)" fill="#d18225"/>
    <path d="M115.22,96.09l-.1,0-.39-.1h0l.48.12" transform="translate(-11.42 -11.66)" fill="#010101"/>
    <path d="M115.12,96.07l-.41-.06,0,0,.39.1" transform="translate(-11.42 -11.66)" fill="#d18225"/>
    <path d="M90.54,84.41h0m0,0h0m5.45.37c-1.81-.21-3.62-.34-5.45-.37,1.83,0,3.64.16,5.45.37m0,0h0m0,0h0m0,0h0m0,0h0m0,0h0m0,0h0" transform="translate(-11.42 -11.66)" fill="#010101"/>
    <path d="M102.2,85.78c-2-.4-4-.74-6-1H96c-1.81-.21-3.62-.34-5.45-.37h-.07l0,0a2.45,2.45,0,0,0,0-.27v-.1a.49.49,0,0,1,0-.12c0-1.24,2.56-1.92,3.9-2.62,1.71.14,3.42.36,5.11.63a13.29,13.29,0,0,0-2.2.47.44.44,0,0,0-.11.79,12,12,0,0,0,5.42,2l-.37.5m5.9,1.34c-.94-.23-1.88-.46-2.82-.67l.63-.74,1.09.13c.67.08,1.32.2,2,.33l-.87,1" transform="translate(-11.42 -11.66)" fill="#d18225"/>
    <path d="M116.73,112a.37.37,0,0,0,0-.39l.17.07c0,.09-.05.18-.08.27l-.12,0" transform="translate(-11.42 -11.66)" fill="#d18225"/>
    <path d="M115,107.52c-2-.27-4-.66-6-1.12h0c2,.46,4,.85,6,1.12H115" transform="translate(-11.42 -11.66)" fill="#010101"/>
    <path d="M116.5,111.48a57.57,57.57,0,0,1-9-1.51c.48-1.2,1-2.39,1.55-3.57,2,.46,4,.85,6,1.12a22.6,22.6,0,0,0-3.94.32.43.43,0,0,0-.11.79,45.61,45.61,0,0,0,5.53,2.85" transform="translate(-11.42 -11.66)" fill="#d18225"/>
    <path d="M86.09,104.75a2.37,2.37,0,0,1-.44-1.5,4.22,4.22,0,0,1,0-.6c.08-.64.2-1.29.31-2,1.15.29,2.3.56,3.46.83q-1.63,1.64-3.37,3.23M88,106c-.27-.18-.6-.33-.91-.51,1.38-1.17,2.76-2.37,4.11-3.6l1.42.32C91,103.49,89.48,104.74,88,106m21,8.42c-1.32,0-2.73-1.05-2.19-2.56.1-.29.2-.57.31-.85a27,27,0,0,0,7.45,1.24c.56,0,1.13,0,1.7-.08a41.67,41.67,0,0,1-6.93,2.22,1.87,1.87,0,0,1-.34,0" transform="translate(-11.42 -11.66)" fill="#d18225"/>
    <path d="M115.82,96.17h0l-.92-.45h0l.93.46" transform="translate(-11.42 -11.66)" fill="#010101"/>
    <path d="M118.34,96.48c-.84-.09-1.68-.19-2.52-.31l-.93-.46c.18-.3.36-.61.55-.91a29.59,29.59,0,0,1,2.9,1.68" transform="translate(-11.42 -11.66)" fill="#d18225"/>
    <path d="M107.6,87.66l-1.35-.32,1.35.32M89.21,89.32h0m-1,0h0l1,0-1,0m13,1.93h0m.13,0h0m0,0h0m.07,0h0m.13,0-.12,0,.12,0m.06,0h0m.2,0h0m.23,0h0m.32.06-.23,0,.23,0m.15,0-.11,0,.11,0m1.2.24c-.38-.09-.77-.16-1.16-.23.39.07.78.14,1.16.23h0" transform="translate(-11.42 -11.66)" fill="#010101"/>
    <path d="M107,88.34c-1-.12-2-.22-3-.32.29-.33.57-.67.85-1l1.46.32,1.35.32-.63.68m-8.31,2.37a45,45,0,0,0-9.45-1.39h0l-1,0a6.81,6.81,0,0,1,1.32-3.19,4,4,0,0,0,.9-1.69l0,0a71.29,71.29,0,0,1,11.34,1.84l-1,1.44c-1,0-1.92-.08-2.87-.08h-.72a.44.44,0,0,0-.22.81,17.26,17.26,0,0,0,2.5,1.1c-.26.37-.52.73-.79,1.09m5.09,1.06c-.38-.09-.77-.16-1.16-.23h0l-.11,0h0l-.23,0-.09,0h0l-.21,0h-.06l-.14,0h-.06l-.12,0h-.26l.75-.89c.84.22,1.69.41,2.54.61l-.75.79" transform="translate(-11.42 -11.66)" fill="#d18225"/>
    <path d="M120.4,82c-7.38-2.48-15.15-4.61-23-4v.12c7.93,0,15.19,2.53,22.78,4.4.29.07.58-.41.25-.52" transform="translate(-11.42 -11.66)" fill="#010101"/>
    <path d="M116.56,111.49a78.77,78.77,0,0,1-14-2.77c-2.34-.61-4.7-1.16-7-1.75-1-.24-2.23-.41-3.45-.65.28.15.55.31.83.45l1,.23c2.78.72,5.52,1.68,8.26,2.51,4.69,1.44,9.36,3.21,14.33,2.64.32,0,.47-.63.07-.66" transform="translate(-11.42 -11.66)" fill="#010101"/>
    <path d="M28.9,48.76c-.11-.75,0-1,.2-1-.22,0-.31.3-.2,1m16.92.11h0m1,.43h0m-10.13.51h0M49.28,51.3c-1.05,0-1.87-1.41-2.47-2,.6.55,1.42,1.95,2.47,1.95h0m-28.66,0c0-.31.2-.43.57-.43-.37,0-.59.12-.57.43m0,0h0m14.29,0c.59-.62,1-1.51,1.73-1.51-.72,0-1.14.89-1.73,1.51m0,0,0,0,0,0m-2,.23c-.86-.55-3-3.89-3.72-3.89.72,0,2.86,3.34,3.72,3.89m0,0h0m0,0h0m.85.23a1.63,1.63,0,0,0,1.17-.45,1.63,1.63,0,0,1-1.17.45m0,0h0m9.27.52c.94-1.4,1.71-3.47,2.87-3.48-1.16,0-1.93,2.08-2.87,3.48m-15.27,0h0m-1.05.28c-.64-.09-4.06-1.8-5.44-1.8,1.38,0,4.8,1.71,5.44,1.8m0,0h0m.26,0a.91.91,0,0,0,.77-.3.91.91,0,0,1-.77.3m0,0h0m13.39.48h0m1.34.39h0m-.05,0h0m0,0h0m-.29,0a1,1,0,0,0,.29,0,1,1,0,0,1-.29,0m0,0h0m98.64,103.91h0l.06,0-.06,0h0m0,0h0M87.72,173.22l.79-.55h0l-.79.55m-7.3,4.55,0,0,0,0m0,0,0,0,0,0m-1.13.68h0c.18-.09.37-.22.56-.34-.19.12-.38.25-.56.34m-.66.24h0m-.08,0h0m0,0h0" transform="translate(-11.42 -11.66)" fill="#010101"/>
    <path d="M138.4,105.77a29.3,29.3,0,0,0,.54-3l.62-.34a.12.12,0,0,0,.07-.13c2.89-1.23,5.26-2.22,6.67-2.72-.58,1-4,3.45-7.9,6.16M71.48,125.7c-6.51,0-13.55-2.9-18.85-6.1-8.41-5.1-11.23-12.43-13.06-21.79-2.28-11.62-7.2-22-11.34-33.07a2.08,2.08,0,0,1,1.44-2.53c5.8-2.08,11.93-3.08,17.89-4.57-2.15.15-4.31.23-6.46.23a51.72,51.72,0,0,1-16.55-2.36,2.09,2.09,0,0,1-.91-3.44l.41-.38a10,10,0,0,0-2.86-.81c-.37,0-.59.12-.57.44h0c0-.31.2-.43.57-.43,1.38,0,4.8,1.71,5.44,1.8h.28a.91.91,0,0,0,.77-.3h0a6.78,6.78,0,0,0,1.22-3.31,1.56,1.56,0,0,0,0-.31h0c-.11-.75,0-1,.2-1h0c.72,0,2.86,3.34,3.72,3.89h0a1.76,1.76,0,0,0,.85.22h0a1.63,1.63,0,0,0,1.17-.45h0l0,0h0c.59-.62,1-1.51,1.73-1.51h0c.41,0,.91.28,1.58,1s1.35,1.57,2.06,2.33h0a1.35,1.35,0,0,0,1,.45h0a1,1,0,0,0,.29,0h.08A2.83,2.83,0,0,0,43,52.35c.94-1.4,1.71-3.47,2.87-3.48h0a1.47,1.47,0,0,1,.94.42h0l0,0c.6.55,1.42,2,2.47,2h0c-1,.8-2,1.62-3,2.47-1.21,1-2.07,2.33-.67,2.74a6.46,6.46,0,0,0,1.77.21c11.3,0,48.49-18.31,61.34-23.11l-.49.36,1.35-.68c.87-.31,1.6-.54,2.17-.68-1,2.06-40.51,23.16-41.87,25.07a47.8,47.8,0,0,0-5.37,10.6C63,72.13,62,76.3,59.9,79.87c-1.69,2.9-3.51,5.67-4.58,8.87-1.93,5.79,4.15,12.73,6.68,17.37s1.55,11.3,8,12.9a5.58,5.58,0,0,0,1.33.17,8.3,8.3,0,0,0,5-2.11,33.12,33.12,0,0,0,4.6,5.17c-2.3,1.66-4.42,2.89-6,3.18a20.17,20.17,0,0,1-3.4.28m7.77,52.77c-1-3.77-2-7.53-3.1-11.26-1.62-5.33-3.25-10.89-5.88-15.82-2-3.72-4.07-7.36-4.91-11.54a2.09,2.09,0,0,1,2-2.61h.05a15.2,15.2,0,0,1,8.09,2.28c1.7,1,5.14,8.77,6.7,8.77.21,0,.39-.14.52-.45,1.79-4.21,2.1-15.69,3.42-20.06a9.38,9.38,0,0,1,.52-1.29,35.69,35.69,0,0,0,18.14,4.9c1.2,0,2.38-.06,3.55-.17,1.4,7.09,14.77,7.69,19.94,9.47,3.73,1.29,5.7,4.22,7.49,7.55a55.83,55.83,0,0,0,6,8.55c-.58.25-1.16.5-1.77.72l-.06,0h-.05c-5.1,1.89-10,4.87-15.29,6.16q-6.75-5-13.25-10.25c-4.66-3.8-9.1-7.94-14-11.46-1.59-1.15-4.13-2.63-6.42-2.63a4.19,4.19,0,0,0-2.28.62c-6.22,4-2.62,17-1.82,22.65.47,3.36,1,6.7,1.68,10l-.79.55a64.78,64.78,0,0,1-7.24,4.52h0l0,0h0l0,0-.57.34c-.19.12-.38.25-.56.34m-.66.24h0m0,0h0m-.08,0h0a.47.47,0,0,1-.17,0,.47.47,0,0,0,.17,0h0" transform="translate(-11.42 -11.66)" fill="#e99308"/>
    <path d="M118.65,112.35c.13-.43.24-.87.38-1.28,5-2,11-4.6,16.2-6.85q-5.39,2.67-10.78,5.29c-1.94.94-3.9,1.85-5.8,2.84m-37.74,9.89a33.12,33.12,0,0,1-4.6-5.17,47.3,47.3,0,0,0,4.7-4.7,74.41,74.41,0,0,1,5.58-5.22c.83.82.57,2.95,1.16,3.88.48.74.45,2.33,1,2.85.4.34.77.6,1.11.85-2.8,2.5-6,5.37-9,7.51m23.88,9.15a35.69,35.69,0,0,1-18.14-4.9c1-2.2,3.16-5.63,5.08-8.88a2.73,2.73,0,0,0,.72,1.4,3.34,3.34,0,0,0,2.26.8,9.81,9.81,0,0,0,1.08-.08,9.28,9.28,0,0,1,1-.08,2.59,2.59,0,0,1,2.16,1,2.16,2.16,0,0,0,1.77.81,7.77,7.77,0,0,0,2-.37,7.81,7.81,0,0,1,1.92-.37h.46c1.44,0,5.5-.42,6.3-1.4.95-1.18,1.65-1.32,3.06-1.89a3.53,3.53,0,0,0,.93-.67h0a.47.47,0,0,0,.31-.3c.71-.67,1.45-1.49,1.75-1.79A3.9,3.9,0,0,0,118,114c6.82-4,14-7.46,21-11.21a29.3,29.3,0,0,1-.54,3c-4.53,3.17-9.7,6.64-11.73,8.35-5.47,4.62-16.67,6.64-18.27,14.16a7.16,7.16,0,0,0-.06,2.94c-1.17.11-2.35.17-3.55.17" transform="translate(-11.42 -11.66)" fill="#e9b872"/>
    <path d="M92.83,112a10,10,0,0,1-2.69-1.77h0c-.07-.06,0-.17.07-.17h.06a10.26,10.26,0,0,0,2.82,1.58c-.09.11-.17.23-.26.35m-2.93,2.69c-.34-.25-.71-.51-1.11-.85-.59-.52-.56-2.11-1-2.85-.59-.93-.33-3.06-1.16-3.88L88,106a1.45,1.45,0,0,1,.75,1.31,2.14,2.14,0,0,1,0,.34,12,12,0,0,0-.14,1.62c0,2,1.1.5,1.21,2.27a2.29,2.29,0,0,0,1.43,2c-.41.36-.84.74-1.27,1.14m10.86,6.74a2.16,2.16,0,0,1-1.77-.81,2.59,2.59,0,0,0-2.16-1,9.28,9.28,0,0,0-1,.08,9.81,9.81,0,0,1-1.08.08,3.34,3.34,0,0,1-2.26-.8,2.73,2.73,0,0,1-.72-1.4c.36-.61.71-1.22,1-1.81.79,1.31,1.76,2.26,3.18,2.26h0a4.43,4.43,0,0,0,1.6-.34h0a1.24,1.24,0,0,1,.48-.09h0a1.41,1.41,0,0,1,.85.26h0l0,0,0,0h0c.75.66.89,1.55,2,1.55h0a4.7,4.7,0,0,0,1.38-.28h.18a4.5,4.5,0,0,1,1.38-.33h0a1.61,1.61,0,0,1,.44.06h0a3.45,3.45,0,0,0,1.14.14h.13c1.7,0,4.21-.63,4.77-1.68h0a1.7,1.7,0,0,1,.15-.22,39.79,39.79,0,0,1-9.76-2.44c-1.89-.65-4.27-1.18-6.45-2l.33-.45c2.23.65,4.64,1,6.53,1.6a51.7,51.7,0,0,0,10.45,2.18c1.07-.72,2.48-1.23,3.38-1.9a4.34,4.34,0,0,0,1.68-2.22l2.18-.86c-.14.41-.25.85-.38,1.28a38,38,0,0,0-6.65,4.27c-.33.27.12.71.49.71a.37.37,0,0,0,.21-.06c1.73-1.13,3.5-2.21,5.29-3.26a3.9,3.9,0,0,1-.52.69c-.3.3-1,1.12-1.75,1.79a.47.47,0,0,1-.31.3h0a3.53,3.53,0,0,1-.93.67c-1.41.57-2.11.71-3.06,1.89-.8,1-4.86,1.4-6.3,1.4h-.46a7.81,7.81,0,0,0-1.92.37,7.77,7.77,0,0,1-2,.37" transform="translate(-11.42 -11.66)" fill="#010101"/>
    <path d="M90.21,110.1h0m.05,0h0m24.91,4a4.45,4.45,0,0,0,1.68-2.22h0a4.34,4.34,0,0,1-1.68,2.22m-4.63,3.21h0m0,0h0m0,0h0m-12.47.24h0m-.5.1h0m1.36.16a1.41,1.41,0,0,0-.85-.26,1.41,1.41,0,0,1,.85.26m0,0h0m0,0h0m0,0h0m.06,0,0,0,0,0m-3.06.11c-1.42,0-2.39-1-3.18-2.26.79,1.31,1.76,2.26,3.18,2.26m0,0h0m8,.78h0m.44.06a1.61,1.61,0,0,0-.44-.06,1.61,1.61,0,0,1,.44.06m0,0h0m0,0h0m1.15.15a3.45,3.45,0,0,1-1.14-.14,3.45,3.45,0,0,0,1.14.14m0,0h0m-3,.12h0m0,0h0m0,0h0m-.08,0h0m-1.38.28c-1.16,0-1.3-.89-2-1.55.75.66.89,1.55,2,1.55m0,0h0" transform="translate(-11.42 -11.66)" fill="#eaa135"/>
    <path d="M99.49,103.87c-2.3-.6-4.61-1.12-6.92-1.65l.55-.45c2.31.41,4.63.86,6.94,1.44l-.57.66M109,106.4c-2.49-.57-5-1.25-7.37-1.94l-.48-.13.59-.67c2.57.65,5.14,1.23,7.72,1.78-.16.32-.31.64-.46,1" transform="translate(-11.42 -11.66)" fill="#010101"/>
    <path d="M109.83,104.77a11.24,11.24,0,0,1-2.81-1.69.43.43,0,0,1,.19-.72,20.18,20.18,0,0,1,3.62-.3h.41c-.49.9-1,1.8-1.41,2.71m-.33.67c-2.58-.55-5.15-1.13-7.72-1.78q3.85,1,7.72,1.78" transform="translate(-11.42 -11.66)" fill="#eaa135"/>
    <path d="M103.13,99.78c-.41-.11-.82-.2-1.23-.3L97,98.38l.8-.73c1.48.26,3,.54,4.44.82l1,.2.73.16c-.29.31-.58.63-.86,1m8.13,2.25c-2.15-.57-4.29-1.23-6.43-1.81l.9-1c2.07.5,4.12,1.07,6.17,1.63-.22.39-.43.78-.64,1.17" transform="translate(-11.42 -11.66)" fill="#010101"/>
    <path d="M105.53,97.15c-1.79-.58-3.6-1.14-5.38-1.73l1.7-1.7c2,.34,3.9.71,5.85,1.08l-2.17,2.35M104,98.83l-.73-.16.73.16m8.56.87c-1.76-.74-3.57-1.4-5.39-2l2.4-2.55c1.71.32,3.43.62,5.15.87-.73,1.23-1.46,2.46-2.16,3.69m-9.42.08c-.41-.11-.83-.2-1.23-.3L97,98.38l4.88,1.1c.41.1.82.19,1.23.3m8.77,1.08c-2.05-.56-4.1-1.13-6.17-1.63h0c2.06.5,4.11,1.07,6.16,1.63h0" transform="translate(-11.42 -11.66)" fill="#eaa135"/>
    <path d="M108.52,93.92c-1.76-.59-3.53-1.12-5.37-1.54l.6-.61a42,42,0,0,1,5.35,1.52l-.58.63m6.22,2-2.27-.59c-.77-.3-1.53-.6-2.3-.88l.58-.6c1.39.55,2.77,1.16,4.14,1.82l-.15.25" transform="translate(-11.42 -11.66)" fill="#010101"/>
    <path d="M125.77,72.86c-.78-.57-1.6-1.12-2.43-1.63,1.72-1.6,3.5-3.14,5.35-4.6-.15.76-.32,1.52-.51,2.27q-1.16,2-2.41,4m1,.72-.36-.28c.4-.71.79-1.41,1.17-2.13-.25.81-.52,1.61-.81,2.41" transform="translate(-11.42 -11.66)" fill="#e99308"/>
    <path d="M120.59,80.1c-1.07-1.15-1.06-3-2.27-4q2.45-2.52,5-4.91c.83.51,1.65,1.06,2.43,1.63-1.62,2.52-3.36,4.92-5.18,7.24m2.09,2.32a3,3,0,0,0-1.08-1.48c1.67-2.49,3.27-5,4.76-7.64l.36.28a70.82,70.82,0,0,1-4,8.84" transform="translate(-11.42 -11.66)" fill="#e9b872"/>
    <path d="M119.77,81.14a8.11,8.11,0,0,1-1.21-1.44A11.4,11.4,0,0,0,117,77.53l1.34-1.39c1.21,1,1.2,2.81,2.27,4l-.82,1m-6.17,3.64c-.95-.18-1.89-.37-2.84-.57l.41-.45,1.06.38a12.75,12.75,0,0,1,1.37.64m7.35.79a5.12,5.12,0,0,1,.18-.82,2.72,2.72,0,0,0-.41-2.51c.29-.44.59-.87.88-1.3a3,3,0,0,1,1.08,1.48c-.56,1-1.14,2.1-1.73,3.15m-8.09,3.62-1-.3h0c-1.41-.43-2.83-.86-4.26-1.23l.5-.54c1.8.44,3.6.9,5.39,1.36l-.63.71m5.62.57c-1.2-.06-2.4-.1-3.61-.14l.62-.63,3,.74,0,0" transform="translate(-11.42 -11.66)" fill="#010101"/>
    <path d="M119.34,81.67l-2-.63c-.83-.44-1.68-.86-2.53-1.26q1.05-1.12,2.13-2.25a11.4,11.4,0,0,1,1.58,2.17,8.11,8.11,0,0,0,1.21,1.44l-.43.53m-5.19,6.07A42.35,42.35,0,0,0,109,86.17l1.79-2c.95.2,1.89.39,2.84.57a12.75,12.75,0,0,0-1.37-.64l-1.06-.38,2.65-2.88c1.69.45,3.37.91,5.06,1.35-1.53,1.87-3.11,3.7-4.73,5.51m-.66.74c-1.79-.46-3.59-.92-5.39-1.36,1.8.44,3.6.9,5.39,1.36h0m5,1.25-3-.74h0l1.15.29c.62,0,1.24.07,1.87.08-.84-.3-1.66-.61-2.49-.92l.88-.91q2-2.61,3.82-5.29a2.72,2.72,0,0,1,.41,2.51,5.12,5.12,0,0,0-.18.82q-1.2,2.09-2.45,4.16m-8.64,2.74c-.78-.26-1.55-.5-2.32-.73-1-.28-2-.52-3-.76.83-.87,1.65-1.76,2.47-2.64,1.63.18,3.26.38,4.89.55l1,.3-3,3.28m5.58,2.33a37.54,37.54,0,0,0-3.9-1.72l3.33-3.46c1.21,0,2.41.08,3.61.14l-3,5" transform="translate(-11.42 -11.66)" fill="#eaa135"/>
    <path d="M117.38,81c-1-.3-1.93-.59-2.9-.86l.37-.4c.85.4,1.7.82,2.53,1.26" transform="translate(-11.42 -11.66)" fill="#c05e17"/>
    <path d="M111.26,102c-2.15-.58-4.29-1.24-6.43-1.82,2.14.58,4.28,1.24,6.43,1.81h0" transform="translate(-11.42 -11.66)" fill="#010101"/>
    <path d="M100.06,103.21c-2.31-.58-4.63-1-6.94-1.44,1.28-1.07,2.56-2.16,3.79-3.28a1.14,1.14,0,0,0,.11-.11l4.88,1.1c.4.1.82.19,1.23.3-1,1.13-2.06,2.27-3.07,3.43m9.44,2.23q-3.87-.82-7.72-1.78c1-1.16,2-2.3,3-3.44,2.14.58,4.28,1.24,6.43,1.82l0,0h-.41a20.18,20.18,0,0,0-3.62.3.43.43,0,0,0-.19.72,11.24,11.24,0,0,0,2.81,1.69l-.33.67" transform="translate(-11.42 -11.66)" fill="#c05e17"/>
    <path d="M103.26,98.67l-1-.2c-1.48-.28-3-.56-4.44-.82,1.48.26,3,.54,4.44.82l1,.2" transform="translate(-11.42 -11.66)" fill="#010101"/>
    <path d="M104,98.83l-.73-.16-1-.2c-1.48-.28-3-.56-4.44-.82.79-.73,1.56-1.48,2.33-2.23,1.78.59,3.59,1.15,5.38,1.73L104,98.83m7.91,2c-2.05-.56-4.1-1.13-6.16-1.63l1.42-1.54c1.82.61,3.63,1.27,5.39,2l-.65,1.16" transform="translate(-11.42 -11.66)" fill="#c05e17"/>
    <path d="M114.73,96l-2.26-.59,2.27.59h0" transform="translate(-11.42 -11.66)" fill="#010101"/>
    <path d="M107.7,94.8c-2-.37-3.9-.74-5.85-1.08l1.3-1.34c1.84.42,3.61,1,5.37,1.54l-.82.88m7,1.21c-1.72-.25-3.44-.55-5.15-.87.21-.21.41-.42.61-.64.77.28,1.53.58,2.3.88l2.26.59,0,0" transform="translate(-11.42 -11.66)" fill="#c05e17"/>
    <path d="M113.49,88.48c-1.79-.46-3.59-.92-5.39-1.36l.87-1a42.35,42.35,0,0,1,5.18,1.57l-.66.74m5,.88c-.63,0-1.25,0-1.87-.08L115.49,89l.53-.55c.83.31,1.65.62,2.49.92" transform="translate(-11.42 -11.66)" fill="#c05e17"/>
    <path d="M109,106.4c-2.48-.57-4.94-1.25-7.36-1.94,2.42.69,4.88,1.37,7.37,1.94h0m-18.81,3.7h0m-.08.17c-.07-.06,0-.17.07-.17s-.14.11-.07.17m3,1.42a10.26,10.26,0,0,1-2.82-1.58h0a10.26,10.26,0,0,0,2.82,1.58m17.44,5.67h0m0,0h0m-12.47.25h0m-.49.09h0a1.24,1.24,0,0,1,.48-.09,1.24,1.24,0,0,0-.48.09h0m1.35.17h0m0,0h0m0,0h0m0,0,0,0,0,0m0,0h0m-3.06.1a4.43,4.43,0,0,0,1.6-.34,4.43,4.43,0,0,1-1.6.34m0,0h0m8,.78h0m.46.07h0m0,0h0m1.27.14c1.7,0,4.21-.63,4.77-1.68-.56,1.05-3.07,1.65-4.77,1.68m-.13,0h0m-3,.11a4.5,4.5,0,0,1,1.38-.33,4.5,4.5,0,0,0-1.38.33m0,0h0m-.07,0h0m0,0h0m-1.43.29a4.7,4.7,0,0,0,1.38-.28,4.7,4.7,0,0,1-1.38.28m0,0h0" transform="translate(-11.42 -11.66)" fill="#010101"/>
    <path d="M107.48,110c-1.64-.39-3.27-.82-4.93-1.25-1.38-.36-2.77-.7-4.16-1,.92-1.13,1.85-2.24,2.8-3.35l.48.13c2.42.69,4.88,1.37,7.36,1.94-.55,1.18-1.07,2.37-1.55,3.57m-16.31,3.62a2.29,2.29,0,0,1-1.43-2c-.11-1.77-1.21-.28-1.21-2.27a12,12,0,0,1,.14-1.62,2.14,2.14,0,0,0,0-.34A1.45,1.45,0,0,0,88,106c1.53-1.27,3.08-2.52,4.62-3.79,2.31.53,4.62,1,6.92,1.65l-.54.62c-.77.9-1.55,1.82-2.33,2.76L95.5,107c-1-.24-2.23-.41-3.45-.65.28.15.55.31.83.45l1,.23c.79.21,1.59.43,2.37.67-1.07,1.3-2.14,2.64-3.18,4a10.26,10.26,0,0,1-2.82-1.58h-.06c-.07,0-.14.11-.07.17h0A10,10,0,0,0,92.83,112l-.15.2-1.51,1.35m20.62,2.46a51.7,51.7,0,0,1-10.45-2.18c-1.89-.55-4.3-1-6.53-1.6l1.35-1.78c.6-.78,1.2-1.54,1.81-2.3,1.4.44,2.8.9,4.19,1.32,1.64.5,3.27,1,4.91,1.51-.11.28-.21.56-.31.85-.54,1.51.87,2.56,2.19,2.56a1.87,1.87,0,0,0,.34,0,41.67,41.67,0,0,0,6.93-2.22l.27,0a.38.38,0,0,0,.24-.17l.12,0a4.45,4.45,0,0,1-1.68,2.22c-.9.67-2.31,1.18-3.38,1.9m-10.73,3.46h0c-1.16,0-1.3-.89-2-1.55h0l0,0,0,0h0a1.41,1.41,0,0,0-.85-.26h0a1.24,1.24,0,0,0-.48.09h0a4.43,4.43,0,0,1-1.6.34h0c-1.42,0-2.39-1-3.18-2.26.58-1,1.11-2,1.55-2.87l.16-.21c2.18.79,4.56,1.32,6.45,2a39.79,39.79,0,0,0,9.76,2.44,1.7,1.7,0,0,0-.15.22h0c-.56,1.05-3.07,1.65-4.77,1.68h-.13a3.45,3.45,0,0,1-1.14-.14h0a1.61,1.61,0,0,0-.44-.06h0a4.5,4.5,0,0,0-1.38.33h-.18a4.7,4.7,0,0,1-1.38.28h0" transform="translate(-11.42 -11.66)" fill="#c05e17"/>
    <path d="M109.1,93.29a42,42,0,0,0-5.35-1.52h0a42,42,0,0,1,5.35,1.52h0m5.79,2.43c-1.37-.66-2.75-1.27-4.14-1.82h0c1.39.55,2.77,1.16,4.14,1.81h0" transform="translate(-11.42 -11.66)" fill="#010101"/>
    <path d="M109.1,93.29a42,42,0,0,0-5.35-1.52l.75-.79c1,.24,2,.48,3,.76.77.23,1.54.47,2.32.73l-.76.82m5.79,2.42c-1.37-.65-2.75-1.26-4.14-1.81.26-.28.52-.55.79-.82a37.54,37.54,0,0,1,3.9,1.72c-.19.3-.37.61-.55.91" transform="translate(-11.42 -11.66)" fill="#c05e17"/>
    <path d="M111.86,88.89h0c-1.42-.43-2.83-.86-4.26-1.23,1.43.37,2.85.8,4.26,1.23" transform="translate(-11.42 -11.66)" fill="#010101"/>
    <path d="M111.86,88.89c-1.63-.17-3.26-.37-4.89-.55l.63-.68c1.43.37,2.84.8,4.26,1.23" transform="translate(-11.42 -11.66)" fill="#c05e17"/>
    <path d="M118.88,82.23c-1.69-.44-3.37-.9-5.06-1.35l.66-.7c1,.27,1.94.56,2.9.86l2,.63-.46.56" transform="translate(-11.42 -11.66)" fill="#010101"/>
    <path d="M96.27,107.67c-.78-.24-1.58-.46-2.37-.67l-1-.23c-.28-.14-.55-.3-.83-.45,1.22.24,2.46.41,3.45.65l1.12.28-.35.42m10.8,3.35c-1.64-.47-3.27-1-4.91-1.51-1.39-.42-2.79-.88-4.19-1.32l.42-.51c1.39.34,2.78.68,4.16,1,1.66.43,3.29.86,4.93,1.25-.14.35-.28.7-.41,1m9.15,1.16.51-.2a.38.38,0,0,1-.24.17l-.27,0" transform="translate(-11.42 -11.66)" fill="#010101"/>
    <path d="M78.29,178.68c-.25-.09-.47-.34-.64-.86A20.2,20.2,0,0,0,76.48,175c-2.53-5.32-4-11.08-6.37-16.48C67.31,152.13,63,147,60.77,140.3c-1.51-4.46-2.63-9.05-5.51-12.85-1.7-2.23-4.59-3.65-6.41-5.9a48.53,48.53,0,0,1-6-8.72c-2.74-5.5-5.74-11-8-16.74-2.63-6.51-5.39-13-7.82-19.54C25.27,71.9,24,67,22.22,62.38l-.09,0a3.48,3.48,0,0,0-1.73-2.79,28.29,28.29,0,0,1-4.52-4.13,28.29,28.29,0,0,0,4.52,4.13,3.48,3.48,0,0,1,1.73,2.79l.09,0C24,67,25.27,71.9,27,76.55c2.43,6.59,5.19,13,7.82,19.54,2.31,5.69,5.31,11.24,8,16.74a48.53,48.53,0,0,0,6,8.72c1.82,2.25,4.71,3.67,6.41,5.9,2.88,3.8,4,8.39,5.51,12.85,2.25,6.67,6.54,11.83,9.34,18.18,2.39,5.4,3.84,11.16,6.37,16.48a20.2,20.2,0,0,1,1.17,2.86v0h0c.16.48.38.73.62.81m.31,0a1.73,1.73,0,0,0,.65-.24h0a1.89,1.89,0,0,1-.65.23m0,0h0" transform="translate(-11.42 -11.66)" fill="#010101"/>
    <path d="M77.66,177.86v0m.68.83h0c-.24-.08-.46-.33-.62-.81.18.51.4.76.67.82" transform="translate(-11.42 -11.66)" fill="#d79d09"/>
    <path d="M16.61,53h0m1.22.65,0,0,0,0m2.13.19h0m0,0,0,0,0,0M18.79,54h0m.51.09a.89.89,0,0,0,.64-.24.89.89,0,0,1-.64.24m0,0h0m-3.58.24c.12-.89.41-1.34.88-1.34-.47,0-.76.45-.88,1.34m61.94,123.5v0A20.2,20.2,0,0,0,76.48,175c-2.53-5.32-4-11.08-6.37-16.48C67.31,152.13,63,147,60.77,140.3c-1.51-4.46-2.63-9.05-5.51-12.85-1.7-2.23-4.59-3.65-6.41-5.9a48.53,48.53,0,0,1-6-8.72c-2.74-5.5-5.74-11-8-16.74-2.63-6.51-5.39-13-7.82-19.54C25.27,71.9,24,67,22.22,62.38l-.09,0a3.48,3.48,0,0,0-1.73-2.79,28.29,28.29,0,0,1-4.52-4.13,28.29,28.29,0,0,0,4.52,4.13,3.48,3.48,0,0,1,1.73,2.79l.09,0C24,67,25.27,71.9,27,76.55c2.43,6.59,5.19,13,7.82,19.54,2.31,5.69,5.31,11.24,8,16.74a48.53,48.53,0,0,0,6,8.72c1.82,2.25,4.71,3.67,6.41,5.9,2.88,3.8,4,8.39,5.51,12.85,2.25,6.67,6.54,11.83,9.34,18.18,2.39,5.4,3.84,11.16,6.37,16.48a20.2,20.2,0,0,1,1.17,2.86v0m0,0h0m.93.84a1.73,1.73,0,0,0,.65-.24,1.73,1.73,0,0,1-.65.24m0,0h0m0,0h0" transform="translate(-11.42 -11.66)" fill="#010101"/>
    <path d="M78.51,178.72a.47.47,0,0,1-.17,0c-.27-.06-.49-.31-.67-.82h0v0A20.2,20.2,0,0,0,76.48,175c-2.53-5.32-4-11.08-6.37-16.48C67.31,152.13,63,147,60.77,140.3c-1.51-4.46-2.63-9.05-5.51-12.85-1.7-2.23-4.59-3.65-6.41-5.9a48.53,48.53,0,0,1-6-8.72c-2.74-5.5-5.74-11-8-16.74-2.63-6.51-5.39-13-7.82-19.54C25.27,71.9,24,67,22.22,62.38l-.09,0a3.48,3.48,0,0,0-1.73-2.79,28.29,28.29,0,0,1-4.52-4.13.57.57,0,0,0,.16-.39.91.91,0,0,0-.13-.44,2.22,2.22,0,0,0-.19-.27c.12-.89.41-1.34.88-1.34h0a2.05,2.05,0,0,1,1.19.63l0,0a2.25,2.25,0,0,0,.94.36h0a1.52,1.52,0,0,0,.51.09h0a.89.89,0,0,0,.64-.24h0l0,0h0a2.29,2.29,0,0,0,.68-1.8c0-.22,0-.46,0-.71s.2-.44.57-.44a10,10,0,0,1,2.86.81l-.41.38a2.09,2.09,0,0,0,.91,3.44A51.72,51.72,0,0,0,41.1,57.87c2.15,0,4.31-.08,6.46-.23-6,1.49-12.09,2.49-17.89,4.57a2.08,2.08,0,0,0-1.44,2.53c4.14,11,9.06,21.45,11.34,33.07,1.83,9.36,4.65,16.69,13.06,21.79,5.3,3.2,12.34,6.1,18.85,6.1a20.17,20.17,0,0,0,3.4-.28c1.61-.29,3.73-1.52,6-3.18a34,34,0,0,0,3.88,3.07,35.29,35.29,0,0,0-3.28,15,1,1,0,0,0,1,.85.41.41,0,0,0,.16,0c-.45-4.36,1.14-9.09,2.78-12.92.27-.65.56-1.29.86-1.93l.36.22a9.38,9.38,0,0,0-.52,1.29c-1.32,4.37-1.63,15.85-3.42,20.06-.13.31-.31.45-.52.45-1.56,0-5-7.73-6.7-8.77a15.2,15.2,0,0,0-8.09-2.28h-.05a2.09,2.09,0,0,0-2,2.61c.84,4.18,2.92,7.82,4.91,11.54,2.63,4.93,4.26,10.49,5.88,15.82,1.13,3.73,2.14,7.49,3.1,11.26a1.73,1.73,0,0,1-.65.24h-.09" transform="translate(-11.42 -11.66)" fill="#c67014"/>
    <path d="M84.79,125.31a34,34,0,0,1-3.88-3.07c3-2.14,6.19-5,9-7.51a6.11,6.11,0,0,1,.63.51,62.92,62.92,0,0,0-5.74,10.07m1.86,1.18-.36-.22A74.19,74.19,0,0,1,91.54,117l.06.18c0,.15.08.31.13.48-1.92,3.25-4,6.68-5.08,8.88" transform="translate(-11.42 -11.66)" fill="#c68d3b"/>
    <path d="M90.53,115.24a6.11,6.11,0,0,0-.63-.51c.43-.4.86-.78,1.27-1.14a2.62,2.62,0,0,1,.34.24l-1,1.41m1.2,2.37c0-.17-.09-.33-.13-.48l-.06-.18c.34-.51.67-1,1-1.52l.21.37c-.33.59-.68,1.2-1,1.81" transform="translate(-11.42 -11.66)" fill="#010101"/>
    <path d="M92.77,115.8l-.21-.37.21.37" transform="translate(-11.42 -11.66)" fill="#c67a1c"/>
    <path d="M91.51,113.83a2.62,2.62,0,0,0-.34-.24l1.51-1.35-1.17,1.59m1.26,2-.21-.37c.57-.84,1.16-1.67,1.76-2.5-.44.88-1,1.86-1.55,2.87" transform="translate(-11.42 -11.66)" fill="#a34917"/>
    <path d="M54.48,45.72h0m.44.2h0m.79.76-.08-.09.08.09m-3.57,2.19c.51-.94,1.42-3.14,2.33-3.15-.91,0-1.82,2.22-2.33,3.15m0,0,0,0,0,0m0,.07h0m-.12.18h0m0,0h0m0,0h0m0,0h0" transform="translate(-11.42 -11.66)" fill="#010101"/>
    <path d="M51.73,49.46l.21-.28h0l.11-.17,0-.07,0,0h0c.51-.93,1.42-3.14,2.33-3.15h0a.68.68,0,0,1,.44.19h0c.33.3.54.51.71.67l.08.09q-2,1.35-4,2.78" transform="translate(-11.42 -11.66)" fill="#db6e10"/>
    <path d="M127.7,16.65l-.07-.14h0l.07.15m-2.32,2.28h0a21,21,0,0,0,1.49-1.83h0a21.38,21.38,0,0,1-1.5,1.84m-2.5,1.79h0a3.43,3.43,0,0,0,2.25-1.44,3.39,3.39,0,0,1-2.26,1.45m53.93,104.11c0-.09.09-.18.14-.27.66-1.18,1.89-3.16,1.89-4.61,0,1.45-1.23,3.43-1.89,4.61,0,.09-.1.18-.14.27" transform="translate(-11.42 -11.66)" fill="#010101"/>
    <path d="M174.79,128.16q-1.18-1.89-2.44-3.74a51.72,51.72,0,0,0-10.75-12c-5.49-4.21-10.93-6.08-12.45-13.58-1.09-5.37-4.14-8.78-7.76-12.73-4.39-4.77-4.48-13.83-5-19.88-.65-6.75-.53-13.58-1.51-20.29a40.94,40.94,0,0,0-2.33-9.13c-1.13-2.89-2.85-5-2.14-8.3a2.1,2.1,0,0,0-2-2.6,2.05,2.05,0,0,0-.54.07,93.11,93.11,0,0,0-18.27,7.36l-.86.32,2.86-2.14c4.16-3.14,7.61-7.11,11.32-10.75a3.39,3.39,0,0,0,2.26-1.45l.24-.34a21.38,21.38,0,0,0,1.5-1.84l.75-.58.07.14c.06,1.24,0,3.08.09,3.45.58,1.87,2.18,3,3.3,4.56A87.25,87.25,0,0,1,134.26,35c2,8.29,2.42,16.8,4.08,25.11.92,4.62,1.19,9.26,1.87,13.91.46,3.21.25,7.42,2,10.28,1.58,2.56,3.89,3.41,6.16,5.24S151,93.36,151.6,96a4.69,4.69,0,0,0,.88,2.26c3.73,4,8,5.51,12.42,8.5a43.64,43.64,0,0,1,8.37,6.83,32.32,32.32,0,0,0,4.93,5,1.53,1.53,0,0,1,.64,1.34c0,1.45-1.23,3.43-1.89,4.61,0,.09-.1.18-.14.27-.63,1.13-1.3,2.25-2,3.33" transform="translate(-11.42 -11.66)" fill="#e99308"/>
    <path d="M108.21,34l.49-.36.86-.32-1.35.68" transform="translate(-11.42 -11.66)" fill="#d56b12"/>
    <path d="M116,22.27a.19.19,0,0,1,0-.07.19.19,0,0,0,0,.07" transform="translate(-11.42 -11.66)" fill="#010101"/>
    <path d="M116,22.27a.19.19,0,0,1,0-.07c.31-1.2.7-2.66,2-2.66a2,2,0,0,1,.56.09c-.84.88-1.69,1.77-2.55,2.64" transform="translate(-11.42 -11.66)" fill="#db6e10"/>
    <path d="M77.67,183.84a10,10,0,0,1-.49-1.65c2.89.65,5.92-1.71,8.16-3.31,5.25-3.77,9.49-7.56,15.88-9.18,6-1.52,12.25-1.55,18.37-2.5a61.14,61.14,0,0,0,14.73-4.41c4.91-2.11,10.4-3.45,15-6.31a90.32,90.32,0,0,0,13.26-10.13A112.07,112.07,0,0,0,175,132.93a27.9,27.9,0,0,0,3.87-6c.95-2.22,1.29-4.63,2.86-6.5.81.59,1.6,1.21,1.84,1.39,1.62,1.26,2.29,1.63.05,2.55-1.82.75-2.09,2-1.53,3.75,1.59,5.06-3.36,2.21-4.42,5.34-1.17,3.41.94,8.54-4.17,9.45-1.52.27-4.1,1.07-4.13,3.09a23.63,23.63,0,0,0,.21,2.38c.27,3.13-4.47,2.79-6.22,3.06a3.64,3.64,0,0,0-3.07,3c-.17,1.46.18,5.54-3.15,4.51a8.6,8.6,0,0,0-2.73-.62,2.32,2.32,0,0,0-2.49,2.62c.12,3.06-1.47,2.68-3.26,2.31a6.5,6.5,0,0,0-2.34-.21c-2.67.44-2.45,2.4-3.4,4.44-.81,1.75-2.67,1.26-4.48.77-1.24-.34-2.46-.68-3.29-.28-1.72.82-1.8,1.54-3,3-2.31,2.73-4.05.71-5.88-.57a4.15,4.15,0,0,0-4.39.32c-1.53,1.22-3.45,3-5.36,1.72a3.8,3.8,0,0,0-1.92-.83c-1.22-.23-1.87.83-2.54,1.88-.91,1.44-1.84,2.89-4.25,1a.63.63,0,0,0-.53-.13,3.09,3.09,0,0,0-1.94-.76c-1.41,0-2.59,2.25-3.25,3.19-.56.79-1.93.34-3.26-.11a7.47,7.47,0,0,0-2.25-.54c-1.54.06-2.17,1-3,2.19-1.92,2.83-2.62,2-5.07,1.29a2.32,2.32,0,0,0-2.3,1.18c-.43,1.1-1.15,5.21-3.31,4.28-.73-.32-1.42-.72-2.16-1a3.88,3.88,0,0,0-2.72-.4.86.86,0,0,0-.33.19" transform="translate(-11.42 -11.66)" fill="#fff"/>
    <polyline points="6.65 40.27 6.65 40.27 6.65 40.27 6.65 40.27" fill="#c8bfbf"/>
    <path d="M16.42,51.52h0" transform="translate(-11.42 -11.66)" fill="#c8bfbf"/>
    <polyline points="29.77 39.55 29.77 39.55 29.77 39.55 29.77 39.55" fill="#c8bfbf"/>
    <path d="M41.18,51.21a3,3,0,0,1-1.76-1,3,3,0,0,0,1.76,1" transform="translate(-11.42 -11.66)" fill="#c8bfbf"/>
    <path d="M25.78,50a3.71,3.71,0,0,1-1.8-.66,3.71,3.71,0,0,0,1.8.66" transform="translate(-11.42 -11.66)" fill="#c8bfbf"/>
    <path d="M39.23,50c-.59-.55-1.87-1.7-2.8-1.73.93,0,2.21,1.18,2.8,1.73" transform="translate(-11.42 -11.66)" fill="#c8bfbf"/>
    <polyline points="22.68 38.13 22.68 38.13 22.68 38.13 22.68 38.13" fill="#c8bfbf"/>
    <path d="M34.09,49.79c-.87,0-1.78-1.72-2.14-2.25.36.53,1.27,2.24,2.14,2.25" transform="translate(-11.42 -11.66)" fill="#c8bfbf"/>
    <path d="M15.58,49.36h0v0" transform="translate(-11.42 -11.66)" fill="#c8bfbf"/>
    <path d="M48.33,48.86c-.7-.56-2.09-1.62-3.19-1.62,1.1,0,2.49,1.06,3.19,1.62" transform="translate(-11.42 -11.66)" fill="#c8bfbf"/>
    <path d="M22.24,48.61a5.19,5.19,0,0,0-1.78-.38,5.19,5.19,0,0,1,1.78.38" transform="translate(-11.42 -11.66)" fill="#c8bfbf"/>
    <path d="M36.65,47.91q-.7,0-1.41-.06c-5.67-.47-5.62-5.8-3.71-10.19.54.19,1.09.56,1.47.72a8.51,8.51,0,0,0,2.72,1h.11a2.27,2.27,0,0,0,2.11-1,6.55,6.55,0,0,0,.88-2A5.39,5.39,0,0,1,42,35.29a4.41,4.41,0,0,1,2.11.56,4.09,4.09,0,0,0,1.49.32c1.22,0,2.08-.77,3.15-1.91a3.23,3.23,0,0,1,2.47-1.2,8.16,8.16,0,0,1,1.52.21,7.83,7.83,0,0,0,1.65.22,4.67,4.67,0,0,0,1.08-.13.6.6,0,0,0,.43-.5v0a.76.76,0,0,0,.47-.4c.61-1.29.63-2.54,1.84-2.54a3.72,3.72,0,0,1,1.21.27,3.42,3.42,0,0,0,1,.33.52.52,0,0,0,.21,0c1.94-.78,2.5-1.93,3.41-3.83a1.19,1.19,0,0,1,1.15-.77,6.9,6.9,0,0,1,2.64,1,7.13,7.13,0,0,0,2.88,1,2.1,2.1,0,0,0,2-1.42c.53-1.13.63-3,2.07-3a2.22,2.22,0,0,1,.58.09,15.66,15.66,0,0,0,1.53.64,8.35,8.35,0,0,0,1.46.19,2,2,0,0,0,1.57-.66c.73-.81,1.55-4.39,3.27-4.39a1.66,1.66,0,0,1,.8.24c1.56.9,2.74,1.92,4.54,2h0c.41,0,.88-.58,1.05-.79,1-1.27,1.34-2.89,2.79-2.89A5.55,5.55,0,0,1,95.2,19a3.93,3.93,0,0,0,2.08.89,2.68,2.68,0,0,0,.66-.09c1-.29,3.49-4.53,4.82-4.53a.57.57,0,0,1,.4.16A3.75,3.75,0,0,0,106,16.81h.09c1.41,0,3.5-2,4.51-2.69h0c-.27.19-.62.47-1,.77.5.18,1,.36,1.5.58,1.28.55,1.23,2.36.42,3.24-5.88,6.38-15.41,9.09-23.31,12-10.67,4-21.82,7-32.37,11.22-5.88,2.36-12.61,5.95-19.15,5.95m-16.2.32h0" transform="translate(-11.42 -11.66)" fill="#c8bfbf"/>
    <path d="M31.9,47.46a4.54,4.54,0,0,0-3.45-1.84,4.54,4.54,0,0,1,3.45,1.84" transform="translate(-11.42 -11.66)" fill="#c8bfbf"/>
    <polyline points="45.72 33.63 45.72 33.63 45.73 33.63 45.72 33.63" fill="#c8bfbf"/>
    <path d="M54.93,44.3a2.07,2.07,0,0,0-.83-.19,2.07,2.07,0,0,1,.83.19" transform="translate(-11.42 -11.66)" fill="#c8bfbf"/>
    <path d="M64.07,43.94a.88.88,0,0,1-.54-.22.88.88,0,0,0,.54.22" transform="translate(-11.42 -11.66)" fill="#c8bfbf"/>
    <path d="M25.31,43.7a9.53,9.53,0,0,1-1.54-.15,9.53,9.53,0,0,0,1.54.15m0,0h0m38.2,0h0" transform="translate(-11.42 -11.66)" fill="#c8bfbf"/>
    <path d="M22.48,43.39h0m1.21.14a7.34,7.34,0,0,0-1.21-.14,7.34,7.34,0,0,1,1.21.14m0,0h0m0,0h0m39.68.11a6.09,6.09,0,0,0-3.57-1.34,6.09,6.09,0,0,1,3.57,1.34" transform="translate(-11.42 -11.66)" fill="#c8bfbf"/>
    <path d="M29.41,41l0,0a13,13,0,0,0,.4-2.24c.21-.88.62-1.16,1.1-1.16a1.64,1.64,0,0,1,.37.05,1.64,1.64,0,0,0-.37-.05c-.48,0-.89.28-1.1,1.16a13,13,0,0,1-.4,2.24l0,0m30.45,1.34h0" transform="translate(-11.42 -11.66)" fill="#c8bfbf"/>
    <path d="M72.6,40.16a2.43,2.43,0,0,1-1-.26,2.43,2.43,0,0,0,1,.26" transform="translate(-11.42 -11.66)" fill="#c8bfbf"/>
    <path d="M71.45,39.83A8.06,8.06,0,0,0,68.33,39a8.06,8.06,0,0,1,3.12.86" transform="translate(-11.42 -11.66)" fill="#c8bfbf"/>
    <path d="M78.39,37.12A.74.74,0,0,1,78,37a.74.74,0,0,0,.43.16" transform="translate(-11.42 -11.66)" fill="#c8bfbf"/>
    <path d="M77.94,36.94a1.74,1.74,0,0,0-.93-.43,1.74,1.74,0,0,1,.93.43" transform="translate(-11.42 -11.66)" fill="#c8bfbf"/>
    <path d="M89.66,33.59a14.5,14.5,0,0,1-3.12-.5,14.5,14.5,0,0,0,3.12.5" transform="translate(-11.42 -11.66)" fill="#c8bfbf"/>
    <path d="M85,32.78a8,8,0,0,0-.83-.05,8,8,0,0,1,.83.05" transform="translate(-11.42 -11.66)" fill="#c8bfbf"/>
    <path d="M98.47,30.09a6.36,6.36,0,0,1-2-.33,6.36,6.36,0,0,0,2,.33" transform="translate(-11.42 -11.66)" fill="#c8bfbf"/>
    <path d="M95.52,29.42h0" transform="translate(-11.42 -11.66)" fill="#c8bfbf"/>
    <path d="M105.13,27.25a4.28,4.28,0,0,1-1-.14,4.28,4.28,0,0,0,1,.14" transform="translate(-11.42 -11.66)" fill="#c8bfbf"/>
    <path d="M104.06,27.09a6.43,6.43,0,0,0-1.73-.28,6.43,6.43,0,0,1,1.73.28" transform="translate(-11.42 -11.66)" fill="#c8bfbf"/>
    <path d="M111.87,23.61a3.24,3.24,0,0,1-1.38-.31,3.24,3.24,0,0,0,1.38.31" transform="translate(-11.42 -11.66)" fill="#c8bfbf"/>
    <path d="M108.78,22.81h0" transform="translate(-11.42 -11.66)" fill="#c8bfbf"/>
    <path d="M121.36,18.68h0" transform="translate(-11.42 -11.66)" fill="#c8bfbf"/>
    <path d="M121.25,18.68c-.31,0-.62,0-1-.08.33,0,.64.07,1,.08" transform="translate(-11.42 -11.66)" fill="#c8bfbf"/>
    <path d="M119,18.39a7,7,0,0,0-1-.08,7,7,0,0,1,1,.08" transform="translate(-11.42 -11.66)" fill="#c8bfbf"/>
    <path d="M122.89,16l.1,0-.1,0m0,0h0m-.07,0h0m0,0h0m0,0h0m0,0h0m-5.14.42h0m0,0h0m1.56.3a3.9,3.9,0,0,1-1.56-.3,3.9,3.9,0,0,0,1.56.3m0,0h0m4.48.92v0" transform="translate(-11.42 -11.66)" fill="#c8bfbf"/>
    <path d="M112.62,13.35h0m4,2.54c-1.37-1-2.43-2.54-4-2.54,1.58,0,2.64,1.53,4,2.54" transform="translate(-11.42 -11.66)" fill="#c8bfbf"/>
    <path d="M18.07,51.93c.18,0,.27-.15.27-.65,0-.16,0-.35,0-.59.07,1,0,1.24-.24,1.24m0,0a9.09,9.09,0,0,0-1.64-.41,9.09,9.09,0,0,1,1.64.41m-3.92.21v0a4.24,4.24,0,0,1,2.15-.62,4.24,4.24,0,0,0-2.15.62" transform="translate(-11.42 -11.66)" fill="#010101"/>
    <path d="M18.3,50.38h0a2,2,0,0,1,1.24-2h0a2,2,0,0,0-1.24,2m22.89.83c1,0,1.31-1.72,2.22-2.92-.91,1.2-1.18,2.92-2.22,2.92m0,0h0m-24.88.31h0" transform="translate(-11.42 -11.66)" fill="#010101"/>
    <path d="M15.58,49.71v0m18.52.08a.85.85,0,0,0,.7-.46c.52-.76.45-.68,1.27-1a1.13,1.13,0,0,1,.32-.05,1.13,1.13,0,0,0-.32.05c-.82.31-.75.23-1.27,1a.85.85,0,0,1-.7.46m0,0h0m5.14.24h0M25.78,50c1.67,0,1.29-2.78,1.47-3.76-.18,1,.2,3.76-1.47,3.76m0,0h0m13.48,0h0m0,0h0m0,0h0m0,0h0m0,0h0m0,0,0,0,0,0m0,0h0m0,0,0,0,0,0m.05,0,0,0h0l0,0" transform="translate(-11.42 -11.66)" fill="#010101"/>
    <path d="M15.58,49.32c0-1.79,1.2-1.91,2.63-1.91h0c-1.43,0-2.61.12-2.63,1.91m8.4,0h0a9.23,9.23,0,0,0-1.67-.74,9.23,9.23,0,0,1,1.67.74h0" transform="translate(-11.42 -11.66)" fill="#010101"/>
    <path d="M48.94,49.29h0A.43.43,0,0,1,49,49c.91-1.11,1.88-2.14,2.73-3.32a3.17,3.17,0,0,1,2.33-1.61,3.17,3.17,0,0,0-2.33,1.61C50.91,46.9,49.94,47.93,49,49a.43.43,0,0,0-.09.25" transform="translate(-11.42 -11.66)" fill="#010101"/>
    <path d="M18.9,47.41h0a6,6,0,0,0,2.36-.34,6,6,0,0,1-2.36.34m13,.06h0m0,0,0,0,0,0m0,0h0m0,0v0m0,0h0m0,0h0m-11.49.69h0m22.95.05h0m-7,0h0m-16.86.1a2.33,2.33,0,0,1,.88-.16,2.33,2.33,0,0,0-.88.16m2.68.22h0m0,0h0m26.06.25h0m0,0h0m0,0h0m0,0h0m0,0h0m0,0h0" transform="translate(-11.42 -11.66)" fill="#010101"/>
    <path d="M21.26,47.07l0,0,0,0m23.88.17h0m-.53.09a1.3,1.3,0,0,1,.52-.09,1.3,1.3,0,0,0-.52.09m0,0h0m0,0h0m0,0h0m0,0h0" transform="translate(-11.42 -11.66)" fill="#010101"/>
    <path d="M21.57,46.9c1.36-1-1.45-3.51.91-3.51-.76,0-1,.26-1,.65,0,.55.46,1.37.46,2.05a1,1,0,0,1-.39.81" transform="translate(-11.42 -11.66)" fill="#010101"/>
    <path d="M25.31,43.7h0m38.19,0h0m0,0h0m.54.22c1,0,1.51-2.39,2.24-3.78-.73,1.39-1.25,3.78-2.24,3.78m0,0h0m-10,.17h0m.83.19h0m0,0h0m2.41.87h0c.35-.77.4-2.4,1.37-2.7h0c-1,.3-1,1.93-1.37,2.7m-.26.11a8.42,8.42,0,0,1-2.15-1,8.42,8.42,0,0,0,2.15,1m0,0h0a.23.23,0,0,0,.23-.11.23.23,0,0,1-.23.11m-28.69.33h0m-.48,0a2.59,2.59,0,0,1,.48,0,2.59,2.59,0,0,0-.48,0" transform="translate(-11.42 -11.66)" fill="#010101"/>
    <path d="M25.31,43.7A4.15,4.15,0,0,0,29.41,41a4.15,4.15,0,0,1-4.1,2.73" transform="translate(-11.42 -11.66)" fill="#010101"/>
    <path d="M31.53,37.66l-.23-.07.23.07M68.33,39h0M67,39.29A2.56,2.56,0,0,1,68.33,39a2.56,2.56,0,0,0-1.32.32m0,0h0m4.46.54h0m0,0h0m.06,0h0m0,0h0m0,0h0m1,.26c1.43,0,2-1.87,3-2.94-1,1.07-1.54,2.94-3,2.94m0,0h0M59.87,42.31h0m-1.09.16a3.64,3.64,0,0,1,1.09-.16,3.64,3.64,0,0,0-1.09.16" transform="translate(-11.42 -11.66)" fill="#010101"/>
    <path d="M98.47,30.09c1.49,0,2.8-.66,2.8-2.42,0-.08,0-.16,0-.24.12,1.94-1.23,2.66-2.79,2.66m0,0h0M92,32.69h0c.72-.83,1.18-2.32,2.15-2.91h0c-1,.59-1.43,2.08-2.15,2.91m-7.87,0h0m.85.05h0m0,0h0m0,0h0m0,0h0m0,0h0m0,0h0m1.43.29c-.51-.12-1-.23-1.41-.29.41.06.9.17,1.41.29m3.13.5A2.91,2.91,0,0,0,92,32.7a2.91,2.91,0,0,1-2.33.89m0,0h0m-9.52,1a5,5,0,0,1,4-1.86,5,5,0,0,0-4,1.86m0,0h0m0,0h0l0,0,0,0h0m0,0h0m0,0h0m0,0h0M77,36.51h0m-.07,0h0m0,0h0m1,.42h0m0,0h0m.44.16c.88,0,1.47-2.1,1.68-2.44-.21.34-.8,2.44-1.68,2.44m0,0h0" transform="translate(-11.42 -11.66)" fill="#010101"/>
    <path d="M95.31,29.41h0m1.16.34h0l-.94-.32.94.32h0m0,0h0m-2.3,0a2.34,2.34,0,0,1,1.11-.35,2.34,2.34,0,0,0-1.11.35" transform="translate(-11.42 -11.66)" fill="#010101"/>
    <path d="M119.19,16.77h0m4.48.92h0m-5.73.62h0m-.55,0a4.58,4.58,0,0,1,.53,0,4.58,4.58,0,0,0-.53,0m2.91.26-.66-.11-.69-.1.69.1.66.11m1.1.08a2.81,2.81,0,0,0,2.25-1,2.81,2.81,0,0,1-2.25,1m0,0h0m-6.15,2.17v0c.37-1.11.78-2.28,2.13-2.47-1.35.19-1.76,1.36-2.13,2.47v0m-6.52,2h0m-.47.25a.47.47,0,0,1,.47-.25.47.47,0,0,0-.47.25m0,0h0m0,0h0m2.28.21h0a3.06,3.06,0,0,0-1.68-.47h0a3.06,3.06,0,0,1,1.68.47h0m1.38.31a3.7,3.7,0,0,0,3.34-2.75,3.7,3.7,0,0,1-3.34,2.75m0,0h0m-9.54,3.2h0m-.57,0,.57,0-.57,0m2.31.25h0m.06,0h0m1,.14c2.3,0,2.47-2.67,3.07-4.15-.6,1.48-.77,4.15-3.07,4.15m0,0h0" transform="translate(-11.42 -11.66)" fill="#010101"/>
    <path d="M119.19,16.77a14.11,14.11,0,0,0,3.55-.73,14.11,14.11,0,0,1-3.55.73" transform="translate(-11.42 -11.66)" fill="#010101"/>
    <path d="M110.58,14.11a3.6,3.6,0,0,1,2-.76,3.6,3.6,0,0,0-2,.76" transform="translate(-11.42 -11.66)" fill="#010101"/>
    <path d="M14.14,52.14v0a.82.82,0,0,1,.4-.68c1-.73,1-.69,1-1.71v-.39c0-1.79,1.2-1.91,2.63-1.91h.69a6,6,0,0,0,2.36-.34l0,0h0l.09,0h0l0,0h0l0,0h0l.05,0h0a1,1,0,0,0,.39-.81c0-.68-.46-1.5-.46-2.05,0-.39.22-.65,1-.65h0a7.34,7.34,0,0,1,1.21.14h.08a9.53,9.53,0,0,0,1.54.15h0A4.15,4.15,0,0,0,29.41,41l0,0a13,13,0,0,0,.4-2.24c.21-.88.62-1.16,1.1-1.16a1.64,1.64,0,0,1,.37.05l.23.07c-1.91,4.39-2,9.72,3.71,10.19q.7.06,1.41.06c6.54,0,13.27-3.59,19.15-5.95,10.55-4.23,21.7-7.24,32.37-11.22,7.9-2.94,17.43-5.65,23.31-12,.81-.88.86-2.69-.42-3.24-.49-.22-1-.4-1.5-.58.39-.3.74-.58,1-.77h0a3.6,3.6,0,0,1,2-.76h0c1.58,0,2.64,1.54,4,2.54a4.56,4.56,0,0,0,1,.56h0a3.9,3.9,0,0,0,1.56.3h0a14.11,14.11,0,0,0,3.55-.73h.15l.1,0,.08,0c.21-.05,1.64-.62,2.78-.87a19.92,19.92,0,0,0-2.17,2.58v0h0l0,0a2.81,2.81,0,0,1-2.25,1h-.15c-.31,0-.62,0-1-.08l-.66-.11-.69-.1a7,7,0,0,0-1-.08h0a4.58,4.58,0,0,0-.53,0h0c-1.35.19-1.76,1.36-2.13,2.47v0h0a3.7,3.7,0,0,1-3.34,2.75h0a3.24,3.24,0,0,1-1.38-.31h0a3.06,3.06,0,0,0-1.68-.47h-.1a.47.47,0,0,0-.47.25h0c-.6,1.48-.77,4.15-3.07,4.15h0a4.28,4.28,0,0,1-1-.14h-.07a6.43,6.43,0,0,0-1.73-.28h0l-.57,0h0c-.3,0-.48.19-.48.48v.1c0,.08,0,.16,0,.24,0,1.76-1.31,2.42-2.8,2.42h0a6.36,6.36,0,0,1-2-.33h0l-.94-.32h-.21a2.34,2.34,0,0,0-1.11.35l0,0h0c-1,.59-1.43,2.08-2.15,2.91h0a2.91,2.91,0,0,1-2.33.89h0a14.5,14.5,0,0,1-3.12-.5c-.51-.12-1-.23-1.41-.29H85a8,8,0,0,0-.83-.05h0a5,5,0,0,0-4,1.86l0,0h0l0,0h0c-.21.34-.8,2.44-1.68,2.44h0A.74.74,0,0,1,78,37h0a1.74,1.74,0,0,0-.93-.43h-.12a2.09,2.09,0,0,0-1.31.7c-1,1.07-1.55,2.94-3,2.94h0a2.43,2.43,0,0,1-1-.26h0l0,0h0A8.06,8.06,0,0,0,68.33,39h0a2.56,2.56,0,0,0-1.32.32h0a2.31,2.31,0,0,0-.68.86c-.73,1.39-1.25,3.78-2.24,3.78h0a.88.88,0,0,1-.54-.22h-.05l0,0h0a6.09,6.09,0,0,0-3.57-1.34h0a3.64,3.64,0,0,0-1.09.16h0c-1,.3-1,1.93-1.37,2.7h0a.23.23,0,0,1-.23.11h0a8.42,8.42,0,0,1-2.15-1h0a2.07,2.07,0,0,0-.83-.19h0a3.17,3.17,0,0,0-2.33,1.61C50.91,46.9,49.94,47.93,49,49a.43.43,0,0,0-.09.25.36.36,0,0,0,0,.1l-.53-.45h0l0,0h-.05c-.7-.56-2.09-1.62-3.19-1.62h0a1.3,1.3,0,0,0-.52.09h-.06l0,0h0a2.84,2.84,0,0,0-1.11.91h0c-.91,1.2-1.18,2.92-2.22,2.92h0a3,3,0,0,1-1.76-1l0,0h0l0,0h0l0,0h-.08c-.59-.55-1.87-1.7-2.8-1.73h0a1.13,1.13,0,0,0-.32.05c-.82.31-.75.23-1.27,1a.85.85,0,0,1-.7.46h0c-.87,0-1.78-1.72-2.14-2.25h0v0h0l0,0h0a4.54,4.54,0,0,0-3.45-1.84h0a2.59,2.59,0,0,0-.48,0h0a.72.72,0,0,0-.71.59v0c-.18,1,.2,3.76-1.47,3.76h0a3.71,3.71,0,0,1-1.8-.66h0a9.23,9.23,0,0,0-1.67-.74h-.05a5.19,5.19,0,0,0-1.78-.38h0a2.33,2.33,0,0,0-.88.16h0a2,2,0,0,0-1.24,2c0,.1,0,.2,0,.31s0,.43,0,.59c0,.5-.09.65-.27.65h0a9.09,9.09,0,0,0-1.64-.41h-.13a4.24,4.24,0,0,0-2.15.62" transform="translate(-11.42 -11.66)" fill="#928382"/>
    <path d="M85.34,178.88c.66-.48,1.31-.95,2-1.43-.64.48-1.29,1-2,1.43m0,0h0m0,0h0m-.06,0h0m0,0h0m0,0,0,0,0,0m0,0h0m3,.56h0m1.7.5c-.4-.13-.85-.29-1.38-.45.53.16,1,.32,1.38.45m-3.67.71a2.45,2.45,0,0,1,2-1.21,2.45,2.45,0,0,0-2,1.21m0,0h0m-9,1.43h0m1,.1c2.51,0,5-1.91,7-3.31-2,1.4-4.48,3.31-7,3.31m0,0h0m.59,1.23h0m-.76.12a3.07,3.07,0,0,1,.76-.12,3.07,3.07,0,0,0-.76.12m-.35.19a10,10,0,0,1-.49-1.65,10,10,0,0,0,.49,1.65.86.86,0,0,1,.33-.19h0a.86.86,0,0,0-.33.19m3,.19,0,0,0,0m2.21,1h0c-.73-.32-1.42-.72-2.16-1h0c.74.29,1.43.69,2.16,1m.61.13c1.68,0,2.31-3.38,2.69-4.39-.38,1-1,4.39-2.69,4.39m0,0h0" transform="translate(-11.42 -11.66)" fill="#010101"/>
    <path d="M83.49,185.19h0a1.6,1.6,0,0,1-.61-.13c-.73-.32-1.42-.72-2.16-1h0l0,0a5.39,5.39,0,0,0-1.85-.48h0a3.07,3.07,0,0,0-.76.12h0a.86.86,0,0,0-.33.19,10,10,0,0,1-.49-1.65h0a4.59,4.59,0,0,0,1,.1h0c2.51,0,5-1.91,7-3.31h0l0,0h0l0,0h0c.66-.48,1.31-.95,2-1.43l1.9-1.4c.27,1.35.56,2.71.86,4.06l-.18-.06c-.4-.13-.85-.29-1.38-.45a1.13,1.13,0,0,0-.32,0h0a2.45,2.45,0,0,0-2,1.21h0v0c-.38,1-1,4.39-2.69,4.39h0" transform="translate(-11.42 -11.66)" fill="#c8bfbf"/>
    <path d="M134.32,162.79c3.05-1.31,6.32-2.33,9.46-3.59h0c-3.14,1.26-6.41,2.28-9.46,3.59m12.05.17a3.91,3.91,0,0,1,.49,0h0a3.4,3.4,0,0,0-.45,0M127,165.48h0a70.37,70.37,0,0,0,7.3-2.69,70.37,70.37,0,0,1-7.3,2.69m9,2.24h0m2.2.41h0m.11,0h0m.06,0-.06,0,.06,0m.58.15-.55-.15.55.15m2,.31a2,2,0,0,0,1.95-1.23c1-2,.73-4,3.4-4.44-2.67.44-2.45,2.4-3.4,4.44a2,2,0,0,1-1.95,1.23m-.12,0h0m0,0h0m-7.83,1h0a4.82,4.82,0,0,1,2.09-1.76,2.06,2.06,0,0,1,.91-.18,2.06,2.06,0,0,0-.91.18,4.79,4.79,0,0,0-2.08,1.76" transform="translate(-11.42 -11.66)" fill="#010101"/>
    <path d="M133.05,169.66q-3-2-6-4.18a70.37,70.37,0,0,0,7.3-2.69c3.05-1.31,6.32-2.33,9.46-3.59q1.59,1.89,3.22,3.73h-.14a3.91,3.91,0,0,0-.49,0h-.06c-2.67.44-2.45,2.4-3.4,4.44a2,2,0,0,1-1.95,1.23h-.19a8.34,8.34,0,0,1-1.77-.31l-.55-.15h0l-.06,0h0l-.1,0h0a8.91,8.91,0,0,0-2.18-.41h0a2.06,2.06,0,0,0-.91.18,4.82,4.82,0,0,0-2.09,1.76" transform="translate(-11.42 -11.66)" fill="#c8bfbf"/>
    <path d="M176.49,131h0a20.92,20.92,0,0,0,2.37-4,20.92,20.92,0,0,1-2.37,4m1.29,2.21h0c1.15-2.45,5.09-.55,4.57-4,.52,3.42-3.41,1.54-4.56,4" transform="translate(-11.42 -11.66)" fill="#010101"/>
    <path d="M177.77,133.15c-.42-.74-.85-1.47-1.28-2.2a20.92,20.92,0,0,0,2.37-4c.95-2.22,1.29-4.63,2.86-6.5.81.59,1.6,1.21,1.84,1.39.88.69,1.48,1.11,1.48,1.5s-.41.64-1.43,1a2.4,2.4,0,0,0-1.79,2.31,4.78,4.78,0,0,0,.26,1.44,8,8,0,0,1,.26,1.09c.52,3.42-3.42,1.52-4.57,4" transform="translate(-11.42 -11.66)" fill="#c8bfbf"/>
    <path d="M127.53,71.17c.24-.75.45-1.51.65-2.27.33-.59.65-1.18,1-1.78a.18.18,0,0,1,.16-.09c.13,0,.27.12.21.25-.64,1.32-1.3,2.62-2,3.89" transform="translate(-11.42 -11.66)" fill="#e99308"/>
    <path d="M92.88,112.06l0,0c.09-.12.17-.24.26-.35l.15.06-.36.31m1.6.66,0,0c.08-.16.15-.32.23-.47l.14,0-.33.45" transform="translate(-11.42 -11.66)" fill="#010101"/>
    <path d="M101.19,104.33l-1.7-.46.57-.66.48.13,1.24.32-.59.67" transform="translate(-11.42 -11.66)" fill="#010101"/>
    <path d="M101.78,103.66l-1.24-.32,1.24.32" transform="translate(-11.42 -11.66)" fill="#d57319"/>
    <path d="M104.83,100.22l-1.36-.36h0l-.32-.08c.28-.32.57-.64.86-1l1.74.4-.9,1" transform="translate(-11.42 -11.66)" fill="#010101"/>
    <path d="M107.16,97.69l-1.63-.54,2.17-2.35,1.86.34-2.4,2.55m-1.43,1.54-1.74-.4,1.75.4h0m-2.28.63-.32-.08.32.08m0,0h0" transform="translate(-11.42 -11.66)" fill="#d57319"/>
    <path d="M110.17,94.5l-1.65-.58.58-.63c.55.19,1.1.4,1.65.61l-.58.6" transform="translate(-11.42 -11.66)" fill="#010101"/>
    <path d="M126.36,73.3l-.59-.44q1.26-1.94,2.41-4c-.2.76-.41,1.52-.65,2.27s-.77,1.42-1.17,2.13" transform="translate(-11.42 -11.66)" fill="#d56b12"/>
    <path d="M121.6,80.94c-.22-.2-.45-.36-.64-.51a2.35,2.35,0,0,1-.37-.33c1.82-2.32,3.56-4.72,5.18-7.24l.59.44c-1.49,2.61-3.09,5.15-4.76,7.64" transform="translate(-11.42 -11.66)" fill="#d68534"/>
    <path d="M120.72,82.24a8.91,8.91,0,0,0-1-1.1l.82-1a2.35,2.35,0,0,0,.37.33c.19.15.42.31.64.51-.29.43-.59.86-.88,1.3m-5.85,7.38-.58,0-1.43-.41.63-.71,2,.51-.62.63" transform="translate(-11.42 -11.66)" fill="#010101"/>
    <path d="M116,88.44l-1.87-.7c1.62-1.81,3.2-3.64,4.73-5.51l1.27.32h.06c.27,0,.5-.42.19-.52l-1.06-.36.43-.53a8.91,8.91,0,0,1,1,1.1q-1.86,2.69-3.82,5.29l-.88.91m-.53.55-2-.51h0l2,.51h0m-3.95,4.09c-.56-.22-1.12-.42-1.68-.61l3-3.28,1.43.41.58,0-3.33,3.46" transform="translate(-11.42 -11.66)" fill="#d57319"/>
    <path d="M103.45,99.86h0m1.38.36-1.36-.36,1.36.36" transform="translate(-11.42 -11.66)" fill="#010101"/>
    <path d="M101.78,103.66l-1.24-.32-.48-.13c1-1.16,2-2.3,3.07-3.43l.32.08h0l1.36.36c-1,1.14-2,2.28-3,3.44" transform="translate(-11.42 -11.66)" fill="#af4517"/>
    <path d="M105.74,99.23l-1.75-.4,1.54-1.68,1.63.54-1.42,1.54" transform="translate(-11.42 -11.66)" fill="#af4517"/>
    <path d="M109.56,95.14l-1.86-.34.82-.88,1.65.58c-.2.22-.4.43-.61.64" transform="translate(-11.42 -11.66)" fill="#af4517"/>
    <path d="M115.49,89l-2-.51.66-.74,1.87.7-.53.55" transform="translate(-11.42 -11.66)" fill="#af4517"/>
    <path d="M98.39,107.68l-1.77-.43c.78-.94,1.56-1.86,2.33-2.76l.54-.62,1.7.46c-1,1.11-1.88,2.22-2.8,3.35m-5.71,4.56.15-.2,0,0-.2.18m2.13,0-.14,0a10.37,10.37,0,0,0,.85-2.38c-.61.46-1.39,1.11-2.28,1.9l-.15-.06c1-1.38,2.11-2.72,3.18-4l1.7.52c-.61.76-1.21,1.52-1.81,2.3l-1.35,1.78m-.49.66.12-.23,0,0-.16.21" transform="translate(-11.42 -11.66)" fill="#af4517"/>
    <path d="M110.75,93.9c-.55-.21-1.1-.42-1.65-.61h0c.55.19,1.1.4,1.65.61h0" transform="translate(-11.42 -11.66)" fill="#010101"/>
    <path d="M110.75,93.9c-.55-.21-1.1-.42-1.65-.61l.76-.82c.56.19,1.12.39,1.68.61-.27.27-.53.54-.79.82" transform="translate(-11.42 -11.66)" fill="#af4517"/>
    <path d="M120.21,82.55h-.06l-1.27-.32.46-.56,1.06.36c.31.1.08.52-.19.52" transform="translate(-11.42 -11.66)" fill="#010101"/>
    <path d="M98,108.19l-1.7-.52.35-.42,1.77.43-.42.51" transform="translate(-11.42 -11.66)" fill="#010101"/>
    <path d="M82.49,141.15a1,1,0,0,1-1-.85,35.29,35.29,0,0,1,3.28-15q.73.5,1.5,1c-.3.64-.59,1.28-.86,1.93-1.64,3.83-3.23,8.56-2.78,12.92a.41.41,0,0,1-.16,0" transform="translate(-11.42 -11.66)" fill="#b65317"/>
    <path d="M86.29,126.27q-.77-.47-1.5-1a62.92,62.92,0,0,1,5.74-10.07,3.74,3.74,0,0,1,1,1.71,74.19,74.19,0,0,0-5.25,9.32" transform="translate(-11.42 -11.66)" fill="#b5661a"/>
    <path d="M94.44,112.7c-.54-.19-1.06-.41-1.56-.64l.36-.31c.46.17.94.33,1.43.48-.08.15-.15.31-.23.47M91.54,117a3.74,3.74,0,0,0-1-1.71l1-1.41a2.07,2.07,0,0,1,.62.76h0c.14.29.28.56.43.83-.35.5-.68,1-1,1.52" transform="translate(-11.42 -11.66)" fill="#010101"/>
    <path d="M92.56,115.43c-.15-.27-.29-.54-.43-.83.14.29.28.56.43.83" transform="translate(-11.42 -11.66)" fill="#b65a17"/>
    <path d="M94.67,112.23c-.49-.15-1-.31-1.43-.48.89-.79,1.67-1.44,2.28-1.9a10.37,10.37,0,0,1-.85,2.38m-2.11,3.2c-.15-.27-.29-.54-.43-.83h0a2.07,2.07,0,0,0-.62-.76l1.17-1.59.2-.18c.5.23,1,.45,1.56.64l-.12.23c-.6.83-1.19,1.66-1.76,2.5" transform="translate(-11.42 -11.66)" fill="#953414"/>
    <path d="M139,102.62l0-.27.34-.16.07,0a.26.26,0,0,1,.23.16l-.67.29" transform="translate(-11.42 -11.66)" fill="#e99308"/>
    <path d="M135.23,104.22l3.76-1.87,0,.27-3.73,1.6" transform="translate(-11.42 -11.66)" fill="#e9b872"/>
    <path d="M138.94,102.8a1.1,1.1,0,0,0,0-.18l.67-.29a.12.12,0,0,1-.07.13l-.62.34" transform="translate(-11.42 -11.66)" fill="#d56b12"/>
    <path d="M118,114a7.77,7.77,0,0,0,.66-1.66c1.9-1,3.86-1.9,5.8-2.84q5.4-2.62,10.78-5.29l3.73-1.6a1.1,1.1,0,0,1,0,.18C132,106.55,124.81,110,118,114" transform="translate(-11.42 -11.66)" fill="#d68534"/>
    <path d="M112.49,117.33c-.37,0-.82-.44-.49-.71a38,38,0,0,1,6.65-4.27A7.77,7.77,0,0,1,118,114c-1.79,1-3.56,2.13-5.29,3.26a.37.37,0,0,1-.21.06" transform="translate(-11.42 -11.66)" fill="#010101"/>
    <path d="M126.43,23.75c-7.9,3.44-15.35,7.79-23.07,11.58C94.8,39.54,85.75,42.44,77,46.08,68,49.8,59.34,53,49.76,54.81c-4.53.86-9.11,1.43-13.69,2-2,.23-4,.41-6,.51a46.72,46.72,0,0,0,6.59.16c5.44-.17,10.91-.5,16.31-1.21A91.44,91.44,0,0,0,73.45,50C82.62,45.86,92,42.39,101,37.9c8.67-4.32,16.73-9.76,25.52-13.85.17-.09.13-.39-.08-.3" transform="translate(-11.42 -11.66)" fill="#010101"/>
    <path d="M107.69,19.74a144.44,144.44,0,0,0-18.52,4c-6,1.83-12,4.41-18,6.56S59.14,34.42,53.34,37c-2.89,1.28-5.88,2.27-8.78,3.5-2.7,1.15-6,3.42-9,3.4-.06,0-.11.11,0,.12,4.39.37,9.35-3.13,13.47-4.3C55.1,38,61.19,35.65,67.17,33.56c13.47-4.69,26.63-9.85,40.52-13.18.36-.09.44-.71,0-.64" transform="translate(-11.42 -11.66)" fill="#010101"/>
    <path d="M126.78,29.19c-4.2.08-7.34,2.53-10.62,4.89-4.74,3.42-10.28,5.53-15.44,8.18-4.88,2.52-9.62,5.31-14.47,7.89-5.12,2.73-10.57,5-15.56,7.9-.4.23,0,.76.34.67,10.15-2.38,20-8.07,29.47-12.34,4.41-2,8.91-3.75,13.18-6,3.22-1.72,6.76-4.94,10.44-6.28-1.66,4.41-5.7,8.11-8.26,11.87-.43.64.29,1.59,1,1.06,5-3.81,11.74-8.46,12.23-15.3a2.18,2.18,0,0,0-2.29-2.52" transform="translate(-11.42 -11.66)" fill="#fbf6c1"/>
    <path d="M121.16,70a36.21,36.21,0,0,0-4.37-1.89c3-4.12,5.65-8.69,9.64-11.65a.82.82,0,0,1,.5-.17.93.93,0,0,1,.92,1.07c-.91,4.44-3.53,8.8-6.69,12.64m-50.73,47.8c-1.11,0-2.13-.59-2.88-2.2-.08-.17.08-.31.24-.31a.2.2,0,0,1,.18.1A3,3,0,0,0,70.44,117c1.44,0,3-1.15,4.26-2.36l.52.86c-1.48,1.21-3.23,2.37-4.79,2.37" transform="translate(-11.42 -11.66)" fill="#ffe155"/>
    <path d="M116.23,75.28a2.88,2.88,0,0,1-2.17-1.92,2.07,2.07,0,0,0-.67-1l0,0,.14-.15a37.49,37.49,0,0,0,3.31-4A36.21,36.21,0,0,1,121.16,70a57.88,57.88,0,0,1-4.93,5.26m-41,40.17-.52-.86c.91-.85,1.71-1.73,2.29-2.27,2.28-2.14,4.93-3.93,7.3-6l.21-.19a5.57,5.57,0,0,0,1.13.54c-3.14,2.62-6.32,5.19-9.41,7.91l-1,.85" transform="translate(-11.42 -11.66)" fill="#fff"/>
    <path d="M115.16,76.27c-.29-.13-.61-.26-1-.38-1.16-.41-1.12-1.82-1.94-2.44.35-.38.71-.76,1.07-1.13l0,0a2.07,2.07,0,0,1,.67,1,2.88,2.88,0,0,0,2.17,1.92l-1.07,1m-7.38,7.31-3.41-.71.56-.73c1.19.2,2.37.42,3.55.67-.24.25-.47.51-.7.77m-3,3.44-3-.68.4-.56c1,.21,2,.43,3.08.67l-.49.57m-4.1,4.86c-.82-.16-1.65-.34-2.5-.53l.47-.64,2.18.48h0l.19,0h.17l-.52.62M95.22,98l-2-.45.51-.59,2.16.37-.57.6a.46.46,0,0,0-.07.07m-4.07,3.93-1.69-.38.33-.34,1.8.31-.44.41m-5.52,4.79a5.57,5.57,0,0,1-1.13-.54c.54-.46,1.07-.93,1.59-1.4a2.87,2.87,0,0,0,1,.75l-1.41,1.19" transform="translate(-11.42 -11.66)" fill="#66664e"/>
    <path d="M112.44,78.74c-1-.41-2.06-.78-3.12-1.11-.19-.07-.4-.12-.61-.18,1.15-1.35,2.33-2.69,3.56-4,.82.62.78,2,1.94,2.44.34.12.66.25,1,.38l-.83.74c-.64.56-1.27,1.14-1.89,1.73m-4,4.07c-1.18-.25-2.36-.47-3.55-.67q1.13-1.45,2.28-2.88c1.27.27,2.53.57,3.79.89-.86.86-1.7,1.75-2.52,2.66m-2.57,2.9c-1.09-.12-2.22-.24-3.34-.43.59-.81,1.19-1.61,1.8-2.41l3.41.71c-.63.71-1.25,1.41-1.87,2.13m-.63.74c-1-.24-2-.46-3.08-.67,1,.21,2,.43,3.08.67M102,90.37c-.85-.21-1.69-.46-2.51-.75l.6-.83.71-1q1.59.09,3.18.24l-2,2.35m-1.12.82-2.18-.48,2.18.48m.2,0-.19,0,.19,0m.07,0h0m.06,0h0m-3,3.5c-.68-.24-1.37-.49-2-.75L97,93c.83.1,1.66.22,2.49.35-.41.48-.83,1-1.25,1.42" transform="translate(-11.42 -11.66)" fill="#ffeba1"/>
    <path d="M111.7,79.45c-1.31-.32-2.64-.6-4-.83l1-1.17c.21.06.42.11.61.18,1.06.33,2.09.7,3.12,1.11l-.74.71" transform="translate(-11.42 -11.66)" fill="#e2b366"/>
    <path d="M91.59,101.49l-1.8-.31q1.75-1.8,3.4-3.66l2,.45q-1.77,1.83-3.63,3.52" transform="translate(-11.42 -11.66)" fill="#e2b366"/>
    <path d="M99.44,93.33c-.83-.13-1.66-.25-2.49-.35.42-.54.83-1.08,1.24-1.63.85.19,1.68.37,2.5.53l-1.25,1.45m-3.58,4-2.16-.37c.83-1,1.64-1.93,2.44-2.93.68.26,1.37.51,2,.75-.76.87-1.54,1.72-2.33,2.55" transform="translate(-11.42 -11.66)" fill="#e2b366"/>
    <path d="M105.28,86.45c-1-.24-2-.46-3.08-.67l.37-.5c1.12.19,2.25.31,3.34.43l-.63.74" transform="translate(-11.42 -11.66)" fill="#e2b366"/>
    <path d="M87,105.5a2.87,2.87,0,0,1-1-.75q1.74-1.59,3.37-3.23l1.69.38c-1.35,1.23-2.73,2.43-4.11,3.6" transform="translate(-11.42 -11.66)" fill="#e2b366"/>
    <path d="M103.94,88q-1.59-.15-3.18-.24l1-1.44,3,.68c-.28.33-.56.67-.85,1m-2.73,3.24H101l-.19,0h0l-2.18-.48c.27-.36.53-.72.79-1.09.82.29,1.66.54,2.51.75l-.75.89" transform="translate(-11.42 -11.66)" fill="#e2b366"/>
    <path d="M111,80.15c-1.26-.32-2.52-.62-3.79-.89l.53-.64c1.32.23,2.65.51,4,.83-.23.23-.47.46-.7.7" transform="translate(-11.42 -11.66)" fill="#66664e"/>
    <path d="M139.19,99.51c0-.26,0-.51,0-.77,0-.71,0-1.43-.07-2.13A10.77,10.77,0,0,0,143,94c-.78-1.75-4.13-3.8-5.21-4.62a31.71,31.71,0,0,0-5-9.63c1.6-5.23.72-10.6.53-16a.45.45,0,0,1,.47-.47.42.42,0,0,1,.43.4,120.29,120.29,0,0,1,.23,16.66c-.13,2.86,1.24,3,3.59,4a12.83,12.83,0,0,1,2.89,2c2.55,2.2,6,7.23,3.12,9.57a7.92,7.92,0,0,1-4.87,3.53" transform="translate(-11.42 -11.66)" fill="#ffe155"/>
    <path d="M137.77,89.4l-.17-.14c-1.71-1.45-3.77-2.64-5.14-4.44-1.05-1.37-.12-3.57.31-5l0-.09a31.71,31.71,0,0,1,5,9.63m-16.4,17.65c.07-.24.13-.49.19-.75,3.8-2.14,7.44-4.58,11.12-6.88,1.9-1.18,4.29-1.85,6.45-2.81.05.7.07,1.42.07,2.13,0,.26,0,.51,0,.77-1.61.53-3.35.87-4.92,1.33-4.59,1.34-8.67,3.93-12.9,6.21" transform="translate(-11.42 -11.66)" fill="#fff"/>
    <path d="M118.74,107.87h-.12l.38-.19a.27.27,0,0,1-.26.2m-.68.85a3.7,3.7,0,0,1,.28-.28,4.69,4.69,0,0,0,.71-.79c.85-.44,1.68-.89,2.51-1.35-.06.26-.12.51-.19.75-1.09.58-2.19,1.15-3.31,1.67" transform="translate(-11.42 -11.66)" fill="#66664e"/>
    <path d="M114.72,110.07a.21.21,0,0,1-.07-.41c1.35-.54,2.68-1.15,4-1.8h.12a.27.27,0,0,0,.26-.2l0,0a4.69,4.69,0,0,1-.71.79,3.7,3.7,0,0,0-.28.28,34.43,34.43,0,0,1-3.27,1.33l-.07,0" transform="translate(-11.42 -11.66)" fill="#ffeba1"/>
    <path d="M57.84,95.31c-1.81-3-1.12-5.72.09-8.75s3-5.74,3.39-9.07a.38.38,0,0,0-.72-.23c-2.24,4-4.5,8.08-5,12.69-.36,3.53,2.85,7,4.63,9.74a.14.14,0,1,0,.23-.16c-.87-1.41-1.79-2.79-2.65-4.22" transform="translate(-11.42 -11.66)" fill="#fbf6c1"/>
    <path d="M88.92,157.49c-.63-2.3-1.51-4.34-1.73-6.77-.19-1.9-.22-3.73-.58-5.61-.07-.36-.64-.45-.67,0-.26,2.87-.67,5.93,0,8.78,1,4.06,1.35,8.3,2.47,12.3a.74.74,0,0,0,1.42-.12,22.48,22.48,0,0,0-.92-8.54" transform="translate(-11.42 -11.66)" fill="#fbf6c1"/>
    <path d="M171.85,126.74a78.74,78.74,0,0,0-10.41-9.2,32,32,0,0,0-4.87-3,17,17,0,0,1-6.06-6c-.2-.3-.64,0-.46.32a32.73,32.73,0,0,0,8.88,9.93c3.95,2.73,6.79,8.84,11.61,10a1.32,1.32,0,0,0,1.31-2" transform="translate(-11.42 -11.66)" fill="#fbf6c1"/>
  </g>
</svg>
