<svg xmlns="http://www.w3.org/2000/svg" viewBox="0 0 535.21 811.36">
  <title>38-milk</title>
  <g style="isolation: isolate">
    <g id="Layer_2" data-name="Layer 2">
      <g>
        <ellipse cx="260.02" cy="773.59" rx="192.76" ry="37.77" fill="#9cd2d8" opacity="0.26" style="mix-blend-mode: multiply"/>
        <g>
          <g>
            <path d="M737.54,173.09c-1.2-10.76-11.78-25.8-19.23-25-9.33,1-14.38,22.76-18.2,34-9.38,27.56-33.46,39.81-61.4,48.37s11.21,73.72-37.41,79.11c-8.37.93-14-6.8-14.93-15-.92-8.39,2.56-13.65,1.44-23.73-.91-8.26-6.36-16-14.32-15.08-5.64.63-15.8,11.43-24.44,12.39-20.78,2.3-6.11-52.31-32.55-49.38-22.6,2.51-3.21,94.4-70.06,101.8C350.05,331.3,293.81,176.35,250.26,181.17c-9.89,1.1-15.94,6.8-14.79,17.23,1.8,16.23,32.82,0,47.1,12.33,54.72,47.37,57.49,85.81,89.56,103.45,9.25,5.08,16.77,11.21,22.43,18.56q-7.28.72-14.53,1.57c-15.34,1.83-30.79,3.94-45.73,8-5.94,1.6-12.61,3.46-17.72,7-6,4.18-6,11.83-.31,16.13a26.51,26.51,0,0,1-3.53-2.43l63.15,489.84.59.28,0,.35s21.69,10.57,56.21,16.84l-.07-.53A278.17,278.17,0,0,0,493.81,874a275,275,0,0,0,28.55-.26,280.29,280.29,0,0,0,66.23-12.14,184.12,184.12,0,0,0,23.13-8.71L674.87,363a25.67,25.67,0,0,1-2.56,1.84c.12-.17.23-.35.34-.52a10,10,0,0,0,2.59-4.35c5.81-10.65,8.57-22.38,7.75-29.79-2.06-18.56-18.71-34.55-20.9-54.27C657.38,233.41,742.49,217.76,737.54,173.09Z" transform="translate(-232.4 -94.32)" fill="#fffcf8"/>
            <path d="M757.48,144.28A10.12,10.12,0,1,0,767.6,154.4,10.12,10.12,0,0,0,757.48,144.28Z" transform="translate(-232.4 -94.32)" fill="#fffcf8"/>
            <path d="M242.52,221.46a10.12,10.12,0,1,0,10.12,10.12A10.12,10.12,0,0,0,242.52,221.46Z" transform="translate(-232.4 -94.32)" fill="#fffcf8"/>
            <path d="M739.77,246.77a5.06,5.06,0,1,0,5.06,5.06A5.05,5.05,0,0,0,739.77,246.77Z" transform="translate(-232.4 -94.32)" fill="#fffcf8"/>
          </g>
          <g>
            <g>
              <path d="M365.86,378.31c11.78,1.7,24.89,3.14,39,4.29,1.72-4.88,2.59-11.1,1.72-19-1.34-12.16-5.42-22.36-12-30.91q-7.28.72-14.53,1.57c-15.34,1.83-30.79,3.94-45.73,8-5.94,1.6-12.61,3.46-17.72,7-6,4.18-6,11.83-.31,16.13a56.09,56.09,0,0,0,9.94,4.34C335.63,373,349,375.87,365.86,378.31Z" transform="translate(-232.4 -94.32)" fill="#f4efe9"/>
              <path d="M582.44,382.62c-18.92.34-42.33,1.25-70.48,3.22,7.67-.11,15.24-.29,22.67-.54C551.41,384.75,567.48,383.84,582.44,382.62Z" transform="translate(-232.4 -94.32)" fill="#f4efe9"/>
              <path d="M675.24,360c-.8,1.47-1.67,2.93-2.59,4.35A10,10,0,0,0,675.24,360Z" transform="translate(-232.4 -94.32)" fill="#f4efe9"/>
              <path d="M737.54,173.09c-1.2-10.76-11.78-25.8-19.23-25-9.33,1-14.38,22.76-18.2,34-9.38,27.56-33.46,39.81-61.4,48.37s11.21,73.72-37.41,79.11c-8.37.93-14-6.8-14.93-15-.92-8.39,2.56-13.65,1.44-23.73-.91-8.26-6.36-16-14.32-15.08-5.64.63-15.8,11.43-24.44,12.39-20.78,2.3-6.11-52.31-32.55-49.38-22.6,2.51-3.21,94.4-70.06,101.8C350.05,331.3,293.81,176.35,250.26,181.17c-9.89,1.1-15.94,6.8-14.79,17.23,1.8,16.23,32.82,0,47.1,12.33,54.72,47.37,57.49,85.81,89.56,103.45,9.25,5.08,16.77,11.21,22.43,18.56,6.59,8.55,10.67,18.75,12,30.91.87,7.85,0,14.07-1.72,19,26.86,2.2,57.29,3.37,89,3.37q9.15,0,18.15-.13c28.15-2,51.56-2.88,70.48-3.22,6.28-.51,12.37-1.07,18.23-1.69,7.41-.79,14.46-1.67,21.08-2.62,16.89-2.44,30.23-5.31,39.65-8.52a52.36,52.36,0,0,0,10.91-4.93c.12-.17.23-.35.34-.52.92-1.42,1.79-2.88,2.59-4.35,5.81-10.65,8.57-22.38,7.75-29.79-2.06-18.56-18.71-34.55-20.9-54.27C657.38,233.41,742.49,217.76,737.54,173.09Z" transform="translate(-232.4 -94.32)" fill="#fffcf8"/>
              <path d="M534.63,385.3c-7.43.25-15,.43-22.67.54q-9,.14-18.15.13c-31.67,0-62.1-1.17-89-3.37-14.1-1.15-27.21-2.59-39-4.29-16.89-2.44-30.23-5.31-39.65-8.52a56.09,56.09,0,0,1-9.94-4.34,26.51,26.51,0,0,1-3.53-2.43l63.15,489.84.59.28-63.1-489.48c3.75,3.13,9,5.25,13.47,6.76,9.42,3.22,22.75,6.08,39.64,8.52l2.95.42L432.67,869.8A278.17,278.17,0,0,0,493.81,874a275,275,0,0,0,28.55-.26Z" transform="translate(-232.4 -94.32)" fill="#fcf6ed"/>
              <path d="M661.4,369.79c-9.42,3.21-22.76,6.08-39.65,8.52-6.62.95-13.67,1.83-21.08,2.62L588.59,861.57a184.12,184.12,0,0,0,23.13-8.71L674.87,363a25.67,25.67,0,0,1-2.56,1.84A52.36,52.36,0,0,1,661.4,369.79Z" transform="translate(-232.4 -94.32)" fill="#fcf6ed"/>
              <path d="M600.67,380.93c-5.86.62-11.95,1.18-18.23,1.69-15,1.22-31,2.13-47.81,2.68L522.36,873.71a280.29,280.29,0,0,0,66.23-12.14Z" transform="translate(-232.4 -94.32)" fill="#fffcf8"/>
              <path d="M369.44,379.36l-2.95-.42c-16.89-2.44-30.22-5.3-39.64-8.52-4.45-1.51-9.72-3.63-13.47-6.76l63.1,489.48,0,.35s21.69,10.57,56.21,16.84l-.07-.53Z" transform="translate(-232.4 -94.32)" fill="#f4efe9"/>
            </g>
            <path d="M767.6,154.4a10.12,10.12,0,1,1-10.12-10.12A10.12,10.12,0,0,1,767.6,154.4Z" transform="translate(-232.4 -94.32)" fill="#fffcf8"/>
            <path d="M252.64,231.58a10.12,10.12,0,1,1-10.12-10.12A10.12,10.12,0,0,1,252.64,231.58Z" transform="translate(-232.4 -94.32)" fill="#fffcf8"/>
            <path d="M744.83,251.83a5.06,5.06,0,1,1-5.06-5.06A5.06,5.06,0,0,1,744.83,251.83Z" transform="translate(-232.4 -94.32)" fill="#fffcf8"/>
          </g>
          <g>
            <path d="M594.79,228.75a310.57,310.57,0,0,1-26.42,18.45l-15.8,49.5a293.34,293.34,0,0,0,26.33-18.14Z" transform="translate(-232.4 -94.32)" fill="#fff"/>
            <path d="M627.07,127.58c-8,6.27-17.56,13.41-26.7,19.3l-17.69,55.45a255,255,0,0,0,26.12-17.5Z" transform="translate(-232.4 -94.32)" fill="#fff"/>
            <path d="M635.17,102.18c-4.53-7.25-10.47-10.08-18.64-6l-16.16,50.65c9.14-5.89,18.72-13,26.7-19.3Z" transform="translate(-232.4 -94.32)" fill="#b90232"/>
            <path d="M608.8,184.83a255,255,0,0,1-26.12,17.5L568.37,247.2a310.57,310.57,0,0,0,26.42-18.45Z" transform="translate(-232.4 -94.32)" fill="#b90232"/>
            <path d="M578.9,278.56a293.34,293.34,0,0,1-26.33,18.14l-16.14,50.61a257.72,257.72,0,0,0,26.12-17.5Z" transform="translate(-232.4 -94.32)" fill="#b90232"/>
            <path d="M532.27,360.34l-3.43,10.75-1.34,4.2q10.43-.3,20.82-.89l1.35-4.23,2.82-8.85h0l2.62-8.21,7.44-23.3a257.72,257.72,0,0,1-26.12,17.5L534.92,352Z" transform="translate(-232.4 -94.32)" fill="#fff"/>
          </g>
        </g>
      </g>
    </g>
  </g>
</svg>
