<svg id="Layer_1" data-name="Layer 1" xmlns="http://www.w3.org/2000/svg" viewBox="0 0 185.71 133.33">
  <title>39-Cheese</title>
  <g>
    <path d="M106.66,33.28C35,26.15,5.22,73.37,6.39,76.15L15,77.47l-.07,10.32,14-8.13,163,25.12L174.4,90.09s-11.15,5.43-12.49-1c-.58-2.76,0-9.48,0-9.48L106.66,33.28" transform="translate(-6.36 -32.55)" fill="#fece56"/>
    <path d="M188.83,165.15a6.3,6.3,0,0,1-5.26.26L6.39,137.07V76.15l185.68,28.63v56a8.13,8.13,0,0,1-3.24,4.36" transform="translate(-6.36 -32.55)" fill="#fece56"/>
    <path d="M105.94,51.77c-4.88,0-8.85-1.52-8.85-3.39s4-3.39,8.85-3.39,8.85,1.52,8.85,3.39-4,3.39-8.85,3.39" transform="translate(-6.36 -32.55)" fill="#f59a32"/>
    <path d="M98.16,48.93c-.06,1.3,3.12,2.49,7.1,2.67s7.25-.73,7.31-2-3.12-2.49-7.1-2.67-7.25.73-7.31,2" transform="translate(-6.36 -32.55)" fill="#f9b143"/>
    <path d="M41.83,60.12c-.35,0-.69,0-1,0-2.09-.21-3.15-1.08-3.15-2.29s.83-2.42,2.5-3.81a22,22,0,0,1,12.56-4.72c.35,0,.69,0,1,0,2.09.21,3.15,1.08,3.15,2.29s-.83,2.42-2.5,3.81a22.12,22.12,0,0,1-12.56,4.72" transform="translate(-6.36 -32.55)" fill="#f59a32"/>
    <path d="M43.76,59.8c2.21.18,6.05-1.21,8.57-3.11s2.77-3.58.56-3.75-6,1.21-8.56,3.11-2.77,3.57-.57,3.75" transform="translate(-6.36 -32.55)" fill="#f9b143"/>
    <path d="M162.51,90.57a4.07,4.07,0,0,1-.6-1.48,20.81,20.81,0,0,1-.26-3.74,13.88,13.88,0,0,0,.86,5.22m3.89,1.66h-.35a19.68,19.68,0,0,0,5.83-1.17c-.58.22-1.17.43-1.79.62a14.67,14.67,0,0,1-3.69.56" transform="translate(-6.36 -32.55)" fill="#fabf83"/>
    <path d="M164.8,92.46c-8.76,0-17.18-3.43-17.18-6.79,0-3.16,6.27-5.75,14.29-6.06,0,0-.26,2.36-.26,5v.75a20.81,20.81,0,0,0,.26,3.74,4.07,4.07,0,0,0,.6,1.48l0,.06c.61,1.18,1.95,1.59,3.52,1.59h.35a14.67,14.67,0,0,0,3.69-.56,17.6,17.6,0,0,1-5.29.79" transform="translate(-6.36 -32.55)" fill="#f59a32"/>
    <path d="M171.88,91.05c.85-.32,1.67-.65,2.52-1,0,0-1,.46-2.52,1" transform="translate(-6.36 -32.55)" fill="#fabf83"/>
    <path d="M151.61,89.7c10.46,4,16.72,3.25,22.79.39-15.58,6.75-12.26-5-12.74-5-8.47,0-11.22,4.18-10,4.63" transform="translate(-6.36 -32.55)" fill="#f9b143"/>
    <path d="M91.77,86c-7.51,0-13.6-2.88-13.6-6.43s6.09-6.42,13.6-6.42,13.59,2.88,13.59,6.42S99.28,86,91.77,86" transform="translate(-6.36 -32.55)" fill="#f59a32"/>
    <path d="M82.2,82.8c.08,2,4.87,3.46,10.69,3.21s10.47-2.1,10.38-4.13-4.88-3.46-10.7-3.2S82.11,80.78,82.2,82.8" transform="translate(-6.36 -32.55)" fill="#f9b143"/>
    <path d="M15,77.47,6.39,76.15,15,77.47M192.07,159.6v0m-2.54,5.05a8.22,8.22,0,0,0,2.29-3.15,4.7,4.7,0,0,1-1.86,2.9l-.43.25m-5.33,1a7.64,7.64,0,0,1-.88-.14L6.39,137.07l177.18,28.34a5.19,5.19,0,0,0,.63.21" transform="translate(-6.36 -32.55)" fill="#fedeb6"/>
    <path d="M29,79.58c.41-.4,2.07-2.21-.47-2.91a19.12,19.12,0,0,0-5-.71c-3.08,0-5.28.88-5.7,2L15,77.47c.74-2.62,5.19-4,9.36-4,2.64,0,5.17.56,6.56,1.71,2.52,2.08-1.14,4-1.87,4.4" transform="translate(-6.36 -32.55)" fill="#f9b241"/>
    <path d="M127.64,104.42h0c0,1.53,2,2.76,4.49,2.76s4.5-1.23,4.5-2.76-2-2.77-4.5-2.77-4.49,1.24-4.49,2.77M27,116.12h0c0,4.94,2.63,8.94,5.88,8.94s5.89-4,5.89-8.94-2.63-8.94-5.89-8.94-5.88,4-5.88,8.94m55.22,2.25h0c0,7.51,5.66,13.6,12.65,13.6s12.66-6.09,12.66-13.6-5.66-13.59-12.66-13.59S82.2,110.86,82.2,118.37M162,139a10.23,10.23,0,0,0,4.47,8.24,10.58,10.58,0,0,0,6.09,2,8.65,8.65,0,0,0,7.18-3.55,8.3,8.3,0,0,0,1.49-4.8,10.23,10.23,0,0,0-4.47-8.24,10.59,10.59,0,0,0-6.1-2,8.63,8.63,0,0,0-7.17,3.56A8.2,8.2,0,0,0,162,139m23.31,26.66c-.42,0-.8,0-1.1-.06a5.19,5.19,0,0,1-.63-.21L6.39,137.07V76.15L15,77.47l2.85.44a1.25,1.25,0,0,0-.07.26c-.23,2,.36,8.32,4.94,8.32a4.64,4.64,0,0,0,.63,0c1-.12,5.82-.78,5.62-6.79l163.15,25.12V159.6a8.57,8.57,0,0,1-.25,1.9,8.22,8.22,0,0,1-2.29,3.15,8.78,8.78,0,0,1-4.23,1" transform="translate(-6.36 -32.55)" fill="#f9b241"/>
    <path d="M29,79.63h0l.08,0s0,0-.05,0" transform="translate(-6.36 -32.55)" fill="#f9b241"/>
    <path d="M28.91,80.13c0-.16,0-.32,0-.49l0,0h0l0,0s0,.18,0,.47" transform="translate(-6.36 -32.55)" fill="#f9b241"/>
    <path d="M28.92,79.62,17.8,77.91c.42-1.07,2.62-2,5.7-2a19.12,19.12,0,0,1,5,.71c2.54.7.88,2.51.47,2.91l-.08,0" transform="translate(-6.36 -32.55)" fill="#f59a32"/>
    <path d="M28.92,79.66h0m-6.25,6.83c-4.58,0-5.17-6.3-4.94-8.32a1.25,1.25,0,0,1,.07-.26l11.12,1.71,0,0c0,.17,0,.33,0,.49,0-.29,0-.47,0-.47.2,6-4.6,6.67-5.62,6.79a4.64,4.64,0,0,1-.63,0" transform="translate(-6.36 -32.55)" fill="#f59a32"/>
    <path d="M32.86,125.06c-3.25,0-5.88-4-5.88-8.94s2.63-8.94,5.88-8.94,5.89,4,5.89,8.94-2.63,8.94-5.89,8.94" transform="translate(-6.36 -32.55)" fill="#f18629"/>
    <path d="M30.46,116.51c0,5.37,2.55,7.34,4.59,7.34s3.7-3.29,3.7-7.34-1.65-7.34-3.7-7.34-4.59,2-4.59,7.34" transform="translate(-6.36 -32.55)" fill="#f59a36"/>
    <path d="M172.55,149.23a10.58,10.58,0,0,1-6.09-2A10.23,10.23,0,0,1,162,139a8.2,8.2,0,0,1,1.49-4.79,8.63,8.63,0,0,1,7.17-3.56,10.59,10.59,0,0,1,6.1,2,10.23,10.23,0,0,1,4.47,8.24,8.3,8.3,0,0,1-1.49,4.8,8.65,8.65,0,0,1-7.18,3.55" transform="translate(-6.36 -32.55)" fill="#f18629"/>
    <path d="M168.17,139.46c-.13,4,2.56,7.43,6,7.53s6.34-3.08,6.47-7.14-2.56-7.42-6-7.53-6.34,3.09-6.47,7.14" transform="translate(-6.36 -32.55)" fill="#f59a36"/>
    <path d="M94.85,132c-7,0-12.65-6.09-12.65-13.6s5.66-13.59,12.65-13.59,12.66,6.08,12.66,13.59S101.85,132,94.85,132" transform="translate(-6.36 -32.55)" fill="#f18629"/>
    <path d="M87.05,118.15c-.15,6.92,4.2,12.64,9.73,12.76s10.57-5.36,10.73-12.28S101.87,105,96.34,104.87s-9.13,6.35-9.29,13.28" transform="translate(-6.36 -32.55)" fill="#f59a36"/>
    <path d="M132.13,107.18c-2.48,0-4.49-1.23-4.49-2.76s2-2.77,4.49-2.77,4.5,1.24,4.5,2.77-2,2.76-4.5,2.76" transform="translate(-6.36 -32.55)" fill="#f18629"/>
    <path d="M129.67,103.22c-.19,1.13,1.2,2.3,3.09,2.61s3.58-.36,3.77-1.5-1.21-2.29-3.1-2.6-3.58.36-3.76,1.49" transform="translate(-6.36 -32.55)" fill="#f59a36"/>
  </g>
</svg>
