<svg id="Layer_1" data-name="Layer 1" xmlns="http://www.w3.org/2000/svg" xmlns:xlink="http://www.w3.org/1999/xlink" viewBox="0 0 227.61 172.28">
  <defs>
    <clipPath id="clip-path" transform="translate(17.72 -29.74)">
      <path d="M145,117.41c0,6.64-9.88,12.07-22,12.07h-7.89c-13.87-1.4-16.74,11-24.87,12.06-7.9,1-15.84-7.83-22.32-4.42-13,6.82-22,5.46-29.42-5.72C35.45,126.72,5.71,127,5.68,118.35c0-6.94,20-10.18,22.2-12.75,2.71-3.17-.86-4.19,3.83-7.26,3.79-2.48,20.3-.23,21.88-4.51A17.53,17.53,0,0,1,57,91.38a32.88,32.88,0,0,1,15.51-3.55h50.51c12.08,0,22,5.43,22,12.07v17.51" fill="none"/>
    </clipPath>
    <linearGradient id="linear-gradient" x1="-199.53" y1="400.08" x2="-199.12" y2="400.08" gradientTransform="matrix(0, 182.85, 182.85, 0, -73079.61, 36558.08)" gradientUnits="userSpaceOnUse">
      <stop offset="0" stop-color="#ffee98"/>
      <stop offset="0.02" stop-color="#ffee98"/>
      <stop offset="1" stop-color="#ffe8bb"/>
    </linearGradient>
    <clipPath id="clip-path-2" transform="translate(17.72 -29.74)">
      <path d="M106.37,127.06c-2.52-4.47,3.65-51.3,3.91-53.33L145,63.4l-.07,54.46c-1.07.36-14.4,4.83-23.64,6.37-4.91.82-9.15,1.69-12,2.27-1.61.33-2.69.55-2.95.56" fill="none"/>
    </clipPath>
    <linearGradient id="linear-gradient-2" x1="-199.6" y1="399.84" x2="-199.2" y2="399.84" gradientTransform="matrix(0, 231.28, 231.28, 0, -92349.41, 46187.75)" gradientUnits="userSpaceOnUse">
      <stop offset="0" stop-color="#ffe678"/>
      <stop offset="0.11" stop-color="#ffe678"/>
      <stop offset="1" stop-color="#ffe8bb"/>
    </linearGradient>
    <clipPath id="clip-path-3" transform="translate(17.72 -29.74)">
      <path d="M106.2,127c-1.34-.16-13.36-1.66-27.48-3.88-13.12-2.34-27.41-5.1-35.53-6.87-4.62-1.18-14.58-4-22.12-6.17a78.05,78.05,0,0,1-8.16-3.3c0-1.36.28-23.89.05-28.16a69,69,0,0,1,1.56-17.81,8.25,8.25,0,0,1,2.14-3.58l93.43,16.46-.42,5.7c-3.36,27.13-4.54,43-3.51,47.14l0,.47" fill="none"/>
    </clipPath>
    <linearGradient id="linear-gradient-3" x1="-199.44" y1="400.47" x2="-199.04" y2="400.47" gradientTransform="matrix(-134.77, 0, 0, 134.77, -26777.3, -53879.63)" xlink:href="#linear-gradient"/>
    <clipPath id="clip-path-4" transform="translate(17.72 -29.74)">
      <polyline points="164.6 82.86 137.94 92.1 117.13 127.16 147.72 119.08 164.6 82.86" fill="none"/>
    </clipPath>
    <linearGradient id="linear-gradient-4" x1="-199.49" y1="400.9" x2="-199.09" y2="400.9" gradientTransform="matrix(66.34, 0, 0, -66.34, 13348.08, 26698.79)" gradientUnits="userSpaceOnUse">
      <stop offset="0" stop-color="#ffdd94"/>
      <stop offset="0.03" stop-color="#ffdd94"/>
      <stop offset="1" stop-color="#ffecb8"/>
    </linearGradient>
    <clipPath id="clip-path-5" transform="translate(17.72 -29.74)">
      <path d="M111.38,123.59s4.06,3.57,5.75,3.57c3.27,0,20.5-34.46,20.5-34.46l-4.45-4.87-21.8,35.76" fill="none"/>
    </clipPath>
    <linearGradient id="linear-gradient-5" x1="-199.5" y1="400.26" x2="-199.1" y2="400.26" gradientTransform="matrix(133.31, 0, 0, -133.31, 26665.28, 53467.49)" xlink:href="#linear-gradient-4"/>
    <clipPath id="clip-path-6" transform="translate(17.72 -29.74)">
      <polyline points="119.94 125.67 154.45 141.6 187.75 126.61 149.02 105.94 119.94 125.67" fill="none"/>
    </clipPath>
    <linearGradient id="linear-gradient-6" x1="-199.22" y1="398.27" x2="-198.82" y2="398.27" gradientTransform="matrix(-20.26, 36.59, 44.18, 22.48, -21450.58, -1583.84)" xlink:href="#linear-gradient-4"/>
    <clipPath id="clip-path-7" transform="translate(17.72 -29.74)">
      <path d="M194.75,135.81s-4.81-7.57-7-9.2C183.57,123.47,155,141.3,155,141.3l4.55,9.06,35.22-14.55" fill="none"/>
    </clipPath>
    <linearGradient id="linear-gradient-7" x1="-198.97" y1="399.18" x2="-198.57" y2="399.18" gradientTransform="matrix(-99.16, 63.62, 84.59, 96.01, -53264.72, -25584.83)" xlink:href="#linear-gradient-4"/>
  </defs>
  <title>41-Butter</title>
  <g>
    <g clip-path="url(#clip-path)">
      <rect x="17.66" y="41.22" width="115.36" height="149.32" transform="translate(-44.67 97.69) rotate(-61.76)" fill="url(#linear-gradient)"/>
    </g>
    <g clip-path="url(#clip-path-2)">
      <rect x="87.44" y="58.11" width="73.96" height="74.25" transform="translate(-13.36 84.7) rotate(-44.47)" fill="url(#linear-gradient-2)"/>
    </g>
    <path d="M144.89,63.54l-.07,54.25c-1.47.49-14.49,4.83-23.56,6.34-4.91.82-9.15,1.69-12,2.27-1.45.3-2.53.52-2.87.56C104,122.25,110,76.59,110.38,73.8l34.51-10.26m.2-.27-34.9,10.38s-6.56,49.13-3.88,53.51h0c.58,0,7-1.5,14.94-2.83,9.71-1.62,23.73-6.4,23.73-6.4Z" transform="translate(17.72 -29.74)" fill="#f9d78a"/>
    <path d="M17.12,57.15c3.79-.91,29.41-7,38.27-8.88a7.45,7.45,0,0,1,1.43-.1c12.62,0,82,13.94,87.86,15.12L110.15,73.84l-93-16.69" transform="translate(17.72 -29.74)" fill="#fff3c5"/>
    <path d="M56.82,48.27c12.38,0,79.43,13.42,87.45,15L110.14,73.73,17.61,57.13c5.06-1.21,29.25-7,37.8-8.76a7.15,7.15,0,0,1,1.41-.1m0-.2a7.76,7.76,0,0,0-1.45.1c-9.64,2-38.74,9-38.74,9l93.52,16.78,34.94-10.67S70.1,48.07,56.82,48.07Z" transform="translate(17.72 -29.74)" fill="#f9d78a"/>
    <g clip-path="url(#clip-path-3)">
      <rect x="22.6" y="40.73" width="77.46" height="102.86" transform="translate(-17.78 116.06) rotate(-85.34)" fill="url(#linear-gradient-3)"/>
    </g>
    <path d="M16.7,57.38,110,73.81l-.41,5.6c-3.36,27.12-4.54,43-3.51,47.17l0,.35c-1.84-.23-13.6-1.7-27.35-3.87-13.13-2.34-27.41-5.1-35.53-6.87-4.61-1.17-14.57-4-22.1-6.16a77.84,77.84,0,0,1-8.1-3.28c0-1.87.28-23.87.05-28.1a69.16,69.16,0,0,1,1.56-17.77,8,8,0,0,1,2.08-3.5m-.07-.22a8.44,8.44,0,0,0-2.21,3.67,69.63,69.63,0,0,0-1.56,17.83c.24,4.44,0,28.22,0,28.22A73.51,73.51,0,0,0,21,110.22c7.3,2.09,17.48,5,22.12,6.17,8.1,1.76,22.43,4.53,35.55,6.87,15.08,2.37,27.6,3.9,27.6,3.9l0-.61c-1.47-5.88,2-34.81,3.51-47.11l.42-5.79Z" transform="translate(17.72 -29.74)" fill="#f9d78a"/>
    <g clip-path="url(#clip-path-4)">
      <rect x="116.44" y="79.17" width="48.84" height="51.68" transform="translate(39.95 204.86) rotate(-84.23)" fill="url(#linear-gradient-4)"/>
    </g>
    <g clip-path="url(#clip-path-5)">
      <rect x="100.89" y="86.17" width="47.22" height="42.64" transform="translate(-13.74 130.01) rotate(-59.33)" fill="url(#linear-gradient-5)"/>
    </g>
    <path d="M133.18,87.83l4.45,4.87,27-9.84s-3.14-4.38-4.77-4.41c-6.1-.13-26.65,9.38-26.65,9.38" transform="translate(17.72 -29.74)" fill="#fff3cc"/>
    <g clip-path="url(#clip-path-6)">
      <polygon points="220.88 84.04 190.57 138.78 122.26 104.02 152.57 49.27 220.88 84.04" fill="url(#linear-gradient-6)"/>
    </g>
    <g clip-path="url(#clip-path-7)">
      <polygon points="227.61 110.91 187.07 136.92 157.57 103.44 198.11 77.43 227.61 110.91" fill="url(#linear-gradient-7)"/>
    </g>
    <path d="M159.53,150.36,155,141.3l-35-15.63s2.28,7.08,4.17,8.61c7.24,5.81,35.42,16.08,35.42,16.08" transform="translate(17.72 -29.74)" fill="#fff3cc"/>
  </g>
</svg>
