<svg id="oliveoil" xmlns="http://www.w3.org/2000/svg" xmlns:xlink="http://www.w3.org/1999/xlink" viewBox="0 0 291.37 390">
  <defs>
    <clipPath id="clip-path" transform="translate(-101 -49)">
      <rect x="101" y="49" width="291.37" height="390" fill="none"/>
    </clipPath>
  </defs>
  <title>42-oilveoil</title>
  <g clip-path="url(#clip-path)">
    <path d="M373.73,385.12c0,10.5-37.07,19-82.8,19s-82.79-8.52-82.79-19,37.07-19,82.79-19,82.8,8.52,82.8,19" transform="translate(-101 -49)" fill="#f0f0f0"/>
    <path d="M276.91,406.06c0,16.87-19.71,30.54-44,30.54s-44-13.67-44-30.54,19.7-30.53,44-30.53,44,13.67,44,30.53" transform="translate(-101 -49)" fill="#f0f0f0"/>
    <path d="M228.5,396.64c0,16.86-19.71,30.54-44,30.54s-44-13.68-44-30.54,19.7-30.54,44-30.54,44,13.67,44,30.54" transform="translate(-101 -49)" fill="#f0f0f0"/>
    <path d="M193.29,388.09c0,5.88-19.7,10.64-44,10.64s-44-4.76-44-10.64,19.7-10.64,44-10.64,44,4.77,44,10.64" transform="translate(-101 -49)" fill="#f0f0f0"/>
    <path d="M376,130.14c-4.57-10.94-13.88-18.52-25.75-19.88-8.44-1-24.11-.41-29.81,7.08-4.28,5.63.29,12.26,6.69,13.22a24.53,24.53,0,0,0,8.8-.69c3.88-.79,7.74-1.59,12.15.3a22.75,22.75,0,0,1,11.53,14.11c2.14,7.75-.1,16-3.91,22.86-3.13,5.65-10.23,10.46-11.22,17.12-1.24,8.34,7.28,13.47,14.37,9.33,4-2.34,6.54-7.56,8.75-11.35A103.82,103.82,0,0,0,375.87,165c4.05-11.28,4.83-23.69.15-34.89" transform="translate(-101 -49)" fill="#c2e5eb"/>
    <path d="M316.55,140.58c0-21.56,3.42-31.76,3.42-31.76s-40.71,9.06-67.52,1.48c-2.61-.74,2.74,15.34-2,36.56l67.35.48c-.46-2.14-.87-4.37-1.24-6.76" transform="translate(-101 -49)" fill="#c2e5eb"/>
    <path d="M381.1,248c-.21-.65-.41-1.3-.61-2-3.64-11.88-11.33-19.44-19-29.19-8.13-10.37-16.36-20.68-24.16-31.3-1.65-2.24-3.12-4.89-4.92-7-1.33-1.54-3.2-2.66-4.65-4.15a28.92,28.92,0,0,1-6.71-11c-.54-1.64-1.85-16-3.28-16l-67.35-.48c-2.82,12.64-9.23,27.11-23,40.92-38.59,46.23-60.1,74-33.25,142.76,38.39,49,43.74,63.51,118.32,60.6,8.69-.34,21.13-8.3,28.63-12.38,8.92-4.84,20.56-11.36,26.14-20.13a161.53,161.53,0,0,0,13.89-27c10.5-26.85,8.36-56.68,0-83.65" transform="translate(-101 -49)" fill="#a8a83b"/>
    <path d="M373.26,248.07c-14-43.58-61.57-68.53-104.95-60.4a86.57,86.57,0,0,0-57.83,39.52,122,122,0,0,0,3.09,40.05c8.38,27.22,31.41,44,58.62,52.35,36.08,11.19,75.1,8.34,105.67-9.42,3.5-19.4,1.89-41.91-4.6-62.1" transform="translate(-101 -49)" fill="#fcd936"/>
    <path d="M272.2,319.59C245,311.21,222,294.46,213.57,267.24a122,122,0,0,1-3.09-40.05c-9.91,15.76-15.19,34.68-15.38,54.39-.26,28.37,12.2,56.07,31.82,75.69a87.24,87.24,0,0,0,60.87,25.4c34.81.53,69.68-18.55,84.66-53.87a88.31,88.31,0,0,0,5.41-18.63c-30.57,17.76-69.59,20.61-105.66,9.42" transform="translate(-101 -49)" fill="#fcd936"/>
    <path d="M268.31,187.67a87,87,0,0,0-10.9,2.76c-39.8,13-61.92,50.4-62.31,91.15-.26,28.37,12.2,56.07,31.82,75.69a87.24,87.24,0,0,0,60.87,25.4c-48.3-49.36-56.44-136.32-19.48-195" transform="translate(-101 -49)" fill="#e8b830"/>
    <path d="M304.25,148.65c-9.16.45-19.26.22-28.64-1.81a92.54,92.54,0,0,1-12.67.74c1.11,0-3.58,12.45-3.57,13.14.12,14.84,21.58,13.58,31.29,13.22,1.42-.05,2.84,0,4.23.06,4.89.2,9.52.4,13.2-4,2.19-2.65,2.07-21.66-1.36-21.45l-2.48.14" transform="translate(-101 -49)" fill="#fcd936"/>
    <path d="M314.07,147.52c0,3.38-12.89,6.13-28.79,6.13s-28.79-2.75-28.79-6.13,12.95-5.19,28.85-5.19,28.73,1.81,28.73,5.19" transform="translate(-101 -49)" fill="#8a9133"/>
    <path d="M322.61,81.34c-4.54-10.44-23.33-8.27-32.35-7.31S272,75.45,262.9,76.66c-7.81,1-18.56,1.71-24.31,7.74a4.3,4.3,0,0,0-1.38,2.48c-.42,4.73,10.65,4.41,13.74,6.47a27.62,27.62,0,0,0,15.11,5.14c10.87.75,24.64.61,33.35-6.65a1.69,1.69,0,0,0,.56-.9c7.18-.08,14.33-.66,20.3-3.2a3.09,3.09,0,0,0,2-3,3.14,3.14,0,0,0,.37-3.35" transform="translate(-101 -49)" fill="#9cc2c9"/>
    <path d="M249.66,62.26l11,76s28.48,8.74,46.56-1.74V54.08Z" transform="translate(-101 -49)" fill="#f59457"/>
    <path d="M303.19,138.46a34.65,34.65,0,0,0,4-2V54.08l-38.88,5.53c1.71,30.47,13.05,60.13,34.86,78.85" transform="translate(-101 -49)" fill="#cca161"/>
    <path d="M268.33,59.6l-18.67,2.66,11,76s24.56,7.53,42.54.2c-4.37-3.74-7.14-6.72-8.47-12.46a38.12,38.12,0,0,1-.25-14.67c1.23-7.51,4.14-14.62,7-21.65a73,73,0,0,1-14.4-.23c-3.52-.41-11.26-.67-14-3-2.46-2.07-2.67-9.17-3.18-12.37a139.82,139.82,0,0,1-1.55-14.43" transform="translate(-101 -49)" fill="#b2874f"/>
    <path d="M302.31,51.32c-5.83-2.4-12.61-2.58-19-2.11-11.91.87-24.26,3.93-33,12.08a1.83,1.83,0,0,0-.66,1c-.48,3.16,21.67,4,24,3.93,12.41,0,24.64-3.58,33.59-12.11a22.39,22.39,0,0,0-4.9-2.76" transform="translate(-101 -49)" fill="#b29470"/>
    <path d="M265.27,139.43c.08,1.38.1,2.76.05,4.17,2.53-.41,5.49-.72,8.77-.93,0-.57,0-1.14,0-1.7-3.46-.44-6.48-1-8.78-1.54" transform="translate(-101 -49)" fill="#d9f0f2"/>
    <path d="M259.9,164.35c-5.09,10.89-12.68,20.52-20.12,29.89-2.24,2.81-4.43,5.63-6.54,8.46a86.58,86.58,0,0,1,20.06-10.82,148.75,148.75,0,0,0,11.12-17.29c.58-1.08,1.16-2.21,1.73-3.36a11.39,11.39,0,0,1-6.25-6.88" transform="translate(-101 -49)" fill="#cccc54"/>
    <path d="M253.3,191.88a86.2,86.2,0,0,0-20.06,10.82c-13.7,18.35-24.39,37.28-27.59,60.91-5.32,39.17,10.1,77.5,36.31,99,9.56,7.83,29.89,12.63,30.79,12.63.05,0,0,0-.05-.05-16.48-6.24-79.06-58.72-51.87-133,7-19.22,20.68-34.08,32.47-50.25" transform="translate(-101 -49)" fill="#f2d645"/>
    <path d="M264.33,151.72a45.92,45.92,0,0,1-1.23,4.54,70.85,70.85,0,0,1-3.2,8.09,11.37,11.37,0,0,0,6.25,6.88A84.49,84.49,0,0,0,272.82,153a72.06,72.06,0,0,1-8.49-1.32" transform="translate(-101 -49)" fill="#ffe84a"/>
    <path d="M274.09,142.67c-3.28.21-6.24.52-8.77.93a45,45,0,0,1-1,8.12,72.06,72.06,0,0,0,8.49,1.32,47.88,47.88,0,0,0,1.27-10.37" transform="translate(-101 -49)" fill="#b8bf47"/>
    <path d="M265.27,139.43h0c2.3.51,5.32,1.1,8.78,1.54h0c-3.46-.45-6.48-1-8.78-1.54" transform="translate(-101 -49)" fill="#fabf7a"/>
    <path d="M260.81,115.22c1.85,8.54,4.05,16.2,4.46,24.21,2.3.51,5.33,1.09,8.78,1.53,0-.1,0-.2,0-.3-.14-2.56-2.76-16.33-3.17-24.07a96.26,96.26,0,0,1-10.06-1.37" transform="translate(-101 -49)" fill="#d1b870"/>
    <path d="M304.32,138a45.52,45.52,0,0,1-16,3.57c0,.27,0,.53.07.79a122.38,122.38,0,0,1,16.78,1.23c-.32-1.87-.6-3.74-.86-5.59" transform="translate(-101 -49)" fill="#ebf7fa"/>
    <path d="M309.49,162.79c-.16,3.37-.64,6.25-1.4,7.17-2.92,3.52-6.44,4.12-10.22,4.12-1,0-2,0-3-.08h-.4c1.38,4.6,2.93,9,4.58,13.24a97.17,97.17,0,0,1,24.76,7.26c-6.33-9-11-20.07-14.34-31.7" transform="translate(-101 -49)" fill="#e0e363"/>
    <path d="M299.07,187.23c9.95,25.47,24,45.07,31.64,68.05a138,138,0,0,1,6.86,55.21,100,100,0,0,1-2.28,14.29A123,123,0,0,0,365,316.57a115.2,115.2,0,0,0,2.08-29.42c-.14-2.46-.37-4.92-.71-7.36-3.89-28.61-15.17-56.88-35.31-76.68a63.38,63.38,0,0,1-7.24-8.62,97.17,97.17,0,0,0-24.76-7.26" transform="translate(-101 -49)" fill="#fff259"/>
    <path d="M365,316.57a123.49,123.49,0,0,1-29.72,8.22,109.45,109.45,0,0,1-5.2,16.29c-6.69,16.47-19.34,33-23,36.3,7.34-.14,23.72-5.35,36.32-18C354.67,348,361.7,332.77,365,316.57" transform="translate(-101 -49)" fill="#fff259"/>
    <path d="M306.71,151.61a89.89,89.89,0,0,1-16.91,2A159,159,0,0,0,294.49,174h.4c1,0,2,.08,3,.08,3.78,0,7.3-.6,10.22-4.12.76-.92,1.24-3.8,1.4-7.17-1.05-3.68-2-7.43-2.78-11.18" transform="translate(-101 -49)" fill="#fff259"/>
    <path d="M288.4,142.35c.35,3.88.82,7.61,1.4,11.22a89.89,89.89,0,0,0,16.91-2q-.85-4-1.53-8a122.38,122.38,0,0,0-16.78-1.23" transform="translate(-101 -49)" fill="#d6d957"/>
    <path d="M301.57,137c.52.47,1.05.94,1.62,1.42-.54-.46-1.09-.94-1.62-1.42m2.75.95-1.13.47a46.17,46.17,0,0,1-14.86,3.1h0a45.52,45.52,0,0,0,16-3.57h0" transform="translate(-101 -49)" fill="#fcdb91"/>
    <path d="M302.36,115c-2.78.58-5.59,1-8.43,1.32a35,35,0,0,0,.8,9.63c1.15,5,3.4,7.9,6.84,11,.53.48,1.07,1,1.62,1.43l1.12-.48A215.26,215.26,0,0,1,302.36,115" transform="translate(-101 -49)" fill="#eddea3"/>
    <path d="M293.93,116.36c-2,.21-4,.37-6,.47a185.27,185.27,0,0,0,.41,24.72,46.43,46.43,0,0,0,14.86-3.09c-.56-.49-1.1-1-1.62-1.43-3.44-3.14-5.69-6.05-6.84-11a35,35,0,0,1-.8-9.63" transform="translate(-101 -49)" fill="#e3d685"/>
    <path d="M366.37,213.89c-2.86-3.82-6-8.38-5.14-12.76.58-2.9,2.46-5.34,4.29-7.67,6.69-8.54,12.37-15.23,15.5-25.55,4.46-14.72,3.19-33.47-6.31-46.28-6.11-8.22-18.56-12.5-28.28-13.67-9.32-1.12-17.81,2.13-27.13,3.31,7.74-5.11,14.14-23.56,2.85-18.93-9.36,15.41-25.79,16-43.86,16.09-15.4.14-29.18-5-44.19-6.79a.34.34,0,0,0-.37.23.53.53,0,0,0,.07.47A41.65,41.65,0,0,0,249.59,112c13.57,70-46.17,69.09-64.28,138.13-21.23,80.77,45.27,161.64,130.62,142.37,55.43-12.46,84.47-70.88,74.5-124.27a128.77,128.77,0,0,0-11.69-34.33,143.89,143.89,0,0,0-10-16.77c-.69-1-1.53-2.1-2.39-3.26m1.77,137.56c-34.12,48.33-97,46.15-135.36,18.48-60.05-43.31-56-121.08-19.47-163.4,8.6-10,19.2-18,27.69-28.09,15-17.81,21.15-42.45,13.93-64.57a97.13,97.13,0,0,0,23.36,3.1c10.21.18,20.8-.55,30.59-3.63,2.07-.66,4.27-1.31,6.37-2.13.09.16.18.32.28.47-4.64,11.33-3,30.25.09,42,9.62,35.91,55.7,58.6,69.14,110.32,7.67,29.48.88,62.7-16.62,87.48M350,136.47c9,8.89,9.36,25.89,1.67,35.75-9.71,12.46-26.56,3.22-30-11.61-.23-2.82-.61-5.63-1.08-8.43-1-27.54,20.7-24.34,29.39-15.71M322.18,118c2.93-2.62,8.19-4,11.37-4.57,7.27-1.32,15.37-2.28,22.53.06,15.07,4.92,22.12,21.29,22.16,36.12a51.62,51.62,0,0,1-11.39,32.46c-2.56,3.15-7.34,9.88-11.47,9.82-4.3,0-10.4-7-8.66-11.26.52-1.25,5.77-3.52,7-4.78,11.13-11,12.45-37.49-5.3-47.6-3.69-2.11-7.87-3.78-12.19-3.67a10.72,10.72,0,0,0-4.81,1c-1.44.83-2.25,2.21-3.85,2.88-6.76,2.88-10.06-6.29-5.43-10.44" transform="translate(-101 -49)" fill="#abd1d6"/>
    <path d="M229.67,81.77a25.28,25.28,0,0,0-3.19,1.16c-10.88,5-6.61,11.8,1.8,16.36,1.75.95,3.56,1.82,5.45,2.64a98.45,98.45,0,0,0,26.92,7.1c1,.12,2,.23,3.07.33-16.61-4.85-32.52-11.76-34.05-27.59" transform="translate(-101 -49)" fill="#b0d6d9"/>
    <path d="M310.84,73.91c3.49,1.42,4.92,9.28-2.33,12.31a87.45,87.45,0,0,1-39.29,6.43C238.13,90.7,234.06,82,252,78.23h-.08c-7.39.55-15.2,1.42-22.21,3.54,3.62,37.6,88.63,33.34,98.37,12.77,4.54-9.63-2.67-20.63-17.2-20.63" transform="translate(-101 -49)" fill="#c2e5eb"/>
    <path d="M263.52,111.94a.09.09,0,0,0,0,.18.09.09,0,0,0,0-.18" transform="translate(-101 -49)" fill="#e3f0f2"/>
    <path d="M319,79.49c.47,18.15-25.14,19-38,21.9a.56.56,0,0,0,0,1.07,63.92,63.92,0,0,0,14.75,1.82c13.39,0,23.08-5,25.37-12,2.88-8.84-2.08-10-2.16-12.8" transform="translate(-101 -49)" fill="#ebf7fa"/>
    <path d="M376.25,163.94c-.12.37-.25.73-.38,1.09a93,93,0,0,1-5.07,11.47,51.34,51.34,0,0,0,5.45-12.56" transform="translate(-101 -49)" fill="#d1d4d6"/>
    <path d="M346.64,112.8a26.53,26.53,0,0,0-10.72,2.32c-.79.34-.38,1.6.41,1.6h0l1,0c17.51,0,31,13,32.38,30.31,1.27,15.94-7.7,26.43-13,40.43a1.86,1.86,0,0,0,1.84,2.34,1.57,1.57,0,0,0,.86-.25,31.71,31.71,0,0,0,3.35-2.54c1.57-1.76,3-3.62,4-4.89a49.19,49.19,0,0,0,3.95-5.6A93,93,0,0,0,375.87,165c.13-.36.26-.72.38-1.09l.21-.76c2.21-9.13,2.09-18.81-.63-26.81-4.5-13.25-16-23.57-29.19-23.57" transform="translate(-101 -49)" fill="#ebf7fa"/>
    <path d="M376.46,163.18l-.21.76a51.27,51.27,0,0,1-5.45,12.55,47.59,47.59,0,0,1-3.95,5.61c-1,1.28-2.43,3.13-4,4.89,6.74-5.83,11.37-14.54,13.61-23.81" transform="translate(-101 -49)" fill="#e3f0f2"/>
    <path d="M346.7,264.91c-3.33-12.4-12.27-29.6-27.14-52.22a6.07,6.07,0,0,1,1.67-8.38l.08-.06a6.09,6.09,0,0,1,8.47,1.71c15.73,23.93,25.05,42,28.76,55.86a6.09,6.09,0,0,1-5,7.61h-.08a6.12,6.12,0,0,1-6.78-4.53" transform="translate(-101 -49)" fill="#fff"/>
    <path d="M341.1,342.49l-.07-.05a6,6,0,0,1-2.46-7.83c6-12.5,10-28.63,10.75-44.28a6.12,6.12,0,0,1,12.22.56c-.88,17.19-5.22,35-11.91,48.94a6.09,6.09,0,0,1-8.53,2.66" transform="translate(-101 -49)" fill="#fff"/>
    <path d="M163.9,412.77c18.46,15.05,61.95-3.85,61.42-28.23-.27-12.57-14.1-25.46-26.67-25.75-24-.55-62.64,26.55-36.16,52.71.45.45.93.87,1.41,1.27" transform="translate(-101 -49)" fill="#99962e"/>
    <path d="M193.46,405.54c-14.27-1.67-34.21-8.9-36.77-23.71-4.94,8.87-4.66,19.34,5.8,29.67.45.45.93.87,1.41,1.27,13.18,10.74,39.1,4.18,52.67-9.32a57.36,57.36,0,0,1-23.11,2.09" transform="translate(-101 -49)" fill="#8a8a26"/>
    <path d="M221.08,372.38c-5.11-7.58-14-13.4-22.43-13.59-8.59-.2-19,3.15-27.71,8.71,1.33,20,33.23,14.9,50.14,4.88" transform="translate(-101 -49)" fill="#a6a338"/>
    <path d="M282.88,338.09c-7.78,9.58-15.25,18.56-25.93,25.08s-22.08,9.19-34.21,11.5c-2,.38-1.39,3.21.45,3.36,23.11,1.79,48.07-12.66,62.24-38,.82-1.45-1.28-3.54-2.55-2" transform="translate(-101 -49)" fill="#b2874f"/>
    <path d="M241.35,361.24c-4.79-2.11-9.45-4.11-13.95-6.35-2.21-1.33-4.52-2.61-7-3.84a61.45,61.45,0,0,1-9.12-6.7c-9.34-8.37-16-19.08-20.8-30.57-.76-1.8-3.5-1.19-3,.83A69.56,69.56,0,0,0,203,343.69c-3.65-1.3-7.25-2.47-10.66-3.44a1.92,1.92,0,0,0-1.47,3.5,162.94,162.94,0,0,0,28,13.4,52.32,52.32,0,0,0,21.48,7.69c1.86.2,2.69-2.84,1-3.6" transform="translate(-101 -49)" fill="#b2874f"/>
    <path d="M192.52,304.16c.85-17.74-10.46-33.41-21.69-46-2.71-3.06-27.31-27.09-33.75-22.06C157.7,261,178.4,286.4,191.7,316c.24-2.15.53-5.76.82-11.88" transform="translate(-101 -49)" fill="#699e38"/>
    <path d="M137.08,236.07a3.71,3.71,0,0,0-1.29,2.11c-1.51,5.79,3.36,14.57,5.38,19.87a150.91,150.91,0,0,0,15.05,29.76c2.53,3.82,30.37,35.9,34.94,31.32,0,0,.22-.23.54-3.09-13.3-29.64-34-55.05-54.62-80" transform="translate(-101 -49)" fill="#7db242"/>
    <path d="M143.42,366.44c13.75-1.67,27.72-4.36,39.54-12,7.18-4.64,10.72-9.23,9.58-12.69-31.21,2-61.95,14.44-91,24.63,4.18,7.89,35.54.82,41.86.05" transform="translate(-101 -49)" fill="#7db242"/>
    <path d="M178.35,336c-13.69-1-28.19,1.4-41.31,5.14-7.5,2.13-15.11,4.88-21.64,9.22-4.28,2.83-16.33,8.12-14.14,15.35a4.13,4.13,0,0,0,.3.68c29-10.18,59.77-22.65,91-24.63-1-3-5.45-5.15-14.19-5.76" transform="translate(-101 -49)" fill="#699e38"/>
    <path d="M257.27,276.72c-7.41,10.45-13.27,29.64-13.78,42.5a92.13,92.13,0,0,0,8.6,42c4-30.59,11.1-61,14.64-91.92-2.44-.24-5.54,1.83-9.46,7.37" transform="translate(-101 -49)" fill="#7db242"/>
    <path d="M266.73,269.35c-3.54,30.93-10.62,61.33-14.64,91.92.12.25.22.51.34.75,0,0,17.69-34.72,21.1-52.42,2-10.22,1.68-39.41-6.8-40.25" transform="translate(-101 -49)" fill="#699e38"/>
    <path d="M251.66,342.43a39,39,0,0,0-5.18-18.3c-27.4-48.17-70.2,4.53-39.1,36.94,22.65,23.59,44.86,5,44.28-18.64" transform="translate(-101 -49)" fill="#99962e"/>
    <path d="M220.91,357.76c-14-6.57-21.44-19.52-22.66-33.58-3.64,11.22-1.95,25.34,9.14,36.89,15.55,16.2,30.9,12.5,38.8.93-7.56,1.54-15.91.16-25.28-4.24" transform="translate(-101 -49)" fill="#8a8a26"/>
    <path d="M225.37,342.89c7.83,6.32,16.69,7.65,25.71,6.85a35.86,35.86,0,0,0,.58-7.31,39,39,0,0,0-5.18-18.3c-10.79-19-24-22.29-34.08-17.38-3,13.22,2.09,27.35,13,36.14" transform="translate(-101 -49)" fill="#a6a338"/>
    <path d="M267.09,417c3.5-7.74,5.12-16.3,4.28-23.48-2.68-23-24.54-28.14-42.57-15.81s-23.86,43.84-3.53,56.74c18.56,11.76,34.4-1,41.82-17.45" transform="translate(-101 -49)" fill="#99962e"/>
    <path d="M231.72,423.31c-8.48-7.73-13.32-23.05-12-36.51-10.29,14.8-10.85,37.24,5.52,47.62,11.55,7.32,22,5.15,30.1-1.5-9.12-1-17.83-4.3-23.65-9.61" transform="translate(-101 -49)" fill="#8a8a26"/>
    <path d="M239.29,411.21c5.23,9.67,13.05,14.15,22.28,15.14a49.42,49.42,0,0,0,5.52-9.37c3.49-7.74,5.12-16.3,4.28-23.48-2.05-17.64-15.37-24.73-29.59-21.56-8.61,11.25-9.1,27.05-2.49,39.27" transform="translate(-101 -49)" fill="#a6a338"/>
    <path d="M241.06,321.79c-5-6.2-14.89-13.47-23.25-10.51a1,1,0,0,0-.23,1.75c6.22,4.46,13.25,5.76,18.1,12.39,5.29,7.22,5.45,16,5.93,24.57a1.59,1.59,0,0,0,2.94.8c5.79-9.19,3-20.85-3.49-29" transform="translate(-101 -49)" fill="#b5ba38"/>
    <path d="M239.55,376.74c-1.6.71-.65,3,.84,3.08,7.69.31,15.46,2.33,20.07,9.11,4.2,6.17,3.22,13,2.78,20a2,2,0,0,0,3.31,1.37c14.86-16.22-8.55-41.69-27-33.55" transform="translate(-101 -49)" fill="#b5ba38"/>
    <path d="M203.26,364c-9.88-3-19.91.55-26.23,8.45-.62.77.15,2.06,1.13,1.47,7.22-4.43,16.38-6.11,24.29-2.34,6,2.87,8.52,8.53,13.31,12.68a2.16,2.16,0,0,0,3.63-1.5c1.12-8.91-8.39-16.39-16.13-18.76" transform="translate(-101 -49)" fill="#b5ba38"/>
    <path d="M241,361.34a5.63,5.63,0,0,1-5,5.6,5.24,5.24,0,0,1-.57,0,5.62,5.62,0,0,1-5.62-5.62,5.66,5.66,0,0,1,5.62-5.62,5.62,5.62,0,0,1,5.61,5.62" transform="translate(-101 -49)" fill="#8a8a26"/>
    <path d="M237.7,362.87a5.69,5.69,0,0,1-1.72,4.07,5.24,5.24,0,0,1-.57,0,5.6,5.6,0,0,1-3.86-9.68,5.06,5.06,0,0,1,.55,0,5.61,5.61,0,0,1,5.6,5.61" transform="translate(-101 -49)" fill="#949430"/>
    <path d="M251.58,367.34c-3.23-.27-6.08.16-9.28-.89-2.87-.95-5.08-3.82-7.47-5.66-1.29-1-3,.9-2.16,2.16,3.78,6,13.67,10.21,20.33,6.2,1.4-.84.08-1.69-1.42-1.81" transform="translate(-101 -49)" fill="#b2874f"/>
  </g>
</svg>
