<svg id="Layer_1" data-name="Layer 1" xmlns="http://www.w3.org/2000/svg" xmlns:xlink="http://www.w3.org/1999/xlink" viewBox="0 0 183.66 131.72">
  <defs>
    <clipPath id="clip-path" transform="translate(-7.38 -33.37)">
      <path d="M25.8,134.42,18.8,113l39.79,23c10,5.76,26.26,5.76,36.22,0l76.24-44-7,21.61h0c-.12,1.81-1.36,3.6-3.75,5L86,161.42c-5,2.87-13.11,2.88-18.06,0l-38.45-22.2c-2.24-1.3-3.47-3-3.66-4.69a.59.59,0,0,1,0-.14" fill="none"/>
    </clipPath>
    <linearGradient id="linear-gradient" x1="-141.67" y1="273.12" x2="-141.29" y2="273.12" gradientTransform="matrix(400.77, 0, 0, -400.77, 56790.61, 109552.68)" gradientUnits="userSpaceOnUse">
      <stop offset="0" stop-color="#e0af01"/>
      <stop offset="0.25" stop-color="#e0af01"/>
      <stop offset="0.36" stop-color="#ffd94f"/>
      <stop offset="0.47" stop-color="#fec708"/>
      <stop offset="1" stop-color="#fec708"/>
    </linearGradient>
    <clipPath id="clip-path-2" transform="translate(-7.38 -33.37)">
      <path d="M57.94,142.5c10.14,5.86,26.73,5.86,36.87,0L168.43,100l4-17.6L94.81,127.19c-10.14,5.86-26.73,5.86-36.87,0L17.45,103.81l4.14,17.7,36.35,21" fill="none"/>
    </clipPath>
    <linearGradient id="linear-gradient-2" x1="-141.67" y1="273.06" x2="-141.29" y2="273.06" gradientTransform="matrix(407.89, 0, 0, -407.89, 57797.95, 111461.65)" gradientUnits="userSpaceOnUse">
      <stop offset="0" stop-color="#cc3617"/>
      <stop offset="0.25" stop-color="#cc3617"/>
      <stop offset="0.36" stop-color="#f49f83"/>
      <stop offset="0.47" stop-color="#e8471e"/>
      <stop offset="1" stop-color="#e8471e"/>
    </linearGradient>
    <clipPath id="clip-path-3" transform="translate(-7.38 -33.37)">
      <rect x="7.4" y="33.37" width="183.63" height="131.69" fill="none"/>
    </clipPath>
    <clipPath id="clip-path-4" transform="translate(-7.38 -33.37)">
      <path d="M175.14,71.12V78.3h0c-.17,2.81-2.12,5.6-5.83,7.75L91,131.27c-7.75,4.47-20.39,4.49-28.09,0L20.44,106.81c-3.62-2.1-5.53-4.83-5.73-7.6h0v-7c.23,2.74,2.14,5.44,5.73,7.51L62.89,124.2c7.7,4.45,20.34,4.42,28.09,0L169.3,78.93c3.74-2.16,5.69-5,5.83-7.81h0" fill="none"/>
    </clipPath>
    <linearGradient id="linear-gradient-3" x1="-141.67" y1="273.01" x2="-141.29" y2="273.01" gradientTransform="matrix(422.31, 0, 0, -422.31, 59838.24, 115367.05)" gradientUnits="userSpaceOnUse">
      <stop offset="0" stop-color="#cdcccc"/>
      <stop offset="0.25" stop-color="#cdcccc"/>
      <stop offset="0.36" stop-color="#f2f2f2"/>
      <stop offset="0.47" stop-color="#e7e6e6"/>
      <stop offset="1" stop-color="#e7e6e6"/>
    </linearGradient>
    <clipPath id="clip-path-5" transform="translate(-7.38 -33.37)">
      <path d="M167.07,66.74c2.14,1.24,3.42,2.75,3.42,4s-1.05,2.53-2.85,3.72l-.57-.35L124.61,49.64A24,24,0,0,0,113,46.94a24.33,24.33,0,0,0-11.8,2.75L22.85,94.91a7.31,7.31,0,0,0-.66.41c-1.79-1.17-2.85-2.52-2.85-3.69s1.32-2.86,3.51-4.13l78.33-45.22A24.44,24.44,0,0,1,113,39.53a24.08,24.08,0,0,1,11.63,2.7l42.46,24.51" fill="none"/>
    </clipPath>
    <linearGradient id="linear-gradient-4" x1="-141.67" y1="272.87" x2="-141.29" y2="272.87" gradientTransform="matrix(397.88, 0, 0, -397.88, 56381.22, 108604.07)" gradientUnits="userSpaceOnUse">
      <stop offset="0" stop-color="#e7e6e6"/>
      <stop offset="0.53" stop-color="#e7e6e6"/>
      <stop offset="0.64" stop-color="#f2f2f2"/>
      <stop offset="0.75" stop-color="#cdcccc"/>
      <stop offset="1" stop-color="#cdcccc"/>
    </linearGradient>
    <clipPath id="clip-path-6" transform="translate(-7.38 -33.37)">
      <path d="M167.64,74.5l-.66.41L88.66,120.12a24.38,24.38,0,0,1-11.8,2.75,24,24,0,0,1-11.64-2.7L22.77,95.67l-.58-.35a7.31,7.31,0,0,1,.66-.41l78.33-45.22A24.33,24.33,0,0,1,113,46.94a24,24,0,0,1,11.63,2.7l42.46,24.51.57.35" fill="none"/>
    </clipPath>
    <linearGradient id="linear-gradient-5" x1="-141.8" y1="272.97" x2="-141.42" y2="272.97" gradientTransform="matrix(0, -199.89, -199.89, 0, 54651.31, -28256)" gradientUnits="userSpaceOnUse">
      <stop offset="0" stop-color="#fff"/>
      <stop offset="0.27" stop-color="#ffd02a"/>
      <stop offset="0.68" stop-color="#fec708"/>
      <stop offset="1" stop-color="#fec708"/>
    </linearGradient>
  </defs>
  <title>43-Margarine</title>
  <g>
    <g clip-path="url(#clip-path)">
      <rect x="11.43" y="58.57" width="152.25" height="72.37" fill="url(#linear-gradient)"/>
    </g>
    <g clip-path="url(#clip-path-2)">
      <rect x="10.07" y="49.03" width="154.95" height="65.96" fill="url(#linear-gradient-2)"/>
    </g>
    <g clip-path="url(#clip-path-3)">
      <path d="M188.27,78.71c1.66,1,1.65,2.51,0,3.46l-15.12,8.57-2.09,1.2L94.82,136c-10,5.76-26.27,5.76-36.23,0L18.8,113l-2.43-1.4C7,106.16,6.44,97.52,14.69,91.73c0,.15,0,.3,0,.45v7h0c.2,2.77,2.11,5.5,5.73,7.6l42.45,24.51c7.7,4.44,20.34,4.42,28.09,0L169.3,86.05c3.71-2.15,5.66-4.94,5.83-7.75h0V71.12l13.13,7.59" transform="translate(-7.38 -33.37)" fill="#fff"/>
    </g>
    <g clip-path="url(#clip-path-4)">
      <rect x="7.33" y="37.75" width="160.43" height="64.65" fill="url(#linear-gradient-3)"/>
    </g>
    <g clip-path="url(#clip-path-5)">
      <rect x="11.96" y="6.16" width="151.15" height="55.78" fill="url(#linear-gradient-4)"/>
    </g>
    <g clip-path="url(#clip-path-6)">
      <rect x="14.82" y="13.57" width="145.45" height="75.94" fill="url(#linear-gradient-5)"/>
    </g>
    <path d="M175.13,71.12C175,74,173,76.77,169.3,78.93L91,124.15c-7.75,4.47-20.39,4.5-28.09,0L20.44,99.69c-3.59-2.07-5.5-4.77-5.73-7.51,0-.15,0-.3,0-.45,0-3,1.91-6,5.84-8.25L98.85,38.26c7.75-4.48,20.39-4.5,28.09,0l42.45,24.51c3.83,2.21,5.75,5.13,5.75,8.06,0,.11,0,.22,0,.34m-4.64-.34c0-1.29-1.28-2.8-3.42-4L124.61,42.23A24.08,24.08,0,0,0,113,39.53a24.44,24.44,0,0,0-11.8,2.75L22.85,87.5c-2.19,1.27-3.51,2.81-3.51,4.13s1.06,2.52,2.85,3.69l.58.35,42.45,24.5a24,24,0,0,0,11.64,2.7,24.38,24.38,0,0,0,11.8-2.75L167,74.91l.66-.41C169.44,73.31,170.49,72,170.49,70.78Z" transform="translate(-7.38 -33.37)" fill="#fff"/>
    <path d="M76.86,124.39a25.54,25.54,0,0,1-12.4-2.9L22,97c-2.66-1.53-4.19-3.48-4.19-5.35s1.56-3.88,4.27-5.44L100.42,41A25.85,25.85,0,0,1,113,38a25.52,25.52,0,0,1,12.39,2.9l42.45,24.51C170.48,67,172,68.91,172,70.78s-1.56,3.88-4.27,5.44L89.42,121.44a25.91,25.91,0,0,1-12.56,3M113,41.06a22.78,22.78,0,0,0-11,2.54L23.61,88.82c-2,1.16-2.75,2.32-2.75,2.81s.71,1.59,2.67,2.72L66,118.86a22.46,22.46,0,0,0,10.88,2.49h0a22.83,22.83,0,0,0,11-2.54l78.32-45.22c2-1.16,2.75-2.32,2.75-2.81s-.71-1.59-2.66-2.72L123.85,43.55A22.45,22.45,0,0,0,113,41.06Z" transform="translate(-7.38 -33.37)" fill="#010101"/>
    <g clip-path="url(#clip-path-3)">
      <path d="M22.19,96.83a1.52,1.52,0,0,0,.84-.25l.58-.36L101.94,51a22.92,22.92,0,0,1,11-2.54A22.54,22.54,0,0,1,123.85,51L166.3,75.46l.51.31a1.52,1.52,0,1,0,1.65-2.55c-.2-.13-.41-.26-.64-.39L125.37,48.32A25.64,25.64,0,0,0,113,45.42a26,26,0,0,0-12.56,2.95L22.09,93.59l-.73.45a1.52,1.52,0,0,0,.83,2.79" transform="translate(-7.38 -33.37)" fill="#010101"/>
      <path d="M189,77.39l-12.39-7.16c-.22-3.41-2.51-6.53-6.49-8.83L127.7,36.89A30,30,0,0,0,113,33.37a30.31,30.31,0,0,0-14.89,3.57L19.77,82.16c-4,2.3-6.29,5.4-6.57,8.78-3.92,3-6,6.72-5.81,10.63.19,4.35,3.11,8.37,8.22,11.32l2.42,1.4a1.54,1.54,0,0,0-.06,1.08L25,137a1.54,1.54,0,0,0,.41.64,9.71,9.71,0,0,0,3.33,3l38.45,22.2a19.86,19.86,0,0,0,9.73,2.32,20.08,20.08,0,0,0,9.84-2.35l74.3-42.89a9.47,9.47,0,0,0,3.75-3.64l0,0a1.67,1.67,0,0,0,.08-.2h0s0,0,0,0L172.32,93l1.57-.9L189,83.49a3.32,3.32,0,0,0,0-6.1M21.29,84.79,99.61,39.57A27.22,27.22,0,0,1,113,36.41a26.86,26.86,0,0,1,13.2,3.11L168.63,64c3.22,1.86,5,4.26,5,6.75s-1.8,5-5.08,6.84L90.22,122.83A27.1,27.1,0,0,1,76.86,126a27,27,0,0,1-13.21-3.11L21.2,98.38c-3.07-1.78-4.82-4-5-6.43v-.58C16.35,88.94,18.13,86.62,21.29,84.79Zm152.33-7.24v.59s0,0,0,.06c-.15,2.41-2,4.73-5.07,6.53L90.22,130c-7.22,4.17-19.39,4.19-26.57.05L21.2,105.49c-3-1.75-4.78-4-5-6.34V98.4A16.6,16.6,0,0,0,19.68,101l42.45,24.51A30,30,0,0,0,76.86,129h0a30.3,30.3,0,0,0,14.88-3.57l78.32-45.22A16.88,16.88,0,0,0,173.62,77.55Zm-11.56,37.32a6.72,6.72,0,0,1-2.53,2.33l-74.3,42.9c-4.49,2.6-12.07,2.61-16.53,0l-38.45-22.2a6.75,6.75,0,0,1-2.47-2.25s0,0,0,0l-6.3-19.39,36.37,21c5.21,3,12,4.51,18.87,4.51s13.67-1.51,18.88-4.51l72.82-42Zm25.45-34-15.13,8.58L94.06,134.64c-9.57,5.52-25.14,5.52-34.71,0L17.13,110.26c-4.18-2.41-6.56-5.55-6.71-8.83A8.78,8.78,0,0,1,13.19,95v4.21s0,0,0,.05,0,0,0,.06c.24,3.4,2.55,6.52,6.49,8.8l42.45,24.51a30.15,30.15,0,0,0,14.73,3.51,30.46,30.46,0,0,0,14.88-3.56l78.32-45.22c3.94-2.27,6.26-5.37,6.56-8.73a1.86,1.86,0,0,0,0-.33V73.75L187.51,80a1.22,1.22,0,0,1,.48.4A1.1,1.1,0,0,1,187.51,80.84Z" transform="translate(-7.38 -33.37)" fill="#010101"/>
    </g>
    <path d="M110.41,77.11c.26.48,4.59,6.47,4.72,6.89.46.56.3,1.29-.5,1.75a3.38,3.38,0,0,1-2.91-.08,3.27,3.27,0,0,1-1.14-1.15c-.17-.39-2.4-7-2.4-7l-.12.08c0,.48-1,6.17-1.1,6.73a3.11,3.11,0,0,1-1.22,1.53,3.67,3.67,0,0,1-3.2-.1c-.8-.47-1-1.2-.3-2.07.33-.49,3.46-5.85,3.75-6.32l-.17-.09c-.54.31-6.45,5-7.29,5.53s-2.65,1.33-4.3.38-.3-2.07.53-2.55,8.16-3.44,9.71-4.14l0-.17c-1.39.31-9.13,1.9-11.07,2.24a5.67,5.67,0,0,1-3.58-.18c-.72-.41-1.27-1.22-.18-1.85a7.73,7.73,0,0,1,2.65-.7c1.39-.17,10.11-.37,11.67-.63l0-.17S92.5,73.79,91.82,73.69a3.47,3.47,0,0,1-1.77-.54c-1.27-.73-.85-1.46-.47-1.67a4.86,4.86,0,0,1,3.2-.39c.71.08,11.09,2.57,11.8,2.8l.26-.15c-.43-.24-8.62-3.86-9.29-4.25-1-.56-2.5-1.63-.86-2.58,1.81-1,3.5-.06,4.47.5.8.46,6.51,4.87,7.36,5.36h.25c-.38-.56-4.46-6.26-4.84-7a1.2,1.2,0,0,1,.5-1.75,3.44,3.44,0,0,1,3.32-.17,2.07,2.07,0,0,1,.72.56c.81,1.44,2.11,7.47,2.36,7.77l.29,0a65.75,65.75,0,0,1,1.11-6.73,2.4,2.4,0,0,1,.91-1.51,3.84,3.84,0,0,1,3.63.15c.67.39.72,1,.13,2-.41.88-3.84,6.22-3.84,6.22l.3.17s6.2-5,7-5.53,2.89-1.33,4.54-.38.18,2-.78,2.55c-.59.34-8.58,3.83-9.46,4.14l.3.17c1.81-.41,10-2.05,10.77-2.22a6.61,6.61,0,0,1,3.92.18c.55.32.84,1.27-.29,1.92a6.83,6.83,0,0,1-2.48.6c-.67.1-11,.57-11.79.71l0,.17c.51,0,11.08.83,13.28,1.32a2.82,2.82,0,0,1,1,.39c1,.56.93,1.36,0,1.92a3.94,3.94,0,0,1-3,.29c-.85-.15-11.22-2.65-11.94-2.73v.15c.72.27,8.49,3.78,9.17,4.18,1,.41,2.66,1.53.85,2.57-1.63,1-3.62,0-4.46-.49s-6.35-4.49-7.36-5.36h-.26M110.19,76a1,1,0,0,0-.09-1.89,4,4,0,0,0-3.29-.06c-.83.49-1.08,1.31,0,1.95A3.56,3.56,0,0,0,110.19,76Z" transform="translate(-7.38 -33.37)" fill="#fff"/>
    <path d="M72.17,106.09c-1.52-.8-3.61-1.88-5.2-2.85l-.07,0c1.37,1.1,2.85,2.42,3.73,3.28l4.17,3.91-2.1,1.21-6.65-2.38c-1.52-.53-3.83-1.4-5.71-2.23l-.07,0c1.61,1,3.45,2.15,4.88,3.08l5.07,3.21-2.55,1.47-14.2-9.47,3.12-1.8,6.75,2.5c2.36.86,4.45,1.63,6.44,2.47l0,0c-1.48-1.11-2.86-2.3-4.39-3.65L61.1,101l3.11-1.8,16.23,8.3L77.8,109l-5.63-2.93" transform="translate(-7.38 -33.37)" fill="#e03e13"/>
    <path d="M86.8,103.83l-1.25-.54,0,0c.26.85-.19,1.58-1.16,2.14a6.72,6.72,0,0,1-6.29-.28c-2.91-1.67-1.56-3.84.92-5.3l-.25-.14a3,3,0,0,0-3.06,0A3.51,3.51,0,0,0,74,101.44l-2.54-.84a6.37,6.37,0,0,1,2.59-2.47c3.37-1.94,6.27-.89,8.52.41l4.13,2.39a20.91,20.91,0,0,0,2.72,1.36l-2.66,1.54M81,100.94c-1,.59-2,1.55-.46,2.45a2.75,2.75,0,0,0,2.58.26c.47-.27.72-.75.26-1.25a1.83,1.83,0,0,0-.45-.34Z" transform="translate(-7.38 -33.37)" fill="#e03e13"/>
    <path d="M83,97c-1.12-.64-2.36-1.31-3.43-1.87l2.57-1.49,1.77.84.07,0a1.45,1.45,0,0,1,.39-2.3,3.89,3.89,0,0,1,.68-.34l3,1.71a3.91,3.91,0,0,0-.68.34,1.14,1.14,0,0,0-.21,2,4.9,4.9,0,0,0,1,.7l5.63,3.25-3,1.72L83,97" transform="translate(-7.38 -33.37)" fill="#e03e13"/>
    <path d="M93.83,87c1,.6,2.07,1.32,3.41,2.09l6.33,3.66c2.39,1.38,3.28,2.38,3.23,3.4s-.73,1.84-2.36,2.78a11.8,11.8,0,0,1-3.27,1.29l-1.75-1.64a9,9,0,0,0,2.6-1c1.48-.85,1.07-1.77-.63-2.75l-.68-.4,0,0c.32.63,0,1.31-.87,1.79-2.48,1.43-6.18.42-8.83-1.12-3.7-2.13-4.17-4.33-2.11-5.51a4.84,4.84,0,0,1,3.32-.43l0,0-1-.74L93.83,87m1,4.09a5,5,0,0,0-.93-.41,2.48,2.48,0,0,0-1.86,0c-1.06.61,0,1.69,1.78,2.74,2.07,1.19,3.7,1.46,4.53,1a.61.61,0,0,0,.2-1,2.76,2.76,0,0,0-.75-.59Z" transform="translate(-7.38 -33.37)" fill="#e03e13"/>
    <path d="M111.25,89.71,110,89.17l0,0c.25.85-.2,1.58-1.17,2.14a6.72,6.72,0,0,1-6.29-.27c-2.91-1.68-1.56-3.85.92-5.31l-.25-.14a3,3,0,0,0-3,0,3.46,3.46,0,0,0-1.62,1.67L96,86.48A6.17,6.17,0,0,1,98.55,84c3.36-1.94,6.26-.89,8.51.4l4.13,2.39a22.25,22.25,0,0,0,2.72,1.36l-2.66,1.54m-5.81-2.88c-1,.58-2,1.55-.46,2.44a2.75,2.75,0,0,0,2.58.26c.47-.27.72-.75.27-1.25a2.11,2.11,0,0,0-.46-.34Z" transform="translate(-7.38 -33.37)" fill="#e03e13"/>
    <path d="M107.48,82.92c-1.11-.64-2.36-1.31-3.43-1.87l2.57-1.49,1.77.84.07,0a1.45,1.45,0,0,1,.4-2.3,3.7,3.7,0,0,1,.67-.33l3,1.7a4.71,4.71,0,0,0-.67.34,1.14,1.14,0,0,0-.22,2,5.27,5.27,0,0,0,1,.71l5.63,3.25-3,1.71-7.76-4.48" transform="translate(-7.38 -33.37)" fill="#e03e13"/>
    <path d="M110.24,74.07c1,.54,1,1.31.05,1.83a3.25,3.25,0,0,1-3.08-.09c-1-.56-.91-1.33-.1-1.8a3.26,3.26,0,0,1,3.13.06m11.09,9.82-11.1-6.41,3-1.71,11.1,6.41Z" transform="translate(-7.38 -33.37)" fill="#e03e13"/>
    <path d="M118,76.83c-1.23-.71-2.36-1.29-3.43-1.88l2.55-1.47,1.41.66,0,0c-.3-.85.08-1.72,1.23-2.39,2.1-1.21,4.61-.72,7.09.71l7.13,4.11-3,1.71-6.94-4a3.07,3.07,0,0,0-2.93-.44c-.49.29-.56.72-.1,1.22a3,3,0,0,0,.86.68l6.77,3.9-3,1.71L118,76.83" transform="translate(-7.38 -33.37)" fill="#e03e13"/>
    <path d="M133.53,71.66a4.58,4.58,0,0,0,4.71,0A6.27,6.27,0,0,0,140,70.24l2.54,1A9.2,9.2,0,0,1,140,73.29c-3,1.73-6.65,1.53-10.12-.48-3.72-2.15-4-4.54-1.53-6s5.63-1.08,9,.86a9.81,9.81,0,0,1,1.46.94l-5.24,3m.55-2.73c-1.43-.83-2.9-1.26-3.78-.76s.08,1.61,1.17,2.27Z" transform="translate(-7.38 -33.37)" fill="#e03e13"/>
  </g>
</svg>
