<svg id="food_chart" data-name="food chart" xmlns="http://www.w3.org/2000/svg" viewBox="0 0 780.62 749">
  <title>food_chart</title>
  <g id="carb">
    <path id="carbs" d="M513.91,216.94A287.39,287.39,0,0,1,651,182.36c159.41,0,288.64,129.23,288.64,288.64H1025c0-206.55-167.45-374-374-374a372.32,372.32,0,0,0-177.17,44.55Z" transform="translate(-244.88 -96.5)" stroke="#231f20" stroke-miterlimit="10"/>
    <text transform="matrix(0.97, 0.24, -0.24, 0.97, 468.23, 66.91)" font-size="43.68" font-family="MyriadPro-Regular, Myriad Pro" fill="black">C</text>
    <text transform="matrix(0.95, 0.31, -0.31, 0.95, 492.03, 72.89)" font-size="43.68" font-family="MyriadPro-Regular, Myriad Pro" fill="black">a</text>
    <text transform="translate(511.6 79.31) rotate(21.54)" font-size="43.68" font-family="MyriadPro-Regular, Myriad Pro" fill="black">r</text>
    <text transform="translate(524.77 84.28) rotate(24.67)" font-size="43.68" font-family="MyriadPro-Regular, Myriad Pro" fill="black">b</text>
    <text transform="matrix(0.87, 0.49, -0.49, 0.87, 546.85, 94.41)" font-size="43.68" font-family="MyriadPro-Regular, Myriad Pro" fill="black">o</text>
    <text transform="matrix(0.84, 0.55, -0.55, 0.84, 567.34, 105.75)" font-size="43.68" font-family="MyriadPro-Regular, Myriad Pro" fill="black">h</text>
    <text transform="translate(586.69 118.52) rotate(37.31)" font-size="43.68" font-family="MyriadPro-Regular, Myriad Pro" fill="black">y</text>
    <text transform="translate(602.36 130.33) rotate(41.31)" font-size="43.68" font-family="MyriadPro-Regular, Myriad Pro" fill="black">d</text>
    <text transform="translate(620.43 146.4) rotate(44.81)" font-size="43.68" font-family="MyriadPro-Regular, Myriad Pro" fill="black">r</text>
    <text transform="translate(630.21 155.97) rotate(47.96)" font-size="43.68" font-family="MyriadPro-Regular, Myriad Pro" fill="black">a</text>
    <text transform="translate(643.86 171.22) rotate(51.11)" font-size="43.68" font-family="MyriadPro-Regular, Myriad Pro" fill="black">t</text>
    <text transform="matrix(0.58, 0.81, -0.81, 0.58, 652.63, 181.89)" font-size="43.68" font-family="MyriadPro-Regular, Myriad Pro" fill="black">e</text>
  </g>
</svg>
