<svg id="Layer_1" data-name="Layer 1" xmlns="http://www.w3.org/2000/svg" xmlns:xlink="http://www.w3.org/1999/xlink" viewBox="0 0 789.08 789.08">
  <defs>
    <clipPath id="clip-path" transform="translate(-238.77 -74.82)">
      <path id="_Clipping_Path_" data-name="&lt;Clipping Path&gt;" d="M679.08,635.55c-2.1,0-3.55,2.92-2.75,5.57,4.14,13.82,18,48.6,52.35,48.6s48.5-35,52.77-49c.82-2.67-.64-5.61-2.76-5.6Z" fill="none"/>
    </clipPath>
    <clipPath id="clip-path-2" transform="translate(-238.77 -74.82)">
      <path id="_Clipping_Path_2" data-name="&lt;Clipping Path&gt;" d="M382.9,509.83a4.05,4.05,0,0,0-3.77,5.57c5.66,13.82,24.56,48.6,71.45,48.6s66.2-35,72-49a4.06,4.06,0,0,0-3.77-5.61Z" fill="none"/>
    </clipPath>
  </defs>
  <title>happy</title>
  <g id="food_groups" data-name="food groups">
    <circle cx="394.54" cy="394.54" r="394.54" fill="#fff"/>
  </g>
  <g id="happy">
    <g id="_Group_" data-name="&lt;Group&gt;">
      <g id="_Group_2" data-name="&lt;Group&gt;">
        <path id="_Path_" data-name="&lt;Path&gt;" d="M859.44,615.8A132.56,132.56,0,1,1,726.88,483.24,132.56,132.56,0,0,1,859.44,615.8Z" transform="translate(-238.77 -74.82)" fill="#ffd21f"/>
      </g>
      <g id="_Group_3" data-name="&lt;Group&gt;">
        <path id="_Path_2" data-name="&lt;Path&gt;" d="M679.08,635.55c-2.1,0-3.55,2.92-2.75,5.57,4.14,13.82,18,48.6,52.35,48.6s48.5-35,52.77-49c.82-2.67-.64-5.61-2.76-5.6Z" transform="translate(-238.77 -74.82)" fill="#403408"/>
        <g id="_Clip_Group_" data-name="&lt;Clip Group&gt;">
          <g clip-path="url(#clip-path)">
            <ellipse id="_Path_3" data-name="&lt;Path&gt;" cx="489.36" cy="614.97" rx="37.39" ry="27.68" fill="#ff5a58"/>
          </g>
        </g>
      </g>
      <g id="_Group_4" data-name="&lt;Group&gt;">
        <path id="_Path_4" data-name="&lt;Path&gt;" d="M768.13,605.7s-.24-20.54,18-20.54,17.9,20.38,17.9,20.38" transform="translate(-238.77 -74.82)" fill="none" stroke="#403408" stroke-linecap="round" stroke-miterlimit="10" stroke-width="13.48"/>
        <path id="_Path_5" data-name="&lt;Path&gt;" d="M649.69,605.7s-.24-20.54,18-20.54,17.9,20.38,17.9,20.38" transform="translate(-238.77 -74.82)" fill="none" stroke="#403408" stroke-linecap="round" stroke-miterlimit="10" stroke-width="13.48"/>
      </g>
      <g id="_Group_5" data-name="&lt;Group&gt;">
        <circle id="_Path_6" data-name="&lt;Path&gt;" cx="395.3" cy="560.89" r="19.29" fill="#ff758a" opacity="0.6"/>
        <circle id="_Path_7" data-name="&lt;Path&gt;" cx="580.92" cy="560.89" r="19.29" fill="#ff758a" opacity="0.6"/>
      </g>
    </g>
    <g id="_Group_6" data-name="&lt;Group&gt;">
      <g id="_Group_7" data-name="&lt;Group&gt;">
        <circle id="_Path_8" data-name="&lt;Path&gt;" cx="450.88" cy="476.6" r="132.56" transform="translate(-443.72 383.59) rotate(-45)" fill="#ffd21f"/>
      </g>
      <g id="_Group_8" data-name="&lt;Group&gt;">
        <path id="_Path_9" data-name="&lt;Path&gt;" d="M390.54,478.53h0a9.66,9.66,0,0,1-9.63-9.63V445.79a9.65,9.65,0,0,1,9.63-9.63h0a9.65,9.65,0,0,1,9.62,9.63V468.9A9.66,9.66,0,0,1,390.54,478.53Z" transform="translate(-238.77 -74.82)" fill="#403408"/>
        <path id="_Path_10" data-name="&lt;Path&gt;" d="M511.22,478.53h0a9.67,9.67,0,0,1-9.63-9.63V445.79a9.66,9.66,0,0,1,9.63-9.63h0a9.65,9.65,0,0,1,9.63,9.63V468.9A9.66,9.66,0,0,1,511.22,478.53Z" transform="translate(-238.77 -74.82)" fill="#403408"/>
      </g>
      <g id="_Group_9" data-name="&lt;Group&gt;">
        <path id="_Path_11" data-name="&lt;Path&gt;" d="M382.9,509.83a4.05,4.05,0,0,0-3.77,5.57c5.66,13.82,24.56,48.6,71.45,48.6s66.2-35,72-49a4.06,4.06,0,0,0-3.77-5.61Z" transform="translate(-238.77 -74.82)" fill="#403408"/>
        <g id="_Clip_Group_2" data-name="&lt;Clip Group&gt;">
          <g clip-path="url(#clip-path-2)">
            <ellipse id="_Path_12" data-name="&lt;Path&gt;" cx="211.07" cy="484.76" rx="51.04" ry="27.68" fill="#ff5a58"/>
          </g>
        </g>
      </g>
    </g>
    <g id="_Group_10" data-name="&lt;Group&gt;">
      <g id="_Group_11" data-name="&lt;Group&gt;">
        <path id="_Path_13" data-name="&lt;Path&gt;" d="M879.9,324.79A132.56,132.56,0,1,1,747.34,192.23,132.56,132.56,0,0,1,879.9,324.79Z" transform="translate(-238.77 -74.82)" fill="#ffd21f"/>
      </g>
      <g id="_Group_12" data-name="&lt;Group&gt;">
        <path id="_Path_14" data-name="&lt;Path&gt;" d="M788.58,314.68s-.24-20.54,18.06-20.54,17.89,20.38,17.89,20.38" transform="translate(-238.77 -74.82)" fill="none" stroke="#403408" stroke-linecap="round" stroke-miterlimit="10" stroke-width="13.48"/>
        <path id="_Path_15" data-name="&lt;Path&gt;" d="M670.14,314.68s-.24-20.54,18.06-20.54,17.89,20.38,17.89,20.38" transform="translate(-238.77 -74.82)" fill="none" stroke="#403408" stroke-linecap="round" stroke-miterlimit="10" stroke-width="13.48"/>
      </g>
      <path id="_Path_16" data-name="&lt;Path&gt;" d="M794.84,359.62s-10,35.14-47.71,35.14-47.29-34.87-47.29-34.87" transform="translate(-238.77 -74.82)" fill="none" stroke="#403408" stroke-linecap="round" stroke-miterlimit="10" stroke-width="13.48"/>
    </g>
  </g>
</svg>
