<svg id="Layer_1" data-name="Layer 1" xmlns="http://www.w3.org/2000/svg" viewBox="0 0 789.08 789.08">
  <title>healthy</title>
  <g id="food_groups" data-name="food groups">
    <circle cx="394.54" cy="394.54" r="394.54" fill="#fff"/>
  </g>
  <g id="healthy">
    <g>
      <path d="M944.73,388c56.83,159.17-137,367-306,367s-353.21-209.18-306-367c51.72-173,265.72-173,306,15C676.39,213,884.39,219,944.73,388Z" transform="translate(-238.77 -74.82)" fill="#f94a46"/>
      <polyline points="62.23 469.18 162.23 469.18 176.23 413.18 194.23 535.18 216.23 353.18 242.23 511.18 256.23 469.18 344.23 469.18 364.23 413.18 380.23 535.18 414.23 353.18 438.23 507.18 452.23 469.18 528.23 469.18 550.23 415.18 568.23 535.18 604.23 353.18 618.23 509.18 638.23 469.18 722.23 469.18" fill="none" stroke="#fff" stroke-miterlimit="10" stroke-width="4"/>
    </g>
  </g>
</svg>
