<svg id="Layer_1" data-name="Layer 1" xmlns="http://www.w3.org/2000/svg" viewBox="0 0 789.08 789.08">
  <title>hungry</title>
  <g style="isolation: isolate">
    <g id="food_groups" data-name="food groups">
      <circle cx="394.54" cy="394.54" r="394.54" fill="#fff"/>
    </g>
    <g id="hungry">
      <g>
        <polygon points="418.65 119.3 416.06 118.37 416.75 120.44 414.51 120.36 415.71 122.14 413.03 122.31 415.39 124.36 386.16 206.51 374.67 202.43 403.93 120.27 403.39 119.22 405.45 118.33 404.44 116.22 406.87 116.14 406.39 113.36 408.32 114.07 407.98 111.25 409.81 111.9 410.1 108.73 412.04 109.41 412.04 107.39 414.63 108.3 415.32 106.35 417.51 107.12 504.34 99.14 505.47 111.34 418.65 119.3" fill="#f2f2f2"/>
        <polygon points="443.7 181.29 439.22 233.79 439.06 235.77 438.87 238.65 438.25 245.37 421.58 441.58 295.06 441.58 285.1 336.3 283.13 315.44 278.93 270.36 275.35 232.35 270.51 181.29 443.7 181.29" fill="#ff5400"/>
        <path d="M670.55,256.11H521.19A19.89,19.89,0,0,1,541,236.32H650.75A19.79,19.79,0,0,1,670.55,256.11Z" transform="translate(-238.77 -74.82)" fill="#e8e8e8"/>
        <path d="M517.7,345.19a130.85,130.85,0,0,0,18.37,36.29c17,25,39.76,38.71,66.47,52,19.19,9.77,38.8,19.08,57.62,29.56-17.29-43.19-53.41-64-94.81-95a157.61,157.61,0,0,1-51.23-60.94Z" transform="translate(-238.77 -74.82)" fill="#f2f2f2"/>
        <path d="M523.87,411.13a102.13,102.13,0,0,0,29.4,39c25.64,21.4,61,24.1,89.05,36.2-18-34.67-58.85-42.39-89.76-66.58a220,220,0,0,1-30.66-29.47Z" transform="translate(-238.77 -74.82)" fill="#f2f2f2"/>
        <path d="M581.45,281.33c-23.52.39-35.12,23.89-29.89,44.89,6.49,26.11,46.41,25.59,45.57-3.39l-12.52,3.37c5.6,11,16.47,17.63,28.15,9.76,10.1-6.81,16-18.66,9.45-29.86-5-8.65-17.71-6.87-25-3a23.41,23.41,0,0,0-11.66,28c1.84,5.88,14.8,2.31,13-3.49-1.61-5.09.75-22.9,10.09-17.59,5.78,3.27,3.16,11.7.42,15.83-5.3,7.83-10.14-.57-12.55-5.32-2.13-4.19-12.65-1.27-12.52,3.35.32,10.73-7.62,16.85-15.55,7.06-3.37-4.19-4.78-10.05-5.11-15.31-.71-11,4.33-24.7,16.94-24.9,7.32-.13,10-9.51,1.18-9.37Z" transform="translate(-238.77 -74.82)" fill="#fff"/>
        <path d="M679.08,310.23a28.89,28.89,0,0,1-1.44,3.24l-.62,6.72a13.29,13.29,0,0,1-3.59-1.08c-5.92,6.28-14.89,10.22-23.2,8.26-7.43-1.72-7-13.2-6.75-18.92.28-9.5-12,8.59-13.69,11.56-.81,1.34-3.5,2.32-6.18,2.79-3.58.6-7.16.44-6.63-.55a56.15,56.15,0,0,1,7.53-10.39c6.81-7.71,15.68-12.91,27-12.09,6,.53,4.58,2.39,5.2,7.69.45,3-.78,9,.9,11.56,4.14,6.37,7.27-2.87,8.61-6.45.89-2.25,8.77-5,11.73-3.95l-.16,2C678.27,310.51,678.64,310.32,679.08,310.23Z" transform="translate(-238.77 -74.82)" fill="#fff"/>
      </g>
      <g>
        <path d="M568.48,431.69c-1.06.1-2.14.1-3.29.1-15,.2-31.19-2.11-43-2.11-24.53,0-49.22,1.79-73.79,2.63-21.92.85-44.8,2.64-66.73,3.49-14.57.61-33.86,2.54-50.39-.85a60.47,60.47,0,0,1-9-2.43c7.28-54,120-42.38,151.61-41.52C511.29,391.72,550.55,401,568.48,431.69Z" transform="translate(-238.77 -74.82)" fill="#f7e9ad"/>
        <path d="M563,452.69a10.08,10.08,0,0,1-5.83,4.27c-17.69,6.05-40.11-6-59-3-15.17,1.85-28.46,6.7-43.73,6-10.86,0-19.42-4.16-29.72-6-24.3-3.71-47.32,4.16-71,4.16a69.92,69.92,0,0,1-12.06-.86c-5.84-1-11.64-3.1-14.08-7.56-4.56-8.09,4.86-13.73,12.61-14.59,15.28,3.1,33.05,1.35,46.46.77,20.2-.77,41.3-2.42,61.51-3.2,22.65-.77,45.37-2.42,68-2.42,10.9,0,25.87,2.14,39.65,1.94C562.6,437.63,567,446.87,563,452.69Z" transform="translate(-238.77 -74.82)" fill="#80c41c"/>
        <path d="M572.87,479.39a71.34,71.34,0,0,1-11.44-1.64c-6.22-1.06-12.45-2.31-18.88-1.92C529.18,477,517,480.67,503,480.67c-43.71,0-90.44-5.43-134.16,0-7.39,1-26.54,8.17-41.49,8.85-9.63.48-17.6-1.76-19.25-10.13-3-13.87,10.3-9,17-10.86,5.64-1.64,11.28-6.61,16.51-11.27a69.92,69.92,0,0,0,12.06.86c23.7,0,46.72-7.87,71-4.16,10.3,1.85,18.86,6,29.72,6,15.27.69,28.56-4.16,43.73-6,18.86-3,41.28,9.05,59,3a10.08,10.08,0,0,0,5.83-4.27A53.22,53.22,0,0,1,575.89,460C585.61,468.53,588.63,480.09,572.87,479.39Z" transform="translate(-238.77 -74.82)" fill="#a0642f"/>
        <path d="M569.2,501.28c-7.19-3-13.31,1.26-20.05,3.1-13.28,3.6-26.67,2.33-40,.59-21.87-2.43-40.72-4.28-62.57,0-9.74,2.44-17,5.45-27.31,5.45-10.38-.59-20.11-1.16-30.41-1.16-9.72,0-18.85.57-28.56,3-7.21,1.16-16.93,7.29-24.3,4.88-8.45-3-4.85-7.88-6-15.86-.4-4-1.88-7.78-2.63-11.76,14.95-.68,34.1-7.86,41.49-8.85,43.72-5.43,90.45,0,134.16,0,14,0,26.16-3.69,39.53-4.84,6.43-.39,12.66.86,18.88,1.92C565.91,484.77,571.83,494.66,569.2,501.28Z" transform="translate(-238.77 -74.82)" fill="#e35f00"/>
        <path d="M575.43,496.71c-2.5,14.09-3,31.48-16.33,38.2-20.18,8.93-50.12,1.65-72,6.49-29.15,5.65-63.17,4-93.18,2.44-26.15-1.55-62.46-9.72-72.18-37.5,17-3.32,33.79-7.1,51.18-7.1h96.3c23.52,0,47.8,2.42,72.11,1.65C553.12,500.51,564.28,498.07,575.43,496.71Z" transform="translate(-238.77 -74.82)" fill="#f7e9ad"/>
        <path d="M382.52,386.56c-3.82,3.15-6.43,7.45-9,11.66-1.79,2.95,1.51,4.8,4,5,3.3.21,7.45-1.11,9.23-4.08,2.1-3.45,4.07-6.78,7.22-9.4,2.5-2,1.22-5.08-1.56-5.82-3.56-1-7.23.41-10,2.64Z" transform="translate(-238.77 -74.82)" fill="#fff"/>
        <path d="M403.11,386v8.89c0,2.81,14.09.6,14.09-3.77v-8.91c0-2.77-14.09-.61-14.09,3.79Z" transform="translate(-238.77 -74.82)" fill="#fff"/>
        <path d="M429.59,390.35c2.1,3.57,4.07,7.17,6.48,10.52,3.46,4.81,17-.42,12.93-6-2.41-3.37-4.37-7-6.49-10.54-2.95-5-16.49,0-12.92,6Z" transform="translate(-238.77 -74.82)" fill="#fff"/>
        <path d="M463.46,400.42a31.87,31.87,0,0,1,5.24,7.42c2.12,4.1,15.65-.72,14.08-3.77a38.55,38.55,0,0,0-6.11-8.76c-2.89-3-16.13,2-13.21,5.11Z" transform="translate(-238.77 -74.82)" fill="#fff"/>
        <path d="M483.06,394.77c2.35,1,4.12,3.16,5.89,4.91,4.81,4.73,16.75-2.53,10.77-8.48a28.31,28.31,0,0,0-8.67-6.4c-6.31-2.76-16.31,6.33-8,10Z" transform="translate(-238.77 -74.82)" fill="#fff"/>
        <path d="M514,407.73a22.69,22.69,0,0,1,5.46,5.47c4,5.49,17.31-.17,12.85-6.35a32.71,32.71,0,0,0-7.49-7.5c-5.39-3.89-17.48,3.55-10.82,8.38Z" transform="translate(-238.77 -74.82)" fill="#fff"/>
        <path d="M352,404.19a11.83,11.83,0,0,0-3.85,4.7c-1.07,2.13,5,1.19,5.58,1.07,2.24-.42,7.07-1.32,8.3-3.68a7.7,7.7,0,0,1,2.64-3.38c2.69-1.9-2.41-2.07-3.25-2a19.94,19.94,0,0,0-9.42,3.27Z" transform="translate(-238.77 -74.82)" fill="#fff"/>
      </g>
      <g>
        <g>
          <path d="M503,457.31c-.14,0-.15.1-.16.15.91-.22,1.88-.42,2.81-.69h.07a38,38,0,0,0,5.44-1.87,15.69,15.69,0,0,0-5.85,1.21l0-.07c-.14.1-.34.11-.5.26a1.2,1.2,0,0,0-.64.36A3.74,3.74,0,0,0,503,457.31Z" transform="translate(-238.77 -74.82)" fill="#f8ef54"/>
          <path d="M504.37,489a1,1,0,0,0,.28.43c.45.91,1,1.77,1.5,2.77,10.58,17.81,31.77,37.08,63.39,45.13l.1,0a123.72,123.72,0,0,0,25.78,3.78c19.68.91,36.18-1.7,49.81-6.21h0a106.93,106.93,0,0,0,24.2-11.43c21.57-13.59,31-30.92,32.46-35.21s1.74-11.39,1.74-11.39l1.67-4.49a6,6,0,0,1-3.43-.08,3.76,3.76,0,0,1-1.1-1.05,6.73,6.73,0,0,1-.72-1,10.39,10.39,0,0,0-.88-1.25l0-.08c-.9-1.19-1.06-2.1-2.13-3a14.29,14.29,0,0,1-2.45-2.18,5.64,5.64,0,0,1-.46-.65l-2.84.69a21.07,21.07,0,0,0-11.91-.27c-9.26,2.27-78,56-154.39-4.23a21.9,21.9,0,0,0-13.86-4.38,15.69,15.69,0,0,0-5.85,1.21,2.7,2.7,0,0,0-.54.19,1.2,1.2,0,0,0-.64.36,3.74,3.74,0,0,0-1.13.64c-.14,0-.15.1-.16.15a2.61,2.61,0,0,0-.79.68,1.63,1.63,0,0,0-.37.23C496.46,463.75,497.41,475.73,504.37,489Z" transform="translate(-238.77 -74.82)" fill="#f8ef54"/>
          <path d="M694.15,463.1a5.64,5.64,0,0,0,.46.65,14.29,14.29,0,0,0,2.45,2.18c1.07.94,1.23,1.85,2.13,3,.53.88,1.78,2.9,2.73,3.36a6,6,0,0,0,3.43.08l1.07-2.9-7.56-7.6Z" transform="translate(-238.77 -74.82)" fill="#604b3b"/>
          <path d="M662.91,542.45c.05.24.12.49.21.78.35,1.06-.71,2.6-.11,3.69.74,1.3,2.41,1.49,2.9,2.94.24,1,.05,5.36.83,6.23s2.87.8,4.07-.27l2-1.88-4.89-10.1Z" transform="translate(-238.77 -74.82)" fill="#604b3b"/>
          <path d="M457.43,403.94c-.82,3.45-.29,7.72,1.61,9.65s10.48,2.46,10.43,4.8-4.09,24-.89,34.55a22.82,22.82,0,0,1,2.41-6.31v-.05a12.23,12.23,0,0,1,3.17-3.71,10.11,10.11,0,0,1,1.37-.85,5.64,5.64,0,0,1,1.44-.6,7.85,7.85,0,0,1,1.21-.14,8.19,8.19,0,0,1,2.83.05.25.25,0,0,1,.18,0v.07c6.22.91,14.12,6,18.23,12.63l2.29,3.69,1.12-.23s0-.12.16-.15a2.43,2.43,0,0,1,1.13-.64,1.2,1.2,0,0,1,.64-.36c.16-.15.36-.16.5-.26l0,.07a15.69,15.69,0,0,1,5.85-1.21,6.74,6.74,0,0,0,.68-.28c-6.46-5.41-6.65-14.29-7.23-21.79-.61-5.58.16-12,3.46-12.65,1.87-9.28-3.73-9.06-12.53-12.66-8.09-3.45-16.26-8.11-24.89-9.33C458.56,400.11,458.23,400.53,457.43,403.94Z" transform="translate(-238.77 -74.82)" fill="#f8ef54"/>
          <path d="M457.44,403.86c-.81,3.47-.26,7.74,1.61,9.65s10.5,2.48,10.44,4.83-4.09,24-.9,34.52a22.56,22.56,0,0,1,2.43-6.3l2.14-2.82c-1.06-5.8-.37-10.24.35-16.75.17-2.24,1.89-8,.86-10.24-1.34-2.17-3.34-1.28-4.3-3.8a1.21,1.21,0,0,1-.1-.32c-.85-2.93.63-11,.68-14.5C458.58,400.06,458.23,400.47,457.44,403.86Z" transform="translate(-238.77 -74.82)" fill="#999" opacity="0.36" style="mix-blend-mode: multiply"/>
          <path d="M483.79,442c1.58-.49,3.38.56,5.25,2.35A29,29,0,0,1,499.42,454l2.25,3.62c.25.05.39.15.63.21a1,1,0,0,0-.3.25c-.08.09-.22.18-.33.29-5.21,5.38-4.26,17.36,2.7,30.62a1,1,0,0,0,.24.29c0,.07,0,.07,0,.14.45.91,1,1.77,1.5,2.77,10.5,17.67,31.6,36.79,62.87,45h.12a126.46,126.46,0,0,0,26.29,3.91c19.57.91,35.94-1.68,49.56-6.14a107.68,107.68,0,0,0,24.49-11.43c21.57-13.59,31-30.92,32.46-35.21s1.74-11.39,1.74-11.39l1.67-4.49,0-.07a6.12,6.12,0,0,1-3.44,0c-.13,0-.17-.11-.28-.19a3.78,3.78,0,0,1-.84-.82c-.24-.31-.53-.69-.72-1a10.39,10.39,0,0,0-.88-1.25c-15.86,19.09-46.45,29.81-68.47,34.65-26,5.21-49.07,4.9-74.12-4.59-20.68-7.46-40.34-22.67-50.92-42.33h-.07c-.13-.22-.21-.43-.34-.65l0-.07c-.89-3.84-11.58-14.4-12.47-18.27-1.09-5.07,1-17.08-4.54-16.7C485.19,427.79,484.69,435,483.79,442Z" transform="translate(-238.77 -74.82)" fill="#999" opacity="0.36" style="mix-blend-mode: multiply"/>
          <path d="M468.58,452.94c-3.47,14.2.21,39.3,15.88,64.13.81,1.3,1.68,2.62,2.54,3.93a133.17,133.17,0,0,0,15.92,19.09c2.53,2.44,5.1,4.84,7.89,7.23a149.25,149.25,0,0,0,23.84,16.61c24.33,13.76,46,19.25,64.4,20.28,2.7.15,5.34.21,7.88.18,1.3,0,2.6,0,3.85-.08A108.52,108.52,0,0,0,631,581.54c1-.27,2-.47,2.94-.74a100.05,100.05,0,0,0,14.85-5.29c1.66-.79,3.28-1.57,4.68-2.3s2.63-1.47,3.72-2.16a31.84,31.84,0,0,0,5.1-3.8c2.84-2.85,5.43-8.54,5.43-8.54l3.06-2.87a8.09,8.09,0,0,1-3.28-1.83,2,2,0,0,0-.14-.22,2.39,2.39,0,0,0-.12-.22,7.6,7.6,0,0,1-.51-1,4.79,4.79,0,0,1-.4-1.15,11.16,11.16,0,0,1-.45-1.53c-.45-1.47-.32-2.31-1-3.6a16.33,16.33,0,0,1-1.7-3,6,6,0,0,1-.2-.78l-3-.84a29.11,29.11,0,0,0-11.53-6.23,14.29,14.29,0,0,0-3.11-.43h0a.33.33,0,0,0-.24,0c-18.49-1.39-92.27.85-142.95-76.79,0,0,0-.06,0-.06a1.2,1.2,0,0,0-.29-.39L499.42,454A29,29,0,0,0,489,444.32a19.89,19.89,0,0,0-5.25-2.35,20.57,20.57,0,0,0-2.6-.6l-.17,0a13.47,13.47,0,0,0-2.83-.05c-.38,0-.82.12-1.22.2a10.57,10.57,0,0,0-1.43.54,10.11,10.11,0,0,0-1.37.85,12.23,12.23,0,0,0-3.17,3.71v.05A22.82,22.82,0,0,0,468.58,452.94Z" transform="translate(-238.77 -74.82)" fill="#f8ef54"/>
          <path d="M468.58,452.94c-3.47,14.2.21,39.3,15.88,64.13.81,1.3,1.68,2.62,2.54,3.93a133.17,133.17,0,0,0,15.92,19.09c2.53,2.44,5.1,4.84,7.89,7.23a149.25,149.25,0,0,0,23.84,16.61c24.33,13.76,46,19.25,64.4,20.28,2.7.15,5.34.21,7.88.18,1.3,0,2.6,0,3.85-.08A108.52,108.52,0,0,0,631,581.54c1-.27,2-.47,2.94-.74a100.05,100.05,0,0,0,14.85-5.29c1.66-.79,3.28-1.57,4.68-2.3s2.63-1.47,3.72-2.16a31.84,31.84,0,0,0,5.1-3.8c2.84-2.85,5.43-8.54,5.43-8.54l3.06-2.87.08-.05A8.29,8.29,0,0,1,667.5,554c0-.07-.08-.09-.15-.17a2.39,2.39,0,0,0-.12-.22,7.6,7.6,0,0,1-.51-1,4.79,4.79,0,0,1-.4-1.15c-.17-.6-.29-1.12-.39-1.52h-.06c-21.57,7.91-54.91,1.36-77.91-5.72-6.39-2.06-12.4-4.28-18.32-6.78l-.1,0a1.51,1.51,0,0,1-.4-.16H569A167.07,167.07,0,0,1,517.28,503a133,133,0,0,1-12.67-13.7,1,1,0,0,1-.24-.29,119.74,119.74,0,0,1-17.47-28.72,91,91,0,0,1-5.71-18.9v-.07a.25.25,0,0,0-.18,0,8.19,8.19,0,0,0-2.83-.05,7.85,7.85,0,0,0-1.21.14,5.64,5.64,0,0,0-1.44.6,10.11,10.11,0,0,0-1.37.85,12.23,12.23,0,0,0-3.17,3.71v.05A22.82,22.82,0,0,0,468.58,452.94Z" transform="translate(-238.77 -74.82)" fill="#999" opacity="0.36" style="mix-blend-mode: multiply"/>
          <path d="M458.12,408.29c-.33,3.75,3.21,1.11,5.61,1.31,1.65.2,3.63,1.22,4.45-.69s.21-5.39.58-7.53a13.83,13.83,0,0,0-2.26-.58c-2.05,0-5.67.44-7.48,1.57S458.26,406.4,458.12,408.29Z" transform="translate(-238.77 -74.82)" fill="#989291"/>
        </g>
        <g>
          <path d="M477.89,534C503,519,528.2,498,556.31,524c14.42,14.63,23.49,36.14,26.12,56.62,10.8,58.45-17.82,86-55.8,102.48-51.52,22.36-99.65-8.16-120.45-55.72-12.81-27.86-9.76-56.63,14.86-72.59,19.39-12.85,35.08-10.74,56.85-20.77Z" transform="translate(-238.77 -74.82)" fill="#f9400f"/>
          <path d="M479.42,554.33c24.88-10.81,38.35-28.86,34.66-32.29-4.31-4-20.08,9.9-23.19,12.08-5.38,3.42-10,6.63-15.83,9-6.32,2.47-5.28,2-11.9,3.79-5,1.26-12.46-.54-15.07,4.63C445.37,557,460.24,562.65,479.42,554.33Z" transform="translate(-238.77 -74.82)" fill="#999" opacity="0.36" style="mix-blend-mode: multiply"/>
          <path d="M462.48,517.24c4,5.35,7.81,10.12,10.75,16.1A153.91,153.91,0,0,1,479.89,551a10.11,10.11,0,0,0,3.71-2.43c-3.85-14.08-12.05-28.44-16.27-40.66-2-3.25-4.62-3.13-6.82-1C457.08,510,460.33,514.66,462.48,517.24Z" transform="translate(-238.77 -74.82)" fill="#a0642f"/>
          <path d="M410.64,592.8c2.95,6.78,10.71,2,13.42-1.14,4.23-4.41,20.09-14.51,21.45-20.51,2.15-8.64-7.89-6.84-15.08-11.42-7.82-4.69-18.44,11.86-19.72,20.66C409.72,587.42,409,589.28,410.64,592.8Z" transform="translate(-238.77 -74.82)" fill="#f2f2f2" opacity="0.85"/>
          <path d="M444,674.93c23.06,16.23,52.24,21.35,82.53,8.2,38-16.49,66.55-44,55.77-102.52-2.63-20.42-11.71-42-26.09-56.64-8.2-7.54-16.12-11.17-23.89-12a65.76,65.76,0,0,1,7.27,10.23,129.84,129.84,0,0,1,13,33.34c5.52,21.26,2.49,46.33-6.75,65.57C528.83,656.55,485.29,676.27,444,674.93Z" transform="translate(-238.77 -74.82)" fill="#999" opacity="0.36" style="mix-blend-mode: multiply"/>
        </g>
        <g>
          <rect x="446.16" y="328.67" width="97.34" height="177.8" fill="#fff"/>
          <rect x="543.5" y="328.67" width="41.12" height="177.8" fill="#e5e5e5"/>
          <polygon points="584.62 328.68 564.08 323.32 564.08 270.36 584.62 328.68" fill="#e5e5e5"/>
          <polygon points="564.08 270.36 564.08 323.32 543.5 328.68 560.3 281.19 564.08 270.36" fill="#ccc"/>
          <polygon points="584.62 328.68 543.5 328.68 564.08 323.32 584.62 328.68" fill="#f2f2f2"/>
          <polygon points="564.08 268.68 564.08 270.36 560.3 281.19 543.5 328.68 446.16 328.68 466.7 270.36 466.7 268.68 564.08 268.68" fill="#f2f2f2"/>
          <path d="M802.86,329.79v15.4H705.47v-15.4a5.37,5.37,0,0,1,5.36-5.35H797.5A5.38,5.38,0,0,1,802.86,329.79Z" transform="translate(-238.77 -74.82)" fill="#fff"/>
          <path d="M782.28,521.16V581.3H684.94V565.05c13.77,7.57,30.6,8.9,42.83-3.32,8.52-8.52,12.53-18.34,22.77-26A76.56,76.56,0,0,1,782.28,521.16Z" transform="translate(-238.77 -74.82)" fill="#82cbde"/>
          <path d="M782.28,513v8.16a76.56,76.56,0,0,0-31.74,14.62c-10.24,7.61-14.25,17.43-22.77,26-12.23,12.22-29.06,10.89-42.83,3.32V538.41a10.46,10.46,0,0,0,8.46,1.88c10.72-2.25,24.13-9.86,34.37-13.88,9-3.54,17.9-8,26.8-10.73C763.09,513,772.8,512.73,782.28,513Z" transform="translate(-238.77 -74.82)" fill="#b0dce1"/>
          <path d="M782.28,505.82V513c-9.48-.27-19.19,0-27.71,2.68-8.9,2.68-17.85,7.19-26.8,10.73-10.24,4-23.65,11.63-34.37,13.88a10.46,10.46,0,0,1-8.46-1.88V505.12A54.31,54.31,0,0,0,696.09,513c7.56,3.6,12.91.49,20.52-.85A255,255,0,0,1,782.28,505.82Z" transform="translate(-238.77 -74.82)" fill="#dbebeb"/>
          <rect x="551.58" y="336.72" width="27.7" height="87.56" fill="#a1ced6"/>
          <rect x="552.39" y="467.05" width="2.61" height="29.92" fill="#69878e"/>
          <rect x="556.31" y="467.05" width="3.59" height="26.6" fill="#69878e"/>
          <rect x="561.54" y="467.05" width="1.76" height="26.6" fill="#69878e"/>
          <rect x="564.86" y="467.05" width="2.6" height="26.6" fill="#69878e"/>
          <rect x="568.77" y="467.05" width="1.34" height="26.6" fill="#69878e"/>
          <rect x="571.1" y="467.05" width="1.31" height="26.6" fill="#69878e"/>
          <rect x="573.21" y="467.05" width="1.9" height="26.6" fill="#69878e"/>
          <rect x="575.68" y="467.05" width="2.6" height="29.92" fill="#69878e"/>
          <g>
            <path d="M726.15,468.34a.58.58,0,0,1-.13.4,1,1,0,0,1-.45.28,4.84,4.84,0,0,1-.85.17c-.36,0-.82.05-1.38.05s-1,0-1.39-.05a5.66,5.66,0,0,1-.86-.17,1.1,1.1,0,0,1-.46-.28.69.69,0,0,1-.11-.4V456.46a7.66,7.66,0,0,0-.2-1.85,4.42,4.42,0,0,0-.58-1.43,2.8,2.8,0,0,0-1-.92,3,3,0,0,0-1.42-.33,3.44,3.44,0,0,0-2.05.79A14.12,14.12,0,0,0,713,455v13.32a.58.58,0,0,1-.13.4,1.17,1.17,0,0,1-.46.28,5.57,5.57,0,0,1-.87.17c-.36,0-.81.05-1.35.05s-1,0-1.37-.05A5.57,5.57,0,0,1,708,469a1.06,1.06,0,0,1-.45-.28.65.65,0,0,1-.14-.4V456.46a8.84,8.84,0,0,0-.19-1.85,4.65,4.65,0,0,0-.57-1.43,2.72,2.72,0,0,0-1-.92,3,3,0,0,0-1.42-.33,3.38,3.38,0,0,0-2.06.79,13.7,13.7,0,0,0-2.23,2.3v13.32a.71.71,0,0,1-.13.4,1.06,1.06,0,0,1-.48.28,5.11,5.11,0,0,1-.84.17c-.37,0-.83.05-1.39.05s-1,0-1.36-.05a5.34,5.34,0,0,1-.87-.17,1.14,1.14,0,0,1-.47-.28.79.79,0,0,1-.13-.4v-20a.76.76,0,0,1,.11-.41.93.93,0,0,1,.42-.28,3.5,3.5,0,0,1,.75-.17,11.26,11.26,0,0,1,1.15-.06c.48,0,.87,0,1.19.06a3.26,3.26,0,0,1,.74.17,1,1,0,0,1,.37.28.86.86,0,0,1,.11.41v2.3a13.11,13.11,0,0,1,3.31-2.7,7.28,7.28,0,0,1,3.45-.9,8.52,8.52,0,0,1,2.23.27,5.78,5.78,0,0,1,1.76.73,5.34,5.34,0,0,1,1.33,1.16,6.75,6.75,0,0,1,1,1.52A16.79,16.79,0,0,1,713.9,449a9.69,9.69,0,0,1,1.71-1.13,7.73,7.73,0,0,1,1.67-.66A7.26,7.26,0,0,1,719,447a7.72,7.72,0,0,1,3.37.67,6,6,0,0,1,2.21,1.84,7.28,7.28,0,0,1,1.21,2.71,14.41,14.41,0,0,1,.35,3.28Z" transform="translate(-238.77 -74.82)" fill="#82cbde"/>
            <path d="M737.8,441.51a3.12,3.12,0,0,1-.7,2.36,5.5,5.5,0,0,1-5.15,0,3,3,0,0,1-.67-2.27,3.24,3.24,0,0,1,.68-2.36,3.74,3.74,0,0,1,2.6-.68,3.79,3.79,0,0,1,2.56.65A3.07,3.07,0,0,1,737.8,441.51Zm-.42,26.83a.72.72,0,0,1-.14.4,1,1,0,0,1-.47.28,5,5,0,0,1-.85.17c-.37,0-.83.05-1.39.05s-1,0-1.36-.05a5.34,5.34,0,0,1-.87-.17,1.1,1.1,0,0,1-.46-.28.64.64,0,0,1-.13-.4v-20a.59.59,0,0,1,.13-.39,1,1,0,0,1,.46-.29,3.68,3.68,0,0,1,.87-.19,10,10,0,0,1,1.36-.08,10.53,10.53,0,0,1,1.39.08,3.49,3.49,0,0,1,.85.19,1,1,0,0,1,.47.29.66.66,0,0,1,.14.39Z" transform="translate(-238.77 -74.82)" fill="#82cbde"/>
            <path d="M748.68,468.34a.66.66,0,0,1-.15.4.88.88,0,0,1-.46.28,5,5,0,0,1-.86.17c-.35,0-.82.05-1.37.05s-1,0-1.37-.05a4.84,4.84,0,0,1-.85-.17,1,1,0,0,1-.47-.28.64.64,0,0,1-.13-.4V438.79a.69.69,0,0,1,.13-.41,1,1,0,0,1,.47-.3,3.81,3.81,0,0,1,.85-.2,15.67,15.67,0,0,1,2.74,0,3.92,3.92,0,0,1,.86.2.89.89,0,0,1,.46.3.71.71,0,0,1,.15.41Z" transform="translate(-238.77 -74.82)" fill="#82cbde"/>
            <path d="M773,468.37a.59.59,0,0,1-.13.39.92.92,0,0,1-.44.26,4.66,4.66,0,0,1-.9.17c-.37,0-.85.05-1.46.05s-1.11,0-1.48,0a5.94,5.94,0,0,1-.95-.15,1.26,1.26,0,0,1-.58-.28,2,2,0,0,1-.36-.47L760,457.74v10.6a.71.71,0,0,1-.13.4,1.17,1.17,0,0,1-.46.28,5.5,5.5,0,0,1-.88.17c-.35,0-.81.05-1.35.05s-1,0-1.39-.05a5.66,5.66,0,0,1-.86-.17,1,1,0,0,1-.46-.28.65.65,0,0,1-.14-.4V438.79a.7.7,0,0,1,.14-.41,1,1,0,0,1,.46-.3,4.39,4.39,0,0,1,.86-.2,13.27,13.27,0,0,1,1.39-.06,12.45,12.45,0,0,1,1.35.06,4.3,4.3,0,0,1,.88.2,1.18,1.18,0,0,1,.46.3.76.76,0,0,1,.13.41v17.59l5.94-8a2,2,0,0,1,.4-.46,1.51,1.51,0,0,1,.59-.32,5.59,5.59,0,0,1,.93-.17c.37,0,.82-.06,1.4-.06s1,0,1.4.06a4.76,4.76,0,0,1,.92.17,1.09,1.09,0,0,1,.5.28.7.7,0,0,1,.12.42,1.66,1.66,0,0,1-.18.72,3.08,3.08,0,0,1-.49.8l-5.86,6.65L772.43,467a5.58,5.58,0,0,1,.39.77A1.59,1.59,0,0,1,773,468.37Z" transform="translate(-238.77 -74.82)" fill="#82cbde"/>
          </g>
        </g>
        <g>
          <path d="M789.06,563.55a134.68,134.68,0,0,1-18.57,18.14,167.35,167.35,0,0,1-47.36,26.84,200.27,200.27,0,0,1-70.9,12.58,202.71,202.71,0,0,1-48.61-5.82c-36.64-8.78-67.71-27.35-88.3-51.74,20.59-24.4,51.66-43,88.3-51.75a206.69,206.69,0,0,1,117.57,6C749,527.93,772.43,543.8,789.06,563.55Z" transform="translate(-238.77 -74.82)" fill="#6fb5cc"/>
          <path d="M835.4,563.55c16.37,19.49,14.77,35.27,20.5,45.32-27.34-10-50.47-25.83-66.84-45.32,16.37-19.5,39.5-35.29,66.84-45.33C850.17,528.26,851.77,544.05,835.4,563.55Z" transform="translate(-238.77 -74.82)" fill="#bddcdf"/>
          <path d="M617.71,563.55a101.64,101.64,0,0,1-14.09,51.74c-36.64-8.78-67.71-27.35-88.3-51.74,20.59-24.4,51.66-43,88.3-51.75A101.65,101.65,0,0,1,617.71,563.55Z" transform="translate(-238.77 -74.82)" fill="#bddcdf"/>
          <path d="M564.8,559a9,9,0,1,1-9-9A9,9,0,0,1,564.8,559Z" transform="translate(-238.77 -74.82)"/>
          <path d="M557.42,556.62a4.05,4.05,0,1,1-4.06-4A4,4,0,0,1,557.42,556.62Z" transform="translate(-238.77 -74.82)" fill="#fff"/>
          <path d="M721.19,517.79a206.69,206.69,0,0,0-117.57-6c6.23-5.82,10.63-7.1,18-12.42,5.32-3.13,12.14-8.84,19.52-12.56-.18,5.62-.53,12.58-1.2,16,12.32-2,22.54-6.74,32.58-5.74a21.45,21.45,0,0,0-4,7.27c3.71-.5,11.14-2.54,15.18-2.46,13.09.09,2.28,6.33,7.77,6.42,6.5.16,14.34-.25,17,2.37C712.16,514.34,713.85,512.15,721.19,517.79Z" transform="translate(-238.77 -74.82)" fill="#bddcdf"/>
          <path d="M767.61,602.63c-15.37,1.82-15.71.24-44.48,5.9a167.35,167.35,0,0,0,47.36-26.84C769.65,591.1,769.55,596.21,767.61,602.63Z" transform="translate(-238.77 -74.82)" fill="#bddcdf"/>
          <path d="M789.06,563.55c-15-2.54-146.27-7.95-171.51-6.85a83.06,83.06,0,0,0-1.44-11.23C743.56,545.32,789.06,563.55,789.06,563.55Z" transform="translate(-238.77 -74.82)" fill="#dde8e8"/>
        </g>
        <g>
          <path d="M908.87,582.26c.09,1,.2,2,.29,3.22,0,0,0,0,0,.12,1.19,11.49,3,29.55,1.21,46.22-6.58,8.28-16.4,16.12-27.27,14.44-21.66-1.19-38.74-22.31-60-26.19-17.6-3.19-38,6.79-55.55,8.67-16.71,1.51-64.21-5-70.9-27.18l0-.08c1.18-44.89,61.52-95.66,94.85-105.3,28-8.19,63.15,2.29,86.27,18.43C899.58,529.83,906.06,557.51,908.87,582.26Z" transform="translate(-238.77 -74.82)" fill="#c24753"/>
          <path d="M873.68,498.27c-27.71-15.86-64.2-17.39-93.46-6C734.06,510.2,669.53,580.32,693.78,633c10.46,22.74,34.1,31.12,57.47,28.09,16.52-2.17,32.68-6,49.43-5.89,18.65.23,33.36,12.68,48.81,21.29,22.12,12.28,43,1.05,58.06-16.24,19.36-22.21,13.75-57.84,11.22-84.48C914.91,542.33,903.94,515.51,873.68,498.27Zm35.19,84c.09,1,.2,2,.29,3.22,0,0,0,0,0,.12,1.19,11.49,3,29.55,1.21,46.22-6.58,8.28-16.4,16.12-27.27,14.44-21.66-1.19-38.74-22.31-60-26.19-17.6-3.19-38,6.79-55.55,8.67-16.71,1.51-64.21-5-70.9-27.18l0-.08c1.18-44.89,61.52-95.66,94.85-105.3,28-8.19,63.15,2.29,86.27,18.43C899.58,529.83,906.06,557.51,908.87,582.26Z" transform="translate(-238.77 -74.82)" fill="#f6f9da"/>
          <path d="M836.72,538.63c5.63,24.18-45.43,36.79-60,23.18-12.54-11.85.12-24.93,12.21-32.39C803.52,520.89,832.08,520.1,836.72,538.63Z" transform="translate(-238.77 -74.82)" fill="#efefdb"/>
          <path d="M905.76,662.28c-14.92,16.13-35,26-56.28,14.21-15.45-8.59-30.17-21-48.8-21.28-16.77-.14-32.92,3.72-49.44,5.89-23.36,3-47-5.34-57.47-28.09a55.21,55.21,0,0,1-4.72-16.69c8,16.87,27.93,27.76,47.1,28.4,20.49.6,40.15-4,59.72-4,7.7-.39,16.94-1,24.17,0,7.41,1.41,14.33,6.45,20.84,10.53,10.29,7.29,26.65,21.15,39.74,19.26C887,669.53,896.6,666.56,905.76,662.28Z" transform="translate(-238.77 -74.82)" fill="#999" opacity="0.36" style="mix-blend-mode: multiply"/>
          <path d="M820.79,545.42c-2.16,4.76-12.09,6.79-17.1,7.57-3.6.61-15.35,2-18.25-3.19-.91-1.71.57-6.68,2.36-8.09,2.26-2.26,7.91-5,10.85-5.91,5.11-2.78,14.16-2.71,19.19.7A7.73,7.73,0,0,1,820.79,545.42Z" transform="translate(-238.77 -74.82)" fill="#f7bfb7"/>
        </g>
        <g>
          <path d="M835.35,683.61c-1.22.33-2.51.55-3.83.86-3.4.65-7,1.28-10.89,1.82-18.06,2.57-31.31,4.52-46.29,6.45l-3.88.55c-3.26.4-6.57.82-10.06,1.3-1.38.14-2.73.34-4.14.5s-2.59.31-3.9.5c-2.11.22-4.26.49-6.52.75-4.58.53-10.62,1-17.09,1.49l0,0c-1.29.08-2.57.12-3.91.21-5.21.26-10.52.53-15.42.68-7,.2-21.09,2.4-13.52-4,3-2.26,17-9.77,20.53-11.54,22.71-11.77,40.35-22.13,60.43-33,1.14-.7,2.42-1.36,3.64-2,2.43-1.3,4.95-2.67,7.48-4,8.15-4.36,29.1-17.93,45.43-20.3a34.53,34.53,0,0,1,5.17-.33c5.63.16,10.38,2.14,13.35,7a35,35,0,0,1,3.7,5.14,53.21,53.21,0,0,1,6.29,16.87c2.06,10.64.68,21-6.34,24.3A93.52,93.52,0,0,1,835.35,683.61Z" transform="translate(-238.77 -74.82)" fill="#f89232"/>
          <g opacity="0.58">
            <path d="M834.56,657.69c1.59,6.47,3.84,12.79,4.25,19.5.17,2.5,4.06,2.39,3.91-.13-.43-7-2.75-13.7-4.43-20.52-.61-2.45-4.33-1.28-3.73,1.15Z" transform="translate(-238.77 -74.82)" fill="#f2f2f2"/>
          </g>
          <g opacity="0.58">
            <path d="M835.35,683.63c-1.22.31-2.51.55-3.83.85v0c-1-6.85-.33-13.76-.91-20.6-.23-2.56,3.72-2.68,3.95-.15C835.12,670.35,834.46,677,835.35,683.63Z" transform="translate(-238.77 -74.82)" fill="#f2f2f2"/>
          </g>
          <g opacity="0.58">
            <path d="M787.46,649c3.32,1,5.18,4.08,6.21,7.21.79,2.39,4.53,1.26,3.74-1.14-1.5-4.55-4.33-8.41-9.06-9.88-2.4-.76-3.28,3.05-.89,3.81Z" transform="translate(-238.77 -74.82)" fill="#f2f2f2"/>
          </g>
          <g opacity="0.58">
            <path d="M785.07,659.86c-2.74-3.25-5.08-6.94-8.26-9.65,1.17-.7,2.42-1.37,3.64-2,2.73,2.66,4.81,5.88,7.29,8.77C789.36,658.86,786.71,661.81,785.07,659.86Z" transform="translate(-238.77 -74.82)" fill="#f2f2f2"/>
          </g>
          <g opacity="0.58">
            <path d="M760.4,694.6c-1.38.15-2.73.34-4.16.51,0-.12.06-.17.09-.29,1.6-4.85-.61-10.07-2.07-14.68-.74-2.38,3-3.54,3.72-1.15C759.56,683.91,761.63,689.42,760.4,694.6Z" transform="translate(-238.77 -74.82)" fill="#f2f2f2"/>
            <path d="M756.4,696.1a1,1,0,0,1-.12-.89A3,3,0,0,1,756.4,696.1Z" transform="translate(-238.77 -74.82)" fill="#f2f2f2"/>
          </g>
          <g opacity="0.58">
            <path d="M754.78,689.09a49.74,49.74,0,0,1,1.46,6c-1.27.13-2.57.3-3.88.5a39.34,39.34,0,0,0-1.36-5.36A2,2,0,0,1,754.78,689.09Z" transform="translate(-238.77 -74.82)" fill="#f2f2f2"/>
            <path d="M756.4,696.1a1,1,0,0,1-.12-.89A3,3,0,0,1,756.4,696.1Z" transform="translate(-238.77 -74.82)" fill="#f2f2f2"/>
          </g>
          <g opacity="0.58">
            <path d="M845.47,641.26c-3-5.82-5.51-12.41-11.23-16.1a1.83,1.83,0,0,1-.88-1.25,34.63,34.63,0,0,1,5.18-.34c4.77,4.14,7.26,9.92,10.21,15.62C849.91,641.38,846.63,643.47,845.47,641.26Z" transform="translate(-238.77 -74.82)" fill="#f2f2f2"/>
          </g>
          <g opacity="0.58">
            <path d="M774.31,692.76c-.77-2.36-1.65-4.72-2.45-7.13s-4.52-1.24-3.74,1.14c.72,2.17,1.57,4.36,2.34,6.53Z" transform="translate(-238.77 -74.82)" fill="#f2f2f2"/>
          </g>
          <g opacity="0.58">
            <path d="M846.3,666.34a22.54,22.54,0,0,1,1,4.6c.22,2.5,4.13,2.39,3.9-.13a26.48,26.48,0,0,0-1.2-5.61c-.74-2.42-4.46-1.27-3.74,1.14Z" transform="translate(-238.77 -74.82)" fill="#f2f2f2"/>
          </g>
          <g opacity="0.58">
            <path d="M827.79,630.37c2.94,2.66,5.18,5.88,7.56,9,1.51,2,4.83-.09,3.3-2.11-2.6-3.39-5-6.9-8.22-9.77-1.87-1.66-4.52,1.19-2.64,2.88Z" transform="translate(-238.77 -74.82)" fill="#f2f2f2"/>
          </g>
          <g opacity="0.58">
            <path d="M728.75,697.85l0,0-3.9.22a3.45,3.45,0,0,1,.05-.83,20.57,20.57,0,0,1,2.77-6.74c1.4-2.07,4.89-.26,3.47,1.82A15.8,15.8,0,0,0,728.75,697.85Z" transform="translate(-238.77 -74.82)" fill="#f2f2f2"/>
          </g>
          <path d="M940.21,670.41a81.81,81.81,0,0,1-7.82-7.41c-1.9,2.89-5.49,5.78-7.14,5.65A34.4,34.4,0,0,1,915,665.9c-1.3,3.91-7.68,9.79-9,6.81-.79-1.84-3.17-7.81-6.12-13.86-1.8,2.84-5,6.73-7.33,5.07a29.12,29.12,0,0,1-7.26-8c-1.08.72-2,1-2.62.16l-2.18-3c-3.19-.06-6.35-.07-9.53-.13a2.83,2.83,0,0,1-.7.38c-.09.09-.2-.09-.35-.39-.2,0-.48,0-.7,0a56.26,56.26,0,0,1-7.34-.35,53.21,53.21,0,0,0-6.29-16.87c8.67-2.94,15.42-9.42,21.84-16a30.38,30.38,0,0,1-3.59-9.26c-.33-2.14,1.21-2.82,3-3.38-1.49-3.95-1.62-7.57,3.87-9.37,1.1-.34,2.91-1,4.08-.38.09-3.84,1.11-7.38,4.09-9.76,2-1.61,5.6,1.06,7.63,3.2a5.15,5.15,0,0,1,.53-.91c.92-1.29,2.78-.55,4.52.67.53-7.63,1.65-15.17,5.24-22.11,1.72-3.24,9.71,5,10.08,6.92.25,1.3.47,2.54.65,3.84a26.85,26.85,0,0,1,1.9-3c2.23-3.2,10.27,5.07,10.13,7.78-.11,2.15-.12,4.35-.21,6.54a3.83,3.83,0,0,1,1.6-.1,21.44,21.44,0,0,1,4.34,2.48,61.25,61.25,0,0,0,5.7-8.41c.36-1,.73-1.91,1.19-2.87a18.84,18.84,0,0,1,1.41-2.18c.24-.45.53-.91.76-1.43.11-.3.41-.23.73.06a3.33,3.33,0,0,1,2.2-.81c2.75.09,5.21,2.11,7.23,4.21,4.54-4,9.13-8,13.5-12.27,3.23-3.13,6.77,9.09,3.54,12.21-1.94,1.86-4,3.68-6,5.45a63.4,63.4,0,0,1,8.73-2.64c4.59-1,5.36,10.34,2.71,12.52a45.3,45.3,0,0,1-4.31,3,10.25,10.25,0,0,1,6.49,9.72,13.43,13.43,0,0,1-.92,3.93c1,1.32,1.63,2.83,1,4.17-1.77,3.7-6.41,4.52-9.88,3,0,0-.14,0-.2,0a5.81,5.81,0,0,1-1-.08c1.22,2.2,1.64,5.13.31,7.17-1.52,2.37-3.27,4.43-6,5.43-.7.26-1.44.49-2.18.72a10.08,10.08,0,0,1-3.77,7.42c.14.33.4.75.56,1.09.65,1.77,1.4,13.63-3.22,9.43-1.12-1-2.17-2.12-3.25-3.14a6,6,0,0,1-.74,2.52,30.92,30.92,0,0,1-4.24,6c1,1.13,2,2.24,3,3.32C951.05,663.25,943,672.67,940.21,670.41Z" transform="translate(-238.77 -74.82)" fill="#80bf1f"/>
          <path d="M940.2,670.35a87.65,87.65,0,0,1-7.51-7.06c-.07-.14-.23-.19-.32-.33-.08.09-.1.19-.19.27a18.61,18.61,0,0,1-6.51-2.06l-.08,0a5,5,0,0,1-1.75.82c-4.64.92-9.27-2.11-12-5.68a17.47,17.47,0,0,1-2.31-3.71l0-.08c-.05,0,0,.07-.09.07-3.27.18-7.06-.6-10.92-4.65-3.3-3.49-5.56-7.46-9.49-8.69,2.23-.74,4.24-.27,6.7-.38a17.68,17.68,0,0,0,2.89-.38c.79-.24,1.59-.45,2.4-.7a16.07,16.07,0,0,1,2.41-3c3.82-3.51,6.67-7.57,11.72-9.55,2.84-1.08,4.27,2.39,4.7,4.49a22.76,22.76,0,0,1,.24,2.5,1.54,1.54,0,0,0,.22.21,16.48,16.48,0,0,0,2.52,2.49,6.94,6.94,0,0,0,2.08,1.36c.32.11,1.29.22,1.59.34a3.06,3.06,0,0,1,1.09.15,1.51,1.51,0,0,1,.7.17,15.82,15.82,0,0,1,1.81.75c-1.28-.63-.2-.26.5-.1a2.53,2.53,0,0,0,.45,0l.1,0c.08-.07.18-.11.22-.19a5.44,5.44,0,0,1,6.23-1.71,21.28,21.28,0,0,1,6.71-6.19,20.52,20.52,0,0,1-.8-8c1.13-10.65,11.87-14,22.48-15.7,2.56-5,6.46-9.12,11.83-10.23a3,3,0,0,1-.8,1.11,46.48,46.48,0,0,1-4.3,3c3.76,1.62,6.72,5.35,6.48,9.73a13.13,13.13,0,0,1-.92,3.92c1,1.33,1.62,2.83,1,4.17-1.76,3.69-6.4,4.52-9.86,3-.06,0-.15.06-.2,0a4.92,4.92,0,0,1-1-.08c1.21,2.18,1.63,5.12.28,7.18-1.51,2.36-3.25,4.42-5.94,5.42-.69.26-1.44.5-2.18.72a10.24,10.24,0,0,1-3.75,7.43c.14.33.38.74.54,1.09.64,1.75,1.41,13.61-3.2,9.42-1.12-1-2.17-2.1-3.26-3.13a6,6,0,0,1-.75,2.51,30.55,30.55,0,0,1-4.24,6.05c1,1.12,2,2.22,3,3.33C951,663.21,943,672.61,940.2,670.35Z" transform="translate(-238.77 -74.82)" fill="#999" opacity="0.2" style="mix-blend-mode: multiply"/>
          <path d="M925.23,668.59A34.41,34.41,0,0,1,915,665.87c-1.3,3.89-7.67,9.78-9,6.8-.78-1.84-3.16-7.8-6.12-13.88-1.8,2.84-5,6.73-7.33,5.09a29,29,0,0,1-7.25-8c-1.09.73-2,1-2.64.16l-2.16-3c-3.18-.07-6.35-.08-9.54-.13a5.09,5.09,0,0,1-.68.38c-.1.07-.22-.11-.35-.37-.2,0-.49,0-.71,0a58.14,58.14,0,0,1-7.35-.35,47.11,47.11,0,0,0-2.33-8.27c13.28-3.93,14.43-6,27.09-5.46a6.83,6.83,0,0,1,2.36.42c3.93,1.23,6.19,5.2,9.49,8.69,3.86,4.05,7.65,4.83,10.92,4.65a.14.14,0,0,0,.11,0,17.47,17.47,0,0,0,2.31,3.71c2.77,3.57,7.4,6.6,12,5.68a5,5,0,0,0,1.75-.82l.08,0a18.61,18.61,0,0,0,6.51,2.06C930.25,666,926.87,668.75,925.23,668.59Z" transform="translate(-238.77 -74.82)" fill="#999" opacity="0.3" style="mix-blend-mode: multiply"/>
          <path d="M932.69,663.29l-.51-.06c.09-.08.11-.18.19-.27C932.46,663.1,932.62,663.15,932.69,663.29Z" transform="translate(-238.77 -74.82)" fill="#999" opacity="0.2" style="mix-blend-mode: multiply"/>
        </g>
        <g>
          <path d="M584.53,632.26c1.73.36,3.47.72,5.21,1.06a9.84,9.84,0,0,1,.09,1.31C588.05,633.86,586.3,633.07,584.53,632.26Z" transform="translate(-238.77 -74.82)" fill="#f89232"/>
          <path d="M583.94,659.25a6.27,6.27,0,0,1-.16.82c-1.41-.07-2.83-.16-4.25-.25C581,659.61,582.48,659.4,583.94,659.25Z" transform="translate(-238.77 -74.82)" fill="#f89232"/>
          <path d="M564.45,584.48a8.11,8.11,0,0,1,2.72,10c.47.87.9,1.73,1.24,2.52a12.56,12.56,0,0,1-.25,11.07,8.59,8.59,0,0,1,.5,3.35,1.12,1.12,0,0,0,0,.26,1.73,1.73,0,0,0,0,.4,20.79,20.79,0,0,1,4.87,4.41c2.24.63,4.82,1,6.57,2.18a8,8,0,0,1,3.37,5.83,11.24,11.24,0,0,1,6.26,8.83h0c-1.74-.34-3.48-.7-5.21-1.06,1.77.81,3.52,1.6,5.3,2.37a13.75,13.75,0,0,1-2.13,8.59,9.65,9.65,0,0,1-1.51,1.77,11.44,11.44,0,0,1-2,1.53c-.12.46-.24.9-.39,1.36-.29.89-.64,1.77-1,2.67.53,1.42,1.07,3,1.17,3.51a16,16,0,0,1,0,5.19c-1.46.15-2.93.36-4.41.57,1.42.09,2.84.18,4.25.25a7.19,7.19,0,0,1-.44,1.19c-1.65,3.43-3.37,6.47-6.31,8.65a8,8,0,0,0,.18.85,10.63,10.63,0,0,1,.19,1.83,12.06,12.06,0,0,1-1.07,5.22,30.1,30.1,0,0,1-4.67,7.3,18.05,18.05,0,0,1-2.85,2.81,11.65,11.65,0,0,1,2.92,5.37c1.18,4.94-.47,10.68-3.44,14.77-.58.78-1.23,1.62-1.93,2.44l.59,1.72a11.28,11.28,0,0,1,.35,3.4c0,2.63-1.45,5.88-3.66,7.34a10.76,10.76,0,0,1-6.82,2.17,11.12,11.12,0,0,1-3.71-.8,8.22,8.22,0,0,1-3.76-2.88,11.82,11.82,0,0,1-2.71-.13,13.17,13.17,0,0,1-1.75-.4,9.09,9.09,0,0,1-1.59,1c-4.08,2.14-8.25,1.79-11.39-.74a1,1,0,0,0-.23.07,17.19,17.19,0,0,1-7.71-.47c-4-1.16-6.73-5.08-7.65-9.12-4.55-.77-8.61-4.94-6.53-10.56a21.44,21.44,0,0,1,1.71-3.55,12.51,12.51,0,0,1-1.94-7.89c.05-.84.13-1.69.18-2.55a28.35,28.35,0,0,1-3.8-.68c-3.75,2-8.14,1.42-12.16.17a7,7,0,0,1-5.09-5.44,15.88,15.88,0,0,1-2.35-2.74c-4-2.14-7.17-6.24-6.49-11a13.73,13.73,0,0,1,4.08-7.93,24.86,24.86,0,0,1,1.84-4.59,11.29,11.29,0,0,1,.27-7.52,6.92,6.92,0,0,1,0-1A13.58,13.58,0,0,1,499,634.05c-2-5.31-1.88-10.86,3.07-15.74.9-.88,1.79-1.69,2.64-2.48-.35-3.21.09-6.58,2.17-9.12a15.06,15.06,0,0,1,4.41-3.75,2.08,2.08,0,0,0,0-.25c0-3.78,3.27-6.41,6.57-7.32a12.94,12.94,0,0,1,3.54-.46c.81-.86,1.67-1.72,2.58-2.56a8.14,8.14,0,0,1,11,.47,8.15,8.15,0,0,1,1.9-.8,12.24,12.24,0,0,1,7-4.94c1.17-.31,2.41-.61,3.68-.88a11.76,11.76,0,0,1,3-2.49C554.84,581,560.35,581.68,564.45,584.48Z" transform="translate(-238.77 -74.82)" fill="#74b223"/>
          <path d="M658.62,663.21a5.56,5.56,0,0,1,3.7,1.6,5.73,5.73,0,0,1,1.62,3.69c.35,3.4-1.88,7.15-6.3,6.83-18-1.27-37.89,3.11-55.52,7.1a146.15,146.15,0,0,0-30.39,10.86,11.65,11.65,0,0,0-2.92-5.37,18.05,18.05,0,0,0,2.85-2.81,30.1,30.1,0,0,0,4.67-7.3,129.37,129.37,0,0,1,23.51-7.31c1.49-.31,3-.59,4.48-.93h0c12.14-2.5,24.68-5.16,37.17-6.18l0,0A110.3,110.3,0,0,1,658.62,663.21Z" transform="translate(-238.77 -74.82)" fill="#80bf1f"/>
          <path d="M666.51,656.48a5.2,5.2,0,0,1,1.25.22,5,5,0,0,1,.54.15c5.84,2.14,4.4,12.26-2.77,11.76-.53-.06-1-.06-1.59-.11-19.09-1.21-38.16-.2-57.25,1l-2.32.12h0c-8.89.52-18,1-26.63,2.95a2.06,2.06,0,0,0-.29.07,10.63,10.63,0,0,0-.19-1.83,8,8,0,0,1-.18-.85c2.94-2.18,4.66-5.22,6.31-8.65a7.19,7.19,0,0,0,.44-1.19c-1.41-.07-2.83-.16-4.25-.25,1.48-.21,3-.42,4.41-.57,8.18-1,16.36-1.48,24.56-2,9.81-.59,19.66-1.15,29.48-1.35C647.48,655.71,657,655.81,666.51,656.48Z" transform="translate(-238.77 -74.82)" fill="#74b223"/>
          <path d="M662.63,652.69a5.47,5.47,0,0,1,4.83,3.27,6.74,6.74,0,0,1,.3.74,7.25,7.25,0,0,1,.17.78v0c.56,3.39-1.41,7.28-5.61,7.31a3.64,3.64,0,0,1-.66,0q-10-.76-20.08-1.39l0,0c-19.24-1.24-38.5-2.16-57.76-3.32-1.41-.07-2.83-.16-4.25-.25,1.48-.21,3-.42,4.41-.57a16,16,0,0,0,0-5.19c-.1-.48-.64-2.09-1.17-3.51.39-.9.74-1.78,1-2.67,7.85.48,15.71.9,23.55,1.35h.05c11.21.6,22.43,1.22,33.62,1.93h.09C648.26,651.6,655.44,652.12,662.63,652.69Z" transform="translate(-238.77 -74.82)" fill="#80bf1f"/>
          <path d="M584.53,632.26c1.73.36,3.47.72,5.21,1.06,7.76,1.57,15.53,3.06,23.27,4.75,16.84,3.6,33.42,8,50.6,9.67,4.27.42,5.92,4.22,5.24,7.44a5.75,5.75,0,0,1-.55,1.67,6.5,6.5,0,0,1-.37.63v0a5.46,5.46,0,0,1-5.3,2.36,233,233,0,0,1-24.65-4c-10.05-2.1-20.06-4.54-30.17-6.6-.14,0-.29-.06-.45-.07h-.05c-7-1.44-14.12-2.8-21.12-4.24a9.65,9.65,0,0,0,1.51-1.77,13.75,13.75,0,0,0,2.13-8.59C588.05,633.86,586.3,633.07,584.53,632.26Z" transform="translate(-238.77 -74.82)" fill="#72af24"/>
          <path d="M568.66,611.66c13.54,6.25,26.69,13.24,41,17.76,18.41,5.81,36.84,11.41,55.92,14.59,5.92,1,6.72,8.41,3.27,11.17a4.23,4.23,0,0,1-1.39.78,5.82,5.82,0,0,1-2.86.17c-7.91-1.3-15.77-3-23.53-5H641c-10.61-2.65-21.07-5.76-31.49-9a196.67,196.67,0,0,1-19.66-7.49c-1.78-.77-3.53-1.56-5.3-2.37,1.73.36,3.47.72,5.21,1.06h0a11.24,11.24,0,0,0-6.26-8.83,8,8,0,0,0-3.37-5.83c-1.75-1.15-4.33-1.55-6.57-2.18a20.79,20.79,0,0,0-4.87-4.41A1.73,1.73,0,0,1,568.66,611.66Z" transform="translate(-238.77 -74.82)" fill="#80bf1f"/>
          <path d="M564.45,584.48a8.11,8.11,0,0,1,2.72,10c.47.87.9,1.73,1.24,2.52a12.56,12.56,0,0,1-.25,11.07,8.62,8.62,0,0,1,.5,3.36,1,1,0,0,0,0,.25,1.73,1.73,0,0,0,0,.4,20.79,20.79,0,0,1,4.87,4.41c2.24.63,4.82,1,6.57,2.18a8,8,0,0,1,3.37,5.83,11.28,11.28,0,0,1,6.26,8.83h0c-1.74-.34-3.48-.7-5.21-1.06,1.77.81,3.52,1.6,5.3,2.37a13.84,13.84,0,0,1-2.13,8.61,10.22,10.22,0,0,1-1.51,1.75,11,11,0,0,1-2,1.53c-.12.46-.24.9-.39,1.37-.29.88-.64,1.76-1,2.66.53,1.42,1.07,3,1.17,3.51a16,16,0,0,1,0,5.19c-1.46.15-2.93.36-4.41.57,1.42.09,2.84.18,4.25.25a7.19,7.19,0,0,1-.44,1.19c-1.65,3.43-3.37,6.47-6.31,8.65a8,8,0,0,0,.18.85,10.63,10.63,0,0,1,.19,1.83,12.06,12.06,0,0,1-1.07,5.22,30.1,30.1,0,0,1-4.67,7.3,18.55,18.55,0,0,1-2.85,2.82,11.57,11.57,0,0,1,2.92,5.36c1.18,4.94-.47,10.68-3.44,14.77-.58.79-1.23,1.62-1.93,2.44.17.51.36,1,.59,1.72a11.28,11.28,0,0,1,.35,3.4,9.6,9.6,0,0,1-3.66,7.36,10.87,10.87,0,0,1-6.82,2.15,11.35,11.35,0,0,1-3.71-.79,1.92,1.92,0,0,1-.35-.18,51.36,51.36,0,0,0,1.28-8.94,6.08,6.08,0,0,1,.49-1.77s0,0,0,0a11.75,11.75,0,0,1-2.5-4.92c-.81-4.15,1.6-8.35,4.1-11.37a15.24,15.24,0,0,1,1.86-1.78,7.63,7.63,0,0,1,2.7-3.94l1.25-1a2.33,2.33,0,0,0-.92-1.05c-3.12-2.15-5.84-4.8-6.77-8.62-1.29-5.25,1.55-7.87-2.7-11.36-2.47-2-5.72-5.17-6.15-8.53-.29-2.19.38-6.21.78-8.29-1.64-.87-3.22-1.79-4.65-2.48a14.83,14.83,0,0,1-8-14.52,8.21,8.21,0,0,1-2.79-3.9l-.51.06c-2.85.54-7,0-9.42-1.69a20.71,20.71,0,0,1-6.16-6.1,19.82,19.82,0,0,1-5.82-2.08c-.42.55-.86,1.17-1.37,1.87a7.39,7.39,0,0,1-4.48,3.15,7.71,7.71,0,0,1-4.86,4.05,13.13,13.13,0,0,1,4-12.66c.9-.88,1.79-1.69,2.64-2.48-.35-3.21.09-6.57,2.17-9.12a15,15,0,0,1,4.41-3.74,2.26,2.26,0,0,0,0-.26c0-3.78,3.27-6.41,6.57-7.32a12.94,12.94,0,0,1,3.54-.46c.81-.86,1.67-1.72,2.58-2.56a8.14,8.14,0,0,1,11,.47,8.15,8.15,0,0,1,1.9-.8,12.24,12.24,0,0,1,7-4.94c1.17-.31,2.41-.61,3.68-.86a11.41,11.41,0,0,1,3-2.51C554.84,581,560.35,581.68,564.45,584.48Z" transform="translate(-238.77 -74.82)" fill="#999" opacity="0.13" style="mix-blend-mode: multiply"/>
        </g>
      </g>
    </g>
  </g>
</svg>
