<svg id="Layer_1" data-name="Layer 1" xmlns="http://www.w3.org/2000/svg" viewBox="0 0 789.08 789.08">
  <title>ill</title>
  <g id="food_groups" data-name="food groups">
    <circle cx="394.54" cy="394.54" r="394.54" fill="#fff"/>
  </g>
  <g id="ill">
    <path d="M944.73,388c56.83,159.17-137,367-306,367s-353.21-209.18-306-367c51.72-173,265.72-173,306,15C676.39,213,884.39,219,944.73,388Z" transform="translate(-238.77 -74.82)" fill="#8c5353"/>
    <path d="M815.24,225c-4.52,9.82-15,18-26.09,14.66a.26.26,0,0,1,0-.5c11.54-1.19,18.39-8.11,22.3-18.71,5.51-15-8.37-29.79-23.62-28.8-12.51.82-20.88,14.63-16.62,26.07,2.53,6.79,10.88,8.14,16.94,7.24,4.49-.94,10.92-6,9.87-12.94l-.12-.25c-1.74-7.59-11.26-9.23-10.81,0,2.93-1.36,5.74,1.11,3.72,3.43-4.37,5.05-13.16,2.4-12.58-5,.83-10.52,13.6-12.52,20.77-7.27,8.22,6,4.73,17.84-1.29,23.6-8.51,8.14-23.43,4.76-30-3.7-6.22-8-2.39-21.94,4.57-28.06,9.47-8.32,21-8.92,31.87-2.76C817,199.36,821.2,212.05,815.24,225Z" transform="translate(-238.77 -74.82)" fill="#4c4848"/>
    <path d="M870.9,250.25c-1.86-7.76.49-17.27,8.45-20.4.17-.06.34.18.2.31-6.15,6-7,13.09-4.41,21,3.62,11.19,18.44,13.46,26.82,5.93,6.88-6.17,5.44-18-2.24-22.68-4.56-2.79-10,.24-13.12,3.52-2.18,2.59-3.6,8.45.17,12l.19.09c4.46,3.61,10.73.22,6.25-4.95-1.08,2.13-3.84,2-3.73-.29.24-4.92,6.54-7.39,9.57-2.84,4.31,6.47-2.18,13.46-8.73,13.68-7.51.26-10.87-8.19-10-14.27,1.23-8.6,11.41-13.44,19.11-11.55,7.22,1.77,11.38,11.63,10.13,18.35-1.7,9.14-8.13,14.76-17.22,16.12C881.59,265.89,873.34,260.46,870.9,250.25Z" transform="translate(-238.77 -74.82)" fill="#4c4848"/>
    <path d="M940.19,238.81a3.71,3.71,0,1,1-4.81,2.1A3.71,3.71,0,0,1,940.19,238.81Z" transform="translate(-238.77 -74.82)" fill="#4c4848"/>
    <path d="M851.49,249.44a4.45,4.45,0,1,1-5.77,2.52A4.45,4.45,0,0,1,851.49,249.44Z" transform="translate(-238.77 -74.82)" fill="#4c4848"/>
    <path d="M731.84,204.86a5.19,5.19,0,1,1-6.74,2.94A5.19,5.19,0,0,1,731.84,204.86Z" transform="translate(-238.77 -74.82)" fill="#4c4848"/>
    <path d="M819.08,181.69a3,3,0,1,1-3.85,1.68A3,3,0,0,1,819.08,181.69Z" transform="translate(-238.77 -74.82)" fill="#4c4848"/>
    <path d="M447.43,235.53c1.28,10.74-3.36,23.19-14.57,26.15a.26.26,0,0,1-.23-.45c9.21-7.05,11.44-16.53,9.22-27.61-3.12-15.63-22.72-21-35.19-12.19-10.24,7.24-10.14,23.39-.53,30.92,5.71,4.46,13.53,1.24,18.22-2.7,3.34-3.15,6.18-10.81,1.65-16.19l-.24-.15c-5.45-5.56-14.42-2-9.19,5.69,1.79-2.7,5.47-2.06,5,1-1.09,6.6-10,8.94-13.33,2.33-4.8-9.39,5-17.78,13.9-17.06,10.15.83,13.36,12.73,11.24,20.79-3,11.39-17.48,16.32-27.54,12.57-9.46-3.52-13.52-17.45-10.79-26.31,3.72-12,13.27-18.61,25.72-19C435.48,212.79,445.74,221.39,447.43,235.53Z" transform="translate(-238.77 -74.82)" fill="#4c4848"/>
    <path d="M508.07,228c-5.63-5.64-8.61-15-3.46-21.8a.19.19,0,0,1,.34.15c-2.13,8.29.9,14.8,7.23,20.22,8.93,7.63,22.75,1.83,26-9,2.63-8.86-4.78-18.18-13.78-18.16-5.34,0-8.41,5.44-9.34,9.87-.5,3.34,1.35,9.08,6.42,10.14l.21,0c5.69.74,9.26-5.43,2.74-7.5.19,2.38-2.24,3.7-3.33,1.71-2.37-4.32,1.71-9.72,6.67-7.43,7.06,3.26,5.18,12.61-.28,16.23-6.27,4.14-13.55-1.29-16-6.93-3.46-8,2.69-17.43,10.24-19.84,7.09-2.27,15.79,4,18.24,10.34,3.33,8.68.79,16.83-6.25,22.74C525.36,235.69,515.49,235.38,508.07,228Z" transform="translate(-238.77 -74.82)" fill="#4c4848"/>
    <path d="M365.82,262a5.2,5.2,0,1,1-4.21,6A5.18,5.18,0,0,1,365.82,262Z" transform="translate(-238.77 -74.82)" fill="#4c4848"/>
    <path d="M428.05,196.63a3,3,0,1,1-2.4,3.44A3,3,0,0,1,428.05,196.63Z" transform="translate(-238.77 -74.82)" fill="#4c4848"/>
    <path d="M545.44,184.66a3,3,0,1,1-3.84,1.68A3,3,0,0,1,545.44,184.66Z" transform="translate(-238.77 -74.82)" fill="#4c4848"/>
    <g>
      <path d="M708.23,584.65c-2.53,3.81-45,39.16-32.94,55.42S726,601.13,726,601.13Z" transform="translate(-238.77 -74.82)" fill="#aaacaf"/>
      <path d="M706.13,593.74c-20.94-24.23,8.92-78.39,78.45-147.75s110-51.49,124.36-22.64S831.49,542.9,799.35,571.76,734.64,626.72,706.13,593.74Z" transform="translate(-238.77 -74.82)" fill="#fff"/>
      <path d="M854,441.56c-26.92,24.11-53.72,48-79,73.81-20,20.38-44.85,43.77-54.4,71.28a1.91,1.91,0,0,0,2.79,2.15c23.47-16.75,41.34-42.92,61.45-63.59,25.07-25.77,51.71-50.36,78.19-74.66C869.09,445,860.11,436.12,854,441.56Z" transform="translate(-238.77 -74.82)" fill="#ed2740"/>
      <path d="M858.72,466.54c-2.82-1.15-5.76,2.22-4.89,4.89a17,17,0,0,0,10.63,11c2.73,1.06,5.47-2.08,4.67-4.67A17,17,0,0,0,858.72,466.54Z" transform="translate(-238.77 -74.82)" fill="#aaacaf"/>
      <path d="M840,493.31a3.89,3.89,0,0,0-5.28,5.29,42.06,42.06,0,0,0,6.33,8.31c1.93,2.07,5.84.54,5.68-2.35C846.43,499.44,844.53,495.88,840,493.31Z" transform="translate(-238.77 -74.82)" fill="#aaacaf"/>
      <path d="M812.93,519.68c-2.36-1.76-5.58,1.13-4.8,3.68a16.24,16.24,0,0,0,6.12,8.79c2.63,1.74,5.75-1.11,5.06-3.89C818.45,524.78,815.75,521.78,812.93,519.68Z" transform="translate(-238.77 -74.82)" fill="#aaacaf"/>
      <path d="M781.93,547.18c-3.11-.7-6.16,2.62-4.29,5.58a32.89,32.89,0,0,0,6.18,7.56,3.67,3.67,0,0,0,6.19-2.56C790.51,552.8,786.68,548.25,781.93,547.18Z" transform="translate(-238.77 -74.82)" fill="#aaacaf"/>
      <path d="M754.86,573.9a3.09,3.09,0,0,0-3.11,5.33,28.48,28.48,0,0,1,5.72,6.5c1.38,1.94,5.46,1.6,5.09-1.38C761.92,579.33,759.38,576.17,754.86,573.9Z" transform="translate(-238.77 -74.82)" fill="#aaacaf"/>
      <path d="M825.39,437c-4.35-.15-4.9,5.23-2,7.42,2.23,1.69,4,4.18,6.55,5.42a4,4,0,0,0,6-3.45C836.16,440.73,830.45,437.18,825.39,437Z" transform="translate(-238.77 -74.82)" fill="#aaacaf"/>
      <path d="M815.19,465.52c-1.76-5-6-7.29-10.39-9.69-2.5-1.37-5.24,2-3.09,4,3.12,3,5.36,6.82,9.2,9C813,470,816.08,468,815.19,465.52Z" transform="translate(-238.77 -74.82)" fill="#aaacaf"/>
      <path d="M777.89,481.57c-3.25,0-4,4.07-1.56,5.75,3.07,2.14,6.53,4.78,10.41,4.94A2.26,2.26,0,0,0,789,490C788.7,484.39,782.87,481.59,777.89,481.57Z" transform="translate(-238.77 -74.82)" fill="#aaacaf"/>
      <path d="M764,512.68a28.25,28.25,0,0,0-10.14-8c-2.4-1.09-6.22,1.45-4.15,4.14a29.65,29.65,0,0,0,10.62,8.65A3,3,0,0,0,764,512.68Z" transform="translate(-238.77 -74.82)" fill="#aaacaf"/>
      <path d="M731.59,550.88c-1.48-4.55-4.3-6.63-9-7.41A3,3,0,0,0,720.3,549c1.53,1.08,3,3.35,4.12,4.89C726.86,557.31,733.05,555.37,731.59,550.88Z" transform="translate(-238.77 -74.82)" fill="#aaacaf"/>
    </g>
    <path d="M521.67,673s119-142,241.05,0" transform="translate(-238.77 -74.82)" fill="#8c5353" stroke="#050505" stroke-miterlimit="10" stroke-width="4"/>
  </g>
</svg>
