<svg id="Layer_1" data-name="Layer 1" xmlns="http://www.w3.org/2000/svg" viewBox="0 0 789.08 789.08">
  <title>refreshed</title>
  <g id="food_groups" data-name="food groups">
    <circle cx="394.54" cy="394.54" r="394.54" fill="#fff"/>
  </g>
  <g id="refreshed">
    <g>
      <path d="M479.7,419.18c14.35-42.82,46-80.5,91.43-98.87,54.56-22.06,119.84-16.2,167,19,48,35.79,73.69,107.12,49.55,165.18-39,93.74-164.83,150.17-254.73,87.76C473.75,551.12,459.32,480,479.7,419.18Z" transform="translate(-238.77 -74.82)" fill="#ffc50b"/>
      <path d="M466.91,567.82c-15.73,12.1-32.49,22.76-49.48,33-8.19,4.93-.74,17.77,7.49,12.82,17-10.23,33.75-20.89,49.48-33C481.88,574.89,474.5,562,466.91,567.82Z" transform="translate(-238.77 -74.82)" fill="#ffc50b"/>
      <path d="M438.87,501.84c-26.72,11.58-54.45,20.69-82.35,28.94-9.16,2.71-5.26,17,3.94,14.32,29.17-8.62,58-18.34,85.9-30.45C455.13,510.86,447.56,498.07,438.87,501.84Z" transform="translate(-238.77 -74.82)" fill="#ffc50b"/>
      <path d="M442.94,450a480.93,480.93,0,0,0-68-10.16c-9.55-.77-9.47,14.09,0,14.85a451.72,451.72,0,0,1,64,9.63C448.32,466.38,452.28,452.07,442.94,450Z" transform="translate(-238.77 -74.82)" fill="#ffc50b"/>
      <path d="M456.26,384.72c-33.54-15.9-67.57-32-97.32-54.44-7.65-5.77-15,7.13-7.5,12.82,29.75,22.47,63.78,38.54,97.33,54.44C457.37,401.61,464.91,388.82,456.26,384.72Z" transform="translate(-238.77 -74.82)" fill="#ffc50b"/>
      <path d="M490.75,334.74c-13.85-13.35-32.26-21.25-44.54-36.29-6-7.42-16.49,3.15-10.49,10.5C448,324,466.39,331.88,480.26,345.24,487.15,351.88,497.66,341.4,490.75,334.74Z" transform="translate(-238.77 -74.82)" fill="#ffc50b"/>
      <path d="M536.94,291.85c-23.58-26.94-47.3-53.8-72.58-79.17-6.76-6.79-17.26,3.71-10.5,10.49,25.28,25.38,49,52.24,72.58,79.18C532.76,309.57,543.22,299,536.94,291.85Z" transform="translate(-238.77 -74.82)" fill="#ffc50b"/>
      <path d="M493.94,618.32c-16.16,27.84-43.53,47-62.68,72.58-5.74,7.67,7.15,15.06,12.82,7.49,19.21-25.67,46.41-44.55,62.68-72.58C511.57,617.51,498.74,610,493.94,618.32Z" transform="translate(-238.77 -74.82)" fill="#ffc50b"/>
      <path d="M555,638.11c-11.73,25.21-22.9,50.67-34.64,75.88-4,8.62,8.78,16.17,12.82,7.5,11.74-25.21,22.91-50.68,34.64-75.88C571.81,637,559,629.44,555,638.11Z" transform="translate(-238.77 -74.82)" fill="#ffc50b"/>
      <path d="M588.34,275.34c-6.61-17.83-12.63-36.79-14.58-55.77-1-9.42-15.83-9.52-14.85,0,2.1,20.41,8,40.52,15.11,59.71C577.31,288.18,591.67,284.33,588.34,275.34Z" transform="translate(-238.77 -74.82)" fill="#ffc50b"/>
      <path d="M638.09,170.09c-1.6,36.27-1.65,72.57-1.65,108.87,0,9.57,14.84,9.57,14.84,0,0-36.3.05-72.6,1.65-108.87C653.36,160.51,638.51,160.55,638.09,170.09Z" transform="translate(-238.77 -74.82)" fill="#ffc50b"/>
      <path d="M715,235.62c-8.1,16.59-13.78,34.12-20.54,51.26-3.52,8.92,10.84,12.75,14.31,3.95,6.29-15.95,11.51-32.29,19-47.72C732,234.55,719.18,227,715,235.62Z" transform="translate(-238.77 -74.82)" fill="#ffc50b"/>
      <path d="M815.11,217.62c-22.47,28.79-42,59.81-66,87.43-6.24,7.2,4.22,17.74,10.5,10.5,24-27.64,43.51-58.64,66-87.43C831.43,220.67,821,210.08,815.11,217.62Z" transform="translate(-238.77 -74.82)" fill="#ffc50b"/>
      <path d="M634.79,650.11c-.07-9.57-14.91-9.58-14.85,0,.25,34.29,8,68,8.25,102.27.07,9.57,14.91,9.58,14.85,0C642.79,718.09,635,684.4,634.79,650.11Z" transform="translate(-238.77 -74.82)" fill="#ffc50b"/>
      <path d="M717.9,686c-8-18-13.13-37.28-23.09-54.44-4.81-8.27-17.64-.8-12.82,7.5,9.94,17.11,15.09,36.42,23.09,54.43C709,702.18,721.75,694.62,717.9,686Z" transform="translate(-238.77 -74.82)" fill="#ffc50b"/>
      <path d="M820.66,691.05c-25.86-29.36-46.66-62.84-74.23-90.73-6.73-6.82-17.23,3.69-10.49,10.5,27.56,27.88,48.37,61.37,74.23,90.72C816.51,708.74,827,698.2,820.66,691.05Z" transform="translate(-238.77 -74.82)" fill="#ffc50b"/>
      <path d="M857.1,609.06c-17.48-11.13-35-22.26-51.28-35.13-7.42-5.88-18,4.55-10.5,10.5,17.28,13.67,35.71,25.62,54.29,37.45C857.71,627,865.15,614.18,857.1,609.06Z" transform="translate(-238.77 -74.82)" fill="#ffc50b"/>
      <path d="M927.91,552.22c-33.78-13.49-67.78-26.39-102.27-37.94-9.11-3-13,11.3-3.95,14.32,34.49,11.55,68.5,24.45,102.27,37.94C932.86,570.09,936.69,555.73,927.91,552.22Z" transform="translate(-238.77 -74.82)" fill="#ffc50b"/>
      <path d="M892.94,456.29H835.21c-9.57,0-9.57,14.84,0,14.84h57.73C902.52,471.13,902.52,456.29,892.94,456.29Z" transform="translate(-238.77 -74.82)" fill="#ffc50b"/>
      <path d="M920.66,367.47c-32.34,10.25-64.41,21.37-97.32,29.7-9.28,2.34-5.34,16.66,3.95,14.31,32.9-8.33,65-19.44,97.32-29.69C933.7,378.91,929.81,364.57,920.66,367.47Z" transform="translate(-238.77 -74.82)" fill="#ffc50b"/>
      <path d="M830,323.2c-10,7.9-20.87,14.85-31.49,21.93-7.92,5.28-.5,18.15,7.5,12.82,11.68-7.79,23.46-15.55,34.49-24.26C848,327.76,837.39,317.33,830,323.2Z" transform="translate(-238.77 -74.82)" fill="#ffc50b"/>
    </g>
  </g>
</svg>
