<svg id="Layer_1" data-name="Layer 1" xmlns="http://www.w3.org/2000/svg" viewBox="0 0 789.08 789.08">
  <title>stress</title>
  <g id="food_groups" data-name="food groups">
    <circle cx="394.54" cy="394.54" r="394.54" fill="#fff"/>
  </g>
  <g id="stress">
    <g>
      <path d="M857.1,393.12a25.93,25.93,0,0,0-5.16,3.38A34,34,0,0,0,857.1,393.12Z" transform="translate(-238.77 -74.82)" fill="#434343"/>
      <path d="M886.94,398.5c-8.58-6-19.37-10.53-29.84-5.38a34,34,0,0,1-5.16,3.38,25.93,25.93,0,0,1,5.16-3.38c11.4-9,16.47-24.58,13.84-38.62-.64-2.4-1.39-4.95-2.25-7.56-18.82-25.91-46.64-39.48-76.64-21.37,11.06-33.47-9.72-63.43-42.75-74.28-40.8-13.42-54.08,8.79-77.13,35.43-32.4-99.41-239.2-57-215.8,45.35-68.25-16-134.54,97.64-61.53,118.35-41.24,25.17-9.62,54.43,25.43,55.16h0c1.26,0,2.52,0,3.79,0a67.83,67.83,0,0,0-14.54,15.75c-25.1,37.89-5.38,94.22,34.24,117.68,37.6,22.28,142.68,12.79,160.51-37.61,7.34,28.78,18.82,66.35,54.14,72.65,33.45,6,74.51-28,59.16-61.95,21,41.44,86.21,27.84,113,3.26,36.1-33.06,30.3-77.65,7.09-114.38-1.1-1.74-2.23-3.47-3.41-5.17,49.79-5.5,64.08-49.84,57-92.94A25.62,25.62,0,0,0,886.94,398.5Z" transform="translate(-238.77 -74.82)" fill="#434343"/>
      <path d="M550.58,299.78c9.87-10.16,9.39-28.13-.59-37.49-9.18-8.62-20.66-7.15-31.52-2.5-14.93,6.4-28.93,25.09-12.83,38.35C520.79,310.61,535.72,315.08,550.58,299.78Z" transform="translate(-238.77 -74.82)" fill="#525352"/>
      <path d="M598,271.54c4.84-5,4.6-13.79-.29-18.38-4.5-4.23-10.13-3.51-15.46-1.23-7.32,3.14-14.18,12.3-6.29,18.81C583.38,276.85,590.7,279,598,271.54Z" transform="translate(-238.77 -74.82)" fill="#525352"/>
      <path d="M420.3,505.58l-2.32,2a19.82,19.82,0,0,1,2.29-2,2.27,2.27,0,0,1,.25-.18Z" transform="translate(-238.77 -74.82)" fill="#383838"/>
      <path d="M830.65,615.33c-26.84,24.58-92,38.18-113-3.26C733,646.05,691.89,680,658.44,674c-35.32-6.3-46.79-43.87-54.14-72.65-17.83,50.4-122.91,59.89-160.51,37.61-39.62-23.46-59.34-79.79-34.24-117.68a68.59,68.59,0,0,0-4.48,27c2,30.57,38.89,45,64.21,52.21,36.16,10.28,77.12,5,110.38-12,10.69-5.47,18-13.37,26.78-21.23,4.55,12.24,12.75,31.92,24.17,38.92,11,6.75,28,6,40.25,3.9,11.33-1.92,38.3-9,41.65-22.51,7.29,11.36,21.81,13.29,34.57,13.71,23.39.75,50-6.25,66.67-24.14,11.76-12.64,19.58-33,22.11-49.83,1.16-7.79,4.11-21.15.91-27l1,.7C861,537.68,866.75,582.27,830.65,615.33Z" transform="translate(-238.77 -74.82)" fill="#383838"/>
      <path d="M586.9,527.51c-46.31.92-21.41-44.59,3-59.65,30-18.5,59.23-22.05,87.79,1.68,10.49,8.71,24.57,27.91,13.31,43-13.62,18.2-33.72-6.09-49.15-5.58C623.52,507.53,606.62,527.12,586.9,527.51Z" transform="translate(-238.77 -74.82)" fill="#1d1c1a"/>
      <path d="M485,430.25c5.14-1,9.94-6.4,14.47-9,5.86-3.36,12.44-5.57,18.91-7.4a120.31,120.31,0,0,1,20.72-3.79c6.12-.61,13.51-.63,17.42-6.08a2.87,2.87,0,0,0,0-3c-4.26-5.81-12.39-5.14-18.83-4.45a141.66,141.66,0,0,0-24.26,4.69,76.74,76.74,0,0,0-20.3,9.16c-5.2,3.36-13.22,9.15-13.05,16.09a3.94,3.94,0,0,0,4.92,3.75Z" transform="translate(-238.77 -74.82)" fill="#1d1c1a"/>
      <path d="M709.94,410.19c3.21-.37,7.5,2,10.46,3.11,4.64,1.69,9.17,4.64,13.32,7.26,4.87,3.08,9.68,6.25,14.37,9.58s9.08,6.7,15.06,6.77c3.07,0,5.86-3.23,4.79-6.3a10,10,0,0,0-1.69-3.19c2,2.51-1.23-2.25-1.7-2.81-2.18-2.62-5.2-4.52-8-6.46a137.28,137.28,0,0,0-18-11.08c-9.31-4.6-23.05-9.86-30.11.58a1.7,1.7,0,0,0,1.46,2.54Z" transform="translate(-238.77 -74.82)" fill="#1d1c1a"/>
      <path d="M494.22,682.59c-6.47,2-11.5,7.44-15.66,12.58-4.94,6.09-13,14-12.73,22.46.19,7,7.09,10.16,13,7.46,6.37-2.92,10.26-11.58,14.26-17,3.85-5.23,7.79-10.29,10.3-16.3,2.23-5.33-4.21-10.71-9.17-9.17Z" transform="translate(-238.77 -74.82)" fill="#93c9cb"/>
      <path d="M570.24,658.8c-10.09,11-21.71,24.58-21.92,40.1-.13,8.79,10.58,10.1,15.11,4.1,4.18-5.55,7.68-11.53,11.57-17.35s7.27-12.17,8.71-19c1.58-7.46-7.68-14.15-13.47-7.85Z" transform="translate(-238.77 -74.82)" fill="#c4dddf"/>
      <path d="M582.14,739.26c-5.63-1.19-9.68,3.16-13.07,7a148.75,148.75,0,0,0-12.85,17c-4.42,6.79-25.23,34.6-9.66,38.89,6.74,1.85,13-6.73,15.9-11.76,3.58-6.26,7.37-12.41,11.21-18.51,2.83-4.49,20.45-30.19,8.47-32.7Z" transform="translate(-238.77 -74.82)" fill="#93c9cb"/>
      <path d="M507.57,744.45c-9.08,6.38-15.19,15.71-21.85,24.46-4,5.29-18.11,22.29-8.36,28,9.47,5.55,19.87-12.91,24.07-18.82,6.25-8.81,12.21-18.69,13.2-29.59.3-3.42-4.27-6-7.06-4Z" transform="translate(-238.77 -74.82)" fill="#c4dddf"/>
      <path d="M645.78,686.82c-5.12,2.28-8.68,8.15-11.48,12.75-3.8,6.25-7.15,11.88-8,19.27-.53,4.88,6,8.35,9.93,5.69,6.06-4.15,9.53-9.89,12.62-16.43,2.58-5.47,5.52-12.69,3.16-18.73a4.38,4.38,0,0,0-6.27-2.55Z" transform="translate(-238.77 -74.82)" fill="#93c9cb"/>
      <path d="M644.47,759.17c-6.25,2.26-9.6,7.19-13.29,12.46a62.25,62.25,0,0,0-9.52,19.2c-2.09,7.41,7.23,12.51,12.62,7.35,4.91-4.71,8.14-9.84,11.47-15.78,3.45-6.18,6.53-12.17,5.52-19.37-.39-2.83-4.23-4.79-6.8-3.86Z" transform="translate(-238.77 -74.82)" fill="#c4dddf"/>
      <path d="M730.55,669.49c-9.78,3.88-15.1,16.08-20.4,24.54-3.67,5.85-16.68,23.37-6.91,29.09,10.1,5.91,19.87-12.87,23.34-19.49,4.64-8.86,12-20.13,10.38-30.51-.42-2.59-4-4.6-6.41-3.63Z" transform="translate(-238.77 -74.82)" fill="#c4dddf"/>
      <path d="M700,764.52c-5.36,4.4-8,12.32-11.86,18-3,4.54-8.72,14.13-2.27,18.17,3.17,2,7.41-.13,10.26-1.8,3.86-2.26,6.7-6.31,8.74-10.18,3.71-7,6.87-15.6,3.13-23.18-1.57-3.18-5.65-3-8-1Z" transform="translate(-238.77 -74.82)" fill="#93c9cb"/>
      <path d="M654.13,282.11c-.11.91-2.15,3.24-1,2a10,10,0,0,0,2.39-4.05l.3-2.21c-.17,1.12-.16,1.2,0,.26s.49-1.68.73-2.52c.15-.52,1.06-2.46,0-.23.27-.58.59-1.16.89-1.73a19.6,19.6,0,0,1,1-1.7c.87-1.31-1.17,1.28.6-.69.5-.55,3.68-3.28,1.64-1.71a31.13,31.13,0,0,1,4.2-2.64c.64-.34,1.3-.64,2-.94-2.45,1.12.51-.12,1-.3a39,39,0,0,1,4.9-1.23c2.44-.48-2.3.22.16,0,.7-.07,1.4-.1,2.1-.13s1.39,0,2.09,0c3,.1-1.06-.28.69,0a21.16,21.16,0,0,1,3.81,1.07c-3.57-1.31,3.42,2.65.5.29a16,16,0,0,1,1.4,1.33c1.59,1.64-1.28-1.9,0,0a16.62,16.62,0,0,1,1,1.79c.74,1.42-.55-1.79.26,1a20.29,20.29,0,0,1,.51,2.34c-.48-2.66-.05,1.09,0,1.65,0,1-.06,1.95-.13,2.92-.13,1.24-.13,1.37,0,.41-.12.74-.26,1.49-.41,2.23l19-2.48c-7.54-13-20.12-23.39-36-21.83-5.22.51-8.22,3-10.19,7.76-5.33,12.88-8.05,28.56-.35,41.09,4.08,6.61,14.08,6.93,18.07,0,5.06-8.78,8.31-18.44,11.47-28,3.68-11.12-13.76-18.58-19-8-4.9,10-11.47,23.06-7.54,34.3,2.35,6.73,10.17,7.33,14.22,1.86,3.08-4.16,4.31-9,5.94-13.85a94.88,94.88,0,0,1,5.3-11.84l-19-8c-2.66,7.91-5.29,15.74-9.53,23H675.3c-4.49-7.41-.41-17.59,2.66-24.9l-10.19,7.76c8.5-.79,13.69,3.95,18,11.17s17.3,6.75,19-2.48c2.08-11.57,1.49-23.95-7.32-32.73-7.61-7.59-18.51-8.72-28.6-7.25a39.79,39.79,0,0,0-23.28,12.88c-3.21,3.72-5.84,8.08-6.54,13a25.29,25.29,0,0,0,.24,8.63,8.82,8.82,0,0,0,2.66,4.71,13.92,13.92,0,0,0,2,1.47c-1.41-.92,0,.39.23.66,3.7,4.4,9.44.31,10-4.14Z" transform="translate(-238.77 -74.82)" fill="#434343"/>
      <path d="M436.61,358.13c-1.08,1.39-.94,1.19.44-.58a7.62,7.62,0,0,0,.74-5.63,57.87,57.87,0,0,0-2.06-5.65,43.51,43.51,0,0,1-2.09-13.68c0-8.17,4.08-15.31,9.71-21.06a21.45,21.45,0,0,1,8.41-5.44c2.12-.65,4.2,0,5,1.36-.33-.78-.31-.59.06.56-.42-1.59.06,1.71.06,1.76a44.11,44.11,0,0,1-.5,6c-.73,5.26-1.54,10.5-1.09,15.82s4.19,10,10,10c5.13,0,10.38-4.55,10-10-.94-12.58-7.21-28.33-21.27-31-17-3.2-24.12,13.91-23.07,28.1.53,7.25,1.87,17,7.68,22.12,6.85,6.09,15.69,3.44,20.55-3.53,7.68-11,7.15-29.32-.34-40.19-3.85-5.58-13.6-7.2-17.06,0-5.09,10.6-8.2,22.56-2.53,33.59,6,11.65,21.6,12.47,30.77,4.61a4.56,4.56,0,0,0-.92-7.14c-3-1.48-6.14-2.6-9.06-4.16-1.12-.6-2.17-1.44-3.25-2.12.76.57.73.48-.08-.26-1.86-1.88.82,1.43-.53-.82-.52-1-.54-1.05-.06-.13a15.91,15.91,0,0,1-.44-1.81c.45,2.13.21-3.36,0-2a32.57,32.57,0,0,1,3.14-9.77H441.75a13.25,13.25,0,0,1,1.84,3.25,17,17,0,0,1,1,4.63c.34,4.48.14,5.59-1.3,10-.86,2.62.87-1.69-.26.57-.29.58-1.68,2.4.08.21-1,1.22,2-.92,2.38-1.06,2.2-.93,5.16.21,6.83,1.71s.53.68,0-.31c1,1.93-.3-1.39-.33-1.5a35.79,35.79,0,0,1-1.14-7.19c-.09-1.25-.08-2.5-.05-3.75.07-3.39-.41,1.41.12-1.58a18.29,18.29,0,0,1,.73-2.63c-.7,2.11.07.07.37-.4-1.22,2-.39.55.2,0-2,1.8.89.19-1.79,1.13,2-.69-2.45.09-.34,0s-2.37-.54-.22,0-2-1.06.06,0c.47.25,2.25,1.67.36.12A17.75,17.75,0,0,1,452,322c1.82,2-1.06-1.63.49.72a19.85,19.85,0,0,1,2.8,8.87h20c-1.12-12.7,5.92-27.09-4-38-11.51-12.57-28.57-7.45-39.83,2.2a49.7,49.7,0,0,0-16.71,35.38,40.74,40.74,0,0,0,5.53,21.59c3.09,5.37,11.21,12.56,16.39,5.32Z" transform="translate(-238.77 -74.82)" fill="#434343"/>
      <path d="M839.06,472.67a8.77,8.77,0,0,0,1.83-1.26l-4.09,1.08-1.54-1q2.87,2.34.25-.07c-.39-.88.66,2,.56,1.66a63.22,63.22,0,0,1,2.06,6.53c.67,3-.08-1.72.21,1.29.08.94.14,1.91.2,2.85a26.72,26.72,0,0,1,0,2.83q-.16,1.8.06.12c-.1.6-.22,1.2-.36,1.79a22.51,22.51,0,0,1-.8,2.57c.73-2-.37.49-.54.78a10.65,10.65,0,0,1-2,2.05c-.16.11-2.86,1.36-1,.65a20.77,20.77,0,0,1-3,.84c1.74-.39-1.89.15-1.85.14a35.42,35.42,0,0,1-5.25-.21c-12-1.12-13.43,17-2.74,20.26,36.75,11.33,73-44.2,36.44-66.85-10.5-6.5-19.73,7.65-12.49,16.2,2.9,3.43,5,9.8,5.29,14.8a42.56,42.56,0,0,1-.09,5.05c0,.68-.11,1.35-.19,2,.23-2.17-.26,1.09-.3,1.25a45.24,45.24,0,0,1-1.31,4.86c-.3,1-.67,1.89-1,2.82.76-1.92-.56,1-.62,1.13a21.36,21.36,0,0,1-4.52,6.53c-.45.48-3.68,3.19-2.14,2.06a28.08,28.08,0,0,1-4.82,2.76c1.81-.84-2.21.51-2.88.66-3,.66,2-.11-1.09.1a27.64,27.64,0,0,1-3,0c-1.25-.12-1.37-.12-.38,0-8.58-1.27,3.64.2-4.9-.69a31.93,31.93,0,0,0-6.7-.1c-5.28.54-10.87,6.61-6.88,12,7.26,9.78,20.06,11.31,31.21,8,9.91-3,17.79-10.39,23-19.11,10.89-18.16,9.65-42.47-4.06-58.66l-12.5,16.19a11.75,11.75,0,0,1,3.83,3.56,17.2,17.2,0,0,1,.9,1.7c-.43-1-.45-.94,0,.19.17.61.32,1.22.43,1.84q-.18-1.77,0,.09c.27,3.67.11,2.89-.76,6a20.6,20.6,0,0,1-2.87,6,24.46,24.46,0,0,1-4.53,5.28,22.14,22.14,0,0,1-5.76,3.86c-3.47,1.81-7.42,2-11.72.67q-1.37,10.13-2.74,20.26c15.6,1.46,30.75-6.95,33.88-23A34.88,34.88,0,0,0,855,471.43c-3.05-6.79-10.52-16.37-18.85-11.12-3,1.87-4.6,6.19-2.45,9.33.05-.33.11-.66.17-1-.45,3.14,2.21,5.45,5.23,4Z" transform="translate(-238.77 -74.82)" fill="#434343"/>
      <path d="M423.29,524.12a3.81,3.81,0,0,1,1.26.84,10,10,0,0,0-4-2.23c-.91-.35-2.08-.34-3-.61a4.34,4.34,0,0,1,1.9,1.2,16.5,16.5,0,0,0-3-2.05c-.37-.2-.73-.42-1.08-.65-1.87-1.19,1.58,1.39-.07-.12q-.48-.46-.93-1c-1.59-1.7,1.19,1.75-.16-.19a26.65,26.65,0,0,1-1.79-3.11q-.7-1.5.09.33c-.29-.7-.53-1.42-.76-2.14a30.94,30.94,0,0,1-.89-3.78c.49,2.7,0-1.33-.06-2s.41-4.82,0-2.05a26.24,26.24,0,0,1,.94-3.84c.87-2.76-.51.62.88-1.92.27-.46.55-.92.85-1.36,1.45-2.23-1.37,1.53.43-.46.38-.41.78-.8,1.19-1.17,2-1.88-1.68,1.09.66-.48s4.46-2.21,8.79-2.84l-11.6-15.09c-9.68,17.51-16.93,40.27.11,55.95,3.25,3,8.53,4.24,12.45,1.61,6.77-4.55,11.77-10.4,12.66-18.73.73-6.79-2.73-13.13-8.09-17.06-13.6-10-31.17,8.18-20.76,21.42,1.89,2.41,6.13,2.65,8.57,1.11,3.5-2.21,5-4.49,6.91-7.31-1.63,2.35-4.45,2.29-6.81.46,2,1.58-.26-.74.49.6-.51-1.33-.6-1.45-.27-.39-.64-2.27-.09-.56-.14.36.17-1.34.12-1.42-.18-.24.43-1,.36-1-.22.07.4-.68-1.77,1.48-2.53,2l12.45,1.61c-9-8.69-2-21.64,3.1-31.05,4.69-8.57-2.94-16.38-11.6-15.09-20.62,3.07-31.16,21.72-27.56,41.3a32.05,32.05,0,0,0,12.59,20.08,18,18,0,0,0,11.1,3.28,15,15,0,0,0,7.31-1.77,10.06,10.06,0,0,0,3.28-3.21c2.72-4.64-.66.87.91-1.91a5.75,5.75,0,0,0-3.39-8.34Z" transform="translate(-238.77 -74.82)" fill="#434343"/>
      <path d="M779.79,329.3c.3-1.42.76-2.23.54-3.76-.1-.7,1.84-2.55,2.31-3.51,1.61-3.29,5-6.5,7.87-8.66,3.14-2.35,6-4.94,9.77-6.24a9.93,9.93,0,0,1,6.59-.3c1.16.3.55.1,2.17,1.09a10.65,10.65,0,0,1,2.46,2.43c.78.9,1.68,3.4,2.23,6.06.33,1.56-.08,4.84-.79,7.37a21.77,21.77,0,0,1-5,8.46l16.22,9.44c4.44-12.44,2.64-31.1-8.4-39.86-6.17-4.9-13-5.56-20.11-2.15-7.58,3.65-12.06,13.17-14.63,20.64-1.76,5.11-2.31,12.07,1,16.71a14.08,14.08,0,0,0,16.4,5.25c12.79-4.41,19.06-19,18.51-31.67-.35-8.11-10.41-13.15-16.47-6.82-8,8.34-19.51,28.06-8,38.17a6.31,6.31,0,0,0,8.68,0c3.92-3.27,5.22-8.95,6.47-13.67a24.85,24.85,0,0,1,6.51-10.85l-16.47-6.83c0,.81.07,1.62,0,2.43,0-.21-.39,3.42-.13,2-.14.7-.3,1.39-.5,2.08,0,0-1.14,3.08-.42,1.46-.26.6-2.44,4.05-1.36,2.66-.41.53-3.36,3.24-1.43,1.76-.38.28-.77.53-1.17.77-1.91,1.19,2-.63,0,0-1.05.26-.72.24,1,0-1.36.14,2.24.71,2.63.89A5,5,0,0,1,799,329c0-.45.23-2.71-.11-.58a23.55,23.55,0,0,1,.77-3,26.38,26.38,0,0,1,2.58-5.45,11.83,11.83,0,0,0,1-1.55c-.13.16,2.54-2.42,1.34-1.55,1.06-.58,1.1-.65.13-.2-1.75.63.67.32-1.28-.09-2.26-.47.76.65-.77-.56.14.1,2,2.17.92.76,4,5.41,4.22,13,1.83,19.69-3.27,9.15,9.85,16.5,16.21,9.44,8.83-9.79,13-21.56,10.59-34.65-1.93-10.59-10.22-19.4-20.36-22.53-13.05-4-23.7,4-32.59,12.37a32.11,32.11,0,0,0-9.35,16.9c-.95,4.63,1.83,12,6.66,13.09a2.64,2.64,0,0,0,3.22-1.84Z" transform="translate(-238.77 -74.82)" fill="#434343"/>
      <path d="M850.34,469.6c0-.58.06-1.6-.42-2a1,1,0,0,0-1.32,0c-.48.38-.38,1.4-.42,2-.1,1.39,2.26,1.39,2.16,0Z" transform="translate(-238.77 -74.82)" fill="#434343"/>
      <path d="M840.55,459.18c2.91,4.61,10.59,4.6,15.48,6.1a21.7,21.7,0,0,1,9.43,6.29c.31.34.61.69.9,1,1.53,1.8-1.24-1.72.12.2.66.93,1.24,1.92,1.81,2.92s1.07,2.06,1.57,3.11c1.06,2.21-.84-2.15.07.13.26.66.48,1.33.71,2a51.66,51.66,0,0,1,1.7,6.94c.6,3.11-.1-1.67.22,1.48.14,1.43.19,2.88.21,4.32,0,1.19,0,2.39-.1,3.58,0,.77-.6,4.82-.09,1.4a43.1,43.1,0,0,1-1.82,7.41c-.15.42-.31.85-.47,1.27-.85,2.27,1-2.29,0-.11-.46,1-1,2-1.53,2.91a29.69,29.69,0,0,1-1.77,2.69c2-2.79-.56.49-1.21,1.14-.3.29-.6.57-.92.84-1.69,1.52,2.08-1.48.23-.15a23.48,23.48,0,0,1-2.68,1.61q-1.55.74.84-.3c-.59.25-1.2.44-1.82.64-.9.29-5.21.91-1.73.52a25.29,25.29,0,0,1-3.59.1c-.76,0-1.52-.09-2.27-.17,3,.31.27,0-.31-.14a37.38,37.38,0,0,1-4.18-1.14c-.89-.28-1.76-.62-2.63-.95-3-1.15,1.93.91-1.12-.47l-2.55,19.49c14.89-2.88,28.68-15,36.53-27.49,9.78-15.55,5.83-35-11.65-42.71-5.15-2.27-11.05-1.55-14.13,3.71-2.66,4.55-1.37,11.69,3.71,14.12a11.22,11.22,0,0,1,3.63,2.42c-.46-.65-.36-.48.3.52,1.48,2.35-.23-1.21.63,1.43s.55,6-.11,9.09c-1.66,7.65-4.11,15.09-5.8,22.73-1,4.43,3.57,8.31,7.71,5.93,21-12.08,26.48-46.54,4.06-59.95l-10.42,17.83c2.71,1.37,4,2,5.65,3.63.82.93.89,1,.21.16a14,14,0,0,1,.92,1.59c-1.31-2.43.42,2.89,0-.18.07.52-.14,4.16.21,1.68a21.7,21.7,0,0,1-.92,3.63c-.43,1.13-.45,1.22-.06.25-.28.61-.58,1.22-.91,1.81a37.22,37.22,0,0,1-2.19,3.58c-4.94,7.38-14.34,14.29-23.06,15.65-9.11,1.42-10.38,15.59-2.55,19.49,15,7.47,31.28,8.52,44.83-2.27,10.44-8.33,14.38-23.33,14.34-36.1,0-13.56-5-27.92-15.51-36.9A36,36,0,0,0,858.23,449c-4.87-.53-20.18,1.53-18,9.46l.32.75Z" transform="translate(-238.77 -74.82)" fill="#434343"/>
    </g>
  </g>
</svg>
