<svg id="Layer_1" data-name="Layer 1" xmlns="http://www.w3.org/2000/svg" viewBox="0 0 789.08 789.08">
  <title>strong</title>
  <g id="food_groups" data-name="food groups">
    <circle cx="394.54" cy="394.54" r="394.54" fill="#fff"/>
  </g>
  <g id="strong">
    <g>
      <path d="M402.79,502s73.9-98.69,184.1-12.32c0,0,68.74-52.65,131.33,8l-29.3-131.07s-7.12,8.31-22.69-1.25c0,0-11.31,18.72-29.74,12.13,0,0-20,19.81-38.51,6.4s-20.53-90.54-.43-101.56S708.41,276.09,732,308c0,0,116.73,173.78,86.69,305,0,0-64.24,41.25-217.85,13.12,0,0-54.36,58.09-140.84,84.67C460,710.83,399.81,636.81,402.79,502Z" transform="translate(-238.77 -74.82)" fill="#ffbb4d"/>
      <g>
        <path d="M954,374.32a12.66,12.66,0,0,1-14.49,10.46l-552-89A12.68,12.68,0,0,1,377,281.29l1.85-11.43a12.66,12.66,0,0,1,14.48-10.47l552,89a12.68,12.68,0,0,1,10.47,14.49Z" transform="translate(-238.77 -74.82)" fill="#70594f"/>
        <g>
          <g>
            <path d="M451.6,338.15a12.67,12.67,0,0,1-14.49,10.46l-26-4.19a12.66,12.66,0,0,1-10.47-14.48l16.17-100.31a12.68,12.68,0,0,1,14.5-10.47l26,4.2a12.67,12.67,0,0,1,10.46,14.48Z" transform="translate(-238.77 -74.82)" fill="#8c7168"/>
            <path d="M496.67,371.15a12.67,12.67,0,0,1-14.49,10.46l-26-4.19a12.67,12.67,0,0,1-10.47-14.48L470,212.47A12.66,12.66,0,0,1,484.48,202l26,4.19a12.66,12.66,0,0,1,10.46,14.48Z" transform="translate(-238.77 -74.82)" fill="#70594f"/>
            <path d="M540.32,413a19,19,0,0,1-21.73,15.7l-13.52-2.18a19,19,0,0,1-15.69-21.73l35.21-218.29a19,19,0,0,1,21.72-15.69L559.83,173a19,19,0,0,1,15.69,21.73Z" transform="translate(-238.77 -74.82)" fill="#8c7168"/>
          </g>
          <g>
            <path d="M865.32,404.86a12.67,12.67,0,0,0,10.46,14.49l26,4.19a12.67,12.67,0,0,0,14.49-10.47l16.18-100.3A12.67,12.67,0,0,0,922,298.29l-26-4.2a12.66,12.66,0,0,0-14.48,10.46Z" transform="translate(-238.77 -74.82)" fill="#8c7168"/>
            <path d="M812.16,422a12.68,12.68,0,0,0,10.46,14.49l26,4.18a12.66,12.66,0,0,0,14.48-10.45l24.26-150.47a12.68,12.68,0,0,0-10.46-14.49l-26-4.18a12.67,12.67,0,0,0-14.49,10.46Z" transform="translate(-238.77 -74.82)" fill="#70594f"/>
            <path d="M757.58,448a19,19,0,0,0,15.68,21.73l13.52,2.17a19,19,0,0,0,21.73-15.69l35.2-218.3A19,19,0,0,0,828,216.21L814.5,214a19,19,0,0,0-21.72,15.69Z" transform="translate(-238.77 -74.82)" fill="#8c7168"/>
          </g>
        </g>
      </g>
      <path d="M687.34,367.91s-7.11,8.31-22.68-1.25c0,0-11.32,18.72-29.74,12.13,0,0-20,19.81-38.51,6.4s-20.53-90.54-.43-101.56,110.86-6.22,134.45,25.68" transform="translate(-238.77 -74.82)" fill="#ffbb4d"/>
    </g>
  </g>
</svg>
