<svg id="Layer_1" data-name="Layer 1" xmlns="http://www.w3.org/2000/svg" viewBox="0 0 789.08 789.08">
  <title>weak</title>
  <g id="food_groups" data-name="food groups">
    <circle cx="394.54" cy="394.54" r="394.54" fill="#fff"/>
  </g>
  <g id="weak">
    <g>
      <path d="M585.41,263.32l49.83,272.79s11.39-9.63,30.25,6.63c0,0,19.32-22.71,42.68-9.83,0,0,31.22-22.3,53.22-.19s7.87,126.33-21.59,136.77-128.24-14.27-153-62.35c0,0-84.5-191.21-79.2-389.07" transform="translate(-238.77 -74.82)" fill="#ffbb4d"/>
      <g>
        <polygon points="612.63 489.47 332.75 583.81 310.82 518.78 590.7 424.43 612.63 489.47" fill="#70594f"/>
        <path d="M589.05,687.64c4.52,13.41,2.74,26.23-4,28.5l-43,14.48c-6.71,2.26-15.9-6.86-20.42-20.28L478.64,582.6c-4.52-13.41-2.74-26.24,4-28.51l43-14.47c6.7-2.27,15.89,6.86,20.41,20.28Z" transform="translate(-238.77 -74.82)" fill="#8c7168"/>
        <path d="M881.4,580.68c4.52,13.42,2.74,26.24-4,28.5l-43,14.48c-6.71,2.26-15.9-6.85-20.42-20.28L771,475.64c-4.52-13.41-2.74-26.23,4-28.5l43-14.48c6.7-2.27,15.89,6.86,20.41,20.28Z" transform="translate(-238.77 -74.82)" fill="#8c7168"/>
      </g>
      <path d="M564.69,608.84c25.76,47.57,147.34,71.38,176.6,60.34S782.54,553.66,760.11,532s-53.21,1.27-53.21,1.27c-23.61-12.41-42.47,10.7-42.47,10.7-19.19-15.89-30.38-6-30.38-6s-17.34-22.9-52.66,25.19C560.69,591.32,564.69,608.84,564.69,608.84Z" transform="translate(-238.77 -74.82)" fill="#ffbb4d"/>
      <path d="M846.76,339.31a285.68,285.68,0,0,1,35.62,10.12c9,3.21,23.73,6.57,26.3,17.33,1.22,5.09-.14,10.39-1.38,15.34-1.53,6.07-3.13,12.11-4.7,18.17-2.68,10.39-6.35,21.26-5,32.13,3.78,31,42.71,39.84,55.85,65.36,11.73,22.79-2.33,48-14.31,67.4-1.33,2.17,4.5,1.5,5.43,0,10.72-17.42,23.12-38.57,18.11-59.86-3.76-16-17.14-26.62-29.43-36.26-11.72-9.19-25.46-19.12-29.12-34.44-2.8-11.73,1.42-23.83,4.34-35.12q2.24-8.64,4.46-17.26c1.33-5.19,2.86-10.83,1.83-16.22-2.16-11.29-15.75-14.87-25-18.28a291.72,291.72,0,0,0-39.33-11.37c-1.71-.37-6.87,2.29-3.65,3Z" transform="translate(-238.77 -74.82)"/>
      <path d="M456.16,489.44c-16.51,31.66-32.58,68.11-11.62,101.69A120.34,120.34,0,0,0,461,611.38c2.88,2.94,5.85,5.8,8.86,8.61,3.41,3.21,8.18,6.4,6.45,11.74-1.23,3.83-4.79,7.09-6.78,10.58a53.24,53.24,0,0,0-4.72,11.1,66.39,66.39,0,0,0-2.27,23.76c1.55,21.08,11.91,40.14,21.78,58.37,1.06,2,6.73,0,5.87-1.58-8.66-16-17.61-32.42-20.8-50.53a69.34,69.34,0,0,1,.15-26.24c1.81-8.66,5.91-15.21,10.65-22.48s1.25-11.26-4.28-16.43A208.81,208.81,0,0,1,458.15,600c-11.85-14.17-19.19-30.78-18-49.53,1.39-21.75,11.57-41.94,21.47-60.91,1.26-2.43-4.58-1.78-5.46-.1Z" transform="translate(-238.77 -74.82)"/>
      <path d="M425.78,490.21c-10.13,8.89-20.22,18.68-26.42,30.82-6.43,12.63-6.34,25.87,0,38.53,7.28,14.6,17,28.2,25.59,42.07,5,8.13,7.7,15.07,7,24.71-.61,8.19-1.37,16.34-1.58,24.56a313,313,0,0,0,3.81,57.2c.39,2.49,6.28,1,5.87-1.58a309,309,0,0,1-3.86-50.37q.09-12.06,1.12-24.08c.62-7.19,1.64-14.48-.86-21.44s-7-13-10.8-19.1l-13.64-22c-7.88-12.7-14.71-25.72-10-40.94,4.69-15.06,17.13-26.8,28.65-36.91,2.67-2.35-3.07-3.07-4.85-1.5Z" transform="translate(-238.77 -74.82)"/>
      <path d="M813,352.74c12.44,12.59,24.84,26.14,31.3,42.9a62.46,62.46,0,0,1,4.33,25.68,47.54,47.54,0,0,1-2.31,12.33c-1.46,4.37-4.13,8-5.85,12.22-5.73,14,15.21,16.23,23.69,19.13A56.56,56.56,0,0,1,897.88,497c7.22,18,4.07,39.05-7.5,54.46-1.29,1.71,4.42,1,5.36-.26,20.08-26.72,13.5-65.37-15.14-83.08-6.3-3.9-13-6-20.09-7.82-5.58-1.46-14.46-3.8-15.07-10.8-.39-4.48,3.17-8.42,4.94-12.25A44.86,44.86,0,0,0,854,424.89a59.87,59.87,0,0,0-2-25.38c-5.64-19.36-19.64-34.84-33.5-48.86-1.17-1.19-6.64.94-5.51,2.09Z" transform="translate(-238.77 -74.82)"/>
      <g>
        <path d="M340.35,296.53c-6,10.44-16.66,17.3-24,26.82-12.67,16.34-14,40.63-3.09,58.23,1.51,2.43,4.18,5,6.79,3.88a6.23,6.23,0,0,0,2.17-1.92c19.36-23.74,29.64-57.66,16.93-85.53" transform="translate(-238.77 -74.82)" fill="#4be9ff"/>
        <path d="M338.83,296.53c-7.65,12.76-21.34,20.41-28.41,33.62a53.78,53.78,0,0,0-4.53,38.36c1.79,6.95,8.71,25.12,17.81,15,9.47-10.5,16.27-24.84,19.86-38.4,4.19-15.8,3.84-32.49-2.8-47.55-.47-1.05-3.68,0-3.28.87,6.7,15.21,7,32,2.62,47.88a98.83,98.83,0,0,1-9.63,23,106.16,106.16,0,0,1-6,9.27c-.9,1.26-2.43,4.25-3.8,5-4,2.07-5.94-2.49-7.28-5-7.23-13.34-7.7-30-2-44,6.41-15.76,21.95-23.85,30.48-38.06.74-1.22-2.51-.84-3,0Z" transform="translate(-238.77 -74.82)" fill="#4be9ff"/>
      </g>
      <g>
        <path d="M421.56,316.85a198.3,198.3,0,0,1-23.9,31.7C389.81,357,381,365.21,377,376.07s-.78,25.42,10,29.65c6.81,2.67,14.84.4,20.5-4.24s9.29-11.29,12-18.07A101.15,101.15,0,0,0,422,314.94" transform="translate(-238.77 -74.82)" fill="#4be9ff"/>
        <path d="M420,316.76A202.88,202.88,0,0,1,403.46,340c-5.35,6.46-11.34,12.31-16.86,18.62-8.51,9.71-15.7,21.85-11.73,35.16,3.52,11.78,15.2,16.78,26.5,12.39,13.91-5.39,20.13-21.23,23.68-34.57a102.83,102.83,0,0,0-1.45-57.14c-.4-1.28-3.67-.37-3.27.88a101.66,101.66,0,0,1,1.43,56.6c-2.19,8.25-5.26,16.86-10.46,23.75-6.6,8.75-19.86,14.6-28.66,5.31-12.06-12.74-2.85-30.86,6.63-41.68,5.92-6.76,12.33-13,18-20a207,207,0,0,0,15.82-22.4c.86-1.4-2.44-1.22-3.08-.18Z" transform="translate(-238.77 -74.82)" fill="#4be9ff"/>
      </g>
      <g>
        <path d="M731.78,253.87c8.15,8.85,20.08,13.17,29.39,20.8,16,13.13,22.63,36.53,15.94,56.1-.93,2.7-3,5.83-5.76,5.29a6.17,6.17,0,0,1-2.54-1.39C744.67,315.82,727.1,285,733.31,255" transform="translate(-238.77 -74.82)" fill="#4be9ff"/>
        <path d="M730.25,254.48c11.1,11.57,27.5,16.06,37.32,29.11,9.4,12.51,12.91,29.52,8.75,44.65-.43,1.57-1.09,4.92-2.5,5.92-2.49,1.77-5.54-1.73-7.11-3.08a104.16,104.16,0,0,1-8-7.58,99.14,99.14,0,0,1-15.63-21.43c-7.77-14.51-11.29-31-8.14-47.26.22-1.12-3.06-.58-3.26.46-5.65,29.15,9.77,57.79,31.38,76.54,3.22,2.79,7,6.82,11.49,4.33,4.71-2.59,5.68-10,6.32-14.69a53.85,53.85,0,0,0-8.59-36.75c-9.79-14.66-27.15-19.14-39-31.45-.74-.77-3.84.42-3.06,1.23Z" transform="translate(-238.77 -74.82)" fill="#4be9ff"/>
      </g>
      <g>
        <path d="M669,300.25a198,198,0,0,0,30.35,25.6c9.53,6.53,20,12.54,26.22,22.25s6.4,24.62-3.14,31.12c-6,4.13-14.38,3.7-20.93.43s-11.57-8.95-15.75-14.95a101.1,101.1,0,0,1-17.57-66.21" transform="translate(-238.77 -74.82)" fill="#4be9ff"/>
        <path d="M667.43,300.92a206.52,206.52,0,0,0,20.37,18.3c7.09,5.55,14.74,10.24,22,15.52,11.76,8.53,26.16,26.1,14.71,40.84-7.67,9.86-21.48,5.09-29.19-2-6.63-6.07-11.65-14.24-15.58-22.25a101.77,101.77,0,0,1-10-53.05c.12-1.47-3.18-.9-3.29.35a103,103,0,0,0,7.26,47.51c5.43,13.19,14.18,29.23,28,35.05,10.66,4.48,24.35,1.27,28.51-10.39,4.86-13.63-3.62-26.47-13.87-34.75-6.65-5.37-14.08-9.69-21-14.74a201,201,0,0,1-25-21.76c-.89-.9-4,.35-3,1.34Z" transform="translate(-238.77 -74.82)" fill="#4be9ff"/>
      </g>
    </g>
  </g>
</svg>
